ply
format ascii 1.0
element vertex 204
property float x
property float y
property float z
property float u
property float v
element face 266
property list uchar int vertex_indices
end_header
377 64.9706 0 377 64.9706
367.92 74.9203 0 367.92 74.9203
363.062 97.0625 0 363.062 97.0625
379.875 122 0 379.875 122
389.239 142.761 0 389.239 142.761
359.754 139.246 0 359.754 139.246
334.279 156 0 334.279 156
326 178.922 0 326 178.922
337.137 206.137 0 337.137 206.137
337.434 219 0 337.434 219
309.919 214 0 309.919 214
285.132 207 0 285.132 207
263.416 193.416 0 263.416 193.416
250.898 183.898 0 250.898 183.898
231.044 187 0 231.044 187
218.424 187.576 0 218.424 187.576
205.403 189.403 0 205.403 189.403
188.91 197.91 0 188.91 197.91
166 219.003 0 166 219.003
142.553 233 0 142.553 233
126.337 209.663 0 126.337 209.663
132.823 192.177 0 132.823 192.177
140.843 173.843 0 140.843 173.843
137.743 146.257 0 137.743 146.257
121.838 129 0 121.838 129
101.094 125.906 0 101.094 125.906
74.2744 128 0 74.2744 128
60 151.755 0 60 151.755
59 172.199 0 59 172.199
61.2287 186 0 61.2287 186
59.0614 207.061 0 59.0614 207.061
49.5308 198 0 49.5308 198
54.8536 191 0 54.8536 191
48.8755 176.875 0 48.8755 176.875
39.9758 191.024 0 39.9758 191.024
37.5217 214 0 37.5217 214
32.8123 227.188 0 32.8123 227.188
44.7759 252 0 44.7759 252
49.9418 256.058 0 49.9418 256.058
61.5436 253.456 0 61.5436 253.456
74 255.213 0 74 255.213
92 240.172 0 92 240.172
98 219.799 0 98 219.799
105 219.716 0 105 219.716
112 239.574 0 112 239.574
131.361 252 0 131.361 252
149 262.048 0 149 262.048
150 292.149 0 150 292.149
160 321.007 0 160 321.007
162.681 343.319 0 162.681 343.319
137.833 359 0 137.833 359
110.804 372 0 110.804 372
102.547 385.453 0 102.547 385.453
100.526 401.474 0 100.526 401.474
96 430.942 0 96 430.942
85.3129 458.687 0 85.3129 458.687
80.001 482.999 0 80.001 482.999
69.8567 495.857 0 69.8567 495.857
47.8357 508.164 0 47.8357 508.164
42.6761 515 0 42.6761 515
25 526.463 0 25 526.463
41 523.265 0 41 523.265
55.4191 515.419 0 55.4191 515.419
71 514.208 0 71 514.208
88.4601 516.46 0 88.4601 516.46
90.6519 523.348 0 90.6519 523.348
100.863 534.137 0 100.863 534.137
80.5352 534 0 80.5352 534
54.8936 527.894 0 54.8936 527.894
46 527.406 0 46 527.406
65.1073 536 0 65.1073 536
95.1469 538.853 0 95.1469 538.853
122.925 539.075 0 122.925 539.075
153.408 539 0 153.408 539
185.578 541 0 185.578 541
215.678 542 0 215.678 542
245.551 544.449 0 245.551 544.449
276.708 546 0 276.708 546
308.036 546.036 0 308.036 546.036
329 542.921 0 329 542.921
316.509 526.509 0 316.509 526.509
304.539 513.539 0 304.539 513.539
289.811 502.189 0 289.811 502.189
275.947 486 0 275.947 486
280.496 475 0 280.496 475
287.543 466.543 0 287.543 466.543
294.211 459 0 294.211 459
306.002 453.998 0 306.002 453.998
304.097 449 0 304.097 449
290.376 449.376 0 290.376 449.376
287.404 445 0 287.404 445
275 443.032 0 275 443.032
251.986 454 0 251.986 454
267.027 432 0 267.027 432
266.78 425.22 0 266.78 425.22
251.957 436.043 0 251.957 436.043
242.892 433.108 0 242.892 433.108
235.259 444.741 0 235.259 444.741
223 466.076 0 223 466.076
198.583 467.583 0 198.583 467.583
182 449.795 0 182 449.795
177 419.695 0 177 419.695
202.943 405.057 0 202.943 405.057
231.777 397 0 231.777 397
258 389.78 0 258 389.78
278.833 369.167 0 278.833 369.167
295.389 345.611 0 295.389 345.611
315.336 336 0 315.336 336
344.607 343 0 344.607 343
375.95 347 0 375.95 347
407.293 349 0 407.293 349
437.393 344 0 437.393 344
464.127 328.873 0 464.127 328.873
488.927 309.073 0 488.927 309.073
507.311 283.689 0 507.311 283.689
515 253.875 0 515 253.875
543.159 254.841 0 543.159 254.841
556 239.503 0 556 239.503
551.164 210.164 0 551.164 210.164
538.849 182.849 0 538.849 182.849
526.12 155.12 0 526.12 155.12
504.029 133.029 0 504.029 133.029
474.543 130.543 0 474.543 130.543
469 107.152 0 469 107.152
462.328 87.6724 0 462.328 87.6724
448 65.1636 0 448 65.1636
436.973 61.0273 0 436.973 61.0273
397 57 0 397 57
280.553 452.851 0 280.553 452.851
297.03 441.659 0 297.03 441.659
298.969 453.817 0 298.969 453.817
53.7538 245.888 0 53.7538 245.888
47.6601 520.313 0 47.6601 520.313
101.342 206.422 0 101.342 206.422
102.679 515.729 0 102.679 515.729
93.4281 530.947 0 93.4281 530.947
258.127 428.931 0 258.127 428.931
307.869 440.491 0 307.869 440.491
314.417 457.76 0 314.417 457.76
302.287 461.639 0 302.287 461.639
64.708 197 0 64.708 197
31.4324 517.022 0 31.4324 517.022
99.7108 524.345 0 99.7108 524.345
115.581 524.992 0 115.581 524.992
59.6348 503.422 0 59.6348 503.422
275.789 463.913 0 275.789 463.913
41.8852 238.103 0 41.8852 238.103
70.2593 236.692 0 70.2593 236.692
267.465 453.772 0 267.465 453.772
215.396 213.296 0 215.396 213.296
361.791 212.003 0 361.791 212.003
324.337 212.867 0 324.337 212.867
434.606 84.1039 0 434.606 84.1039
83.9251 184.872 0 83.9251 184.872
79.0993 211.692 0 79.0993 211.692
265.006 475.034 0 265.006 475.034
225.379 201.433 0 225.379 201.433
132.304 394.456 0 132.304 394.456
391.416 87.2433 0 391.416 87.2433
94.5926 497.11 0 94.5926 497.11
138.125 522.193 0 138.125 522.193
55.7031 229.977 0 55.7031 229.977
319.273 240.733 0 319.273 240.733
249.585 501.361 0 249.585 501.361
243.264 200.124 0 243.264 200.124
123.897 499.791 0 123.897 499.791
235.75 220.292 0 235.75 220.292
284.403 524.437 0 284.403 524.437
106.786 158.831 0 106.786 158.831
203.848 327.054 0 203.848 327.054
529.892 230.689 0 529.892 230.689
446.122 104.106 0 446.122 104.106
79.3867 162.95 0 79.3867 162.95
101.825 475.031 0 101.825 475.031
287.052 302.804 0 287.052 302.804
260.405 217.994 0 260.405 217.994
212.244 255.57 0 212.244 255.57
355.755 182.632 0 355.755 182.632
171.534 507.165 0 171.534 507.165
361.757 257.78 0 361.757 257.78
290.368 235.844 0 290.368 235.844
212.92 501.329 0 212.92 501.329
414.563 118.846 0 414.563 118.846
251.539 256.282 0 251.539 256.282
170.323 477.305 0 170.323 477.305
172.294 381.047 0 172.294 381.047
138.749 441.515 0 138.749 441.515
485.78 173.37 0 485.78 173.37
239.908 350.661 0 239.908 350.661
185.803 295.903 0 185.803 295.903
402.919 188.245 0 402.919 188.245
438.806 271.727 0 438.806 271.727
365.652 302.899 0 365.652 302.899
299.481 269.857 0 299.481 269.857
485.972 218.855 0 485.972 218.855
208.415 369.018 0 208.415 369.018
434.553 307.794 0 434.553 307.794
476.192 259.765 0 476.192 259.765
225.999 293.421 0 225.999 293.421
426.133 156.464 0 426.133 156.464
325.665 298.552 0 325.665 298.552
401.504 285.613 0 401.504 285.613
447.104 196.151 0 447.104 196.151
405.088 238.197 0 405.088 238.197
3 33 32 34
3 34 31 35
3 31 34 32
3 26 25 172
3 153 29 28
3 154 153 133
3 146 131 37
3 38 37 131
3 147 131 161
3 147 40 39
3 147 154 41
3 131 147 39
3 38 131 39
3 35 31 30
3 168 172 25
3 24 23 168
3 22 21 168
3 133 153 168
3 133 21 20
3 15 156 16
3 17 16 149
3 43 20 44
3 42 133 43
3 20 19 44
3 133 20 43
3 19 18 46
3 46 45 19
3 18 149 176
3 176 149 166
3 19 45 44
3 46 18 176
3 168 21 133
3 58 144 62
3 132 58 62
3 63 62 144
3 61 141 59
3 66 142 143
3 57 56 159
3 63 57 64
3 134 65 64
3 60 141 61
3 61 59 132
3 70 69 68
3 145 85 84
3 71 70 67
3 71 135 66
3 86 128 89
3 143 165 160
3 50 157 51
3 52 51 157
3 53 52 157
3 169 188 195
3 102 101 185
3 49 48 169
3 185 50 49
3 157 54 53
3 54 186 173
3 65 142 135
3 66 143 72
3 160 73 72
3 66 72 71
3 181 74 178
3 160 178 73
3 98 163 181
3 99 98 181
3 178 74 73
3 101 100 186
3 156 15 14
3 159 64 57
3 177 7 6
3 150 8 177
3 0 158 1
3 2 1 158
3 127 158 0
3 4 190 177
3 12 175 164
3 12 164 13
3 162 180 10
3 189 46 176
3 162 10 151
3 7 177 8
3 107 174 200
3 162 9 179
3 156 166 149
3 152 126 125
3 152 125 124
3 124 171 152
3 58 132 59
3 152 127 126
3 202 199 187
3 121 187 122
3 158 152 182
3 187 121 120
3 113 112 196
3 196 191 113
3 111 196 112
3 117 170 118
3 40 147 41
3 170 116 115
3 117 116 170
3 86 89 130
3 170 194 119
3 119 187 120
3 35 30 161
3 8 150 9
3 192 110 109
3 102 195 103
3 96 95 97
3 93 136 94
3 93 91 148
3 93 95 136
3 188 103 195
3 95 92 97
3 155 83 163
3 148 155 92
3 145 148 128
3 92 98 97
3 128 85 145
3 128 90 89
3 84 155 145
3 82 167 163
3 167 76 163
3 91 90 128
3 89 90 129
3 193 200 174
3 110 201 196
3 87 138 139
3 88 87 130
3 78 77 167
3 85 128 86
3 87 139 130
3 78 80 79
3 167 80 78
3 81 167 82
3 105 104 188
3 17 149 18
3 154 140 153
3 64 159 134
3 67 135 71
3 142 65 134
3 88 129 137
3 139 86 130
3 153 140 29
3 154 133 42
3 142 134 143
3 66 135 142
3 72 143 160
3 159 165 134
3 58 57 144
3 63 144 57
3 155 84 83
3 128 148 91
3 37 36 146
3 161 36 35
3 161 131 146
3 161 154 147
3 155 148 145
3 16 156 149
3 166 164 175
3 190 4 199
3 197 113 191
3 162 151 9
3 171 124 123
3 2 158 3
3 172 28 27
3 25 24 168
3 154 42 41
3 30 140 154
3 98 92 155
3 83 82 163
3 164 14 13
3 156 14 164
3 185 157 50
3 157 101 186
3 127 152 158
3 182 152 171
3 55 173 56
3 173 165 159
3 143 134 165
3 99 184 100
3 161 146 36
3 154 161 30
3 9 150 179
3 107 106 174
3 75 163 76
3 98 155 163
3 12 11 175
3 156 164 166
3 159 56 173
3 99 181 184
3 192 200 179
3 188 174 106
3 167 77 76
3 167 81 80
3 22 168 23
3 172 153 28
3 189 48 47
3 198 169 189
3 115 194 170
3 119 118 170
3 122 171 123
3 3 182 4
3 26 172 27
3 168 153 172
3 55 54 173
3 157 186 54
3 106 105 188
3 175 180 183
3 180 11 10
3 175 11 180
3 166 175 183
3 169 48 189
3 4 177 5
3 6 5 177
3 184 181 178
3 165 178 160
3 150 190 203
3 108 192 109
3 162 193 180
3 183 176 166
3 163 75 181
3 181 75 74
3 158 182 3
3 199 171 122
3 193 183 180
3 174 188 198
3 178 165 184
3 186 165 173
3 195 49 169
3 185 101 157
3 100 184 186
3 186 184 165
3 197 114 113
3 190 150 177
3 188 169 198
3 103 188 104
3 46 189 47
3 198 189 176
3 199 4 182
3 194 187 119
3 203 191 201
3 202 190 199
3 200 108 107
3 196 201 191
3 162 179 200
3 183 193 174
3 114 197 115
3 191 203 202
3 195 185 49
3 102 185 195
3 111 110 196
3 201 110 192
3 202 197 191
3 194 115 197
3 176 183 198
3 174 198 183
3 171 199 182
3 187 199 122
3 200 193 162
3 108 200 192
3 192 179 201
3 203 201 179
3 187 194 202
3 202 194 197
3 150 203 179
3 202 203 190
