ply
format ascii 1.0
element vertex 157
property float x
property float y
property float z
property float u
property float v
element face 181
property list uchar int vertex_indices
end_header
40 12.0711 0 40 12.0711
35 12.4437 0 35 12.4437
28 28.1299 0 28 28.1299
22.2513 45.7487 0 22.2513 45.7487
14.1802 61.8198 0 14.1802 61.8198
7.10915 74.8909 0 7.10915 74.8909
1 90.9461 0 1 90.9461
17 92.1249 0 17 92.1249
27 85.9756 0 27 85.9756
26 97.0761 0 26 97.0761
37.8319 90.1681 0 37.8319 90.1681
39 83.4486 0 39 83.4486
54.3883 88.3883 0 54.3883 88.3883
71.2354 96 0 71.2354 96
83 106.579 0 83 106.579
83 125.75 0 83 125.75
82 145.336 0 82 145.336
79 162.679 0 79 162.679
79 182.679 0 79 182.679
84 200.608 0 84 200.608
92.9152 216.915 0 92.9152 216.915
105.815 225.815 0 105.815 225.815
120.128 238.128 0 120.128 238.128
136.614 246.614 0 136.614 246.614
131.901 262.099 0 131.901 262.099
124 278.826 0 124 278.826
115.637 295.363 0 115.637 295.363
110.141 312.141 0 110.141 312.141
120.747 327.747 0 120.747 327.747
129.94 343.94 0 129.94 343.94
137 361.016 0 137 361.016
152.116 370 0 152.116 370
154.432 383.568 0 154.432 383.568
146.661 398 0 146.661 398
165.881 396.119 0 165.881 396.119
168.831 378.169 0 168.831 378.169
173 364.138 0 173 364.138
170.438 345.562 0 170.438 345.562
173 326.623 0 173 326.623
176 307.866 0 176 307.866
178 288.694 0 178 288.694
180 269.522 0 180 269.522
187.821 261 0 187.821 261
205.336 265 0 205.336 265
224.507 267 0 224.507 267
244.508 267 0 244.508 267
262.437 266 0 262.437 266
281.608 264 0 281.608 264
298.501 261.501 0 298.501 261.501
313.229 274.229 0 313.229 274.229
327.25 287.25 0 327.25 287.25
340 301.383 0 340 301.383
331.123 316.877 0 331.123 316.877
317.395 330.605 0 317.395 330.605
302.374 342.626 0 302.374 342.626
295 358.986 0 295 358.986
291 377.329 0 291 377.329
303.304 382.696 0 303.304 382.696
310 366.884 0 310 366.884
310.389 354 0 310.389 354
321.882 339.118 0 321.882 339.118
335.317 324.683 0 335.317 324.683
350.923 314.077 0 350.923 314.077
363.884 301.884 0 363.884 301.884
351.864 286.864 0 351.864 286.864
351.294 272 0 351.294 272
367.566 281 0 367.566 281
383.886 289.886 0 383.886 289.886
396 304.282 0 396 304.282
401 322.211 0 401 322.211
401 342.212 0 401 342.212
398 360.969 0 398 360.969
391.658 378.342 0 391.658 378.342
383 394.755 0 383 394.755
399.271 394 0 399.271 394
405 378.215 0 405 378.215
411 361.286 0 411 361.286
410 341.699 0 410 341.699
411 322.114 0 411 322.114
411 302.942 0 411 302.942
406.428 286 0 406.428 286
391.281 274.281 0 391.281 274.281
383 257.712 0 383 257.712
385.447 239.553 0 385.447 239.553
390 221.439 0 390 221.439
393.225 202.775 0 393.225 202.775
394 183.924 0 394 183.924
391 165.167 0 391 165.167
384 148.066 0 384 148.066
385.146 140.146 0 385.146 140.146
401.924 147.924 0 401.924 147.924
415.238 161.238 0 415.238 161.238
420 179.265 0 420 179.265
427.259 196.259 0 427.259 196.259
433 213.295 0 433 213.295
437 231.638 0 437 231.638
449.351 245.351 0 449.351 245.351
465.354 253 0 465.354 253
457.264 239.264 0 457.264 239.264
445 225.516 0 445 225.516
439.586 208.586 0 439.586 208.586
438.778 191.222 0 438.778 191.222
440 172.557 0 440 172.557
435.444 154.444 0 435.444 154.444
423.545 140.545 0 423.545 140.545
406.256 134 0 406.256 134
388.328 129 0 388.328 129
370.868 122.868 0 370.868 122.868
354.383 114.383 0 354.383 114.383
336.199 110 0 336.199 110
317.028 108 0 317.028 108
297.027 108 0 297.027 108
277.856 110 0 277.856 110
258.685 110 0 258.685 110
244.465 108.535 0 244.465 108.535
231.827 109 0 231.827 109
212.757 106.757 0 212.757 106.757
199.729 98.2712 0 199.729 98.2712
194.506 92.4935 0 194.506 92.4935
193 87.0591 0 193 87.0591
188 87.0125 0 188 87.0125
182.766 96.2338 0 182.766 96.2338
168.453 85.453 0 168.453 85.453
156 71.1965 0 156 71.1965
142 57.5813 0 142 57.5813
128.097 45.0972 0 128.097 45.0972
112.784 33.7836 0 112.784 33.7836
96.2985 25.2985 0 96.2985 25.2985
80 17.3221 0 80 17.3221
65.2783 13.2783 0 65.2783 13.2783
42 1 0 42 1
38.3253 23.3326 0 38.3253 23.3326
366.01 141.421 0 366.01 141.421
239.4 142.813 0 239.4 142.813
164.105 247.086 0 164.105 247.086
40.7368 42.033 0 40.7368 42.033
102.207 73.3869 0 102.207 73.3869
187.082 131.932 0 187.082 131.932
119.931 191.555 0 119.931 191.555
66.1615 38.8823 0 66.1615 38.8823
151.405 281.541 0 151.405 281.541
146.564 312.776 0 146.564 312.776
358.259 245.134 0 358.259 245.134
352.185 180.994 0 352.185 180.994
207.354 215.817 0 207.354 215.817
283.323 217.243 0 283.323 217.243
53.9447 63.3311 0 53.9447 63.3311
130.478 106.057 0 130.478 106.057
111.933 159.445 0 111.933 159.445
142.59 214.746 0 142.59 214.746
364.462 207.416 0 364.462 207.416
251.576 232.495 0 251.576 232.495
158.864 113.076 0 158.864 113.076
268.271 137.708 0 268.271 137.708
325.987 244.581 0 325.987 244.581
322.291 150.428 0 322.291 150.428
260.915 180.292 0 260.915 180.292
3 131 135 2
3 8 5 4
3 135 146 3
3 0 130 129
3 131 1 0
3 1 131 2
3 113 133 114
3 21 149 22
3 4 3 146
3 5 7 6
3 5 8 7
3 8 10 9
3 2 135 3
3 12 11 146
3 11 10 8
3 4 11 8
3 139 128 127
3 156 133 153
3 127 126 136
3 136 126 125
3 124 136 125
3 122 147 123
3 124 123 147
3 147 136 124
3 118 121 120
3 122 152 147
3 136 147 14
3 118 117 121
3 120 119 118
3 116 137 117
3 44 144 151
3 116 133 137
3 116 115 133
3 135 131 139
3 138 18 148
3 148 17 16
3 15 147 148
3 19 138 20
3 19 18 138
3 20 138 21
3 21 138 149
3 141 26 25
3 27 26 141
3 141 29 28
3 24 140 25
3 37 30 29
3 23 134 24
3 25 140 141
3 15 14 147
3 41 134 42
3 38 141 39
3 41 140 134
3 47 151 145
3 151 46 45
3 44 43 144
3 144 43 42
3 137 121 117
3 34 32 35
3 34 33 32
3 32 31 35
3 29 141 37
3 31 36 35
3 36 31 37
3 37 31 30
3 141 38 37
3 140 41 40
3 113 112 153
3 0 129 131
3 110 109 155
3 155 108 132
3 109 108 155
3 107 89 132
3 106 89 107
3 107 132 108
3 88 132 89
3 87 86 143
3 65 49 154
3 151 47 46
3 65 142 82
3 132 143 155
3 86 150 143
3 85 150 86
3 142 83 82
3 150 85 84
3 89 106 105
3 110 155 111
3 91 90 104
3 105 90 89
3 90 105 104
3 102 91 103
3 92 102 101
3 92 91 102
3 103 91 104
3 143 88 87
3 94 93 100
3 101 93 92
3 99 95 94
3 100 93 101
3 99 96 95
3 96 98 97
3 98 96 99
3 99 94 100
3 156 155 145
3 50 49 65
3 52 61 53
3 62 61 52
3 64 51 50
3 51 62 52
3 63 62 51
3 51 64 63
3 64 50 65
3 154 49 48
3 58 56 55
3 58 57 56
3 55 54 59
3 60 59 54
3 60 53 61
3 59 58 55
3 60 54 53
3 66 81 67
3 66 65 82
3 81 80 67
3 80 79 68
3 79 69 68
3 80 68 67
3 78 69 79
3 74 72 75
3 74 73 72
3 72 71 75
3 69 77 70
3 77 69 78
3 76 75 71
3 76 70 77
3 76 71 70
3 82 81 66
3 115 114 133
3 139 129 128
3 131 129 139
3 4 146 11
3 14 13 136
3 12 146 13
3 144 137 133
3 149 23 22
3 148 18 17
3 144 149 137
3 127 136 139
3 136 13 146
3 140 24 134
3 39 140 40
3 141 28 27
3 140 39 141
3 143 132 88
3 83 142 150
3 142 65 154
3 145 48 47
3 42 134 144
3 134 23 149
3 133 113 153
3 143 150 154
3 135 139 146
3 136 146 139
3 152 122 121
3 137 138 148
3 15 148 16
3 148 147 152
3 137 149 138
3 144 134 149
3 83 150 84
3 150 142 154
3 44 151 45
3 156 144 133
3 121 137 152
3 148 152 137
3 111 153 112
3 153 155 156
3 48 145 154
3 154 145 143
3 145 155 143
3 111 155 153
3 145 151 156
3 144 156 151
