ply
format ascii 1.0
element vertex 178
property float x
property float y
property float z
property float u
property float v
element face 239
property list uchar int vertex_indices
end_header
307.757 45.2426 0 307.757 45.2426
296.858 55.1421 0 296.858 55.1421
289.787 67.2132 0 289.787 67.2132
285 80.2304 0 285 80.2304
285 94.402 0 285 94.402
290 107.331 0 290 107.331
292.574 118.426 0 292.574 118.426
281.674 128.326 0 281.674 128.326
271.482 138.518 0 271.482 138.518
261.582 149.418 0 261.582 149.418
251.683 160.317 0 251.683 160.317
241.451 169 0 241.451 169
228.936 163 0 228.936 163
217.762 153.762 0 217.762 153.762
208 142.806 0 208 142.806
200.792 130.792 0 200.792 130.792
204.986 119.014 0 204.986 119.014
208.65 106.65 0 208.65 106.65
199.579 96.5787 0 199.579 96.5787
187.889 90 0 187.889 90
174.093 92.9066 0 174.093 92.9066
164 102.554 0 164 102.554
153.931 111 0 153.931 111
144 120.755 0 144 120.755
146.777 131.777 0 146.777 131.777
150.027 144 0 150.027 144
162.956 147 0 162.956 147
171.713 153 0 171.713 153
183 148.814 0 183 148.814
189.94 160.94 0 189.94 160.94
198.425 172.425 0 198.425 172.425
209.617 181.617 0 209.617 181.617
221.559 189 0 221.559 189
234 194.488 0 234 194.488
237 208.245 0 237 208.245
245.346 219 0 245.346 219
255.618 209 0 255.618 209
268.68 213.68 0 268.68 213.68
278.751 213.249 0 278.751 213.249
283.701 200.299 0 283.701 200.299
286.349 188.349 0 286.349 188.349
278 183.737 0 278 183.737
287.257 173.743 0 287.257 173.743
295 178.293 0 295 178.293
297 192.464 0 297 192.464
296 207.05 0 296 207.05
295 221.636 0 295 221.636
295 235.808 0 295 235.808
294 250.394 0 294 250.394
294.985 264.985 0 294.985 264.985
293 278.322 0 293 278.322
289.236 291.764 0 289.236 291.764
286 305.423 0 286 305.423
282.165 318.835 0 282.165 318.835
280 332.938 0 280 332.938
278 347.11 0 278 347.11
275.801 361.199 0 275.801 361.199
273 375.039 0 273 375.039
270 388.796 0 270 388.796
266 402.14 0 266 402.14
265 416.725 0 265 416.725
271.24 429 0 271.24 429
284.998 430 0 284.998 430
296.191 420.809 0 296.191 420.809
306 409.872 0 306 409.872
312.454 397.546 0 312.454 397.546
319.111 388.111 0 319.111 388.111
324.768 400.768 0 324.768 400.768
328 414.43 0 328 414.43
336.116 426 0 336.116 426
349.459 426 0 349.459 426
353.274 423.726 0 353.274 423.726
362.053 412.947 0 362.053 412.947
367 399.996 0 367 399.996
368 385.411 0 368 385.411
370 371.239 0 370 371.239
371 356.653 0 371 356.653
372 342.067 0 372 342.067
371 327.482 0 371 327.482
370 312.896 0 370 312.896
369 298.31 0 369 298.31
369 283.31 0 369 283.31
369 268.31 0 369 268.31
373.024 256.976 0 373.024 256.976
380.802 245.198 0 380.802 245.198
381 230.28 0 381 230.28
379 216.109 0 379 216.109
376.248 202.248 0 376.248 202.248
374 188.18 0 374 188.18
371 174.422 0 371 174.422
373.53 163.53 0 373.53 163.53
382.723 174.723 0 382.723 174.723
391.915 185.915 0 391.915 185.915
399.693 197.693 0 399.693 197.693
407 209.667 0 407 209.667
415.25 221.25 0 415.25 221.25
429.11 222 0 429.11 222
441.149 214.851 0 441.149 214.851
447 202.274 0 447 202.274
448 188.517 0 448 188.517
447 173.931 0 447 173.931
441.294 161.294 0 441.294 161.294
432.102 150.102 0 432.102 150.102
422.323 140.323 0 422.323 140.323
411.717 129.717 0 411.717 129.717
401.232 120.232 0 401.232 120.232
388.867 113.867 0 388.867 113.867
376.211 108.211 0 376.211 108.211
363.554 102.554 0 363.554 102.554
367.518 90.4824 0 367.518 90.4824
370 76.5107 0 370 76.5107
366.118 63.1183 0 366.118 63.1183
357.633 51.6328 0 357.633 51.6328
345.38 45 0 345.38 45
321 41 0 321 41
347.034 417.594 0 347.034 417.594
299.797 161.267 0 299.797 161.267
173.619 140.828 0 173.619 140.828
273.3 203.745 0 273.3 203.745
351.514 164.156 0 351.514 164.156
156.436 123.483 0 156.436 123.483
184.744 109.264 0 184.744 109.264
312.425 107.976 0 312.425 107.976
258.688 178.942 0 258.688 178.942
297.809 380.146 0 297.809 380.146
349.421 254.977 0 349.421 254.977
186.834 134.806 0 186.834 134.806
191.614 120.888 0 191.614 120.888
342.539 88.9661 0 342.539 88.9661
279.74 155.964 0 279.74 155.964
286.94 401.146 0 286.94 401.146
307.951 330.011 0 307.951 330.011
316.725 292.213 0 316.725 292.213
324.288 201.662 0 324.288 201.662
383.535 139.42 0 383.535 139.42
408.584 163.842 0 408.584 163.842
423.517 191.371 0 423.517 191.371
343.449 384.826 0 343.449 384.826
339.429 404.513 0 339.429 404.513
301.3 138.984 0 301.3 138.984
352.648 185.629 0 352.648 185.629
301.564 95.4275 0 301.564 95.4275
298.168 357.474 0 298.168 357.474
349.564 275.81 0 349.564 275.81
321.447 255.869 0 321.447 255.869
353.002 227.005 0 353.002 227.005
173.722 123.543 0 173.722 123.543
320.805 70.5588 0 320.805 70.5588
346.4 68.8092 0 346.4 68.8092
355.549 81.1495 0 355.549 81.1495
272.608 169.458 0 272.608 169.458
298.589 316.277 0 298.589 316.277
342.712 322.094 0 342.712 322.094
311.323 274.234 0 311.323 274.234
315.511 182.625 0 315.511 182.625
312.265 215.493 0 312.265 215.493
359.507 128.595 0 359.507 128.595
376.472 124.613 0 376.472 124.613
425.143 165.188 0 425.143 165.188
391.103 158.468 0 391.103 158.468
405.672 146.368 0 405.672 146.368
427.978 206.381 0 427.978 206.381
408.633 183.332 0 408.633 183.332
348.753 362.455 0 348.753 362.455
301.474 78.8998 0 301.474 78.8998
293.348 342.049 0 293.348 342.049
309.519 244.13 0 309.519 244.13
365.96 237.541 0 365.96 237.541
362.104 212.26 0 362.104 212.26
318.429 55.7631 0 318.429 55.7631
354.735 335.924 0 354.735 335.924
352.735 306.752 0 352.735 306.752
320.385 90.1115 0 320.385 90.1115
318.741 312.599 0 318.741 312.599
332.677 221.096 0 332.677 221.096
330.913 344.492 0 330.913 344.492
326.877 238.423 0 326.877 238.423
326.262 151.86 0 326.262 151.86
3 120 23 22
3 121 146 21
3 19 18 121
3 121 18 17
3 121 17 16
3 121 20 19
3 15 14 126
3 120 25 24
3 120 24 23
3 72 71 115
3 29 28 14
3 27 26 117
3 126 14 28
3 117 28 27
3 117 126 28
3 138 68 67
3 4 3 141
3 122 5 141
3 128 156 122
3 164 141 3
3 139 129 7
3 29 13 30
3 14 13 29
3 9 8 129
3 9 129 150
3 9 150 10
3 31 13 12
3 6 139 7
3 32 12 11
3 11 33 32
3 12 32 31
3 34 33 36
3 34 36 35
3 38 118 39
3 33 11 123
3 31 30 13
3 61 60 62
3 58 130 59
3 60 130 62
3 59 130 60
3 58 57 124
3 89 119 90
3 38 37 118
3 39 41 40
3 150 42 41
3 49 48 166
3 123 11 10
3 142 124 56
3 124 66 65
3 165 142 55
3 53 52 151
3 153 50 49
3 151 131 165
3 132 151 51
3 132 50 153
3 41 39 118
3 42 150 129
3 25 120 26
3 43 42 116
3 154 177 119
3 169 113 148
3 21 20 121
3 113 112 148
3 149 111 110
3 26 120 117
3 149 110 109
3 128 149 108
3 127 16 15
3 149 109 108
3 43 154 44
3 157 107 106
3 154 133 44
3 154 43 116
3 119 89 140
3 107 156 108
3 128 108 156
3 86 168 87
3 105 104 160
3 160 103 135
3 104 103 160
3 102 158 103
3 91 159 135
3 136 158 100
3 90 159 91
3 162 136 93
3 94 93 136
3 88 140 89
3 97 96 161
3 98 97 161
3 99 98 136
3 100 99 136
3 144 166 176
3 139 116 129
3 106 134 157
3 146 22 21
3 65 64 130
3 152 79 78
3 65 130 124
3 137 67 66
3 73 137 74
3 72 115 138
3 72 138 73
3 45 133 155
3 63 62 130
3 118 36 123
3 115 70 69
3 68 115 69
3 37 36 118
3 70 115 71
3 138 115 68
3 82 125 83
3 145 167 125
3 81 143 82
3 167 145 168
3 161 94 136
3 161 95 94
3 143 125 82
3 76 75 163
3 79 171 80
3 170 175 152
3 163 75 137
3 142 66 124
3 171 132 143
3 167 85 84
3 167 86 85
3 0 169 1
3 126 117 146
3 6 5 122
3 4 141 5
3 118 123 41
3 33 123 36
3 57 56 124
3 142 56 55
3 47 46 155
3 155 46 45
3 146 117 120
3 16 127 121
3 15 126 127
3 146 127 126
3 141 164 172
3 112 111 148
3 7 129 8
3 116 42 129
3 124 130 58
3 63 130 64
3 76 163 170
3 53 151 54
3 79 152 171
3 51 50 132
3 167 168 86
3 45 44 133
3 90 119 156
3 106 105 134
3 158 102 101
3 91 135 92
3 162 93 92
3 103 158 135
3 175 66 142
3 75 74 137
3 67 137 138
3 73 138 137
3 6 122 139
3 122 156 177
3 168 88 87
3 154 140 133
3 2 164 3
3 1 147 164
3 165 55 54
3 175 142 131
3 80 143 81
3 143 132 153
3 166 48 47
3 144 125 143
3 125 144 176
3 133 140 168
3 146 120 22
3 127 146 121
3 114 169 0
3 172 122 141
3 128 147 148
3 148 147 169
3 128 148 149
3 111 149 148
3 10 150 123
3 41 123 150
3 51 151 52
3 173 151 132
3 170 78 77
3 173 131 151
3 49 144 153
3 143 153 144
3 177 154 116
3 140 154 119
3 174 155 133
3 144 49 166
3 90 156 134
3 119 177 156
3 134 156 157
3 156 107 157
3 100 158 101
3 162 158 136
3 90 134 159
3 134 105 160
3 135 159 160
3 134 160 159
3 95 161 96
3 98 161 136
3 92 135 162
3 158 162 135
3 137 66 163
3 170 152 78
3 1 164 2
3 172 164 147
3 151 165 54
3 131 142 165
3 47 155 166
3 155 174 176
3 84 83 167
3 125 167 83
3 168 145 174
3 88 168 140
3 113 169 114
3 1 169 147
3 175 170 163
3 76 170 77
3 171 152 173
3 143 80 171
3 147 128 172
3 128 122 172
3 171 173 132
3 175 173 152
3 168 174 133
3 125 176 145
3 173 175 131
3 175 163 66
3 155 176 166
3 176 174 145
3 116 139 177
3 177 139 122
