ply
format ascii 1.0
element vertex 305
property float x
property float y
property float z
property float u
property float v
element face 353
property list uchar int vertex_indices
end_header
23.8284 -311 0 535.828 73
14.071 -304 0 526.071 80
3.31372 -298 0 515.314 86
-7.44366 -292 0 504.556 92
-14.8492 -284.151 0 497.151 99.8492
-19.799 -277.201 0 492.201 106.799
-27.4731 -268 0 484.527 116
-33 -270.645 0 479 113.355
-41 -279.402 0 471 104.598
-50.3553 -289.355 0 461.645 94.6447
-60.8456 -296 0 451.154 88
-74.4314 -298 0 437.569 86
-89.4313 -298 0 422.569 86
-99.9828 -293 0 412.017 91
-94 -282.811 0 418 101.189
-94 -271.468 0 418 112.532
-90.7903 -260.21 0 421.21 123.79
-105.703 -260 0 406.297 124
-120.703 -260 0 391.297 124
-133.461 -260 0 378.539 124
-148.047 -261 0 363.953 123
-155.218 -252 0 356.782 132
-158.861 -240.139 0 353.139 143.861
-160 -226.196 0 352 157.804
-158 -212.61 0 354 171.39
-152 -202.439 0 360 181.561
-145.853 -193 0 366.147 191
-136.653 -184.653 0 375.347 199.347
-142.882 -175.118 0 369.118 208.882
-149.005 -165 0 362.995 219
-154 -154.409 0 358 229.591
-156.461 -143.461 0 355.539 240.539
-150.895 -134 0 361.105 250
-140.137 -128 0 371.863 256
-128.147 -122.147 0 383.853 261.853
-114.612 -118.612 0 397.388 265.388
-121.307 -114 0 390.693 270
-134.478 -117 0 377.522 267
-147.65 -120 0 364.35 264
-159.993 -125 0 352.007 259
-168 -118.007 0 344 265.993
-168 -103.007 0 344 280.993
-164 -91.421 0 348 292.579
-157 -83.6635 0 355 300.336
-152 -73.9061 0 360 310.094
-164 -69.7344 0 348 314.266
-160 -58.1486 0 352 325.851
-154.691 -47.6909 0 357.309 336.309
-145.805 -40 0 366.195 344
-136.741 -32.741 0 375.259 351.259
-127.291 -25 0 384.709 359
-113.533 -22 0 398.467 362
-101.19 -27 0 410.81 357
-92.1845 -22.1845 0 419.816 361.816
-82.5035 -17 0 429.497 367
-69.8204 -12.8204 0 442.18 371.18
-56.817 -8 0 455.183 376
-42.6452 -6 0 469.355 378
-37.7863 2.78632 0 474.214 386.786
-52.2006 4.20056 0 459.799 388.201
-65.041 8 0 446.959 392
-79.6268 9 0 432.373 393
-92 12.7985 0 420 396.798
-106.384 14 0 405.616 398
-121.384 14 0 390.616 398
-134.97 12 0 377.03 396
-148.142 9 0 363.858 393
-160.636 4.3642 0 351.364 388.364
-167.464 -5.46423 0 344.536 378.536
-173.707 -16.7069 0 338.293 367.293
-182 -27.1003 0 330 356.9
-191.899 -28.1006 0 320.101 355.899
-196.314 -16.6863 0 315.686 367.314
-200 -4.9704 0 312 379.03
-206.142 2.85782 0 305.858 386.858
-217.373 -2 0 294.627 382
-228 -1.04147 0 284 382.959
-232 10.5443 0 280 394.544
-232 25.5446 0 280 409.545
-230.302 36 0 281.698 420
-233.112 47 0 278.888 431
-227.941 58 0 284.059 442
-217.183 64 0 294.817 448
-216.301 75.6988 0 295.699 459.699
-208.18 83.8202 0 303.82 467.82
-196.254 87 0 315.746 471
-182.083 85 0 329.917 469
-169.739 80 0 342.261 464
-155.982 77 0 356.018 461
-140.982 77 0 371.018 461
-125.981 77 0 386.019 461
-111.81 75 0 400.19 459
-97.2243 74 0 414.776 458
-87.0529 80 0 424.947 464
-73.8812 83 0 438.119 467
-68 93.2907 0 444 477.291
-68 108.29 0 444 492.29
-66.7946 122.205 0 445.205 506.205
-64 135.462 0 448 519.462
-62 149.048 0 450 533.048
-58 161.219 0 454 545.219
-56 174.805 0 456 558.805
-48 182.977 0 464 566.977
-50.5627 196 0 461.437 580
-52 209.563 0 460 593.563
-55.7344 222 0 456.266 606
-56 236.734 0 456 620.734
-45.5082 243 0 466.492 627
-42.0549 255.055 0 469.945 639.055
-46 266.664 0 466 650.664
-46 281.664 0 466 665.664
-54.249 289 0 457.751 673
-68 289.421 0 444 673.421
-74 299.35 0 438 683.35
-78 310.936 0 434 694.936
-81.1075 324 0 430.893 708
-80 332.693 0 432 716.693
-67.1352 336 0 444.865 720
-57.9634 343 0 454.037 727
-45.378 346 0 466.622 730
-32.4487 341 0 479.551 725
-21.8628 346 0 490.137 730
-8.95337 340.953 0 503.047 724.953
3.40942 336 0 515.409 720
11 326.833 0 523 710.833
8 313.662 0 520 697.662
7 299.076 0 519 683.076
7 284.076 0 519 668.076
7 269.076 0 519 653.076
7 254.076 0 519 638.076
9.26727 243 0 521.267 627
23.0175 240.018 0 535.018 624.018
33.846 245.846 0 545.846 629.846
38 257.954 0 550 641.954
40 271.539 0 552 655.539
40 286.539 0 552 670.539
40 301.541 0 552 685.541
44 313.711 0 556 697.711
44 328.712 0 556 712.712
54.8826 334 0 566.883 718
67.054 334 0 579.054 718
81.6396 333 0 593.64 717
94.8112 330 0 606.811 714
101.568 320 0 613.568 704
114.816 317.184 0 626.816 701.184
126.669 311 0 638.669 695
139.426 307 0 651.426 691
145 296.988 0 657 680.988
142.817 283 0 654.817 667
135.335 275.335 0 647.335 659.335
124.888 270 0 636.888 654
109.888 270 0 621.888 654
99.7168 270 0 611.717 654
96.5454 257 0 608.545 641
92.5573 244.557 0 604.557 628.557
87 233.031 0 599 617.031
88.3418 221.658 0 600.342 605.658
93.7593 211 0 605.759 595
91 197.588 0 603 581.588
87 184.83 0 599 568.83
81 174.073 0 593 558.073
85 161.901 0 597 545.901
82.5161 148.516 0 594.516 532.516
81 134.144 0 593 518.144
81 119.143 0 593 503.143
79 104.971 0 591 488.971
79 89.9725 0 591 473.973
79 74.9736 0 591 458.974
90.6128 71 0 602.613 455
104.848 69.1524 0 616.848 453.152
117.797 64.2028 0 629.797 448.203
130.055 63 0 642.055 447
145.057 63 0 657.057 447
160.057 63 0 672.057 447
174.643 64 0 686.643 448
189.642 64 0 701.642 448
204.228 63 0 716.228 447
217.57 67 0 729.57 451
232.57 67 0 744.57 451
243.939 63.0613 0 755.939 447.061
254.302 56.6976 0 766.302 440.698
256.576 43.5763 0 768.576 427.576
257 34.3003 0 769 418.3
266.628 26 0 778.628 410
271 14.2001 0 783 398.2
259.2 11 0 771.2 395
264 -0.314453 0 776 383.686
267 -14.0716 0 779 369.928
260.171 -24 0 772.171 360
247 -21 0 759 363
235.171 -16.1714 0 747.171 367.829
224.485 -10 0 736.485 374
213.101 -5.89935 0 725.101 378.101
214.142 -16.1418 0 726.142 367.858
219 -28.5439 0 731 355.456
219 -43.5435 0 731 340.457
204.456 -44 0 716.456 340
196.114 -37 0 708.114 347
188.356 -28 0 700.356 356
182.185 -18 0 694.185 366
177 -6.42798 0 689 377.572
164.257 -7 0 676.257 377
150.671 -5 0 662.671 379
136.085 -4 0 648.085 380
122.499 -2 0 634.499 382
108.328 -4 0 620.328 380
94.5708 -5 0 606.571 379
79.9838 -4 0 591.984 380
64.9864 -4 0 576.986 380
49.9858 -4 0 561.986 380
35.3995 -5 0 547.4 379
31 -14.7717 0 543 369.228
42.7007 -21 0 554.701 363
53.0435 -28 0 565.043 356
63.6876 -35.6876 0 575.688 348.312
74.4868 -41 0 586.487 343
87.5867 -36.4133 0 599.587 347.587
101.173 -33 0 613.173 351
115.344 -35 0 627.344 349
125.273 -43 0 637.273 341
127 -56.03 0 639 327.97
127.849 -63.8495 0 639.849 320.151
139.506 -70.5063 0 651.506 313.494
149.23 -79 0 661.23 305
155 -90.5737 0 667 293.426
143.255 -95 0 655.255 289
142.26 -102 0 654.26 282
150.133 -112.133 0 662.133 271.867
159 -121.703 0 671 262.297
161 -135.046 0 673 248.954
154.367 -144 0 666.367 240
139.369 -144 0 651.369 240
135 -155.803 0 647 228.197
131.732 -167 0 643.732 217
144.489 -171 0 656.489 213
156.71 -177.71 0 668.71 206.29
155.067 -189 0 667.067 195
145.512 -196.488 0 657.512 187.512
133.977 -202.023 0 645.977 181.977
123 -208.375 0 635 175.625
119 -220.547 0 631 163.453
107.282 -221 0 619.282 163
95.6641 -216.336 0 607.664 167.664
97 -228.818 0 609 155.182
97 -242.989 0 609 141.011
91 -253.161 0 603 130.839
81 -259.918 0 593 124.082
67.9105 -263 0 579.911 121
59.1088 -255.109 0 571.109 128.891
54.5479 -257.548 0 566.548 126.452
55 -272.36 0 567 111.64
53 -286.532 0 565 97.4678
49.2096 -298.79 0 561.21 85.2096
46.7107 -312 0 558.711 72
35 -316 0 547 68
47.3925 -238.684 0 559.393 145.316
-40.4675 -247.941 0 471.533 136.059
98.9246 -63.0359 0 610.925 320.964
115.678 -94.6489 0 627.678 289.351
-100.119 -90.4052 0 411.881 293.595
227.306 37.5916 0 739.306 421.592
9.56146 -261.527 0 521.561 122.473
-115.171 -219.703 0 396.829 164.297
-131.94 -90.345 0 380.06 293.655
-6.96698 -19.9937 0 505.033 364.006
-207.852 26.988 0 304.148 410.988
-183.737 14.1139 0 328.263 398.114
-17.7536 243.238 0 494.246 627.238
-29.0657 309.012 0 482.934 693.012
104.802 294.38 0 616.802 678.38
-67.2875 -57.0438 0 444.713 326.956
9.51892 0.77597 0 521.519 384.776
-86.1897 -44.2235 0 425.81 339.777
-120.916 -152.17 0 391.084 231.83
-69.0964 -272.481 0 442.904 111.519
-115.962 -48.4695 0 396.038 335.531
-75.3309 45.0451 0 436.669 429.045
-187.42 54.0872 0 324.58 438.087
-12.9133 139.659 0 499.087 523.659
-4.06198 198.387 0 507.938 582.387
169.052 28.4137 0 681.052 412.414
71.9758 35.4899 0 583.976 419.49
58.4223 159.91 0 570.422 543.91
47.8412 204.114 0 559.841 588.114
61.3262 243.185 0 573.326 627.185
120.741 31.1435 0 632.741 415.144
70.5233 -225.339 0 582.523 158.661
48.5356 -80.1212 0 560.536 303.879
95.7629 -134.571 0 607.763 249.429
-20.2857 268.928 0 491.714 652.928
72.3663 297.645 0 584.366 681.645
-51.0011 31.8515 0 460.999 415.851
42.8177 -53.3711 0 554.818 330.629
110.257 -154.657 0 622.257 229.343
71.9547 269.886 0 583.955 653.886
-37.057 68.7807 0 474.943 452.781
-149.037 43.3487 0 362.963 427.349
-106.559 44.7258 0 405.441 428.726
-45.6347 -36.0269 0 466.365 347.973
-37.2521 122.9 0 474.748 506.9
23.6675 97.472 0 535.667 481.472
40.5237 27.1365 0 552.524 411.136
46.4495 126.644 0 558.449 510.644
18.5649 -161.998 0 530.565 222.002
-13.7505 -90.5382 0 498.249 293.462
3 24 23 262
3 22 19 262
3 32 31 30
3 21 19 22
3 262 25 24
3 23 22 262
3 19 21 20
3 273 32 30
3 29 273 30
3 263 38 37
3 33 32 273
3 28 273 29
3 39 38 40
3 71 70 72
3 40 38 41
3 72 69 73
3 69 72 70
3 73 69 68
3 263 42 38
3 41 38 42
3 45 44 46
3 47 46 44
3 44 48 47
3 263 275 44
3 42 263 43
3 67 266 68
3 14 13 12
3 256 303 273
3 14 12 11
3 11 10 274
3 14 11 274
3 14 274 15
3 9 274 10
3 2 261 3
3 249 255 261
3 256 8 7
3 5 4 261
3 6 256 7
3 303 255 286
3 15 274 16
3 274 256 16
3 33 273 34
3 16 262 17
3 262 18 17
3 262 26 25
3 44 43 263
3 37 36 263
3 48 44 275
3 275 50 49
3 35 259 36
3 273 28 27
3 275 51 50
3 26 262 27
3 52 275 272
3 270 298 272
3 53 52 272
3 272 55 54
3 54 53 272
3 211 210 271
3 264 58 57
3 262 19 18
3 77 74 265
3 75 77 76
3 75 74 77
3 265 78 77
3 80 79 81
3 82 81 79
3 265 79 78
3 286 255 248
3 265 82 79
3 36 259 263
3 277 266 296
3 64 296 65
3 64 63 297
3 62 61 276
3 297 62 276
3 296 64 297
3 276 92 297
3 82 265 277
3 266 73 68
3 91 297 92
3 85 277 86
3 296 89 88
3 89 296 90
3 88 87 277
3 83 82 84
3 277 84 82
3 84 277 85
3 276 291 295
3 276 93 92
3 117 116 115
3 117 115 114
3 111 114 113
3 297 90 296
3 93 276 94
3 261 6 5
3 299 97 96
3 278 102 100
3 299 95 295
3 58 291 59
3 99 299 100
3 101 100 102
3 276 60 291
3 103 102 279
3 282 163 162
3 279 267 104
3 104 267 105
3 128 289 129
3 130 129 267
3 103 279 104
3 105 107 106
3 278 100 299
3 94 295 95
3 111 110 268
3 289 109 108
3 117 114 268
3 111 113 112
3 268 114 111
3 35 34 273
3 118 117 268
3 120 119 118
3 108 267 289
3 268 127 126
3 122 268 125
3 268 120 118
3 121 120 122
3 120 268 122
3 125 123 122
3 125 124 123
3 289 127 268
3 267 129 289
3 214 292 215
3 256 6 261
3 2 1 261
3 252 1 0
3 0 254 252
3 253 252 254
3 250 261 251
3 250 249 261
3 1 252 251
3 248 255 249
3 248 247 246
3 245 286 246
3 245 244 286
3 243 286 244
3 241 240 239
3 242 286 243
3 248 246 286
3 292 213 212
3 215 257 216
3 293 286 242
3 271 58 264
3 264 298 304
3 287 215 292
3 239 233 293
3 239 242 241
3 258 287 288
3 257 221 220
3 239 238 233
3 220 219 257
3 217 257 218
3 219 218 257
3 257 217 216
3 288 293 231
3 286 293 303
3 211 271 264
3 233 238 237
3 234 233 237
3 258 225 222
3 257 258 221
3 222 221 258
3 227 226 231
3 222 225 223
3 234 237 236
3 258 288 231
3 231 230 229
3 229 228 231
3 225 224 223
3 231 228 227
3 234 236 235
3 193 192 199
3 193 199 198
3 198 197 193
3 202 201 280
3 201 200 280
3 199 192 200
3 192 260 280
3 197 196 194
3 194 193 197
3 189 188 187
3 191 190 185
3 189 186 190
3 185 260 191
3 194 196 195
3 189 187 186
3 255 303 261
3 207 281 208
3 168 167 281
3 166 165 300
3 165 164 302
3 163 282 302
3 302 164 163
3 207 206 281
3 161 282 162
3 282 161 160
3 279 282 283
3 158 283 159
3 283 158 156
3 158 157 156
3 130 279 131
3 285 206 205
3 156 155 284
3 130 267 279
3 133 132 284
3 132 131 283
3 136 290 137
3 134 133 294
3 284 294 133
3 139 138 137
3 152 269 290
3 153 294 154
3 141 143 142
3 139 137 140
3 215 287 257
3 140 137 290
3 290 141 140
3 294 152 290
3 283 156 284
3 301 209 208
3 205 204 285
3 172 285 280
3 285 203 280
3 170 285 171
3 203 202 280
3 280 175 174
3 171 285 172
3 172 280 173
3 260 176 280
3 185 182 260
3 191 260 192
3 184 183 185
3 185 183 182
3 180 179 181
3 181 179 260
3 176 260 177
3 176 175 280
3 181 260 182
3 190 186 185
3 179 178 260
3 143 290 269
3 285 169 281
3 151 269 152
3 150 269 151
3 150 149 269
3 145 144 269
3 152 294 153
3 178 177 260
3 146 145 147
3 148 147 145
3 145 149 148
3 273 303 304
3 145 269 149
3 272 298 55
3 281 169 168
3 206 285 281
3 231 226 258
3 4 3 261
3 261 1 251
3 16 256 262
3 226 225 258
3 259 272 275
3 264 304 292
3 56 55 298
3 73 266 74
3 87 86 277
3 66 296 67
3 265 74 266
3 108 107 267
3 267 107 105
3 268 110 289
3 125 268 126
3 144 143 269
3 141 290 143
3 273 304 35
3 298 57 56
3 210 209 301
3 300 167 166
3 51 275 52
3 259 270 272
3 27 262 273
3 256 273 262
3 9 8 274
3 256 274 8
3 48 275 49
3 259 275 263
3 61 60 276
3 291 60 59
3 265 266 277
3 67 296 266
3 98 299 99
3 97 299 98
3 278 282 279
3 102 278 279
3 200 192 280
3 174 173 280
3 301 167 300
3 208 281 301
3 159 283 160
3 302 278 300
3 279 283 131
3 160 283 282
3 283 284 132
3 154 284 155
3 170 169 285
3 203 285 204
3 232 231 293
3 257 287 258
3 214 213 292
3 304 259 35
3 287 303 288
3 233 232 293
3 127 289 128
3 110 109 289
3 136 135 290
3 135 134 294
3 271 291 58
3 295 94 276
3 264 292 211
3 212 211 292
3 293 288 303
3 239 293 242
3 294 290 135
3 154 294 284
3 291 271 295
3 210 301 271
3 277 296 88
3 66 65 296
3 91 90 297
3 297 63 62
3 298 270 304
3 264 57 298
3 95 299 96
3 300 299 295
3 299 300 278
3 271 301 295
3 295 301 300
3 167 301 281
3 278 302 282
3 165 302 300
3 304 287 292
3 261 303 256
3 259 304 270
3 303 287 304
