ply
format ascii 1.0
element vertex 314
property float x
property float y
property float z
property float u
property float v
element face 412
property list uchar int vertex_indices
end_header
172.657 100 0 172.657 100
158.05 99.0502 0 158.05 99.0502
156.686 103 0 156.686 103
169.615 108 0 169.615 108
184.615 108 0 184.615 108
182.042 112 0 182.042 112
167.908 114.092 0 167.908 114.092
154.527 118 0 154.527 118
140.355 116 0 140.355 116
127.426 111 0 127.426 111
114.083 115 0 114.083 115
99.9376 114.938 0 99.9376 114.938
87.5736 109.426 0 87.5736 109.426
74.0539 113 0 74.0539 113
80.4608 116 0 80.4608 116
93 121.39 0 93 121.39
105.319 127 0 105.319 127
119.904 128 0 119.904 128
129.418 138.418 0 129.418 138.418
142.934 142 0 142.934 142
157.105 144 0 157.105 144
171.277 142 0 171.277 142
185.61 143.61 0 185.61 143.61
173.794 148 0 173.794 148
159.733 150.267 0 159.733 150.267
159.721 156 0 159.721 156
173.478 159 0 173.478 159
187.65 161 0 187.65 161
201.407 158 0 201.407 158
215.164 155 0 215.164 155
229.336 153 0 229.336 153
240.309 161.309 0 240.309 161.309
251.294 171 0 251.294 171
263.865 176.865 0 263.865 176.865
277.567 180 0 277.567 180
291.324 183 0 291.324 183
304.667 187 0 304.667 187
319.667 187 0 319.667 187
334.667 187 0 334.667 187
348.839 187 0 348.839 187
361.836 191.836 0 361.836 191.836
372.907 199.907 0 372.907 199.907
364.617 210 0 364.617 210
349.617 210 0 349.617 210
350.312 214 0 350.312 214
363.241 219 0 363.241 219
376.999 222 0 376.999 222
390.242 226.242 0 390.242 226.242
398 237.443 0 398 237.443
387.457 246 0 387.457 246
372.909 247.091 0 372.909 247.091
359.528 251 0 359.528 251
368.698 259.698 0 368.698 259.698
356.766 264.234 0 356.766 264.234
345 264.327 0 345 264.327
347 250.155 0 347 250.155
340.746 237.746 0 340.746 237.746
329.26 229.26 0 329.26 229.26
316.025 225 0 316.025 225
301.853 223 0 301.853 223
288.068 225.932 0 288.068 225.932
277.289 234.711 0 277.289 234.711
266.925 241.075 0 266.925 241.075
256.38 249 0 256.38 249
242.208 249 0 242.208 249
227.622 250 0 227.622 250
213.612 252.388 0 213.612 252.388
200.369 256.631 0 200.369 256.631
187.712 262.288 0 187.712 262.288
176.227 270.773 0 176.227 270.773
166.327 281.673 0 166.327 281.673
162.791 295.209 0 162.791 295.209
149.776 296 0 149.776 296
137.478 289.478 0 137.478 289.478
123.504 287 0 123.504 287
109.821 288.179 0 109.821 288.179
107.422 292.422 0 107.422 292.422
119.697 299 0 119.697 299
122.436 305.436 0 122.436 305.436
109.687 300 0 109.687 300
95.3644 299.636 0 95.3644 299.636
81.5359 301.536 0 81.5359 301.536
68.0005 298 0 68.0005 298
54.6573 302 0 54.6573 302
40.6363 299.636 0 40.6363 299.636
33.0207 303.021 0 33.0207 303.021
45.5441 309 0 45.5441 309
59.7158 309 0 59.7158 309
72.7487 313.749 0 72.7487 313.749
85.9878 318 0 85.9878 318
99.7454 317 0 99.7454 317
112.77 321.77 0 112.77 321.77
98.74 323 0 98.74 323
88.7197 328.72 0 88.7197 328.72
102.775 329 0 102.775 329
114.876 336 0 114.876 336
128.634 339 0 128.634 339
143.219 338 0 143.219 338
143.437 342 0 143.437 342
128.852 343 0 128.852 343
130.077 350 0 130.077 350
143.42 354 0 143.42 354
158.421 354 0 158.421 354
172.419 351.581 0 172.419 351.581
185.369 346.631 0 185.369 346.631
198.904 344.904 0 198.904 344.904
212.733 342.267 0 212.733 342.267
225.965 338 0 225.965 338
237.461 329.539 0 237.461 329.539
247.924 320 0 247.924 320
256 308.976 0 256 308.976
257.861 294.861 0 257.861 294.861
251.497 282.497 0 251.497 282.497
240.133 275.133 0 240.133 275.133
253.569 272 0 253.569 272
268.109 271.109 0 268.109 271.109
277 282.427 0 277 282.427
287.787 291.787 0 287.787 291.787
299.565 299.565 0 299.565 299.565
312.222 305.222 0 312.222 305.222
325.658 309 0 325.658 309
339.829 309 0 339.829 309
353.415 312.415 0 353.415 312.415
367.344 313 0 367.344 313
371.727 318 0 371.727 318
375.617 324 0 375.617 324
390.202 323 0 390.202 323
405.203 323 0 405.203 323
412.697 330 0 412.697 330
398.525 330 0 398.525 330
384.836 333.164 0 384.836 333.164
371.839 338 0 371.839 338
357.765 336.235 0 357.765 336.235
344.738 341 0 344.738 341
336 348.434 0 336 348.434
348.549 352.451 0 348.549 352.451
362.534 352 0 362.534 352
375.877 356 0 375.877 356
388.862 351.138 0 388.862 351.138
403.805 351 0 403.805 351
418.391 352 0 418.391 352
432.562 350 0 432.562 350
445.347 344.653 0 445.347 344.653
457.125 336.875 0 457.125 336.875
470.66 333.34 0 470.66 333.34
481.146 323.854 0 481.146 323.854
490.216 313.784 0 490.216 313.784
502.873 308.127 0 502.873 308.127
515.335 314 0 515.335 314
529.92 315 0 529.92 315
544.065 312.935 0 544.065 312.935
556.722 307.278 0 556.722 307.278
567.914 298.086 0 567.914 298.086
576 286.436 0 576 286.436
580 273.093 0 580 273.093
582 258.922 0 582 258.922
579.823 244.823 0 579.823 244.823
581.178 236 0 581.178 236
586 224.064 0 586 224.064
585.924 209.924 0 585.924 209.924
581 196.965 0 581 196.965
574 184.864 0 574 184.864
565.419 173.419 0 565.419 173.419
554.734 163 0 554.734 163
542.634 156 0 542.634 156
529.499 151.499 0 529.499 151.499
515.534 149 0 515.534 149
506.6 138.6 0 506.6 138.6
498.821 126.821 0 498.821 126.821
487.922 116.922 0 487.922 116.922
476.144 109.144 0 476.144 109.144
463.194 104.194 0 463.194 104.194
448.275 104 0 448.275 104
434.518 107 0 434.518 107
421.589 112 0 421.589 112
409.638 114.638 0 409.638 114.638
398.146 111 0 398.146 111
385.217 116 0 385.217 116
373.531 124 0 373.531 124
362.188 128 0 362.188 128
347.603 129 0 347.603 129
334.26 133 0 334.26 133
321.745 139 0 321.745 139
320.598 142 0 320.598 142
334.355 145 0 334.355 145
345.507 150.493 0 345.507 150.493
331.959 154 0 331.959 154
319.617 155 0 319.617 155
309.487 160.513 0 309.487 160.513
296.635 159.365 0 296.635 159.365
308.998 153.002 0 308.998 153.002
315 140.488 0 315 140.488
311.81 126.81 0 311.81 126.81
300.91 116.91 0 300.91 116.91
288.772 110 0 288.772 110
274.601 108 0 274.601 108
261.476 103.476 0 261.476 103.476
248.744 98 0 248.744 98
234.159 97 0 234.159 97
220.284 97.7162 0 220.284 97.7162
205.816 99 0 205.816 99
186 96 0 186 96
326.887 142.685 0 326.887 142.685
314.577 133.664 0 314.577 133.664
163.996 103.314 0 163.996 103.314
177.242 106.084 0 177.242 106.084
190.949 114.903 0 190.949 114.903
136.015 340.603 0 136.015 340.603
150.949 339.584 0 150.949 339.584
357.117 210.756 0 357.117 210.756
114.637 293.701 0 114.637 293.701
326.851 133.6 0 326.851 133.6
167.411 153.15 0 167.411 153.15
178.477 142.508 0 178.477 142.508
92.9719 318.949 0 92.9719 318.949
105.64 321.072 0 105.64 321.072
379.061 307.151 0 379.061 307.151
174.864 112.756 0 174.864 112.756
164.42 144.618 0 164.42 144.618
130.672 298.131 0 130.672 298.131
301.787 137.882 0 301.787 137.882
135.13 326.885 0 135.13 326.885
149.514 348.009 0 149.514 348.009
184.144 129.469 0 184.144 129.469
90.7848 308.873 0 90.7848 308.873
108.459 310.689 0 108.459 310.689
380.912 316.306 0 380.912 316.306
161.938 130.393 0 161.938 130.393
149.999 324.565 0 149.999 324.565
175.497 133.462 0 175.497 133.462
179.38 121.181 0 179.38 121.181
563.692 237.83 0 563.692 237.83
195.561 104.314 0 195.561 104.314
393.191 309.059 0 393.191 309.059
422.286 312.222 0 422.286 312.222
135.683 312.077 0 135.683 312.077
269.89 255.999 0 269.89 255.999
301.91 172.817 0 301.91 172.817
327.124 170.988 0 327.124 170.988
398.277 130.555 0 398.277 130.555
351.06 286.697 0 351.06 286.697
157.173 310.225 0 157.173 310.225
571.191 225.024 0 571.191 225.024
208.177 116.108 0 208.177 116.108
420.225 134.208 0 420.225 134.208
375.48 147.609 0 375.48 147.609
369.355 279.387 0 369.355 279.387
366.209 296.066 0 366.209 296.066
204.429 138.816 0 204.429 138.816
239.546 125.287 0 239.546 125.287
223.441 267.762 0 223.441 267.762
268.753 149.984 0 268.753 149.984
190.346 295.177 0 190.346 295.177
232.51 299.348 0 232.51 299.348
299.402 250.855 0 299.402 250.855
388.65 208.417 0 388.65 208.417
323.737 254.099 0 323.737 254.099
485.769 286.843 0 485.769 286.843
520.292 287.322 0 520.292 287.322
457.158 309.321 0 457.158 309.321
431.998 330.694 0 431.998 330.694
286.552 128.015 0 286.552 128.015
171.433 329.589 0 171.433 329.589
566.201 254.144 0 566.201 254.144
517.756 176.854 0 517.756 176.854
409.031 261.807 0 409.031 261.807
286.718 265.642 0 286.718 265.642
342.327 166.133 0 342.327 166.133
332.744 291.452 0 332.744 291.452
555.335 203.737 0 555.335 203.737
433.616 123.885 0 433.616 123.885
382.748 174.78 0 382.748 174.78
388.819 288.161 0 388.819 288.161
220.269 139.962 0 220.269 139.962
228.02 112.826 0 228.02 112.826
249.625 113.491 0 249.625 113.491
245.402 143.182 0 245.402 143.182
273.837 164.793 0 273.837 164.793
190.874 278.585 0 190.874 278.585
201.116 318.923 0 201.116 318.923
233.5 314.687 0 233.5 314.687
307.035 237.491 0 307.035 237.491
415.46 217.062 0 415.46 217.062
546.266 283.137 0 546.266 283.137
534.639 297.845 0 534.639 297.845
474.113 308.399 0 474.113 308.399
531.279 167.72 0 531.279 167.72
491.253 160.821 0 491.253 160.821
305.367 277.974 0 305.367 277.974
361.733 161.935 0 361.733 161.935
570.303 208.444 0 570.303 208.444
552.289 222.554 0 552.289 222.554
558.123 187.828 0 558.123 187.828
455.467 124.647 0 455.467 124.647
263.748 118.183 0 263.748 118.183
190.263 331.084 0 190.263 331.084
214.98 326.586 0 214.98 326.586
562.215 275.032 0 562.215 275.032
477.069 139.821 0 477.069 139.821
359.998 176.892 0 359.998 176.892
216.157 308.084 0 216.157 308.084
474.428 124.548 0 474.428 124.548
176.585 308.929 0 176.585 308.929
533.866 250.767 0 533.866 250.767
464.573 289.311 0 464.573 289.311
535.306 192.028 0 535.306 192.028
443.619 150.706 0 443.619 150.706
210.314 287.508 0 210.314 287.508
405.027 157.764 0 405.027 157.764
438.065 290.867 0 438.065 290.867
470.469 247.697 0 470.469 247.697
499.409 215.811 0 499.409 215.811
410.221 187.417 0 410.221 187.417
455.166 194.759 0 455.166 194.759
3 76 75 210
3 13 12 14
3 11 15 12
3 12 15 14
3 10 16 11
3 2 1 204
3 223 213 229
3 10 9 17
3 11 16 15
3 9 8 17
3 10 17 16
3 8 18 17
3 18 8 19
3 8 7 19
3 218 20 227
3 6 217 230
3 227 19 7
3 26 23 27
3 212 25 24
3 0 201 205
3 201 200 232
3 232 206 4
3 206 5 4
3 206 248 223
3 248 28 22
3 206 232 243
3 205 201 4
3 274 199 198
3 274 198 275
3 276 30 273
3 30 29 273
3 261 195 194
3 248 273 29
3 45 209 42
3 28 27 22
3 65 64 250
3 113 250 64
3 30 276 31
3 277 32 251
3 63 62 236
3 58 281 59
3 236 115 114
3 33 32 277
3 114 64 63
3 277 34 33
3 22 27 23
3 84 83 86
3 84 86 85
3 82 87 83
3 82 81 88
3 80 224 81
3 210 74 77
3 77 74 219
3 79 225 80
3 97 207 221
3 225 78 91
3 87 86 83
3 88 81 89
3 93 92 94
3 87 82 88
3 94 92 215
3 90 225 215
3 94 91 95
3 225 90 224
3 95 91 221
3 100 99 207
3 207 98 101
3 235 91 78
3 224 90 214
3 73 219 74
3 68 278 69
3 252 70 278
3 69 278 70
3 67 66 250
3 66 65 250
3 113 64 114
3 111 253 112
3 236 266 115
3 116 115 266
3 71 70 252
3 236 114 63
3 110 253 111
3 97 208 98
3 72 241 235
3 102 208 103
3 101 100 207
3 222 98 208
3 101 98 222
3 241 228 235
3 105 296 106
3 279 296 295
3 262 208 228
3 302 279 295
3 253 110 280
3 296 107 106
3 109 280 110
3 77 219 78
3 60 59 281
3 74 210 75
3 261 193 220
3 220 192 203
3 203 191 220
3 189 220 190
3 202 181 184
3 211 181 202
3 184 181 180
3 185 184 180
3 267 238 186
3 179 178 245
3 182 211 202
3 35 189 237
3 35 34 189
3 188 238 237
3 117 288 118
3 237 37 36
3 254 236 61
3 238 187 186
3 237 238 37
3 238 188 187
3 43 209 44
3 38 238 267
3 289 267 185
3 185 180 179
3 193 261 194
3 239 178 177
3 175 239 176
3 176 239 177
3 179 245 185
3 173 270 174
3 174 270 244
3 301 168 298
3 287 298 167
3 97 221 228
3 166 287 167
3 298 168 167
3 103 208 262
3 172 270 173
3 271 255 41
3 46 41 255
3 239 175 244
3 270 306 244
3 45 42 46
3 44 209 45
3 46 42 41
3 264 166 286
3 290 292 161
3 160 290 161
3 159 158 242
3 242 158 157
3 200 199 243
3 223 22 213
3 160 159 290
3 292 162 161
3 207 96 221
3 239 245 178
3 231 242 157
3 55 256 56
3 256 55 54
3 288 117 266
3 268 119 288
3 121 268 240
3 120 119 268
3 56 256 57
3 52 50 49
3 52 51 50
3 54 53 240
3 240 53 246
3 124 226 125
3 121 120 268
3 134 133 135
3 135 133 132
3 132 136 135
3 124 123 216
3 136 131 137
3 136 132 131
3 138 131 130
3 131 138 137
3 124 216 226
3 122 240 247
3 233 127 126
3 258 147 257
3 165 286 166
3 145 144 285
3 285 304 257
3 148 147 258
3 149 148 284
3 47 255 282
3 144 259 285
3 152 283 297
3 154 263 155
3 150 284 151
3 0 3 204
3 283 152 151
3 149 284 150
3 1 0 204
3 155 263 156
3 156 231 157
3 226 233 126
3 129 138 130
3 129 139 138
3 139 129 128
3 139 128 140
3 234 128 127
3 144 143 259
3 143 260 259
3 220 191 190
3 128 260 140
3 260 141 140
3 141 260 142
3 142 260 143
3 183 182 202
3 3 0 205
3 23 26 212
3 26 25 212
3 217 5 230
3 243 248 206
3 224 214 89
3 94 215 91
3 246 272 247
3 49 272 52
3 206 230 5
3 20 19 227
3 73 72 219
3 208 97 228
3 261 189 251
3 193 192 220
3 221 96 95
3 235 78 219
3 208 102 222
3 102 101 222
3 213 21 229
3 206 223 230
3 81 224 89
3 224 80 225
3 78 225 79
3 91 215 225
3 233 226 216
3 126 125 226
3 6 227 7
3 21 218 227
3 221 91 235
3 241 72 71
3 21 227 229
3 230 227 6
3 223 229 230
3 230 229 227
3 257 147 146
3 165 164 286
3 201 232 4
3 243 232 200
3 247 272 216
3 49 48 265
3 127 233 234
3 272 233 216
3 72 235 219
3 228 221 235
3 62 61 236
3 60 254 61
3 35 237 36
3 189 188 237
3 186 185 267
3 38 37 238
3 244 175 174
3 299 40 39
3 52 246 53
3 122 121 240
3 71 252 302
3 103 262 104
3 290 291 269
3 292 290 269
3 275 198 197
3 29 28 248
3 166 264 287
3 255 47 46
3 244 308 239
3 299 267 289
3 49 265 272
3 247 216 123
3 122 247 123
3 240 246 247
3 223 248 22
3 274 273 243
3 197 196 275
3 275 196 294
3 253 113 112
3 252 307 300
3 31 251 32
3 276 249 294
3 253 307 113
3 296 105 295
3 280 109 108
3 300 307 253
3 57 256 281
3 266 117 116
3 41 40 271
3 172 293 270
3 54 268 256
3 254 281 256
3 47 282 48
3 284 148 258
3 156 263 231
3 303 310 311
3 233 272 234
3 145 285 146
3 128 234 260
3 260 234 259
3 189 261 220
3 276 294 251
3 228 241 262
3 302 241 71
3 153 152 297
3 297 303 263
3 264 286 305
3 304 309 310
3 265 48 282
3 309 304 259
3 236 254 266
3 256 288 254
3 289 185 245
3 38 267 39
3 119 118 288
3 54 240 268
3 291 242 231
3 292 305 286
3 171 293 172
3 171 170 301
3 308 245 239
3 308 271 245
3 52 272 246
3 272 265 309
3 243 273 248
3 276 273 249
3 273 274 249
3 243 199 274
3 294 196 195
3 274 275 249
3 294 249 275
3 251 31 276
3 251 189 277
3 189 34 277
3 68 67 278
3 307 67 250
3 105 104 295
3 300 253 280
3 296 108 107
3 280 296 300
3 281 58 57
3 60 281 254
3 271 308 312
3 305 311 264
3 258 303 283
3 297 154 153
3 258 283 284
3 151 284 283
3 304 285 259
3 257 146 285
3 164 163 286
3 163 162 292
3 264 311 287
3 293 306 270
3 254 288 266
3 268 288 256
3 245 271 289
3 299 271 40
3 159 242 290
3 291 290 242
3 231 263 303
3 303 291 231
3 292 269 305
3 163 292 286
3 169 168 301
3 298 306 293
3 195 261 294
3 251 294 261
3 104 262 295
3 295 262 302
3 296 279 300
3 108 296 280
3 303 297 283
3 263 154 297
3 298 287 306
3 169 301 170
3 267 299 39
3 271 299 289
3 252 278 307
3 279 252 300
3 298 293 301
3 171 301 293
3 302 252 279
3 262 241 302
3 258 257 303
3 257 304 310
3 309 259 234
3 310 265 282
3 269 291 305
3 311 291 303
3 313 287 311
3 282 255 312
3 67 307 278
3 307 250 113
3 244 306 308
3 306 313 312
3 272 309 234
3 310 309 265
3 313 282 312
3 303 257 310
3 311 305 291
3 310 282 313
3 271 312 255
3 306 312 308
3 310 313 311
3 287 313 306
