ply
format ascii 1.0
element vertex 184
property float x
property float y
property float z
property float u
property float v
element face 249
property list uchar int vertex_indices
end_header
221.343 19.6569 0 221.343 19.6569
210.151 28.8492 0 210.151 28.8492
202.373 40.6274 0 202.373 40.6274
197 53.402 0 197 53.402
196.698 67.6985 0 196.698 67.6985
201 80.9167 0 201 80.9167
192.569 89 0 192.569 89
180.331 95.669 0 180.331 95.669
168.553 103.447 0 168.553 103.447
156.681 111 0 156.681 111
144.996 119.004 0 144.996 119.004
133.511 122.511 0 133.511 122.511
122.319 113.319 0 122.319 113.319
113.834 101.834 0 113.834 101.834
107 89.6641 0 107 89.6641
102.52 76.5198 0 102.52 76.5198
105.137 65.863 0 105.137 65.863
114.622 55.3777 0 114.622 55.3777
112.428 42.4279 0 112.428 42.4279
105.064 31.064 0 105.064 31.064
92.5758 25 0 92.5758 25
78.4042 27 0 78.4042 27
67.9219 35.0781 0 67.9219 35.0781
54.6792 39.3208 0 54.6792 39.3208
43 46.5541 0 43 46.5541
42.7558 57.7558 0 42.7558 57.7558
44 70.5836 0 44 70.5836
53.3624 79.3624 0 53.3624 79.3624
63 85.684 0 63 85.684
73.0192 86.9808 0 73.0192 86.9808
80 93.9561 0 80 93.9561
84 107.299 0 84 107.299
91.2826 119.283 0 91.2826 119.283
100.475 130.475 0 100.475 130.475
111.375 140.375 0 111.375 140.375
120.554 149.446 0 120.554 149.446
121 163.802 0 121 163.802
127.731 175 0 127.731 175
139.831 168 0 139.831 168
151.952 174.952 0 151.952 174.952
162.204 177 0 162.204 177
170.215 165.785 0 170.215 165.785
175.713 154.713 0 175.713 154.713
167.943 148.057 0 167.943 148.057
180.015 140.985 0 180.015 140.985
187 145.95 0 187 145.95
185 160.121 0 185 160.121
181.379 173.621 0 181.379 173.621
177.136 186.864 0 177.136 186.864
173.6 200.4 0 173.6 200.4
170 213.909 0 170 213.909
166.529 227.471 0 166.529 227.471
163 239.595 0 163 239.595
157.629 252.371 0 157.629 252.371
150.558 264.442 0 150.558 264.442
144.901 277.099 0 144.901 277.099
139 289.654 0 139 289.654
133.587 302.413 0 133.587 302.413
128 315.098 0 128 315.098
122.981 328.019 0 122.981 328.019
117 340.542 0 117 340.542
110.96 353.04 0 110.96 353.04
104.596 365.404 0 104.596 365.404
103 379.744 0 103 379.744
112.89 388.89 0 112.89 388.89
126.602 386 0 126.602 386
138.497 378.503 0 138.497 378.503
149.396 368.604 0 149.396 368.604
157.881 357.119 0 157.881 357.119
165 362.932 0 165 362.932
165 377.933 0 165 377.933
169.195 391.195 0 169.195 391.195
180.852 396.148 0 180.852 396.148
193.509 390.491 0 193.509 390.491
202.995 380.005 0 202.995 380.005
208 367.079 0 208 367.079
213 354.15 0 213 354.15
217.844 341.156 0 217.844 341.156
221.38 327.62 0 221.38 327.62
224.915 314.085 0 224.915 314.085
227 299.948 0 227 299.948
229.158 285.842 0 229.158 285.842
232.694 272.306 0 232.694 272.306
236 258.676 0 236 258.676
238 244.504 0 238 244.504
250.008 237.992 0 250.008 237.992
256 225.474 0 256 225.474
258 211.303 0 258 211.303
260 197.131 0 260 197.131
260 182.131 0 260 182.131
261 167.545 0 261 167.545
264 153.788 0 264 153.788
270.1 160.1 0 270.1 160.1
276.464 172.464 0 276.464 172.464
281.414 185.414 0 281.414 185.414
285.657 198.657 0 285.657 198.657
289.899 211.899 0 289.899 211.899
299.786 220 0 299.786 220
313.958 218 0 313.958 218
323.749 208.251 0 323.749 208.251
329 195.426 0 329 195.426
332 181.669 0 332 181.669
330.352 167.352 0 330.352 167.352
325.402 154.402 0 325.402 154.402
319 142.053 0 319 142.053
311.967 129.967 0 311.967 129.967
304.895 117.895 0 304.895 117.895
294.703 107.703 0 294.703 107.703
283.51 98.5104 0 283.51 98.5104
272.45 89 0 272.45 89
278.46 78.5399 0 278.46 78.5399
284 65.8345 0 284 65.8345
285 51.2484 0 285 51.2484
280 38.3196 0 280 38.3196
270.741 27.7407 0 270.741 27.7407
258.377 21.3767 0 258.377 21.3767
234 14 0 234 14
172.517 346.464 0 172.517 346.464
192.965 130.159 0 192.965 130.159
279.075 145.323 0 279.075 145.323
54.7081 52.4129 0 54.7081 52.4129
87.102 79.8677 0 87.102 79.8677
159.02 166.256 0 159.02 166.256
70.4801 67.2446 0 70.4801 67.2446
92.6967 68.4576 0 92.6967 68.4576
99.5454 51.2717 0 99.5454 51.2717
125.513 135.247 0 125.513 135.247
187.862 240.256 0 187.862 240.256
180.724 380.254 0 180.724 380.254
255.527 72.3199 0 255.527 72.3199
304.737 203.873 0 304.737 203.873
212.184 101.021 0 212.184 101.021
83.2473 44.1246 0 83.2473 44.1246
144.635 138.377 0 144.635 138.377
99.2254 106.251 0 99.2254 106.251
164.761 128.784 0 164.761 128.784
139.552 343.623 0 139.552 343.623
123.365 367.246 0 123.365 367.246
165.871 294.619 0 165.871 294.619
238.449 40.9412 0 238.449 40.9412
212.999 156.846 0 212.999 156.846
303.587 170.161 0 303.587 170.161
201.155 200.368 0 201.155 200.368
233.879 222.578 0 233.879 222.578
193.825 327.652 0 193.825 327.652
192.149 353.517 0 192.149 353.517
183.922 113.913 0 183.922 113.913
299.185 145.494 0 299.185 145.494
286.082 159.693 0 286.082 159.693
259.862 114.827 0 259.862 114.827
286.321 126.277 0 286.321 126.277
182.853 224.423 0 182.853 224.423
212.444 248.124 0 212.444 248.124
175.105 252.2 0 175.105 252.2
263.392 52.1735 0 263.392 52.1735
139.552 327.021 0 139.552 327.021
125.871 352.538 0 125.871 352.538
162.484 277.364 0 162.484 277.364
201.205 288.784 0 201.205 288.784
150.594 302.1 0 150.594 302.1
224.032 66.1127 0 224.032 66.1127
220.382 44.0633 0 220.382 44.0633
234.578 173.061 0 234.578 173.061
200.525 171.521 0 200.525 171.521
314.123 184.977 0 314.123 184.977
238.649 201.345 0 238.649 201.345
207.59 316.789 0 207.59 316.789
192.913 368.669 0 192.913 368.669
202.903 342.986 0 202.903 342.986
220.329 262.091 0 220.329 262.091
258.032 37.2398 0 258.032 37.2398
244.98 156.846 0 244.98 156.846
192.25 184.405 0 192.25 184.405
297.799 187.465 0 297.799 187.465
208.551 185.776 0 208.551 185.776
262.917 134.203 0 262.917 134.203
206.041 225.797 0 206.041 225.797
194.911 260.57 0 194.911 260.57
156.872 335.322 0 156.872 335.322
182.017 282.49 0 182.017 282.49
188.271 306.463 0 188.271 306.463
219.906 200.702 0 219.906 200.702
166.974 316.209 0 166.974 316.209
233.064 128.98 0 233.064 128.98
3 26 25 120
3 121 29 123
3 120 24 23
3 68 136 178
3 20 19 132
3 24 120 25
3 26 120 123
3 132 120 22
3 21 20 132
3 27 26 123
3 28 27 123
3 32 31 134
3 33 32 134
3 14 134 30
3 29 121 30
3 132 19 125
3 15 14 121
3 17 125 18
3 125 16 124
3 134 12 33
3 16 125 17
3 134 14 13
3 11 126 12
3 35 34 126
3 133 38 35
3 33 12 126
3 43 135 44
3 126 11 133
3 135 133 10
3 43 42 41
3 133 35 126
3 30 121 14
3 37 36 38
3 76 145 168
3 67 136 68
3 57 56 159
3 35 38 36
3 136 59 155
3 63 62 137
3 65 137 66
3 137 65 64
3 61 156 137
3 63 137 64
3 137 156 67
3 131 6 5
3 39 122 40
3 151 51 50
3 142 151 49
3 122 38 133
3 52 127 153
3 55 138 159
3 155 178 136
3 66 137 67
3 53 153 157
3 69 68 117
3 71 70 128
3 52 153 53
3 69 117 145
3 51 151 127
3 40 122 41
3 8 146 135
3 56 55 159
3 161 2 1
3 2 161 3
3 116 115 139
3 0 139 161
3 0 116 139
3 38 122 39
3 109 129 110
3 8 7 146
3 131 146 6
3 44 118 45
3 118 146 131
3 90 89 162
3 135 146 44
3 170 113 154
3 129 109 149
3 111 110 129
3 183 149 175
3 111 129 154
3 111 154 112
3 108 107 150
3 106 105 150
3 90 162 171
3 92 91 119
3 104 147 105
3 107 106 150
3 92 119 148
3 119 150 147
3 123 29 28
3 141 147 103
3 15 121 124
3 113 112 154
3 102 141 103
3 80 79 166
3 152 127 176
3 79 78 166
3 80 158 81
3 169 152 84
3 81 158 169
3 163 47 46
3 72 128 73
3 175 119 91
3 128 72 71
3 147 150 105
3 167 145 75
3 76 75 145
3 145 167 69
3 168 77 76
3 78 77 168
3 47 163 172
3 87 143 165
3 91 90 171
3 148 93 92
3 164 141 102
3 100 164 101
3 173 95 94
3 84 143 85
3 86 85 143
3 98 97 130
3 98 130 99
3 97 96 130
3 99 130 164
3 15 124 16
3 140 163 46
3 87 165 88
3 23 22 120
3 43 41 122
3 131 183 118
3 121 123 124
3 132 22 21
3 132 124 123
3 19 18 125
3 126 34 33
3 11 10 133
3 169 84 83
3 52 51 127
3 69 128 70
3 73 128 167
3 4 3 160
3 0 161 1
3 96 95 130
3 141 164 173
3 131 5 160
3 109 108 149
3 124 132 125
3 120 132 123
3 135 10 9
3 133 43 122
3 134 31 30
3 12 134 13
3 133 135 43
3 8 135 9
3 60 59 136
3 155 59 58
3 62 61 137
3 61 60 156
3 55 54 157
3 168 166 78
3 160 5 4
3 114 113 170
3 46 45 140
3 140 45 118
3 164 102 101
3 93 141 94
3 86 143 87
3 48 172 49
3 143 84 152
3 181 174 162
3 117 178 182
3 158 166 180
3 75 74 167
3 144 145 117
3 146 7 6
3 146 118 44
3 103 147 104
3 148 141 93
3 119 147 148
3 141 148 147
3 171 183 175
3 129 149 131
3 175 150 119
3 108 150 149
3 176 143 152
3 49 151 50
3 169 83 82
3 127 151 176
3 177 127 152
3 157 138 55
3 129 139 154
3 170 115 114
3 57 155 58
3 117 68 178
3 60 136 156
3 67 156 136
3 53 157 54
3 127 177 153
3 157 179 138
3 179 153 177
3 155 182 178
3 155 57 159
3 139 129 160
3 131 160 129
3 139 160 161
3 3 161 160
3 165 89 88
3 174 142 172
3 174 140 162
3 47 172 48
3 99 164 100
3 173 130 95
3 143 176 181
3 89 165 162
3 180 166 144
3 80 166 158
3 73 167 74
3 69 167 128
3 145 144 168
3 168 144 166
3 177 169 158
3 81 169 82
3 154 139 170
3 139 115 170
3 162 140 171
3 118 183 140
3 174 172 163
3 49 172 142
3 141 173 94
3 130 173 164
3 140 174 163
3 181 162 165
3 171 175 91
3 150 175 149
3 151 142 176
3 176 142 181
3 169 177 152
3 158 180 179
3 159 182 155
3 159 138 182
3 153 179 157
3 177 158 179
3 144 117 182
3 179 180 138
3 142 174 181
3 143 181 165
3 138 180 182
3 144 182 180
3 140 183 171
3 131 149 183
