ply
format ascii 1.0
element vertex 334
property float x
property float y
property float z
property float u
property float v
element face 447
property list uchar int vertex_indices
end_header
185.222 19.7782 0 185.222 19.7782
180 32.6152 0 180 32.6152
178.787 46 0 178.787 46
178 55.3015 0 178 55.3015
181.042 69.0416 0 181.042 69.0416
185 82.402 0 185 82.402
185 97.402 0 185 97.402
177.645 109.355 0 177.645 109.355
165.867 117.133 0 165.867 117.133
152.054 120 0 152.054 120
137.468 121 0 137.468 121
124.088 124.912 0 124.088 124.912
116 134.804 0 116 134.804
114.603 148.397 0 114.603 148.397
113 162.733 0 113 162.733
111 176.904 0 111 176.904
106.825 190.175 0 106.825 190.175
101 202.762 0 101 202.762
93.3899 214.61 0 93.3899 214.61
85 226.135 0 85 226.135
75.1788 236 0 75.1788 236
64.5198 246.48 0 64.5198 246.48
54.6203 257.38 0 54.6203 257.38
44.7208 268.279 0 44.7208 268.279
36.2356 279.764 0 36.2356 279.764
29.1645 291.835 0 29.1645 291.835
24 304.696 0 24 304.696
21 318.454 0 21 318.454
22 333.039 0 22 333.039
26.9776 345.978 0 26.9776 345.978
34.7558 357.756 0 34.7558 357.756
43 354.416 0 43 354.416
39.759 340.759 0 39.759 340.759
37 326.902 0 37 326.902
36 312.316 0 36 312.316
43.1406 300.859 0 43.1406 300.859
54.6259 292.374 0 54.6259 292.374
66.1572 284 0 66.1572 284
76.5965 274.404 0 76.5965 274.404
87 263.713 0 87 263.713
95.9813 253.019 0 95.9813 253.019
104.759 242.241 0 104.759 242.241
113.952 231.048 0 113.952 231.048
121 219.553 0 121 219.553
131.094 209.906 0 131.094 209.906
144.337 212.337 0 144.337 212.337
149.994 224.994 0 149.994 224.994
152 239.163 0 152 239.163
153 253.749 0 153 253.749
152 267.506 0 152 267.506
150 281.678 0 150 281.678
148 295.849 0 148 295.849
145 309.607 0 145 309.607
138.914 322.086 0 138.914 322.086
131.843 334.157 0 131.843 334.157
122.65 345.35 0 122.65 345.35
113.458 356.542 0 113.458 356.542
106.387 368.613 0 106.387 368.613
99 380.553 0 99 380.553
90.8306 392.169 0 90.8306 392.169
83.4665 403.534 0 83.4665 403.534
76.1025 414.898 0 76.1025 414.898
68.7385 426.262 0 68.7385 426.262
60.9603 438.04 0 60.9603 438.04
53.8892 450.111 0 53.8892 450.111
48 462.672 0 48 462.672
46 476.843 0 46 476.843
46 491.015 0 46 491.015
53.7886 502.789 0 53.7886 502.789
61 514.802 0 61 514.802
68.931 525.931 0 68.931 525.931
76.0023 538.002 0 76.0023 538.002
83 550.104 0 83 550.104
88.0233 563.023 0 88.0233 563.023
94.3874 575.387 0 94.3874 575.387
98 588.891 0 98 588.891
100 603.063 0 100 603.063
101 617.649 0 101 617.649
97.0058 630.994 0 97.0058 630.994
89.2275 642.773 0 89.2275 642.773
80.7423 654.258 0 80.7423 654.258
73 666.051 0 73 666.051
68 678.394 0 68 678.394
79.2285 680.771 0 79.2285 680.771
89.2997 671.7 0 89.2997 671.7
100.199 661.801 0 100.199 661.801
111.14 652 0 111.14 652
123.17 644.83 0 123.17 644.83
133.655 635.345 0 133.655 635.345
138 622.73 0 138 622.73
136 608.559 0 136 608.559
132.859 594.859 0 132.859 594.859
128 581.872 0 128 581.872
124 568.529 0 124 568.529
119 555.6 0 119 555.6
116 541.843 0 116 541.843
115.888 526.888 0 115.888 526.888
112 513.499 0 112 513.499
106 506.984 0 106 506.984
103.867 492.867 0 103.867 492.867
103.668 479.332 0 103.668 479.332
110.046 467 0 110.046 467
118.81 456.19 0 118.81 456.19
128.589 446.411 0 128.589 446.411
139.781 437.219 0 139.781 437.219
149.68 426.32 0 149.68 426.32
160 415.594 0 160 415.594
169.48 404.52 0 169.48 404.52
179.379 393.621 0 179.379 393.621
191.45 386.55 0 191.45 386.55
204.98 385 0 204.98 385
217.909 390 0 217.909 390
229.128 399.128 0 229.128 399.128
240.027 409.027 0 240.027 409.027
248.513 420.513 0 248.513 420.513
255.584 432.584 0 255.584 432.584
263 444.512 0 263 444.512
271 456.199 0 271 456.199
278.212 468.212 0 278.212 468.212
287 479.571 0 287 479.571
294 491.672 0 294 491.672
294 505.844 0 294 505.844
288 517.773 0 288 517.773
283 530.702 0 283 530.702
280 544.459 0 280 544.459
278.968 559.032 0 278.968 559.032
272.311 570.689 0 272.311 570.689
266 583.075 0 266 583.075
260.29 595.71 0 260.29 595.71
253.219 607.781 0 253.219 607.781
249 621.034 0 249 621.034
250 635.62 0 250 635.62
258.216 647.216 0 258.216 647.216
267.409 658.409 0 267.409 658.409
276.601 669.601 0 276.601 669.601
286 680.708 0 286 680.708
297.808 684 0 297.808 684
297 670.435 0 297 670.435
292 657.506 0 292 657.506
287.408 644.408 0 287.408 644.408
285.287 630.287 0 285.287 630.287
286.834 616.166 0 286.834 616.166
289.662 602.338 0 289.662 602.338
295.319 589.681 0 295.319 589.681
302.39 577.61 0 302.39 577.61
309.461 565.539 0 309.461 565.539
316.532 553.468 0 316.532 553.468
323 541.147 0 323 541.147
330 529.047 0 330 529.047
338 517.361 0 338 517.361
344 504.846 0 344 504.846
345 490.261 0 345 490.261
343 476.918 0 343 476.918
339 463.575 0 339 463.575
333 451.061 0 333 451.061
327.386 438.386 0 327.386 438.386
323.144 425.144 0 323.144 425.144
316.073 413.073 0 316.073 413.073
309 401.002 0 309 401.002
303 388.488 0 303 388.488
296.274 376.274 0 296.274 376.274
289 364.288 0 289 364.288
281.132 353.132 0 281.132 353.132
274.061 341.061 0 274.061 341.061
267.697 328.697 0 267.697 328.697
262.666 316.334 0 262.666 316.334
261.213 302.213 0 261.213 302.213
260 287.715 0 260 287.715
260 274.373 0 260 274.373
259 259.787 0 259 259.787
258 245.201 0 258 245.201
258 231.03 0 258 231.03
262.221 217.779 0 262.221 217.779
267.171 204.829 0 267.171 204.829
279.535 203.535 0 279.535 203.535
287.899 213.899 0 287.899 213.899
296.384 225.384 0 296.384 225.384
304.162 237.162 0 304.162 237.162
312.94 247.94 0 312.94 247.94
322.602 258 0 322.602 258
331.203 269.203 0 331.203 269.203
341.396 279.396 0 341.396 279.396
351.881 288.881 0 351.881 288.881
359.952 299.952 0 359.952 299.952
361.926 314.074 0 361.926 314.074
356 326.619 0 356 326.619
352 339.961 0 352 339.961
355.801 352.801 0 355.801 352.801
369.043 350.957 0 369.043 350.957
379.236 340.764 0 379.236 340.764
387 328.98 0 387 328.98
392 316.052 0 392 316.052
390 301.88 0 390 301.88
382.844 289.844 0 382.844 289.844
373.359 279.359 0 373.359 279.359
364.873 267.873 0 364.873 267.873
356.095 257.095 0 356.095 257.095
347.61 245.61 0 347.61 245.61
338.125 235.125 0 338.125 235.125
329.468 225.468 0 329.468 225.468
319.983 214.983 0 319.983 214.983
312.205 203.205 0 312.205 203.205
308.669 189.669 0 308.669 189.669
304 176.604 0 304 176.604
300.185 163.185 0 300.185 163.185
298 149.089 0 298 149.089
291.7 136.7 0 291.7 136.7
280.628 128.628 0 280.628 128.628
268.85 120.85 0 268.85 120.85
255.86 116 0 255.86 116
243.244 110.244 0 243.244 110.244
232.831 102 0 232.831 102
227 89.9023 0 227 89.9023
229 75.7314 0 229 75.7314
230 61.1453 0 230 61.1453
228 46.9736 0 228 46.9736
225 33.217 0 225 33.217
217.375 21.3754 0 217.375 21.3754
197 12 0 197 12
196.114 52.1497 0 196.114 52.1497
96.5888 521.672 0 96.5888 521.672
136.802 143.56 0 136.802 143.56
119.077 623.268 0 119.077 623.268
208.273 106.383 0 208.273 106.383
234.582 281.044 0 234.582 281.044
270.888 180.628 0 270.888 180.628
295.386 199.3 0 295.386 199.3
241.628 332.101 0 241.628 332.101
324.195 238.904 0 324.195 238.904
287.88 571.85 0 287.88 571.85
309.603 521.165 0 309.603 521.165
224.05 123.789 0 224.05 123.789
81.2678 249.78 0 81.2678 249.78
127.596 189.418 0 127.596 189.418
116.956 202.505 0 116.956 202.505
171.944 367.089 0 171.944 367.089
177.991 228.256 0 177.991 228.256
73.9984 473.568 0 73.9984 473.568
101.434 423.245 0 101.434 423.245
104.271 562.48 0 104.271 562.48
110.656 578.27 0 110.656 578.27
134.406 401.296 0 134.406 401.296
207.122 79.8703 0 207.122 79.8703
374.709 305.088 0 374.709 305.088
371.613 326.322 0 371.613 326.322
253.437 383.313 0 253.437 383.313
282.017 424.42 0 282.017 424.42
300.074 541.631 0 300.074 541.631
304.248 457.149 0 304.248 457.149
270.56 609.833 0 270.56 609.833
267.49 631.937 0 267.49 631.937
275.854 595.135 0 275.854 595.135
319.398 487.277 0 319.398 487.277
200.802 30.5646 0 200.802 30.5646
213.15 56.2963 0 213.15 56.2963
91.8895 536.89 0 91.8895 536.89
80.5238 509.279 0 80.5238 509.279
128.141 157.168 0 128.141 157.168
164.383 144.698 0 164.383 144.698
118.388 605.387 0 118.388 605.387
193.235 110.709 0 193.235 110.709
232.728 254.261 0 232.728 254.261
244.766 268.09 0 244.766 268.09
244.152 296.34 0 244.152 296.34
175.999 292.574 0 175.999 292.574
270.825 153.704 0 270.825 153.704
286.909 174.211 0 286.909 174.211
256.232 342.419 0 256.232 342.419
220.97 362.869 0 220.97 362.869
242.228 129.176 0 242.228 129.176
140.158 197.816 0 140.158 197.816
158.972 385.032 0 158.972 385.032
147.297 356.22 0 147.297 356.22
165.732 327.441 0 165.732 327.441
195.593 362.891 0 195.593 362.891
169.845 245.267 0 169.845 245.267
165.895 210.294 0 165.895 210.294
240.025 201.874 0 240.025 201.874
63.4561 462.257 0 63.4561 462.257
91.0586 464.996 0 91.0586 464.996
86.9103 486.348 0 86.9103 486.348
63.4966 487.904 0 63.4966 487.904
111.428 439.029 0 111.428 439.029
85.4823 429.044 0 85.4823 429.044
100.21 406.316 0 100.21 406.316
131.823 420.046 0 131.823 420.046
120.003 385.292 0 120.003 385.292
275.047 380.956 0 275.047 380.956
260.047 403.114 0 260.047 403.114
234.598 380.946 0 234.598 380.946
287.581 403.576 0 287.581 403.576
302.504 429.128 0 302.504 429.128
279.939 441.498 0 279.939 441.498
320.843 464.585 0 320.843 464.585
326.069 503.945 0 326.069 503.945
308.305 498.758 0 308.305 498.758
304.619 477.454 0 304.619 477.454
205.432 124.811 0 205.432 124.811
183.603 131.185 0 183.603 131.185
241.2 238.115 0 241.2 238.115
167.289 276.891 0 167.289 276.891
163.428 306.419 0 163.428 306.419
285.573 158.232 0 285.573 158.232
266.32 137.489 0 266.32 137.489
266.068 353.85 0 266.068 353.85
147.244 173.621 0 147.244 173.621
153.589 400.511 0 153.589 400.511
130.422 361.104 0 130.422 361.104
149.948 336.656 0 149.948 336.656
244.289 219.364 0 244.289 219.364
103.398 452.652 0 103.398 452.652
274.395 366.236 0 274.395 366.236
265.033 418.942 0 265.033 418.942
288.132 388.717 0 288.132 388.717
300.792 413.92 0 300.792 413.92
286.094 455.309 0 286.094 455.309
318.239 450.018 0 318.239 450.018
166.138 261.619 0 166.138 261.619
245.409 361.679 0 245.409 361.679
195.808 267.063 0 195.808 267.063
210.226 306.924 0 210.226 306.924
222.877 161.113 0 222.877 161.113
209.791 231.93 0 209.791 231.93
186.293 314.55 0 186.293 314.55
248.078 151.291 0 248.078 151.291
143.456 374.548 0 143.456 374.548
166.901 347.568 0 166.901 347.568
191.891 245.368 0 191.891 245.368
215.724 142.208 0 215.724 142.208
223.245 215.229 0 223.245 215.229
185.657 336.38 0 185.657 336.38
190.972 162.378 0 190.972 162.378
196.506 207.457 0 196.506 207.457
216.291 189.272 0 216.291 189.272
3 19 41 232
3 39 232 40
3 38 22 21
3 21 20 232
3 21 232 38
3 19 18 42
3 16 15 233
3 43 234 44
3 41 40 232
3 42 18 43
3 41 19 42
3 43 18 17
3 257 14 13
3 35 34 26
3 25 35 26
3 254 215 214
3 33 28 27
3 34 33 27
3 28 32 29
3 27 26 34
3 25 24 35
3 22 37 23
3 37 22 38
3 23 37 36
3 33 32 28
3 35 24 36
3 24 23 36
3 30 29 32
3 260 297 298
3 10 9 221
3 11 10 221
3 11 221 12
3 324 269 303
3 253 1 0
3 2 1 219
3 3 219 4
3 242 223 6
3 242 4 219
3 218 253 0
3 260 7 6
3 233 44 234
3 221 257 13
3 43 17 234
3 107 271 108
3 53 273 308
3 12 221 13
3 170 261 299
3 317 319 300
3 326 272 308
3 300 50 49
3 50 264 51
3 300 49 317
3 45 44 270
3 108 235 109
3 47 236 275
3 31 30 32
3 278 66 65
3 66 278 281
3 68 67 281
3 282 103 102
3 61 238 283
3 283 63 62
3 100 279 101
3 61 283 62
3 280 256 281
3 284 58 286
3 256 220 70
3 69 256 70
3 82 81 83
3 84 81 80
3 81 84 83
3 73 239 74
3 239 72 255
3 85 84 80
3 79 85 80
3 86 79 78
3 75 74 240
3 220 255 71
3 284 238 60
3 279 237 278
3 279 100 280
3 256 98 220
3 96 95 255
3 98 97 220
3 55 272 307
3 237 279 280
3 105 104 285
3 306 271 107
3 102 310 282
3 103 282 285
3 241 306 285
3 55 54 272
3 108 271 235
3 239 93 240
3 95 94 239
3 78 77 222
3 86 85 79
3 91 90 259
3 87 86 78
3 259 92 91
3 255 72 71
3 259 90 222
3 92 259 240
3 222 87 78
3 88 222 89
3 89 222 90
3 240 259 75
3 55 307 56
3 5 242 6
3 3 2 219
3 216 215 254
3 87 222 88
3 216 254 253
3 213 212 242
3 219 254 242
3 242 254 213
3 211 223 212
3 9 258 221
3 303 208 207
3 206 205 302
3 210 269 231
3 266 204 203
3 270 44 233
3 260 6 223
3 170 299 171
3 261 170 169
3 275 48 47
3 165 227 263
3 168 167 262
3 262 169 168
3 174 173 225
3 201 226 202
3 164 163 267
3 163 304 267
3 176 175 201
3 309 172 171
3 165 164 227
3 204 302 205
3 264 301 51
3 226 203 202
3 226 174 266
3 201 200 176
3 226 201 175
3 228 177 200
3 177 176 200
3 225 302 266
3 199 198 228
3 228 179 178
3 180 179 197
3 179 228 197
3 180 197 196
3 181 196 195
3 228 200 199
3 195 182 181
3 181 180 196
3 186 185 244
3 184 183 243
3 244 184 243
3 182 194 183
3 243 193 192
3 70 220 71
3 244 191 190
3 244 188 186
3 189 188 244
3 191 244 243
3 96 220 97
3 183 194 193
3 194 182 195
3 258 9 8
3 187 186 188
3 274 268 110
3 227 267 318
3 113 112 245
3 113 245 288
3 289 245 112
3 312 292 115
3 288 114 113
3 292 116 115
3 292 117 116
3 247 124 123
3 119 118 315
3 160 287 161
3 227 164 267
3 128 249 129
3 130 129 249
3 131 250 132
3 250 130 249
3 132 250 133
3 249 142 141
3 124 247 125
3 127 126 229
3 135 134 137
3 134 133 138
3 133 250 139
3 140 139 250
3 126 125 229
3 249 251 142
3 114 312 115
3 157 291 314
3 155 316 291
3 291 157 156
3 314 246 290
3 293 154 153
3 295 296 252
3 151 252 152
3 149 294 150
3 154 316 155
3 293 152 252
3 295 121 120
3 251 229 143
3 142 251 143
3 137 136 135
3 137 134 138
3 120 296 295
3 247 122 230
3 147 146 247
3 230 294 148
3 229 247 145
3 144 229 145
3 247 146 145
3 252 151 294
3 138 133 139
3 318 311 245
3 217 253 218
3 77 76 259
3 210 231 211
3 211 231 223
3 167 224 262
3 166 263 167
3 172 277 173
3 206 265 303
3 175 174 226
3 174 225 266
3 109 235 274
3 263 224 167
3 228 198 197
3 177 228 178
3 229 125 247
3 143 229 144
3 147 230 148
3 122 121 230
3 269 210 209
3 322 332 329
3 232 39 38
3 19 232 20
3 257 15 14
3 305 270 233
3 17 16 234
3 233 234 16
3 54 53 308
3 273 53 52
3 47 46 236
3 46 45 276
3 64 278 65
3 100 99 280
3 61 60 238
3 60 59 284
3 239 73 72
3 93 239 94
3 239 240 74
3 92 240 93
3 57 286 58
3 285 306 105
3 242 5 4
3 223 242 212
3 193 243 183
3 191 243 192
3 189 244 190
3 185 184 244
3 112 111 289
3 287 311 161
3 312 114 288
3 157 314 158
3 122 247 123
3 147 247 230
3 117 292 315
3 293 316 154
3 249 128 251
3 141 140 250
3 130 250 131
3 141 250 249
3 128 127 251
3 251 127 229
3 294 151 150
3 120 119 296
3 1 253 219
3 216 253 217
3 254 214 213
3 253 254 219
3 96 255 220
3 239 255 95
3 256 69 68
3 98 256 99
3 305 221 258
3 15 257 233
3 7 260 298
3 276 45 270
3 77 259 222
3 259 76 75
3 231 297 223
3 260 223 297
3 320 319 224
3 329 309 299
3 224 261 262
3 261 169 262
3 165 263 166
3 320 264 319
3 320 224 263
3 268 274 330
3 324 225 277
3 206 303 207
3 226 266 203
3 302 225 265
3 304 163 162
3 304 311 318
3 111 110 268
3 110 109 274
3 303 209 208
3 324 277 321
3 305 233 257
3 276 236 46
3 306 107 106
3 325 307 272
3 271 325 235
3 241 286 325
3 51 301 52
3 323 273 301
3 326 274 235
3 330 326 273
3 319 317 327
3 300 264 50
3 305 276 270
3 298 328 331
3 298 331 258
3 225 173 277
3 63 278 64
3 278 237 281
3 283 278 63
3 282 310 283
3 99 256 280
3 281 256 68
3 66 281 67
3 280 281 237
3 102 101 310
3 284 285 238
3 282 283 238
3 283 279 278
3 58 284 59
3 285 284 241
3 103 285 104
3 238 285 282
3 57 56 307
3 284 286 241
3 290 313 159
3 290 159 158
3 245 287 288
3 288 287 290
3 111 268 289
3 304 318 267
3 290 246 312
3 159 313 160
3 155 291 156
3 291 248 315
3 291 292 246
3 117 315 118
3 152 293 153
3 296 293 252
3 148 294 149
3 295 230 121
3 252 294 295
3 230 295 294
3 119 248 296
3 293 296 248
3 269 324 328
3 298 8 7
3 297 328 298
3 258 8 298
3 319 327 261
3 172 309 277
3 317 49 48
3 327 317 275
3 323 301 264
3 273 52 301
3 266 302 204
3 206 302 265
3 324 303 265
3 209 303 269
3 311 162 161
3 318 245 289
3 221 305 257
3 305 258 331
3 105 306 106
3 325 306 241
3 272 235 325
3 57 307 286
3 326 308 273
3 272 54 308
3 171 299 309
3 322 299 261
3 101 279 310
3 283 310 279
3 245 311 287
3 304 162 311
3 290 312 288
3 292 312 246
3 290 287 313
3 287 160 313
3 246 314 291
3 290 158 314
3 291 315 292
3 119 315 248
3 293 248 316
3 291 316 248
3 48 275 317
3 236 327 275
3 289 268 318
3 227 318 268
3 224 319 261
3 264 300 319
3 263 227 320
3 268 330 227
3 329 277 309
3 297 231 328
3 276 332 236
3 299 322 329
3 264 320 323
3 227 330 320
3 225 324 265
3 328 324 321
3 325 271 306
3 286 307 325
3 273 323 330
3 272 326 235
3 236 322 327
3 261 327 322
3 269 328 231
3 321 331 328
3 322 236 332
3 329 332 333
3 320 330 323
3 274 326 330
3 277 329 333
3 305 331 276
3 276 331 332
3 333 331 321
3 331 333 332
3 321 277 333
