ply
format ascii 1.0
element vertex 190
property float x
property float y
property float z
property float u
property float v
element face 213
property list uchar int vertex_indices
end_header
185 20.6863 0 185 20.6863
178 37.7868 0 178 37.7868
178 54.13 0 178 54.13
182 72.4731 0 182 72.4731
185 91.2304 0 185 91.2304
178.473 108.527 0 178.473 108.527
162.988 118.012 0 162.988 118.012
144.745 120.255 0 144.745 120.255
126.21 123.79 0 126.21 123.79
115 137.39 0 115 137.39
113 156.561 0 113 156.561
111 175.733 0 111 175.733
105 193.248 0 105 193.248
97 209.934 0 97 209.934
86 224.792 0 86 224.792
72.4193 238.581 0 72.4193 238.581
59.321 251 0 59.321 251
46.9132 265.087 0 46.9132 265.087
36.0137 279.986 0 36.0137 279.986
27 296.253 0 27 296.253
21.8716 314.128 0 21.8716 314.128
22 333.353 0 22 333.353
29 350.454 0 29 350.454
42.5131 359.487 0 42.5131 359.487
40 341.76 0 40 341.76
37 323.002 0 37 323.002
39.534 305.466 0 39.534 305.466
53.8478 293.152 0 53.8478 293.152
69.1615 281.839 0 69.1615 281.839
82.0611 268.939 0 82.0611 268.939
94.6677 255.332 0 94.6677 255.332
106.689 240.311 0 106.689 240.311
116.76 226.24 0 116.76 226.24
128.659 212.341 0 128.659 212.341
145 213.619 0 145 213.619
151 231.134 0 151 231.134
153 250.305 0 153 250.305
151 269.477 0 151 269.477
149 287.82 0 149 287.82
146 306.578 0 146 306.578
137.813 323.187 0 137.813 323.187
127.207 338.793 0 127.207 338.793
115.434 353 0 115.434 353
106 368.838 0 106 368.838
96.2151 384.785 0 96.2151 384.785
85.3156 399.684 0 85.3156 399.684
75.4159 415.584 0 75.4159 415.584
65.2235 430.776 0 65.2235 430.776
56 446.956 0 56 446.956
47.96 463.04 0 47.96 463.04
45 481.814 0 45 481.814
50.5255 499.526 0 50.5255 499.526
61.1322 515.132 0 61.1322 515.132
71.0317 531.032 0 71.0317 531.032
80.2244 547.224 0 80.2244 547.224
88.0027 564.003 0 88.0027 564.003
95.781 580.781 0 95.781 580.781
100 599.034 0 100 599.034
100 618.205 0 100 618.205
94.6121 635.388 0 94.6121 635.388
83.2984 650.702 0 83.2984 650.702
72.6917 666.308 0 72.6917 666.308
70.0865 682.087 0 70.0865 682.087
85.8647 675.135 0 85.8647 675.135
99.4714 662.529 0 99.4714 662.529
114.492 650.508 0 114.492 650.508
130.099 639.901 0 130.099 639.901
138 623.174 0 138 623.174
136 604.002 0 136 604.002
130.344 586.344 0 130.344 586.344
124.688 568.688 0 124.688 568.688
118 551.457 0 118 551.457
116 532.285 0 116 532.285
112.666 513.666 0 112.666 513.666
105 497.428 0 105 497.428
103.647 479.353 0 103.647 479.353
114 463.641 0 114 463.641
126 449.197 0 126 449.197
140.588 436.412 0 140.588 436.412
153.61 422.39 0 153.61 422.39
166.63 408.37 0 166.63 408.37
178.944 394.056 0 178.944 394.056
195.43 385.57 0 195.43 385.57
213.965 387.965 0 213.965 387.965
228.809 399 0 228.809 399
241.764 411.764 0 241.764 411.764
252 427.524 0 252 427.524
261.856 442.856 0 261.856 442.856
272 458.655 0 272 458.655
283 474.099 0 283 474.099
293 489.371 0 293 489.371
293 507.714 0 293 507.714
285 523.815 0 285 523.815
280 541.744 0 280 541.744
277.353 559.353 0 277.353 559.353
270 575.602 0 270 575.602
261.711 592 0 261.711 592
253.018 607.982 0 253.018 607.982
249 626.318 0 249 626.318
254.175 644.175 0 254.175 644.175
266.691 658 0 266.691 658
279.095 672.095 0 279.095 672.095
291.702 685.702 0 291.702 685.702
298 672.664 0 298 672.664
292 655.15 0 292 655.15
287 638.05 0 287 638.05
286 620.122 0 286 620.122
290.156 601.844 0 290.156 601.844
298.651 585.651 0 298.651 585.651
307.248 569.752 0 307.248 569.752
316.44 553.56 0 316.44 553.56
325.632 537.368 0 325.632 537.368
336 521.662 0 336 521.662
344 504.976 0 344 504.976
345 486.219 0 345 486.219
340.912 467.912 0 340.912 467.912
333.135 451.135 0 333.135 451.135
326.771 433.771 0 326.771 433.771
318.993 416.993 0 318.993 416.993
309.094 401.094 0 309.094 401.094
301.316 384.316 0 301.316 384.316
292 368.175 0 292 368.175
281.224 353.224 0 281.224 353.224
272.739 336.739 0 272.739 336.739
263.547 320.547 0 263.547 320.547
261.426 301.426 0 261.426 301.426
261 282.431 0 261 282.431
260 262.845 0 260 262.845
258 243.674 0 258 243.674
260 224.502 0 260 224.502
266.009 206.991 0 266.009 206.991
280.909 205.909 0 280.909 205.909
292 220.142 0 292 220.142
302.586 234.586 0 302.586 234.586
314 249.272 0 314 249.272
326.506 263.506 0 326.506 263.506
339.234 278.234 0 339.234 278.234
353.255 291.255 0 353.255 291.255
361 308.047 0 361 308.047
356 325.147 0 356 325.147
351.053 343.053 0 351.053 343.053
362.761 354 0 362.761 354
377.024 342.976 0 377.024 342.976
387.923 328.077 0 387.923 328.077
391.127 310.127 0 391.127 310.127
385.178 293.178 0 385.178 293.178
373.571 278.571 0 373.571 278.571
361.965 263.965 0 361.965 263.965
350.358 249.358 0 350.358 249.358
338.751 234.751 0 338.751 234.751
325.438 221.438 0 325.438 221.438
314.538 206.538 0 314.538 206.538
308.882 188.882 0 308.882 188.882
303.933 170.933 0 303.933 170.933
299 152.976 0 299 152.976
291.205 136.205 0 291.205 136.205
276.184 124.184 0 276.184 124.184
259.16 117 0 259.16 117
242.06 110 0 242.06 110
229 96.0303 0 229 96.0303
229 76.8589 0 229 76.8589
230 57.2728 0 230 57.2728
227.951 38.9508 0 227.951 38.9508
219.173 23.1731 0 219.173 23.1731
200 11 0 200 11
271.131 174.406 0 271.131 174.406
140.191 146.734 0 140.191 146.734
202.799 45.9584 0 202.799 45.9584
139.036 184.772 0 139.036 184.772
166.355 353.992 0 166.355 353.992
195.182 206.213 0 195.182 206.213
198.03 305.281 0 198.03 305.281
74.3983 482.36 0 74.3983 482.36
94.7556 439.574 0 94.7556 439.574
117.237 411.6 0 117.237 411.6
231.903 349.216 0 231.903 349.216
259.197 381.113 0 259.197 381.113
292.439 434.376 0 292.439 434.376
313.316 470.514 0 313.316 470.514
234.84 152.023 0 234.84 152.023
149.601 381.266 0 149.601 381.266
165.252 326.389 0 165.252 326.389
230.617 204.633 0 230.617 204.633
178.773 281.786 0 178.773 281.786
229.077 292.648 0 229.077 292.648
278.557 405.058 0 278.557 405.058
192.435 148.704 0 192.435 148.704
183.663 237.416 0 183.663 237.416
224.415 256.867 0 224.415 256.867
213.077 124.005 0 213.077 124.005
3 29 15 30
3 28 17 16
3 29 16 15
3 28 16 29
3 15 14 30
3 33 13 12
3 14 31 30
3 32 31 14
3 13 32 14
3 11 168 12
3 26 20 19
3 21 24 22
3 20 25 21
3 182 129 128
3 19 18 26
3 39 181 40
3 27 18 17
3 26 25 20
3 25 24 21
3 27 26 18
3 17 28 27
3 23 22 24
3 8 7 166
3 8 166 9
3 6 166 7
3 2 167 3
3 1 167 2
3 160 4 3
3 128 127 188
3 167 0 164
3 10 168 11
3 129 182 130
3 33 32 13
3 33 12 168
3 40 169 41
3 166 168 10
3 35 34 170
3 35 170 187
3 37 183 38
3 82 81 169
3 181 183 171
3 166 10 9
3 180 81 80
3 158 189 159
3 6 186 166
3 51 50 172
3 172 49 48
3 172 52 51
3 46 173 47
3 74 53 52
3 173 172 48
3 48 47 173
3 173 46 174
3 72 54 53
3 63 62 61
3 63 61 60
3 71 56 55
3 60 64 63
3 60 59 64
3 65 64 59
3 55 54 71
3 45 44 174
3 173 76 75
3 173 75 172
3 53 74 73
3 180 42 41
3 172 74 52
3 174 180 79
3 173 174 77
3 78 174 79
3 180 169 81
3 169 180 41
3 54 72 71
3 58 66 65
3 57 68 58
3 58 65 59
3 71 70 56
3 53 73 72
3 69 57 56
3 69 68 57
3 58 67 66
3 58 68 67
3 56 70 69
3 174 43 180
3 4 159 189
3 155 165 156
3 162 167 163
3 159 4 160
3 160 167 161
3 3 167 160
3 179 186 189
3 156 165 179
3 179 157 156
3 154 153 165
3 161 167 162
3 157 179 158
3 183 187 188
3 184 125 124
3 126 125 184
3 127 184 188
3 131 130 165
3 122 175 123
3 132 131 151
3 128 188 182
3 123 175 124
3 154 165 155
3 82 169 175
3 131 165 152
3 134 133 150
3 131 152 151
3 133 132 151
3 153 152 165
3 149 134 150
3 135 149 148
3 135 134 149
3 135 148 136
3 150 133 151
3 137 136 147
3 142 140 139
3 143 139 138
3 137 145 138
3 138 145 144
3 145 137 146
3 143 142 139
3 138 144 143
3 168 34 33
3 189 5 4
3 146 137 147
3 136 148 147
3 140 142 141
3 167 1 0
3 175 169 171
3 85 84 176
3 85 176 185
3 176 83 175
3 88 87 177
3 85 185 86
3 89 88 177
3 185 121 120
3 175 122 176
3 97 106 98
3 98 105 99
3 100 99 105
3 97 96 106
3 108 95 94
3 107 96 95
3 101 100 104
3 98 106 105
3 104 100 105
3 109 94 93
3 107 106 96
3 110 93 92
3 185 176 121
3 117 116 178
3 119 118 177
3 177 117 178
3 113 178 114
3 178 115 114
3 177 178 89
3 178 113 90
3 92 91 111
3 101 103 102
3 101 104 103
3 95 108 107
3 91 112 111
3 110 92 111
3 108 94 109
3 93 110 109
3 113 112 91
3 91 90 113
3 185 120 119
3 164 163 167
3 181 39 183
3 34 168 170
3 166 186 168
3 184 124 175
3 40 181 169
3 49 172 50
3 74 172 75
3 174 46 45
3 77 76 173
3 174 44 43
3 174 78 77
3 82 175 83
3 184 175 171
3 176 84 83
3 122 121 176
3 87 86 185
3 117 177 118
3 116 115 178
3 89 178 90
3 182 165 130
3 186 6 5
3 180 80 79
3 42 180 43
3 183 39 38
3 171 169 181
3 170 179 182
3 165 182 179
3 37 36 183
3 187 36 35
3 183 184 171
3 127 126 184
3 119 177 185
3 185 177 87
3 179 170 186
3 186 170 168
3 183 36 187
3 170 182 188
3 183 188 184
3 188 187 170
3 179 189 158
3 5 189 186
