ply
format ascii 1.0
element vertex 191
property float x
property float y
property float z
property float u
property float v
element face 215
property list uchar int vertex_indices
end_header
183.1 23.8995 0 183.1 23.8995
178 41.7868 0 178 41.7868
178 53.8873 0 178 53.8873
182.163 72.1629 0 182.163 72.1629
186 90.5736 0 186 90.5736
179.23 107.77 0 179.23 107.77
163.624 118.376 0 163.624 118.376
144.711 121 0 144.711 121
125.953 124 0 125.953 124
116 138.733 0 116 138.733
114 157.904 0 114 157.904
111.239 176.761 0 111.239 176.761
105 194.177 0 105 194.177
97 210.863 0 97 210.863
85.0762 225.924 0 85.0762 225.924
71.3483 239.652 0 71.3483 239.652
58.3275 253.673 0 58.3275 253.673
45.5995 268.4 0 45.5995 268.4
34.2859 283.714 0 34.2859 283.714
25.8006 300.199 0 25.8006 300.199
21 318.211 0 21 318.211
23 336.554 0 23 336.554
31.877 352.877 0 31.877 352.877
43 354.073 0 43 354.073
38 336.973 0 38 336.973
37 317.387 0 37 317.387
42.2116 301.788 0 42.2116 301.788
56.5714 291 0 56.5714 291
71.7177 279.282 0 71.7177 279.282
85.4457 265.554 0 85.4457 265.554
97.4665 250.533 0 97.4665 250.533
109.073 235.927 0 109.073 235.927
120.387 220.613 0 120.387 220.613
134.991 209 0 134.991 209
148.186 219.186 0 148.186 219.186
152 237.606 0 152 237.606
153 257.192 0 153 257.192
151 276.364 0 151 276.364
148.621 295.379 0 148.621 295.379
144 313.464 0 144 313.464
135.186 329.814 0 135.186 329.814
123.165 344.835 0 123.165 344.835
111.559 359.441 0 111.559 359.441
102 375.482 0 102 375.482
91.7596 391.24 0 91.7596 391.24
82 407.198 0 82 407.198
71.2535 422.746 0 71.2535 422.746
61 438.499 0 61 438.499
52 454.772 0 52 454.772
46 472.286 0 46 472.286
46.3239 491.324 0 46.3239 491.324
56.9307 506.931 0 56.9307 506.931
66.1742 523 0 66.1742 523
76.3158 538.316 0 76.3158 538.316
84.8012 554.801 0 84.8012 554.801
93 571.405 0 93 571.405
98 589.334 0 98 589.334
101 608.092 0 101 608.092
99 627.264 0 99 627.264
88.914 643.086 0 88.914 643.086
78.7214 658.279 0 78.7214 658.279
68.8219 674.178 0 68.8219 674.178
79.835 679.165 0 79.835 679.165
94.1489 666.851 0 94.1489 666.851
108.048 654.952 0 108.048 654.952
123.512 644 0 123.512 644
136.969 631.031 0 136.969 631.031
137 611.872 0 137 611.872
132 593.943 0 132 593.943
126 576.429 0 126 576.429
120 558.914 0 120 558.914
116 540.57 0 116 540.57
114 521.399 0 114 521.399
110 517.884 0 110 517.884
105 499.955 0 105 499.955
102 481.197 0 102 481.197
111.76 465.24 0 111.76 465.24
124 450.31 0 124 450.31
137.974 439.026 0 137.974 439.026
151.409 424.591 0 151.409 424.591
164.429 410.571 0 164.429 410.571
177.157 395.843 0 177.157 395.843
193.057 385.943 0 193.057 385.943
211.3 386.3 0 211.3 386.3
226.906 396.906 0 226.906 396.906
240.927 409.927 0 240.927 409.927
251.534 425.534 0 251.534 425.534
261.433 441.433 0 261.433 441.433
271.333 457.333 0 271.333 457.333
282.233 472.233 0 282.233 472.233
293 487.773 0 293 487.773
294.211 505.789 0 294.211 505.789
286.554 521.446 0 286.554 521.446
281.604 539.396 0 281.604 539.396
279.932 557.932 0 279.932 557.932
271.997 572.003 0 271.997 572.003
264 588.691 0 264 588.691
255.026 604.974 0 255.026 604.974
249 622.478 0 249 622.478
252.873 640.873 0 252.873 640.873
264.894 655.894 0 264.894 655.894
277.622 670.622 0 277.622 670.622
290.643 684.643 0 290.643 684.643
297.993 672.993 0 297.993 672.993
291.63 655.63 0 291.63 655.63
286 637.962 0 286 637.962
286 618.791 0 286 618.791
290 600.448 0 290 600.448
298.875 584.125 0 298.875 584.125
308.068 567.932 0 308.068 567.932
317.967 552.033 0 317.967 552.033
326 535.361 0 326 535.361
336.352 519.648 0 336.352 519.648
344 502.817 0 344 502.817
344 484.474 0 344 484.474
339.386 466.386 0 339.386 466.386
332 449.446 0 332 449.446
325.244 432.244 0 325.244 432.244
317.467 415.467 0 317.467 415.467
308 399.388 0 308 399.388
299.79 382.79 0 299.79 382.79
290 366.844 0 290 366.844
279.99 350.99 0 279.99 350.99
271 334.715 0 271 334.715
262.313 318.313 0 262.313 318.313
261 298.857 0 261 298.857
260 279.273 0 260 279.273
259 259.686 0 259 259.686
257 240.514 0 257 240.514
260 221.758 0 260 221.758
267.243 204.757 0 267.243 204.757
282.435 207.435 0 282.435 207.435
294.456 222.456 0 294.456 222.456
305 237.502 0 305 237.502
316.962 251.962 0 316.962 251.962
329.275 266.275 0 329.275 266.275
341.881 279.881 0 341.881 279.881
355.902 292.902 0 355.902 292.902
362 310.376 0 362 310.376
356 327.891 0 356 327.891
352 346.234 0 352 346.234
366.92 352 0 366.92 352
380.257 338.743 0 380.257 338.743
390 322.779 0 390 322.779
390 304.436 0 390 304.436
381.238 289.238 0 381.238 289.238
369.631 274.631 0 369.631 274.631
358 259.449 0 358 259.449
346.004 245.004 0 346.004 245.004
333.69 230.69 0 333.69 230.69
321.083 217.083 0 321.083 217.083
311.184 201.184 0 311.184 201.184
306 183.331 0 306 183.331
301 165.403 0 301 165.403
297.335 148.335 0 297.335 148.335
287.143 133.143 0 287.143 133.143
271.759 122 0 271.759 122
254.244 116 0 254.244 116
237.973 107 0 237.973 107
228 92.8726 0 228 92.8726
229 74.1152 0 229 74.1152
229 54.9443 0 229 54.9443
226 36.187 0 226 36.187
216.94 19.9399 0 216.94 19.9399
197 12 0 197 12
102.531 530.417 0 102.531 530.417
203.032 47.837 0 203.032 47.837
279.275 180.923 0 279.275 180.923
199.715 218.122 0 199.715 218.122
195.032 316.871 0 195.032 316.871
164.383 357.609 0 164.383 357.609
74.7015 472.334 0 74.7015 472.334
89.5434 445.865 0 89.5434 445.865
114.105 415.87 0 114.105 415.87
137.346 385.676 0 137.346 385.676
208.728 117.061 0 208.728 117.061
229.007 346.454 0 229.007 346.454
272.105 400.146 0 272.105 400.146
291.813 433.55 0 291.813 433.55
312.1 468.202 0 312.1 468.202
318.556 495.104 0 318.556 495.104
250.801 154.614 0 250.801 154.614
229.462 226.492 0 229.462 226.492
169.028 178.547 0 169.028 178.547
186.696 135.539 0 186.696 135.539
202.716 358.627 0 202.716 358.627
262.153 373.339 0 262.153 373.339
143.595 151.302 0 143.595 151.302
183.195 245.832 0 183.195 245.832
179.487 289.583 0 179.487 289.583
223.4 290.96 0 223.4 290.96
3 29 15 30
3 28 17 16
3 29 16 15
3 28 16 29
3 15 14 30
3 32 13 12
3 31 30 14
3 32 31 13
3 31 14 13
3 12 11 33
3 25 20 19
3 21 24 22
3 20 25 21
3 54 165 71
3 19 18 26
3 27 26 18
3 26 25 19
3 25 24 21
3 18 17 27
3 17 28 27
3 23 22 24
3 8 7 187
3 8 187 9
3 187 6 184
3 2 166 3
3 166 1 0
3 160 4 3
3 35 188 36
3 0 164 166
3 184 5 175
3 33 32 12
3 10 9 187
3 40 170 41
3 187 11 10
3 34 168 188
3 34 188 35
3 37 189 38
3 39 169 170
3 36 188 189
3 34 183 168
3 174 81 80
3 5 4 175
3 48 171 49
3 171 51 50
3 171 50 49
3 47 46 172
3 47 172 171
3 52 74 165
3 51 74 52
3 172 45 173
3 54 53 165
3 61 60 62
3 63 62 60
3 69 56 55
3 63 59 64
3 64 59 58
3 59 63 60
3 55 54 70
3 44 173 45
3 77 76 172
3 172 75 171
3 165 74 73
3 43 42 174
3 51 171 74
3 174 79 173
3 172 173 77
3 78 173 79
3 81 174 170
3 170 174 41
3 72 71 165
3 58 65 64
3 54 71 70
3 55 70 69
3 57 67 58
3 73 72 165
3 67 57 68
3 57 56 68
3 66 65 58
3 67 66 58
3 56 69 68
3 173 43 174
3 4 159 175
3 52 165 53
3 162 166 163
3 160 159 4
3 166 160 3
3 1 166 2
3 159 158 175
3 155 181 156
3 154 181 155
3 182 181 130
3 181 157 156
3 190 127 126
3 190 125 124
3 190 182 127
3 190 124 176
3 131 130 167
3 123 122 186
3 132 131 151
3 129 128 182
3 126 125 190
3 153 167 154
3 189 39 38
3 131 167 152
3 151 150 132
3 131 152 151
3 132 150 133
3 153 152 167
3 149 134 133
3 135 134 148
3 148 134 149
3 135 148 147
3 149 133 150
3 137 136 146
3 141 140 139
3 135 147 136
3 137 145 138
3 181 168 183
3 138 145 144
3 138 143 142
3 143 138 144
3 138 142 139
3 166 161 160
3 145 137 146
3 147 146 136
3 141 139 142
3 154 167 181
3 185 176 83
3 186 84 176
3 119 177 120
3 84 83 176
3 88 87 178
3 178 86 177
3 89 88 178
3 177 186 121
3 122 121 186
3 97 106 98
3 98 106 99
3 100 99 105
3 106 97 107
3 94 93 110
3 107 96 95
3 101 100 104
3 99 106 105
3 104 100 105
3 95 94 108
3 96 107 97
3 92 110 93
3 118 178 119
3 117 116 179
3 178 177 119
3 178 117 179
3 180 114 113
3 114 180 115
3 179 116 115
3 112 180 113
3 92 91 111
3 101 103 102
3 101 104 103
3 95 108 107
3 180 111 91
3 111 110 92
3 94 109 108
3 94 110 109
3 112 111 180
3 90 180 91
3 121 120 177
3 162 161 166
3 164 163 166
3 34 33 183
3 129 182 130
3 176 124 123
3 170 82 81
3 39 170 40
3 185 169 176
3 47 171 48
3 75 74 171
3 172 46 45
3 172 76 75
3 173 44 43
3 77 173 78
3 174 42 41
3 174 80 79
3 181 158 157
3 183 184 181
3 185 83 82
3 190 176 169
3 86 85 177
3 85 84 186
3 178 87 86
3 117 178 118
3 90 89 179
3 178 179 89
3 90 179 180
3 180 179 115
3 130 181 167
3 158 181 175
3 127 182 128
3 182 168 181
3 183 33 11
3 184 6 5
3 181 184 175
3 187 184 183
3 82 170 185
3 169 185 170
3 186 177 85
3 123 186 176
3 11 187 183
3 6 187 7
3 182 188 168
3 169 39 189
3 36 189 37
3 182 190 188
3 169 189 190
3 190 189 188
