ply
format ascii 1.0
element vertex 131
property float x
property float y
property float z
property float u
property float v
element face 164
property list uchar int vertex_indices
end_header
495.799 169 0 495.799 169
483 166.302 0 483 166.302
472.18 166.18 0 472.18 166.18
459.452 168.548 0 459.452 168.548
447.017 166.017 0 447.017 166.017
440.582 164.582 0 440.582 164.582
431.854 171.854 0 431.854 171.854
420.005 168.995 0 420.005 168.995
416.551 175.551 0 416.551 175.551
411 176.738 0 411 176.738
405.215 181.215 0 405.215 181.215
392.517 185 0 392.517 185
384.312 186.312 0 384.312 186.312
378.99 192.01 0 378.99 192.01
376.839 196.839 0 376.839 196.839
376.898 203.898 0 376.898 203.898
370 209.103 0 370 209.103
365.371 212.371 0 365.371 212.371
363.814 219.186 0 363.814 219.186
355.449 225.449 0 355.449 225.449
350.651 234.651 0 350.651 234.651
335.062 232 0 335.062 232
306.305 229 0 306.305 229
277.973 228.973 0 277.973 228.973
249.204 228 0 249.204 228
219.619 227 0 219.619 227
192.103 229 0 192.103 229
163.83 233.17 0 163.83 233.17
138 241.926 0 138 241.926
115.872 254 0 115.872 254
95.0855 272 0 95.0855 272
76.0898 292.91 0 76.0898 292.91
57.1687 312 0 57.1687 312
46.0984 335.902 0 46.0984 335.902
34 352.524 0 34 352.524
27 372.92 0 27 372.92
20 377.779 0 20 377.779
17 400.637 0 17 400.637
11.6428 419.643 0 11.6428 419.643
13.5425 439.543 0 13.5425 439.543
24 441.96 0 24 441.96
33.9275 424.073 0 33.9275 424.073
38 409.17 0 38 409.17
44.7294 390 0 44.7294 390
46.5053 368.495 0 46.5053 368.495
52.1623 340.838 0 52.1623 340.838
71.6023 321 0 71.6023 321
92.8107 302.811 0 92.8107 302.811
91 331.075 0 91 331.075
93 360.247 0 93 360.247
91.0469 386.953 0 91.0469 386.953
85 413.62 0 85 413.62
90 441.549 0 90 441.549
92.0454 465.045 0 92.0454 465.045
105.751 486 0 105.751 486
112.984 469.984 0 112.984 469.984
107 442.463 0 107 442.463
111 425.881 0 111 425.881
115.159 454.159 0 115.159 454.159
122.937 474.937 0 122.937 474.937
138.285 467.285 0 138.285 467.285
130 440.716 0 130 440.716
127.736 412.264 0 127.736 412.264
147.414 393 0 147.414 393
165.556 371.444 0 165.556 371.444
179.699 347.301 0 179.699 347.301
206.477 354.477 0 206.477 354.477
235.018 358 0 235.018 358
264.189 360 0 264.189 360
292.946 357 0 292.946 357
322.531 356 0 322.531 356
351.497 354.497 0 351.497 354.497
359 381.389 0 359 381.389
368 406.246 0 368 406.246
372 433.76 0 372 433.76
375.099 460.901 0 375.099 460.901
382.386 486.386 0 382.386 486.386
398.645 500 0 398.645 500
418.699 487.301 0 418.699 487.301
403.745 463.745 0 403.745 463.745
400.795 435.795 0 400.795 435.795
401 406.54 0 401 406.54
398 377.783 0 398 377.783
398 348.611 0 398 348.611
413.417 325.583 0 413.417 325.583
426.145 300.855 0 426.145 300.855
433.215 273.785 0 433.215 273.785
442.407 247.593 0 442.407 247.593
457.256 224.256 0 457.256 224.256
470.277 248.277 0 470.277 248.277
485.418 271.418 0 485.418 271.418
511.864 270 0 511.864 270
522 247.107 0 522 247.107
518 219.592 0 518 219.592
515 190.836 0 515 190.836
511 160 0 511 160
387.114 198.522 0 387.114 198.522
416.036 186.72 0 416.036 186.72
372.522 217.589 0 372.522 217.589
441.686 174.78 0 441.686 174.78
42.765 346.189 0 42.765 346.189
58.1626 327.274 0 58.1626 327.274
424.671 175.641 0 424.671 175.641
31.1428 386.362 0 31.1428 386.362
371.21 234.976 0 371.21 234.976
433.618 183.908 0 433.618 183.908
21.5155 428.883 0 21.5155 428.883
477.359 186.854 0 477.359 186.854
54.4058 355.704 0 54.4058 355.704
403.018 197.037 0 403.018 197.037
389.511 215.474 0 389.511 215.474
454.87 194.562 0 454.87 194.562
337.806 263.023 0 337.806 263.023
429.338 213.513 0 429.338 213.513
360.591 256.245 0 360.591 256.245
149.938 290.119 0 149.938 290.119
120.762 375.702 0 120.762 375.702
405.478 248.796 0 405.478 248.796
362.113 303.042 0 362.113 303.042
261.735 283.294 0 261.735 283.294
487.732 223.276 0 487.732 223.276
159.282 262.229 0 159.282 262.229
126.415 319.154 0 126.415 319.154
402.332 280.177 0 402.332 280.177
335.412 324.356 0 335.412 324.356
292.107 262.785 0 292.107 262.785
274.684 321.272 0 274.684 321.272
226.123 312.689 0 226.123 312.689
233.29 260.673 0 233.29 260.673
147.134 344.439 0 147.134 344.439
191.812 288.638 0 191.812 288.638
3 32 31 46
3 46 31 47
3 30 29 115
3 30 47 31
3 100 45 108
3 115 122 47
3 34 33 100
3 100 108 34
3 45 100 33
3 34 44 35
3 33 101 45
3 47 122 48
3 44 34 108
3 30 115 47
3 33 32 101
3 128 25 24
3 128 130 26
3 125 23 22
3 128 24 119
3 125 119 23
3 121 115 29
3 121 130 115
3 116 49 129
3 121 29 28
3 127 119 126
3 127 67 66
3 69 68 126
3 125 124 126
3 103 36 35
3 35 44 103
3 42 37 103
3 103 44 43
3 37 42 38
3 106 40 39
3 40 106 41
3 10 97 109
3 41 38 42
3 57 52 51
3 51 50 57
3 61 56 57
3 56 53 52
3 57 50 62
3 61 57 62
3 50 116 62
3 116 50 49
3 56 61 58
3 53 55 54
3 55 53 58
3 58 60 59
3 60 58 61
3 53 56 58
3 56 52 57
3 62 116 63
3 110 98 15
3 32 46 101
3 12 11 96
3 12 96 13
3 9 8 97
3 96 15 14
3 10 109 11
3 17 16 98
3 18 98 104
3 14 13 96
3 15 98 16
3 18 17 98
3 10 9 97
3 3 99 4
3 4 99 5
3 2 107 3
3 110 117 104
3 2 1 107
3 105 102 6
3 99 6 5
3 102 7 6
3 107 94 120
3 94 0 95
3 99 111 105
3 107 0 94
3 88 120 89
3 110 15 96
3 111 3 107
3 11 109 96
3 104 114 20
3 112 22 21
3 71 124 118
3 72 71 83
3 83 71 118
3 73 82 81
3 20 114 112
3 82 72 83
3 73 72 82
3 74 73 81
3 76 79 77
3 80 75 74
3 75 79 76
3 71 70 124
3 20 19 104
3 90 92 91
3 92 90 89
3 81 80 74
3 80 79 75
3 112 114 118
3 79 78 77
3 102 8 7
3 19 18 104
3 89 120 92
3 113 109 97
3 102 105 97
3 105 6 99
3 97 8 102
3 42 103 43
3 37 36 103
3 96 109 110
3 123 117 86
3 99 3 111
3 105 111 113
3 39 38 106
3 38 41 106
3 0 107 1
3 120 94 93
3 97 105 113
3 98 110 104
3 113 110 109
3 110 113 117
3 120 111 107
3 113 111 88
3 126 124 69
3 21 20 112
3 113 87 117
3 88 87 113
3 114 104 117
3 123 84 118
3 121 28 27
3 129 65 64
3 122 49 48
3 64 63 116
3 87 86 117
3 86 85 123
3 114 117 123
3 83 118 84
3 24 23 119
3 126 67 127
3 120 88 111
3 92 120 93
3 27 26 121
3 25 128 26
3 129 115 65
3 122 129 49
3 84 123 85
3 114 123 118
3 124 70 69
3 112 118 124
3 22 112 125
3 124 125 112
3 67 126 68
3 126 119 125
3 66 65 127
3 130 65 115
3 119 127 128
3 127 130 128
3 116 129 64
3 115 129 122
3 130 121 26
3 65 130 127
