ply
format ascii 1.0
element vertex 221
property float x
property float y
property float z
property float u
property float v
element face 276
property list uchar int vertex_indices
end_header
118.515 12.4853 0 118.515 12.4853
118 31.4436 0 118 31.4436
130.373 42 0 130.373 42
137.716 27 0 137.716 27
146.577 42.5772 0 146.577 42.5772
157.77 49.2305 0 157.77 49.2305
167.133 59.1335 0 167.133 59.1335
165.26 73.7401 0 165.26 73.7401
151.36 85.6396 0 151.36 85.6396
140 99.1765 0 140 99.1765
144 114.105 0 144 114.105
152.56 130.56 0 152.56 130.56
165.045 143.045 0 165.045 143.045
172.078 158 0 172.078 158
154.149 153 0 154.149 153
136.22 148 0 136.22 148
118.706 144 0 118.706 144
110 129.191 0 110 129.191
104 111.676 0 104 111.676
97.4072 94.4072 0 97.4072 94.4072
90 77.4754 0 90 77.4754
79.7296 61.7296 0 79.7296 61.7296
73.0727 46.9273 0 73.0727 46.9273
66.2913 53.2913 0 66.2913 53.2913
68.3448 63.6552 0 68.3448 63.6552
53 61.387 0 53 61.387
39.1148 54 0 39.1148 54
45.5757 70.5757 0 45.5757 70.5757
57.7682 83.7682 0 57.7682 83.7682
72 91.187 0 72 91.187
75 109.945 0 75 109.945
77 129.116 0 77 129.116
81 147.459 0 81 147.459
86 165.388 0 86 165.388
94.76 181.76 0 94.76 181.76
107.831 182.831 0 107.831 182.831
121 191.862 0 121 191.862
134 196.377 0 134 196.377
144 209.306 0 144 209.306
144.216 229.216 0 144.216 229.216
144 246.821 0 144 246.821
137.056 263.944 0 137.056 263.944
123 274.022 0 123 274.022
114.206 289.794 0 114.206 289.794
103.6 305.4 0 103.6 305.4
93.7 321.3 0 93.7 321.3
82 336.454 0 82 336.454
78.3116 348 0 78.3116 348
95.8773 353.877 0 95.8773 353.877
91.88 372.12 0 91.88 372.12
89 390.927 0 89 390.927
76.4446 404.555 0 76.4446 404.555
61.424 416.576 0 61.424 416.576
47.8174 429.183 0 47.8174 429.183
36 444.288 0 36 444.288
27 460.56 0 27 460.56
16.4114 475.589 0 16.4114 475.589
6.51208 491.488 0 6.51208 491.488
1 509.205 0 1 509.205
13.72 508 0 13.72 508
29.4087 518.409 0 29.4087 518.409
44.4296 530.43 0 44.4296 530.43
61.7083 537 0 61.7083 537
53.0139 525.014 0 53.0139 525.014
45.9427 507.943 0 45.9427 507.943
38.4211 492.579 0 38.4211 492.579
53.1491 479.851 0 53.1491 479.851
67.877 467.123 0 67.877 467.123
82.6049 454.395 0 82.6049 454.395
97.0399 440.96 0 97.0399 440.96
113.232 431.768 0 113.232 431.768
129.718 423.282 0 129.718 423.282
139.617 407.383 0 139.617 407.383
151.638 392.362 0 151.638 392.362
161.538 376.462 0 161.538 376.462
175.145 366.145 0 175.145 366.145
189.58 379.58 0 189.58 379.58
204.6 391.6 0 204.6 391.6
220.207 402.207 0 220.207 402.207
233.4 414.4 0 233.4 414.4
239.057 432.057 0 239.057 432.057
245 449.595 0 245 449.595
253.906 465.906 0 253.906 465.906
263.806 481.806 0 263.806 481.806
276.534 496.534 0 276.534 496.534
287.847 511.847 0 287.847 511.847
300.747 524.747 0 300.747 524.747
305.182 519.182 0 305.182 519.182
319.258 510 0 319.258 510
336.772 504 0 336.772 504
339.383 493.383 0 339.383 493.383
320.37 493 0 320.37 493
302.604 489.604 0 302.604 489.604
296.24 472.24 0 296.24 472.24
291.998 453.998 0 291.998 453.998
285 436.896 0 285 436.896
279.269 419.269 0 279.269 419.269
277 400.209 0 277 400.209
283 383.866 0 283 383.866
272.541 370.541 0 272.541 370.541
259.228 357.228 0 259.228 357.228
257.035 346.035 0 257.035 346.035
246.135 331.135 0 246.135 331.135
236.236 315.236 0 236.236 315.236
224.215 300.215 0 224.215 300.215
216.437 283.437 0 216.437 283.437
219 268.518 0 219 268.518
224 250.59 0 224 250.59
228 232.247 0 228 232.247
241.611 220 0 241.611 220
260.846 219.846 0 260.846 219.846
274.088 210.912 0 274.088 210.912
292.054 212 0 292.054 212
311.225 210 0 311.225 210
329 209.982 0 329 209.982
328 229.566 0 328 229.566
328 249.566 0 328 249.566
327 269.153 0 327 269.153
326 288.739 0 326 288.739
330 299.746 0 330 299.746
336 282.232 0 336 282.232
349.857 269.143 0 349.857 269.143
366.07 260 0 366.07 260
381.656 249.344 0 381.656 249.344
392.848 235.152 0 392.848 235.152
396 216.458 0 396 216.458
396.91 196.91 0 396.91 196.91
398 178.943 0 398 178.943
396.132 161.132 0 396.132 161.132
396 142.015 0 396 142.015
388.94 124.94 0 388.94 124.94
373.333 114.333 0 373.333 114.333
357.141 105.141 0 357.141 105.141
344 92.342 0 344 92.342
338 74.8278 0 338 74.8278
340 57.8994 0 340 57.8994
334 56.2008 0 334 56.2008
333 75.786 0 333 75.786
332 95.3706 0 332 95.3706
332 115.374 0 332 115.374
331 134.957 0 331 134.957
330 154.543 0 330 154.543
330 174.545 0 330 174.545
316.286 180 0 316.286 180
296.699 179 0 296.699 179
283 174.356 0 283 174.356
264.185 172 0 264.185 172
253 158.499 0 253 158.499
251.254 144.746 0 251.254 144.746
241.382 140.382 0 241.382 140.382
235 123.026 0 235 123.026
227 107.169 0 227 107.169
218.755 91.7554 0 218.755 91.7554
208.27 77.27 0 208.27 77.27
195.353 63 0 195.353 63
177.886 60.8857 0 177.886 60.8857
167 46.5664 0 167 46.5664
175.33 34.3297 0 175.33 34.3297
171.087 24.0874 0 171.087 24.0874
165.895 11.8953 0 165.895 11.8953
150.509 5 0 150.509 5
132 1 0 132 1
333.717 66.0045 0 333.717 66.0045
337.326 84.8325 0 337.326 84.8325
296.1 516.494 0 296.1 516.494
298.369 502.811 0 298.369 502.811
158.66 34.9921 0 158.66 34.9921
43.2549 519.056 0 43.2549 519.056
241.73 152.943 0 241.73 152.943
76.1657 75.2766 0 76.1657 75.2766
102.544 167.066 0 102.544 167.066
340.906 105.372 0 340.906 105.372
236.809 355.808 0 236.809 355.808
236.78 177.191 0 236.78 177.191
217.627 147.325 0 217.627 147.325
349.259 121.776 0 349.259 121.776
157.645 102.449 0 157.645 102.449
126.792 169.3 0 126.792 169.3
283.991 193.962 0 283.991 193.962
329.102 192.252 0 329.102 192.252
189.296 271.095 0 189.296 271.095
254.085 195.544 0 254.085 195.544
99.7998 145.151 0 99.7998 145.151
156.193 180.318 0 156.193 180.318
46.9062 460.945 0 46.9062 460.945
68.2525 437.592 0 68.2525 437.592
149.227 295.761 0 149.227 295.761
128.94 332.21 0 128.94 332.21
94.8183 418.189 0 94.8183 418.189
118.637 385.841 0 118.637 385.841
361.333 221.808 0 361.333 221.808
364.211 173.484 0 364.211 173.484
261.849 434.109 0 261.849 434.109
246.65 386.829 0 246.65 386.829
274.294 464.244 0 274.294 464.244
348.804 248.329 0 348.804 248.329
184.44 79.9509 0 184.44 79.9509
221.021 335.741 0 221.021 335.741
212.723 201.583 0 212.723 201.583
191.791 139.598 0 191.791 139.598
211.787 124.79 0 211.787 124.79
367.836 139.207 0 367.836 139.207
175.424 120.181 0 175.424 120.181
177.647 238.431 0 177.647 238.431
202.806 254.341 0 202.806 254.341
189.814 305.971 0 189.814 305.971
163.559 264.723 0 163.559 264.723
126.241 309.38 0 126.241 309.38
151.808 349.497 0 151.808 349.497
119.563 405.928 0 119.563 405.928
111.477 366.855 0 111.477 366.855
138.312 373.033 0 138.312 373.033
350.526 201.24 0 350.526 201.24
379.39 186.83 0 379.39 186.83
224.481 379.133 0 224.481 379.133
198.261 95.553 0 198.261 95.553
258.147 412.119 0 258.147 412.119
200.03 353.88 0 200.03 353.88
165.008 219.034 0 165.008 219.034
190.932 215.958 0 190.932 215.958
186.497 185.531 0 186.497 185.531
3 28 27 25
3 25 27 26
3 24 28 25
3 23 21 24
3 1 0 3
3 20 169 21
3 22 21 23
3 24 21 169
3 24 169 28
3 17 182 31
3 30 18 31
3 30 29 19
3 17 31 18
3 34 33 170
3 182 170 33
3 17 16 182
3 18 30 19
3 20 19 29
3 161 160 3
3 2 1 3
3 160 166 3
3 160 159 166
3 5 166 156
3 5 4 166
3 166 157 156
3 6 156 155
3 5 156 6
3 166 159 158
3 8 176 9
3 177 170 16
3 176 10 9
3 176 11 10
3 7 6 155
3 176 202 11
3 174 220 199
3 183 177 14
3 215 151 200
3 35 34 170
3 218 183 220
3 0 161 3
3 147 146 173
3 14 13 183
3 184 53 185
3 184 55 54
3 55 65 56
3 52 185 53
3 67 184 185
3 185 69 68
3 52 188 185
3 48 47 46
3 66 55 184
3 57 65 59
3 57 56 65
3 59 58 57
3 60 59 65
3 65 64 60
3 61 63 62
3 61 167 63
3 63 167 64
3 55 66 65
3 134 137 162
3 35 177 36
3 42 41 186
3 187 45 207
3 177 183 37
3 203 180 206
3 43 42 186
3 218 203 39
3 37 36 177
3 206 186 41
3 207 45 44
3 188 69 185
3 189 50 49
3 50 189 209
3 189 49 210
3 46 45 48
3 72 71 209
3 44 43 207
3 70 188 209
3 209 189 72
3 210 187 211
3 45 187 48
3 39 203 40
3 174 168 173
3 153 196 154
3 215 196 153
3 200 202 215
3 174 200 150
3 149 174 150
3 178 181 146
3 147 168 148
3 168 149 148
3 147 173 168
3 178 111 181
3 181 111 110
3 173 181 198
3 109 198 181
3 145 178 146
3 144 143 113
3 112 178 113
3 143 179 113
3 112 111 178
3 204 107 106
3 135 162 136
3 162 135 134
3 137 134 163
3 138 133 171
3 163 134 133
3 139 175 140
3 139 171 175
3 60 64 167
3 171 139 138
3 61 60 167
3 130 129 201
3 201 141 140
3 122 195 123
3 113 179 114
3 212 190 114
3 115 114 190
3 175 201 140
3 3 166 4
3 190 212 213
3 141 191 142
3 124 123 190
3 125 190 213
3 84 165 85
3 92 91 165
3 175 131 201
3 201 128 191
3 157 166 158
3 122 121 195
3 204 106 180
3 103 197 104
3 180 205 186
3 172 197 102
3 106 105 180
3 76 75 217
3 102 101 172
3 100 172 101
3 102 197 103
3 193 172 100
3 78 214 193
3 80 192 81
3 97 96 216
3 97 193 99
3 192 82 81
3 82 194 83
3 83 194 84
3 95 94 194
3 216 96 192
3 193 97 216
3 99 98 97
3 120 118 117
3 117 116 121
3 121 116 195
3 120 119 118
3 121 120 117
3 190 195 115
3 194 93 84
3 86 164 87
3 84 93 92
3 84 92 165
3 95 194 192
3 91 90 89
3 91 88 165
3 87 165 88
3 89 88 91
3 86 85 164
3 164 165 87
3 165 164 85
3 155 154 196
3 133 138 163
3 28 169 29
3 20 29 169
3 182 33 32
3 177 16 15
3 133 132 171
3 175 171 132
3 100 99 193
3 76 217 214
3 198 109 108
3 198 220 173
3 13 12 199
3 149 168 174
3 131 130 201
3 132 131 175
3 8 7 176
3 155 196 7
3 170 177 35
3 177 15 14
3 145 144 178
3 178 144 113
3 143 142 179
3 191 212 142
3 105 104 205
3 41 40 206
3 109 181 110
3 146 181 173
3 170 182 16
3 31 182 32
3 220 174 173
3 38 37 183
3 53 184 54
3 67 66 184
3 52 51 188
3 185 68 67
3 180 105 205
3 75 74 208
3 186 205 208
3 211 73 189
3 50 188 51
3 70 69 188
3 210 49 48
3 73 72 189
3 114 179 212
3 125 124 190
3 127 213 128
3 127 126 213
3 216 80 79
3 95 192 96
3 79 78 193
3 78 77 214
3 93 194 94
3 192 194 82
3 115 195 116
3 123 195 190
3 215 153 152
3 176 7 196
3 172 214 217
3 217 208 205
3 108 107 204
3 198 219 220
3 12 11 202
3 150 200 151
3 174 199 200
3 12 202 199
3 128 201 129
3 141 201 191
3 215 176 196
3 200 199 202
3 218 39 38
3 219 108 204
3 180 203 204
3 204 203 219
3 104 197 205
3 205 197 217
3 203 206 40
3 186 206 180
3 186 187 207
3 43 186 207
3 211 74 73
3 208 187 186
3 70 209 71
3 50 209 188
3 48 187 210
3 211 187 208
3 210 211 189
3 208 74 211
3 142 212 179
3 191 128 213
3 213 126 125
3 212 191 213
3 76 214 77
3 172 193 214
3 215 152 151
3 176 215 202
3 80 216 192
3 193 216 79
3 217 75 208
3 217 197 172
3 38 183 218
3 220 219 218
3 108 219 198
3 203 218 219
3 183 13 220
3 220 13 199
