ply
format ascii 1.0
element vertex 336
property float x
property float y
property float z
property float u
property float v
element face 450
property list uchar int vertex_indices
end_header
185.929 20.0711 0 185.929 20.0711
180 32.6152 0 180 32.6152
179.787 45 0 179.787 45
178 53.8873 0 178 53.8873
181 67.6447 0 181 67.6447
185 80.9878 0 185 80.9878
185 95.1593 0 185 95.1593
179.23 107.77 0 179.23 107.77
168.038 116.962 0 168.038 116.962
154.297 120 0 154.297 120
139.711 121 0 139.711 121
125.953 124 0 125.953 124
116.189 133.811 0 116.189 133.811
115 148.319 0 115 148.319
113 162.49 0 113 162.49
111.239 176.761 0 111.239 176.761
106.996 190.004 0 106.996 190.004
101.34 202.66 0 101.34 202.66
94.2686 214.731 0 94.2686 214.731
85.0762 225.924 0 85.0762 225.924
74.8838 236.116 0 74.8838 236.116
64.6914 246.309 0 64.6914 246.309
54.7919 257.208 0 54.7919 257.208
45.5995 268.4 0 45.5995 268.4
37 279.838 0 37 279.838
30 291.939 0 30 291.939
24 304.454 0 24 304.454
21 318.211 0 21 318.211
22 331.968 0 22 331.968
26.2202 345.22 0 26.2202 345.22
34.7055 356.705 0 34.7055 356.705
43 354.073 0 43 354.073
40 341.144 0 40 341.144
37 327.387 0 37 327.387
35.1524 313.152 0 35.1524 313.152
42.2116 301.788 0 42.2116 301.788
52.5756 293.424 0 52.5756 293.424
64.0861 285 0 64.0861 285
75.2533 275.747 0 75.2533 275.747
85.4457 265.554 0 85.4457 265.554
94.6381 254.362 0 94.6381 254.362
103.831 243.169 0 103.831 243.169
111.902 232.098 0 111.902 232.098
120.387 220.613 0 120.387 220.613
130.579 210.421 0 130.579 210.421
143.236 211.236 0 143.236 211.236
149.6 223.6 0 149.6 223.6
152 237.606 0 152 237.606
153 252.192 0 153 252.192
152 266.778 0 152 266.778
150 280.949 0 150 280.949
148.621 295.379 0 148.621 295.379
145.793 309.207 0 145.793 309.207
139 321.393 0 139 321.393
132.358 333.642 0 132.358 333.642
123.165 344.835 0 123.165 344.835
114 355.452 0 114 355.452
107.316 367.684 0 107.316 367.684
99.5379 379.462 0 99.5379 379.462
91.7596 391.24 0 91.7596 391.24
84 403.026 0 84 403.026
76.2032 414.797 0 76.2032 414.797
68.425 426.575 0 68.425 426.575
61 438.499 0 61 438.499
54 450.6 0 54 450.6
48 463.115 0 48 463.115
46 477.287 0 46 477.287
46.3239 491.324 0 46.3239 491.324
54.1022 503.102 0 54.1022 503.102
61.8804 514.88 0 61.8804 514.88
69.2446 526.245 0 69.2446 526.245
76.3158 538.316 0 76.3158 538.316
83 550.547 0 83 550.547
88.3368 563.337 0 88.3368 563.337
94.7009 575.701 0 94.7009 575.701
98 589.334 0 98 589.334
100 603.506 0 100 603.506
101 618.092 0 101 618.092
97 631.435 0 97 631.435
88.914 643.086 0 88.914 643.086
81 654.222 0 81 654.222
73.0646 665.935 0 73.0646 665.935
68 678.838 0 68 678.838
79.835 679.165 0 79.835 679.165
90.6132 670.387 0 90.6132 670.387
101.099 660.901 0 101.099 660.901
111.826 652 0 111.826 652
123.512 644 0 123.512 644
134.784 635 0 134.784 635
138 621.458 0 138 621.458
136 607.287 0 136 607.287
132 593.943 0 132 593.943
128 580.6 0 128 580.6
124 567.257 0 124 567.257
119 554.328 0 119 554.328
116 540.57 0 116 540.57
115 525.985 0 115 525.985
112 515.773 0 112 515.773
108.504 513.504 0 108.504 513.504
105 499.955 0 105 499.955
102 486.197 0 102 486.197
106.103 472.897 0 106.103 472.897
114.589 461.411 0 114.589 461.411
124 450.31 0 124 450.31
134.438 442.562 0 134.438 442.562
144.338 431.662 0 144.338 431.662
154.944 421.056 0 154.944 421.056
164.429 410.571 0 164.429 410.571
173.622 399.378 0 173.622 399.378
184.323 389 0 184.323 389
197.666 385 0 197.666 385
211.3 386.3 0 211.3 386.3
223.11 394 0 223.11 394
233.856 402.856 0 233.856 402.856
244 413.654 0 244 413.654
251.534 425.534 0 251.534 425.534
258.605 437.605 0 258.605 437.605
266.383 449.383 0 266.383 449.383
274.162 461.162 0 274.162 461.162
282.233 472.233 0 282.233 472.233
290.011 484.011 0 290.011 484.011
295 496.944 0 295 496.944
292.797 510.203 0 292.797 510.203
286.554 521.446 0 286.554 521.446
283 534.974 0 283 534.974
280 548.732 0 280 548.732
277.654 560.654 0 277.654 560.654
271.997 572.003 0 271.997 572.003
266 584.519 0 266 584.519
259.269 596.731 0 259.269 596.731
253 609.135 0 253 609.135
249 622.478 0 249 622.478
251 636.649 0 251 636.649
259.237 648.237 0 259.237 648.237
268.43 659.43 0 268.43 659.43
277.622 670.622 0 277.622 670.622
287.108 681.108 0 287.108 681.108
298.593 682.407 0 298.593 682.407
296 668.819 0 296 668.819
291.63 655.63 0 291.63 655.63
287 642.548 0 287 642.548
285 628.377 0 285 628.377
287 614.205 0 287 614.205
290 600.448 0 290 600.448
296.754 588.246 0 296.754 588.246
303.825 576.175 0 303.825 576.175
310.189 563.811 0 310.189 563.811
317.967 552.033 0 317.967 552.033
324 539.532 0 324 539.532
331 527.432 0 331 527.432
339 515.745 0 339 515.745
344 502.817 0 344 502.817
344.456 488.456 0 344.456 488.456
342.921 474.921 0 342.921 474.921
338 461.96 0 338 461.96
332 449.446 0 332 449.446
327 436.517 0 327 436.517
322 423.589 0 322 423.589
315 411.488 0 315 411.488
308 399.388 0 308 399.388
302 386.874 0 302 386.874
294.84 374.84 0 294.84 374.84
287.769 362.769 0 287.769 362.769
279.99 350.99 0 279.99 350.99
273 338.886 0 273 338.886
266.556 326.556 0 266.556 326.556
262 313.444 0 262 313.444
261 298.857 0 261 298.857
260 284.273 0 260 284.273
260 269.273 0 260 269.273
258.071 255.071 0 258.071 255.071
257 240.514 0 257 240.514
259 226.343 0 259 226.343
263.707 213.293 0 263.707 213.293
270.778 201.222 0 270.778 201.222
282.435 207.435 0 282.435 207.435
290.92 218.92 0 290.92 218.92
299.698 229.698 0 299.698 229.698
307.769 240.769 0 307.769 240.769
316.962 251.962 0 316.962 251.962
326.447 262.447 0 326.447 262.447
335.639 273.639 0 335.639 273.639
345.71 282.71 0 345.71 282.71
355.902 292.902 0 355.902 292.902
361 305.791 0 361 305.791
359.613 319.387 0 359.613 319.387
355 332.477 0 355 332.477
352 346.234 0 352 346.234
362.748 354 0 362.748 354
374 346.151 0 374 346.151
383.085 334.915 0 383.085 334.915
390 322.779 0 390 322.779
391 309.022 0 391 309.022
387 295.679 0 387 295.679
378.409 285.409 0 378.409 285.409
369.631 274.631 0 369.631 274.631
361 263.206 0 361 263.206
351.953 251.953 0 351.953 251.953
343.175 241.175 0 343.175 241.175
333.69 230.69 0 333.69 230.69
324 220.875 0 324 220.875
316 209.189 0 316 209.189
311 196.26 0 311 196.26
306 183.331 0 306 183.331
302 169.989 0 302 169.989
299 156.231 0 299 156.231
296 143.889 0 296 143.889
287.143 133.143 0 287.143 133.143
275.658 124.658 0 275.658 124.658
263.002 119 0 263.002 119
250.073 114 0 250.073 114
237.973 107 0 237.973 107
229 97.4583 0 229 97.4583
228 83.7012 0 228 83.7012
229 69.1157 0 229 69.1157
229 54.9443 0 229 54.9443
227 40.7727 0 227 40.7727
222 27.844 0 222 27.844
213.744 17 0 213.744 17
197 12 0 197 12
105.928 521.299 0 105.928 521.299
195.825 52.8477 0 195.825 52.8477
92.3642 512.495 0 92.3642 512.495
105.12 533.989 0 105.12 533.989
138.461 186.715 0 138.461 186.715
114.459 426.55 0 114.459 426.55
215.308 119.324 0 215.308 119.324
285.774 187.128 0 285.774 187.128
273.986 155.775 0 273.986 155.775
288.063 572.927 0 288.063 572.927
307.562 525.757 0 307.562 525.757
192.648 39.0272 0 192.648 39.0272
102.42 550.737 0 102.42 550.737
92.7012 526.827 0 92.7012 526.827
293.677 557.615 0 293.677 557.615
312.158 506.608 0 312.158 506.608
79.4225 251.236 0 79.4225 251.236
117.131 202.126 0 117.131 202.126
134.876 142.645 0 134.876 142.645
206.138 88.0736 0 206.138 88.0736
159.014 340.172 0 159.014 340.172
177.483 226.031 0 177.483 226.031
176.8 290.79 0 176.8 290.79
73.9988 474.011 0 73.9988 474.011
87.4301 446.683 0 87.4301 446.683
111.238 578.915 0 111.238 578.915
133.961 374.302 0 133.961 374.302
114.231 629.329 0 114.231 629.329
117.998 605.412 0 117.998 605.412
297.905 204.882 0 297.905 204.882
246.287 344.998 0 246.287 344.998
375.277 314.117 0 375.277 314.117
259.5 388.93 0 259.5 388.93
284.933 428.676 0 284.933 428.676
267.754 620.828 0 267.754 620.828
273.961 604.156 0 273.961 604.156
271.503 637.508 0 271.503 637.508
308.318 463.464 0 308.318 463.464
281.227 587.622 0 281.227 587.622
212.657 50.0238 0 212.657 50.0238
197.975 69.827 0 197.975 69.827
77.0764 513.101 0 77.0764 513.101
88.8111 496.279 0 88.8111 496.279
128.539 171.652 0 128.539 171.652
95.7583 419.282 0 95.7583 419.282
117.394 399.712 0 117.394 399.712
190.911 133.401 0 190.911 133.401
198.708 109.056 0 198.708 109.056
234.316 127.279 0 234.316 127.279
261.431 139.497 0 261.431 139.497
286.307 166.205 0 286.307 166.205
206.443 31.1234 0 206.443 31.1234
320.858 484.278 0 320.858 484.278
328.001 504.061 0 328.001 504.061
122.215 187.578 0 122.215 187.578
183.374 361.579 0 183.374 361.579
142.209 351.104 0 142.209 351.104
156.275 323.036 0 156.275 323.036
231.002 229.619 0 231.002 229.619
170.134 243.69 0 170.134 243.69
165.022 207.843 0 165.022 207.843
166.98 276.119 0 166.98 276.119
231.423 276.773 0 231.423 276.773
63.6923 488.312 0 63.6923 488.312
63.4114 462.808 0 63.4114 462.808
90.1133 475.247 0 90.1133 475.247
106.094 444.67 0 106.094 444.67
151.451 390.541 0 151.451 390.541
262.216 353.185 0 262.216 353.185
231.619 368.042 0 231.619 368.042
247.402 325.864 0 247.402 325.864
280.913 391.273 0 280.913 391.273
264.259 409.135 0 264.259 409.135
296.542 414.091 0 296.542 414.091
305.038 437.58 0 305.038 437.58
283.81 446.332 0 283.81 446.332
323.093 461.411 0 323.093 461.411
99.0741 404.503 0 99.0741 404.503
83.4565 428.044 0 83.4565 428.044
116.692 382.333 0 116.692 382.333
135.262 411.98 0 135.262 411.98
166.607 143.085 0 166.607 143.085
305.423 485.495 0 305.423 485.495
206.596 363.479 0 206.596 363.479
129.008 359.143 0 129.008 359.143
164.589 305.848 0 164.589 305.848
238.067 249.225 0 238.067 249.225
244.245 193.786 0 244.245 193.786
166.358 260.435 0 166.358 260.435
242.49 292.8 0 242.49 292.8
99.0191 458.786 0 99.0191 458.786
167.542 382.403 0 167.542 382.403
272.613 364.32 0 272.613 364.32
239.54 385.012 0 239.54 385.012
267.134 424.502 0 267.134 424.502
317.21 447.734 0 317.21 447.734
149.625 406.711 0 149.625 406.711
244.565 264.138 0 244.565 264.138
243.951 213.541 0 243.951 213.541
196.327 267.099 0 196.327 267.099
254.735 370.592 0 254.735 370.592
267.281 176.189 0 267.281 176.189
153.873 165.764 0 153.873 165.764
186.408 327.006 0 186.408 327.006
214.946 146.876 0 214.946 146.876
203.566 194.798 0 203.566 194.798
161.08 361.731 0 161.08 361.731
194.052 243.286 0 194.052 243.286
251.899 159.829 0 251.899 159.829
210.339 303.165 0 210.339 303.165
224.132 203.366 0 224.132 203.366
216.085 246.07 0 216.085 246.07
217.121 333.699 0 217.121 333.699
205.025 220.262 0 205.025 220.262
223.452 176.033 0 223.452 176.033
189.242 164.552 0 189.242 164.552
3 40 39 236
3 20 19 236
3 37 23 22
3 236 22 21
3 22 236 38
3 19 41 236
3 43 237 44
3 43 18 17
3 19 18 42
3 41 40 236
3 41 19 42
3 42 18 43
3 237 16 274
3 35 34 26
3 25 35 26
3 33 28 27
3 34 33 27
3 28 32 29
3 27 26 34
3 25 24 35
3 23 36 24
3 23 37 36
3 33 32 28
3 29 32 30
3 36 35 24
3 22 38 37
3 30 32 31
3 12 238 13
3 12 11 238
3 10 238 11
3 301 8 266
3 8 7 266
3 0 231 1
3 1 231 2
3 4 260 5
3 221 260 4
3 267 7 6
3 212 267 239
3 4 3 221
3 95 94 232
3 280 241 46
3 44 237 274
3 224 45 44
3 43 17 237
3 54 53 240
3 240 276 54
3 15 14 263
3 171 278 172
3 47 241 279
3 287 311 108
3 53 277 240
3 50 281 51
3 308 281 49
3 280 45 224
3 108 311 109
3 48 47 279
3 233 72 71
3 284 66 65
3 66 284 283
3 67 283 68
3 99 262 100
3 62 61 298
3 61 60 264
3 63 244 284
3 243 284 244
3 261 222 233
3 264 298 61
3 58 265 59
3 99 98 222
3 220 233 222
3 82 81 83
3 84 81 80
3 81 84 83
3 223 96 95
3 74 73 232
3 91 245 92
3 80 85 84
3 79 85 80
3 86 79 78
3 245 248 75
3 233 232 72
3 225 264 297
3 103 102 286
3 107 287 108
3 310 285 244
3 222 98 220
3 262 222 261
3 98 97 220
3 58 299 265
3 300 106 105
3 54 276 55
3 101 310 102
3 104 103 225
3 300 225 265
3 106 316 107
3 326 276 240
3 96 223 220
3 95 232 223
3 77 247 78
3 79 86 85
3 93 92 245
3 86 78 247
3 93 245 94
3 97 96 220
3 91 90 248
3 248 76 75
3 247 87 86
3 247 89 88
3 247 248 89
3 248 245 91
3 262 99 222
3 2 231 221
3 216 259 271
3 220 223 233
3 259 231 271
3 213 239 214
3 214 260 259
3 216 215 259
3 267 212 226
3 268 211 210
3 226 211 268
3 269 207 228
3 206 228 207
3 267 266 7
3 212 211 226
3 317 306 170
3 327 331 319
3 168 309 317
3 309 329 282
3 290 166 165
3 278 171 306
3 174 227 175
3 266 226 324
3 176 175 249
3 164 163 288
3 205 228 206
3 204 270 205
3 307 173 318
3 165 164 250
3 329 290 332
3 203 249 227
3 203 202 249
3 200 178 177
3 177 176 249
3 177 249 201
3 200 177 201
3 205 270 228
3 178 199 179
3 179 199 198
3 179 198 180
3 180 197 181
3 198 197 180
3 181 197 196
3 199 178 200
3 181 196 182
3 183 182 195
3 189 187 186
3 185 184 251
3 190 186 185
3 183 194 184
3 192 251 193
3 194 193 184
3 186 190 189
3 3 2 221
3 190 185 251
3 251 191 190
3 194 183 195
3 196 195 182
3 187 189 188
3 110 109 275
3 289 112 111
3 114 113 252
3 114 252 292
3 313 113 112
3 116 314 117
3 114 292 115
3 295 117 314
3 295 118 117
3 124 230 234
3 250 164 288
3 288 163 312
3 130 254 131
3 254 130 255
3 254 256 132
3 254 132 131
3 256 134 133
3 142 255 143
3 125 234 126
3 127 229 258
3 135 134 139
3 134 256 140
3 141 254 142
3 139 134 140
3 126 234 229
3 128 258 255
3 123 230 124
3 312 291 252
3 291 159 293
3 121 120 302
3 156 294 157
3 158 293 159
3 293 294 253
3 120 119 257
3 153 152 272
3 151 273 152
3 272 296 153
3 156 155 315
3 150 273 151
3 258 143 255
3 258 229 144
3 135 138 136
3 135 139 138
3 138 137 136
3 230 148 147
3 149 230 235
3 148 230 149
3 234 145 229
3 234 147 146
3 230 147 234
3 122 235 230
3 149 273 150
3 160 291 161
3 239 260 214
3 219 218 271
3 261 70 69
3 70 261 233
3 263 13 238
3 301 9 8
3 60 297 264
3 105 104 225
3 209 208 269
3 307 174 173
3 269 208 207
3 204 203 227
3 307 321 174
3 172 318 173
3 144 229 145
3 127 126 229
3 123 122 230
3 121 235 122
3 271 0 219
3 217 271 218
3 232 94 245
3 72 232 73
3 233 223 232
3 70 233 71
3 234 125 124
3 145 234 146
3 302 257 272
3 235 273 149
3 38 236 39
3 20 236 21
3 17 16 237
3 16 15 274
3 9 238 10
3 224 274 263
3 212 239 213
3 6 5 239
3 52 277 53
3 305 277 52
3 47 46 241
3 46 45 280
3 281 50 49
3 166 290 309
3 64 284 65
3 101 100 285
3 102 310 286
3 62 298 63
3 75 74 245
3 74 232 245
3 56 304 57
3 55 276 304
3 77 248 247
3 88 87 247
3 77 76 248
3 248 90 89
3 227 249 175
3 201 249 202
3 110 275 303
3 165 250 290
3 193 251 184
3 191 251 192
3 112 289 313
3 291 312 161
3 115 292 314
3 158 294 293
3 130 129 255
3 141 140 256
3 254 255 142
3 128 255 129
3 132 256 133
3 254 141 256
3 118 295 119
3 154 296 155
3 258 128 127
3 144 143 258
3 214 259 215
3 231 259 221
3 259 260 221
3 239 5 260
3 69 68 261
3 283 262 261
3 283 261 68
3 285 262 243
3 13 263 14
3 322 238 301
3 297 60 59
3 264 225 286
3 299 58 57
3 246 287 265
3 9 301 238
3 226 268 324
3 239 267 6
3 266 267 226
3 269 210 209
3 228 321 328
3 270 321 228
3 210 269 268
3 204 227 270
3 321 270 227
3 271 217 216
3 271 231 0
3 302 235 121
3 272 257 296
3 235 272 273
3 152 273 272
3 263 274 15
3 44 274 224
3 277 305 323
3 303 289 111
3 326 275 311
3 55 304 56
3 305 52 51
3 240 277 323
3 306 171 170
3 325 241 280
3 327 319 308
3 242 51 281
3 322 224 263
3 301 335 322
3 308 49 48
3 242 281 319
3 309 168 167
3 308 319 281
3 66 283 67
3 262 283 243
3 284 64 63
3 284 243 283
3 262 285 100
3 244 285 243
3 286 244 298
3 225 103 286
3 106 300 316
3 276 326 246
3 312 163 162
3 312 320 288
3 111 110 303
3 250 288 320
3 323 332 303
3 282 317 309
3 159 291 160
3 116 115 314
3 252 291 292
3 292 291 293
3 294 158 157
3 293 253 292
3 315 155 296
3 257 119 295
3 253 294 295
3 257 295 294
3 296 154 153
3 315 257 294
3 59 265 297
3 225 297 265
3 286 298 264
3 63 298 244
3 304 299 57
3 246 265 299
3 225 300 105
3 287 300 265
3 301 266 335
3 322 263 238
3 257 302 120
3 235 302 272
3 323 275 240
3 289 303 332
3 276 246 304
3 304 246 299
3 51 242 305
3 323 303 275
3 317 170 169
3 282 319 331
3 327 241 333
3 269 228 328
3 48 279 308
3 319 282 329
3 166 309 167
3 332 290 250
3 285 310 101
3 244 286 310
3 287 246 326
3 275 109 311
3 312 162 161
3 320 312 252
3 289 250 320
3 252 113 313
3 292 253 314
3 314 253 295
3 257 315 296
3 294 156 315
3 300 287 316
3 287 107 316
3 168 317 169
3 282 306 317
3 172 278 318
3 333 278 331
3 279 327 308
3 241 327 279
3 252 313 320
3 289 320 313
3 174 321 227
3 334 328 307
3 335 266 324
3 280 224 322
3 305 242 323
3 329 242 319
3 328 268 269
3 318 330 307
3 335 280 322
3 307 330 334
3 275 326 240
3 326 311 287
3 333 241 325
3 306 331 278
3 307 328 321
3 268 328 324
3 290 329 309
3 242 329 323
3 278 330 318
3 334 330 325
3 331 306 282
3 333 331 327
3 332 250 289
3 323 329 332
3 325 330 333
3 278 333 330
3 335 334 325
3 328 334 324
3 334 335 324
3 335 325 280
