ply
format ascii 1.0
element vertex 301
property float x
property float y
property float z
property float u
property float v
element face 352
property list uchar int vertex_indices
end_header
211 40.5147 0 211 40.5147
206.393 52.3934 0 206.393 52.3934
199.737 43.2635 0 199.737 43.2635
194.787 56.2132 0 194.787 56.2132
191 65.7696 0 191 65.7696
184 53.6691 0 184 53.6691
176 50.2599 0 176 50.2599
178.867 62.8665 0 178.867 62.8665
168.953 52 0 168.953 52
161.61 56 0 161.61 56
153 62.1472 0 153 62.1472
158.054 75.0538 0 158.054 75.0538
153.409 83 0 153.409 83
151 95.9339 0 151 95.9339
144.551 106 0 144.551 106
143.733 117.267 0 143.733 117.267
147 129.478 0 147 129.478
146.005 140.995 0 146.005 140.995
147 151.922 0 147 151.922
147 157.564 0 147 157.564
144.258 163.258 0 144.258 163.258
138.085 162.085 0 138.085 162.085
136.842 172.158 0 136.842 172.158
134.434 183 0 134.434 183
138.643 195.643 0 138.643 195.643
140.286 206.286 0 140.286 206.286
132.508 194.508 0 132.508 194.508
127 203.625 0 127 203.625
125.901 208.901 0 125.901 208.901
123.756 215.756 0 123.756 215.756
115.88 212.12 0 115.88 212.12
108.484 218.484 0 108.484 218.484
114.848 230.848 0 114.848 230.848
105.788 224.212 0 105.788 224.212
102.131 229.131 0 102.131 229.131
97.1817 238.182 0 97.1817 238.182
89.7421 241 0 89.7421 241
85 252.187 0 85 252.187
92.2033 264.203 0 92.2033 264.203
85.1976 262 0 85.1976 262
86.3171 269 0 86.3171 269
80.1188 271.881 0 80.1188 271.881
77.8247 279 0 77.8247 279
80.3667 286.367 0 80.3667 286.367
68.8048 288.195 0 68.8048 288.195
65 299.377 0 65 299.377
68.216 310.216 0 68.216 310.216
74.7655 317 0 74.7655 317
64 318.992 0 64 318.992
63.921 327 0 63.921 327
66.5642 332 0 66.5642 332
62.7224 336.722 0 62.7224 336.722
69.0493 342 0 69.0493 342
54.8776 340 0 54.8776 340
60.0513 347 0 60.0513 347
69.4281 351.572 0 69.4281 351.572
55.0198 351 0 55.0198 351
64.3236 357 0 64.3236 357
58 362.667 0 58 362.667
70 367.424 0 70 367.424
55.9928 369.007 0 55.9928 369.007
64.7676 375 0 64.7676 375
61.0608 377 0 61.0608 377
58.321 388.321 0 58.321 388.321
72.4423 390.442 0 72.4423 390.442
65.4454 396 0 65.4454 396
67.7263 401 0 67.7263 401
65.1021 404 0 65.1021 404
63.8269 411 0 63.8269 411
72.83 413 0 72.83 413
62 418.342 0 62 418.342
67.6851 428 0 67.6851 428
67 434.028 0 67 434.028
70.5556 442.444 0 70.5556 442.444
81.9088 443.091 0 81.9088 443.091
69.2518 448.748 0 69.2518 448.748
67.2838 461.284 0 67.2838 461.284
77.7664 462.234 0 77.7664 462.234
71.8454 471 0 71.8454 471
79.7454 471.255 0 79.7454 471.255
77.6743 482.326 0 77.6743 482.326
82 494.39 0 82 494.39
85.7329 504 0 85.7329 504
98.054 504.946 0 98.054 504.946
94.875 511.125 0 94.875 511.125
97.218 519.782 0 97.218 519.782
100.621 526 0 100.621 526
113.389 521.389 0 113.389 521.389
103.764 530 0 103.764 530
107.824 535.176 0 107.824 535.176
111.148 537 0 111.148 537
105.781 546 0 105.781 546
117.791 542.209 0 117.791 542.209
110 553.982 0 110 553.982
121.937 559.937 0 121.937 559.937
130 568.426 0 130 568.426
136.597 576 0 136.597 576
142.355 585 0 142.355 585
152.029 575.029 0 152.029 575.029
151 588.799 0 151 588.799
156 599.142 0 156 599.142
163 594.515 0 163 594.515
168.414 582 0 168.414 582
167.171 594.829 0 167.171 594.829
175.678 587.322 0 175.678 587.322
180 595.302 0 180 595.302
181.042 606.958 0 181.042 606.958
186 594.011 0 186 594.011
188 598.16 0 188 598.16
189.356 607.644 0 189.356 607.644
200 603.396 0 200 603.396
203.256 590.256 0 203.256 590.256
209.084 587.916 0 209.084 587.916
215 592.876 0 215 592.876
222 602.78 0 222 602.78
220.309 589.309 0 220.309 589.309
225 590.906 0 225 590.906
231.176 601.824 0 231.176 601.824
238.833 598.833 0 238.833 598.833
237.217 587.217 0 237.217 587.217
242 581.622 0 242 581.622
248 586.52 0 248 586.52
250.168 580.168 0 250.168 580.168
257.339 592 0 257.339 592
256 579.318 0 256 579.318
264.782 587 0 264.782 587
273.883 585 0 273.883 585
277 578.398 0 277 578.398
281.062 575.062 0 281.062 575.062
284.842 575 0 284.842 575
291 574.643 0 291 574.643
285.616 562.384 0 285.616 562.384
295.558 571 0 295.558 571
291.242 559.242 0 291.242 559.242
297.122 559.122 0 297.122 559.122
306.486 565.514 0 306.486 565.514
313.143 557.857 0 313.143 557.857
325.545 555 0 325.545 555
334 549.526 0 334 549.526
328 537.011 0 328 537.011
336.675 546 0 336.675 546
340.573 540.573 0 340.573 540.573
338.791 530.791 0 338.791 530.791
348 541.976 0 348 541.976
351 535.924 0 351 535.924
351.832 530.832 0 351.832 530.832
360 532.723 0 360 532.723
352.733 520.733 0 352.733 520.733
359.459 523.459 0 359.459 523.459
364.47 521.47 0 364.47 521.47
361.601 511.601 0 361.601 511.601
371.951 520 0 371.951 520
369.622 507.378 0 369.622 507.378
381.566 514 0 381.566 514
386.65 507.65 0 386.65 507.65
385.165 497.165 0 385.165 497.165
388.906 495.906 0 388.906 495.906
396.381 489 0 396.381 489
399.219 479.781 0 399.219 479.781
401 468.59 0 401 468.59
403 456.075 0 403 456.075
407 442.732 0 407 442.732
397.568 434.568 0 397.568 434.568
393.126 431 0 393.126 431
406.883 434 0 406.883 434
410.719 427.719 0 410.719 427.719
409.352 416.648 0 409.352 416.648
404 408.988 0 404 408.988
400.059 401 0 400.059 401
391.455 394 0 391.455 394
406.041 393 0 406.041 393
404.202 388 0 404.202 388
403.1 383.9 0 403.1 383.9
409.365 376.365 0 409.365 376.365
407 364.587 0 407 364.587
403.244 353 0 403.244 353
389.073 355 0 389.073 355
382.271 353 0 382.271 353
396.028 350 0 396.028 350
395.091 339.909 0 395.091 339.909
384.115 336 0 384.115 336
391.454 332.546 0 391.454 332.546
390 322.843 0 390 322.843
386 314.914 0 386 314.914
382.717 305.283 0 382.717 305.283
369.643 304 0 369.643 304
376.115 301 0 376.115 301
378.542 295 0 378.542 295
371.215 292 0 371.215 292
370.727 286.273 0 370.727 286.273
358 287.271 0 358 287.271
371.072 283 0 371.072 283
373.585 277 0 373.585 277
359.828 280 0 359.828 280
366.514 275 0 366.514 275
369.143 268 0 369.143 268
371.152 260.152 0 371.152 260.152
357.043 262 0 357.043 262
364.919 256.081 0 364.919 256.081
353.253 254.747 0 353.253 254.747
343.697 252.303 0 343.697 252.303
356.939 248.061 0 356.939 248.061
349.157 244 0 349.157 244
352.838 240.162 0 352.838 240.162
345.213 235.787 0 345.213 235.787
331.677 238.677 0 331.677 238.677
342.272 232.728 0 342.272 232.728
341.272 226 0 341.272 226
339.758 219 0 339.758 219
332.414 217.586 0 332.414 217.586
324.486 215 0 324.486 215
318.312 213.688 0 318.312 213.688
312.738 209.262 0 312.738 209.262
315 202.115 0 315 202.115
302.132 204.868 0 302.132 204.868
288.889 208.889 0 288.889 208.889
298.671 202 0 298.671 202
311.424 196.576 0 311.424 196.576
301.643 195 0 301.643 195
298.091 187.909 0 298.091 187.909
284.786 192 0 284.786 192
293.143 186 0 293.143 186
280.343 185 0 280.343 185
277 183 0 277 183
289.656 177.344 0 289.656 177.344
291.394 171.606 0 291.394 171.606
278.215 176 0 278.215 176
269.797 174.203 0 269.797 174.203
283.333 170.667 0 283.333 170.667
282.601 165 0 282.601 165
281.353 161.647 0 281.353 161.647
273.571 159 0 273.571 159
281 151.643 0 281 151.643
267.472 153 0 267.472 153
270.871 148 0 270.871 148
283.151 142.849 0 283.151 142.849
274.271 135 0 274.271 135
272.242 127.242 0 272.242 127.242
260 122 0 260 122
272.657 116.343 0 272.657 116.343
261.737 114.263 0 261.737 114.263
265.041 106.959 0 265.041 106.959
272.474 95.4736 0 272.474 95.4736
260.817 95.1831 0 260.817 95.1831
249.624 101.624 0 249.624 101.624
258.276 90.7245 0 258.276 90.7245
261.51 80 0 261.51 80
254.997 73.9968 0 254.997 73.9968
261.488 62.5117 0 261.488 62.5117
255.562 60.4379 0 255.562 60.4379
249.63 62.3698 0 249.63 62.3698
248.713 54.2869 0 248.713 54.2869
243.651 51.3494 0 243.651 51.3494
250 38.9795 0 250 38.9795
245 36.5352 0 245 36.5352
236.844 48.1564 0 236.844 48.1564
234 40.8496 0 234 40.8496
226 47.6648 0 226 47.6648
218.459 59.541 0 218.459 59.541
213 72.2798 0 213 72.2798
210.44 71.5596 0 210.44 71.5596
215 58.4487 0 215 58.4487
218 44.6914 0 218 44.6914
217 28 0 217 28
208.934 81.8215 0 208.934 81.8215
213.582 65.3038 0 213.582 65.3038
113.195 529.327 0 113.195 529.327
271.95 195.237 0 271.95 195.237
382.162 482.066 0 382.162 482.066
66.9771 383.53 0 66.9771 383.53
168.826 154.743 0 168.826 154.743
227.302 576.457 0 227.302 576.457
267.899 563.176 0 267.899 563.176
197.119 566.538 0 197.119 566.538
253.633 139.935 0 253.633 139.935
318.098 229.871 0 318.098 229.871
293.722 536.431 0 293.722 536.431
381.544 449.969 0 381.544 449.969
159.315 167 0 159.315 167
250.63 562.903 0 250.63 562.903
280.45 546.528 0 280.45 546.528
104.082 284.79 0 104.082 284.79
233.725 63.657 0 233.725 63.657
332.953 277.107 0 332.953 277.107
379.45 375.161 0 379.45 375.161
142.669 526.073 0 142.669 526.073
181.14 93.8782 0 181.14 93.8782
111.607 459.537 0 111.607 459.537
385.103 413.345 0 385.103 413.345
351.463 482.62 0 351.463 482.62
106.268 345.321 0 106.268 345.321
167.019 113.295 0 167.019 113.295
169.725 196.294 0 169.725 196.294
230.627 85.4282 0 230.627 85.4282
312.816 498.205 0 312.816 498.205
334.411 339.207 0 334.411 339.207
248.024 490.137 0 248.024 490.137
133.109 400.682 0 133.109 400.682
220.776 189.846 0 220.776 189.846
240.088 252.106 0 240.088 252.106
175.406 261.392 0 175.406 261.392
3 34 33 32
3 32 31 29
3 34 32 35
3 36 35 37
3 35 38 37
3 35 32 38
3 22 21 20
3 23 22 278
3 30 29 31
3 25 28 27
3 25 29 28
3 25 27 26
3 25 292 300
3 50 49 47
3 49 48 47
3 293 259 282
3 52 54 51
3 51 54 53
3 57 56 54
3 51 50 52
3 278 24 23
3 42 41 40
3 42 40 43
3 39 38 40
3 40 38 281
3 45 43 46
3 43 45 44
3 47 52 50
3 47 46 43
3 40 281 43
3 47 43 281
3 47 290 52
3 270 274 298
3 55 54 52
3 29 25 300
3 6 5 7
3 8 7 9
3 3 1 265
3 2 1 3
3 0 262 1
3 288 163 277
3 262 261 1
3 284 295 177
3 1 261 265
3 252 282 255
3 255 257 256
3 252 255 254
3 282 257 255
3 282 258 257
3 250 282 252
3 262 0 263
3 279 272 124
3 265 258 282
3 13 286 291
3 16 270 17
3 14 13 291
3 278 292 24
3 278 20 19
3 20 278 22
3 291 15 14
3 10 9 11
3 11 9 7
3 7 4 286
3 4 3 260
3 7 5 4
3 4 260 264
3 298 274 227
3 286 12 11
3 4 264 286
3 259 264 260
3 11 7 286
3 19 270 278
3 260 3 265
3 286 13 12
3 55 52 290
3 268 152 289
3 177 176 284
3 300 292 298
3 61 60 59
3 59 58 57
3 62 269 63
3 269 61 59
3 64 269 59
3 59 57 55
3 55 290 59
3 59 290 64
3 65 64 66
3 69 68 67
3 70 69 71
3 66 69 67
3 69 66 64
3 71 69 74
3 64 290 297
3 54 55 57
3 76 75 77
3 72 74 73
3 74 77 75
3 77 79 78
3 77 74 287
3 80 79 81
3 77 287 79
3 287 81 79
3 83 82 81
3 81 287 83
3 84 83 85
3 86 85 87
3 83 87 85
3 72 71 74
3 92 90 266
3 281 290 47
3 285 266 87
3 90 92 91
3 88 266 89
3 266 90 89
3 94 285 95
3 88 87 266
3 94 93 92
3 98 96 95
3 92 285 94
3 92 266 285
3 98 97 96
3 99 98 102
3 98 95 285
3 271 120 119
3 271 112 273
3 104 103 102
3 102 101 99
3 115 112 271
3 273 104 102
3 271 116 115
3 111 107 273
3 271 119 116
3 115 113 112
3 124 122 279
3 105 107 108
3 105 104 107
3 108 106 105
3 24 292 25
3 107 111 108
3 101 100 99
3 113 116 114
3 118 116 119
3 115 116 113
3 118 117 116
3 109 108 110
3 289 152 150
3 110 108 111
3 273 107 104
3 155 152 268
3 300 298 299
3 295 288 294
3 252 254 253
3 244 238 274
3 245 293 247
3 250 249 247
3 293 245 244
3 293 264 259
3 244 240 238
3 245 247 246
3 237 274 238
3 247 249 248
3 264 293 274
3 243 242 241
3 240 244 241
3 240 239 238
3 241 244 243
3 233 234 231
3 274 234 233
3 234 274 236
3 236 274 237
3 231 234 232
3 226 227 229
3 231 227 233
3 223 226 222
3 226 223 227
3 229 227 231
3 267 223 222
3 235 234 236
3 227 267 298
3 231 230 229
3 229 228 226
3 226 224 222
3 226 228 224
3 215 220 216
3 222 221 220
3 267 220 215
3 224 228 225
3 267 222 220
3 283 275 205
3 223 267 227
3 219 218 220
3 216 218 214
3 216 220 218
3 217 214 218
3 214 212 275
3 213 212 214
3 210 209 275
3 275 211 210
3 209 208 207
3 207 206 205
3 209 207 205
3 209 205 275
3 212 211 275
3 200 205 202
3 205 204 202
3 204 203 202
3 199 202 201
3 200 199 197
3 199 200 202
3 193 190 283
3 193 283 197
3 197 199 198
3 197 283 200
3 275 215 214
3 197 194 193
3 197 195 194
3 196 195 198
3 189 188 190
3 189 193 191
3 191 193 194
3 194 192 191
3 189 190 193
3 195 197 198
3 190 188 185
3 291 274 270
3 190 295 283
3 139 142 141
3 142 294 147
3 141 144 143
3 144 141 142
3 142 145 144
3 139 141 140
3 137 139 138
3 139 137 136
3 150 152 151
3 277 268 289
3 288 169 168
3 142 139 294
3 145 147 148
3 145 142 147
3 148 147 150
3 148 146 145
3 150 149 148
3 276 294 139
3 133 131 280
3 121 122 124
3 122 120 279
3 124 127 125
3 272 127 124
3 126 125 127
3 123 121 124
3 62 61 269
3 121 120 122
3 132 131 133
3 271 279 120
3 133 276 134
3 136 134 276
3 135 134 136
3 128 131 129
3 130 129 131
3 128 127 272
3 131 128 272
3 180 295 185
3 186 185 188
3 183 185 184
3 183 180 185
3 295 180 177
3 181 180 182
3 177 180 179
3 180 183 182
3 174 284 176
3 139 136 276
3 179 178 177
3 175 174 176
3 284 172 169
3 173 172 174
3 98 273 102
3 174 172 284
3 169 172 171
3 285 87 287
3 169 171 170
3 159 277 160
3 162 163 165
3 277 162 160
3 159 158 268
3 168 167 288
3 157 156 268
3 152 154 153
3 155 154 152
3 268 156 155
3 270 18 17
3 112 111 273
3 277 163 162
3 167 166 163
3 165 163 166
3 164 162 165
3 268 158 157
3 162 161 160
3 159 268 277
3 279 271 273
3 163 288 167
3 131 272 280
3 273 98 285
3 188 187 186
3 19 18 270
3 227 274 233
3 252 251 250
3 283 205 200
3 296 279 273
3 280 276 133
3 272 279 280
3 296 273 285
3 32 281 38
3 299 275 283
3 247 282 250
3 265 282 259
3 190 185 295
3 298 267 299
3 288 289 294
3 281 300 290
3 87 83 287
3 280 279 296
3 274 286 264
3 15 291 16
3 69 297 74
3 294 276 296
3 284 169 288
3 288 277 289
3 147 294 289
3 147 289 150
3 295 297 299
3 297 69 64
3 274 291 286
3 270 16 291
3 270 292 278
3 299 215 275
3 247 293 282
3 274 293 244
3 276 280 296
3 297 295 296
3 288 295 284
3 294 296 295
3 285 287 296
3 74 297 287
3 290 300 297
3 296 287 297
3 299 267 215
3 298 292 270
3 295 299 283
3 29 300 32
3 300 299 297
3 281 32 300
