ply
format ascii 1.0
element vertex 252
property float x
property float y
property float z
property float u
property float v
element face 290
property list uchar int vertex_indices
end_header
-11.5147 -189 0 500.485 195
-17.4437 -181 0 494.556 203
-25.201 -172 0 486.799 212
-30 -161.213 0 482 222.787
-40 -155.042 0 472 228.958
-49.9203 -154.92 0 462.08 229.08
-59.402 -164 0 452.598 220
-72.5736 -167 0 439.426 217
-84.5269 -162.473 0 427.473 221.527
-96.4766 -156.523 0 415.523 227.477
-108.017 -151 0 403.983 233
-116 -142.811 0 396 241.189
-115.038 -135.038 0 396.962 248.962
-111.289 -124 0 400.711 260
-120.326 -116.674 0 391.674 267.326
-128 -107.782 0 384 276.218
-132 -96.196 0 380 287.804
-136 -84.6103 0 376 299.39
-132 -73.0244 0 380 310.976
-126 -62.267 0 386 321.733
-128 -48.6813 0 384 335.319
-120.946 -38.9462 0 391.054 345.054
-122 -25.7524 0 390 358.248
-126 -14.1667 0 386 369.833
-126 0.833374 0 386 384.833
-122 13.005 0 390 397.005
-119.409 26 0 392.591 410
-111.238 34 0 400.762 418
-118.934 40 0 393.066 424
-132.52 38 0 379.48 422
-146.105 40 0 365.895 424
-159.196 43.1959 0 352.804 427.196
-168.62 51 0 343.38 435
-176 56.9633 0 336 440.963
-184 65.1349 0 328 449.135
-186 78.7206 0 326 462.721
-186 90.8925 0 326 474.892
-188.478 104 0 323.522 488
-200 108.65 0 312 492.65
-206 118.822 0 306 502.822
-208 132.407 0 304 516.407
-206 145.993 0 306 529.993
-201.421 157 0 310.579 541
-192 164.336 0 320 548.336
-181.492 170 0 330.508 554
-168.906 173 0 343.094 557
-155.977 178 0 356.023 562
-143.634 173 0 368.366 557
-129.877 170 0 382.123 554
-123 159.533 0 389 543.533
-118.427 146.427 0 393.573 530.427
-123.522 134.478 0 388.478 518.478
-133 126.918 0 379 510.918
-137 114.16 0 375 498.16
-137.989 101 0 374.011 485
-130.646 91 0 381.354 475
-117.302 87 0 394.698 471
-104.131 90 0 407.869 474
-90.9592 93 0 421.041 477
-88 105.627 0 424 489.627
-90 119.212 0 422 503.212
-94 130.798 0 418 514.798
-94 145.799 0 418 529.799
-96 159.384 0 416 543.384
-100.686 170.686 0 411.314 554.686
-106 176.313 0 406 560.313
-111.485 187 0 400.515 571
-116 198.656 0 396 582.656
-122 208.828 0 390 592.828
-116 219 0 396 603
-116 234 0 396 618
-120 245.585 0 392 629.585
-129.192 239.808 0 382.808 623.808
-139.385 229.615 0 372.615 613.615
-149.473 222 0 362.527 606
-164.473 222 0 347.527 606
-176 226.059 0 336 610.059
-186.991 232.991 0 325.009 616.991
-186 241.573 0 326 625.573
-184 255.159 0 328 639.159
-174 260.745 0 338 644.745
-170.766 273.234 0 341.234 657.234
-170 285.089 0 342 669.089
-176.184 295.184 0 335.816 679.184
-177.154 304 0 334.846 688
-164.568 307 0 347.432 691
-154 311.189 0 358 695.189
-155.225 320 0 356.775 704
-143.053 320 0 368.947 704
-131.124 314 0 380.876 698
-120.953 320 0 391.047 704
-111 311.438 0 401 695.438
-102.852 304 0 409.148 688
-88.4811 302.481 0 423.519 686.481
-76.7513 296 0 435.249 680
-68.1672 286.167 0 443.833 670.167
-62.6316 274.632 0 449.368 658.632
-59 262.893 0 453 646.893
-56.3075 250 0 455.693 634
-43 246.55 0 469 630.55
-34.8636 235 0 477.136 619
-24.368 231.632 0 487.632 615.632
-14.2466 237.753 0 497.753 621.753
-3.17694 243 0 508.823 627
11 242.177 0 523 626.177
23.1655 237 0 535.166 621
38.1663 237 0 550.166 621
53.1175 237.117 0 565.117 621.117
65.946 240.946 0 577.946 624.946
72 249.681 0 584 633.681
80 258.438 0 592 642.438
88 267.196 0 600 651.196
96.3676 275 0 608.368 659
101.796 282.796 0 613.796 666.796
104 293.468 0 616 677.468
108 305.054 0 620 689.054
112.226 317 0 624.226 701
124.811 320 0 636.811 704
137.983 323 0 649.983 707
146.817 315.183 0 658.817 699.183
154.498 306 0 666.498 690
165.716 298.284 0 677.716 682.284
178.942 296 0 690.942 680
187.909 304.909 0 699.909 688.909
200.03 304.97 0 712.03 688.97
209.273 296.727 0 721.273 680.727
216 285.685 0 728 669.685
213.363 272.363 0 725.363 656.363
215 258.342 0 727 642.342
209 248.17 0 721 632.17
197 242.827 0 709 626.827
188.655 235 0 700.655 619
176.07 232 0 688.07 616
162 232.93 0 674 616.93
150.898 238 0 662.898 622
140.14 244 0 652.14 628
133 240.626 0 645 624.626
127 230.454 0 639 614.454
119 222.283 0 631 606.283
109.836 212.836 0 621.836 596.836
100.011 206 0 612.011 590
89.8397 200 0 601.84 584
77.6686 196 0 589.669 580
63.3513 194.351 0 575.351 578.351
49.4968 193 0 561.497 577
37.5229 188.523 0 549.523 572.523
27 181.397 0 539 565.397
17 174.054 0 529 558.054
11 163.882 0 523 547.882
8 150.711 0 520 534.711
11 137.54 0 523 521.54
11 122.539 0 523 506.539
15.1542 109.846 0 527.154 493.846
24 116.561 0 536 500.561
34.7325 122 0 546.733 506
47.3182 125 0 559.318 509
61.0752 128 0 573.075 512
74.8818 129.118 0 586.882 513.118
89.4185 130 0 601.419 514
103.59 130 0 615.59 514
117.761 128 0 629.761 512
130.933 125 0 642.933 509
144.195 120.805 0 656.195 504.805
156.376 114 0 668.376 498
165.801 106.199 0 677.801 490.199
175 97.3521 0 687 481.352
181 86.0089 0 693 470.009
184 72.2512 0 696 456.251
184 57.2521 0 696 441.252
187 45.4945 0 699 429.495
191.107 34.1074 0 703.107 418.107
196.721 23.2791 0 708.721 407.279
203 11.4657 0 715 395.466
209.62 0.379578 0 721.62 384.38
216 -10.8062 0 728 373.194
211.602 -23.3984 0 723.602 360.602
207 -36.4926 0 719 347.507
201.75 -48 0 713.75 336
187.165 -47 0 699.165 337
173.408 -50 0 685.408 334
161.046 -45.0456 0 673.046 338.954
152 -36.7217 0 664 347.278
144 -27.9646 0 656 356.035
134.208 -21 0 646.208 363
128 -11.8647 0 640 372.135
122.693 -15 0 634.693 369
111.045 -20.0452 0 623.045 363.955
123.873 -23.8735 0 635.873 360.127
128.993 -33 0 640.993 351
140.75 -36 0 652.75 348
139 -46.5067 0 651 337.493
137.642 -60.3584 0 649.642 323.642
129.399 -69.601 0 641.399 314.399
126.843 -76.8433 0 638.843 307.157
133 -87.5352 0 645 296.465
136 -100.707 0 648 283.293
133.793 -114.207 0 645.793 269.793
128.258 -125.742 0 640.258 258.258
119.193 -133 0 631.193 251
113 -142.979 0 625 241.021
107 -153.15 0 619 230.85
98.5072 -162 0 610.507 222
85.3369 -165 0 597.337 219
71.1643 -165 0 583.164 219
63 -171.007 0 575 212.993
55.6499 -181 0 567.65 203
42.4781 -184 0 554.478 200
29.2172 -181.217 0 541.217 202.783
19.9641 -175 0 531.964 209
10.207 -172 0 522.207 212
5 -184.135 0 517 199.865
-4 -194 0 508 190
113.218 7.09674 0 625.218 391.097
-81.5735 194.058 0 430.426 578.058
100.104 -63.3349 0 612.104 320.665
124.811 267.196 0 636.811 651.196
-154.684 75.795 0 357.316 459.795
-96.6842 60.604 0 415.316 444.604
-44.4908 -116.604 0 467.509 267.396
-140.61 268.174 0 371.39 652.174
-124.093 288.913 0 387.907 672.913
26.6913 -135.754 0 538.691 248.246
45.5546 78.9827 0 557.555 462.983
157.666 1.61694 0 669.666 385.617
90.2468 230.569 0 602.247 614.569
-41.6941 195.677 0 470.306 579.677
38.1562 -157.919 0 550.156 226.081
-98.5844 -84.6102 0 413.416 299.39
-85.4978 -6.66663 0 426.502 377.333
-166.98 130.566 0 345.02 514.566
-53.4976 138.298 0 458.502 522.298
-94.5152 266.428 0 417.485 650.428
2.41992 216.89 0 514.42 600.89
80.6859 -130.772 0 592.686 253.228
106.954 -108.424 0 618.954 275.576
142.771 73.0457 0 654.771 457.046
177.067 255.717 0 689.067 639.717
131.472 294.545 0 643.472 678.545
109.169 247.828 0 621.169 631.828
-75.7002 -129.77 0 436.3 254.23
-19.6018 -133.177 0 492.398 250.823
175.22 -20.5654 0 687.22 363.435
162.409 30.1902 0 674.409 414.19
-12.4547 184.573 0 499.545 568.573
-40.6323 87.8654 0 471.368 471.865
-15.8408 106.728 0 496.159 490.728
-84.3181 226.499 0 427.682 610.499
84.5612 89.8108 0 596.561 473.811
-19.962 137.414 0 492.038 521.414
117.17 94.9883 0 629.17 478.988
33.4703 -0.17868 0 545.47 383.821
6.76288 -66.6096 0 518.763 317.39
3 16 227 17
3 227 18 17
3 30 29 216
3 29 56 216
3 21 20 19
3 16 15 227
3 23 22 228
3 24 23 228
3 228 25 24
3 227 15 14
3 216 56 55
3 35 216 36
3 37 36 54
3 39 38 37
3 251 214 250
3 37 229 39
3 229 40 39
3 32 216 33
3 32 31 216
3 229 54 53
3 54 36 216
3 229 53 52
3 30 216 31
3 33 216 34
3 37 54 229
3 7 6 239
3 6 5 239
3 10 9 239
3 239 5 218
3 8 7 239
3 219 220 86
3 0 211 210
3 0 210 1
3 227 21 19
3 2 1 209
3 3 2 209
3 226 209 208
3 71 70 231
3 19 18 227
3 11 10 12
3 239 9 8
3 22 21 228
3 25 27 26
3 28 56 29
3 217 56 28
3 227 14 13
3 56 217 57
3 228 21 227
3 217 28 27
3 5 4 218
3 230 62 61
3 217 58 57
3 60 230 61
3 244 59 58
3 239 12 10
3 59 244 230
3 86 220 89
3 71 220 219
3 229 42 41
3 229 41 40
3 78 77 76
3 45 44 229
3 47 45 229
3 48 47 49
3 45 47 46
3 74 73 75
3 76 75 80
3 229 43 42
3 73 80 75
3 78 80 79
3 78 76 80
3 85 84 83
3 219 80 73
3 85 82 86
3 81 80 219
3 219 82 81
3 82 85 83
3 87 86 88
3 89 88 86
3 82 219 86
3 219 72 71
3 72 219 73
3 63 213 64
3 247 156 222
3 51 50 49
3 68 67 69
3 69 67 213
3 225 101 100
3 230 63 62
3 213 246 69
3 66 213 67
3 213 65 64
3 66 65 213
3 98 246 100
3 230 225 213
3 93 231 94
3 231 96 95
3 92 231 93
3 89 91 90
3 220 231 92
3 91 89 220
3 91 220 92
3 103 102 232
3 231 97 96
3 99 98 100
3 98 97 231
3 70 246 231
3 246 70 69
3 243 101 225
3 47 52 49
3 52 51 49
3 1 210 209
3 212 184 223
3 206 205 226
3 240 4 3
3 226 205 204
3 226 208 207
3 226 221 209
3 203 233 226
3 201 233 202
3 233 201 200
3 199 233 200
3 233 198 234
3 233 221 226
3 228 27 25
3 233 199 198
3 152 151 245
3 196 195 234
3 152 222 153
3 27 228 217
3 212 222 250
3 154 153 222
3 154 222 155
3 245 244 222
3 214 193 192
3 188 192 190
3 186 214 188
3 186 188 187
3 184 212 185
3 192 188 214
3 214 233 234
3 212 186 185
3 197 196 234
3 149 248 150
3 190 192 191
3 189 188 190
3 178 177 176
3 178 241 179
3 180 179 241
3 182 241 223
3 34 216 35
3 176 175 241
3 180 241 181
3 241 173 172
3 167 235 168
3 242 223 171
3 235 167 166
3 235 166 165
3 161 249 162
3 212 223 242
3 165 164 235
3 183 182 223
3 171 223 172
3 172 223 241
3 169 242 170
3 242 168 235
3 183 223 184
3 175 174 173
3 54 216 55
3 195 194 234
3 159 249 160
3 248 245 151
3 232 101 243
3 145 105 232
3 104 232 105
3 232 147 146
3 247 158 157
3 247 157 156
3 107 144 143
3 108 143 142
3 156 155 222
3 145 144 106
3 105 145 106
3 106 144 107
3 142 224 108
3 143 108 107
3 104 103 232
3 109 224 110
3 224 141 140
3 224 238 110
3 111 110 238
3 113 215 237
3 238 112 111
3 140 139 224
3 141 224 142
3 148 243 149
3 247 159 158
3 215 238 136
3 136 238 137
3 135 215 136
3 236 132 131
3 236 131 130
3 135 134 236
3 236 130 129
3 134 133 236
3 129 128 236
3 112 215 113
3 113 237 114
3 120 237 121
3 119 117 237
3 116 115 117
3 119 118 117
3 237 117 115
3 122 236 127
3 127 126 125
3 123 122 124
3 202 233 203
3 125 124 122
3 122 127 125
3 215 135 236
3 236 121 215
3 236 128 127
3 186 250 214
3 238 138 137
3 249 159 247
3 120 119 237
3 240 209 221
3 250 186 212
3 100 246 225
3 240 218 4
3 245 222 152
3 235 247 212
3 182 181 241
3 242 171 170
3 138 224 139
3 109 108 224
3 63 230 213
3 147 243 148
3 206 226 207
3 203 226 204
3 239 227 13
3 251 227 218
3 240 251 218
3 250 244 228
3 229 52 47
3 43 229 44
3 60 59 230
3 248 243 230
3 94 231 95
3 220 71 231
3 232 102 101
3 145 232 146
3 197 234 198
3 251 233 214
3 194 193 234
3 214 234 193
3 164 163 235
3 249 163 162
3 236 122 121
3 133 132 236
3 114 237 115
3 121 237 215
3 238 215 112
3 138 238 224
3 227 239 218
3 239 13 12
3 209 240 3
3 233 251 221
3 176 241 178
3 173 241 175
3 168 242 169
3 212 242 235
3 232 243 147
3 243 225 230
3 58 217 244
3 244 217 228
3 248 151 150
3 230 244 245
3 225 246 213
3 231 246 98
3 212 247 222
3 161 160 249
3 243 248 149
3 230 245 248
3 247 235 249
3 249 235 163
3 244 250 222
3 227 251 228
3 221 251 240
3 228 251 250
