ply
format ascii 1.0
element vertex 186
property float x
property float y
property float z
property float u
property float v
element face 204
property list uchar int vertex_indices
end_header
118.515 12.4853 0 118.515 12.4853
118 31.4436 0 118 31.4436
130.373 42 0 130.373 42
137.716 27 0 137.716 27
146.577 42.5772 0 146.577 42.5772
157.77 49.2305 0 157.77 49.2305
167.133 59.1335 0 167.133 59.1335
165.26 73.7401 0 165.26 73.7401
151.36 85.6396 0 151.36 85.6396
140 99.1765 0 140 99.1765
144 114.105 0 144 114.105
152.56 130.56 0 152.56 130.56
165.045 143.045 0 165.045 143.045
172.078 158 0 172.078 158
154.149 153 0 154.149 153
136.22 148 0 136.22 148
118.706 144 0 118.706 144
110 129.191 0 110 129.191
104 111.676 0 104 111.676
97.4072 94.4072 0 97.4072 94.4072
90 77.4754 0 90 77.4754
79.7296 61.7296 0 79.7296 61.7296
73.0727 46.9273 0 73.0727 46.9273
66.2913 53.2913 0 66.2913 53.2913
68.3448 63.6552 0 68.3448 63.6552
53 61.387 0 53 61.387
39.1148 54 0 39.1148 54
45.5757 70.5757 0 45.5757 70.5757
57.7682 83.7682 0 57.7682 83.7682
72 91.187 0 72 91.187
75 109.945 0 75 109.945
77 129.116 0 77 129.116
81 147.459 0 81 147.459
86 165.388 0 86 165.388
94.76 181.76 0 94.76 181.76
107.831 182.831 0 107.831 182.831
121 191.862 0 121 191.862
134 196.377 0 134 196.377
144 209.306 0 144 209.306
144.216 229.216 0 144.216 229.216
144 246.821 0 144 246.821
137.056 263.944 0 137.056 263.944
123 274.022 0 123 274.022
114.206 289.794 0 114.206 289.794
103.6 305.4 0 103.6 305.4
93.7 321.3 0 93.7 321.3
82 336.454 0 82 336.454
78.3116 348 0 78.3116 348
95.8773 353.877 0 95.8773 353.877
91.88 372.12 0 91.88 372.12
89 390.927 0 89 390.927
76.4446 404.555 0 76.4446 404.555
61.424 416.576 0 61.424 416.576
47.8174 429.183 0 47.8174 429.183
36 444.288 0 36 444.288
27 460.56 0 27 460.56
16.4114 475.589 0 16.4114 475.589
6.51208 491.488 0 6.51208 491.488
1 509.205 0 1 509.205
13.72 508 0 13.72 508
29.4087 518.409 0 29.4087 518.409
44.4296 530.43 0 44.4296 530.43
61.7083 537 0 61.7083 537
53.0139 525.014 0 53.0139 525.014
45.9427 507.943 0 45.9427 507.943
38.4211 492.579 0 38.4211 492.579
53.1491 479.851 0 53.1491 479.851
67.877 467.123 0 67.877 467.123
82.6049 454.395 0 82.6049 454.395
97.0399 440.96 0 97.0399 440.96
113.232 431.768 0 113.232 431.768
129.718 423.282 0 129.718 423.282
139.617 407.383 0 139.617 407.383
151.638 392.362 0 151.638 392.362
161.538 376.462 0 161.538 376.462
175.145 366.145 0 175.145 366.145
189.58 379.58 0 189.58 379.58
204.6 391.6 0 204.6 391.6
220.207 402.207 0 220.207 402.207
233.4 414.4 0 233.4 414.4
239.057 432.057 0 239.057 432.057
245 449.595 0 245 449.595
253.906 465.906 0 253.906 465.906
263.806 481.806 0 263.806 481.806
276.534 496.534 0 276.534 496.534
287.847 511.847 0 287.847 511.847
300.747 524.747 0 300.747 524.747
305.182 519.182 0 305.182 519.182
319.258 510 0 319.258 510
336.772 504 0 336.772 504
339.383 493.383 0 339.383 493.383
320.37 493 0 320.37 493
302.604 489.604 0 302.604 489.604
296.24 472.24 0 296.24 472.24
291.998 453.998 0 291.998 453.998
285 436.896 0 285 436.896
279.269 419.269 0 279.269 419.269
277 400.209 0 277 400.209
283 383.866 0 283 383.866
272.541 370.541 0 272.541 370.541
259.228 357.228 0 259.228 357.228
257.035 346.035 0 257.035 346.035
246.135 331.135 0 246.135 331.135
236.236 315.236 0 236.236 315.236
224.215 300.215 0 224.215 300.215
216.437 283.437 0 216.437 283.437
219 268.518 0 219 268.518
224 250.59 0 224 250.59
228 232.247 0 228 232.247
241.611 220 0 241.611 220
260.846 219.846 0 260.846 219.846
274.088 210.912 0 274.088 210.912
292.054 212 0 292.054 212
311.225 210 0 311.225 210
329 209.982 0 329 209.982
328 229.566 0 328 229.566
328 249.566 0 328 249.566
327 269.153 0 327 269.153
326 288.739 0 326 288.739
326 308.738 0 326 308.738
331.063 317.063 0 331.063 317.063
330 299.746 0 330 299.746
336 282.232 0 336 282.232
349.857 269.143 0 349.857 269.143
366.07 260 0 366.07 260
381.656 249.344 0 381.656 249.344
392.848 235.152 0 392.848 235.152
396 216.458 0 396 216.458
396.91 196.91 0 396.91 196.91
398 178.943 0 398 178.943
396.132 161.132 0 396.132 161.132
396 142.015 0 396 142.015
388.94 124.94 0 388.94 124.94
373.333 114.333 0 373.333 114.333
357.141 105.141 0 357.141 105.141
344 92.342 0 344 92.342
338 74.8278 0 338 74.8278
340 57.8994 0 340 57.8994
334 56.2008 0 334 56.2008
333 75.786 0 333 75.786
332 95.3706 0 332 95.3706
332 115.374 0 332 115.374
331 134.957 0 331 134.957
330 154.543 0 330 154.543
330 174.545 0 330 174.545
316.286 180 0 316.286 180
296.699 179 0 296.699 179
283 174.356 0 283 174.356
264.185 172 0 264.185 172
253 158.499 0 253 158.499
251.254 144.746 0 251.254 144.746
241.382 140.382 0 241.382 140.382
235 123.026 0 235 123.026
227 107.169 0 227 107.169
218.755 91.7554 0 218.755 91.7554
208.27 77.27 0 208.27 77.27
195.353 63 0 195.353 63
177.886 60.8857 0 177.886 60.8857
167 46.5664 0 167 46.5664
175.33 34.3297 0 175.33 34.3297
171.087 24.0874 0 171.087 24.0874
165.895 11.8953 0 165.895 11.8953
150.509 5 0 150.509 5
132 1 0 132 1
333.717 66.0045 0 333.717 66.0045
337.328 84.843 0 337.328 84.843
158.66 34.9921 0 158.66 34.9921
227.981 357.537 0 227.981 357.537
135.117 172.189 0 135.117 172.189
253.937 195.324 0 253.937 195.324
178.169 269.184 0 178.169 269.184
176.921 107.433 0 176.921 107.433
200.701 135.407 0 200.701 135.407
153.075 301.128 0 153.075 301.128
118.637 385.841 0 118.637 385.841
204.135 192.039 0 204.135 192.039
363.624 145.405 0 363.624 145.405
361.333 221.808 0 361.333 221.808
363.41 185.86 0 363.41 185.86
245.251 384.518 0 245.251 384.518
161.394 185.522 0 161.394 185.522
173.924 238.385 0 173.924 238.385
188.72 306.479 0 188.72 306.479
144.762 340.204 0 144.762 340.204
120.611 327.024 0 120.611 327.024
221.95 165.627 0 221.95 165.627
3 28 27 25
3 25 27 26
3 24 28 25
3 23 21 24
3 1 0 3
3 21 20 24
3 22 21 23
3 29 24 20
3 28 24 29
3 31 17 32
3 30 18 31
3 30 29 19
3 17 31 18
3 35 34 33
3 16 33 32
3 17 16 32
3 18 30 19
3 20 19 29
3 163 162 3
3 2 1 3
3 162 166 3
3 162 161 166
3 5 166 158
3 5 4 166
3 166 159 158
3 6 158 157
3 5 158 6
3 166 161 160
3 9 8 10
3 16 15 168
3 8 171 10
3 7 171 8
3 7 6 157
3 11 171 12
3 151 172 152
3 168 37 36
3 10 171 11
3 16 35 33
3 37 180 38
3 0 163 3
3 168 14 180
3 54 53 67
3 54 66 55
3 55 65 56
3 52 68 53
3 53 68 67
3 68 52 69
3 51 69 52
3 48 47 46
3 67 66 54
3 57 65 59
3 57 56 65
3 59 58 57
3 60 59 65
3 65 64 60
3 61 63 62
3 63 61 64
3 64 61 60
3 55 66 65
3 136 139 164
3 168 35 16
3 42 41 173
3 43 173 184
3 168 180 37
3 40 181 170
3 43 42 173
3 38 180 181
3 36 35 168
3 41 170 173
3 183 184 173
3 51 70 69
3 174 50 49
3 70 51 50
3 174 48 183
3 46 45 48
3 71 174 72
3 45 44 184
3 174 70 50
3 71 70 174
3 74 73 174
3 173 182 183
3 39 181 40
3 156 155 7
3 153 152 172
3 155 154 171
3 154 172 171
3 149 169 185
3 148 169 149
3 150 149 151
3 169 175 185
3 149 185 151
3 111 147 146
3 169 111 110
3 108 107 181
3 147 169 148
3 147 111 169
3 146 145 113
3 113 112 146
3 113 145 114
3 146 112 111
3 170 181 107
3 137 164 138
3 164 137 136
3 139 136 165
3 141 140 135
3 165 136 135
3 134 133 176
3 134 142 141
3 135 134 141
3 176 132 131
3 144 143 176
3 125 124 177
3 114 145 144
3 144 176 178
3 115 114 177
3 134 176 142
3 128 178 129
3 178 176 130
3 126 125 177
3 128 127 177
3 129 178 130
3 132 176 133
3 177 124 116
3 170 107 106
3 167 182 103
3 170 182 173
3 102 167 103
3 106 105 170
3 101 167 102
3 179 167 100
3 100 167 101
3 75 182 167
3 179 78 77
3 179 77 167
3 80 96 81
3 96 80 79
3 79 78 179
3 81 95 82
3 82 94 83
3 84 83 93
3 96 95 81
3 96 79 97
3 79 179 97
3 99 98 97
3 122 118 117
3 117 116 123
3 124 123 116
3 122 121 118
3 121 120 119
3 123 122 117
3 115 177 116
3 93 83 94
3 86 85 87
3 84 93 92
3 85 84 92
3 94 82 95
3 91 90 89
3 92 91 88
3 88 87 92
3 89 88 91
3 3 166 4
3 92 87 85
3 140 139 165
3 159 166 160
3 7 157 156
3 135 140 165
3 77 76 167
3 75 167 76
3 15 14 168
3 180 14 13
3 110 109 169
3 109 175 169
3 104 182 105
3 41 40 170
3 155 171 7
3 154 153 172
3 13 12 172
3 171 172 12
3 170 105 182
3 75 74 183
3 48 174 49
3 73 72 174
3 13 172 185
3 109 108 175
3 130 176 131
3 143 142 176
3 114 144 178
3 127 126 177
3 128 177 178
3 114 178 177
3 100 99 179
3 179 99 97
3 13 175 180
3 181 180 175
3 38 181 39
3 108 181 175
3 182 104 103
3 183 182 75
3 174 183 74
3 184 48 45
3 184 44 43
3 48 184 183
3 13 185 175
3 172 151 185
