ply
format ascii 1.0
element vertex 365
property float x
property float y
property float z
property float u
property float v
element face 528
property list uchar int vertex_indices
end_header
176.05 41.9497 0 176.05 41.9497
164.272 49.7279 0 164.272 49.7279
155.494 60.5061 0 155.494 60.5061
150 73.2305 0 150 73.2305
151 87.8162 0 151 87.8162
151 101.988 0 151 101.988
152 115.745 0 152 115.745
155 128.088 0 155 128.088
151.281 135.281 0 151.281 135.281
157.331 142.669 0 157.331 142.669
160.326 146.674 0 160.326 146.674
161.603 156.397 0 161.603 156.397
148.096 156 0 148.096 156
150.246 160.246 0 150.246 160.246
164.075 158.925 0 164.075 158.925
164.269 169.731 0 164.269 169.731
151.451 175 0 151.451 175
137.694 176 0 137.694 176
125.35 175 0 125.35 175
111.712 176.288 0 111.712 176.288
103 178.907 0 103 178.907
107 165.564 0 107 165.564
102.22 155 0 102.22 155
89.792 148.792 0 89.792 148.792
77.1911 143 0 77.1911 143
64.2621 138 0 64.2621 138
53.4072 146.593 0 53.4072 146.593
42.629 155.371 0 42.629 155.371
31.4367 164.563 0 31.4367 164.563
22 173.897 0 22 173.897
15.5874 181.413 0 15.5874 181.413
9.22348 193.777 0 9.22348 193.777
7 207.027 0 7 207.027
7 221.199 0 7 221.199
18.7133 222 0 18.7133 222
33.7135 222 0 33.7135 222
47.9188 220.081 0 47.9188 220.081
62.4711 219 0 62.4711 219
76 218.228 0 76 218.228
65.7674 227.233 0 65.7674 227.233
54.282 235.718 0 54.282 235.718
44.0896 245.91 0 44.0896 245.91
31.1977 249 0 31.1977 249
18.683 255 0 18.683 255
11 265.832 0 11 265.832
11 280.003 0 11 280.003
6 292.932 0 6 292.932
11.6091 305.609 0 11.6091 305.609
22.0944 315.094 0 22.0944 315.094
25 324.648 0 25 324.648
33.7488 335 0 33.7488 335
47.5062 338 0 47.5062 338
53 349.849 0 53 349.849
56 363.607 0 56 363.607
59 377.364 0 59 377.364
62 391.122 0 62 391.122
65 404.879 0 65 404.879
68 418.637 0 68 418.637
72 431.98 0 72 431.98
74.9357 444.936 0 74.9357 444.936
78.4713 458.471 0 78.4713 458.471
82.0069 472.007 0 82.0069 472.007
85 485.767 0 85 485.767
89 499.111 0 89 499.111
92 512.868 0 92 512.868
95.4422 526.442 0 95.4422 526.442
98.9778 539.978 0 98.9778 539.978
102 553.726 0 102 553.726
105 567.484 0 105 567.484
108.17 581.17 0 108.17 581.17
106.83 592 0 106.83 592
96 590.901 0 96 590.901
90.5576 583 0 90.5576 583
78.3231 578.323 0 78.3231 578.323
65.1138 576 0 65.1138 576
51.5447 574.545 0 51.5447 574.545
38.8413 569 0 38.8413 569
26.3264 565 0 26.3264 565
13.281 560.281 0 13.281 560.281
10.4683 557 0 10.4683 557
5 567.705 0 5 567.705
5 582.701 0 5 582.701
5 597.705 0 5 597.705
5 612.701 0 5 612.701
5 627.705 0 5 627.705
5 642.701 0 5 642.701
5 657.704 0 5 657.704
5 672.701 0 5 672.701
16.2806 677 0 16.2806 677
31.2968 677 0 31.2968 677
46.2883 677 0 46.2883 677
61.2799 677 0 61.2799 677
76.296 677 0 76.296 677
91.2876 677 0 91.2876 677
106.279 677 0 106.279 677
121.295 677 0 121.295 677
136.287 677 0 136.287 677
151.278 677 0 151.278 677
166.295 677 0 166.295 677
181.286 677 0 181.286 677
196.278 677 0 196.278 677
211.294 677 0 211.294 677
226.285 677 0 226.285 677
241.277 677 0 241.277 677
256.293 677 0 256.293 677
271.285 677 0 271.285 677
286.301 677 0 286.301 677
301.292 677 0 301.292 677
316.284 677 0 316.284 677
331.3 677 0 331.3 677
346.292 677 0 346.292 677
361.283 677 0 361.283 677
376.299 677 0 376.299 677
391.291 677 0 391.291 677
406.282 677 0 406.282 677
408 664.539 0 408 664.539
409 649.953 0 409 649.953
409 634.951 0 409 634.951
409 619.954 0 409 619.954
409 604.953 0 409 604.953
409 589.951 0 409 589.951
409 575.781 0 409 575.781
409 560.781 0 409 560.781
408.69 547.31 0 408.69 547.31
409 532.438 0 409 532.438
408 517.853 0 408 517.853
409 503.268 0 409 503.268
409 488.265 0 409 488.265
409 473.267 0 409 473.267
409 458.268 0 409 458.268
409 443.265 0 409 443.265
404.509 445 0 404.509 445
390.338 443 0 390.338 443
380 439.409 0 380 439.409
373.925 426.925 0 373.925 426.925
368.975 413.975 0 368.975 413.975
362.49 402.49 0 362.49 402.49
351.591 392.591 0 351.591 392.591
351.602 383.398 0 351.602 383.398
354 369.392 0 354 369.392
351 355.634 0 351 355.634
360.708 354 0 360.708 354
359.549 345.549 0 359.549 345.549
353 333.848 0 353 333.848
348 320.92 0 348 320.92
337.421 313.579 0 337.421 313.579
337 299.234 0 337 299.234
334 285.477 0 334 285.477
329.388 272.388 0 329.388 272.388
341.855 273.855 0 341.855 273.855
355.966 276 0 355.966 276
370.137 276 0 370.137 276
384.218 278.218 0 384.218 278.218
397.461 282.461 0 397.461 282.461
406 279.591 0 406 279.591
398.64 267.64 0 398.64 267.64
392.276 255.276 0 392.276 255.276
383.205 245.205 0 383.205 245.205
376 233.19 0 376 233.19
373 220.261 0 373 220.261
373 206.09 0 373 206.09
374.472 192.528 0 374.472 192.528
377 178.576 0 377 178.576
377 165.233 0 377 165.233
375 151.062 0 375 151.062
368.094 159.906 0 368.094 159.906
363.852 173.148 0 363.852 173.148
358.902 186.098 0 358.902 186.098
353 198.652 0 353 198.652
347 211.167 0 347 211.167
339.811 223.189 0 339.811 223.189
332.033 234.967 0 332.033 234.967
322.841 246.159 0 322.841 246.159
315.063 246.063 0 315.063 246.063
317 235.332 0 317 235.332
313 225.988 0 313 225.988
314 212.232 0 314 212.232
316 198.061 0 316 198.061
311.8 184.8 0 311.8 184.8
303.729 173.729 0 303.729 173.729
290.78 168.78 0 290.78 168.78
276.517 167 0 276.517 167
263.174 169 0 263.174 169
252.174 164.174 0 252.174 164.174
243 154.731 0 243 154.731
246.726 141.274 0 246.726 141.274
248 127.631 0 248 127.631
249 113.045 0 249 113.045
249 98.874 0 249 98.874
245 85.5312 0 245 85.5312
239.719 72.719 0 239.719 72.719
230.234 62.2338 0 230.234 62.2338
224.698 52.6984 0 224.698 52.6984
215.473 43 0 215.473 43
189 37 0 189 37
167.656 152.953 0 167.656 152.953
158.022 162.37 0 158.022 162.37
7.6154 562.292 0 7.6154 562.292
166.459 138.966 0 166.459 138.966
144.394 160.543 0 144.394 160.543
154.48 155.434 0 154.48 155.434
12.8954 568.181 0 12.8954 568.181
318.767 260.929 0 318.767 260.929
177.244 162.762 0 177.244 162.762
112.346 194.195 0 112.346 194.195
334.083 387.973 0 334.083 387.973
33.1114 189.872 0 33.1114 189.872
41.7484 314.336 0 41.7484 314.336
78.2267 597.319 0 78.2267 597.319
128.132 589.139 0 128.132 589.139
209.3 68.0116 0 209.3 68.0116
298.815 237.589 0 298.815 237.589
378.327 460.899 0 378.327 460.899
99.3211 612.083 0 99.3211 612.083
32.4669 272.918 0 32.4669 272.918
88.875 167.401 0 88.875 167.401
26.2988 586.664 0 26.2988 586.664
357.201 230.74 0 357.201 230.74
337.588 256.409 0 337.588 256.409
330.243 335.218 0 330.243 335.218
177.015 116.201 0 177.015 116.201
229.597 176.929 0 229.597 176.929
130.164 192.264 0 130.164 192.264
343.852 420.588 0 343.852 420.588
98.1501 432.865 0 98.1501 432.865
22.9774 202.896 0 22.9774 202.896
72.8278 333.458 0 72.8278 333.458
40.7662 260.485 0 40.7662 260.485
249.357 185.545 0 249.357 185.545
24.1025 292.502 0 24.1025 292.502
176.988 77.3348 0 176.988 77.3348
33.5698 635.203 0 33.5698 635.203
23.7887 659.665 0 23.7887 659.665
288.95 192.981 0 288.95 192.981
363.052 254.823 0 363.052 254.823
379.305 263.607 0 379.305 263.607
293.797 648.439 0 293.797 648.439
353.787 648.439 0 353.787 648.439
383.795 652.771 0 383.795 652.771
306.758 287.719 0 306.758 287.719
186.308 144.311 0 186.308 144.311
332.937 366.779 0 332.937 366.779
50.225 176.03 0 50.225 176.03
53.6351 198.546 0 53.6351 198.546
56.0795 596.249 0 56.0795 596.249
218.79 648.439 0 218.79 648.439
158.786 648.393 0 158.786 648.393
124.092 570.272 0 124.092 570.272
189.836 58.6026 0 189.836 58.6026
223.326 78.016 0 223.326 78.016
294.403 217.722 0 294.403 217.722
298.453 258.096 0 298.453 258.096
394.194 465.767 0 394.194 465.767
380.418 495.767 0 380.418 495.767
113.787 648.393 0 113.787 648.393
22.3977 605.203 0 22.3977 605.203
164.655 107.91 0 164.655 107.91
220.713 118.433 0 220.713 118.433
184.034 190.967 0 184.034 190.967
145.592 189.532 0 145.592 189.532
358.546 425.382 0 358.546 425.382
116.71 500.274 0 116.71 500.274
105.269 458.701 0 105.269 458.701
91.2275 447.91 0 91.2275 447.91
85.4728 420.67 0 85.4728 420.67
38.8575 206.54 0 38.8575 206.54
88.0377 242.225 0 88.0377 242.225
83.7097 364.77 0 83.7097 364.77
67.2233 258.852 0 67.2233 258.852
170.365 63.6537 0 170.365 63.6537
68.788 648.393 0 68.788 648.393
301.038 203.176 0 301.038 203.176
272.385 184.943 0 272.385 184.943
380.424 568.281 0 380.424 568.281
323.792 648.393 0 323.792 648.393
308.788 659.769 0 308.788 659.769
278.793 659.766 0 278.793 659.766
338.796 659.769 0 338.796 659.769
380.42 612.454 0 380.42 612.454
368.791 661.403 0 368.791 661.403
321.111 295.493 0 321.111 295.493
56.8762 161.858 0 56.8762 161.858
68.4189 204.295 0 68.4189 204.295
203.786 659.766 0 203.786 659.766
248.785 648.393 0 248.785 648.393
233.781 659.769 0 233.781 659.769
143.783 659.744 0 143.783 659.744
173.79 659.744 0 173.79 659.744
126.681 541.094 0 126.681 541.094
228.638 97.7073 0 228.638 97.7073
392.106 509.436 0 392.106 509.436
98.7834 659.744 0 98.7834 659.744
181.091 96.7653 0 181.091 96.7653
231.021 132.926 0 231.021 132.926
164.592 188.745 0 164.592 188.745
364.945 439.015 0 364.945 439.015
109.043 515.77 0 109.043 515.77
103.365 487.533 0 103.365 487.533
143.083 220.291 0 143.083 220.291
89.7096 392.285 0 89.7096 392.285
70.3128 353.28 0 70.3128 353.28
68.502 242.95 0 68.502 242.95
55.1943 279.102 0 55.1943 279.102
53.7841 659.744 0 53.7841 659.744
391.868 582.866 0 391.868 582.866
380.827 539.29 0 380.827 539.29
392.061 554.432 0 392.061 554.432
391.758 627.453 0 391.758 627.453
70.7314 177.008 0 70.7314 177.008
90.8174 201.137 0 90.8174 201.137
393.415 526.18 0 393.415 526.18
345.741 439.712 0 345.741 439.712
76.3128 380.795 0 76.3128 380.795
270.443 210.032 0 270.443 210.032
299.125 318.951 0 299.125 318.951
271.306 634.246 0 271.306 634.246
136.287 634.244 0 136.287 634.244
187.914 625.484 0 187.914 625.484
92.4942 635.839 0 92.4942 635.839
203.685 90.7169 0 203.685 90.7169
208.513 138.023 0 208.513 138.023
132.926 517.941 0 132.926 517.941
128.367 474.705 0 128.367 474.705
123.333 212.404 0 123.333 212.404
108.349 409.576 0 108.349 409.576
88.5873 345.528 0 88.5873 345.528
367.294 590.366 0 367.294 590.366
368.672 517.641 0 368.672 517.641
369.682 632.355 0 369.682 632.355
223.064 218.881 0 223.064 218.881
65.9611 621.461 0 65.9611 621.461
171.279 216.41 0 171.279 216.41
356.073 459.473 0 356.073 459.473
276.573 232.105 0 276.573 232.105
293.134 379.56 0 293.134 379.56
162.056 572.009 0 162.056 572.009
204.006 164.457 0 204.006 164.457
121.401 245.915 0 121.401 245.915
122.807 364.442 0 122.807 364.442
338.837 617.769 0 338.837 617.769
308.362 433.748 0 308.362 433.748
103.702 309.469 0 103.702 309.469
322.64 464.372 0 322.64 464.372
233.711 599.396 0 233.711 599.396
137.081 436.036 0 137.081 436.036
333.505 551.622 0 333.505 551.622
346.965 491.894 0 346.965 491.894
249.247 227.805 0 249.247 227.805
160.71 537.853 0 160.71 537.853
301.49 611.33 0 301.49 611.33
86.0536 283.735 0 86.0536 283.735
162.766 258.932 0 162.766 258.932
256.406 271.288 0 256.406 271.288
119.592 279.653 0 119.592 279.653
225.702 254.012 0 225.702 254.012
296.575 511.92 0 296.575 511.92
172.617 491.898 0 172.617 491.898
210.382 553 0 210.382 553
160.432 320.56 0 160.432 320.56
273.787 468.509 0 273.787 468.509
215.057 308.854 0 215.057 308.854
243.718 511.98 0 243.718 511.98
258.341 418.571 0 258.341 418.571
218.152 458.36 0 218.152 458.36
236.282 363.877 0 236.282 363.877
3 206 225 30
3 207 48 229
3 29 206 30
3 30 225 31
3 20 204 309
3 34 33 32
3 225 265 35
3 243 282 37
3 27 281 242
3 35 265 36
3 243 37 36
3 25 24 281
3 206 28 242
3 35 34 225
3 43 214 44
3 45 229 46
3 214 229 45
3 42 227 43
3 40 39 301
3 44 214 45
3 41 301 268
3 207 51 50
3 266 39 38
3 31 225 32
3 350 207 302
3 215 281 24
3 2 269 3
3 22 215 23
3 256 220 7
3 7 220 198
3 248 269 0
3 230 292 4
3 198 9 7
3 10 198 195
3 9 8 7
3 195 14 11
3 21 20 215
3 204 19 18
3 222 18 17
3 309 204 323
3 215 22 21
3 200 13 12
3 11 10 195
3 13 199 12
3 323 222 298
3 196 13 200
3 195 203 14
3 19 204 20
3 0 194 248
3 215 24 23
3 227 42 41
3 148 280 239
3 78 197 79
3 49 207 50
3 78 77 201
3 197 78 201
3 197 201 80
3 207 226 51
3 299 264 56
3 144 219 145
3 300 267 53
3 48 207 49
3 77 76 216
3 14 203 15
3 81 201 216
3 216 255 82
3 84 231 85
3 231 232 85
3 75 244 216
3 86 232 87
3 255 83 82
3 88 87 232
3 320 240 220
3 89 88 232
3 232 303 89
3 244 74 208
3 6 256 7
3 216 82 81
3 198 10 9
3 58 264 224
3 53 52 300
3 322 344 356
3 263 59 224
3 296 66 65
3 60 262 61
3 297 61 262
3 296 63 261
3 66 288 67
3 63 62 297
3 59 263 60
3 73 72 208
3 208 72 71
3 91 90 303
3 91 270 92
3 213 208 71
3 208 74 73
3 70 69 209
3 286 95 254
3 291 254 94
3 196 200 11
3 94 93 291
3 216 201 77
3 95 94 254
3 246 286 316
3 245 102 101
3 53 267 54
3 64 296 65
3 203 258 15
3 193 210 248
3 213 70 209
3 137 223 205
3 210 193 192
3 210 191 249
3 191 210 192
3 190 189 249
3 187 186 293
3 293 257 187
3 240 198 220
3 195 240 203
3 289 249 189
3 240 320 336
3 180 179 233
3 272 180 233
3 233 179 178
3 178 177 271
3 233 178 271
3 211 250 175
3 271 177 176
3 173 211 174
3 218 202 172
3 211 175 174
3 183 228 221
3 173 172 202
3 166 165 163
3 167 166 162
3 169 168 160
3 169 159 217
3 167 161 168
3 163 162 166
3 167 162 161
3 160 168 161
3 160 159 169
3 165 164 163
3 159 158 217
3 148 202 218
3 172 171 218
3 149 148 218
3 151 150 234
3 149 218 234
3 148 147 280
3 152 151 235
3 156 155 235
3 153 152 155
3 155 154 153
3 235 155 152
3 156 235 157
3 169 217 170
3 203 336 258
3 127 290 253
3 147 146 280
3 219 143 140
3 140 139 241
3 96 286 97
3 134 295 260
3 139 138 241
3 144 143 219
3 280 145 314
3 142 141 140
3 223 137 136
3 241 138 205
3 223 136 260
3 140 143 142
3 246 98 97
3 246 287 98
3 98 287 99
3 302 227 268
3 102 245 285
3 102 285 103
3 240 195 198
3 100 283 101
3 239 202 148
3 107 106 236
3 107 236 275
3 274 109 108
3 110 237 279
3 259 17 16
3 275 108 107
3 276 106 105
3 221 184 183
3 135 134 260
3 212 133 132
3 131 129 252
3 132 131 252
3 288 247 67
3 252 129 128
3 127 253 252
3 290 126 125
3 290 127 126
3 190 249 191
3 230 4 3
3 129 131 130
3 123 122 306
3 119 278 304
3 112 238 113
3 120 304 121
3 138 137 205
3 113 238 115
3 114 113 115
3 57 56 264
3 121 304 306
3 278 119 118
3 303 270 91
3 70 213 71
3 117 307 118
3 238 307 116
3 46 229 47
3 238 116 115
3 28 27 242
3 29 28 206
3 279 238 112
3 214 43 227
3 278 118 307
3 68 247 69
3 247 68 67
3 260 136 135
3 204 18 222
3 173 202 251
3 248 194 193
3 92 270 291
3 81 80 201
3 76 75 216
3 74 244 75
3 158 157 234
3 171 170 217
3 171 217 218
3 218 217 234
3 264 299 324
3 55 299 56
3 256 6 5
3 319 210 249
3 228 183 182
3 228 313 347
3 294 259 16
3 226 52 51
3 295 212 332
3 247 209 69
3 59 58 224
3 264 58 57
3 34 32 225
3 243 265 206
3 17 259 222
3 251 202 239
3 41 40 301
3 268 227 41
3 180 272 181
3 173 251 211
3 229 214 302
3 48 47 229
3 1 269 2
3 292 230 319
3 84 83 255
3 318 330 213
3 85 232 86
3 232 231 303
3 272 182 181
3 176 175 250
3 234 150 149
3 158 234 217
3 151 234 235
3 157 235 234
3 276 105 104
3 253 212 252
3 277 110 109
3 110 277 237
3 307 238 328
3 279 112 111
3 241 334 219
3 294 331 259
3 257 320 220
3 203 240 336
3 262 224 344
3 219 140 241
3 281 27 26
3 38 37 282
3 206 242 243
3 281 308 242
3 330 244 208
3 255 244 231
3 288 335 247
3 106 276 236
3 246 316 317
3 245 101 283
3 64 63 296
3 311 295 332
3 210 230 248
3 248 230 269
3 188 289 189
3 187 257 289
3 250 211 333
3 313 272 233
3 353 341 350
3 313 228 272
3 127 252 128
3 132 252 212
3 121 306 122
3 276 284 315
3 316 213 209
3 286 246 97
3 84 255 231
3 244 255 216
3 4 256 5
3 256 4 292
3 186 185 293
3 256 292 220
3 329 221 228
3 352 239 314
3 294 16 15
3 222 323 204
3 133 295 134
3 295 133 212
3 297 261 63
3 260 311 223
3 324 224 264
3 311 340 223
3 224 262 263
3 262 60 263
3 55 54 312
3 312 299 55
3 206 265 225
3 243 36 265
3 266 38 309
3 298 222 259
3 267 300 325
3 280 314 239
3 350 266 353
3 227 302 214
3 269 1 0
3 3 269 230
3 231 244 330
3 318 254 291
3 176 250 271
3 250 233 271
3 313 233 250
3 228 182 272
3 236 276 315
3 125 310 290
3 236 315 349
3 326 273 304
3 236 274 275
3 274 108 275
3 284 104 103
3 276 104 284
3 109 274 277
3 274 237 277
3 339 328 237
3 306 304 273
3 110 279 111
3 328 279 237
3 146 145 280
3 314 145 219
3 281 26 25
3 308 281 215
3 308 243 242
3 215 309 308
3 287 100 99
3 283 287 317
3 283 317 245
3 209 335 317
3 245 284 285
3 284 103 285
3 95 286 96
3 316 286 254
3 287 246 317
3 100 287 283
3 261 322 321
3 245 317 343
3 187 289 188
3 319 220 292
3 124 310 125
3 306 310 123
3 92 291 93
3 254 318 213
3 319 230 210
3 319 257 220
3 185 184 293
3 221 336 184
3 15 258 294
3 258 331 294
3 212 253 332
3 260 295 311
3 321 296 261
3 66 296 288
3 61 297 62
3 322 297 262
3 258 221 329
3 323 337 266
3 364 360 314
3 344 322 262
3 52 226 300
3 325 300 226
3 39 266 301
3 266 268 301
3 268 350 302
3 229 302 207
3 303 90 89
3 231 270 303
3 119 304 120
3 326 304 278
3 345 326 339
3 310 327 290
3 273 305 306
3 310 306 305
3 116 307 117
3 238 279 328
3 309 215 20
3 243 308 282
3 38 282 309
3 309 282 308
3 123 310 124
3 327 310 305
3 253 290 327
3 321 288 296
3 54 267 312
3 267 299 312
3 251 333 211
3 259 331 298
3 334 241 205
3 267 325 338
3 245 343 284
3 273 326 345
3 213 316 254
3 317 316 209
3 335 209 247
3 321 348 288
3 291 270 318
3 318 270 330
3 249 289 319
3 257 319 289
3 257 293 320
3 320 293 184
3 261 297 322
3 253 346 332
3 224 324 344
3 205 340 334
3 337 323 298
3 309 323 266
3 338 299 267
3 314 219 334
3 226 350 341
3 341 353 358
3 278 328 339
3 278 339 326
3 305 273 345
3 348 335 288
3 237 274 339
3 278 307 328
3 333 313 250
3 347 329 228
3 330 208 213
3 231 330 270
3 258 329 331
3 341 358 338
3 327 346 253
3 311 342 340
3 239 352 251
3 313 333 347
3 205 223 340
3 324 299 338
3 342 355 359
3 335 357 317
3 184 336 320
3 258 336 221
3 351 298 331
3 350 226 207
3 325 226 341
3 364 338 358
3 349 274 236
3 355 349 343
3 340 342 359
3 332 342 311
3 337 298 351
3 338 325 341
3 345 327 305
3 284 343 315
3 357 335 348
3 346 345 355
3 338 344 324
3 340 359 362
3 339 274 349
3 346 355 342
3 345 346 327
3 342 332 346
3 352 333 251
3 352 347 333
3 321 322 356
3 321 356 348
3 343 349 315
3 345 339 349
3 268 266 350
3 353 266 337
3 329 354 331
3 352 354 347
3 334 362 364
3 347 354 329
3 337 351 353
3 353 351 358
3 351 360 358
3 331 354 351
3 349 355 345
3 357 348 356
3 334 340 362
3 343 317 357
3 356 363 361
3 343 357 361
3 354 360 351
3 360 354 352
3 361 359 355
3 364 363 344
3 352 314 360
3 364 314 334
3 343 361 355
3 356 361 357
3 363 362 359
3 338 364 344
3 361 363 359
3 344 363 356
3 362 363 364
3 358 360 364
