ply
format ascii 1.0
element vertex 182
property float x
property float y
property float z
property float u
property float v
element face 210
property list uchar int vertex_indices
end_header
167.657 100 0 167.657 100
169.615 108 0 169.615 108
189.142 109.142 0 189.142 109.142
172.456 113 0 172.456 113
154.527 118 0 154.527 118
136.184 114 0 136.184 114
118.255 113 0 118.255 113
99.9376 114.938 0 99.9376 114.938
83.6397 112 0 83.6397 112
64.8823 111 0 64.8823 111
80.4608 116 0 80.4608 116
96.104 125.104 0 96.104 125.104
115.319 127 0 115.319 127
129.418 138.418 0 129.418 138.418
147.367 143.367 0 147.367 143.367
166.691 143 0 166.691 143
185.61 143.61 0 185.61 143.61
168.794 148 0 168.794 148
154.721 156 0 154.721 156
173.478 159 0 173.478 159
192.235 160 0 192.235 160
210.578 156 0 210.578 156
229.336 153 0 229.336 153
243.844 164.844 0 243.844 164.844
259.638 175 0 259.638 175
277.567 180 0 277.567 180
295.643 184.643 0 295.643 184.643
314.667 187 0 314.667 187
334.667 187 0 334.667 187
353.425 188 0 353.425 188
369.786 196.786 0 369.786 196.786
364.617 210 0 364.617 210
345.031 209 0 345.031 209
359.07 217 0 359.07 217
376.999 222 0 376.999 222
394.07 229.07 0 394.07 229.07
391.737 244.263 0 391.737 244.263
372.909 247.091 0 372.909 247.091
362.041 253.041 0 362.041 253.041
361.256 263 0 361.256 263
345 264.327 0 345 264.327
346 245.569 0 346 245.569
333.125 232 0 333.125 232
316.025 225 0 316.025 225
296.853 223 0 296.853 223
280.118 230.882 0 280.118 230.882
266.925 241.075 0 266.925 241.075
251.794 248 0 251.794 248
232.208 249 0 232.208 249
213.612 252.388 0 213.612 252.388
195.954 258.046 0 195.954 258.046
180.055 267.945 0 180.055 267.945
166.327 281.673 0 166.327 281.673
158.948 298 0 158.948 298
141.599 291.599 0 141.599 291.599
123.504 287 0 123.504 287
105.575 290 0 105.575 290
115.665 296.665 0 115.665 296.665
122.436 305.436 0 122.436 305.436
105.101 299 0 105.101 299
86.3438 302 0 86.3438 302
68.0005 298 0 68.0005 298
49.6573 302 0 49.6573 302
31.8078 299.192 0 31.8078 299.192
45.5441 309 0 45.5441 309
64.3016 310 0 64.3016 310
80.988 318 0 80.988 318
99.7454 317 0 99.7454 317
108.74 323 0 108.74 323
102.775 329 0 102.775 329
119.047 338 0 119.047 338
138.448 338.552 0 138.448 338.552
143.437 342 0 143.437 342
124.481 344.519 0 124.481 344.519
138.883 352.883 0 138.883 352.883
158.421 354 0 158.421 354
176.764 350 0 176.764 350
194.279 344 0 194.279 344
212.733 342.267 0 212.733 342.267
230.097 335.903 0 230.097 335.903
244.118 322.882 0 244.118 322.882
256 308.976 0 256 308.976
256.447 290.447 0 256.447 290.447
244.548 276.548 0 244.548 276.548
253.569 272 0 253.569 272
270.231 275.231 0 270.231 275.231
283.959 288.959 0 283.959 288.959
299.565 299.565 0 299.565 299.565
316.486 307 0 316.486 307
334.829 309 0 334.829 309
353.415 312.415 0 353.415 312.415
372.344 313 0 372.344 313
371.315 322.315 0 371.315 322.315
390.202 323 0 390.202 323
409.788 324 0 409.788 324
403.525 330 0 403.525 330
384.836 333.164 0 384.836 333.164
367.253 337 0 367.253 337
349.229 339.771 0 349.229 339.771
336 348.434 0 336 348.434
352.948 351 0 352.948 351
371.291 355 0 371.291 355
388.862 351.138 0 388.862 351.138
408.569 351.569 0 408.569 351.569
427.977 351 0 427.977 351
445.347 344.653 0 445.347 344.653
461.539 335.461 0 461.539 335.461
478.317 327.683 0 478.317 327.683
490.216 313.784 0 490.216 313.784
507.287 309.287 0 507.287 309.287
524.92 315 0 524.92 315
544.065 312.935 0 544.065 312.935
560.55 304.45 0 560.55 304.45
574 290.607 0 574 290.607
580 273.093 0 580 273.093
582 253.921 0 582 253.921
577.005 235.995 0 577.005 235.995
586 224.064 0 586 224.064
584.51 205.51 0 584.51 205.51
576.732 188.732 0 576.732 188.732
565.419 173.419 0 565.419 173.419
550.977 160 0 550.977 160
533.877 153 0 533.877 153
515.534 149 0 515.534 149
504 134.676 0 504 134.676
491.457 120.457 0 491.457 120.457
476.144 109.144 0 476.144 109.144
458.275 104 0 458.275 104
439.073 105.927 0 439.073 105.927
421.589 112 0 421.589 112
407.517 110.517 0 407.517 110.517
389.388 114 0 389.388 114
373.531 124 0 373.531 124
357.188 128 0 357.188 128
338.598 131.402 0 338.598 131.402
321.745 139 0 321.745 139
324.769 144 0 324.769 144
343.112 148 0 343.112 148
331.959 154 0 331.959 154
318.445 158 0 318.445 158
299.688 161 0 299.688 161
308.998 153.002 0 308.998 153.002
315 135.488 0 315 135.488
304.738 119.738 0 304.738 119.738
288.772 110 0 288.772 110
270.016 107 0 270.016 107
252.94 99.9403 0 252.94 99.9403
234.159 97 0 234.159 97
215.815 99 0 215.815 99
186 96 0 186 96
88.9188 119.459 0 88.9188 119.459
159.93 148.786 0 159.93 148.786
176.195 141.946 0 176.195 141.946
179.549 105.663 0 179.549 105.663
163.32 114.884 0 163.32 114.884
150.231 326.835 0 150.231 326.835
330.921 136.864 0 330.921 136.864
417.334 338.145 0 417.334 338.145
170.772 127.932 0 170.772 127.932
242.362 260.989 0 242.362 260.989
288.626 138.706 0 288.626 138.706
346.874 168.359 0 346.874 168.359
410.558 149.167 0 410.558 149.167
563.593 216.527 0 563.593 216.527
433.83 242.951 0 433.83 242.951
239.294 125.65 0 239.294 125.65
289.118 256.165 0 289.118 256.165
209.031 296.765 0 209.031 296.765
319.166 277.928 0 319.166 277.928
355.06 287.347 0 355.06 287.347
529.752 270.016 0 529.752 270.016
439.008 314.629 0 439.008 314.629
177.203 322.719 0 177.203 322.719
372.039 153.293 0 372.039 153.293
440.343 137.786 0 440.343 137.786
526.623 195.106 0 526.623 195.106
552.918 252.366 0 552.918 252.366
488.459 272.455 0 488.459 272.455
464.44 303.759 0 464.44 303.759
472.821 149.538 0 472.821 149.538
402.02 283.847 0 402.02 283.847
441.475 185.414 0 441.475 185.414
3 10 9 8
3 12 7 6
3 150 7 11
3 0 149 153
3 12 6 5
3 10 8 150
3 5 14 13
3 13 12 5
3 12 11 7
3 154 158 4
3 151 19 18
3 151 17 19
3 152 19 17
3 15 14 4
3 14 5 4
3 152 16 19
3 149 148 2
3 2 21 16
3 158 2 16
3 2 148 165
3 147 146 165
3 22 165 23
3 145 160 165
3 23 160 24
3 165 148 147
3 2 165 21
3 21 20 16
3 49 48 159
3 165 160 23
3 45 166 46
3 47 46 85
3 160 25 24
3 159 47 84
3 166 86 85
3 20 19 16
3 157 94 171
3 60 65 61
3 61 65 62
3 63 62 64
3 56 55 57
3 58 57 55
3 60 59 67
3 155 58 54
3 58 68 59
3 65 64 62
3 66 65 60
3 60 67 66
3 69 68 70
3 70 68 58
3 73 71 74
3 67 59 68
3 71 70 58
3 58 55 54
3 7 150 8
3 52 51 167
3 49 167 50
3 83 159 84
3 51 50 167
3 166 85 46
3 167 49 83
3 47 85 84
3 81 167 82
3 71 155 72
3 74 71 72
3 72 75 74
3 72 155 75
3 76 155 172
3 155 71 58
3 78 77 172
3 52 167 172
3 78 172 167
3 80 79 167
3 81 80 167
3 54 53 155
3 11 10 150
3 144 143 160
3 104 103 157
3 142 141 160
3 141 140 160
3 134 133 137
3 156 138 136
3 156 137 138
3 138 137 161
3 173 161 137
3 26 140 27
3 26 25 140
3 168 40 169
3 140 139 27
3 139 138 28
3 33 32 31
3 161 28 138
3 28 27 139
3 133 132 173
3 142 160 143
3 162 132 131
3 131 130 162
3 130 129 162
3 126 174 127
3 123 179 124
3 162 129 174
3 136 135 156
3 174 128 127
3 29 173 30
3 181 174 179
3 31 30 34
3 34 30 35
3 31 34 33
3 120 175 121
3 126 179 174
3 119 163 120
3 118 117 163
3 75 155 76
3 76 172 77
3 118 163 119
3 175 120 163
3 137 156 134
3 161 173 29
3 117 116 163
3 87 168 88
3 42 40 168
3 89 88 168
3 168 86 166
3 39 38 37
3 169 89 168
3 40 39 169
3 41 40 42
3 39 37 180
3 99 98 100
3 100 98 97
3 97 101 100
3 101 96 102
3 101 97 96
3 95 102 96
3 93 92 91
3 169 91 90
3 36 180 37
3 36 35 164
3 170 110 109
3 110 170 111
3 123 122 175
3 106 178 107
3 113 176 114
3 170 113 112
3 170 112 111
3 149 2 153
3 113 170 176
3 170 109 177
3 0 153 1
3 180 93 91
3 157 95 94
3 95 157 103
3 103 102 95
3 105 104 157
3 171 105 157
3 171 178 106
3 171 106 105
3 180 164 171
3 16 152 158
3 169 180 91
3 15 4 158
3 154 3 158
3 166 44 43
3 15 158 152
3 158 3 2
3 49 159 83
3 47 159 48
3 160 140 25
3 145 144 160
3 137 133 173
3 28 161 29
3 128 174 129
3 30 162 181
3 176 115 114
3 121 175 122
3 30 181 35
3 115 176 116
3 145 165 146
3 165 22 21
3 44 166 45
3 166 43 42
3 83 82 167
3 78 167 79
3 42 168 166
3 86 168 87
3 89 169 90
3 169 39 180
3 177 109 108
3 181 162 174
3 180 94 93
3 164 177 178
3 155 53 172
3 172 53 52
3 132 162 173
3 30 173 162
3 125 179 126
3 179 125 124
3 176 175 163
3 175 170 177
3 175 176 170
3 163 116 176
3 178 108 107
3 175 177 164
3 164 178 171
3 177 108 178
3 123 175 179
3 181 175 164
3 164 180 36
3 171 94 180
3 175 181 179
3 35 181 164
