ply
format ascii 1.0
element vertex 385
property float x
property float y
property float z
property float u
property float v
element face 562
property list uchar int vertex_indices
end_header
247.222 8.77817 0 247.222 8.77817
240 20.7868 0 240 20.7868
238 34.9585 0 238 34.9585
238 49.9582 0 238 49.9582
238 64.9584 0 238 64.9584
238 79.9585 0 238 79.9585
238 94.9582 0 238 94.9582
238 109.958 0 238 109.958
238 124.958 0 238 124.958
238 139.959 0 238 139.959
238 154.958 0 238 154.958
238 169.958 0 238 169.958
238 184.959 0 238 184.959
238 199.958 0 238 199.958
238 214.958 0 238 214.958
238 229.959 0 238 229.959
235.908 244.092 0 235.908 244.092
223.355 248 0 223.355 248
217 235.84 0 217 235.84
217 220.841 0 217 220.841
217 205.841 0 217 205.841
217 190.841 0 217 190.841
217 175.841 0 217 175.841
217 160.84 0 217 160.84
217 145.841 0 217 145.841
217 130.841 0 217 130.841
217 115.84 0 217 115.84
217 100.841 0 217 100.841
217 85.8408 0 217 85.8408
217 70.8404 0 217 70.8404
212.645 57.6447 0 212.645 57.6447
202.225 48 0 202.225 48
190.21 42.2097 0 190.21 42.2097
175.711 43 0 175.711 43
163.431 49.5686 0 163.431 49.5686
154.653 60.3468 0 154.653 60.3468
151.118 73.8824 0 151.118 73.8824
151 88.8341 0 151 88.8341
151 103.834 0 151 103.834
151 118.834 0 151 118.834
151 133.833 0 151 133.833
151 148.833 0 151 148.833
151 163.833 0 151 163.833
151 178.835 0 151 178.835
151 193.834 0 151 193.834
151 208.834 0 151 208.834
151 223.834 0 151 223.834
151 238.834 0 151 238.834
151 253.833 0 151 253.833
151 268.833 0 151 268.833
151 283.833 0 151 283.833
151 298.833 0 151 298.833
151 313.835 0 151 313.835
151 328.834 0 151 328.834
149.703 342.703 0 149.703 342.703
141 331.308 0 141 331.308
132.733 319.733 0 132.733 319.733
124.662 308.662 0 124.662 308.662
116.176 297.176 0 116.176 297.176
108 285.563 0 108 285.563
98.6199 275.62 0 98.6199 275.62
86.3619 269 0 86.3619 269
73.0186 265 0 73.0186 265
58.847 267 0 58.847 267
46.942 273.058 0 46.942 273.058
38 283.768 0 38 283.768
32.5069 296.493 0 32.5069 296.493
32 311.283 0 32 311.283
37 324.212 0 37 324.212
44.2212 336.221 0 44.2212 336.221
51.2923 348.292 0 51.2923 348.292
59.7776 359.778 0 59.7776 359.778
67 371.786 0 67 371.786
74.6271 383.627 0 74.6271 383.627
82.4054 395.405 0 82.4054 395.405
90.1836 407.184 0 90.1836 407.184
98.669 418.669 0 98.669 418.669
105.74 430.74 0 105.74 430.74
114 442.319 0 114 442.319
122 454.005 0 122 454.005
129.782 465.782 0 129.782 465.782
137 477.792 0 137 477.792
145 489.479 0 145 489.479
153.824 500.824 0 153.824 500.824
163.309 511.309 0 163.309 511.309
173.502 521.502 0 173.502 521.502
184.987 529.987 0 184.987 529.987
196.351 537.351 0 196.351 537.351
208.597 544 0 208.597 544
221.372 549.372 0 221.372 549.372
233.87 554 0 233.87 554
247.213 558 0 247.213 558
261.272 560.272 0 261.272 560.272
275.141 563 0 275.141 563
290.141 563 0 290.141 563
305.142 563 0 305.142 563
320.142 563 0 320.142 563
335.142 563 0 335.142 563
349.728 562 0 349.728 562
363.899 560 0 363.899 560
377.243 556 0 377.243 556
390.414 551.586 0 390.414 551.586
403.101 546 0 403.101 546
415.142 538.858 0 415.142 538.858
426.628 530.372 0 426.628 530.372
437.527 520.473 0 437.527 520.473
447.427 509.573 0 447.427 509.573
454.498 497.502 0 454.498 497.502
461 486.609 0 461 486.609
466.226 473.774 0 466.226 473.774
471 461.337 0 471 461.337
474 447.58 0 474 447.58
476 433.408 0 476 433.408
478 419.236 0 478 419.236
479 405.478 0 479 405.478
479 390.482 0 479 390.482
479 375.476 0 479 375.476
479 360.48 0 479 360.48
479 345.483 0 479 345.483
479 330.478 0 479 330.478
479 315.481 0 479 315.481
479 300.476 0 479 300.476
479 285.479 0 479 285.479
479 270.483 0 479 270.483
479 255.478 0 479 255.478
479 240.481 0 479 240.481
479 225.476 0 479 225.476
479 210.479 0 479 210.479
479 195.483 0 479 195.483
479 180.477 0 479 180.477
479 165.481 0 479 165.481
479 150.476 0 479 150.476
479 135.479 0 479 135.479
479 120.483 0 479 120.483
476 106.722 0 476 106.722
468.621 95 0 468.621 95
456.521 88 0 456.521 88
442.833 85.1671 0 442.833 85.1671
429.835 90 0 429.835 90
419.52 98.4805 0 419.52 98.4805
413 110.194 0 413 110.194
412 124.777 0 412 124.777
412 139.783 0 412 139.783
412 154.779 0 412 154.779
412 169.776 0 412 169.776
412 184.781 0 412 184.781
412 199.778 0 412 199.778
412 214.783 0 412 214.783
412 229.779 0 412 229.779
412 244.776 0 412 244.776
412 259.781 0 412 259.781
403.706 270 0 403.706 270
393 264.191 0 393 264.191
391 250.014 0 391 250.014
391 235.024 0 391 235.024
391 220.021 0 391 220.021
391 205.019 0 391 205.019
391 190.016 0 391 190.016
391 175.014 0 391 175.014
391 160.024 0 391 160.024
391 145.022 0 391 145.022
391 130.019 0 391 130.019
391 115.016 0 391 115.016
391 100.014 0 391 100.014
391 85.0244 0 391 85.0244
391 70.0218 0 391 70.0218
391 55.0192 0 391 55.0192
388.893 40.8928 0 388.893 40.8928
380.822 29.822 0 380.822 29.822
369.062 22 0 369.062 22
354.923 20.0773 0 354.923 20.0773
341.973 25.0269 0 341.973 25.0269
331.902 34.0978 0 331.902 34.0978
326 46.0671 0 326 46.0671
325 60.6562 0 325 60.6562
325 75.6562 0 325 75.6562
325 90.6562 0 325 90.6562
325 105.656 0 325 105.656
325 120.656 0 325 120.656
325 135.656 0 325 135.656
325 150.656 0 325 150.656
325 165.656 0 325 165.656
325 180.656 0 325 180.656
325 195.656 0 325 195.656
325 210.656 0 325 210.656
325 225.656 0 325 225.656
324.538 240.462 0 324.538 240.462
314.247 249 0 314.247 249
304.811 239.811 0 304.811 239.811
304 225.141 0 304 225.141
304 210.152 0 304 210.152
304 195.149 0 304 195.149
304 180.147 0 304 180.147
304 165.144 0 304 165.144
304 150.142 0 304 150.142
304 135.152 0 304 135.152
304 120.15 0 304 120.15
304 105.147 0 304 105.147
304 90.1444 0 304 90.1444
304 75.1418 0 304 75.1418
304 60.1523 0 304 60.1523
304 45.1497 0 304 45.1497
304 30.1472 0 304 30.1472
300.568 16.5681 0 300.568 16.5681
291.376 5.37598 0 291.376 5.37598
278.189 1 0 278.189 1
259 1 0 259 1
185.186 67.9963 0 185.186 67.9963
64.4357 292.709 0 64.4357 292.709
237.077 269.96 0 237.077 269.96
236.437 527.877 0 236.437 527.877
351.754 51.3269 0 351.754 51.3269
438.575 116.758 0 438.575 116.758
387.287 287.492 0 387.287 287.492
436.997 479.668 0 436.997 479.668
427.321 280.692 0 427.321 280.692
292.022 262.382 0 292.022 262.382
335.659 264.338 0 335.659 264.338
448.182 459.713 0 448.182 459.713
188.424 108.34 0 188.424 108.34
179.58 171.334 0 179.58 171.334
179.576 216.334 0 179.576 216.334
266.489 28.5409 0 266.489 28.5409
275.443 67.6471 0 275.443 67.6471
266.577 102.458 0 266.577 102.458
266.576 147.458 0 266.576 147.458
266.577 207.458 0 266.577 207.458
107.605 329.574 0 107.605 329.574
108.733 386.476 0 108.733 386.476
156.272 458.036 0 156.272 458.036
179.576 261.333 0 179.576 261.333
353.577 98.1562 0 353.577 98.1562
353.577 173.156 0 353.577 173.156
450.413 157.978 0 450.413 157.978
362.418 137.52 0 362.418 137.52
440.57 192.279 0 440.57 192.279
362.418 227.523 0 362.418 227.523
362.95 532.58 0 362.95 532.58
440.57 237.278 0 440.57 237.278
168.181 71.1101 0 168.181 71.1101
201.152 68.7543 0 201.152 68.7543
75.5069 280.955 0 75.5069 280.955
61.3673 317.735 0 61.3673 317.735
48.6256 295.903 0 48.6256 295.903
176.774 338.239 0 176.774 338.239
220.772 532.924 0 220.772 532.924
297.641 534.422 0 297.641 534.422
257.782 537.231 0 257.782 537.231
353.48 35.7164 0 353.48 35.7164
370.287 45.9796 0 370.287 45.9796
342.619 68.1562 0 342.619 68.1562
441.34 101.048 0 441.34 101.048
458.876 117.662 0 458.876 117.662
428.762 132.28 0 428.762 132.28
450.43 352.981 0 450.43 352.981
451.3 475.179 0 451.3 475.179
438.155 496.036 0 438.155 496.036
453.633 277.981 0 453.633 277.981
263.88 241.011 0 263.88 241.011
364.989 260.913 0 364.989 260.913
452.289 410.452 0 452.289 410.452
453.483 437.457 0 453.483 437.457
170.886 96.334 0 170.886 96.334
199.759 93.3407 0 199.759 93.3407
199.759 123.341 0 199.759 123.341
173.286 126.334 0 173.286 126.334
168.243 156.333 0 168.243 156.333
194.716 153.34 0 194.716 153.34
197.115 183.341 0 197.115 183.341
168.243 186.335 0 168.243 186.335
197.114 228.341 0 197.114 228.341
168.241 231.334 0 168.241 231.334
279.876 17.9726 0 279.876 17.9726
254.657 42.4584 0 254.657 42.4584
286.769 82.6431 0 286.769 82.6431
256.28 72.4584 0 256.28 72.4584
286.769 52.651 0 286.769 52.651
284.653 112.648 0 284.653 112.648
255.241 117.458 0 255.241 117.458
284.654 157.643 0 284.654 157.643
255.241 162.458 0 255.241 162.458
284.652 217.647 0 284.652 217.647
255.241 222.458 0 255.241 222.458
255.241 192.458 0 255.241 192.458
280.797 187.648 0 280.797 187.648
89.9635 306.947 0 89.9635 306.947
107.749 312.279 0 107.749 312.279
124.084 334.65 0 124.084 334.65
86.2664 352.022 0 86.2664 352.022
92.0541 380.576 0 92.0541 380.576
131.929 420.794 0 131.929 420.794
107.031 403.614 0 107.031 403.614
139.758 450.73 0 139.758 450.73
187.823 496.988 0 187.823 496.988
168.626 480.207 0 168.626 480.207
200.686 252.108 0 200.686 252.108
179.576 291.333 0 179.576 291.333
168.241 276.333 0 168.241 276.333
367.352 77.5231 0 367.352 77.5231
371.87 107.515 0 371.87 107.515
342.241 113.156 0 342.241 113.156
371.87 182.515 0 371.87 182.515
342.241 188.156 0 342.241 188.156
342.241 158.156 0 342.241 158.156
461.754 172.979 0 461.754 172.979
430.715 162.277 0 430.715 162.277
461.754 142.977 0 461.754 142.977
373.756 152.523 0 373.756 152.523
459.026 202.981 0 459.026 202.981
429.238 207.28 0 429.238 207.28
344.13 218.156 0 344.13 218.156
373.756 212.52 0 373.756 212.52
373.758 242.519 0 373.758 242.519
395.514 519.488 0 395.514 519.488
378.853 538.946 0 378.853 538.946
354.78 546.589 0 354.78 546.589
460.277 232.978 0 460.277 232.978
429.238 252.279 0 429.238 252.279
47.0374 312.899 0 47.0374 312.899
60.9403 334.534 0 60.9403 334.534
168.339 321.334 0 168.339 321.334
282.641 545.759 0 282.641 545.759
312.642 545.759 0 312.642 545.759
244.305 543.446 0 244.305 543.446
450.43 322.98 0 450.43 322.98
461.762 337.981 0 461.762 337.981
461.763 367.978 0 461.763 367.978
462.992 292.978 0 462.992 292.978
462.991 262.98 0 462.991 262.98
463.785 397.98 0 463.785 397.98
462.741 424.31 0 462.741 424.31
165.186 111.334 0 165.186 111.334
202.814 168.341 0 202.814 168.341
202.814 198.341 0 202.814 198.341
289.719 233.288 0 289.719 233.288
92.501 290.788 0 92.501 290.788
114.404 417.559 0 114.404 417.559
202.832 514.899 0 202.832 514.899
153.091 475.359 0 153.091 475.359
169.327 496.332 0 169.327 496.332
375.607 62.5205 0 375.607 62.5205
339.113 233.506 0 339.113 233.506
416.788 508.588 0 416.788 508.588
126.27 402.364 0 126.27 402.364
187.385 514.726 0 187.385 514.726
412.707 523.546 0 412.707 523.546
109.492 352.734 0 109.492 352.734
158.924 429.726 0 158.924 429.726
377.01 520.506 0 377.01 520.506
81.0604 326.641 0 81.0604 326.641
200.008 316.091 0 200.008 316.091
276.765 522.391 0 276.765 522.391
326.738 511.513 0 326.738 511.513
427.527 382.071 0 427.527 382.071
442.149 295.567 0 442.149 295.567
183.933 196.932 0 183.933 196.932
222.942 512.825 0 222.942 512.825
419.719 489.116 0 419.719 489.116
353.436 507.277 0 353.436 507.277
340.778 529.035 0 340.778 529.035
444.788 392.004 0 444.788 392.004
384.381 485.784 0 384.381 485.784
152.312 404.451 0 152.312 404.451
411.862 310.93 0 411.862 310.93
210.738 493.03 0 210.738 493.03
253.096 499.365 0 253.096 499.365
410.479 451.694 0 410.479 451.694
421.715 412.134 0 421.715 412.134
137.503 372.344 0 137.503 372.344
200.53 447.903 0 200.53 447.903
299.573 506.943 0 299.573 506.943
195.44 472.772 0 195.44 472.772
193.555 407.163 0 193.555 407.163
225.51 465.971 0 225.51 465.971
353.859 292.893 0 353.859 292.893
332.018 458.533 0 332.018 458.533
167.685 367.436 0 167.685 367.436
239.552 420.255 0 239.552 420.255
367.347 386.031 0 367.347 386.031
213.712 365.75 0 213.712 365.75
376.02 323.908 0 376.02 323.908
312.228 299.349 0 312.228 299.349
272.373 455.35 0 272.373 455.35
258.927 326.552 0 258.927 326.552
301.362 395.346 0 301.362 395.346
3 34 207 239
3 299 163 162
3 175 250 176
3 207 34 33
3 35 239 36
3 265 331 219
3 207 33 32
3 35 34 239
3 240 30 29
3 219 263 27
3 240 263 207
3 32 31 207
3 38 37 262
3 39 38 331
3 40 39 265
3 43 42 220
3 43 220 269
3 40 265 266
3 219 26 264
3 268 332 22
3 270 19 18
3 44 43 269
3 22 332 23
3 21 333 268
3 24 264 25
3 331 38 262
3 0 206 222
3 0 222 1
3 1 273 2
3 2 273 3
3 205 272 206
3 222 206 272
3 276 202 201
3 223 276 200
3 199 223 200
3 276 201 200
3 273 1 222
3 295 209 296
3 275 5 4
3 224 6 275
3 277 197 196
3 267 332 220
3 333 19 270
3 7 278 8
3 279 194 193
3 280 11 10
3 281 190 189
3 283 11 280
3 225 280 10
3 224 278 7
3 282 14 226
3 49 230 297
3 221 333 270
3 64 63 208
3 208 243 64
3 243 66 65
3 130 129 304
3 64 243 65
3 240 31 30
3 241 63 62
3 181 180 303
3 59 335 60
3 58 57 286
3 318 68 67
3 58 286 335
3 227 286 57
3 62 61 241
3 70 69 319
3 318 69 68
3 319 69 242
3 71 70 319
3 72 71 288
3 289 72 288
3 63 241 208
3 73 289 74
3 291 76 75
3 15 258 16
3 76 291 336
3 79 292 80
3 336 78 77
3 291 75 74
3 217 374 381
3 290 292 78
3 243 318 66
3 56 287 227
3 28 27 263
3 271 47 46
3 47 271 48
3 80 229 338
3 48 230 49
3 46 221 271
3 209 258 216
3 50 49 297
3 16 209 17
3 51 50 296
3 320 244 53
3 296 320 51
3 295 18 17
3 92 247 321
3 344 84 339
3 82 81 338
3 165 340 166
3 91 90 323
3 339 83 294
3 82 294 83
3 338 294 82
3 174 173 211
3 245 89 88
3 323 245 210
3 251 139 138
3 247 91 323
3 218 261 111
3 91 247 92
3 86 344 337
3 151 215 363
3 89 245 323
3 133 252 134
3 209 16 258
3 52 320 53
3 227 346 288
3 356 337 364
3 277 274 197
3 182 181 232
3 211 173 172
3 211 250 174
3 175 174 250
3 171 248 172
3 211 172 248
3 248 169 249
3 340 165 298
3 163 299 164
3 167 249 168
3 244 54 53
3 171 170 248
3 177 176 231
3 195 225 277
3 224 274 277
3 279 225 195
3 226 13 283
3 279 195 194
3 177 231 300
3 177 300 178
3 301 158 157
3 179 234 303
3 181 303 232
3 284 191 281
3 164 298 165
3 199 274 223
3 164 299 298
3 231 298 299
3 139 212 140
3 161 234 299
3 212 139 251
3 135 134 252
3 137 251 138
3 252 251 135
3 131 306 132
3 56 55 287
3 229 80 292
3 141 140 212
3 233 306 131
3 253 142 141
3 307 158 301
3 232 307 301
3 234 160 307
3 130 233 131
3 144 143 305
3 145 305 235
3 130 304 233
3 128 308 304
3 253 212 306
3 212 253 141
3 232 302 182
3 57 56 227
3 161 160 234
3 289 291 74
3 308 128 127
3 183 182 302
3 188 187 216
3 334 281 189
3 341 186 185
3 235 309 146
3 310 185 184
3 183 302 184
3 185 310 341
3 147 146 309
3 311 155 236
3 236 154 312
3 99 98 315
3 351 370 246
3 186 217 187
3 314 315 237
3 326 353 254
3 95 94 246
3 363 213 151
3 122 327 257
3 118 325 119
3 93 321 94
3 259 153 152
3 213 152 151
3 101 100 314
3 217 186 341
3 99 315 100
3 256 342 357
3 374 259 213
3 359 358 237
3 148 238 149
3 216 258 334
3 316 126 125
3 14 13 226
3 8 278 9
3 257 328 123
3 328 238 316
3 150 149 317
3 6 5 275
3 123 122 257
3 10 9 225
3 304 308 235
3 324 327 120
3 4 3 273
3 199 198 274
3 150 215 151
3 120 119 324
3 205 204 272
3 116 326 117
3 46 45 221
3 44 269 45
3 118 117 254
3 202 276 272
3 254 325 118
3 7 6 224
3 354 363 215
3 256 214 107
3 107 214 255
3 345 102 313
3 104 345 342
3 361 342 313
3 216 187 217
3 114 330 329
3 101 314 102
3 218 111 110
3 107 255 108
3 42 41 266
3 26 25 264
3 255 109 108
3 111 112 113
3 218 110 109
3 107 106 256
3 27 26 219
3 112 111 261
3 261 330 112
3 268 22 21
3 149 238 317
3 316 308 127
3 363 380 213
3 13 12 283
3 281 191 190
3 337 356 245
3 314 100 315
3 143 142 253
3 160 159 307
3 179 178 300
3 146 145 235
3 145 144 305
3 155 154 236
3 153 312 154
3 322 96 95
3 95 246 322
3 147 309 148
3 124 123 328
3 207 263 262
3 37 36 239
3 28 240 29
3 31 240 207
3 60 335 61
3 59 58 335
3 285 242 208
3 242 349 319
3 208 242 243
3 242 69 318
3 350 244 320
3 347 229 292
3 88 87 245
3 85 344 86
3 246 321 351
3 352 359 322
3 247 210 365
3 321 246 94
3 170 169 248
3 249 169 168
3 166 249 167
3 248 249 211
3 249 340 211
3 176 250 231
3 137 136 251
3 135 251 136
3 132 252 133
3 251 252 212
3 306 212 252
3 253 233 305
3 329 115 114
3 330 114 113
3 214 218 255
3 218 109 255
3 106 105 256
3 103 345 104
3 327 122 121
3 257 215 317
3 14 282 15
3 281 226 284
3 259 217 341
3 213 259 152
3 361 366 357
3 254 117 326
3 214 357 366
3 112 330 113
3 37 239 262
3 207 262 239
3 263 219 262
3 240 28 263
3 267 24 23
3 42 266 220
3 219 264 265
3 267 264 24
3 40 266 41
3 267 265 264
3 220 266 267
3 267 266 265
3 333 21 20
3 333 355 268
3 355 220 268
3 45 269 221
3 295 270 18
3 270 295 271
3 270 271 221
3 48 271 230
3 204 203 272
3 202 272 203
3 276 273 222
3 273 223 275
3 197 274 198
3 275 274 224
3 273 275 4
3 275 223 274
3 273 276 223
3 272 276 222
3 195 277 196
3 278 277 225
3 277 278 224
3 9 278 225
3 193 192 279
3 192 191 284
3 225 279 280
3 284 279 192
3 334 189 188
3 282 281 258
3 281 282 226
3 258 15 282
3 11 283 12
3 284 280 279
3 226 283 284
3 284 283 280
3 227 288 349
3 335 208 241
3 227 285 286
3 335 286 285
3 55 54 287
3 368 346 287
3 346 227 287
3 228 291 289
3 72 289 73
3 346 289 288
3 290 336 343
3 347 290 362
3 343 291 228
3 76 336 77
3 78 292 79
3 347 292 290
3 369 371 229
3 337 87 86
3 369 229 347
3 83 339 84
3 209 295 17
3 295 230 271
3 295 296 230
3 350 296 209
3 230 296 297
3 296 50 297
3 231 250 298
3 211 298 250
3 161 299 162
3 300 299 234
3 299 300 231
3 179 300 234
3 156 311 157
3 311 156 155
3 232 301 302
3 311 310 302
3 179 303 180
3 307 303 234
3 128 304 129
3 235 233 304
3 253 305 143
3 235 305 233
3 253 306 233
3 252 132 306
3 307 159 158
3 303 307 232
3 316 127 126
3 309 308 238
3 308 309 235
3 148 309 238
3 184 302 310
3 311 302 301
3 310 311 236
3 157 311 301
3 153 259 312
3 259 236 312
3 314 348 313
3 342 105 104
3 348 314 237
3 102 314 313
3 98 97 315
3 97 96 322
3 328 125 124
3 308 316 238
3 317 238 328
3 215 150 317
3 66 318 67
3 243 242 318
3 349 242 285
3 71 319 288
3 51 320 52
3 350 320 296
3 92 321 93
3 351 321 247
3 322 246 352
3 322 359 97
3 323 90 89
3 210 247 323
3 254 353 363
3 354 257 327
3 254 324 325
3 324 119 325
3 329 116 115
3 329 360 326
3 120 327 121
3 257 354 215
3 328 257 317
3 125 328 316
3 360 329 260
3 116 329 326
3 261 260 330
3 329 330 260
3 219 331 262
3 265 39 331
3 220 332 268
3 267 23 332
3 333 20 19
3 355 269 220
3 216 334 188
3 258 281 334
3 61 335 241
3 208 335 285
3 343 336 291
3 78 336 290
3 293 364 337
3 245 87 337
3 80 338 81
3 229 294 338
3 294 293 339
3 339 293 344
3 211 340 298
3 249 166 340
3 310 236 341
3 341 236 259
3 348 361 313
3 256 105 342
3 228 368 343
3 362 368 376
3 344 85 84
3 293 337 344
3 102 345 103
3 313 342 345
3 368 287 54
3 289 346 228
3 362 290 343
3 216 217 381
3 315 359 237
3 214 256 357
3 227 349 285
3 288 319 349
3 383 216 381
3 374 217 259
3 210 245 356
3 370 351 365
3 351 247 365
3 366 218 214
3 261 366 367
3 377 382 373
3 327 324 354
3 354 324 363
3 333 221 355
3 221 269 355
3 371 294 229
3 210 356 365
3 237 358 348
3 357 342 361
3 246 370 352
3 348 358 361
3 359 315 97
3 358 359 352
3 367 360 260
3 326 360 353
3 375 358 352
3 218 366 261
3 368 362 343
3 54 376 368
3 254 363 324
3 353 378 380
3 364 371 373
3 356 364 365
3 371 364 293
3 366 375 378
3 375 352 370
3 367 353 360
3 261 367 260
3 361 358 375
3 346 368 228
3 54 244 376
3 372 347 362
3 347 372 369
3 365 364 373
3 375 366 361
3 294 371 293
3 373 371 369
3 350 379 244
3 375 384 378
3 372 377 369
3 373 382 365
3 378 367 366
3 353 367 378
3 382 370 365
3 369 377 373
3 379 376 244
3 372 362 376
3 372 376 379
3 384 379 383
3 375 382 384
3 380 374 213
3 216 383 209
3 377 372 379
3 353 380 363
3 381 380 378
3 381 374 380
3 383 379 350
3 382 377 384
3 370 382 375
3 209 383 350
3 381 378 384
3 379 384 377
3 381 384 383
