ply
format ascii 1.0
element vertex 225
property float x
property float y
property float z
property float u
property float v
element face 297
property list uchar int vertex_indices
end_header
278.95 222.95 0 278.95 222.95
271.272 234.728 0 271.272 234.728
258.456 240 0 258.456 240
245.113 238 0 245.113 238
241.698 238.698 0 241.698 238.698
249 250.088 0 249 250.088
246 263.846 0 246 263.846
238.331 275.669 0 238.331 275.669
226.326 281.326 0 226.326 281.326
225.439 288 0 225.439 288
213.239 294.761 0 213.239 294.761
201.461 302.539 0 201.461 302.539
189.976 311.024 0 189.976 311.024
179.076 320.924 0 179.076 320.924
167.005 327.995 0 167.005 327.995
154.055 329.055 0 154.055 329.055
140.321 328 0 140.321 328
127.863 321.863 0 127.863 321.863
117.964 312.964 0 117.964 312.964
110 301.848 0 110 301.848
106 288.505 0 106 288.505
107 274.747 0 107 274.747
110.714 261.286 0 110.714 261.286
116.215 253.215 0 116.215 253.215
124 246.203 0 124 246.203
134.634 237.366 0 134.634 237.366
148.24 234 0 148.24 234
161.706 237.706 0 161.706 237.706
171.898 247.898 0 171.898 247.898
175 261.613 0 175 261.613
176.262 275.262 0 176.262 275.262
184.057 287 0 184.057 287
197.576 287.424 0 197.576 287.424
209.647 283.647 0 209.647 283.647
206.157 277 0 206.157 277
191.985 279 0 191.985 279
187 267.47 0 187 267.47
187 252.47 0 187 252.47
186 238.713 0 186 238.713
177.726 231.726 0 177.726 231.726
167.097 224 0 167.097 224
153.533 220.533 0 153.533 220.533
139.997 221 0 139.997 221
126.653 225 0 126.653 225
115 229.861 0 115 229.861
106.613 239.387 0 106.613 239.387
98.1274 250.873 0 98.1274 250.873
94 263.335 0 94 263.335
91 277.092 0 91 277.092
90 290.849 0 90 290.849
91 305.435 0 91 305.435
94.8435 318.843 0 94.8435 318.843
101.207 331.207 0 101.207 331.207
111.693 340.693 0 111.693 340.693
123.471 348.471 0 123.471 348.471
135.767 355 0 135.767 355
149.524 358 0 149.524 358
163.696 360 0 163.696 360
177.867 362 0 177.867 362
190.796 367 0 190.796 367
202.927 373.927 0 202.927 373.927
215.826 379 0 215.826 379
229.169 383 0 229.169 383
242.513 385 0 242.513 385
256.27 386 0 256.27 386
262 396.442 0 262 396.442
269.383 408.383 0 269.383 408.383
281.162 416.162 0 281.162 416.162
289 426.501 0 289 426.501
292.11 419.11 0 292.11 419.11
303.945 424 0 303.945 424
314 429.541 0 314 429.541
319.153 420.153 0 319.153 420.153
324 418.854 0 324 418.854
328 412.339 0 328 412.339
320.239 407 0 320.239 407
308.724 404 0 308.724 404
307.855 400.145 0 307.855 400.145
295.866 396 0 295.866 396
284.541 388.541 0 284.541 388.541
295.407 386 0 295.407 386
308.823 387.823 0 308.823 387.823
321.773 392.773 0 321.773 392.773
333.258 401.258 0 333.258 401.258
338 404.292 0 338 404.292
341.572 399.572 0 341.572 399.572
346.522 405.478 0 346.522 405.478
352.472 402.472 0 352.472 402.472
354 393.99 0 354 393.99
357.957 385.957 0 357.957 385.957
370.454 380 0 370.454 380
382.555 373 0 382.555 373
391 363.516 0 391 363.516
401.828 354.172 0 401.828 354.172
412.686 351 0 412.686 351
421 339.628 0 421 339.628
424 328.699 0 424 328.699
425 314.113 0 425 314.113
428.23 302 0 428.23 302
441.991 303.009 0 441.991 303.009
454.941 301.941 0 454.941 301.941
468.674 301 0 468.674 301
480 301.811 0 480 301.811
485.205 301.795 0 485.205 301.795
493 291.195 0 493 291.195
490 282.266 0 490 282.266
488.337 278 0 488.337 278
481.833 277.167 0 481.833 277.167
469.307 278 0 469.307 278
461.854 272.146 0 461.854 272.146
470.218 267.782 0 470.218 267.782
479 264.995 0 479 264.995
486 257.248 0 486 257.248
489.775 245.225 0 489.775 245.225
488.154 238.154 0 488.154 238.154
490 229.711 0 490 229.711
483.603 227 0 483.603 227
477 226.326 0 477 226.326
468.888 226.888 0 468.888 226.888
467.748 230.252 0 467.748 230.252
459.384 234.616 0 459.384 234.616
449.614 235 0 449.614 235
437.099 235 0 437.099 235
423.342 236 0 423.342 236
409.413 237.413 0 409.413 237.413
401.342 235.658 0 401.342 235.658
396 247.86 0 396 247.86
390 260.374 0 390 260.374
389.214 271.214 0 389.214 271.214
389 285.475 0 389 285.475
380.425 296 0 380.425 296
366.667 297 0 366.667 297
355.064 291.936 0 355.064 291.936
361 279.395 0 361 279.395
367.792 267.208 0 367.792 267.208
377 256.608 0 377 256.608
386.53 246.53 0 386.53 246.53
373.822 247 0 373.822 247
360.339 245.339 0 360.339 245.339
349.56 236.56 0 349.56 236.56
342.611 236.389 0 342.611 236.389
334 232.521 0 334 232.521
326.711 232.289 0 326.711 232.289
313.249 236 0 313.249 236
302.321 233 0 302.321 233
284 216 0 284 216
244.724 244.794 0 244.724 244.794
473.194 230.222 0 473.194 230.222
313.624 400.87 0 313.624 400.87
300.945 403.728 0 300.945 403.728
484.527 281.942 0 484.527 281.942
314.514 406.543 0 314.514 406.543
319.994 413.601 0 319.994 413.601
479.68 232.752 0 479.68 232.752
470.529 240.612 0 470.529 240.612
486.898 288.277 0 486.898 288.277
475.972 283.622 0 475.972 283.622
482.58 294.601 0 482.58 294.601
307.648 414.314 0 307.648 414.314
235.859 285.989 0 235.859 285.989
329.913 246.29 0 329.913 246.29
345.76 249.715 0 345.76 249.715
251.37 241.766 0 251.37 241.766
479.951 243.755 0 479.951 243.755
303.981 393.642 0 303.981 393.642
256.627 247.762 0 256.627 247.762
255.82 258.781 0 255.82 258.781
268.618 246.491 0 268.618 246.491
291.239 226.57 0 291.239 226.57
456.521 286.608 0 456.521 286.608
341.53 382.855 0 341.53 382.855
288.719 406.231 0 288.719 406.231
470.741 254.201 0 470.741 254.201
466.672 287.885 0 466.672 287.885
335.552 391.229 0 335.552 391.229
461.167 260.633 0 461.167 260.633
366.002 254.917 0 366.002 254.917
410.259 267.291 0 410.259 267.291
401.951 334.426 0 401.951 334.426
285.133 366.57 0 285.133 366.57
234.479 306.846 0 234.479 306.846
256.756 285.539 0 256.756 285.539
327.199 378.945 0 327.199 378.945
455.017 247.985 0 455.017 247.985
256.5 272.153 0 256.5 272.153
161.767 343.627 0 161.767 343.627
270.617 384.92 0 270.617 384.92
405.01 302.296 0 405.01 302.296
368.709 352.169 0 368.709 352.169
302.069 255.32 0 302.069 255.32
286.886 244.431 0 286.886 244.431
353.118 263.069 0 353.118 263.069
439.577 267.698 0 439.577 267.698
273.686 264.576 0 273.686 264.576
351.218 316.574 0 351.218 316.574
269.605 278.598 0 269.605 278.598
183.08 341.598 0 183.08 341.598
145.637 342.781 0 145.637 342.781
417.942 252.123 0 417.942 252.123
410.081 320.417 0 410.081 320.417
251.296 359.29 0 251.296 359.29
304.588 368.714 0 304.588 368.714
211.884 328.663 0 211.884 328.663
385.678 346.402 0 385.678 346.402
356.543 366.903 0 356.543 366.903
342.445 278.288 0 342.445 278.288
436.346 285.657 0 436.346 285.657
375.228 319.64 0 375.228 319.64
293.774 278.029 0 293.774 278.029
262.359 371.048 0 262.359 371.048
238.07 369.127 0 238.07 369.127
194.873 327.366 0 194.873 327.366
216.068 311.852 0 216.068 311.852
207.767 351.366 0 207.767 351.366
338.67 365.123 0 338.67 365.123
276.404 306.547 0 276.404 306.547
331.674 300.904 0 331.674 300.904
416.577 286.027 0 416.577 286.027
392.662 319.672 0 392.662 319.672
270.5 352.306 0 270.5 352.306
231.212 346.096 0 231.212 346.096
349.343 348.567 0 349.343 348.567
298.053 338.68 0 298.053 338.68
253.172 334.554 0 253.172 334.554
323.676 343.739 0 323.676 343.739
3 44 43 25
3 152 72 158
3 25 24 44
3 44 24 45
3 43 42 25
3 42 41 26
3 41 27 26
3 27 41 40
3 28 27 39
3 42 26 25
3 73 72 152
3 21 47 22
3 115 153 116
3 20 48 21
3 21 48 47
3 47 46 22
3 114 113 163
3 23 22 46
3 29 28 37
3 23 46 45
3 45 24 23
3 39 27 40
3 146 3 162
3 38 37 28
3 165 2 167
3 162 165 5
3 146 162 5
3 165 166 5
3 1 0 168
3 4 3 146
3 36 30 29
3 31 30 35
3 35 30 36
3 29 37 36
3 79 179 80
3 35 34 32
3 159 8 7
3 6 184 7
3 28 39 38
3 158 72 70
3 34 33 32
3 49 20 50
3 20 49 48
3 19 51 50
3 50 20 19
3 19 18 51
3 13 196 14
3 52 18 17
3 51 18 52
3 53 17 54
3 154 153 163
3 197 54 16
3 53 52 17
3 153 117 116
3 185 197 15
3 197 56 55
3 14 196 185
3 58 57 185
3 55 54 197
3 16 54 17
3 58 185 196
3 31 35 32
3 11 212 211
3 12 211 13
3 196 213 59
3 196 211 213
3 202 211 212
3 10 212 11
3 159 180 9
3 180 10 9
3 186 66 65
3 65 64 186
3 60 59 213
3 171 79 78
3 63 210 209
3 67 69 68
3 69 171 149
3 171 66 79
3 159 9 8
3 66 186 79
3 0 145 168
3 153 114 163
3 141 160 142
3 201 179 222
3 141 140 160
3 126 125 124
3 138 161 139
3 142 160 143
3 161 160 140
3 176 138 137
3 135 137 136
3 133 205 191
3 137 135 176
3 127 126 177
3 124 198 126
3 128 177 129
3 124 123 198
3 223 215 219
3 121 120 183
3 183 192 122
3 183 172 175
3 117 147 118
3 147 117 153
3 147 119 118
3 147 154 119
3 114 153 115
3 172 110 175
3 107 150 156
3 206 169 99
3 172 183 154
3 153 154 147
3 105 150 106
3 172 111 110
3 119 154 120
3 173 108 156
3 127 177 128
3 150 107 106
3 148 76 77
3 77 76 149
3 170 88 85
3 83 174 85
3 84 83 85
3 174 170 85
3 87 85 88
3 182 82 81
3 87 86 85
3 158 151 152
3 71 70 72
3 149 158 69
3 74 73 152
3 74 152 75
3 149 76 158
3 78 164 149
3 98 97 187
3 217 129 177
3 203 207 218
3 131 207 194
3 156 150 155
3 169 173 100
3 173 157 101
3 155 105 104
3 109 108 169
3 105 155 150
3 217 192 206
3 93 92 203
3 91 204 188
3 91 90 204
3 92 91 188
3 178 94 93
3 95 94 178
3 178 96 95
3 199 96 178
3 170 89 88
3 80 179 201
3 171 69 67
3 107 156 108
3 6 5 166
3 152 151 75
3 112 172 163
3 103 157 104
3 157 103 102
3 155 104 157
3 108 173 169
3 101 157 102
3 156 155 157
3 158 70 69
3 76 151 158
3 184 6 166
3 209 186 64
3 191 205 161
3 140 139 161
3 138 191 161
3 191 138 176
3 162 2 165
3 113 112 163
3 172 112 111
3 149 164 77
3 1 167 2
3 165 167 166
3 193 167 190
3 193 195 184
3 190 1 168
3 189 144 143
3 145 144 168
3 189 190 144
3 100 99 169
3 206 99 98
3 174 182 170
3 131 194 132
3 171 67 66
3 78 149 171
3 175 110 109
3 163 172 154
3 157 173 156
3 100 173 101
3 83 82 174
3 182 174 82
3 109 192 175
3 120 154 183
3 135 134 176
3 176 134 191
3 198 122 192
3 217 177 192
3 92 188 203
3 199 178 218
3 159 181 180
3 207 131 130
3 7 181 159
3 209 210 200
3 184 181 7
3 181 184 195
3 201 81 80
3 208 215 195
3 183 175 192
3 122 121 183
3 167 193 166
3 167 1 190
3 56 185 57
3 15 14 185
3 64 63 209
3 179 79 186
3 130 129 187
3 199 97 96
3 204 90 89
3 170 214 204
3 205 160 161
3 143 160 189
3 144 190 168
3 193 184 166
3 134 133 191
3 205 133 132
3 169 192 109
3 198 177 126
3 190 189 193
3 195 193 208
3 221 204 214
3 201 182 81
3 208 193 189
3 222 179 219
3 12 11 211
3 59 58 196
3 15 197 16
3 185 56 197
3 122 198 123
3 192 177 198
3 203 218 178
3 187 97 199
3 210 63 62
3 215 180 181
3 181 195 215
3 214 224 221
3 223 219 200
3 213 220 210
3 178 93 203
3 188 221 207
3 89 170 204
3 214 170 182
3 216 132 194
3 160 205 189
3 206 98 217
3 169 206 192
3 187 218 130
3 188 207 203
3 189 205 208
3 216 205 132
3 219 209 200
3 179 186 209
3 62 61 210
3 61 60 213
3 213 211 202
3 196 13 211
3 10 180 212
3 180 202 212
3 210 220 200
3 61 213 210
3 201 214 182
3 204 221 188
3 208 216 215
3 219 179 209
3 194 221 224
3 208 205 216
3 98 187 217
3 129 217 187
3 130 218 207
3 187 199 218
3 200 220 223
3 219 215 222
3 213 202 220
3 180 220 202
3 201 222 224
3 207 221 194
3 215 216 222
3 216 194 224
3 220 180 223
3 215 223 180
3 201 224 214
3 224 222 216
