ply
format ascii 1.0
comment Created by Blender 2.71 (sub 0) - www.blender.org, source file: ''
element vertex 289
property float x
property float y
property float z
property float nx
property float ny
property float nz
element face 512
property list uchar uint vertex_indices
end_header
411.033386 386.050293 0.000000 -0.000000 0.000000 1.000000
411.033386 411.612427 0.000000 -0.000000 0.000000 1.000000
385.471252 411.612427 0.000000 -0.000000 0.000000 1.000000
206.536255 386.050293 0.000000 -0.000000 0.000000 1.000000
206.536255 411.612427 0.000000 -0.000000 0.000000 1.000000
180.974106 411.612427 0.000000 -0.000000 0.000000 1.000000
206.536255 181.553146 0.000000 -0.000000 0.000000 1.000000
206.536255 207.115295 0.000000 -0.000000 0.000000 1.000000
180.974106 207.115295 0.000000 -0.000000 0.000000 1.000000
411.033386 181.553146 0.000000 -0.000000 0.000000 1.000000
411.033386 207.115295 0.000000 -0.000000 0.000000 1.000000
385.471252 207.115295 0.000000 -0.000000 0.000000 1.000000
308.784821 386.050293 0.000000 -0.000000 0.000000 1.000000
308.784821 411.612427 0.000000 -0.000000 0.000000 1.000000
283.222687 411.612427 0.000000 -0.000000 0.000000 1.000000
308.784821 283.801727 0.000000 -0.000000 0.000000 1.000000
308.784821 309.363861 0.000000 -0.000000 0.000000 1.000000
283.222687 309.363861 0.000000 -0.000000 0.000000 1.000000
411.033386 283.801727 0.000000 -0.000000 0.000000 1.000000
411.033386 309.363861 0.000000 -0.000000 0.000000 1.000000
385.471252 309.363861 0.000000 -0.000000 0.000000 1.000000
104.287682 386.050293 0.000000 -0.000000 0.000000 1.000000
104.287682 411.612427 0.000000 -0.000000 0.000000 1.000000
78.725540 411.612427 0.000000 -0.000000 0.000000 1.000000
104.287682 283.801727 0.000000 -0.000000 0.000000 1.000000
104.287682 309.363861 0.000000 -0.000000 0.000000 1.000000
78.725540 309.363861 0.000000 -0.000000 0.000000 1.000000
206.536255 283.801727 0.000000 -0.000000 0.000000 1.000000
206.536255 309.363861 0.000000 -0.000000 0.000000 1.000000
180.974106 309.363861 0.000000 -0.000000 0.000000 1.000000
104.287682 181.553146 0.000000 -0.000000 0.000000 1.000000
104.287682 207.115295 0.000000 -0.000000 0.000000 1.000000
78.725540 207.115295 0.000000 -0.000000 0.000000 1.000000
104.287682 79.304581 0.000000 -0.000000 0.000000 1.000000
104.287682 104.866722 0.000000 -0.000000 0.000000 1.000000
78.725540 104.866722 0.000000 -0.000000 0.000000 1.000000
206.536255 79.304581 0.000000 -0.000000 0.000000 1.000000
206.536255 104.866722 0.000000 -0.000000 0.000000 1.000000
180.974106 104.866722 0.000000 -0.000000 0.000000 1.000000
308.784821 181.553146 0.000000 -0.000000 0.000000 1.000000
308.784821 207.115295 0.000000 -0.000000 0.000000 1.000000
283.222687 207.115295 0.000000 -0.000000 0.000000 1.000000
308.784821 79.304581 0.000000 -0.000000 0.000000 1.000000
308.784821 104.866722 0.000000 -0.000000 0.000000 1.000000
283.222687 104.866722 0.000000 -0.000000 0.000000 1.000000
411.033386 79.304581 0.000000 -0.000000 0.000000 1.000000
411.033386 104.866722 0.000000 -0.000000 0.000000 1.000000
385.471252 104.866722 0.000000 -0.000000 0.000000 1.000000
359.909119 386.050293 0.000000 -0.000000 0.000000 1.000000
359.909119 411.612427 0.000000 -0.000000 0.000000 1.000000
334.346985 411.612427 0.000000 -0.000000 0.000000 1.000000
359.909119 334.926025 0.000000 -0.000000 0.000000 1.000000
359.909119 360.488159 0.000000 -0.000000 0.000000 1.000000
334.346985 360.488159 0.000000 -0.000000 0.000000 1.000000
411.033386 334.926025 0.000000 -0.000000 0.000000 1.000000
411.033386 360.488159 0.000000 -0.000000 0.000000 1.000000
385.471252 360.488159 0.000000 -0.000000 0.000000 1.000000
155.411972 386.050293 0.000000 -0.000000 0.000000 1.000000
155.411972 411.612427 0.000000 -0.000000 0.000000 1.000000
129.849823 411.612427 0.000000 -0.000000 0.000000 1.000000
155.411972 334.926025 0.000000 -0.000000 0.000000 1.000000
155.411972 360.488159 0.000000 -0.000000 0.000000 1.000000
129.849823 360.488159 0.000000 -0.000000 0.000000 1.000000
206.536255 334.926025 0.000000 -0.000000 0.000000 1.000000
206.536255 360.488159 0.000000 -0.000000 0.000000 1.000000
180.974106 360.488159 0.000000 -0.000000 0.000000 1.000000
155.411972 181.553146 0.000000 -0.000000 0.000000 1.000000
155.411972 207.115295 0.000000 -0.000000 0.000000 1.000000
129.849823 207.115295 0.000000 -0.000000 0.000000 1.000000
155.411972 130.428864 0.000000 -0.000000 0.000000 1.000000
155.411972 155.991013 0.000000 -0.000000 0.000000 1.000000
129.849823 155.991013 0.000000 -0.000000 0.000000 1.000000
206.536255 130.428864 0.000000 -0.000000 0.000000 1.000000
206.536255 155.991013 0.000000 -0.000000 0.000000 1.000000
180.974106 155.991013 0.000000 -0.000000 0.000000 1.000000
359.909119 181.553146 0.000000 -0.000000 0.000000 1.000000
359.909119 207.115295 0.000000 -0.000000 0.000000 1.000000
334.346985 207.115295 0.000000 -0.000000 0.000000 1.000000
359.909119 130.428864 0.000000 -0.000000 0.000000 1.000000
359.909119 155.991013 0.000000 -0.000000 0.000000 1.000000
334.346985 155.991013 0.000000 -0.000000 0.000000 1.000000
411.033386 130.428864 0.000000 -0.000000 0.000000 1.000000
411.033386 155.991013 0.000000 -0.000000 0.000000 1.000000
385.471252 155.991013 0.000000 -0.000000 0.000000 1.000000
257.660553 386.050293 0.000000 -0.000000 0.000000 1.000000
257.660553 411.612427 0.000000 -0.000000 0.000000 1.000000
232.098404 411.612427 0.000000 -0.000000 0.000000 1.000000
257.660553 334.926025 0.000000 -0.000000 0.000000 1.000000
257.660553 360.488159 0.000000 -0.000000 0.000000 1.000000
232.098404 360.488159 0.000000 -0.000000 0.000000 1.000000
308.784821 334.926025 0.000000 -0.000000 0.000000 1.000000
308.784821 360.488159 0.000000 -0.000000 0.000000 1.000000
283.222687 360.488159 0.000000 -0.000000 0.000000 1.000000
257.660553 283.801727 0.000000 -0.000000 0.000000 1.000000
257.660553 309.363861 0.000000 -0.000000 0.000000 1.000000
232.098404 309.363861 0.000000 -0.000000 0.000000 1.000000
257.660553 232.677444 0.000000 -0.000000 0.000000 1.000000
257.660553 258.239594 0.000000 -0.000000 0.000000 1.000000
232.098404 258.239594 0.000000 -0.000000 0.000000 1.000000
308.784821 232.677444 0.000000 -0.000000 0.000000 1.000000
308.784821 258.239594 0.000000 -0.000000 0.000000 1.000000
283.222687 258.239594 0.000000 -0.000000 0.000000 1.000000
359.909119 283.801727 0.000000 -0.000000 0.000000 1.000000
359.909119 309.363861 0.000000 -0.000000 0.000000 1.000000
334.346985 309.363861 0.000000 -0.000000 0.000000 1.000000
359.909119 232.677444 0.000000 -0.000000 0.000000 1.000000
359.909119 258.239594 0.000000 -0.000000 0.000000 1.000000
334.346985 258.239594 0.000000 -0.000000 0.000000 1.000000
411.033386 232.677444 0.000000 -0.000000 0.000000 1.000000
411.033386 258.239594 0.000000 -0.000000 0.000000 1.000000
385.471252 258.239594 0.000000 -0.000000 0.000000 1.000000
53.163391 386.050293 0.000000 -0.000000 0.000000 1.000000
53.163391 411.612427 0.000000 -0.000000 0.000000 1.000000
27.601257 411.612427 0.000000 -0.000000 0.000000 1.000000
53.163391 334.926025 0.000000 -0.000000 0.000000 1.000000
53.163391 360.488159 0.000000 -0.000000 0.000000 1.000000
27.601257 360.488159 0.000000 -0.000000 0.000000 1.000000
104.287682 334.926025 0.000000 -0.000000 0.000000 1.000000
104.287682 360.488159 0.000000 -0.000000 0.000000 1.000000
78.725540 360.488159 0.000000 -0.000000 0.000000 1.000000
53.163391 283.801727 0.000000 -0.000000 0.000000 1.000000
53.163391 309.363861 0.000000 -0.000000 0.000000 1.000000
27.601257 309.363861 0.000000 -0.000000 0.000000 1.000000
53.163391 232.677444 0.000000 -0.000000 0.000000 1.000000
53.163391 258.239594 0.000000 -0.000000 0.000000 1.000000
27.601257 258.239594 0.000000 -0.000000 0.000000 1.000000
104.287682 232.677444 0.000000 -0.000000 0.000000 1.000000
104.287682 258.239594 0.000000 -0.000000 0.000000 1.000000
78.725540 258.239594 0.000000 -0.000000 0.000000 1.000000
155.411972 283.801727 0.000000 -0.000000 0.000000 1.000000
155.411972 309.363861 0.000000 -0.000000 0.000000 1.000000
129.849823 309.363861 0.000000 -0.000000 0.000000 1.000000
155.411972 232.677444 0.000000 -0.000000 0.000000 1.000000
155.411972 258.239594 0.000000 -0.000000 0.000000 1.000000
129.849823 258.239594 0.000000 -0.000000 0.000000 1.000000
206.536255 232.677444 0.000000 -0.000000 0.000000 1.000000
206.536255 258.239594 0.000000 -0.000000 0.000000 1.000000
180.974106 258.239594 0.000000 -0.000000 0.000000 1.000000
53.163391 181.553146 0.000000 -0.000000 0.000000 1.000000
53.163391 207.115295 0.000000 -0.000000 0.000000 1.000000
27.601257 207.115295 0.000000 -0.000000 0.000000 1.000000
53.163391 130.428864 0.000000 -0.000000 0.000000 1.000000
53.163391 155.991013 0.000000 -0.000000 0.000000 1.000000
27.601257 155.991013 0.000000 -0.000000 0.000000 1.000000
104.287682 130.428864 0.000000 -0.000000 0.000000 1.000000
104.287682 155.991013 0.000000 -0.000000 0.000000 1.000000
78.725540 155.991013 0.000000 -0.000000 0.000000 1.000000
53.163391 79.304581 0.000000 -0.000000 0.000000 1.000000
53.163391 104.866722 0.000000 -0.000000 0.000000 1.000000
27.601257 104.866722 0.000000 -0.000000 0.000000 1.000000
53.163391 28.180298 0.000000 -0.000000 0.000000 1.000000
53.163391 53.742432 0.000000 -0.000000 0.000000 1.000000
27.601257 53.742432 0.000000 -0.000000 0.000000 1.000000
104.287682 28.180298 0.000000 -0.000000 0.000000 1.000000
104.287682 53.742432 0.000000 -0.000000 0.000000 1.000000
78.725540 53.742432 0.000000 -0.000000 0.000000 1.000000
155.411972 79.304581 0.000000 -0.000000 0.000000 1.000000
155.411972 104.866722 0.000000 -0.000000 0.000000 1.000000
129.849823 104.866722 0.000000 -0.000000 0.000000 1.000000
155.411972 28.180298 0.000000 -0.000000 0.000000 1.000000
155.411972 53.742432 0.000000 -0.000000 0.000000 1.000000
129.849823 53.742432 0.000000 -0.000000 0.000000 1.000000
206.536255 28.180298 0.000000 -0.000000 0.000000 1.000000
206.536255 53.742432 0.000000 -0.000000 0.000000 1.000000
180.974106 53.742432 0.000000 -0.000000 0.000000 1.000000
257.660553 181.553146 0.000000 -0.000000 0.000000 1.000000
257.660553 207.115295 0.000000 -0.000000 0.000000 1.000000
232.098404 207.115295 0.000000 -0.000000 0.000000 1.000000
257.660553 130.428864 0.000000 -0.000000 0.000000 1.000000
257.660553 155.991013 0.000000 -0.000000 0.000000 1.000000
232.098404 155.991013 0.000000 -0.000000 0.000000 1.000000
308.784821 130.428864 0.000000 -0.000000 0.000000 1.000000
308.784821 155.991013 0.000000 -0.000000 0.000000 1.000000
283.222687 155.991013 0.000000 -0.000000 0.000000 1.000000
257.660553 79.304581 0.000000 -0.000000 0.000000 1.000000
257.660553 104.866722 0.000000 -0.000000 0.000000 1.000000
232.098404 104.866722 0.000000 -0.000000 0.000000 1.000000
257.660553 28.180298 0.000000 -0.000000 0.000000 1.000000
257.660553 53.742432 0.000000 -0.000000 0.000000 1.000000
232.098404 53.742432 0.000000 -0.000000 0.000000 1.000000
308.784821 28.180298 0.000000 -0.000000 0.000000 1.000000
308.784821 53.742432 0.000000 -0.000000 0.000000 1.000000
283.222687 53.742432 0.000000 -0.000000 0.000000 1.000000
359.909119 79.304581 0.000000 -0.000000 0.000000 1.000000
359.909119 104.866722 0.000000 -0.000000 0.000000 1.000000
334.346985 104.866722 0.000000 -0.000000 0.000000 1.000000
359.909119 28.180298 0.000000 -0.000000 0.000000 1.000000
359.909119 53.742432 0.000000 -0.000000 0.000000 1.000000
334.346985 53.742432 0.000000 -0.000000 0.000000 1.000000
411.033386 28.180298 0.000000 -0.000000 0.000000 1.000000
411.033386 53.742432 0.000000 -0.000000 0.000000 1.000000
385.471252 53.742432 0.000000 -0.000000 0.000000 1.000000
385.471252 386.050293 0.000000 -0.000000 0.000000 1.000000
180.974106 386.050293 0.000000 -0.000000 0.000000 1.000000
180.974106 181.553146 0.000000 -0.000000 0.000000 1.000000
385.471252 181.553146 0.000000 -0.000000 0.000000 1.000000
283.222687 386.050293 0.000000 -0.000000 0.000000 1.000000
283.222687 283.801727 0.000000 -0.000000 0.000000 1.000000
385.471252 283.801727 0.000000 -0.000000 0.000000 1.000000
78.725540 386.050293 0.000000 -0.000000 0.000000 1.000000
78.725540 283.801727 0.000000 -0.000000 0.000000 1.000000
180.974106 283.801727 0.000000 -0.000000 0.000000 1.000000
78.725540 181.553146 0.000000 -0.000000 0.000000 1.000000
78.725540 79.304581 0.000000 -0.000000 0.000000 1.000000
180.974106 79.304581 0.000000 -0.000000 0.000000 1.000000
283.222687 181.553146 0.000000 -0.000000 0.000000 1.000000
283.222687 79.304581 0.000000 -0.000000 0.000000 1.000000
385.471252 79.304581 0.000000 -0.000000 0.000000 1.000000
334.346985 386.050293 0.000000 -0.000000 0.000000 1.000000
334.346985 334.926025 0.000000 -0.000000 0.000000 1.000000
385.471252 334.926025 0.000000 -0.000000 0.000000 1.000000
129.849823 386.050293 0.000000 -0.000000 0.000000 1.000000
129.849823 334.926025 0.000000 -0.000000 0.000000 1.000000
180.974106 334.926025 0.000000 -0.000000 0.000000 1.000000
129.849823 181.553146 0.000000 -0.000000 0.000000 1.000000
129.849823 130.428864 0.000000 -0.000000 0.000000 1.000000
180.974106 130.428864 0.000000 -0.000000 0.000000 1.000000
334.346985 181.553146 0.000000 -0.000000 0.000000 1.000000
334.346985 130.428864 0.000000 -0.000000 0.000000 1.000000
385.471252 130.428864 0.000000 -0.000000 0.000000 1.000000
232.098404 386.050293 0.000000 -0.000000 0.000000 1.000000
232.098404 334.926025 0.000000 -0.000000 0.000000 1.000000
283.222687 334.926025 0.000000 -0.000000 0.000000 1.000000
232.098404 283.801727 0.000000 -0.000000 0.000000 1.000000
232.098404 232.677444 0.000000 -0.000000 0.000000 1.000000
283.222687 232.677444 0.000000 -0.000000 0.000000 1.000000
334.346985 283.801727 0.000000 -0.000000 0.000000 1.000000
334.346985 232.677444 0.000000 -0.000000 0.000000 1.000000
385.471252 232.677444 0.000000 -0.000000 0.000000 1.000000
27.601257 386.050293 0.000000 -0.000000 0.000000 1.000000
2.039108 411.612427 0.000000 -0.000000 0.000000 1.000000
2.039108 386.050293 0.000000 -0.000000 0.000000 1.000000
27.601257 334.926025 0.000000 -0.000000 0.000000 1.000000
2.039108 360.488159 0.000000 -0.000000 0.000000 1.000000
2.039108 334.926025 0.000000 -0.000000 0.000000 1.000000
78.725540 334.926025 0.000000 -0.000000 0.000000 1.000000
27.601257 283.801727 0.000000 -0.000000 0.000000 1.000000
2.039108 309.363861 0.000000 -0.000000 0.000000 1.000000
2.039108 283.801727 0.000000 -0.000000 0.000000 1.000000
27.601257 232.677444 0.000000 -0.000000 0.000000 1.000000
2.039108 258.239594 0.000000 -0.000000 0.000000 1.000000
2.039108 232.677444 0.000000 -0.000000 0.000000 1.000000
78.725540 232.677444 0.000000 -0.000000 0.000000 1.000000
129.849823 283.801727 0.000000 -0.000000 0.000000 1.000000
129.849823 232.677444 0.000000 -0.000000 0.000000 1.000000
180.974106 232.677444 0.000000 -0.000000 0.000000 1.000000
27.601257 181.553146 0.000000 -0.000000 0.000000 1.000000
2.039108 207.115295 0.000000 -0.000000 0.000000 1.000000
2.039108 181.553146 0.000000 -0.000000 0.000000 1.000000
27.601257 130.428864 0.000000 -0.000000 0.000000 1.000000
2.039108 155.991013 0.000000 -0.000000 0.000000 1.000000
2.039108 130.428864 0.000000 -0.000000 0.000000 1.000000
78.725540 130.428864 0.000000 -0.000000 0.000000 1.000000
27.601257 79.304581 0.000000 -0.000000 0.000000 1.000000
2.039108 104.866722 0.000000 -0.000000 0.000000 1.000000
2.039108 79.304581 0.000000 -0.000000 0.000000 1.000000
27.601257 28.180298 0.000000 -0.000000 0.000000 1.000000
2.039108 53.742432 0.000000 -0.000000 0.000000 1.000000
27.601257 2.618149 0.000000 -0.000000 0.000000 1.000000
2.039108 28.180298 0.000000 -0.000000 0.000000 1.000000
53.163391 2.618149 0.000000 -0.000000 0.000000 1.000000
78.725540 28.180298 0.000000 -0.000000 0.000000 1.000000
78.725540 2.618149 0.000000 -0.000000 0.000000 1.000000
104.287682 2.618149 0.000000 -0.000000 0.000000 1.000000
129.849823 79.304581 0.000000 -0.000000 0.000000 1.000000
129.849823 28.180298 0.000000 -0.000000 0.000000 1.000000
129.849823 2.618149 0.000000 -0.000000 0.000000 1.000000
155.411972 2.618149 0.000000 -0.000000 0.000000 1.000000
180.974106 28.180298 0.000000 -0.000000 0.000000 1.000000
180.974106 2.618149 0.000000 -0.000000 0.000000 1.000000
206.536255 2.618149 0.000000 -0.000000 0.000000 1.000000
232.098404 181.553146 0.000000 -0.000000 0.000000 1.000000
232.098404 130.428864 0.000000 -0.000000 0.000000 1.000000
283.222687 130.428864 0.000000 -0.000000 0.000000 1.000000
232.098404 79.304581 0.000000 -0.000000 0.000000 1.000000
232.098404 28.180298 0.000000 -0.000000 0.000000 1.000000
232.098404 2.618149 0.000000 -0.000000 0.000000 1.000000
257.660553 2.618149 0.000000 -0.000000 0.000000 1.000000
283.222687 28.180298 0.000000 -0.000000 0.000000 1.000000
283.222687 2.618149 0.000000 -0.000000 0.000000 1.000000
308.784821 2.618149 0.000000 -0.000000 0.000000 1.000000
334.346985 79.304581 0.000000 -0.000000 0.000000 1.000000
334.346985 28.180298 0.000000 -0.000000 0.000000 1.000000
334.346985 2.618149 0.000000 -0.000000 0.000000 1.000000
359.909119 2.618149 0.000000 -0.000000 0.000000 1.000000
385.471252 28.180298 0.000000 -0.000000 0.000000 1.000000
385.471252 2.618149 0.000000 -0.000000 0.000000 1.000000
411.033386 2.618149 0.000000 -0.000000 0.000000 1.000000
2.039108 2.618149 0.000000 0.000000 0.000000 1.000000
3 0 1 2
3 3 4 5
3 6 7 8
3 9 10 11
3 12 13 14
3 15 16 17
3 18 19 20
3 21 22 23
3 24 25 26
3 27 28 29
3 30 31 32
3 33 34 35
3 36 37 38
3 39 40 41
3 42 43 44
3 45 46 47
3 48 49 50
3 51 52 53
3 54 55 56
3 57 58 59
3 60 61 62
3 63 64 65
3 66 67 68
3 69 70 71
3 72 73 74
3 75 76 77
3 78 79 80
3 81 82 83
3 84 85 86
3 87 88 89
3 90 91 92
3 93 94 95
3 96 97 98
3 99 100 101
3 102 103 104
3 105 106 107
3 108 109 110
3 111 112 113
3 114 115 116
3 117 118 119
3 120 121 122
3 123 124 125
3 126 127 128
3 129 130 131
3 132 133 134
3 135 136 137
3 138 139 140
3 141 142 143
3 144 145 146
3 147 148 149
3 150 151 152
3 153 154 155
3 156 157 158
3 159 160 161
3 162 163 164
3 165 166 167
3 168 169 170
3 171 172 173
3 174 175 176
3 177 178 179
3 180 181 182
3 183 184 185
3 186 187 188
3 189 190 191
3 192 2 49
3 56 192 48
3 55 0 192
3 193 5 58
3 65 193 57
3 64 3 193
3 194 8 67
3 74 194 66
3 73 6 194
3 195 11 76
3 83 195 75
3 82 9 195
3 196 14 85
3 92 196 84
3 91 12 196
3 197 17 94
3 101 197 93
3 100 15 197
3 198 20 103
3 110 198 102
3 109 18 198
3 199 23 112
3 119 199 111
3 118 21 199
3 200 26 121
3 128 200 120
3 127 24 200
3 201 29 130
3 137 201 129
3 136 27 201
3 202 32 139
3 146 202 138
3 145 30 202
3 203 35 148
3 155 203 147
3 154 33 203
3 204 38 157
3 164 204 156
3 163 36 204
3 205 41 166
3 173 205 165
3 172 39 205
3 206 44 175
3 182 206 174
3 181 42 206
3 207 47 184
3 191 207 183
3 190 45 207
3 208 50 13
3 53 208 12
3 52 48 208
3 209 53 91
3 104 209 90
3 103 51 209
3 210 56 52
3 20 210 51
3 19 54 210
3 211 59 22
3 62 211 21
3 61 57 211
3 212 62 118
3 131 212 117
3 130 60 212
3 213 65 61
3 29 213 60
3 28 63 213
3 214 68 31
3 71 214 30
3 70 66 214
3 215 71 145
3 158 215 144
3 157 69 215
3 216 74 70
3 38 216 69
3 37 72 216
3 217 77 40
3 80 217 39
3 79 75 217
3 218 80 172
3 185 218 171
3 184 78 218
3 219 83 79
3 47 219 78
3 46 81 219
3 220 86 4
3 89 220 3
3 88 84 220
3 221 89 64
3 95 221 63
3 94 87 221
3 222 92 88
3 17 222 87
3 16 90 222
3 223 95 28
3 98 223 27
3 97 93 223
3 224 98 136
3 167 224 135
3 166 96 224
3 225 101 97
3 41 225 96
3 40 99 225
3 226 104 16
3 107 226 15
3 106 102 226
3 227 107 100
3 77 227 99
3 76 105 227
3 228 110 106
3 11 228 105
3 10 108 228
3 229 113 230
3 116 229 231
3 115 111 229
3 232 116 233
3 122 232 234
3 121 114 232
3 235 119 115
3 26 235 114
3 25 117 235
3 236 122 237
3 125 236 238
3 124 120 236
3 239 125 240
3 140 239 241
3 139 123 239
3 242 128 124
3 32 242 123
3 31 126 242
3 243 131 25
3 134 243 24
3 133 129 243
3 244 134 127
3 68 244 126
3 67 132 244
3 245 137 133
3 8 245 132
3 7 135 245
3 246 140 247
3 143 246 248
3 142 138 246
3 249 143 250
3 149 249 251
3 148 141 249
3 252 146 142
3 35 252 141
3 34 144 252
3 253 149 254
3 152 253 255
3 151 147 253
3 256 152 257
3 258 256 259
3 260 150 256
3 261 155 151
3 262 261 150
3 263 153 261
3 264 158 34
3 161 264 33
3 160 156 264
3 265 161 154
3 266 265 153
3 267 159 265
3 268 164 160
3 269 268 159
3 270 162 268
3 271 167 7
3 170 271 6
3 169 165 271
3 272 170 73
3 176 272 72
3 175 168 272
3 273 173 169
3 44 273 168
3 43 171 273
3 274 176 37
3 179 274 36
3 178 174 274
3 275 179 163
3 276 275 162
3 277 177 275
3 278 182 178
3 279 278 177
3 280 180 278
3 281 185 43
3 188 281 42
3 187 183 281
3 282 188 181
3 283 282 180
3 284 186 282
3 285 191 187
3 286 285 186
3 287 189 285
3 192 0 2
3 193 3 5
3 194 6 8
3 195 9 11
3 196 12 14
3 197 15 17
3 198 18 20
3 199 21 23
3 200 24 26
3 201 27 29
3 202 30 32
3 203 33 35
3 204 36 38
3 205 39 41
3 206 42 44
3 207 45 47
3 208 48 50
3 209 51 53
3 210 54 56
3 211 57 59
3 212 60 62
3 213 63 65
3 214 66 68
3 215 69 71
3 216 72 74
3 217 75 77
3 218 78 80
3 219 81 83
3 220 84 86
3 221 87 89
3 222 90 92
3 223 93 95
3 224 96 98
3 225 99 101
3 226 102 104
3 227 105 107
3 228 108 110
3 229 111 113
3 232 114 116
3 235 117 119
3 236 120 122
3 239 123 125
3 242 126 128
3 243 129 131
3 244 132 134
3 245 135 137
3 246 138 140
3 249 141 143
3 252 144 146
3 253 147 149
3 256 150 152
3 261 153 155
3 264 156 158
3 265 159 161
3 268 162 164
3 271 165 167
3 272 168 170
3 273 171 173
3 274 174 176
3 275 177 179
3 278 180 182
3 281 183 185
3 282 186 188
3 285 189 191
3 48 192 49
3 52 56 48
3 56 55 192
3 57 193 58
3 61 65 57
3 65 64 193
3 66 194 67
3 70 74 66
3 74 73 194
3 75 195 76
3 79 83 75
3 83 82 195
3 84 196 85
3 88 92 84
3 92 91 196
3 93 197 94
3 97 101 93
3 101 100 197
3 102 198 103
3 106 110 102
3 110 109 198
3 111 199 112
3 115 119 111
3 119 118 199
3 120 200 121
3 124 128 120
3 128 127 200
3 129 201 130
3 133 137 129
3 137 136 201
3 138 202 139
3 142 146 138
3 146 145 202
3 147 203 148
3 151 155 147
3 155 154 203
3 156 204 157
3 160 164 156
3 164 163 204
3 165 205 166
3 169 173 165
3 173 172 205
3 174 206 175
3 178 182 174
3 182 181 206
3 183 207 184
3 187 191 183
3 191 190 207
3 12 208 13
3 91 53 12
3 53 52 208
3 90 209 91
3 16 104 90
3 104 103 209
3 51 210 52
3 103 20 51
3 20 19 210
3 21 211 22
3 118 62 21
3 62 61 211
3 117 212 118
3 25 131 117
3 131 130 212
3 60 213 61
3 130 29 60
3 29 28 213
3 30 214 31
3 145 71 30
3 71 70 214
3 144 215 145
3 34 158 144
3 158 157 215
3 69 216 70
3 157 38 69
3 38 37 216
3 39 217 40
3 172 80 39
3 80 79 217
3 171 218 172
3 43 185 171
3 185 184 218
3 78 219 79
3 184 47 78
3 47 46 219
3 3 220 4
3 64 89 3
3 89 88 220
3 63 221 64
3 28 95 63
3 95 94 221
3 87 222 88
3 94 17 87
3 17 16 222
3 27 223 28
3 136 98 27
3 98 97 223
3 135 224 136
3 7 167 135
3 167 166 224
3 96 225 97
3 166 41 96
3 41 40 225
3 15 226 16
3 100 107 15
3 107 106 226
3 99 227 100
3 40 77 99
3 77 76 227
3 105 228 106
3 76 11 105
3 11 10 228
3 231 229 230
3 233 116 231
3 116 115 229
3 234 232 233
3 237 122 234
3 122 121 232
3 114 235 115
3 121 26 114
3 26 25 235
3 238 236 237
3 240 125 238
3 125 124 236
3 241 239 240
3 247 140 241
3 140 139 239
3 123 242 124
3 139 32 123
3 32 31 242
3 24 243 25
3 127 134 24
3 134 133 243
3 126 244 127
3 31 68 126
3 68 67 244
3 132 245 133
3 67 8 132
3 8 7 245
3 248 246 247
3 250 143 248
3 143 142 246
3 251 249 250
3 254 149 251
3 149 148 249
3 141 252 142
3 148 35 141
3 35 34 252
3 255 253 254
3 257 152 255
3 152 151 253
3 259 256 257
3 288 258 259
3 258 260 256
3 150 261 151
3 260 262 150
3 262 263 261
3 33 264 34
3 154 161 33
3 161 160 264
3 153 265 154
3 263 266 153
3 266 267 265
3 159 268 160
3 267 269 159
3 269 270 268
3 6 271 7
3 73 170 6
3 170 169 271
3 72 272 73
3 37 176 72
3 176 175 272
3 168 273 169
3 175 44 168
3 44 43 273
3 36 274 37
3 163 179 36
3 179 178 274
3 162 275 163
3 270 276 162
3 276 277 275
3 177 278 178
3 277 279 177
3 279 280 278
3 42 281 43
3 181 188 42
3 188 187 281
3 180 282 181
3 280 283 180
3 283 284 282
3 186 285 187
3 284 286 186
3 286 287 285
