ply
format ascii 1.0
element vertex 85
property float x
property float y
property float z
property float u
property float v
element face 112
property list uchar int vertex_indices
end_header
68 20.5147 0 68 20.5147
63.6863 37.3137 0 63.6863 37.3137
49.7868 49.2132 0 49.7868 49.2132
35.0589 61.9411 0 35.0589 61.9411
21 73.7746 0 21 73.7746
36.6188 82.6188 0 36.6188 82.6188
51 93.7329 0 51 93.7329
57 107.248 0 57 107.248
53.0467 123.953 0 53.0467 123.953
39.3188 137.681 0 39.3188 137.681
29 152.821 0 29 152.821
22 169.922 0 22 169.922
21 189.507 0 21 189.507
27.7228 206.723 0 27.7228 206.723
40.3294 220.329 0 40.3294 220.329
51.5218 227.478 0 51.5218 227.478
57.993 232.993 0 57.993 232.993
56.2148 245.785 0 56.2148 245.785
49.789 257 0 49.789 257
32.194 262.806 0 32.194 262.806
16.1738 271 0 16.1738 271
6 285.512 0 6 285.512
13.7845 301 0 13.7845 301
28.6424 310 0 28.6424 310
46.5713 315 0 46.5713 315
64.9144 319 0 64.9144 319
80.0107 324.011 0 80.0107 324.011
87.2874 336 0 87.2874 336
96.6044 322.604 0 96.6044 322.604
113.903 319 0 113.903 319
126.002 314.998 0 126.002 314.998
135.609 308.391 0 135.609 308.391
145.509 298.491 0 145.509 298.491
145.42 281.42 0 145.42 281.42
130.521 270.521 0 130.521 270.521
114.464 261 0 114.464 261
107.329 252.329 0 107.329 252.329
102.186 251.186 0 102.186 251.186
99 233.334 0 99 233.334
108.128 224.872 0 108.128 224.872
121.028 211.972 0 121.028 211.972
127.513 195.487 0 127.513 195.487
138.24 183 0 138.24 183
144.466 170.466 0 144.466 170.466
129 162.973 0 129 162.973
125.969 145.031 0 125.969 145.031
128 129.529 0 128 129.529
129.404 112.596 0 129.404 112.596
137.183 95.8174 0 137.183 95.8174
141.547 78.4533 0 141.547 78.4533
135.261 62.261 0 135.261 62.261
117.854 56 0 117.854 56
104.76 55.2399 0 104.76 55.2399
89.067 46 0 89.067 46
79.562 30.562 0 79.562 30.562
69 4 0 69 4
102.58 261.555 0 102.58 261.555
65.2636 217.907 0 65.2636 217.907
82.6282 257.121 0 82.6282 257.121
109.859 80.566 0 109.859 80.566
112.328 293.948 0 112.328 293.948
88.1451 212.47 0 88.1451 212.47
73.6142 241.684 0 73.6142 241.684
66.2016 258.956 0 66.2016 258.956
123.778 301.476 0 123.778 301.476
109.266 277.206 0 109.266 277.206
97.4512 133.411 0 97.4512 133.411
79.7472 89.0596 0 79.7472 89.0596
81.7609 293.491 0 81.7609 293.491
125.929 285.732 0 125.929 285.732
56.8538 71.297 0 56.8538 71.297
32.1948 287.371 0 32.1948 287.371
120.825 178.89 0 120.825 178.89
50.7482 198.033 0 50.7482 198.033
104.339 195.889 0 104.339 195.889
76.9309 120.785 0 76.9309 120.785
111.219 119.612 0 111.219 119.612
104.076 157.956 0 104.076 157.956
86.6691 68.0194 0 86.6691 68.0194
60.0077 297.442 0 60.0077 297.442
76.3276 275.166 0 76.3276 275.166
49.0519 171.012 0 49.0519 171.012
55.7589 276.747 0 55.7589 276.747
63.9428 148.577 0 63.9428 148.577
77.0839 185.468 0 77.0839 185.468
3 2 70 3
3 4 3 5
3 14 73 57
3 61 74 39
3 70 5 3
3 0 55 54
3 0 54 1
3 78 53 52
3 53 78 1
3 70 1 78
3 45 77 66
3 67 76 75
3 62 63 17
3 8 75 83
3 12 11 81
3 21 20 71
3 22 21 71
3 20 19 71
3 23 22 71
3 13 12 73
3 13 73 14
3 82 18 63
3 63 80 82
3 62 17 16
3 56 58 37
3 62 58 63
3 57 16 15
3 1 54 53
3 76 47 46
3 51 59 52
3 46 66 76
3 38 62 61
3 72 77 44
3 44 42 72
3 7 75 8
3 59 51 50
3 38 61 39
3 48 59 49
3 47 59 48
3 43 42 44
3 42 41 72
3 50 49 59
3 61 62 57
3 17 63 18
3 27 26 28
3 56 36 35
3 26 25 68
3 56 37 36
3 38 37 58
3 69 33 32
3 32 64 69
3 64 29 60
3 64 31 30
3 31 64 32
3 14 57 15
3 28 26 68
3 68 65 60
3 9 83 81
3 59 67 78
3 65 68 80
3 65 34 69
3 6 67 7
3 28 60 29
3 35 65 56
3 84 57 73
3 39 74 40
3 57 62 16
3 38 58 62
3 80 63 58
3 79 68 25
3 29 64 30
3 60 69 64
3 34 65 35
3 68 60 28
3 46 45 66
3 77 45 44
3 6 5 70
3 67 59 76
3 25 24 79
3 80 56 65
3 65 69 60
3 33 69 34
3 70 2 1
3 67 6 70
3 82 19 18
3 24 23 71
3 40 74 41
3 81 73 12
3 10 81 11
3 9 81 10
3 61 57 84
3 72 41 74
3 84 83 77
3 67 75 7
3 76 66 75
3 59 47 76
3 72 74 77
3 74 61 84
3 59 78 52
3 70 78 67
3 24 71 79
3 19 82 71
3 56 80 58
3 79 80 68
3 9 8 83
3 84 77 74
3 80 79 82
3 71 82 79
3 75 66 83
3 77 83 66
3 73 81 84
3 84 81 83
