ply
format ascii 1.0
element vertex 290
property float x
property float y
property float z
property float u
property float v
element face 317
property list uchar int vertex_indices
end_header
10.8483 -356.387 0 147.636 8.36396
1.88249 -346.804 0 139.979 19.0208
0.0786211 -332.741 0 140 33.201
1.98609 -318.903 0 143.678 46.6777
13.6663 -314.034 0 155.887 50
20.3141 -325.501 0 161 37.7695
26.2921 -324.924 0 167 37.5736
31.7522 -312.605 0 174 49.0883
35.7986 -299.345 0 179.719 61.7193
48.2906 -302.481 0 191.704 57
53.3024 -292.12 0 198 66.6324
56.6052 -278.657 0 203 79.5613
48.8512 -271.383 0 196.239 87.7609
37.5451 -263.754 0 186 96.7624
26.5535 -255.945 0 176.097 105.903
16.2704 -247.114 0 167.026 115.974
19.4975 -234.77 0 171.803 127.803
18.5132 -225.554 0 172 137.064
22.9425 -212.952 0 177.995 148.995
28.4235 -200.072 0 185.066 161.066
37.9947 -189.98 0 195.844 169.844
44.1371 -177.222 0 203.622 181.622
38.9032 -172.149 0 199.605 187
25.3803 -177.384 0 186.185 183.185
11.8418 -183.134 0 172.919 179
-2.5418 -188.885 0 159.407 175.407
-17.4982 -192.914 0 145.818 174
-30.3184 -202.688 0 134 166.718
-34.5855 -218.013 0 130.265 153.265
-39.2443 -233.003 0 126 140.032
-44.6542 -247.724 0 121 127.103
-49.1569 -262.653 0 116.83 113.83
-54.7942 -276.547 0 111 101.245
-60.7399 -290.306 0 104.809 88.8092
-68.1195 -303.437 0 97.031 77.031
-74.0567 -316.208 0 90 64.9434
-77.4377 -324.675 0 85.8385 56.8385
-86.0957 -327.016 0 77 55.3289
-83.8315 -313.596 0 80.5247 68.4753
-81.992 -307.041 0 83 74.8438
-95.5526 -304.087 0 69.8678 79.1322
-104.408 -312.092 0 60.2982 72
-113.498 -319.431 0 50.554 65.554
-115.842 -311.196 0 49 73.9741
-110.941 -299.336 0 55 85.3173
-103.727 -287.628 0 63.2955 96.2955
-91.7074 -280.775 0 75.9327 102
-80.4472 -270.828 0 86 109.276
-78.0022 -254.944 0 88 123.448
-75.2249 -239.364 0 90.4379 137.438
-73.2955 -224.356 0 92 150.963
-71.0459 -208.72 0 94 165.134
-68.4252 -193.958 0 97 178.892
-65.1295 -179.783 0 101 192.235
-60.7884 -166.161 0 106.116 205.116
-54.523 -153.688 0 113.265 217
-47.0617 -156.623 0 120.43 213.43
-33.4803 -148.448 0 133.087 219.087
-20.5569 -139.888 0 145 225.052
-17.0645 -132.304 0 148.809 232
-4.28602 -127.309 0 161.694 235.694
3.76439 -117.323 0 170 244.081
4.07414 -102.744 0 171 257.839
4.374 -87.5342 0 172 272.425
6.95899 -72.8859 0 175 286.182
1.45429 -59.9254 0 169.921 299.079
-3.96968 -47.1149 0 165 312.04
-16.0863 -43.6306 0 153.031 316
-22.5899 -31.4041 0 147 328.484
-30.0366 -20.2169 0 140.001 339.999
-38.9029 -9.23887 0 131.516 351.484
-47.0912 2.02388 0 123.737 363.263
-54.6092 13.4429 0 116.666 375.334
-63.692 24.2535 0 108.181 386.819
-72.6632 35.4162 0 99.6956 398.304
-82.9535 45.8212 0 89.7115 409
-76.6301 51.9992 0 96.2175 415
-63.4478 56.3541 0 109.561 419
-60.4704 66.2826 0 113 429.49
-65.0446 78.8508 0 109 442.833
-67.5419 92.6328 0 107 457.005
-70.7732 105.556 0 104 470.762
-81.4199 113.041 0 92.9758 480.024
-91.5574 120.922 0 82.0762 489.924
-102.444 126.66 0 70.298 497.702
-111.823 134.899 0 60.1059 507.894
-120.248 144.238 0 50.9132 519.087
-128.208 153.345 0 42.5491 529.451
-134.212 164.519 0 36.1849 541.815
-140.585 174.859 0 29 553.839
-146.949 184.646 0 21.7498 565.25
-154.28 195.427 0 13.9716 577.028
-161.664 206.574 0 6.60748 588.393
-165.339 220.01 0 3 601.898
-162.741 230.119 0 5.65576 612
-150.187 224.185 0 18.1705 606
-137.741 231.124 0 29.8989 613.899
-126.859 240.657 0 41.129 623
-115.74 249.846 0 52.4011 632
-103.596 256.681 0 64.6477 638.648
-94.3117 257.113 0 73.938 638.938
-102.214 245.921 0 65.8669 627.867
-108.899 233.666 0 59 615.711
-113.914 220.795 0 53.8459 602.846
-119.339 208.707 0 49 589.853
-116.169 200.786 0 53.4191 580
-106.187 193.292 0 64.4886 570.511
-96.2554 185.947 0 75.5491 561
-86.3143 178.544 0 86.5804 551.42
-76.3542 170.696 0 97.4802 541.52
-66.2198 163.248 0 108.537 532
-56.0905 155.777 0 119.572 522.428
-45.1168 150.936 0 131.643 515.357
-32.8295 147.495 0 144.593 510.407
-21.2783 140.543 0 156 502.475
-13.7438 129.09 0 163 490.374
-5.96355 117.992 0 170.514 478.486
3.7076 107.922 0 180 467.416
12.5596 97.1319 0 188.191 455.809
20.3801 85.835 0 195.262 443.738
31.194 78.3994 0 206.057 435
41.0315 89.4876 0 216.526 444.526
51.5468 100.348 0 227.602 454
62.1891 110.569 0 238.911 462.911
73.1589 119.936 0 250.56 471
84.3593 129.665 0 262.174 479.174
96.4997 138.911 0 274.245 486.245
101.936 153.678 0 280 498.862
105.576 169.501 0 284 512.205
109.191 185.298 0 288 525.548
113.581 200.004 0 293 538.477
118.997 214.392 0 298.995 550.995
126.474 228.943 0 306.773 562.773
133.949 243.55 0 314.551 574.551
142.853 257.697 0 323.743 585.743
150.966 272.047 0 332.229 597.229
159.581 285.611 0 341.421 608.421
168.254 297.501 0 351 618.867
177.77 306.67 0 361.382 627
183.737 302.277 0 366.861 622
185.225 291.336 0 367.169 610.831
199.756 291.356 0 380.582 607
213.642 289.356 0 394.339 604
226.243 283.186 0 406.311 596.689
224.799 274.307 0 404.046 588
210.347 271.861 0 389.46 587
195.577 268.358 0 374.874 586
182.294 261.972 0 361.961 583.039
176.512 248.393 0 356 572.431
172.928 232.433 0 352 559.088
169.868 216.331 0 348.527 545.527
165.7 200.576 0 344 532.403
160.97 184.785 0 339 519.474
157.36 168.633 0 335.093 506.093
153.614 152.747 0 331 492.789
152.98 136.543 0 330 479.032
154.859 120.746 0 331 464.446
160.541 109.125 0 336 452.689
151.588 100.335 0 326.538 444.538
143.123 88.1702 0 317.345 433.345
133.222 77.2533 0 306.86 423.86
137.662 71.6344 0 311 418.459
130.275 59.6942 0 303 407.358
122.644 46.6324 0 294.768 395.768
115.437 33.6617 0 286.99 383.99
107.412 21.1625 0 278.505 372.505
99.4332 9.02686 0 270 361.027
90.8426 -3.14854 0 261 349.755
85.8071 -15.7841 0 255.998 338
88.6615 -27.2838 0 259 326.483
93.0722 -40.2407 0 263 313.141
96.7798 -53.6122 0 266 299.384
100.365 -66.9289 0 269 285.626
104.459 -79.4302 0 273 272.284
115.571 -85.4087 0 284.578 264.422
128.056 -87.0045 0 297.331 261
142.08 -84.0777 0 311.917 262
152.301 -86.3988 0 322 258.155
162.077 -92.8011 0 331.188 250
174.209 -88.0461 0 344.531 252
188.115 -85.7464 0 359.117 251
202.015 -83.2798 0 373.703 250
215.723 -81.8472 0 387.874 248
215.763 -68.7468 0 391 260.459
212.378 -54.0462 0 391 275.459
208.178 -40.0229 0 390 290.047
204.886 -25.393 0 390 305.044
200.708 -11.3778 0 389 319.633
197.42 3.25705 0 389 334.633
193.244 17.2664 0 388 349.217
189.958 31.9025 0 388 364.217
187.931 45.5547 0 389.018 377.982
193.169 44.9772 0 394 376.269
193.832 32.8994 0 392 364.34
198.89 19.511 0 394 350.169
207.08 8.32883 0 399.537 337.463
218.502 -0.575101 0 408.73 326.27
231.609 -6.10371 0 420.304 318
245.025 -9.83179 0 432.579 311.421
258.342 -14.0833 0 444.649 304.351
271.532 -19.0812 0 456.428 296.572
281.387 -28.4088 0 464 285.295
289.086 -39.8965 0 469 272.366
294.087 -53.2045 0 471 258.194
298.199 -67.1274 0 472 243.608
301.309 -80.9322 0 472 229.438
304.84 -93.5944 0 472.64 216.36
308.578 -107.29 0 473.238 202.238
309.473 -119.954 0 471.297 189.703
313.428 -134.129 0 471.996 174.996
313.753 -148.239 0 469.168 161.168
310.305 -161.712 0 462.804 148.804
301.309 -172.049 0 451.733 140.733
290.903 -181.334 0 439.522 134
280.667 -190.853 0 427.422 127
271.928 -201.549 0 416.52 118.52
266.217 -214.633 0 408.035 107.035
265.034 -228.49 0 403.792 93.7925
267.342 -242.162 0 403 79.9492
271.947 -253.345 0 405 68.0205
269.338 -260.909 0 400.772 61.2279
262.67 -248.649 0 397 74.6653
258.447 -234.65 0 396 89.2529
255.107 -220.029 0 396 104.253
250.879 -206.036 0 395 118.836
247.537 -191.413 0 395 133.837
244.194 -176.789 0 395 148.837
239.97 -162.79 0 394 163.422
236.628 -148.16 0 394 178.422
232.414 -134.175 0 393 193.009
229.098 -119.617 0 393 208.01
219.511 -114.085 0 384.873 215.873
205.56 -118.653 0 370.234 215
191.623 -123.138 0 355.649 214
177.629 -127.496 0 341.063 213
170.446 -136.107 0 332.72 206
155.969 -139.499 0 318.135 205
144.84 -147.738 0 306.439 198.439
139.099 -160.602 0 299.367 186.367
135.663 -172.476 0 294.581 175
142.34 -179.626 0 300.319 167
129.943 -181.386 0 287.862 166.862
127.568 -194.275 0 284 154.29
122.22 -207.179 0 277.134 142.134
116.637 -219.997 0 270 130.09
112.293 -231.493 0 264.235 119.235
108.413 -243.447 0 258.871 107.871
101.95 -254.929 0 251 97.303
95.2231 -267.463 0 242.729 85.7291
86.4153 -278.875 0 232.536 75.5365
72.9866 -282.865 0 218.708 73.2917
61.8417 -287.57 0 207.052 70.0515
56.3933 -300.451 0 200 57.9727
63.3427 -309.604 0 205.713 48
69.8808 -318.894 0 211 37.9436
68.4339 -323.29 0 209 33.7725
64.7189 -333.615 0 203.989 24.0107
58.9993 -343.383 0 197.061 15.061
50.5388 -350.593 0 187.744 9
38.79 -356.874 0 175.283 4.28345
23.0659 -362.225 0 159 1
25.0819 -343.61 0 163.397 19.2
60.4982 -156.719 0 222.418 199.851
44.1237 -227.478 0 197.158 131.895
70.8741 -255.669 0 220.087 100.537
-20.9702 50.1596 0 151.861 410.94
140.582 -113.674 0 306.586 232.878
237.427 -95.1383 0 406.468 230.06
100.108 -156.328 0 261.32 195.618
24.2166 -142.955 0 188.497 217.457
43.292 -35.9639 0 212.946 320.627
79.2092 -212.479 0 233.86 142.326
270.323 -116.374 0 433.92 201.91
102.527 -183.344 0 260.625 168.349
51.6676 3.69046 0 222.394 359.242
54.4871 -87.5736 0 221.899 268.749
-38.3873 107.605 0 136.779 470.704
283.835 -147.761 0 440.11 168.305
251.23 -52.9862 0 429.173 267.959
78.7317 62.5242 0 251.883 414.403
113.481 107.426 0 288.938 454.209
-6.48027 75.1539 0 167.384 435.514
-15.1242 16.3204 0 156.203 376.245
91.0457 -117.401 0 256.529 235.57
66.3539 -55.29 0 235.437 299.924
33.1047 -109.9 0 199.546 248.849
268.162 -81.1364 0 439.635 236.523
79.0106 31.3052 0 250.681 384.232
86.3827 93.1451 0 261.248 443.175
-2.36316 -9.84727 0 168.09 349.187
3 42 41 43
3 38 37 36
3 43 41 44
3 40 46 45
3 40 45 44
3 41 40 44
3 5 3 2
3 1 261 2
3 39 35 34
3 39 38 35
3 39 34 46
3 46 40 39
3 35 38 36
3 33 46 34
3 46 33 47
3 30 49 48
3 50 49 29
3 27 52 51
3 27 53 52
3 28 51 50
3 31 48 47
3 31 30 48
3 28 50 29
3 30 29 49
3 54 56 55
3 54 53 56
3 56 53 27
3 28 27 51
3 56 27 26
3 31 47 32
3 33 32 47
3 0 260 261
3 7 6 256
3 6 5 261
3 264 13 12
3 2 261 5
3 4 3 5
3 9 8 7
3 6 261 258
3 257 256 6
3 256 253 7
3 253 256 255
3 10 9 252
3 10 252 251
3 253 252 9
3 7 253 9
3 257 6 258
3 16 15 14
3 16 14 263
3 263 17 16
3 57 26 25
3 58 25 24
3 14 13 263
3 17 263 18
3 264 11 250
3 11 264 12
3 21 20 271
3 61 60 269
3 263 19 18
3 23 269 24
3 250 11 251
3 19 263 20
3 10 251 11
3 56 26 57
3 22 21 262
3 0 261 1
3 246 245 271
3 23 22 269
3 107 87 86
3 107 86 108
3 86 85 108
3 105 90 89
3 89 88 106
3 107 88 87
3 107 106 88
3 85 84 109
3 76 75 74
3 77 76 74
3 110 109 84
3 85 109 108
3 84 83 110
3 82 111 83
3 82 81 112
3 95 93 92
3 92 91 95
3 91 90 104
3 104 95 91
3 95 94 93
3 103 97 96
3 95 104 96
3 96 104 103
3 102 97 103
3 90 105 104
3 102 98 97
3 99 98 101
3 101 100 99
3 98 102 101
3 89 106 105
3 59 58 60
3 57 25 58
3 289 70 69
3 282 265 72
3 289 282 70
3 60 58 269
3 63 275 64
3 275 63 285
3 67 66 68
3 68 66 289
3 270 65 64
3 173 172 275
3 24 269 58
3 289 274 282
3 73 72 265
3 78 265 281
3 265 78 77
3 81 80 276
3 83 111 110
3 79 78 276
3 82 112 111
3 119 118 281
3 77 74 73
3 276 281 116
3 281 120 119
3 276 78 281
3 276 112 81
3 112 276 113
3 113 276 114
3 114 276 115
3 265 120 281
3 282 71 70
3 275 270 64
3 255 254 253
3 264 250 249
3 248 264 249
3 264 247 246
3 271 245 244
3 271 263 264
3 271 264 246
3 243 242 273
3 273 241 268
3 241 240 239
3 273 242 241
3 268 239 238
3 236 235 266
3 268 266 283
3 241 239 268
3 283 266 174
3 266 176 175
3 177 176 266
3 234 178 266
3 266 178 177
3 283 174 173
3 284 172 171
3 283 285 262
3 266 235 234
3 179 234 233
3 232 231 181
3 180 233 232
3 179 233 180
3 181 180 232
3 182 181 231
3 230 267 231
3 234 179 178
3 284 171 170
3 222 221 218
3 221 219 218
3 219 221 220
3 223 222 217
3 216 224 223
3 226 225 214
3 215 225 224
3 222 218 217
3 216 215 224
3 217 216 223
3 226 214 277
3 277 212 211
3 277 214 213
3 215 214 225
3 277 211 210
3 182 231 267
3 278 286 203
3 227 277 228
3 207 272 208
3 184 278 185
3 184 183 278
3 201 200 278
3 278 199 198
3 226 277 227
3 272 207 206
3 208 272 277
3 206 205 286
3 273 262 21
3 205 204 286
3 267 183 182
3 203 202 278
3 206 286 272
3 273 21 271
3 208 277 209
3 277 210 209
3 169 168 270
3 270 284 169
3 270 168 274
3 163 279 164
3 165 287 166
3 165 164 287
3 287 120 274
3 284 170 169
3 163 162 279
3 160 288 162
3 279 288 122
3 161 160 162
3 158 280 159
3 160 280 288
3 287 164 279
3 158 156 280
3 124 123 288
3 280 160 159
3 288 280 125
3 153 129 128
3 129 152 130
3 128 127 154
3 126 155 127
3 154 127 155
3 130 152 131
3 153 128 154
3 132 131 151
3 150 133 132
3 133 149 134
3 134 148 135
3 153 152 129
3 126 280 155
3 156 155 280
3 158 157 156
3 194 189 188
3 187 195 188
3 194 190 189
3 192 190 193
3 190 192 191
3 193 190 194
3 196 187 186
3 186 185 197
3 197 185 198
3 278 198 185
3 196 195 187
3 194 188 195
3 197 196 186
3 151 150 132
3 149 133 150
3 134 149 148
3 140 137 136
3 137 139 138
3 147 136 135
3 148 147 135
3 131 152 151
3 147 146 140
3 145 144 142
3 146 145 141
3 139 137 140
3 145 142 141
3 141 140 146
3 143 142 144
3 140 136 147
3 260 259 261
3 199 278 200
3 258 261 259
3 247 264 248
3 13 264 263
3 73 265 77
3 72 71 282
3 174 266 175
3 237 236 266
3 272 230 229
3 204 203 286
3 238 237 268
3 266 268 237
3 22 262 269
3 283 262 268
3 168 167 274
3 66 65 270
3 271 244 243
3 20 263 271
3 230 272 267
3 228 272 229
3 262 273 268
3 243 273 271
3 287 167 166
3 282 120 265
3 62 285 63
3 62 61 285
3 79 276 80
3 116 115 276
3 277 272 228
3 213 212 277
3 267 278 183
3 202 201 278
3 122 121 279
3 279 121 120
3 126 125 280
3 288 125 124
3 118 117 281
3 281 117 116
3 289 69 68
3 120 282 274
3 173 275 283
3 283 275 285
3 270 275 284
3 172 284 275
3 61 269 285
3 262 285 269
3 278 267 286
3 272 286 267
3 120 287 279
3 167 287 274
3 122 288 123
3 288 279 162
3 274 289 270
3 66 270 289
