ply
format ascii 1.0
element vertex 290
property float x
property float y
property float z
property float u
property float v
element face 317
property list uchar int vertex_indices
end_header
59.2072 -393.617 0 147.636 8.36396
49.0573 -385.298 0 139.979 19.0208
45.4164 -371.597 0 140 33.201
45.4831 -357.628 0 143.678 46.6777
56.4199 -351.262 0 155.887 50
64.5211 -361.753 0 161 37.7695
70.3711 -360.394 0 167 37.5736
74.1602 -347.463 0 174 49.0883
76.4239 -333.784 0 179.719 61.7193
89.2202 -335.248 0 191.704 57
92.8241 -324.316 0 198 66.6324
94.3257 -310.535 0 203 79.5613
85.6803 -304.341 0 196.239 87.7609
73.4646 -298.259 0 186 96.7624
61.5371 -291.956 0 176.097 105.903
50.1828 -284.551 0 167.026 115.974
51.7604 -271.889 0 171.803 127.803
49.5745 -262.878 0 172 137.064
52.3128 -249.8 0 177.995 148.995
56.0577 -236.308 0 185.066 161.066
64.2137 -225.034 0 195.844 169.844
68.5293 -211.501 0 203.622 181.622
62.0011 -206.946 0 199.605 187
48.4611 -213.685 0 186.185 183.185
34.7798 -221.119 0 172.919 179
19.7132 -229.257 0 159.407 175.407
3.63799 -236.197 0 145.818 174
-9.93951 -248.736 0 134 166.718
-14.5637 -266.171 0 130.265 153.265
-19.457 -283.125 0 126 140.032
-25.1173 -299.844 0 121 127.103
-29.8137 -316.631 0 116.83 113.83
-35.168 -331.923 0 111 101.245
-40.7827 -347.077 0 104.809 88.8092
-47.6843 -361.586 0 97.031 77.031
-52.5124 -374.928 0 90 64.9434
-55.1123 -383.674 0 85.8385 56.8385
-63.5216 -386.797 0 77 55.3289
-62.4929 -373.228 0 80.5247 68.4753
-61.2816 -366.554 0 83 74.8438
-75.1371 -364.933 0 69.8678 79.1322
-83.2259 -373.715 0 60.2982 72
-91.6078 -381.853 0 50.554 65.554
-94.6943 -373.867 0 49 73.9741
-90.8968 -361.609 0 55 85.3173
-84.7877 -349.297 0 63.2955 96.2955
-73.4663 -341.398 0 75.9327 102
-61.2522 -328.508 0 86 109.276
-58.5065 -310.7 0 88 123.448
-55.5291 -293.335 0 90.4379 137.438
-53.3648 -276.644 0 92 150.963
-50.9962 -259.361 0 94 165.134
-48.8424 -243.543 0 97 178.892
-46.3221 -228.559 0 101 192.235
-42.8308 -214.23 0 106.116 205.116
-37.5108 -201.225 0 113.265 217
-29.7988 -203.49 0 120.43 213.43
-15.5329 -192.56 0 133.087 219.087
-1.85633 -181.15 0 145 225.052
1.23663 -172.934 0 148.809 232
13.7828 -166.607 0 161.694 235.694
21.3645 -155 0 170 244.081
20.8281 -139.62 0 171 257.839
20.2998 -123.788 0 172 272.425
22.3364 -108.17 0 175 286.182
16.376 -95.1003 0 169.921 299.079
10.455 -82.4243 0 165 312.04
-1.78797 -79.419 0 153.031 316
-8.75591 -67.4635 0 147 328.484
-16.6291 -56.608 0 140.001 339.999
-25.8327 -46.1508 0 131.516 351.484
-34.3873 -35.4284 0 123.737 363.263
-42.2962 -24.7255 0 116.666 375.334
-51.9505 -14.675 0 108.181 386.819
-61.399 -3.85303 0 99.6956 398.304
-71.9692 6.27261 0 89.7115 409
-65.8203 12.6093 0 96.2175 415
-52.8066 17.2831 0 109.561 419
-50.2781 26.4887 0 113 429.49
-55.4578 38.1325 0 109 442.833
-58.4542 51.4482 0 107 457.005
-61.8849 63.3906 0 104 470.762
-72.1191 68.9238 0 92.9758 480.024
-81.3742 74.6452 0 82.0762 489.924
-91.2417 78.2213 0 70.298 497.702
-99.676 84.3972 0 60.1059 507.894
-107.199 91.7952 0 50.9132 519.087
-114.656 99.6165 0 42.5491 529.451
-120.18 109.567 0 36.1849 541.815
-125.567 118.208 0 29 553.839
-130.83 126.413 0 21.7498 565.25
-137.514 136.338 0 13.9716 577.028
-144.696 147.471 0 6.60748 588.393
-148.115 160.936 0 3 601.898
-145.324 170.984 0 5.65576 612
-132.888 164.802 0 18.1705 606
-119.5 170.501 0 29.8989 613.899
-108.811 180.269 0 41.129 623
-97.6693 189.43 0 52.4011 632
-85.4966 196.213 0 64.6477 638.648
-76.2104 196.604 0 73.938 638.938
-84.1624 185.448 0 65.8669 627.867
-90.9052 173.227 0 59 615.711
-96.0385 160.453 0 53.8459 602.846
-102.393 149.442 0 49 589.853
-100.813 143.58 0 53.4191 580
-92.2026 138.167 0 64.4886 570.511
-83.6483 133.106 0 75.5491 561
-75.0218 128.005 0 86.5804 551.42
-66.1978 122.342 0 97.4802 541.52
-57.1675 117.108 0 108.537 532
-48.1143 111.889 0 119.572 522.428
-38.4332 109.436 0 131.643 515.357
-27.0116 107.617 0 144.593 510.407
-15.3639 101.776 0 156 502.475
-7.25458 91.0762 0 163 490.374
0.801634 80.8262 0 170.514 478.486
10.6093 71.8299 0 180 467.416
20.1429 61.9726 0 188.191 455.809
28.7445 51.5587 0 195.262 443.738
39.53 45.5012 0 206.057 435
48.665 58.2929 0 216.526 444.526
58.5597 70.6516 0 227.602 454
68.4739 82.2374 0 238.911 462.911
78.7013 92.8822 0 250.56 471
89.4225 104.25 0 262.174 479.174
101.532 115.92 0 274.245 486.245
106.569 133.171 0 280 498.862
109.739 151.863 0 284 512.205
112.866 170.495 0 288 525.548
116.611 187.183 0 293 538.477
121.406 203.637 0 298.995 550.995
128.465 221.303 0 306.773 562.773
135.521 239.09 0 314.551 574.551
144.016 256.524 0 323.743 585.743
151.662 274.055 0 332.229 597.229
159.665 290.172 0 341.421 608.421
167.475 303.432 0 351 618.867
176.166 313.431 0 361.382 627
182.504 309.611 0 366.861 622
184.996 299.014 0 367.169 610.831
200.28 303.263 0 380.582 607
214.193 302.013 0 394.339 604
227.241 296.848 0 406.311 596.689
226.504 287.862 0 404.046 588
212.27 284.178 0 389.46 587
197.495 278.158 0 374.874 586
184.1 268.093 0 361.961 583.039
178.635 251.176 0 356 572.431
175.56 232.246 0 352 559.088
173.003 213.238 0 348.527 545.527
169.303 194.491 0 344 532.403
164.977 175.431 0 339 519.474
161.796 156.094 0 335.093 506.093
158.519 137.25 0 331 492.789
158.373 118.194 0 330 479.032
161.167 101.065 0 331 464.446
167.463 89.5682 0 336 452.689
159.008 80.2129 0 326.538 444.538
151.294 67.1344 0 317.345 433.345
142.071 54.7813 0 306.86 423.86
146.839 48.8951 0 311 418.459
140.102 36.1204 0 303 407.358
133.194 21.5129 0 294.768 395.768
126.658 7.30033 0 286.99 383.99
119.165 -6.24826 0 278.505 372.505
111.737 -19.0278 0 270 361.027
103.637 -32.1385 0 261 349.755
98.679 -45.7845 0 255.998 338
101.4 -57.3711 0 259 326.483
106.172 -69.9499 0 263 313.141
110.529 -82.8896 0 266 299.384
114.641 -95.7221 0 269 285.626
118.692 -107.41 0 273 272.284
129.004 -111.603 0 284.578 264.422
140.912 -111.399 0 297.331 261
154.026 -106.549 0 311.917 262
164.125 -107.257 0 322 258.155
174.22 -111.76 0 331.188 250
184.521 -104.371 0 344.531 252
197.067 -98.6807 0 359.117 251
209.514 -92.6192 0 373.703 250
221.946 -87.5717 0 387.874 248
218.363 -74.7086 0 391 260.459
211.221 -61.3516 0 391 275.459
203.52 -48.8934 0 390 290.047
196.549 -35.619 0 390 305.044
188.88 -23.1661 0 389 319.633
181.911 -9.88383 0 389 334.633
174.246 2.56378 0 388 349.217
167.277 15.8459 0 388 364.217
161.779 28.5056 0 389.018 377.982
166.988 29.3061 0 394 376.269
170.76 17.8135 0 392 364.34
179.117 6.19557 0 394 350.169
189.926 -2.48134 0 399.537 337.463
203.266 -8.12005 0 408.73 326.27
217.357 -10.062 0 420.304 318
231.285 -10.1912 0 432.579 311.421
245.243 -10.8529 0 444.649 304.351
259.271 -12.2611 0 456.428 296.572
271.198 -18.7086 0 464 285.295
281.596 -27.7874 0 469 272.366
289.82 -39.2837 0 471 258.194
297.333 -51.606 0 472 243.608
303.896 -64.136 0 472 229.438
310.584 -75.5317 0 472.64 216.36
317.75 -87.8679 0 473.238 202.238
321.902 -99.8883 0 471.297 189.703
329.405 -112.543 0 471.996 174.996
333.394 -126.082 0 469.168 161.168
333.575 -139.99 0 462.804 148.804
327.582 -152.316 0 451.733 140.733
319.951 -163.992 0 439.522 134
312.543 -175.847 0 427.422 127
306.891 -188.448 0 416.52 118.52
304.784 -202.569 0 408.035 107.035
307.25 -216.256 0 403.792 93.7925
313.038 -228.855 0 403 79.9492
320.398 -238.453 0 405 68.0205
319.848 -246.435 0 400.772 61.2279
310.217 -236.335 0 397 74.6653
302.494 -223.918 0 396 89.2529
295.462 -210.671 0 396 104.253
287.737 -198.263 0 395 118.836
280.701 -185.014 0 395 133.837
273.665 -171.762 0 395 148.837
265.939 -159.342 0 394 163.422
258.896 -146.081 0 394 178.422
251.178 -133.69 0 393 193.009
244.169 -120.59 0 393 208.01
233.42 -118.141 0 384.873 215.873
220.949 -126.713 0 370.234 215
208.352 -134.947 0 355.649 214
195.544 -142.904 0 341.063 213
189.818 -153.112 0 332.72 206
175.831 -159.116 0 318.135 205
165.499 -169.142 0 306.439 198.439
161.2 -182.712 0 299.367 186.367
159.208 -194.96 0 294.581 175
166.725 -201.114 0 300.319 167
154.607 -204.551 0 287.862 166.862
153.77 -217.593 0 284 154.29
150.063 -231.082 0 277.134 142.134
146.157 -244.494 0 270 130.09
143.347 -256.457 0 264.235 119.235
141.062 -268.817 0 258.871 107.871
136.158 -281.047 0 251 97.303
131.138 -294.358 0 242.729 85.7291
123.908 -306.83 0 232.536 75.5365
111.119 -312.552 0 218.708 73.2917
100.69 -318.681 0 207.052 70.0515
96.9848 -332.168 0 200 57.9727
105.08 -340.324 0 205.713 48
112.785 -348.672 0 211 37.9436
111.93 -353.22 0 209 33.7725
109.608 -363.945 0 203.989 24.0107
105.226 -374.382 0 197.061 15.061
97.7889 -382.644 0 187.744 9
86.9697 -390.418 0 175.283 4.28345
72.0876 -397.794 0 159 1
71.6337 -379.076 0 163.397 19.2
82.0871 -189.004 0 222.418 199.851
75.2157 -261.427 0 197.158 131.895
105.448 -285.871 0 220.087 100.537
-10.2379 12.9725 0 151.861 410.94
156.715 -136.091 0 306.586 232.878
246.003 -94.7842 0 406.468 230.06
121.905 -183.736 0 261.32 195.618
43.7893 -179.456 0 188.497 217.457
56.8702 -68.7546 0 212.946 320.627
108.041 -241.972 0 233.86 142.326
283.179 -106.627 0 433.92 201.91
127.438 -210.111 0 260.625 168.349
64.1217 -27.9644 0 222.394 359.242
70.3313 -120.084 0 221.899 268.749
-29.9508 67.6714 0 136.779 470.704
304.385 -133.418 0 440.11 168.305
248.453 -50.2726 0 429.173 267.959
88.4689 34.7346 0 251.883 414.403
120.591 84.8939 0 288.938 454.209
3.19579 38.3196 0 167.384 435.514
-2.95849 -19.8405 0 156.203 376.245
108.55 -146.391 0 256.529 235.57
80.4003 -86.7455 0 235.437 299.924
50.2363 -144.862 0 199.546 248.849
271.927 -72.8827 0 439.635 236.523
90.3143 2.3646 0 250.681 384.232
94.2931 67.3024 0 261.248 443.175
10.5784 -45.0756 0 168.09 349.187
3 42 41 43
3 38 37 36
3 43 41 44
3 40 46 45
3 40 45 44
3 41 40 44
3 5 3 2
3 1 261 2
3 39 35 34
3 39 38 35
3 39 34 46
3 46 40 39
3 35 38 36
3 33 46 34
3 46 33 47
3 30 49 48
3 50 49 29
3 27 52 51
3 27 53 52
3 28 51 50
3 31 48 47
3 31 30 48
3 28 50 29
3 30 29 49
3 54 56 55
3 54 53 56
3 56 53 27
3 28 27 51
3 56 27 26
3 31 47 32
3 33 32 47
3 0 260 261
3 7 6 256
3 6 5 261
3 264 13 12
3 2 261 5
3 4 3 5
3 9 8 7
3 6 261 258
3 257 256 6
3 256 253 7
3 253 256 255
3 10 9 252
3 10 252 251
3 253 252 9
3 7 253 9
3 257 6 258
3 16 15 14
3 16 14 263
3 263 17 16
3 57 26 25
3 58 25 24
3 14 13 263
3 17 263 18
3 264 11 250
3 11 264 12
3 21 20 271
3 61 60 269
3 263 19 18
3 23 269 24
3 250 11 251
3 19 263 20
3 10 251 11
3 56 26 57
3 22 21 262
3 0 261 1
3 246 245 271
3 23 22 269
3 107 87 86
3 107 86 108
3 86 85 108
3 105 90 89
3 89 88 106
3 107 88 87
3 107 106 88
3 85 84 109
3 76 75 74
3 77 76 74
3 110 109 84
3 85 109 108
3 84 83 110
3 82 111 83
3 82 81 112
3 95 93 92
3 92 91 95
3 91 90 104
3 104 95 91
3 95 94 93
3 103 97 96
3 95 104 96
3 96 104 103
3 102 97 103
3 90 105 104
3 102 98 97
3 99 98 101
3 101 100 99
3 98 102 101
3 89 106 105
3 59 58 60
3 57 25 58
3 289 70 69
3 282 265 72
3 289 282 70
3 60 58 269
3 63 275 64
3 275 63 285
3 67 66 68
3 68 66 289
3 270 65 64
3 173 172 275
3 24 269 58
3 289 274 282
3 73 72 265
3 78 265 281
3 265 78 77
3 81 80 276
3 83 111 110
3 79 78 276
3 82 112 111
3 119 118 281
3 77 74 73
3 276 281 116
3 281 120 119
3 276 78 281
3 276 112 81
3 112 276 113
3 113 276 114
3 114 276 115
3 265 120 281
3 282 71 70
3 275 270 64
3 255 254 253
3 264 250 249
3 248 264 249
3 264 247 246
3 271 245 244
3 271 263 264
3 271 264 246
3 243 242 273
3 273 241 268
3 241 240 239
3 273 242 241
3 268 239 238
3 236 235 266
3 268 266 283
3 241 239 268
3 283 266 174
3 266 176 175
3 177 176 266
3 234 178 266
3 266 178 177
3 283 174 173
3 284 172 171
3 283 285 262
3 266 235 234
3 179 234 233
3 232 231 181
3 180 233 232
3 179 233 180
3 181 180 232
3 182 181 231
3 230 267 231
3 234 179 178
3 284 171 170
3 222 221 218
3 221 219 218
3 219 221 220
3 223 222 217
3 216 224 223
3 226 225 214
3 215 225 224
3 222 218 217
3 216 215 224
3 217 216 223
3 226 214 277
3 277 212 211
3 277 214 213
3 215 214 225
3 277 211 210
3 182 231 267
3 278 286 203
3 227 277 228
3 207 272 208
3 184 278 185
3 184 183 278
3 201 200 278
3 278 199 198
3 226 277 227
3 272 207 206
3 208 272 277
3 206 205 286
3 273 262 21
3 205 204 286
3 267 183 182
3 203 202 278
3 206 286 272
3 273 21 271
3 208 277 209
3 277 210 209
3 169 168 270
3 270 284 169
3 270 168 274
3 163 279 164
3 165 287 166
3 165 164 287
3 287 120 274
3 284 170 169
3 163 162 279
3 160 288 162
3 279 288 122
3 161 160 162
3 158 280 159
3 160 280 288
3 287 164 279
3 158 156 280
3 124 123 288
3 280 160 159
3 288 280 125
3 153 129 128
3 129 152 130
3 128 127 154
3 126 155 127
3 154 127 155
3 130 152 131
3 153 128 154
3 132 131 151
3 150 133 132
3 133 149 134
3 134 148 135
3 153 152 129
3 126 280 155
3 156 155 280
3 158 157 156
3 194 189 188
3 187 195 188
3 194 190 189
3 192 190 193
3 190 192 191
3 193 190 194
3 196 187 186
3 186 185 197
3 197 185 198
3 278 198 185
3 196 195 187
3 194 188 195
3 197 196 186
3 151 150 132
3 149 133 150
3 134 149 148
3 140 137 136
3 137 139 138
3 147 136 135
3 148 147 135
3 131 152 151
3 147 146 140
3 145 144 142
3 146 145 141
3 139 137 140
3 145 142 141
3 141 140 146
3 143 142 144
3 140 136 147
3 260 259 261
3 199 278 200
3 258 261 259
3 247 264 248
3 13 264 263
3 73 265 77
3 72 71 282
3 174 266 175
3 237 236 266
3 272 230 229
3 204 203 286
3 238 237 268
3 266 268 237
3 22 262 269
3 283 262 268
3 168 167 274
3 66 65 270
3 271 244 243
3 20 263 271
3 230 272 267
3 228 272 229
3 262 273 268
3 243 273 271
3 287 167 166
3 282 120 265
3 62 285 63
3 62 61 285
3 79 276 80
3 116 115 276
3 277 272 228
3 213 212 277
3 267 278 183
3 202 201 278
3 122 121 279
3 279 121 120
3 126 125 280
3 288 125 124
3 118 117 281
3 281 117 116
3 289 69 68
3 120 282 274
3 173 275 283
3 283 275 285
3 270 275 284
3 172 284 275
3 61 269 285
3 262 285 269
3 278 267 286
3 272 286 267
3 120 287 279
3 167 287 274
3 122 288 123
3 288 279 162
3 274 289 270
3 66 270 289
