ply
format ascii 1.0
element vertex 290
property float x
property float y
property float z
property float u
property float v
element face 317
property list uchar int vertex_indices
end_header
56.5775 -392.746 0 147.636 8.36396
46.4734 -384.372 0 139.979 19.0208
42.9078 -370.651 0 140 33.201
43.0514 -356.683 0 143.678 46.6777
54.023 -350.377 0 155.887 50
62.0664 -360.912 0 161 37.7695
67.9237 -359.585 0 167 37.5736
71.7839 -346.675 0 174 49.0883
74.1227 -333.009 0 179.719 61.7193
86.9108 -334.543 0 191.704 57
90.5747 -323.632 0 198 66.6324
92.1518 -309.859 0 203 79.5613
83.5405 -303.618 0 196.239 87.7609
71.3583 -297.469 0 186 96.7624
59.4654 -291.101 0 176.097 105.903
48.1518 -283.634 0 167.026 115.974
49.7987 -270.981 0 171.803 127.803
47.6621 -261.958 0 172 137.064
50.4718 -248.896 0 177.995 148.995
54.2903 -235.424 0 185.066 161.066
62.5072 -224.196 0 195.844 169.844
66.8931 -210.694 0 203.622 181.622
60.3755 -206.135 0 199.605 187
46.7837 -212.825 0 186.185 183.185
33.0503 -220.203 0 172.919 179
17.9146 -228.286 0 159.407 175.407
1.77154 -235.163 0 145.818 174
-11.9062 -247.656 0 134 166.718
-16.6654 -265.094 0 130.265 153.265
-21.6896 -282.048 0 126 140.032
-27.4811 -298.761 0 121 127.103
-32.311 -315.548 0 116.83 113.83
-37.7832 -330.824 0 111 101.245
-43.5159 -345.958 0 104.809 88.8092
-50.53 -360.434 0 97.031 77.031
-55.452 -373.744 0 90 64.9434
-58.1126 -382.472 0 85.8385 56.8385
-66.5434 -385.537 0 77 55.3289
-65.4206 -371.975 0 80.5247 68.4753
-64.1632 -365.31 0 83 74.8438
-78.0085 -363.595 0 69.8678 79.1322
-86.1581 -372.32 0 60.2982 72
-94.5964 -380.4 0 50.554 65.554
-97.6272 -372.392 0 49 73.9741
-93.7447 -360.162 0 55 85.3173
-87.5504 -347.892 0 63.2955 96.2955
-76.1748 -340.072 0 75.9327 102
-63.8436 -327.233 0 86 109.276
-60.9527 -309.415 0 88 123.448
-57.8381 -292.044 0 90.4379 137.438
-55.5436 -275.343 0 92 150.963
-53.0438 -258.051 0 94 165.134
-50.7806 -242.235 0 97 178.892
-48.1635 -227.263 0 101 192.235
-44.5868 -212.952 0 106.116 205.116
-39.1956 -199.975 0 113.265 217
-31.494 -202.28 0 120.43 213.43
-17.1413 -191.408 0 133.087 219.087
-3.37464 -180.05 0 145 225.052
-0.238161 -171.851 0 148.809 232
12.3423 -165.587 0 161.694 235.694
19.9798 -154.032 0 170 244.081
19.4981 -138.672 0 171 257.839
19.0121 -122.857 0 172 272.425
21.0687 -107.265 0 175 286.182
15.1221 -94.1893 0 169.921 299.079
9.21953 -81.5033 0 165 312.04
-3.01909 -78.478 0 153.031 316
-9.96851 -66.5107 0 147 328.484
-17.8255 -55.644 0 140.001 339.999
-27.0159 -45.1694 0 131.516 351.484
-35.5573 -34.4322 0 123.737 363.263
-43.4523 -23.7115 0 116.666 375.334
-53.0881 -13.6498 0 108.181 386.819
-62.53 -2.82737 0 99.6956 398.304
-73.0987 7.29945 0 89.7115 409
-66.9488 13.6354 0 96.2175 415
-53.9331 18.3075 0 109.561 419
-51.4005 27.5282 0 113 429.49
-56.5803 39.1804 0 109 442.833
-59.5867 52.4905 0 107 457.005
-63.0486 64.437 0 104 470.762
-73.3397 69.9863 0 92.9758 480.024
-82.6875 75.7382 0 82.0762 489.924
-92.6467 79.3363 0 70.298 497.702
-101.19 85.5346 0 60.1059 507.894
-108.831 92.9522 0 50.9132 519.087
-116.383 100.764 0 42.5491 529.451
-122.019 110.713 0 36.1849 541.815
-127.55 119.366 0 29 553.839
-132.967 127.575 0 21.7498 565.25
-139.791 137.457 0 13.9716 577.028
-147.091 148.518 0 6.60748 588.393
-150.646 161.947 0 3 601.898
-147.956 172.023 0 5.65576 612
-135.459 165.965 0 18.1705 606
-122.209 171.827 0 29.8989 613.899
-111.603 181.694 0 41.129 623
-100.555 190.967 0 52.4011 632
-88.4528 197.876 0 64.6477 638.648
-79.171 198.362 0 73.938 638.938
-87.0079 187.125 0 65.8669 627.867
-93.6242 174.835 0 59 615.711
-98.6212 162.006 0 53.8459 602.846
-104.798 150.891 0 49 589.853
-103.044 144.962 0 53.4191 580
-94.281 139.533 0 64.4886 570.511
-85.5777 134.442 0 75.5491 561
-76.8091 129.306 0 86.5804 551.42
-67.8532 123.609 0 97.4802 541.52
-58.6983 118.335 0 108.537 532
-49.524 113.071 0 119.572 522.428
-39.7283 110.56 0 131.643 515.357
-28.2342 108.716 0 144.593 510.407
-16.549 102.871 0 156 502.475
-8.40669 92.1595 0 163 490.374
-0.308249 81.8783 0 170.514 478.486
9.5333 72.8463 0 180 467.416
19.0732 62.9601 0 188.191 455.809
27.6736 52.5101 0 195.262 443.738
38.4906 46.3881 0 206.057 435
47.675 59.1349 0 216.526 444.526
57.6131 71.453 0 227.602 454
67.5749 82.9979 0 238.911 462.911
77.8513 93.5962 0 250.56 471
88.6175 104.905 0 262.174 479.174
100.762 116.493 0 274.245 486.245
105.858 133.674 0 280 498.862
109.092 152.287 0 284 512.205
112.287 170.842 0 288 525.548
116.101 187.469 0 293 538.477
120.967 203.857 0 298.995 550.995
128.091 221.422 0 306.773 562.773
135.216 239.105 0 314.551 574.551
143.779 256.426 0 323.743 585.743
151.498 273.849 0 332.229 597.229
159.578 289.871 0 341.421 608.421
167.466 303.063 0 351 618.867
176.224 313.003 0 361.382 627
182.536 309.139 0 366.861 622
184.954 298.521 0 367.169 610.831
200.221 302.594 0 380.582 607
214.13 301.259 0 394.339 604
227.143 296.006 0 406.311 596.689
226.346 287.026 0 404.046 588
212.089 283.44 0 389.46 587
197.294 277.553 0 374.874 586
183.874 267.642 0 361.961 583.039
178.346 250.833 0 356 572.431
175.195 231.992 0 352 559.088
172.564 213.069 0 348.527 545.527
168.795 194.412 0 344 532.403
164.402 175.452 0 339 519.474
161.155 156.208 0 335.093 506.093
157.813 137.453 0 331 492.789
157.602 118.473 0 330 479.032
160.327 101.379 0 331 464.446
166.575 89.8638 0 336 452.689
158.082 80.5488 0 326.538 444.538
150.318 67.5228 0 317.345 433.345
141.055 55.24 0 306.86 423.86
145.806 49.3572 0 311 418.459
139.031 36.62 0 303 407.358
132.088 22.0742 0 294.768 395.768
125.522 7.91233 0 286.99 383.99
118.008 -5.59334 0 278.505 372.505
110.56 -18.3447 0 270 361.027
102.449 -31.4228 0 261 349.755
97.4986 -45.0465 0 255.998 338
100.229 -56.6467 0 259 326.483
104.989 -69.245 0 263 313.141
109.327 -82.203 0 266 299.384
113.424 -95.0628 0 269 285.626
117.484 -106.801 0 273 272.284
127.846 -111.069 0 284.578 264.422
139.791 -110.928 0 297.331 261
152.942 -106.136 0 311.917 262
163.06 -106.891 0 322 258.155
173.19 -111.449 0 331.188 250
183.643 -104.126 0 344.531 252
196.349 -98.5198 0 359.117 251
208.962 -92.5481 0 373.703 250
221.535 -87.5958 0 387.874 248
218.114 -74.7039 0 391 260.459
211.103 -61.2867 0 391 275.459
203.512 -48.7634 0 390 290.047
196.652 -35.4307 0 390 305.044
189.089 -22.9138 0 389 319.633
182.232 -9.5733 0 389 334.633
174.672 2.93838 0 388 349.217
167.814 16.2788 0 388 364.217
162.424 28.9843 0 389.018 377.982
167.639 29.7409 0 394 376.269
171.314 18.2169 0 392 364.34
179.573 6.52904 0 394 350.169
190.309 -2.23852 0 399.537 337.463
203.601 -7.98929 0 408.73 326.27
217.675 -10.0497 0 420.304 318
231.602 -10.2957 0 432.579 311.421
245.555 -11.0746 0 444.649 304.351
259.571 -12.6012 0 456.428 296.572
271.445 -19.1495 0 464 285.295
281.769 -28.3164 0 469 272.366
289.91 -39.883 0 471 258.194
297.332 -52.2704 0 472 243.608
303.788 -64.8571 0 472 229.438
310.369 -76.3105 0 472.64 216.36
317.417 -88.7086 0 473.238 202.238
321.462 -100.765 0 471.297 189.703
328.854 -113.485 0 471.996 174.996
332.725 -127.058 0 469.168 161.168
332.785 -140.968 0 462.804 148.804
326.685 -153.241 0 451.733 140.733
318.952 -164.85 0 439.522 134
311.441 -176.64 0 427.422 127
305.68 -189.192 0 416.52 118.52
303.45 -203.294 0 408.035 107.035
305.796 -217.001 0 403.792 93.7925
311.475 -229.651 0 403 79.9492
318.75 -239.312 0 405 68.0205
318.131 -247.29 0 400.772 61.2279
308.588 -237.106 0 397 74.6653
300.974 -224.622 0 396 89.2529
294.057 -211.314 0 396 104.253
286.441 -198.839 0 395 118.836
279.521 -185.529 0 395 133.837
272.6 -172.217 0 395 148.837
264.983 -159.73 0 394 163.422
258.055 -146.408 0 394 178.422
250.441 -133.952 0 393 193.009
243.531 -120.792 0 393 208.01
232.746 -118.25 0 384.873 215.873
220.099 -126.718 0 370.234 215
207.337 -134.856 0 355.649 214
194.364 -142.722 0 341.063 213
188.531 -152.898 0 332.72 206
174.498 -158.823 0 318.135 205
164.108 -168.802 0 306.439 198.439
159.732 -182.365 0 299.367 186.367
157.673 -194.611 0 294.581 175
165.155 -200.809 0 300.319 167
153.019 -204.183 0 287.862 166.862
152.106 -217.233 0 284 154.29
148.325 -230.706 0 277.134 142.134
144.344 -244.1 0 270 130.09
141.469 -256.049 0 264.235 119.235
139.116 -268.397 0 258.871 107.871
134.146 -280.6 0 251 97.303
129.053 -293.883 0 242.729 85.7291
121.754 -306.315 0 232.536 75.5365
108.934 -311.968 0 218.708 73.2917
98.4713 -318.04 0 207.052 70.0515
94.6923 -331.506 0 200 57.9727
102.742 -339.706 0 205.713 48
110.402 -348.096 0 211 37.9436
109.522 -352.639 0 209 33.7725
107.141 -363.351 0 203.989 24.0107
102.701 -373.764 0 197.061 15.061
95.2188 -381.985 0 187.744 9
84.3571 -389.7 0 175.283 4.28345
69.4347 -396.994 0 159 1
69.0837 -378.274 0 163.397 19.2
80.5681 -188.279 0 222.418 199.851
73.3109 -260.647 0 197.158 131.895
103.409 -285.256 0 220.087 100.537
-11.3612 13.9791 0 151.861 410.94
155.505 -135.689 0 306.586 232.878
245.584 -95.0045 0 406.468 230.06
120.43 -183.188 0 261.32 195.618
42.2964 -178.573 0 188.497 217.457
55.6708 -67.9349 0 212.946 320.627
106.243 -241.371 0 233.86 142.326
282.681 -107.167 0 433.92 201.91
125.815 -209.609 0 260.625 168.349
62.9511 -27.1546 0 222.394 359.242
69.0537 -119.308 0 221.899 268.749
-31.1035 68.7541 0 136.779 470.704
303.653 -134.141 0 440.11 168.305
248.433 -50.5198 0 429.173 267.959
87.4001 35.4347 0 251.883 414.403
119.682 85.3945 0 288.938 454.209
2.0803 39.3422 0 167.384 435.514
-4.11648 -18.8735 0 156.203 376.245
107.232 -145.769 0 256.529 235.57
79.1867 -85.9897 0 235.437 299.924
48.8941 -144.01 0 199.546 248.849
271.751 -73.3302 0 439.635 236.523
89.1777 3.09032 0 250.681 384.232
93.3239 67.9453 0 261.248 443.175
9.39794 -44.1509 0 168.09 349.187
3 42 41 43
3 38 37 36
3 43 41 44
3 40 46 45
3 40 45 44
3 41 40 44
3 5 3 2
3 1 261 2
3 39 35 34
3 39 38 35
3 39 34 46
3 46 40 39
3 35 38 36
3 33 46 34
3 46 33 47
3 30 49 48
3 50 49 29
3 27 52 51
3 27 53 52
3 28 51 50
3 31 48 47
3 31 30 48
3 28 50 29
3 30 29 49
3 54 56 55
3 54 53 56
3 56 53 27
3 28 27 51
3 56 27 26
3 31 47 32
3 33 32 47
3 0 260 261
3 7 6 256
3 6 5 261
3 264 13 12
3 2 261 5
3 4 3 5
3 9 8 7
3 6 261 258
3 257 256 6
3 256 253 7
3 253 256 255
3 10 9 252
3 10 252 251
3 253 252 9
3 7 253 9
3 257 6 258
3 16 15 14
3 16 14 263
3 263 17 16
3 57 26 25
3 58 25 24
3 14 13 263
3 17 263 18
3 264 11 250
3 11 264 12
3 21 20 271
3 61 60 269
3 263 19 18
3 23 269 24
3 250 11 251
3 19 263 20
3 10 251 11
3 56 26 57
3 22 21 262
3 0 261 1
3 246 245 271
3 23 22 269
3 107 87 86
3 107 86 108
3 86 85 108
3 105 90 89
3 89 88 106
3 107 88 87
3 107 106 88
3 85 84 109
3 76 75 74
3 77 76 74
3 110 109 84
3 85 109 108
3 84 83 110
3 82 111 83
3 82 81 112
3 95 93 92
3 92 91 95
3 91 90 104
3 104 95 91
3 95 94 93
3 103 97 96
3 95 104 96
3 96 104 103
3 102 97 103
3 90 105 104
3 102 98 97
3 99 98 101
3 101 100 99
3 98 102 101
3 89 106 105
3 59 58 60
3 57 25 58
3 289 70 69
3 282 265 72
3 289 282 70
3 60 58 269
3 63 275 64
3 275 63 285
3 67 66 68
3 68 66 289
3 270 65 64
3 173 172 275
3 24 269 58
3 289 274 282
3 73 72 265
3 78 265 281
3 265 78 77
3 81 80 276
3 83 111 110
3 79 78 276
3 82 112 111
3 119 118 281
3 77 74 73
3 276 281 116
3 281 120 119
3 276 78 281
3 276 112 81
3 112 276 113
3 113 276 114
3 114 276 115
3 265 120 281
3 282 71 70
3 275 270 64
3 255 254 253
3 264 250 249
3 248 264 249
3 264 247 246
3 271 245 244
3 271 263 264
3 271 264 246
3 243 242 273
3 273 241 268
3 241 240 239
3 273 242 241
3 268 239 238
3 236 235 266
3 268 266 283
3 241 239 268
3 283 266 174
3 266 176 175
3 177 176 266
3 234 178 266
3 266 178 177
3 283 174 173
3 284 172 171
3 283 285 262
3 266 235 234
3 179 234 233
3 232 231 181
3 180 233 232
3 179 233 180
3 181 180 232
3 182 181 231
3 230 267 231
3 234 179 178
3 284 171 170
3 222 221 218
3 221 219 218
3 219 221 220
3 223 222 217
3 216 224 223
3 226 225 214
3 215 225 224
3 222 218 217
3 216 215 224
3 217 216 223
3 226 214 277
3 277 212 211
3 277 214 213
3 215 214 225
3 277 211 210
3 182 231 267
3 278 286 203
3 227 277 228
3 207 272 208
3 184 278 185
3 184 183 278
3 201 200 278
3 278 199 198
3 226 277 227
3 272 207 206
3 208 272 277
3 206 205 286
3 273 262 21
3 205 204 286
3 267 183 182
3 203 202 278
3 206 286 272
3 273 21 271
3 208 277 209
3 277 210 209
3 169 168 270
3 270 284 169
3 270 168 274
3 163 279 164
3 165 287 166
3 165 164 287
3 287 120 274
3 284 170 169
3 163 162 279
3 160 288 162
3 279 288 122
3 161 160 162
3 158 280 159
3 160 280 288
3 287 164 279
3 158 156 280
3 124 123 288
3 280 160 159
3 288 280 125
3 153 129 128
3 129 152 130
3 128 127 154
3 126 155 127
3 154 127 155
3 130 152 131
3 153 128 154
3 132 131 151
3 150 133 132
3 133 149 134
3 134 148 135
3 153 152 129
3 126 280 155
3 156 155 280
3 158 157 156
3 194 189 188
3 187 195 188
3 194 190 189
3 192 190 193
3 190 192 191
3 193 190 194
3 196 187 186
3 186 185 197
3 197 185 198
3 278 198 185
3 196 195 187
3 194 188 195
3 197 196 186
3 151 150 132
3 149 133 150
3 134 149 148
3 140 137 136
3 137 139 138
3 147 136 135
3 148 147 135
3 131 152 151
3 147 146 140
3 145 144 142
3 146 145 141
3 139 137 140
3 145 142 141
3 141 140 146
3 143 142 144
3 140 136 147
3 260 259 261
3 199 278 200
3 258 261 259
3 247 264 248
3 13 264 263
3 73 265 77
3 72 71 282
3 174 266 175
3 237 236 266
3 272 230 229
3 204 203 286
3 238 237 268
3 266 268 237
3 22 262 269
3 283 262 268
3 168 167 274
3 66 65 270
3 271 244 243
3 20 263 271
3 230 272 267
3 228 272 229
3 262 273 268
3 243 273 271
3 287 167 166
3 282 120 265
3 62 285 63
3 62 61 285
3 79 276 80
3 116 115 276
3 277 272 228
3 213 212 277
3 267 278 183
3 202 201 278
3 122 121 279
3 279 121 120
3 126 125 280
3 288 125 124
3 118 117 281
3 281 117 116
3 289 69 68
3 120 282 274
3 173 275 283
3 283 275 285
3 270 275 284
3 172 284 275
3 61 269 285
3 262 285 269
3 278 267 286
3 272 286 267
3 120 287 279
3 167 287 274
3 122 288 123
3 288 279 162
3 274 289 270
3 66 270 289
