ply
format ascii 1.0
element vertex 290
property float x
property float y
property float z
property float u
property float v
element face 317
property list uchar int vertex_indices
end_header
62.273 -394.294 0 147.636 8.36396
52.0753 -386.034 0 139.979 19.0208
48.3552 -372.354 0 140 33.201
48.3412 -358.386 0 143.678 46.6777
59.2409 -351.956 0 155.887 50
67.4027 -362.4 0 161 37.7695
73.2447 -361.008 0 167 37.5736
76.959 -348.054 0 174 49.0883
79.1436 -334.363 0 179.719 61.7193
91.9482 -335.752 0 191.704 57
95.489 -324.801 0 198 66.6324
96.911 -311.011 0 203 79.5613
88.2301 -304.867 0 196.239 87.7609
75.9799 -298.855 0 186 96.7624
64.0166 -292.62 0 176.097 105.903
52.6199 -285.28 0 167.026 115.974
54.1246 -272.609 0 171.803 127.803
51.8868 -263.611 0 172 137.064
54.55 -250.518 0 177.995 148.995
58.2175 -237.003 0 185.066 161.066
66.3097 -225.681 0 195.844 169.844
70.554 -212.114 0 203.622 181.622
64.0303 -207.557 0 199.605 187
50.5635 -214.342 0 186.185 183.185
36.9573 -221.827 0 172.919 179
21.9978 -230.005 0 159.407 175.407
6.03399 -236.987 0 145.818 174
-7.39172 -249.549 0 134 166.718
-11.8208 -266.943 0 130.265 153.265
-16.5266 -283.866 0 126 140.032
-21.9987 -300.561 0 121 127.103
-26.5045 -317.319 0 116.83 113.83
-31.6969 -332.61 0 111 101.245
-37.1502 -347.768 0 104.809 88.8092
-43.9002 -362.302 0 97.031 77.031
-48.6123 -375.681 0 90 64.9434
-51.1379 -384.448 0 85.8385 56.8385
-59.5204 -387.642 0 77 55.3289
-58.6065 -374.065 0 80.5247 68.4753
-57.4507 -367.38 0 83 74.8438
-71.3164 -365.873 0 69.8678 79.1322
-79.3306 -374.723 0 60.2982 72
-87.6434 -382.931 0 50.554 65.554
-90.7972 -374.971 0 49 73.9741
-87.1035 -362.682 0 55 85.3173
-81.0985 -350.319 0 63.2955 96.2955
-69.8435 -342.323 0 75.9327 102
-57.8081 -329.41 0 86 109.276
-55.2711 -311.647 0 88 123.448
-52.4896 -294.319 0 90.4379 137.438
-50.5122 -277.672 0 92 150.963
-48.3299 -260.428 0 94 165.134
-46.3232 -244.623 0 97 178.892
-43.928 -229.635 0 101 192.235
-40.5446 -215.294 0 106.116 205.116
-35.3107 -202.257 0 113.265 217
-27.5878 -204.474 0 120.43 213.43
-13.454 -193.507 0 133.087 219.087
0.0851729 -182.069 0 145 225.052
3.12293 -173.838 0 148.809 232
15.6245 -167.443 0 161.694 235.694
23.135 -155.787 0 170 244.081
22.5348 -140.39 0 171 257.839
21.9592 -124.542 0 172 272.425
23.976 -108.903 0 175 286.182
18.0022 -95.8433 0 169.921 299.079
12.0619 -83.1797 0 165 312.04
-0.18547 -80.196 0 153.031 316
-7.17307 -68.2531 0 147 328.484
-15.0635 -57.4087 0 140.001 339.999
-24.2815 -46.9684 0 131.516 351.484
-32.8506 -36.259 0 123.737 363.263
-40.7745 -25.5701 0 116.666 375.334
-50.4475 -15.5234 0 108.181 386.819
-59.8987 -4.69704 0 99.6956 398.304
-70.4672 5.4308 0 89.7115 409
-64.3173 11.7664 0 96.2175 415
-51.3039 16.4384 0 109.561 419
-48.7756 25.6353 0 113 429.49
-53.9469 37.2829 0 109 442.833
-56.922 50.6148 0 107 457.005
-60.3065 62.5687 0 104 470.762
-70.4675 68.112 0 92.9758 480.024
-79.6063 73.8258 0 82.0762 489.924
-89.3609 77.4064 0 70.298 497.702
-97.6568 83.5845 0 60.1059 507.894
-105.027 90.9868 0 50.9132 519.087
-112.356 98.8423 0 42.5491 529.451
-117.726 108.814 0 36.1849 541.815
-122.924 117.467 0 29 553.839
-127.988 125.692 0 21.7498 565.25
-134.48 135.689 0 13.9716 577.028
-141.494 146.923 0 6.60748 588.393
-144.724 160.435 0 3 601.898
-141.793 170.444 0 5.65576 612
-129.443 164.089 0 18.1705 606
-115.877 169.576 0 29.8989 613.899
-105.067 179.197 0 41.129 623
-93.7932 188.194 0 52.4011 632
-81.5225 194.798 0 64.6477 638.648
-72.2316 195.053 0 73.938 638.938
-80.3464 184.014 0 65.8669 627.867
-87.268 171.894 0 59 615.711
-92.5935 159.2 0 53.8459 602.846
-99.1853 148.322 0 49 589.853
-97.8238 142.525 0 53.4191 580
-89.4086 137.1 0 64.4886 570.511
-81.0434 132.045 0 75.5491 561
-72.5971 126.957 0 86.5804 551.42
-63.9417 121.307 0 97.4802 541.52
-55.07 116.092 0 108.537 532
-46.1708 110.904 0 119.572 522.428
-36.6304 108.492 0 131.643 515.357
-25.2965 106.683 0 144.593 510.407
-13.7037 100.829 0 156 502.475
-5.65095 90.1347 0 163 490.374
2.3407 79.9162 0 170.514 478.486
12.0987 70.9542 0 180 467.416
21.6128 61.1232 0 188.191 455.809
30.2046 50.7467 0 195.262 443.738
40.9468 44.7598 0 206.057 435
50.0222 57.5892 0 216.526 444.526
59.8644 69.9825 0 227.602 454
69.7218 81.606 0 238.911 462.911
79.8902 92.2981 0 250.56 471
90.5544 103.725 0 262.174 479.174
102.614 115.475 0 274.245 486.245
107.574 132.786 0 280 498.862
110.659 151.544 0 284 512.205
113.698 170.243 0 288 525.548
117.353 186.985 0 293 538.477
122.059 203.501 0 298.995 550.995
129.029 221.264 0 306.773 562.773
135.995 239.149 0 314.551 574.551
144.4 256.692 0 323.743 585.743
151.949 274.327 0 332.229 597.229
159.852 290.54 0 341.421 608.421
167.561 303.876 0 351 618.867
176.168 313.949 0 361.382 627
182.539 310.183 0 366.861 622
185.123 299.61 0 367.169 610.831
200.421 304.045 0 380.582 607
214.337 302.908 0 394.339 604
227.429 297.854 0 406.311 596.689
226.769 288.863 0 404.046 588
212.565 285.054 0 389.46 587
197.818 278.883 0 374.874 586
184.46 268.655 0 361.961 583.039
179.08 251.635 0 356 572.431
176.104 232.626 0 352 559.088
173.644 213.544 0 348.527 545.527
170.036 194.715 0 344 532.403
165.799 175.564 0 339 519.474
162.706 156.144 0 335.093 506.093
159.515 137.221 0 331 492.789
159.451 118.101 0 330 479.032
162.333 100.943 0 331 464.446
168.687 89.4723 0 336 452.689
160.281 80.0674 0 326.538 444.538
152.627 66.9273 0 317.345 433.345
143.45 54.4954 0 306.86 423.86
148.238 48.6088 0 311 418.459
141.545 35.7927 0 303 407.358
134.677 21.1204 0 294.768 395.768
128.172 6.85405 0 286.99 383.99
120.702 -6.74024 0 278.505 372.505
113.295 -19.551 0 270 361.027
105.203 -32.6945 0 261 349.755
100.233 -46.3574 0 255.998 338
102.944 -57.9237 0 259 326.483
107.727 -70.481 0 263 313.141
112.103 -83.4017 0 266 299.384
116.228 -96.2035 0 269 285.626
120.269 -107.833 0 273 272.284
130.526 -111.947 0 284.578 264.422
142.393 -111.68 0 297.331 261
155.47 -106.778 0 311.917 262
165.547 -107.444 0 322 258.155
175.589 -111.9 0 331.188 250
185.709 -104.457 0 344.531 252
198.054 -98.7013 0 359.117 251
210.297 -92.5694 0 373.703 250
222.556 -87.4438 0 387.874 248
218.8 -74.6114 0 391 260.459
211.531 -61.3113 0 391 275.459
203.728 -48.9139 0 390 290.047
196.655 -35.6936 0 390 305.044
188.89 -23.3001 0 389 319.633
181.82 -10.0717 0 389 334.633
174.059 2.31662 0 388 349.217
166.988 15.5448 0 388 364.217
161.393 28.1618 0 389.018 377.982
166.595 29.0023 0 394 376.269
170.456 17.539 0 392 364.34
178.902 5.98575 0 394 350.169
189.777 -2.60784 0 399.537 337.463
203.16 -8.14386 0 408.73 326.27
217.266 -9.97744 0 420.304 318
231.193 -10 0 432.579 311.421
245.154 -10.5546 0 444.649 304.351
259.191 -11.8546 0 456.428 296.572
271.166 -18.2093 0 464 285.295
281.629 -27.2069 0 469 272.366
289.924 -38.6387 0 471 258.194
297.515 -50.9005 0 472 243.608
304.174 -63.3765 0 472 229.438
310.966 -74.7156 0 472.64 216.36
318.247 -86.9916 0 473.238 202.238
322.5 -98.9769 0 471.297 189.703
330.105 -111.569 0 471.996 174.996
334.204 -125.075 0 469.168 161.168
334.498 -138.982 0 462.804 148.804
328.605 -151.356 0 451.733 140.733
321.069 -163.093 0 439.522 134
313.758 -175.008 0 427.422 127
308.209 -187.655 0 416.52 118.52
306.217 -201.792 0 408.035 107.035
308.794 -215.458 0 403.792 93.7925
314.684 -228.011 0 403 79.9492
322.121 -237.548 0 405 68.0205
321.636 -245.535 0 400.772 61.2279
311.923 -235.513 0 397 74.6653
304.101 -223.159 0 396 89.2529
296.96 -209.97 0 396 104.253
289.135 -197.625 0 395 118.836
281.992 -184.433 0 395 133.837
274.848 -171.239 0 395 148.837
267.022 -158.882 0 394 163.422
259.872 -145.677 0 394 178.422
252.061 -133.349 0 393 193.009
244.967 -120.301 0 393 208.01
234.282 -117.932 0 384.873 215.873
222.029 -126.587 0 370.234 215
209.637 -134.897 0 355.649 214
197.037 -142.924 0 341.063 213
191.44 -153.153 0 332.72 206
177.506 -159.226 0 318.135 205
167.243 -169.291 0 306.439 198.439
163.031 -182.86 0 299.367 186.367
161.111 -195.107 0 294.581 175
168.664 -201.213 0 300.319 167
156.568 -204.713 0 287.862 166.862
155.813 -217.744 0 284 154.29
152.188 -231.246 0 277.134 142.134
148.361 -244.675 0 270 130.09
145.62 -256.653 0 264.235 119.235
143.407 -269.025 0 258.871 107.871
138.573 -281.282 0 251 97.303
133.63 -294.622 0 242.729 85.7291
126.471 -307.135 0 232.536 75.5365
113.716 -312.931 0 218.708 73.2917
103.322 -319.12 0 207.052 70.0515
99.6949 -332.628 0 200 57.9727
107.837 -340.737 0 205.713 48
115.59 -349.04 0 211 37.9436
114.762 -353.593 0 209 33.7725
112.501 -364.331 0 203.989 24.0107
108.18 -374.793 0 197.061 15.061
100.791 -383.098 0 187.744 9
90.0166 -390.935 0 175.283 4.28345
75.1772 -398.397 0 159 1
74.6153 -379.682 0 163.397 19.2
83.9898 -189.531 0 222.418 199.851
77.5193 -262.012 0 197.158 131.895
107.891 -286.283 0 220.087 100.537
-8.74022 12.1252 0 151.861 410.94
158.27 -136.309 0 306.586 232.878
246.596 -94.4806 0 406.468 230.06
123.745 -184.088 0 261.32 195.618
45.6834 -180.141 0 188.497 217.457
58.4401 -69.4033 0 212.946 320.627
110.232 -242.37 0 233.86 142.326
283.833 -106.028 0 433.92 201.91
129.442 -210.407 0 260.625 168.349
65.666 -28.6156 0 222.394 359.242
71.9792 -120.677 0 221.899 268.749
-28.3796 66.7613 0 136.779 470.704
305.255 -132.646 0 440.11 168.305
248.668 -49.9486 0 429.173 267.959
89.909 34.1819 0 251.883 414.403
121.842 84.547 0 288.938 454.209
4.69721 37.4448 0 167.384 435.514
-1.43066 -20.6483 0 156.203 376.245
110.233 -146.819 0 256.529 235.57
81.9847 -87.3235 0 235.437 299.924
51.955 -145.525 0 199.546 248.849
272.267 -72.3762 0 439.635 236.523
91.828 1.79302 0 250.681 384.232
95.6182 66.8018 0 261.248 443.175
12.1286 -45.8372 0 168.09 349.187
3 42 41 43
3 38 37 36
3 43 41 44
3 40 46 45
3 40 45 44
3 41 40 44
3 5 3 2
3 1 261 2
3 39 35 34
3 39 38 35
3 39 34 46
3 46 40 39
3 35 38 36
3 33 46 34
3 46 33 47
3 30 49 48
3 50 49 29
3 27 52 51
3 27 53 52
3 28 51 50
3 31 48 47
3 31 30 48
3 28 50 29
3 30 29 49
3 54 56 55
3 54 53 56
3 56 53 27
3 28 27 51
3 56 27 26
3 31 47 32
3 33 32 47
3 0 260 261
3 7 6 256
3 6 5 261
3 264 13 12
3 2 261 5
3 4 3 5
3 9 8 7
3 6 261 258
3 257 256 6
3 256 253 7
3 253 256 255
3 10 9 252
3 10 252 251
3 253 252 9
3 7 253 9
3 257 6 258
3 16 15 14
3 16 14 263
3 263 17 16
3 57 26 25
3 58 25 24
3 14 13 263
3 17 263 18
3 264 11 250
3 11 264 12
3 21 20 271
3 61 60 269
3 263 19 18
3 23 269 24
3 250 11 251
3 19 263 20
3 10 251 11
3 56 26 57
3 22 21 262
3 0 261 1
3 246 245 271
3 23 22 269
3 107 87 86
3 107 86 108
3 86 85 108
3 105 90 89
3 89 88 106
3 107 88 87
3 107 106 88
3 85 84 109
3 76 75 74
3 77 76 74
3 110 109 84
3 85 109 108
3 84 83 110
3 82 111 83
3 82 81 112
3 95 93 92
3 92 91 95
3 91 90 104
3 104 95 91
3 95 94 93
3 103 97 96
3 95 104 96
3 96 104 103
3 102 97 103
3 90 105 104
3 102 98 97
3 99 98 101
3 101 100 99
3 98 102 101
3 89 106 105
3 59 58 60
3 57 25 58
3 289 70 69
3 282 265 72
3 289 282 70
3 60 58 269
3 63 275 64
3 275 63 285
3 67 66 68
3 68 66 289
3 270 65 64
3 173 172 275
3 24 269 58
3 289 274 282
3 73 72 265
3 78 265 281
3 265 78 77
3 81 80 276
3 83 111 110
3 79 78 276
3 82 112 111
3 119 118 281
3 77 74 73
3 276 281 116
3 281 120 119
3 276 78 281
3 276 112 81
3 112 276 113
3 113 276 114
3 114 276 115
3 265 120 281
3 282 71 70
3 275 270 64
3 255 254 253
3 264 250 249
3 248 264 249
3 264 247 246
3 271 245 244
3 271 263 264
3 271 264 246
3 243 242 273
3 273 241 268
3 241 240 239
3 273 242 241
3 268 239 238
3 236 235 266
3 268 266 283
3 241 239 268
3 283 266 174
3 266 176 175
3 177 176 266
3 234 178 266
3 266 178 177
3 283 174 173
3 284 172 171
3 283 285 262
3 266 235 234
3 179 234 233
3 232 231 181
3 180 233 232
3 179 233 180
3 181 180 232
3 182 181 231
3 230 267 231
3 234 179 178
3 284 171 170
3 222 221 218
3 221 219 218
3 219 221 220
3 223 222 217
3 216 224 223
3 226 225 214
3 215 225 224
3 222 218 217
3 216 215 224
3 217 216 223
3 226 214 277
3 277 212 211
3 277 214 213
3 215 214 225
3 277 211 210
3 182 231 267
3 278 286 203
3 227 277 228
3 207 272 208
3 184 278 185
3 184 183 278
3 201 200 278
3 278 199 198
3 226 277 227
3 272 207 206
3 208 272 277
3 206 205 286
3 273 262 21
3 205 204 286
3 267 183 182
3 203 202 278
3 206 286 272
3 273 21 271
3 208 277 209
3 277 210 209
3 169 168 270
3 270 284 169
3 270 168 274
3 163 279 164
3 165 287 166
3 165 164 287
3 287 120 274
3 284 170 169
3 163 162 279
3 160 288 162
3 279 288 122
3 161 160 162
3 158 280 159
3 160 280 288
3 287 164 279
3 158 156 280
3 124 123 288
3 280 160 159
3 288 280 125
3 153 129 128
3 129 152 130
3 128 127 154
3 126 155 127
3 154 127 155
3 130 152 131
3 153 128 154
3 132 131 151
3 150 133 132
3 133 149 134
3 134 148 135
3 153 152 129
3 126 280 155
3 156 155 280
3 158 157 156
3 194 189 188
3 187 195 188
3 194 190 189
3 192 190 193
3 190 192 191
3 193 190 194
3 196 187 186
3 186 185 197
3 197 185 198
3 278 198 185
3 196 195 187
3 194 188 195
3 197 196 186
3 151 150 132
3 149 133 150
3 134 149 148
3 140 137 136
3 137 139 138
3 147 136 135
3 148 147 135
3 131 152 151
3 147 146 140
3 145 144 142
3 146 145 141
3 139 137 140
3 145 142 141
3 141 140 146
3 143 142 144
3 140 136 147
3 260 259 261
3 199 278 200
3 258 261 259
3 247 264 248
3 13 264 263
3 73 265 77
3 72 71 282
3 174 266 175
3 237 236 266
3 272 230 229
3 204 203 286
3 238 237 268
3 266 268 237
3 22 262 269
3 283 262 268
3 168 167 274
3 66 65 270
3 271 244 243
3 20 263 271
3 230 272 267
3 228 272 229
3 262 273 268
3 243 273 271
3 287 167 166
3 282 120 265
3 62 285 63
3 62 61 285
3 79 276 80
3 116 115 276
3 277 272 228
3 213 212 277
3 267 278 183
3 202 201 278
3 122 121 279
3 279 121 120
3 126 125 280
3 288 125 124
3 118 117 281
3 281 117 116
3 289 69 68
3 120 282 274
3 173 275 283
3 283 275 285
3 270 275 284
3 172 284 275
3 61 269 285
3 262 285 269
3 278 267 286
3 272 286 267
3 120 287 279
3 167 287 274
3 122 288 123
3 288 279 162
3 274 289 270
3 66 270 289
