ply
format ascii 1.0
element vertex 290
property float x
property float y
property float z
property float u
property float v
element face 317
property list uchar int vertex_indices
end_header
63.7529 -393.984 0 147.636 8.36396
53.5356 -385.748 0 139.979 19.0208
49.7831 -372.077 0 140 33.201
49.7359 -358.109 0 143.678 46.6777
60.6204 -351.653 0 155.887 50
68.807 -362.078 0 161 37.7695
74.6456 -360.672 0 167 37.5736
78.3292 -347.709 0 174 49.0883
80.4813 -334.013 0 179.719 61.7193
93.2892 -335.372 0 191.704 57
96.804 -324.412 0 198 66.6324
98.1934 -310.619 0 203 79.5613
89.4981 -304.495 0 196.239 87.7609
77.2339 -298.512 0 186 96.7624
65.2561 -292.305 0 176.097 105.903
53.8421 -284.992 0 167.026 115.974
55.3169 -272.318 0 171.803 127.803
53.058 -263.325 0 172 137.064
55.6902 -250.225 0 177.995 148.995
59.3261 -236.702 0 185.066 161.066
67.3924 -225.36 0 195.844 169.844
71.611 -211.777 0 203.622 181.622
65.109 -207.208 0 199.605 187
51.6955 -214.005 0 186.185 183.185
38.1456 -221.503 0 172.919 179
23.2735 -229.673 0 159.407 175.407
7.40612 -236.641 0 145.818 174
-5.89851 -249.177 0 134 166.718
-10.18 -266.507 0 130.265 153.265
-14.7454 -283.376 0 126 140.032
-20.0764 -300.021 0 121 127.103
-24.4401 -316.727 0 116.83 113.83
-29.518 -331.997 0 111 101.245
-34.8577 -347.137 0 104.809 88.8092
-41.5035 -361.667 0 97.031 77.031
-46.1461 -375.065 0 90 64.9434
-48.6282 -383.845 0 85.8385 56.8385
-56.9949 -387.08 0 77 55.3289
-56.1478 -373.498 0 80.5247 68.4753
-55.0241 -366.807 0 83 74.8438
-68.8934 -365.364 0 69.8678 79.1322
-76.8638 -374.253 0 60.2982 72
-85.1361 -382.503 0 50.554 65.554
-88.3291 -374.558 0 49 73.9741
-84.696 -362.251 0 55 85.3173
-78.7517 -349.858 0 63.2955 96.2955
-67.5352 -341.805 0 75.9327 102
-55.6437 -328.921 0 86 109.276
-53.2638 -311.223 0 88 123.448
-50.6284 -293.951 0 90.4379 137.438
-48.7909 -277.363 0 92 150.963
-46.7468 -260.174 0 94 165.134
-44.8413 -244.396 0 97 178.892
-42.5268 -229.418 0 101 192.235
-39.2103 -215.077 0 106.116 205.116
-34.0259 -202.024 0 113.265 217
-26.2983 -204.216 0 120.43 213.43
-12.2702 -193.265 0 133.087 219.087
1.15847 -181.849 0 145 225.052
4.16173 -173.617 0 148.809 232
16.6345 -167.191 0 161.694 235.694
24.1003 -155.522 0 170 244.081
23.4659 -140.124 0 171 257.839
22.8678 -124.274 0 172 272.425
24.8782 -108.634 0 175 286.182
18.9013 -95.5836 0 169.921 299.079
12.954 -82.9267 0 165 312.04
0.705008 -79.9513 0 153.031 316
-6.28998 -68.0133 0 147 328.484
-14.1866 -57.1718 0 140.001 339.999
-23.4104 -46.7355 0 131.516 351.484
-31.9844 -36.0267 0 123.737 363.263
-39.9135 -25.3366 0 116.666 375.334
-49.5913 -15.2803 0 108.181 386.819
-59.037 -4.44512 0 99.6956 398.304
-69.5999 5.68873 0 89.7115 409
-63.4465 12.0211 0 96.2175 415
-50.4307 16.6869 0 109.561 419
-47.8953 25.8896 0 113 429.49
-53.0504 37.5555 0 109 442.833
-56.0017 50.9071 0 107 457.005
-59.3487 62.8856 0 104 470.762
-69.4612 68.4677 0 92.9758 480.024
-78.5275 74.2098 0 82.0762 489.924
-88.2141 77.8275 0 70.298 497.702
-96.4222 84.0389 0 60.1059 507.894
-103.693 91.4739 0 50.9132 519.087
-110.935 99.3737 0 42.5491 529.451
-116.2 109.38 0 36.1849 541.815
-121.274 118.065 0 29 553.839
-126.207 126.326 0 21.7498 565.25
-132.57 136.386 0 13.9716 577.028
-139.467 147.69 0 6.60748 588.393
-142.564 161.233 0 3 601.898
-139.537 171.214 0 5.65576 612
-127.248 164.742 0 18.1705 606
-113.569 170.094 0 29.8989 613.899
-102.67 179.604 0 41.129 623
-91.3043 188.483 0 52.4011 632
-78.9655 194.96 0 64.6477 638.648
-69.6724 195.117 0 73.938 638.938
-77.9018 184.164 0 65.8669 627.867
-84.9496 172.117 0 59 615.711
-90.4103 159.479 0 53.8459 602.846
-97.1575 148.683 0 49 589.853
-95.93 142.902 0 53.4191 580
-87.6357 137.438 0 64.4886 570.511
-79.3876 132.352 0 75.5491 561
-71.053 127.237 0 86.5804 551.42
-62.5039 121.563 0 97.4802 541.52
-53.7317 116.328 0 108.537 532
-44.9289 111.127 0 119.572 522.428
-35.4718 108.708 0 131.643 515.357
-24.1878 106.882 0 144.593 510.407
-12.6368 101.001 0 156 502.475
-4.63501 90.2975 0 163 490.374
3.30445 80.0888 0 170.514 478.486
13.0239 71.135 0 180 467.416
22.513 61.3081 0 188.191 455.809
31.0851 50.9446 0 195.262 443.738
41.7959 44.9878 0 206.057 435
50.84 57.8174 0 216.526 444.526
60.6547 70.2122 0 227.602 454
70.4829 81.8417 0 238.911 462.911
80.621 92.5485 0 250.56 471
91.2524 103.993 0 262.174 479.174
103.279 115.762 0 274.245 486.245
108.191 133.075 0 280 498.862
111.224 151.834 0 284 512.205
114.21 170.535 0 288 525.548
117.811 187.283 0 293 538.477
122.463 203.81 0 298.995 550.995
129.379 221.592 0 306.773 562.773
136.289 239.495 0 314.551 574.551
144.637 257.064 0 323.743 585.743
152.126 274.723 0 332.229 597.229
159.967 290.963 0 341.421 608.421
167.617 304.333 0 351 618.867
176.176 314.446 0 361.382 627
182.565 310.71 0 366.861 622
185.201 300.149 0 367.169 610.831
200.501 304.65 0 380.582 607
214.42 303.583 0 394.339 604
227.536 298.595 0 406.311 596.689
226.921 289.6 0 404.046 588
212.735 285.721 0 389.46 587
198.007 279.48 0 374.874 586
184.675 269.194 0 361.961 583.039
179.349 252.155 0 356 572.431
176.434 233.137 0 352 559.088
174.034 214.05 0 348.527 545.527
170.483 195.21 0 344 532.403
166.3 176.048 0 339 519.474
163.263 156.62 0 335.093 506.093
160.123 137.688 0 331 492.789
160.11 118.569 0 330 479.032
163.039 101.412 0 331 464.446
169.427 89.9575 0 336 452.689
161.047 80.5258 0 326.538 444.538
153.424 67.3553 0 317.345 433.345
144.27 54.889 0 306.86 423.86
149.067 49.0066 0 311 418.459
142.395 36.1737 0 303 407.358
135.544 21.479 0 294.768 395.768
129.051 7.19339 0 286.99 383.99
121.588 -6.41726 0 278.505 372.505
114.187 -19.2404 0 270 361.027
106.093 -32.3927 0 261 349.755
101.111 -46.0502 0 255.998 338
103.817 -57.598 0 259 326.483
108.603 -70.1439 0 263 313.141
112.983 -83.0566 0 266 299.384
117.111 -95.8421 0 269 285.626
121.146 -107.439 0 273 272.284
131.376 -111.517 0 284.578 264.422
143.221 -111.228 0 297.331 261
156.288 -106.314 0 311.917 262
166.352 -106.973 0 322 258.155
176.353 -111.42 0 331.188 250
186.369 -103.972 0 344.531 252
198.591 -98.214 0 359.117 251
210.709 -92.079 0 373.703 250
222.865 -86.9452 0 387.874 248
219.034 -74.1243 0 391 260.459
211.724 -60.839 0 391 275.459
203.894 -48.4565 0 390 290.047
196.796 -35.249 0 390 305.044
189.01 -22.8695 0 389 319.633
181.915 -9.65382 0 389 334.633
174.133 2.72053 0 388 349.217
167.038 15.936 0 388 364.217
161.42 28.543 0 389.018 377.982
166.621 29.3927 0 394 376.269
170.502 17.9364 0 392 364.34
178.969 6.39836 0 394 350.169
189.86 -2.17567 0 399.537 337.463
203.252 -7.68764 0 408.73 326.27
217.362 -9.49587 0 420.304 318
231.288 -9.49363 0 432.579 311.421
245.249 -10.0232 0 444.649 304.351
259.288 -11.2975 0 456.428 296.572
271.273 -17.6302 0 464 285.295
281.748 -26.6083 0 469 272.366
290.052 -38.0253 0 471 258.194
297.653 -50.2723 0 472 243.608
304.335 -62.7336 0 472 229.438
311.161 -74.0557 0 472.64 216.36
318.478 -86.3138 0 473.238 202.238
322.759 -98.2887 0 471.297 189.703
330.391 -110.864 0 471.996 174.996
334.519 -124.361 0 469.168 161.168
334.843 -138.267 0 462.804 148.804
328.976 -150.654 0 451.733 140.733
321.465 -162.407 0 439.522 134
314.179 -174.337 0 427.422 127
308.657 -186.996 0 416.52 118.52
306.695 -201.137 0 408.035 107.035
309.301 -214.798 0 403.792 93.7925
315.218 -227.338 0 403 79.9492
322.676 -236.859 0 405 68.0205
322.208 -244.847 0 400.772 61.2279
312.473 -234.846 0 397 74.6653
304.624 -222.509 0 396 89.2529
297.456 -209.335 0 396 104.253
289.604 -197.006 0 395 118.836
282.433 -183.83 0 395 133.837
275.261 -170.651 0 395 148.837
267.409 -158.31 0 394 163.422
260.232 -145.121 0 394 178.422
252.399 -132.807 0 393 193.009
245.295 -119.771 0 393 208.01
234.669 -117.412 0 384.873 215.873
222.548 -126.072 0 370.234 215
210.283 -134.386 0 355.649 214
197.815 -142.414 0 341.063 213
192.289 -152.637 0 332.72 206
178.383 -158.725 0 318.135 205
168.157 -168.792 0 306.439 198.439
163.988 -182.352 0 299.367 186.367
162.101 -194.593 0 294.581 175
169.67 -200.68 0 300.319 167
157.584 -204.202 0 287.862 166.862
156.868 -217.225 0 284 154.29
153.278 -230.728 0 277.134 142.134
149.485 -244.164 0 270 130.09
146.774 -256.147 0 264.235 119.235
144.589 -268.524 0 258.871 107.871
139.785 -280.792 0 251 97.303
134.874 -294.143 0 242.729 85.7291
127.744 -306.673 0 232.536 75.5365
115.003 -312.499 0 218.708 73.2917
104.624 -318.713 0 207.052 70.0515
101.028 -332.229 0 200 57.9727
109.19 -340.319 0 205.713 48
116.963 -348.604 0 211 37.9436
116.145 -353.158 0 209 33.7725
113.91 -363.902 0 203.989 24.0107
109.613 -374.374 0 197.061 15.061
102.244 -382.697 0 187.744 9
91.4884 -390.559 0 175.283 4.28345
76.6668 -398.056 0 159 1
76.0605 -379.343 0 163.397 19.2
84.9987 -189.155 0 222.418 199.851
78.6866 -261.665 0 197.158 131.895
109.115 -285.865 0 220.087 100.537
-7.8716 12.3422 0 151.861 410.94
159.11 -135.842 0 306.586 232.878
246.871 -93.9453 0 406.468 230.06
124.709 -183.654 0 261.32 195.618
46.7116 -179.819 0 188.497 217.457
59.3187 -69.1094 0 212.946 320.627
111.352 -241.947 0 233.86 142.326
284.108 -105.42 0 433.92 201.91
130.482 -209.944 0 260.625 168.349
66.544 -28.3421 0 222.394 359.242
72.8822 -120.345 0 221.899 268.749
-27.4208 66.9776 0 136.779 470.704
305.586 -131.994 0 440.11 168.305
248.835 -49.4109 0 429.173 267.959
90.7565 34.466 0 251.883 414.403
122.596 84.8973 0 288.938 454.209
5.58557 37.6365 0 167.384 435.514
-0.562187 -20.4195 0 156.203 376.245
111.141 -146.415 0 256.529 235.57
82.8675 -86.9962 0 235.437 299.924
52.8903 -145.209 0 199.546 248.849
272.441 -71.7974 0 439.635 236.523
92.7035 2.08194 0 250.681 384.232
96.4122 67.0928 0 261.248 443.175
13.0017 -45.5895 0 168.09 349.187
3 42 41 43
3 38 37 36
3 43 41 44
3 40 46 45
3 40 45 44
3 41 40 44
3 5 3 2
3 1 261 2
3 39 35 34
3 39 38 35
3 39 34 46
3 46 40 39
3 35 38 36
3 33 46 34
3 46 33 47
3 30 49 48
3 50 49 29
3 27 52 51
3 27 53 52
3 28 51 50
3 31 48 47
3 31 30 48
3 28 50 29
3 30 29 49
3 54 56 55
3 54 53 56
3 56 53 27
3 28 27 51
3 56 27 26
3 31 47 32
3 33 32 47
3 0 260 261
3 7 6 256
3 6 5 261
3 264 13 12
3 2 261 5
3 4 3 5
3 9 8 7
3 6 261 258
3 257 256 6
3 256 253 7
3 253 256 255
3 10 9 252
3 10 252 251
3 253 252 9
3 7 253 9
3 257 6 258
3 16 15 14
3 16 14 263
3 263 17 16
3 57 26 25
3 58 25 24
3 14 13 263
3 17 263 18
3 264 11 250
3 11 264 12
3 21 20 271
3 61 60 269
3 263 19 18
3 23 269 24
3 250 11 251
3 19 263 20
3 10 251 11
3 56 26 57
3 22 21 262
3 0 261 1
3 246 245 271
3 23 22 269
3 107 87 86
3 107 86 108
3 86 85 108
3 105 90 89
3 89 88 106
3 107 88 87
3 107 106 88
3 85 84 109
3 76 75 74
3 77 76 74
3 110 109 84
3 85 109 108
3 84 83 110
3 82 111 83
3 82 81 112
3 95 93 92
3 92 91 95
3 91 90 104
3 104 95 91
3 95 94 93
3 103 97 96
3 95 104 96
3 96 104 103
3 102 97 103
3 90 105 104
3 102 98 97
3 99 98 101
3 101 100 99
3 98 102 101
3 89 106 105
3 59 58 60
3 57 25 58
3 289 70 69
3 282 265 72
3 289 282 70
3 60 58 269
3 63 275 64
3 275 63 285
3 67 66 68
3 68 66 289
3 270 65 64
3 173 172 275
3 24 269 58
3 289 274 282
3 73 72 265
3 78 265 281
3 265 78 77
3 81 80 276
3 83 111 110
3 79 78 276
3 82 112 111
3 119 118 281
3 77 74 73
3 276 281 116
3 281 120 119
3 276 78 281
3 276 112 81
3 112 276 113
3 113 276 114
3 114 276 115
3 265 120 281
3 282 71 70
3 275 270 64
3 255 254 253
3 264 250 249
3 248 264 249
3 264 247 246
3 271 245 244
3 271 263 264
3 271 264 246
3 243 242 273
3 273 241 268
3 241 240 239
3 273 242 241
3 268 239 238
3 236 235 266
3 268 266 283
3 241 239 268
3 283 266 174
3 266 176 175
3 177 176 266
3 234 178 266
3 266 178 177
3 283 174 173
3 284 172 171
3 283 285 262
3 266 235 234
3 179 234 233
3 232 231 181
3 180 233 232
3 179 233 180
3 181 180 232
3 182 181 231
3 230 267 231
3 234 179 178
3 284 171 170
3 222 221 218
3 221 219 218
3 219 221 220
3 223 222 217
3 216 224 223
3 226 225 214
3 215 225 224
3 222 218 217
3 216 215 224
3 217 216 223
3 226 214 277
3 277 212 211
3 277 214 213
3 215 214 225
3 277 211 210
3 182 231 267
3 278 286 203
3 227 277 228
3 207 272 208
3 184 278 185
3 184 183 278
3 201 200 278
3 278 199 198
3 226 277 227
3 272 207 206
3 208 272 277
3 206 205 286
3 273 262 21
3 205 204 286
3 267 183 182
3 203 202 278
3 206 286 272
3 273 21 271
3 208 277 209
3 277 210 209
3 169 168 270
3 270 284 169
3 270 168 274
3 163 279 164
3 165 287 166
3 165 164 287
3 287 120 274
3 284 170 169
3 163 162 279
3 160 288 162
3 279 288 122
3 161 160 162
3 158 280 159
3 160 280 288
3 287 164 279
3 158 156 280
3 124 123 288
3 280 160 159
3 288 280 125
3 153 129 128
3 129 152 130
3 128 127 154
3 126 155 127
3 154 127 155
3 130 152 131
3 153 128 154
3 132 131 151
3 150 133 132
3 133 149 134
3 134 148 135
3 153 152 129
3 126 280 155
3 156 155 280
3 158 157 156
3 194 189 188
3 187 195 188
3 194 190 189
3 192 190 193
3 190 192 191
3 193 190 194
3 196 187 186
3 186 185 197
3 197 185 198
3 278 198 185
3 196 195 187
3 194 188 195
3 197 196 186
3 151 150 132
3 149 133 150
3 134 149 148
3 140 137 136
3 137 139 138
3 147 136 135
3 148 147 135
3 131 152 151
3 147 146 140
3 145 144 142
3 146 145 141
3 139 137 140
3 145 142 141
3 141 140 146
3 143 142 144
3 140 136 147
3 260 259 261
3 199 278 200
3 258 261 259
3 247 264 248
3 13 264 263
3 73 265 77
3 72 71 282
3 174 266 175
3 237 236 266
3 272 230 229
3 204 203 286
3 238 237 268
3 266 268 237
3 22 262 269
3 283 262 268
3 168 167 274
3 66 65 270
3 271 244 243
3 20 263 271
3 230 272 267
3 228 272 229
3 262 273 268
3 243 273 271
3 287 167 166
3 282 120 265
3 62 285 63
3 62 61 285
3 79 276 80
3 116 115 276
3 277 272 228
3 213 212 277
3 267 278 183
3 202 201 278
3 122 121 279
3 279 121 120
3 126 125 280
3 288 125 124
3 118 117 281
3 281 117 116
3 289 69 68
3 120 282 274
3 173 275 283
3 283 275 285
3 270 275 284
3 172 284 275
3 61 269 285
3 262 285 269
3 278 267 286
3 272 286 267
3 120 287 279
3 167 287 274
3 122 288 123
3 288 279 162
3 274 289 270
3 66 270 289
