ply
format ascii 1.0
element vertex 290
property float x
property float y
property float z
property float u
property float v
element face 317
property list uchar int vertex_indices
end_header
65.8011 -393.812 0 147.636 8.36396
55.5564 -385.611 0 139.979 19.0208
51.7584 -371.953 0 140 33.201
51.6646 -357.984 0 143.678 46.6777
62.5274 -351.492 0 155.887 50
70.7487 -361.89 0 161 37.7695
76.5827 -360.464 0 167 37.5736
80.223 -347.49 0 174 49.0883
82.3294 -333.786 0 179.719 61.7193
95.1417 -335.102 0 191.704 57
98.62 -324.131 0 198 66.6324
99.9635 -310.333 0 203 79.5613
91.2481 -304.238 0 196.239 87.7609
78.9644 -298.295 0 186 96.7624
66.9665 -292.127 0 176.097 105.903
55.5283 -284.853 0 167.026 115.974
56.961 -272.174 0 171.803 127.803
54.6723 -263.188 0 172 137.064
57.2611 -250.08 0 177.995 148.995
60.8524 -236.544 0 185.066 161.066
68.8824 -225.175 0 195.844 169.844
73.0656 -211.57 0 203.622 181.622
66.5989 -206.982 0 199.605 187
53.2663 -213.792 0 186.185 183.185
39.8022 -221.305 0 172.919 179
25.0643 -229.456 0 159.407 175.407
9.3461 -236.395 0 145.818 174
-3.7729 -248.883 0 134 166.718
-7.82936 -266.11 0 130.265 153.265
-12.181 -282.891 0 126 140.032
-17.2973 -299.454 0 121 127.103
-21.4446 -316.076 0 116.83 113.83
-26.349 -331.307 0 111 101.245
-31.517 -346.415 0 104.809 88.8092
-38.0052 -360.937 0 97.031 77.031
-42.5444 -374.362 0 90 64.9434
-44.9622 -383.159 0 85.8385 56.8385
-53.305 -386.455 0 77 55.3289
-52.5568 -372.867 0 80.5247 68.4753
-51.4803 -366.166 0 83 74.8438
-65.3542 -364.818 0 69.8678 79.1322
-73.2595 -373.765 0 60.2982 72
-81.4715 -382.075 0 50.554 65.554
-84.7223 -374.154 0 49 73.9741
-81.1789 -361.821 0 55 85.3173
-75.3247 -349.384 0 63.2955 96.2955
-64.1657 -341.248 0 75.9327 102
-52.4951 -328.416 0 86 109.276
-50.3543 -310.823 0 88 123.448
-47.9414 -293.643 0 90.4379 137.438
-46.3171 -277.15 0 92 150.963
-44.4831 -260.051 0 94 165.134
-42.7304 -244.317 0 97 178.892
-40.537 -229.355 0 101 192.235
-37.3203 -215.016 0 106.116 205.116
-32.2092 -201.941 0 113.265 217
-24.4752 -204.096 0 120.43 213.43
-10.6094 -193.176 0 133.087 219.087
2.64965 -181.803 0 145 225.052
5.60132 -173.571 0 148.809 232
18.0307 -167.1 0 161.694 235.694
25.4293 -155.417 0 170 244.081
24.7446 -140.019 0 171 257.839
24.114 -124.167 0 172 272.425
26.1156 -108.527 0 175 286.182
20.1346 -95.4904 0 169.921 299.079
14.1778 -82.8429 0 165 312.04
1.9267 -79.8785 0 153.031 316
-5.07809 -67.9469 0 147 328.484
-12.9829 -57.1083 0 140.001 339.999
-22.2142 -46.6763 0 131.516 351.484
-30.7945 -35.9665 0 123.737 363.263
-38.7301 -25.2719 0 116.666 375.334
-48.4133 -15.1981 0 108.181 386.819
-57.8489 -4.34835 0 99.6956 398.304
-68.4024 5.79567 0 89.7115 409
-62.2431 12.1226 0 96.2175 415
-49.2229 16.7777 0 109.561 419
-46.6753 25.9918 0 113 429.49
-51.8034 37.6889 0 109 442.833
-54.7166 51.0719 0 107 457.005
-58.0054 63.0913 0 104 470.762
-68.0447 68.7391 0 92.9758 480.024
-77.0029 74.5314 0 82.0762 489.924
-86.5888 78.2125 0 70.298 497.702
-94.6655 84.4811 0 60.1059 507.894
-101.788 91.9716 0 50.9132 519.087
-108.898 99.9421 0 42.5491 529.451
-114.004 110.003 0 36.1849 541.815
-118.892 118.741 0 29 553.839
-123.629 127.061 0 21.7498 565.25
-129.795 137.217 0 13.9716 577.028
-136.513 148.625 0 6.60748 588.393
-139.412 162.212 0 3 601.898
-136.241 172.149 0 5.65576 612
-124.045 165.502 0 18.1705 606
-110.2 170.651 0 29.8989 613.899
-99.1686 179.992 0 41.129 623
-87.6655 188.691 0 52.4011 632
-75.2263 194.972 0 64.6477 638.648
-65.9319 194.984 0 73.938 638.938
-74.3329 184.161 0 65.8669 627.867
-81.5699 172.227 0 59 615.711
-87.2335 159.678 0 53.8459 602.846
-94.2117 149.004 0 49 589.853
-93.1821 143.243 0 53.4191 580
-85.0675 137.712 0 64.4886 570.511
-76.9935 132.573 0 75.5491 561
-68.825 127.412 0 86.5804 551.42
-60.4341 121.694 0 97.4802 541.52
-51.8099 116.422 0 108.537 532
-43.1505 111.194 0 119.572 522.428
-33.816 108.758 0 131.643 515.357
-22.605 106.9 0 144.593 510.407
-11.1179 100.973 0 156 502.475
-3.19589 90.2541 0 163 490.374
4.6632 80.0576 0 170.514 478.486
14.3236 71.1129 0 180 467.416
23.7724 61.289 0 188.191 455.809
32.3122 50.9422 0 195.262 443.738
42.9755 45.0267 0 206.057 435
51.9752 57.851 0 216.526 444.526
61.7512 70.2429 0 227.602 454
71.5383 81.8767 0 238.911 462.911
81.6333 92.6014 0 250.56 471
92.2179 104.066 0 262.174 479.174
104.196 115.855 0 274.245 486.245
109.039 133.163 0 280 498.862
111.997 151.912 0 284 512.205
114.906 170.605 0 288 525.548
118.43 187.357 0 293 538.477
123.004 203.894 0 298.995 550.995
129.841 221.691 0 306.773 562.773
136.669 239.612 0 314.551 574.551
144.934 257.207 0 323.743 585.743
152.335 274.888 0 332.229 597.229
160.086 291.161 0 341.421 608.421
167.652 304.576 0 351 618.867
176.141 314.747 0 361.382 627
182.557 311.055 0 366.861 622
185.267 300.51 0 367.169 610.831
200.567 305.095 0 380.582 607
214.489 304.132 0 394.339 604
227.64 299.238 0 406.311 596.689
227.089 290.239 0 404.046 588
212.931 286.259 0 389.46 587
198.231 279.922 0 374.874 586
184.938 269.562 0 361.961 583.039
179.69 252.507 0 356 572.431
176.864 233.486 0 352 559.088
174.551 214.4 0 348.527 545.527
171.083 195.556 0 344 532.403
166.98 176.388 0 339 519.474
164.021 156.96 0 335.093 506.093
160.957 138.026 0 331 492.789
161.016 118.919 0 330 479.032
164.014 101.767 0 331 464.446
170.448 90.3371 0 336 452.689
162.107 80.8671 0 326.538 444.538
154.529 67.6545 0 317.345 433.345
145.406 55.1417 0 306.86 423.86
150.215 49.2663 0 311 418.459
143.573 36.4111 0 303 407.358
136.745 21.688 0 294.768 395.768
130.266 7.37786 0 286.99 383.99
122.813 -6.25366 0 278.505 372.505
115.419 -19.093 0 270 361.027
107.319 -32.255 0 261 349.755
102.32 -45.9 0 255.998 338
105.017 -57.4182 0 259 326.483
109.806 -69.9472 0 263 313.141
114.191 -82.8484 0 266 299.384
118.322 -95.6097 0 269 285.626
122.349 -107.158 0 273 272.284
132.538 -111.185 0 284.578 264.422
144.354 -110.866 0 297.331 261
157.404 -105.937 0 311.917 262
167.45 -106.586 0 322 258.155
177.389 -111.024 0 331.188 250
187.251 -103.574 0 344.531 252
199.29 -97.8181 0 359.117 251
211.224 -91.6849 0 373.703 250
223.228 -86.5451 0 387.874 248
219.29 -73.7403 0 391 260.459
211.924 -60.4741 0 391 275.459
204.058 -48.1106 0 390 290.047
196.931 -34.9192 0 390 305.044
189.116 -22.5572 0 389 319.633
181.992 -9.35752 0 389 334.633
174.182 2.99932 0 388 349.217
167.057 16.1987 0 388 364.217
161.411 28.7931 0 389.018 377.982
166.61 29.6546 0 394 376.269
170.517 18.207 0 392 364.34
179.01 6.688 0 394 350.169
189.92 -1.86154 0 399.537 337.463
203.325 -7.34339 0 408.73 326.27
217.438 -9.1199 0 420.304 318
231.363 -9.08669 0 432.579 311.421
245.324 -9.58494 0 444.649 304.351
259.364 -10.8271 0 456.428 296.572
271.362 -17.1318 0 464 285.295
281.852 -26.0856 0 469 272.366
290.163 -37.484 0 471 258.194
297.774 -49.7124 0 472 243.608
304.486 -62.1546 0 472 229.438
311.356 -73.4537 0 472.64 216.36
318.723 -85.6876 0 473.238 202.238
323.041 -97.6489 0 471.297 189.703
330.708 -110.203 0 471.996 174.996
334.873 -123.688 0 469.168 161.168
335.235 -137.593 0 462.804 148.804
329.402 -149.995 0 451.733 140.733
321.923 -161.769 0 439.522 134
314.67 -173.719 0 427.422 127
309.183 -186.393 0 416.52 118.52
307.26 -200.54 0 408.035 107.035
309.904 -214.193 0 403.792 93.7925
315.856 -226.716 0 403 79.9492
323.339 -236.217 0 405 68.0205
322.894 -244.206 0 400.772 61.2279
313.132 -234.232 0 397 74.6653
305.249 -221.917 0 396 89.2529
298.044 -208.763 0 396 104.253
290.158 -196.456 0 395 118.836
282.951 -183.3 0 395 133.837
275.742 -170.14 0 395 148.837
267.857 -157.821 0 394 163.422
260.645 -144.65 0 394 178.422
252.786 -132.356 0 393 193.009
245.672 -119.332 0 393 208.01
235.135 -116.985 0 384.873 215.873
223.211 -125.644 0 370.234 215
211.134 -133.958 0 355.649 214
198.861 -141.981 0 341.063 213
193.44 -152.191 0 332.72 206
179.577 -158.296 0 318.135 205
169.405 -168.364 0 306.439 198.439
165.297 -181.909 0 299.367 186.367
163.456 -194.141 0 294.581 175
171.048 -200.2 0 300.319 167
158.977 -203.754 0 287.862 166.862
158.317 -216.762 0 284 154.29
154.778 -230.268 0 277.134 142.134
151.033 -243.711 0 270 130.09
148.362 -255.702 0 264.235 119.235
146.219 -268.085 0 258.871 107.871
141.456 -280.369 0 251 97.303
136.589 -293.736 0 242.729 85.7291
129.501 -306.289 0 232.536 75.5365
116.779 -312.158 0 218.708 73.2917
106.421 -318.406 0 207.052 70.0515
102.87 -331.934 0 200 57.9727
111.059 -339.996 0 205.713 48
118.859 -348.255 0 211 37.9436
118.057 -352.812 0 209 33.7725
115.858 -363.563 0 203.989 24.0107
111.596 -374.05 0 197.061 15.061
104.254 -382.397 0 187.744 9
93.5251 -390.295 0 175.283 4.28345
78.7285 -397.841 0 159 1
78.0599 -379.13 0 163.397 19.2
86.3859 -188.893 0 222.418 199.851
80.2952 -261.444 0 197.158 131.895
110.803 -285.543 0 220.087 100.537
-6.67112 12.3785 0 151.861 410.94
160.253 -135.461 0 306.586 232.878
247.177 -93.5011 0 406.468 230.06
126.028 -183.313 0 261.32 195.618
48.1322 -179.629 0 188.497 217.457
60.5247 -68.9708 0 212.946 320.627
112.895 -241.618 0 233.86 142.326
284.41 -104.884 0 433.92 201.91
131.911 -209.56 0 260.625 168.349
67.753 -28.2387 0 222.394 359.242
74.1201 -120.148 0 221.899 268.749
-26.0754 67.0226 0 136.779 470.704
305.961 -131.4 0 440.11 168.305
248.999 -48.9645 0 429.173 267.959
91.9302 34.5723 0 251.883 414.403
123.64 85.0852 0 288.938 454.209
6.81969 37.6332 0 167.384 435.514
0.633077 -20.369 0 156.203 376.245
112.384 -146.117 0 256.529 235.57
84.0788 -86.8101 0 235.437 299.924
54.1745 -145.031 0 199.546 248.849
272.606 -71.3004 0 439.635 236.523
93.9132 2.19969 0 250.681 384.232
97.5122 67.203 0 261.248 443.175
14.2012 -45.5137 0 168.09 349.187
3 42 41 43
3 38 37 36
3 43 41 44
3 40 46 45
3 40 45 44
3 41 40 44
3 5 3 2
3 1 261 2
3 39 35 34
3 39 38 35
3 39 34 46
3 46 40 39
3 35 38 36
3 33 46 34
3 46 33 47
3 30 49 48
3 50 49 29
3 27 52 51
3 27 53 52
3 28 51 50
3 31 48 47
3 31 30 48
3 28 50 29
3 30 29 49
3 54 56 55
3 54 53 56
3 56 53 27
3 28 27 51
3 56 27 26
3 31 47 32
3 33 32 47
3 0 260 261
3 7 6 256
3 6 5 261
3 264 13 12
3 2 261 5
3 4 3 5
3 9 8 7
3 6 261 258
3 257 256 6
3 256 253 7
3 253 256 255
3 10 9 252
3 10 252 251
3 253 252 9
3 7 253 9
3 257 6 258
3 16 15 14
3 16 14 263
3 263 17 16
3 57 26 25
3 58 25 24
3 14 13 263
3 17 263 18
3 264 11 250
3 11 264 12
3 21 20 271
3 61 60 269
3 263 19 18
3 23 269 24
3 250 11 251
3 19 263 20
3 10 251 11
3 56 26 57
3 22 21 262
3 0 261 1
3 246 245 271
3 23 22 269
3 107 87 86
3 107 86 108
3 86 85 108
3 105 90 89
3 89 88 106
3 107 88 87
3 107 106 88
3 85 84 109
3 76 75 74
3 77 76 74
3 110 109 84
3 85 109 108
3 84 83 110
3 82 111 83
3 82 81 112
3 95 93 92
3 92 91 95
3 91 90 104
3 104 95 91
3 95 94 93
3 103 97 96
3 95 104 96
3 96 104 103
3 102 97 103
3 90 105 104
3 102 98 97
3 99 98 101
3 101 100 99
3 98 102 101
3 89 106 105
3 59 58 60
3 57 25 58
3 289 70 69
3 282 265 72
3 289 282 70
3 60 58 269
3 63 275 64
3 275 63 285
3 67 66 68
3 68 66 289
3 270 65 64
3 173 172 275
3 24 269 58
3 289 274 282
3 73 72 265
3 78 265 281
3 265 78 77
3 81 80 276
3 83 111 110
3 79 78 276
3 82 112 111
3 119 118 281
3 77 74 73
3 276 281 116
3 281 120 119
3 276 78 281
3 276 112 81
3 112 276 113
3 113 276 114
3 114 276 115
3 265 120 281
3 282 71 70
3 275 270 64
3 255 254 253
3 264 250 249
3 248 264 249
3 264 247 246
3 271 245 244
3 271 263 264
3 271 264 246
3 243 242 273
3 273 241 268
3 241 240 239
3 273 242 241
3 268 239 238
3 236 235 266
3 268 266 283
3 241 239 268
3 283 266 174
3 266 176 175
3 177 176 266
3 234 178 266
3 266 178 177
3 283 174 173
3 284 172 171
3 283 285 262
3 266 235 234
3 179 234 233
3 232 231 181
3 180 233 232
3 179 233 180
3 181 180 232
3 182 181 231
3 230 267 231
3 234 179 178
3 284 171 170
3 222 221 218
3 221 219 218
3 219 221 220
3 223 222 217
3 216 224 223
3 226 225 214
3 215 225 224
3 222 218 217
3 216 215 224
3 217 216 223
3 226 214 277
3 277 212 211
3 277 214 213
3 215 214 225
3 277 211 210
3 182 231 267
3 278 286 203
3 227 277 228
3 207 272 208
3 184 278 185
3 184 183 278
3 201 200 278
3 278 199 198
3 226 277 227
3 272 207 206
3 208 272 277
3 206 205 286
3 273 262 21
3 205 204 286
3 267 183 182
3 203 202 278
3 206 286 272
3 273 21 271
3 208 277 209
3 277 210 209
3 169 168 270
3 270 284 169
3 270 168 274
3 163 279 164
3 165 287 166
3 165 164 287
3 287 120 274
3 284 170 169
3 163 162 279
3 160 288 162
3 279 288 122
3 161 160 162
3 158 280 159
3 160 280 288
3 287 164 279
3 158 156 280
3 124 123 288
3 280 160 159
3 288 280 125
3 153 129 128
3 129 152 130
3 128 127 154
3 126 155 127
3 154 127 155
3 130 152 131
3 153 128 154
3 132 131 151
3 150 133 132
3 133 149 134
3 134 148 135
3 153 152 129
3 126 280 155
3 156 155 280
3 158 157 156
3 194 189 188
3 187 195 188
3 194 190 189
3 192 190 193
3 190 192 191
3 193 190 194
3 196 187 186
3 186 185 197
3 197 185 198
3 278 198 185
3 196 195 187
3 194 188 195
3 197 196 186
3 151 150 132
3 149 133 150
3 134 149 148
3 140 137 136
3 137 139 138
3 147 136 135
3 148 147 135
3 131 152 151
3 147 146 140
3 145 144 142
3 146 145 141
3 139 137 140
3 145 142 141
3 141 140 146
3 143 142 144
3 140 136 147
3 260 259 261
3 199 278 200
3 258 261 259
3 247 264 248
3 13 264 263
3 73 265 77
3 72 71 282
3 174 266 175
3 237 236 266
3 272 230 229
3 204 203 286
3 238 237 268
3 266 268 237
3 22 262 269
3 283 262 268
3 168 167 274
3 66 65 270
3 271 244 243
3 20 263 271
3 230 272 267
3 228 272 229
3 262 273 268
3 243 273 271
3 287 167 166
3 282 120 265
3 62 285 63
3 62 61 285
3 79 276 80
3 116 115 276
3 277 272 228
3 213 212 277
3 267 278 183
3 202 201 278
3 122 121 279
3 279 121 120
3 126 125 280
3 288 125 124
3 118 117 281
3 281 117 116
3 289 69 68
3 120 282 274
3 173 275 283
3 283 275 285
3 270 275 284
3 172 284 275
3 61 269 285
3 262 285 269
3 278 267 286
3 272 286 267
3 120 287 279
3 167 287 274
3 122 288 123
3 288 279 162
3 274 289 270
3 66 270 289
