ply
format ascii 1.0
element vertex 290
property float x
property float y
property float z
property float u
property float v
element face 317
property list uchar int vertex_indices
end_header
-3.62852 -340.308 0 147.636 8.36396
-12.1978 -330.369 0 139.979 19.0208
-13.429 -316.244 0 140 33.201
-10.9607 -302.495 0 143.678 46.6777
0.90763 -298.104 0 155.887 50
7.08405 -309.833 0 161 37.7695
13.0804 -309.499 0 167 37.5736
19.0365 -297.412 0 174 49.0883
23.6183 -284.326 0 179.719 61.7193
35.9725 -287.968 0 191.704 57
41.4007 -277.819 0 198 66.6324
45.247 -264.501 0 203 79.5613
37.7945 -256.919 0 196.239 87.7609
26.8074 -248.841 0 186 96.7624
16.1418 -240.596 0 176.097 105.903
6.22464 -231.356 0 167.026 115.974
9.94886 -219.153 0 171.803 127.803
9.33807 -209.906 0 172 137.064
14.2729 -197.494 0 177.995 148.995
20.2693 -184.848 0 185.066 161.066
30.2411 -175.156 0 195.844 169.844
36.9102 -162.689 0 203.622 181.622
32.0285 -157.516 0 199.605 187
18.4864 -162.307 0 186.185 183.185
4.97436 -167.562 0 172.919 179
-9.2348 -172.64 0 159.407 175.407
-23.8814 -175.853 0 145.818 174
-36.5215 -184.859 0 134 166.718
-40.7661 -199.629 0 130.265 153.265
-45.436 -214.096 0 126 140.032
-50.853 -228.28 0 121 127.103
-55.3854 -242.715 0 116.83 113.83
-61.1816 -256.212 0 111 101.245
-67.3008 -269.567 0 104.809 88.8092
-74.8904 -282.279 0 97.031 77.031
-81.2111 -294.834 0 90 64.9434
-84.8599 -303.187 0 85.8385 56.8385
-93.588 -305.25 0 77 55.3289
-90.8951 -291.909 0 80.5247 68.4753
-88.8405 -285.411 0 83 74.8438
-102.277 -282.005 0 69.8678 79.1322
-111.384 -289.722 0 60.2982 72
-120.704 -296.766 0 50.554 65.554
-122.783 -288.46 0 49 73.9741
-117.504 -276.763 0 55 85.3173
-109.917 -265.291 0 63.2955 96.2955
-97.6788 -258.821 0 75.9327 102
-86.638 -249.701 0 86 109.276
-84.1837 -234.322 0 88 123.448
-81.3754 -219.213 0 90.4379 137.438
-79.4293 -204.643 0 92 150.963
-77.1299 -189.438 0 94 165.134
-74.3065 -174.974 0 97 178.892
-70.7302 -161.05 0 101 192.235
-66.0985 -147.652 0 106.116 205.116
-59.526 -135.367 0 113.265 217
-52.1543 -138.515 0 120.43 213.43
-38.7446 -131.121 0 133.087 219.087
-26.0126 -123.361 0 145 225.052
-22.3919 -115.973 0 148.809 232
-9.55053 -111.397 0 161.694 235.694
-1.37382 -101.912 0 170 244.081
-0.825358 -87.5885 0 171 257.839
-0.300375 -72.5773 0 172 272.425
2.40155 -58.2174 0 175 286.182
-2.99301 -45.2872 0 169.921 299.079
-8.28498 -32.4407 0 165 312.04
-20.3645 -28.8192 0 153.031 316
-26.7353 -16.5177 0 147 328.484
-34.0625 -5.23975 0 140.001 339.999
-42.8357 5.88373 0 131.516 351.484
-50.9242 17.2956 0 123.737 363.263
-58.3329 28.9099 0 116.666 375.334
-67.2577 39.9224 0 108.181 386.819
-76.0984 51.1739 0 99.6956 398.304
-86.3105 61.6543 0 89.7115 409
-79.9399 67.7877 0 96.2175 415
-66.7134 72.0534 0 109.561 419
-63.6233 82.1718 0 113 429.49
-68.0527 94.9836 0 109 442.833
-70.4273 108.886 0 107 457.005
-73.6289 122.071 0 104 470.762
-84.4432 130.1 0 92.9758 480.024
-94.885 138.603 0 82.0762 489.924
-106.113 144.965 0 70.298 497.702
-115.816 153.803 0 60.1059 507.894
-124.554 163.711 0 50.9132 519.087
-132.699 173.194 0 42.5491 529.451
-138.881 184.73 0 36.1849 541.815
-145.589 195.586 0 29 553.839
-152.312 205.866 0 21.7498 565.25
-159.854 216.931 0 13.9716 577.028
-167.287 228.11 0 6.60748 588.393
-171.005 241.55 0 3 601.898
-168.438 251.668 0 5.65576 612
-155.868 245.774 0 18.1705 606
-143.713 253.078 0 29.8989 613.899
-132.757 262.524 0 41.129 623
-121.631 271.705 0 52.4011 632
-109.486 278.538 0 64.6477 638.648
-100.201 278.968 0 73.938 638.938
-108.106 267.777 0 65.8669 627.867
-114.791 255.522 0 59 615.711
-119.788 242.629 0 53.8459 602.846
-124.946 230.223 0 49 589.853
-121.294 221.689 0 53.4191 580
-110.888 213.587 0 64.4886 570.511
-100.521 205.577 0 75.5491 561
-90.1572 197.503 0 86.5804 551.42
-79.8263 189.024 0 97.4802 541.52
-69.3292 180.936 0 108.537 532
-58.8437 172.816 0 119.572 522.428
-47.4564 167.284 0 131.643 515.357
-34.9181 163.388 0 144.593 510.407
-23.3825 156.145 0 156 502.475
-15.9838 144.495 0 163 490.374
-8.25191 133.154 0 170.514 478.486
1.39597 122.781 0 180 467.416
10.068 111.74 0 188.191 455.809
17.6806 100.201 0 195.262 443.738
28.5199 92.3625 0 206.057 435
38.5363 102.977 0 216.526 444.526
49.2089 113.422 0 227.602 454
60.0443 123.255 0 238.911 462.911
71.2145 132.247 0 250.56 471
82.5296 141.51 0 262.174 479.174
94.6325 150.089 0 274.245 486.245
100.136 164.185 0 280 498.862
103.857 179.23 0 284 512.205
107.559 194.258 0 288 525.548
112.106 208.418 0 293 538.477
117.67 222.232 0 298.995 550.995
125.212 235.926 0 306.773 562.773
132.752 249.659 0 314.551 574.551
141.718 262.898 0 323.743 585.743
149.916 276.367 0 332.229 597.229
158.679 289.213 0 341.421 608.421
167.604 300.689 0 351 618.867
177.37 309.579 0 361.382 627
183.207 305.011 0 366.861 622
184.366 293.988 0 367.169 610.831
198.575 292.829 0 380.582 607
212.44 290.567 0 394.339 604
224.88 284.08 0 406.311 596.689
223.21 275.246 0 404.046 588
208.71 273.198 0 389.46 587
193.988 270.432 0 374.874 586
180.816 265.087 0 361.961 583.039
175.004 252.429 0 356 572.431
171.325 237.283 0 352 559.088
168.172 221.975 0 348.527 545.527
163.925 207.04 0 344 532.403
159.141 192.141 0 339 519.474
155.471 176.857 0 335.093 506.093
151.648 161.777 0 331 492.789
150.932 146.346 0 330 479.032
152.568 130.928 0 331 464.446
158.068 119.275 0 336 452.689
148.975 110.656 0 326.538 444.538
140.304 98.7679 0 317.345 433.345
130.234 88.2696 0 306.86 423.86
134.59 82.7267 0 311 418.459
127.03 71.0298 0 303 407.358
119.226 58.411 0 294.768 395.768
111.858 45.7954 0 286.99 383.99
103.707 33.5935 0 278.505 372.505
95.5851 21.6425 0 270 361.027
86.8834 9.72614 0 261 349.755
81.8751 -2.65245 0 255.998 338
84.7991 -14.1652 0 259 326.483
89.1093 -27.246 0 263 313.141
92.6241 -40.7458 0 266 299.384
96.0538 -54.2165 0 269 285.626
100.161 -67.0019 0 273 272.284
111.493 -73.5713 0 284.578 264.422
124.118 -75.7341 0 297.331 261
138.359 -73.3993 0 311.917 262
148.58 -76.1983 0 322 258.155
158.252 -83.1569 0 331.188 250
170.929 -79.2414 0 344.531 252
185.244 -77.967 0 359.117 251
199.561 -76.5826 0 373.703 250
213.597 -76.2334 0 387.874 248
214.716 -63.2537 0 391 260.459
212.451 -48.3671 0 391 275.459
209.291 -34.0785 0 390 290.047
207.071 -19.2477 0 390 305.044
203.922 -4.96606 0 389 319.633
201.706 9.86884 0 389 334.633
198.557 24.1447 0 388 349.217
196.344 38.9809 0 388 364.217
195.313 52.7443 0 389.018 377.982
200.495 51.788 0 394 376.269
200.28 39.6938 0 392 364.34
204.351 25.9732 0 394 350.169
211.708 14.2258 0 399.537 337.463
222.454 4.51602 0 408.73 326.27
235.124 -1.94978 0 420.304 318
248.236 -6.6407 0 432.579 311.421
261.213 -11.8476 0 444.649 304.351
274.008 -17.7921 0 456.428 296.572
283.162 -27.815 0 464 285.295
290.015 -39.8408 0 469 272.366
294.064 -53.5023 0 471 258.194
297.183 -67.7157 0 472 243.608
299.283 -81.7165 0 472 229.438
301.865 -94.5878 0 472.64 216.36
304.571 -108.503 0 473.238 202.238
304.529 -121.196 0 471.297 189.703
307.428 -135.626 0 471.996 174.996
306.712 -149.721 0 469.168 161.168
302.279 -162.903 0 462.804 148.804
292.546 -172.548 0 451.733 140.733
281.484 -181.04 0 439.522 134
270.573 -189.778 0 427.422 127
261.069 -199.8 0 416.52 118.52
254.408 -212.427 0 408.035 107.035
252.206 -226.159 0 403.792 93.7925
253.499 -239.964 0 403 79.9492
257.266 -251.457 0 405 68.0205
254.105 -258.808 0 400.772 61.2279
248.361 -246.089 0 397 74.6653
245.182 -231.817 0 396 89.2529
242.93 -216.989 0 396 104.253
239.745 -202.723 0 395 118.836
237.492 -187.892 0 395 133.837
235.237 -173.062 0 395 148.837
232.057 -158.792 0 394 163.422
229.803 -143.958 0 394 178.422
226.624 -129.697 0 393 193.009
224.369 -114.915 0 393 208.01
215.142 -108.595 0 384.873 215.873
200.767 -111.994 0 370.234 215
186.432 -115.382 0 355.649 214
172.06 -118.687 0 341.063 213
164.423 -126.809 0 332.72 206
149.855 -129.442 0 318.135 205
138.504 -137.159 0 306.439 198.439
132.316 -149.799 0 299.367 186.367
128.439 -161.535 0 294.581 175
134.828 -168.968 0 300.319 167
122.386 -170.218 0 287.862 166.862
119.528 -183.031 0 284 154.29
113.685 -195.721 0 277.134 142.134
107.599 -208.316 0 270 130.09
102.796 -219.63 0 264.235 119.235
98.4373 -231.418 0 258.871 107.871
91.515 -242.631 0 251 97.303
84.286 -254.882 0 242.729 85.7291
75.0231 -265.927 0 232.536 75.5365
61.444 -269.369 0 218.708 73.2917
50.1176 -273.619 0 207.052 70.0515
44.1509 -286.269 0 200 57.9727
50.7228 -295.696 0 205.713 48
56.878 -305.245 0 211 37.9436
55.2537 -309.578 0 209 33.7725
51.1224 -319.744 0 203.989 24.0107
45.0107 -329.272 0 197.061 15.061
36.2644 -336.131 0 187.744 9
24.2703 -341.929 0 175.283 4.28345
8.34194 -346.637 0 159 1
11.1121 -328.12 0 163.397 19.2
54.0692 -142.877 0 222.418 199.851
34.85 -212.863 0 197.158 131.895
60.4356 -242.11 0 220.087 100.537
-24.2699 65.3451 0 151.861 410.94
135.653 -102.902 0 306.586 232.878
234.442 -91.1076 0 406.468 230.06
93.5499 -143.94 0 261.32 195.618
18.4456 -127.889 0 188.497 217.457
39.2107 -22.0381 0 212.946 320.627
70.5117 -199.289 0 233.86 142.326
265.747 -114.741 0 433.92 201.91
94.9682 -171.088 0 260.625 168.349
47.8493 17.3194 0 222.394 359.242
49.7758 -73.7435 0 221.899 268.749
-41.102 123.525 0 136.779 470.704
276.91 -147.037 0 440.11 168.305
251.294 -50.1303 0 429.173 267.959
75.5795 75.0683 0 251.883 414.403
110.988 118.46 0 288.938 454.209
-9.50936 90.2456 0 167.384 435.514
-18.8167 31.2295 0 156.203 376.245
85.8073 -104.633 0 256.529 235.57
62.1388 -41.7764 0 235.437 299.924
28.0695 -95.3275 0 199.546 248.849
266.219 -79.5085 0 439.635 236.523
75.4521 44.1708 0 250.681 384.232
83.7142 105.133 0 261.248 443.175
-6.26407 4.79541 0 168.09 349.187
3 42 41 43
3 38 37 36
3 43 41 44
3 40 46 45
3 40 45 44
3 41 40 44
3 5 3 2
3 1 261 2
3 39 35 34
3 39 38 35
3 39 34 46
3 46 40 39
3 35 38 36
3 33 46 34
3 46 33 47
3 30 49 48
3 50 49 29
3 27 52 51
3 27 53 52
3 28 51 50
3 31 48 47
3 31 30 48
3 28 50 29
3 30 29 49
3 54 56 55
3 54 53 56
3 56 53 27
3 28 27 51
3 56 27 26
3 31 47 32
3 33 32 47
3 0 260 261
3 7 6 256
3 6 5 261
3 264 13 12
3 2 261 5
3 4 3 5
3 9 8 7
3 6 261 258
3 257 256 6
3 256 253 7
3 253 256 255
3 10 9 252
3 10 252 251
3 253 252 9
3 7 253 9
3 257 6 258
3 16 15 14
3 16 14 263
3 263 17 16
3 57 26 25
3 58 25 24
3 14 13 263
3 17 263 18
3 264 11 250
3 11 264 12
3 21 20 271
3 61 60 269
3 263 19 18
3 23 269 24
3 250 11 251
3 19 263 20
3 10 251 11
3 56 26 57
3 22 21 262
3 0 261 1
3 246 245 271
3 23 22 269
3 107 87 86
3 107 86 108
3 86 85 108
3 105 90 89
3 89 88 106
3 107 88 87
3 107 106 88
3 85 84 109
3 76 75 74
3 77 76 74
3 110 109 84
3 85 109 108
3 84 83 110
3 82 111 83
3 82 81 112
3 95 93 92
3 92 91 95
3 91 90 104
3 104 95 91
3 95 94 93
3 103 97 96
3 95 104 96
3 96 104 103
3 102 97 103
3 90 105 104
3 102 98 97
3 99 98 101
3 101 100 99
3 98 102 101
3 89 106 105
3 59 58 60
3 57 25 58
3 289 70 69
3 282 265 72
3 289 282 70
3 60 58 269
3 63 275 64
3 275 63 285
3 67 66 68
3 68 66 289
3 270 65 64
3 173 172 275
3 24 269 58
3 289 274 282
3 73 72 265
3 78 265 281
3 265 78 77
3 81 80 276
3 83 111 110
3 79 78 276
3 82 112 111
3 119 118 281
3 77 74 73
3 276 281 116
3 281 120 119
3 276 78 281
3 276 112 81
3 112 276 113
3 113 276 114
3 114 276 115
3 265 120 281
3 282 71 70
3 275 270 64
3 255 254 253
3 264 250 249
3 248 264 249
3 264 247 246
3 271 245 244
3 271 263 264
3 271 264 246
3 243 242 273
3 273 241 268
3 241 240 239
3 273 242 241
3 268 239 238
3 236 235 266
3 268 266 283
3 241 239 268
3 283 266 174
3 266 176 175
3 177 176 266
3 234 178 266
3 266 178 177
3 283 174 173
3 284 172 171
3 283 285 262
3 266 235 234
3 179 234 233
3 232 231 181
3 180 233 232
3 179 233 180
3 181 180 232
3 182 181 231
3 230 267 231
3 234 179 178
3 284 171 170
3 222 221 218
3 221 219 218
3 219 221 220
3 223 222 217
3 216 224 223
3 226 225 214
3 215 225 224
3 222 218 217
3 216 215 224
3 217 216 223
3 226 214 277
3 277 212 211
3 277 214 213
3 215 214 225
3 277 211 210
3 182 231 267
3 278 286 203
3 227 277 228
3 207 272 208
3 184 278 185
3 184 183 278
3 201 200 278
3 278 199 198
3 226 277 227
3 272 207 206
3 208 272 277
3 206 205 286
3 273 262 21
3 205 204 286
3 267 183 182
3 203 202 278
3 206 286 272
3 273 21 271
3 208 277 209
3 277 210 209
3 169 168 270
3 270 284 169
3 270 168 274
3 163 279 164
3 165 287 166
3 165 164 287
3 287 120 274
3 284 170 169
3 163 162 279
3 160 288 162
3 279 288 122
3 161 160 162
3 158 280 159
3 160 280 288
3 287 164 279
3 158 156 280
3 124 123 288
3 280 160 159
3 288 280 125
3 153 129 128
3 129 152 130
3 128 127 154
3 126 155 127
3 154 127 155
3 130 152 131
3 153 128 154
3 132 131 151
3 150 133 132
3 133 149 134
3 134 148 135
3 153 152 129
3 126 280 155
3 156 155 280
3 158 157 156
3 194 189 188
3 187 195 188
3 194 190 189
3 192 190 193
3 190 192 191
3 193 190 194
3 196 187 186
3 186 185 197
3 197 185 198
3 278 198 185
3 196 195 187
3 194 188 195
3 197 196 186
3 151 150 132
3 149 133 150
3 134 149 148
3 140 137 136
3 137 139 138
3 147 136 135
3 148 147 135
3 131 152 151
3 147 146 140
3 145 144 142
3 146 145 141
3 139 137 140
3 145 142 141
3 141 140 146
3 143 142 144
3 140 136 147
3 260 259 261
3 199 278 200
3 258 261 259
3 247 264 248
3 13 264 263
3 73 265 77
3 72 71 282
3 174 266 175
3 237 236 266
3 272 230 229
3 204 203 286
3 238 237 268
3 266 268 237
3 22 262 269
3 283 262 268
3 168 167 274
3 66 65 270
3 271 244 243
3 20 263 271
3 230 272 267
3 228 272 229
3 262 273 268
3 243 273 271
3 287 167 166
3 282 120 265
3 62 285 63
3 62 61 285
3 79 276 80
3 116 115 276
3 277 272 228
3 213 212 277
3 267 278 183
3 202 201 278
3 122 121 279
3 279 121 120
3 126 125 280
3 288 125 124
3 118 117 281
3 281 117 116
3 289 69 68
3 120 282 274
3 173 275 283
3 283 275 285
3 270 275 284
3 172 284 275
3 61 269 285
3 262 285 269
3 278 267 286
3 272 286 267
3 120 287 279
3 167 287 274
3 122 288 123
3 288 279 162
3 274 289 270
3 66 270 289
