ply
format ascii 1.0
element vertex 290
property float x
property float y
property float z
property float u
property float v
element face 317
property list uchar int vertex_indices
end_header
-5.08166 -339.455 0 147.636 8.36396
-13.6353 -329.503 0 139.979 19.0208
-14.8443 -315.376 0 140 33.201
-12.3544 -301.631 0 143.678 46.6777
-0.479156 -297.259 0 155.887 50
5.67882 -308.997 0 161 37.7695
11.6757 -308.672 0 167 37.5736
17.6507 -296.595 0 174 49.0883
22.2531 -283.517 0 179.719 61.7193
34.6016 -287.178 0 191.704 57
40.0457 -277.037 0 198 66.6324
43.9129 -263.725 0 203 79.5613
36.4722 -256.132 0 196.239 87.7609
25.4977 -248.037 0 186 96.7624
14.845 -239.775 0 176.097 105.903
4.94228 -230.52 0 167.026 115.974
8.68558 -218.323 0 171.803 127.803
8.08922 -209.074 0 172 137.064
13.0434 -196.67 0 177.995 148.995
19.0595 -184.034 0 185.066 161.066
29.0462 -174.357 0 195.844 169.844
35.7334 -161.902 0 203.622 181.622
30.8545 -156.728 0 199.605 187
17.2995 -161.503 0 186.185 183.185
3.77522 -166.741 0 172.919 179
-10.4489 -171.801 0 159.407 175.407
-25.1081 -174.993 0 145.818 174
-37.7709 -183.983 0 134 166.718
-42.0503 -198.751 0 130.265 153.265
-46.7543 -213.215 0 126 140.032
-52.2056 -227.394 0 121 127.103
-56.7736 -241.825 0 116.83 113.83
-62.6025 -255.313 0 111 101.245
-68.7545 -268.659 0 104.809 88.8092
-76.3753 -281.357 0 97.031 77.031
-82.7241 -293.898 0 90 64.9434
-86.3914 -302.243 0 85.8385 56.8385
-95.1241 -304.286 0 77 55.3289
-92.4016 -290.951 0 80.5247 68.4753
-90.3327 -284.458 0 83 74.8438
-103.762 -281.022 0 69.8678 79.1322
-112.886 -288.72 0 60.2982 72
-122.222 -295.743 0 50.554 65.554
-124.282 -287.432 0 49 73.9741
-118.978 -275.747 0 55 85.3173
-111.365 -264.291 0 63.2955 96.2955
-99.1126 -257.849 0 75.9327 102
-88.0448 -248.748 0 86 109.276
-85.5517 -233.37 0 88 123.448
-82.7068 -218.263 0 90.4379 137.438
-80.7262 -203.694 0 92 150.963
-78.392 -188.49 0 94 165.134
-75.5387 -174.031 0 97 178.892
-71.9356 -160.113 0 101 192.235
-67.2801 -146.724 0 106.116 205.116
-60.6873 -134.449 0 113.265 217
-53.3203 -137.609 0 120.43 213.43
-39.8924 -130.234 0 133.087 219.087
-27.1416 -122.493 0 145 225.052
-23.5098 -115.111 0 148.809 232
-10.6613 -110.555 0 161.694 235.694
-2.47289 -101.086 0 170 244.081
-1.91115 -86.7695 0 171 257.839
-1.37578 -71.7629 0 172 272.425
1.32987 -57.408 0 175 286.182
-4.06089 -44.4746 0 169.921 299.079
-9.34748 -31.6245 0 165 312.04
-21.4255 -27.9972 0 153.031 316
-27.7909 -15.6924 0 147 328.484
-35.1133 -4.41114 0 140.001 339.999
-43.8828 6.71729 0 131.516 351.484
-51.9678 18.1333 0 123.737 363.263
-59.3731 29.752 0 116.666 375.334
-68.2938 40.7673 0 108.181 386.819
-77.1327 52.0193 0 99.6956 398.304
-87.344 62.5006 0 89.7115 409
-80.9728 68.6334 0 96.2175 415
-67.7457 72.898 0 109.561 419
-64.6567 83.0194 0 113 429.49
-69.089 95.8337 0 109 442.833
-71.4672 109.736 0 107 457.005
-74.6789 122.923 0 104 470.762
-85.5136 130.96 0 92.9758 480.024
-95.9844 139.474 0 82.0762 489.924
-107.241 145.847 0 70.298 497.702
-116.976 154.696 0 60.1059 507.894
-125.748 164.615 0 50.9132 519.087
-133.918 174.102 0 42.5491 529.451
-140.128 185.642 0 36.1849 541.815
-146.873 196.508 0 29 553.839
-153.634 206.798 0 21.7498 565.25
-161.206 217.861 0 13.9716 577.028
-168.66 229.03 0 6.60748 588.393
-172.401 242.464 0 3 601.898
-169.85 252.587 0 5.65576 612
-157.271 246.714 0 18.1705 606
-145.147 254.05 0 29.8989 613.899
-134.202 263.511 0 41.129 623
-123.091 272.71 0 52.4011 632
-110.957 279.562 0 64.6477 638.648
-101.673 280.007 0 73.938 638.938
-109.559 268.804 0 65.8669 627.867
-116.224 256.538 0 59 615.711
-121.199 243.635 0 53.8459 602.846
-126.32 231.208 0 49 589.853
-122.626 222.654 0 53.4191 580
-112.181 214.542 0 64.4886 570.511
-101.774 206.519 0 75.5491 561
-91.3725 198.432 0 86.5804 551.42
-81.0058 189.94 0 97.4802 541.52
-70.4743 181.838 0 108.537 532
-59.9547 173.702 0 119.572 522.428
-48.5342 168.153 0 131.643 515.357
-35.9769 164.25 0 144.593 510.407
-24.4322 157.006 0 156 502.475
-17.0256 145.352 0 163 490.374
-9.28298 134.003 0 170.514 478.486
0.373611 123.62 0 180 467.416
9.04752 112.572 0 188.191 455.809
16.6604 101.025 0 195.262 443.738
27.5095 93.1691 0 206.057 435
37.5396 103.774 0 216.526 444.526
48.2239 114.21 0 227.602 454
59.0715 124.033 0 238.911 462.911
70.2539 133.013 0 250.56 471
81.5806 142.263 0 262.174 479.174
93.6929 150.826 0 274.245 486.245
99.2134 164.91 0 280 498.862
102.952 179.944 0 284 512.205
106.672 194.959 0 288 525.548
111.239 209.107 0 293 538.477
116.823 222.909 0 298.995 550.995
124.383 236.583 0 306.773 562.773
131.942 250.297 0 314.551 574.551
140.926 263.513 0 323.743 585.743
149.145 276.961 0 332.229 597.229
157.929 289.787 0 341.421 608.421
166.876 301.244 0 351 618.867
176.66 310.113 0 361.382 627
182.488 305.534 0 366.861 622
183.625 294.509 0 367.169 610.831
197.826 293.312 0 380.582 607
211.687 291.023 0 394.339 604
224.114 284.511 0 406.311 596.689
222.426 275.68 0 404.046 588
207.921 273.662 0 389.46 587
193.197 270.93 0 374.874 586
180.021 265.618 0 361.961 583.039
174.191 252.981 0 356 572.431
170.491 237.851 0 352 559.088
167.317 222.557 0 348.527 545.527
163.051 207.638 0 344 532.403
158.249 192.756 0 339 519.474
154.56 177.488 0 335.093 506.093
150.719 162.423 0 331 492.789
149.985 147.003 0 330 479.032
151.603 131.591 0 331 464.446
157.089 119.933 0 336 452.689
147.986 111.326 0 326.538 444.538
139.302 99.4526 0 317.345 433.345
129.223 88.9718 0 306.86 423.86
133.574 83.4283 0 311 418.459
126.004 71.741 0 303 407.358
118.192 59.136 0 294.768 395.768
110.817 46.5317 0 286.99 383.99
102.661 34.3394 0 278.505 372.505
94.5335 22.3955 0 270 361.027
85.8297 10.486 0 261 349.755
80.8252 -1.89153 0 255.998 338
83.7526 -13.4126 0 259 326.483
88.0588 -26.5008 0 263 313.141
91.5665 -40.0065 0 266 299.384
94.9906 -53.486 0 269 285.626
99.098 -66.2886 0 273 272.284
110.44 -72.8845 0 284.578 264.422
123.072 -75.0688 0 297.331 261
137.32 -72.753 0 311.917 262
147.542 -75.5667 0 322 258.155
157.219 -82.5435 0 331.188 250
169.932 -78.6569 0 344.531 252
184.283 -77.4161 0 359.117 251
198.638 -76.0663 0 373.703 250
212.703 -75.7503 0 387.874 248
213.861 -62.7779 0 391 260.459
211.629 -47.8888 0 391 275.459
208.497 -33.5948 0 390 290.047
206.304 -18.76 0 390 305.044
203.18 -4.47267 0 389 319.633
200.991 10.3663 0 389 334.633
197.869 24.6478 0 388 349.217
195.683 39.4881 0 388 364.217
194.677 53.2533 0 389.018 377.982
199.857 52.2875 0 394 376.269
199.62 40.1938 0 392 364.34
203.666 26.4657 0 394 350.169
211.002 14.705 0 399.537 337.463
221.729 4.9756 0 408.73 326.27
234.388 -1.51332 0 420.304 318
247.492 -6.22817 0 432.579 311.421
260.46 -11.4588 0 444.649 304.351
273.244 -17.4268 0 456.428 296.572
282.38 -27.4667 0 464 285.295
289.211 -39.5056 0 469 272.366
293.24 -53.176 0 471 258.194
296.336 -67.3967 0 472 243.608
298.409 -81.4019 0 472 229.438
300.965 -94.2775 0 472.64 216.36
303.641 -108.197 0 473.238 202.238
303.573 -120.89 0 471.297 189.703
306.445 -135.325 0 471.996 174.996
305.701 -149.42 0 469.168 161.168
301.243 -162.593 0 462.804 148.804
291.492 -172.219 0 451.733 140.733
280.413 -180.69 0 439.522 134
269.486 -189.407 0 427.422 127
259.963 -199.411 0 416.52 118.52
253.278 -212.025 0 408.035 107.035
251.05 -225.753 0 403.792 93.7925
252.316 -239.561 0 403 79.9492
256.061 -251.061 0 405 68.0205
252.886 -258.405 0 400.772 61.2279
247.166 -245.675 0 397 74.6653
244.015 -231.397 0 396 89.2529
241.791 -216.565 0 396 104.253
238.634 -202.293 0 395 118.836
236.408 -187.458 0 395 133.837
234.182 -172.624 0 395 148.837
231.029 -158.347 0 394 163.422
228.803 -143.509 0 394 178.422
225.65 -129.242 0 393 193.009
223.418 -114.455 0 393 208.01
214.184 -108.112 0 384.873 215.873
199.768 -111.475 0 370.234 215
185.395 -114.827 0 355.649 214
170.982 -118.098 0 341.063 213
163.317 -126.205 0 332.72 206
148.74 -128.814 0 318.135 205
137.375 -136.517 0 306.439 198.439
131.165 -149.15 0 299.367 186.367
127.269 -160.882 0 294.581 175
133.646 -168.326 0 300.319 167
121.202 -169.557 0 287.862 166.862
118.322 -182.369 0 284 154.29
112.459 -195.051 0 277.134 142.134
106.353 -207.637 0 270 130.09
101.532 -218.944 0 264.235 119.235
97.1549 -230.725 0 258.871 107.871
90.2151 -241.927 0 251 97.303
82.9669 -254.167 0 242.729 85.7291
73.6868 -265.198 0 232.536 75.5365
60.1023 -268.619 0 218.708 73.2917
48.7693 -272.851 0 207.052 70.0515
42.7827 -285.491 0 200 57.9727
49.3397 -294.929 0 205.713 48
55.4799 -304.487 0 211 37.9436
53.8488 -308.818 0 209 33.7725
49.7015 -318.977 0 203.989 24.0107
43.5749 -328.495 0 197.061 15.061
34.8178 -335.341 0 187.744 9
22.8146 -341.121 0 175.283 4.28345
6.87884 -345.803 0 159 1
9.67812 -327.291 0 163.397 19.2
52.9215 -142.118 0 222.418 199.851
33.5965 -212.071 0 197.158 131.895
59.1365 -241.358 0 220.087 100.537
-25.3014 66.1833 0 151.861 410.94
134.577 -102.252 0 306.586 232.878
233.535 -90.6666 0 406.468 230.06
92.4067 -143.234 0 261.32 195.618
17.3135 -127.085 0 188.497 217.457
38.1571 -21.2535 0 212.946 320.627
69.2795 -198.552 0 233.86 142.326
264.803 -114.361 0 433.92 201.91
93.7807 -170.389 0 260.625 168.349
46.8035 18.1052 0 222.394 359.242
48.698 -72.9744 0 221.899 268.749
-42.1442 124.382 0 136.779 470.704
275.905 -146.678 0 440.11 168.305
250.471 -49.7233 0 429.173 267.959
74.5588 75.8312 0 251.883 414.403
110.008 119.176 0 288.938 454.209
-10.5395 91.087 0 167.384 435.514
-19.8569 32.0583 0 156.203 376.245
84.7117 -103.913 0 256.529 235.57
61.0795 -41.0134 0 235.437 299.924
26.9775 -94.5368 0 199.546 248.849
265.351 -79.1326 0 439.635 236.523
74.4136 44.9369 0 250.681 384.232
82.7198 105.884 0 261.248 443.175
-7.31073 5.61237 0 168.09 349.187
3 42 41 43
3 38 37 36
3 43 41 44
3 40 46 45
3 40 45 44
3 41 40 44
3 5 3 2
3 1 261 2
3 39 35 34
3 39 38 35
3 39 34 46
3 46 40 39
3 35 38 36
3 33 46 34
3 46 33 47
3 30 49 48
3 50 49 29
3 27 52 51
3 27 53 52
3 28 51 50
3 31 48 47
3 31 30 48
3 28 50 29
3 30 29 49
3 54 56 55
3 54 53 56
3 56 53 27
3 28 27 51
3 56 27 26
3 31 47 32
3 33 32 47
3 0 260 261
3 7 6 256
3 6 5 261
3 264 13 12
3 2 261 5
3 4 3 5
3 9 8 7
3 6 261 258
3 257 256 6
3 256 253 7
3 253 256 255
3 10 9 252
3 10 252 251
3 253 252 9
3 7 253 9
3 257 6 258
3 16 15 14
3 16 14 263
3 263 17 16
3 57 26 25
3 58 25 24
3 14 13 263
3 17 263 18
3 264 11 250
3 11 264 12
3 21 20 271
3 61 60 269
3 263 19 18
3 23 269 24
3 250 11 251
3 19 263 20
3 10 251 11
3 56 26 57
3 22 21 262
3 0 261 1
3 246 245 271
3 23 22 269
3 107 87 86
3 107 86 108
3 86 85 108
3 105 90 89
3 89 88 106
3 107 88 87
3 107 106 88
3 85 84 109
3 76 75 74
3 77 76 74
3 110 109 84
3 85 109 108
3 84 83 110
3 82 111 83
3 82 81 112
3 95 93 92
3 92 91 95
3 91 90 104
3 104 95 91
3 95 94 93
3 103 97 96
3 95 104 96
3 96 104 103
3 102 97 103
3 90 105 104
3 102 98 97
3 99 98 101
3 101 100 99
3 98 102 101
3 89 106 105
3 59 58 60
3 57 25 58
3 289 70 69
3 282 265 72
3 289 282 70
3 60 58 269
3 63 275 64
3 275 63 285
3 67 66 68
3 68 66 289
3 270 65 64
3 173 172 275
3 24 269 58
3 289 274 282
3 73 72 265
3 78 265 281
3 265 78 77
3 81 80 276
3 83 111 110
3 79 78 276
3 82 112 111
3 119 118 281
3 77 74 73
3 276 281 116
3 281 120 119
3 276 78 281
3 276 112 81
3 112 276 113
3 113 276 114
3 114 276 115
3 265 120 281
3 282 71 70
3 275 270 64
3 255 254 253
3 264 250 249
3 248 264 249
3 264 247 246
3 271 245 244
3 271 263 264
3 271 264 246
3 243 242 273
3 273 241 268
3 241 240 239
3 273 242 241
3 268 239 238
3 236 235 266
3 268 266 283
3 241 239 268
3 283 266 174
3 266 176 175
3 177 176 266
3 234 178 266
3 266 178 177
3 283 174 173
3 284 172 171
3 283 285 262
3 266 235 234
3 179 234 233
3 232 231 181
3 180 233 232
3 179 233 180
3 181 180 232
3 182 181 231
3 230 267 231
3 234 179 178
3 284 171 170
3 222 221 218
3 221 219 218
3 219 221 220
3 223 222 217
3 216 224 223
3 226 225 214
3 215 225 224
3 222 218 217
3 216 215 224
3 217 216 223
3 226 214 277
3 277 212 211
3 277 214 213
3 215 214 225
3 277 211 210
3 182 231 267
3 278 286 203
3 227 277 228
3 207 272 208
3 184 278 185
3 184 183 278
3 201 200 278
3 278 199 198
3 226 277 227
3 272 207 206
3 208 272 277
3 206 205 286
3 273 262 21
3 205 204 286
3 267 183 182
3 203 202 278
3 206 286 272
3 273 21 271
3 208 277 209
3 277 210 209
3 169 168 270
3 270 284 169
3 270 168 274
3 163 279 164
3 165 287 166
3 165 164 287
3 287 120 274
3 284 170 169
3 163 162 279
3 160 288 162
3 279 288 122
3 161 160 162
3 158 280 159
3 160 280 288
3 287 164 279
3 158 156 280
3 124 123 288
3 280 160 159
3 288 280 125
3 153 129 128
3 129 152 130
3 128 127 154
3 126 155 127
3 154 127 155
3 130 152 131
3 153 128 154
3 132 131 151
3 150 133 132
3 133 149 134
3 134 148 135
3 153 152 129
3 126 280 155
3 156 155 280
3 158 157 156
3 194 189 188
3 187 195 188
3 194 190 189
3 192 190 193
3 190 192 191
3 193 190 194
3 196 187 186
3 186 185 197
3 197 185 198
3 278 198 185
3 196 195 187
3 194 188 195
3 197 196 186
3 151 150 132
3 149 133 150
3 134 149 148
3 140 137 136
3 137 139 138
3 147 136 135
3 148 147 135
3 131 152 151
3 147 146 140
3 145 144 142
3 146 145 141
3 139 137 140
3 145 142 141
3 141 140 146
3 143 142 144
3 140 136 147
3 260 259 261
3 199 278 200
3 258 261 259
3 247 264 248
3 13 264 263
3 73 265 77
3 72 71 282
3 174 266 175
3 237 236 266
3 272 230 229
3 204 203 286
3 238 237 268
3 266 268 237
3 22 262 269
3 283 262 268
3 168 167 274
3 66 65 270
3 271 244 243
3 20 263 271
3 230 272 267
3 228 272 229
3 262 273 268
3 243 273 271
3 287 167 166
3 282 120 265
3 62 285 63
3 62 61 285
3 79 276 80
3 116 115 276
3 277 272 228
3 213 212 277
3 267 278 183
3 202 201 278
3 122 121 279
3 279 121 120
3 126 125 280
3 288 125 124
3 118 117 281
3 281 117 116
3 289 69 68
3 120 282 274
3 173 275 283
3 283 275 285
3 270 275 284
3 172 284 275
3 61 269 285
3 262 285 269
3 278 267 286
3 272 286 267
3 120 287 279
3 167 287 274
3 122 288 123
3 288 279 162
3 274 289 270
3 66 270 289
