ply
format ascii 1.0
element vertex 290
property float x
property float y
property float z
property float u
property float v
element face 317
property list uchar int vertex_indices
end_header
44.9644 -386.627 0 147.636 8.36396
35.0938 -377.979 0 139.979 19.0208
31.9062 -364.165 0 140 33.201
32.4332 -350.206 0 143.678 46.6777
43.5739 -344.204 0 155.887 50
51.3249 -354.956 0 161 37.7695
57.2164 -353.79 0 167 37.5736
61.4295 -340.991 0 174 49.0883
64.1425 -327.394 0 179.719 61.7193
76.8837 -329.278 0 191.704 57
80.8454 -318.472 0 198 66.6324
82.7995 -304.747 0 203 79.5613
74.3623 -298.274 0 196.239 87.7609
62.353 -291.796 0 186 96.7624
50.6388 -285.106 0 176.097 105.903
39.5337 -277.333 0 167.026 115.974
41.5261 -264.729 0 171.803 127.803
39.6369 -255.652 0 172 137.064
42.8023 -242.672 0 177.995 148.995
46.9866 -229.312 0 185.066 161.066
55.5059 -218.317 0 195.844 169.844
60.2567 -204.967 0 203.622 181.622
53.8829 -200.336 0 199.605 187
40.1414 -206.74 0 186.185 183.185
26.271 -213.795 0 172.919 179
11.0021 -221.482 0 159.407 175.407
-5.22845 -227.885 0 145.818 174
-19.1198 -239.959 0 134 166.718
-24.2288 -257.186 0 130.265 153.265
-29.603 -273.928 0 126 140.032
-35.7441 -290.411 0 121 127.103
-40.9358 -306.997 0 116.83 113.83
-46.7705 -322.079 0 111 101.245
-52.8703 -337.011 0 104.809 88.8092
-60.2489 -351.249 0 97.031 77.031
-65.5422 -364.411 0 90 64.9434
-68.4492 -373.059 0 85.8385 56.8385
-76.9635 -375.883 0 77 55.3289
-75.456 -362.359 0 80.5247 68.4753
-74.0087 -355.731 0 83 74.8438
-87.7948 -353.62 0 69.8678 79.1322
-96.1888 -362.11 0 60.2982 72
-104.853 -369.947 0 50.554 65.554
-107.655 -361.857 0 49 73.9741
-103.427 -349.741 0 55 85.3173
-96.8865 -337.652 0 63.2955 96.2955
-85.292 -330.157 0 75.9327 102
-72.7187 -317.769 0 86 109.276
-69.4426 -300.132 0 88 123.448
-65.9568 -282.94 0 90.4379 137.438
-63.3143 -266.392 0 92 150.963
-60.4536 -249.255 0 94 165.134
-57.8372 -233.561 0 97 178.892
-54.8741 -218.708 0 101 192.235
-50.9759 -204.516 0 106.116 205.116
-45.2944 -191.671 0 113.265 217
-37.6463 -194.156 0 120.43 213.43
-23.1134 -183.727 0 133.087 219.087
-9.16415 -172.809 0 145 225.052
-5.86748 -164.721 0 148.809 232
6.83103 -158.763 0 161.694 235.694
14.6666 -147.512 0 170 244.081
14.415 -132.286 0 171 257.839
14.1224 -116.581 0 172 272.425
16.2793 -101.154 0 175 286.182
10.4106 -88.0708 0 169.921 299.079
4.6049 -75.3395 0 165 312.04
-7.60992 -72.2066 0 153.031 316
-14.4598 -60.1771 0 147 328.484
-22.2287 -49.242 0 140.001 339.999
-31.3478 -38.6623 0 131.516 351.484
-39.8142 -27.8255 0 123.737 363.263
-47.6301 -16.9793 0 116.666 375.334
-57.1551 -6.80573 0 108.181 386.819
-66.5283 4.05538 0 99.6956 398.304
-77.0629 14.2162 0 89.7115 409
-70.8911 20.533 0 96.2175 415
-57.8515 25.1659 0 109.561 419
-55.2628 34.504 0 113 429.49
-60.3814 46.2778 0 109 442.833
-63.3644 59.6228 0 107 457.005
-66.8948 71.6862 0 104 470.762
-77.3914 77.4863 0 92.9758 480.024
-87.0942 83.548 0 82.0762 489.924
-97.4196 87.4329 0 70.298 497.702
-106.366 93.9086 0 60.1059 507.894
-114.431 101.582 0 50.9132 519.087
-122.301 109.504 0 42.5491 529.451
-128.298 119.576 0 36.1849 541.815
-134.329 128.436 0 29 553.839
-140.282 136.814 0 21.7498 565.25
-147.555 146.664 0 13.9716 577.028
-155.197 157.519 0 6.60748 588.393
-159.154 170.841 0 3 601.898
-156.766 180.994 0 5.65576 612
-144.095 175.311 0 18.1705 606
-131.326 181.742 0 29.8989 613.899
-120.933 191.849 0 41.129 623
-110.149 201.43 0 52.4011 632
-98.2483 208.681 0 64.6477 638.648
-88.9841 209.432 0 73.938 638.938
-96.4969 197.975 0 65.8669 627.867
-102.758 185.501 0 59 615.711
-107.368 172.519 0 53.8459 602.846
-112.951 161.016 0 49 589.853
-110.546 154.691 0 53.4191 580
-101.213 149.006 0 64.4886 570.511
-91.9486 143.596 0 75.5491 561
-82.6449 138.126 0 86.5804 551.42
-73.2009 132.11 0 97.4802 541.52
-63.5808 126.5 0 108.537 532
-53.9536 120.873 0 119.572 522.428
-43.6985 117.961 0 131.643 515.357
-31.907 115.878 0 144.593 510.407
-20.1253 109.904 0 156 502.475
-11.9522 99.0774 0 163 490.374
-3.76551 88.6199 0 170.514 478.486
6.15785 79.3759 0 180 467.416
15.6458 69.3087 0 188.191 455.809
24.1622 58.663 0 195.262 443.738
35.0731 52.217 0 206.057 435
44.4814 64.6605 0 216.526 444.526
54.6182 76.7076 0 227.602 454
64.8012 87.9934 0 238.911 462.911
75.304 98.325 0 250.56 471
86.2619 109.291 0 262.174 479.174
98.5308 120.385 0 274.245 486.245
103.859 137.104 0 280 498.862
107.353 155.19 0 284 512.205
110.816 173.221 0 288 525.548
114.919 189.465 0 293 538.477
120.07 205.441 0 298.995 550.995
127.454 222.38 0 306.773 562.773
134.842 239.424 0 314.551 574.551
143.67 256.066 0 323.743 585.743
151.672 272.837 0 332.229 597.229
160.061 288.306 0 341.421 608.421
168.283 301.148 0 351 618.867
177.329 310.817 0 361.382 627
183.521 306.762 0 366.861 622
185.608 296.048 0 367.169 610.831
200.757 299.152 0 380.582 607
214.649 297.473 0 394.339 604
227.504 291.845 0 406.311 596.689
226.446 282.896 0 404.046 588
212.097 279.744 0 389.46 587
197.24 274.523 0 374.874 586
183.744 265.458 0 361.961 583.039
177.976 249.317 0 356 572.431
174.529 231.047 0 352 559.088
171.609 212.676 0 348.527 545.527
167.565 194.6 0 344 532.403
162.912 176.275 0 339 519.474
159.403 157.638 0 335.093 506.093
155.801 139.452 0 331 492.789
155.333 120.993 0 330 479.032
157.745 104.139 0 331 464.446
163.783 92.5515 0 336 452.689
155.12 83.421 0 326.538 444.538
147.129 70.65 0 317.345 433.345
137.675 58.7283 0 306.86 423.86
142.341 52.8815 0 311 418.459
135.385 40.3435 0 303 407.358
128.257 26.1404 0 294.768 395.768
121.534 12.258 0 286.99 383.99
113.9 -1.01064 0 278.505 372.505
106.336 -13.6097 0 270 361.027
98.1415 -26.4915 0 261 349.755
93.2026 -39.935 0 255.998 338
95.9684 -51.5492 0 259 326.483
100.661 -64.2303 0 263 313.141
104.884 -77.2759 0 266 299.384
108.893 -90.2513 0 269 285.626
112.982 -102.193 0 273 272.284
123.562 -106.824 0 284.578 264.422
135.669 -107.018 0 297.331 261
149.01 -102.553 0 311.917 262
159.198 -103.583 0 322 258.155
169.41 -108.465 0 331.188 250
180.472 -101.552 0 344.531 252
193.777 -96.4778 0 359.117 251
207.012 -91.0698 0 373.703 250
220.121 -86.6969 0 387.874 248
217.474 -73.6841 0 391 260.459
211.148 -59.9588 0 391 275.459
204.16 -47.0955 0 390 290.047
197.927 -33.4585 0 390 305.044
190.952 -20.6041 0 389 319.633
184.722 -6.95991 0 389 334.633
177.751 5.88903 0 388 349.217
171.52 19.5335 0 388 364.217
166.724 32.4754 0 389.018 377.982
171.969 32.9892 0 394 376.269
175.105 21.3072 0 392 364.34
182.813 9.24839 0 394 350.169
193.13 -0.00769274 0 399.537 337.463
206.141 -6.36883 0 408.73 326.27
220.105 -9.07999 0 420.304 318
234.007 -9.97018 0 432.579 311.421
247.912 -11.3943 0 444.649 304.351
261.846 -13.5704 0 456.428 296.572
273.407 -20.6649 0 464 285.295
283.306 -30.3056 0 469 272.366
290.942 -42.2474 0 471 258.194
297.822 -54.9783 0 472 243.608
303.688 -67.8565 0 472 229.438
309.698 -79.6005 0 472.64 216.36
316.125 -92.3104 0 473.238 202.238
319.589 -104.544 0 471.297 189.703
326.371 -117.6 0 471.996 174.996
329.596 -131.342 0 469.168 161.168
328.997 -145.238 0 462.804 148.804
322.323 -157.209 0 451.733 140.733
314.05 -168.439 0 439.522 134
305.989 -179.861 0 427.422 127
299.64 -192.126 0 416.52 118.52
296.746 -206.107 0 408.035 107.035
298.441 -219.91 0 403.792 93.7925
303.514 -232.814 0 403 79.9492
310.324 -242.809 0 405 68.0205
309.327 -250.748 0 400.772 61.2279
300.277 -240.124 0 397 74.6653
293.263 -227.294 0 396 89.2529
286.984 -213.674 0 396 104.253
279.966 -200.852 0 395 118.836
273.684 -187.229 0 395 133.837
267.401 -173.605 0 395 148.837
260.383 -160.773 0 394 163.422
254.093 -147.141 0 394 178.422
247.064 -134.339 0 393 193.009
240.741 -120.863 0 393 208.01
229.93 -117.776 0 384.873 215.873
216.623 -125.606 0 370.234 215
203.247 -133.144 0 355.649 214
189.676 -140.439 0 341.063 213
183.395 -150.387 0 332.72 206
169.177 -155.86 0 318.135 205
158.54 -165.55 0 306.439 198.439
153.811 -179.032 0 299.367 186.367
151.431 -191.241 0 294.581 175
158.743 -197.655 0 300.319 167
146.522 -200.702 0 287.862 166.862
145.257 -213.76 0 284 154.29
141.113 -227.143 0 277.134 142.134
136.77 -240.436 0 270 130.09
133.569 -252.305 0 264.235 119.235
130.88 -264.586 0 258.871 107.871
125.578 -276.649 0 251 97.303
120.124 -289.788 0 242.729 85.7291
112.487 -302.016 0 232.536 75.5365
99.5178 -307.315 0 218.708 73.2917
88.8923 -313.099 0 207.052 70.0515
84.7455 -326.456 0 200 57.9727
92.5675 -334.874 0 205.713 48
99.9936 -343.472 0 211 37.9436
98.9891 -347.989 0 209 33.7725
96.315 -358.632 0 203.989 24.0107
91.5914 -368.919 0 197.061 15.061
83.8863 -376.931 0 187.744 9
72.8171 -384.345 0 175.283 4.28345
57.7002 -391.227 0 159 1
57.8629 -372.504 0 163.397 19.2
74.5189 -182.956 0 222.418 199.851
65.312 -255.043 0 197.158 131.895
94.726 -280.462 0 220.087 100.537
-15.277 20.5873 0 151.861 410.94
150.852 -132.159 0 306.586 232.878
243.983 -95.2015 0 406.468 230.06
114.503 -178.81 0 261.32 195.618
36.4975 -172.403 0 188.497 217.457
51.2472 -62.3084 0 212.946 320.627
98.758 -236.668 0 233.86 142.326
280.546 -109.107 0 433.92 201.91
119.187 -205.426 0 260.625 168.349
58.726 -21.6785 0 222.394 359.242
64.1993 -113.823 0 221.899 268.749
-34.8663 75.8676 0 136.779 470.704
300.22 -137.041 0 440.11 168.305
248.956 -50.9298 0 429.173 267.959
83.7663 40.1938 0 251.883 414.403
116.811 89.021 0 288.938 454.209
-1.70072 45.9583 0 167.384 435.514
-8.28043 -12.4854 0 156.203 376.245
102.124 -141.037 0 256.529 235.57
74.6795 -80.6666 0 235.437 299.924
43.7426 -138.078 0 199.546 248.849
271.306 -74.826 0 439.635 236.523
85.1763 8.04299 0 250.681 384.232
90.1813 72.3374 0 261.248 443.175
5.0897 -37.9818 0 168.09 349.187
3 42 41 43
3 38 37 36
3 43 41 44
3 40 46 45
3 40 45 44
3 41 40 44
3 5 3 2
3 1 261 2
3 39 35 34
3 39 38 35
3 39 34 46
3 46 40 39
3 35 38 36
3 33 46 34
3 46 33 47
3 30 49 48
3 50 49 29
3 27 52 51
3 27 53 52
3 28 51 50
3 31 48 47
3 31 30 48
3 28 50 29
3 30 29 49
3 54 56 55
3 54 53 56
3 56 53 27
3 28 27 51
3 56 27 26
3 31 47 32
3 33 32 47
3 0 260 261
3 7 6 256
3 6 5 261
3 264 13 12
3 2 261 5
3 4 3 5
3 9 8 7
3 6 261 258
3 257 256 6
3 256 253 7
3 253 256 255
3 10 9 252
3 10 252 251
3 253 252 9
3 7 253 9
3 257 6 258
3 16 15 14
3 16 14 263
3 263 17 16
3 57 26 25
3 58 25 24
3 14 13 263
3 17 263 18
3 264 11 250
3 11 264 12
3 21 20 271
3 61 60 269
3 263 19 18
3 23 269 24
3 250 11 251
3 19 263 20
3 10 251 11
3 56 26 57
3 22 21 262
3 0 261 1
3 246 245 271
3 23 22 269
3 107 87 86
3 107 86 108
3 86 85 108
3 105 90 89
3 89 88 106
3 107 88 87
3 107 106 88
3 85 84 109
3 76 75 74
3 77 76 74
3 110 109 84
3 85 109 108
3 84 83 110
3 82 111 83
3 82 81 112
3 95 93 92
3 92 91 95
3 91 90 104
3 104 95 91
3 95 94 93
3 103 97 96
3 95 104 96
3 96 104 103
3 102 97 103
3 90 105 104
3 102 98 97
3 99 98 101
3 101 100 99
3 98 102 101
3 89 106 105
3 59 58 60
3 57 25 58
3 289 70 69
3 282 265 72
3 289 282 70
3 60 58 269
3 63 275 64
3 275 63 285
3 67 66 68
3 68 66 289
3 270 65 64
3 173 172 275
3 24 269 58
3 289 274 282
3 73 72 265
3 78 265 281
3 265 78 77
3 81 80 276
3 83 111 110
3 79 78 276
3 82 112 111
3 119 118 281
3 77 74 73
3 276 281 116
3 281 120 119
3 276 78 281
3 276 112 81
3 112 276 113
3 113 276 114
3 114 276 115
3 265 120 281
3 282 71 70
3 275 270 64
3 255 254 253
3 264 250 249
3 248 264 249
3 264 247 246
3 271 245 244
3 271 263 264
3 271 264 246
3 243 242 273
3 273 241 268
3 241 240 239
3 273 242 241
3 268 239 238
3 236 235 266
3 268 266 283
3 241 239 268
3 283 266 174
3 266 176 175
3 177 176 266
3 234 178 266
3 266 178 177
3 283 174 173
3 284 172 171
3 283 285 262
3 266 235 234
3 179 234 233
3 232 231 181
3 180 233 232
3 179 233 180
3 181 180 232
3 182 181 231
3 230 267 231
3 234 179 178
3 284 171 170
3 222 221 218
3 221 219 218
3 219 221 220
3 223 222 217
3 216 224 223
3 226 225 214
3 215 225 224
3 222 218 217
3 216 215 224
3 217 216 223
3 226 214 277
3 277 212 211
3 277 214 213
3 215 214 225
3 277 211 210
3 182 231 267
3 278 286 203
3 227 277 228
3 207 272 208
3 184 278 185
3 184 183 278
3 201 200 278
3 278 199 198
3 226 277 227
3 272 207 206
3 208 272 277
3 206 205 286
3 273 262 21
3 205 204 286
3 267 183 182
3 203 202 278
3 206 286 272
3 273 21 271
3 208 277 209
3 277 210 209
3 169 168 270
3 270 284 169
3 270 168 274
3 163 279 164
3 165 287 166
3 165 164 287
3 287 120 274
3 284 170 169
3 163 162 279
3 160 288 162
3 279 288 122
3 161 160 162
3 158 280 159
3 160 280 288
3 287 164 279
3 158 156 280
3 124 123 288
3 280 160 159
3 288 280 125
3 153 129 128
3 129 152 130
3 128 127 154
3 126 155 127
3 154 127 155
3 130 152 131
3 153 128 154
3 132 131 151
3 150 133 132
3 133 149 134
3 134 148 135
3 153 152 129
3 126 280 155
3 156 155 280
3 158 157 156
3 194 189 188
3 187 195 188
3 194 190 189
3 192 190 193
3 190 192 191
3 193 190 194
3 196 187 186
3 186 185 197
3 197 185 198
3 278 198 185
3 196 195 187
3 194 188 195
3 197 196 186
3 151 150 132
3 149 133 150
3 134 149 148
3 140 137 136
3 137 139 138
3 147 136 135
3 148 147 135
3 131 152 151
3 147 146 140
3 145 144 142
3 146 145 141
3 139 137 140
3 145 142 141
3 141 140 146
3 143 142 144
3 140 136 147
3 260 259 261
3 199 278 200
3 258 261 259
3 247 264 248
3 13 264 263
3 73 265 77
3 72 71 282
3 174 266 175
3 237 236 266
3 272 230 229
3 204 203 286
3 238 237 268
3 266 268 237
3 22 262 269
3 283 262 268
3 168 167 274
3 66 65 270
3 271 244 243
3 20 263 271
3 230 272 267
3 228 272 229
3 262 273 268
3 243 273 271
3 287 167 166
3 282 120 265
3 62 285 63
3 62 61 285
3 79 276 80
3 116 115 276
3 277 272 228
3 213 212 277
3 267 278 183
3 202 201 278
3 122 121 279
3 279 121 120
3 126 125 280
3 288 125 124
3 118 117 281
3 281 117 116
3 289 69 68
3 120 282 274
3 173 275 283
3 283 275 285
3 270 275 284
3 172 284 275
3 61 269 285
3 262 285 269
3 278 267 286
3 272 286 267
3 120 287 279
3 167 287 274
3 122 288 123
3 288 279 162
3 274 289 270
3 66 270 289
