ply
format ascii 1.0
element vertex 290
property float x
property float y
property float z
property float u
property float v
element face 317
property list uchar int vertex_indices
end_header
67.6063 -393.51 0 147.636 8.36396
57.3585 -385.313 0 139.979 19.0208
53.5552 -371.656 0 140 33.201
53.4559 -357.688 0 143.678 46.6777
64.3161 -351.191 0 155.887 50
72.5416 -361.586 0 161 37.7695
78.3751 -360.157 0 167 37.5736
82.0103 -347.182 0 174 49.0883
84.1114 -333.477 0 179.719 61.7193
96.9243 -334.789 0 191.704 57
100.398 -323.816 0 198 66.6324
101.737 -310.017 0 203 79.5613
93.0193 -303.925 0 196.239 87.7609
80.734 -297.987 0 186 96.7624
68.7345 -291.823 0 176.097 105.903
57.2936 -284.553 0 167.026 115.974
58.7215 -271.873 0 171.803 127.803
56.4295 -262.889 0 172 137.064
59.0134 -249.779 0 177.995 148.995
62.6001 -236.242 0 185.066 161.066
70.6281 -224.868 0 195.844 169.844
74.8225 -211.253 0 203.622 181.622
68.4456 -206.614 0 199.605 187
55.2233 -213.388 0 186.185 183.185
41.8815 -220.86 0 172.919 179
27.3533 -228.89 0 159.407 175.407
11.8808 -235.671 0 145.818 174
-0.953352 -247.98 0 134 166.718
-4.68188 -264.971 0 130.265 153.265
-8.72586 -281.545 0 126 140.032
-13.5325 -297.909 0 121 127.103
-17.3698 -314.333 0 116.83 113.83
-22.0409 -329.454 0 111 101.245
-26.9795 -344.459 0 104.809 88.8092
-33.2635 -358.915 0 97.031 77.031
-37.6964 -372.36 0 90 64.9434
-40.0509 -381.173 0 85.8385 56.8385
-48.37 -384.528 0 77 55.3289
-47.718 -370.935 0 80.5247 68.4753
-46.6862 -364.223 0 83 74.8438
-60.5583 -362.961 0 69.8678 79.1322
-68.3998 -371.964 0 60.2982 72
-76.5525 -380.332 0 50.554 65.554
-79.8595 -372.434 0 49 73.9741
-76.4036 -360.076 0 55 85.3173
-70.6369 -347.597 0 63.2955 96.2955
-59.533 -339.379 0 75.9327 102
-48.2042 -326.741 0 86 109.276
-46.4094 -309.378 0 88 123.448
-44.3156 -292.404 0 90.4379 137.438
-42.9988 -276.118 0 92 150.963
-41.464 -259.217 0 94 165.134
-39.9099 -243.589 0 97 178.892
-37.8597 -228.681 0 101 192.235
-34.7532 -214.374 0 106.116 205.116
-29.7114 -201.284 0 113.265 217
-21.9763 -203.413 0 120.43 213.43
-8.3605 -192.647 0 133.087 219.087
4.63568 -181.449 0 145 225.052
7.52934 -173.238 0 148.809 232
19.9074 -166.754 0 161.694 235.694
27.2281 -155.11 0 170 244.081
26.5028 -139.74 0 171 257.839
25.8562 -123.908 0 172 272.425
27.8657 -108.305 0 175 286.182
21.8977 -95.2885 0 169.921 299.079
15.95 -82.6422 0 165 312.04
3.70186 -79.6676 0 153.031 316
-3.29308 -67.7299 0 147 328.484
-11.1873 -56.8755 0 140.001 339.999
-20.4084 -46.42 0 131.516 351.484
-28.9739 -35.6796 0 123.737 363.263
-36.8932 -24.9424 0 116.666 375.334
-46.5501 -14.8067 0 108.181 386.819
-55.9457 -3.91822 0 99.6956 398.304
-66.47 6.25621 0 89.7115 409
-60.2924 12.5664 0 96.2175 415
-47.2566 17.1879 0 109.561 419
-44.6624 26.4486 0 113 429.49
-49.7145 38.2291 0 109 442.833
-52.5456 51.674 0 107 457.005
-55.7363 63.7896 0 104 470.762
-65.6771 69.6074 0 92.9758 480.024
-74.5109 75.5556 0 82.0762 489.924
-83.9883 79.4087 0 70.298 497.702
-91.9137 85.835 0 60.1059 507.894
-98.8612 93.4742 0 50.9132 519.087
-105.809 101.585 0 42.5491 529.451
-110.716 111.762 0 36.1849 541.815
-115.388 120.63 0 29 553.839
-119.906 129.078 0 21.7498 565.25
-125.84 139.376 0 13.9716 577.028
-132.342 150.904 0 6.60748 588.393
-135.009 164.54 0 3 601.898
-131.673 174.424 0 5.65576 612
-119.588 167.577 0 18.1705 606
-105.567 172.52 0 29.8989 613.899
-94.3737 181.644 0 41.129 623
-82.7082 190.122 0 52.4011 632
-70.1518 196.165 0 64.6477 638.648
-60.859 196 0 73.938 638.938
-69.4643 185.339 0 65.8669 627.867
-76.9274 173.545 0 59 615.711
-82.8321 161.104 0 53.8459 602.846
-90.0627 150.542 0 49 589.853
-89.2309 144.722 0 53.4191 580
-81.3024 139.024 0 64.4886 570.511
-73.4107 133.724 0 75.5491 561
-65.4187 128.408 0 86.5804 551.42
-57.2009 122.545 0 97.4802 541.52
-48.7387 117.132 0 108.537 532
-40.2371 111.774 0 119.572 522.428
-31.0239 109.213 0 131.643 515.357
-19.8755 107.239 0 144.593 510.407
-8.47995 101.2 0 156 502.475
-0.693186 90.4236 0 163 490.374
7.04118 80.2035 0 170.514 478.486
16.6121 71.2197 0 180 467.416
25.9727 61.3532 0 188.191 455.809
34.4292 50.9843 0 195.262 443.738
45.0237 45.0586 0 206.057 435
54.0107 57.7923 0 216.526 444.526
63.7786 70.1055 0 227.602 454
73.5595 81.6762 0 238.911 462.911
83.6467 92.3598 0 250.56 471
94.2098 103.765 0 262.174 479.174
106.148 115.45 0 274.245 486.245
110.947 132.622 0 280 498.862
113.859 151.21 0 284 512.205
116.719 169.745 0 288 525.548
120.197 186.396 0 293 538.477
124.725 202.836 0 298.995 550.995
131.508 220.488 0 306.773 562.773
138.28 238.26 0 314.551 574.551
146.487 255.712 0 323.743 585.743
153.827 273.253 0 332.229 597.229
161.518 289.428 0 341.421 608.421
169.034 302.825 0 351 618.867
177.489 313.023 0 361.382 627
183.917 309.35 0 366.861 622
186.662 298.803 0 367.169 610.831
201.943 303.26 0 380.582 607
215.867 302.374 0 394.339 604
229.039 297.535 0 406.311 596.689
228.524 288.535 0 404.046 588
214.382 284.504 0 389.46 587
199.705 278.191 0 374.874 586
186.447 267.938 0 361.961 583.039
181.256 251.039 0 356 572.431
178.492 232.172 0 352 559.088
176.236 213.24 0 348.527 545.527
172.823 194.548 0 344 532.403
168.775 175.545 0 339 519.474
165.868 156.286 0 335.093 506.093
162.851 137.504 0 331 492.789
162.954 118.561 0 330 479.032
165.975 101.481 0 331 464.446
172.428 90.0677 0 336 452.689
164.102 80.5859 0 326.538 444.538
156.531 67.3724 0 317.345 433.345
147.405 54.8822 0 306.86 423.86
152.21 49.0264 0 311 418.459
145.564 36.1896 0 303 407.358
138.719 21.5135 0 294.768 395.768
132.217 7.24071 0 286.99 383.99
124.741 -6.35807 0 278.505 372.505
117.324 -19.1795 0 270 361.027
109.187 -32.2971 0 261 349.755
104.15 -45.8571 0 255.998 338
106.829 -57.3098 0 259 326.483
111.603 -69.8192 0 263 313.141
115.968 -82.7132 0 266 299.384
120.081 -95.4479 0 269 285.626
124.092 -106.938 0 273 272.284
134.245 -110.937 0 284.578 264.422
146.036 -110.627 0 297.331 261
159.093 -105.728 0 311.917 262
169.118 -106.408 0 322 258.155
178.966 -110.885 0 331.188 250
188.669 -103.494 0 344.531 252
200.497 -97.8237 0 359.117 251
212.221 -91.7801 0 373.703 250
224.057 -86.7214 0 387.874 248
220.069 -73.9145 0 391 260.459
212.725 -60.6209 0 391 275.459
204.902 -48.2253 0 390 290.047
197.831 -35.0034 0 390 305.044
190.07 -22.6078 0 389 319.633
183.003 -9.37759 0 389 334.633
175.246 3.01275 0 388 349.217
168.177 16.2428 0 388 364.217
162.586 28.8613 0 389.018 377.982
167.789 29.7004 0 394 376.269
171.646 18.2361 0 392 364.34
180.089 6.68061 0 394 350.169
190.962 -1.91582 0 399.537 337.463
204.343 -7.45536 0 408.73 326.27
218.449 -9.29265 0 420.304 318
232.372 -9.31963 0 432.579 311.421
246.328 -9.87782 0 444.649 304.351
260.362 -11.1796 0 456.428 296.572
272.331 -17.535 0 464 285.295
282.776 -26.5333 0 469 272.366
291.012 -37.9692 0 471 258.194
298.547 -50.2298 0 472 243.608
305.208 -62.6955 0 472 229.438
312.057 -74.0123 0 472.64 216.36
319.403 -86.2663 0 473.238 202.238
323.683 -98.2404 0 471.297 189.703
331.304 -110.822 0 471.996 174.996
335.419 -124.322 0 469.168 161.168
335.728 -138.228 0 462.804 148.804
329.85 -150.608 0 451.733 140.733
322.328 -162.354 0 439.522 134
315.03 -174.277 0 427.422 127
309.497 -186.93 0 416.52 118.52
307.522 -201.07 0 408.035 107.035
310.115 -214.733 0 403.792 93.7925
316.02 -227.278 0 403 79.9492
323.469 -236.807 0 405 68.0205
322.993 -244.794 0 400.772 61.2279
313.268 -234.784 0 397 74.6653
305.431 -222.44 0 396 89.2529
298.275 -209.259 0 396 104.253
290.434 -196.923 0 395 118.836
283.276 -183.74 0 395 133.837
276.116 -170.554 0 395 148.837
268.278 -158.205 0 394 163.422
261.116 -145.007 0 394 178.422
253.314 -132.681 0 393 193.009
246.286 -119.62 0 393 208.01
235.898 -117.2 0 384.873 215.873
224.198 -125.76 0 370.234 215
212.337 -133.979 0 355.649 214
200.297 -141.906 0 341.063 213
194.976 -152.063 0 332.72 206
181.151 -158.12 0 318.135 205
171.024 -168.14 0 306.439 198.439
166.954 -181.647 0 299.367 186.367
165.131 -193.86 0 294.581 175
172.73 -199.914 0 300.319 167
160.667 -203.459 0 287.862 166.862
160.034 -216.446 0 284 154.29
156.512 -229.941 0 277.134 142.134
152.779 -243.381 0 270 130.09
150.114 -255.371 0 264.235 119.235
147.976 -267.754 0 258.871 107.871
143.218 -280.038 0 251 97.303
138.356 -293.407 0 242.729 85.7291
131.273 -305.963 0 232.536 75.5365
118.553 -311.836 0 218.708 73.2917
108.197 -318.088 0 207.052 70.0515
104.652 -331.617 0 200 57.9727
112.843 -339.676 0 205.713 48
120.647 -347.932 0 211 37.9436
119.846 -352.49 0 209 33.7725
117.651 -363.242 0 203.989 24.0107
113.393 -373.73 0 197.061 15.061
106.055 -382.08 0 187.744 9
95.329 -389.982 0 175.283 4.28345
80.5353 -397.534 0 159 1
79.8595 -378.823 0 163.397 19.2
88.1436 -188.559 0 222.418 199.851
82.0518 -261.135 0 197.158 131.895
112.567 -285.224 0 220.087 100.537
-4.72069 12.6157 0 151.861 410.94
161.859 -135.257 0 306.586 232.878
247.884 -93.7926 0 406.468 230.06
127.696 -183.027 0 261.32 195.618
49.9954 -179.246 0 188.497 217.457
62.31 -68.8077 0 212.946 320.627
114.642 -241.298 0 233.86 142.326
285.025 -105.33 0 433.92 201.91
133.635 -209.241 0 260.625 168.349
69.612 -28.1871 0 222.394 359.242
75.8562 -119.907 0 221.899 268.749
-23.7945 67.4034 0 136.779 470.704
306.478 -131.925 0 440.11 168.305
249.836 -49.2729 0 429.173 267.959
93.9134 34.4254 0 251.883 414.403
125.629 84.7627 0 288.938 454.209
8.87849 37.7977 0 167.384 435.514
2.49136 -20.1638 0 156.203 376.245
114.077 -145.839 0 256.529 235.57
85.8469 -86.6283 0 235.437 299.924
55.9291 -144.722 0 199.546 248.849
273.279 -71.7181 0 439.635 236.523
95.8468 2.12727 0 250.681 384.232
99.513 66.9624 0 261.248 443.175
16.0155 -45.3236 0 168.09 349.187
3 42 41 43
3 38 37 36
3 43 41 44
3 40 46 45
3 40 45 44
3 41 40 44
3 5 3 2
3 1 261 2
3 39 35 34
3 39 38 35
3 39 34 46
3 46 40 39
3 35 38 36
3 33 46 34
3 46 33 47
3 30 49 48
3 50 49 29
3 27 52 51
3 27 53 52
3 28 51 50
3 31 48 47
3 31 30 48
3 28 50 29
3 30 29 49
3 54 56 55
3 54 53 56
3 56 53 27
3 28 27 51
3 56 27 26
3 31 47 32
3 33 32 47
3 0 260 261
3 7 6 256
3 6 5 261
3 264 13 12
3 2 261 5
3 4 3 5
3 9 8 7
3 6 261 258
3 257 256 6
3 256 253 7
3 253 256 255
3 10 9 252
3 10 252 251
3 253 252 9
3 7 253 9
3 257 6 258
3 16 15 14
3 16 14 263
3 263 17 16
3 57 26 25
3 58 25 24
3 14 13 263
3 17 263 18
3 264 11 250
3 11 264 12
3 21 20 271
3 61 60 269
3 263 19 18
3 23 269 24
3 250 11 251
3 19 263 20
3 10 251 11
3 56 26 57
3 22 21 262
3 0 261 1
3 246 245 271
3 23 22 269
3 107 87 86
3 107 86 108
3 86 85 108
3 105 90 89
3 89 88 106
3 107 88 87
3 107 106 88
3 85 84 109
3 76 75 74
3 77 76 74
3 110 109 84
3 85 109 108
3 84 83 110
3 82 111 83
3 82 81 112
3 95 93 92
3 92 91 95
3 91 90 104
3 104 95 91
3 95 94 93
3 103 97 96
3 95 104 96
3 96 104 103
3 102 97 103
3 90 105 104
3 102 98 97
3 99 98 101
3 101 100 99
3 98 102 101
3 89 106 105
3 59 58 60
3 57 25 58
3 289 70 69
3 282 265 72
3 289 282 70
3 60 58 269
3 63 275 64
3 275 63 285
3 67 66 68
3 68 66 289
3 270 65 64
3 173 172 275
3 24 269 58
3 289 274 282
3 73 72 265
3 78 265 281
3 265 78 77
3 81 80 276
3 83 111 110
3 79 78 276
3 82 112 111
3 119 118 281
3 77 74 73
3 276 281 116
3 281 120 119
3 276 78 281
3 276 112 81
3 112 276 113
3 113 276 114
3 114 276 115
3 265 120 281
3 282 71 70
3 275 270 64
3 255 254 253
3 264 250 249
3 248 264 249
3 264 247 246
3 271 245 244
3 271 263 264
3 271 264 246
3 243 242 273
3 273 241 268
3 241 240 239
3 273 242 241
3 268 239 238
3 236 235 266
3 268 266 283
3 241 239 268
3 283 266 174
3 266 176 175
3 177 176 266
3 234 178 266
3 266 178 177
3 283 174 173
3 284 172 171
3 283 285 262
3 266 235 234
3 179 234 233
3 232 231 181
3 180 233 232
3 179 233 180
3 181 180 232
3 182 181 231
3 230 267 231
3 234 179 178
3 284 171 170
3 222 221 218
3 221 219 218
3 219 221 220
3 223 222 217
3 216 224 223
3 226 225 214
3 215 225 224
3 222 218 217
3 216 215 224
3 217 216 223
3 226 214 277
3 277 212 211
3 277 214 213
3 215 214 225
3 277 211 210
3 182 231 267
3 278 286 203
3 227 277 228
3 207 272 208
3 184 278 185
3 184 183 278
3 201 200 278
3 278 199 198
3 226 277 227
3 272 207 206
3 208 272 277
3 206 205 286
3 273 262 21
3 205 204 286
3 267 183 182
3 203 202 278
3 206 286 272
3 273 21 271
3 208 277 209
3 277 210 209
3 169 168 270
3 270 284 169
3 270 168 274
3 163 279 164
3 165 287 166
3 165 164 287
3 287 120 274
3 284 170 169
3 163 162 279
3 160 288 162
3 279 288 122
3 161 160 162
3 158 280 159
3 160 280 288
3 287 164 279
3 158 156 280
3 124 123 288
3 280 160 159
3 288 280 125
3 153 129 128
3 129 152 130
3 128 127 154
3 126 155 127
3 154 127 155
3 130 152 131
3 153 128 154
3 132 131 151
3 150 133 132
3 133 149 134
3 134 148 135
3 153 152 129
3 126 280 155
3 156 155 280
3 158 157 156
3 194 189 188
3 187 195 188
3 194 190 189
3 192 190 193
3 190 192 191
3 193 190 194
3 196 187 186
3 186 185 197
3 197 185 198
3 278 198 185
3 196 195 187
3 194 188 195
3 197 196 186
3 151 150 132
3 149 133 150
3 134 149 148
3 140 137 136
3 137 139 138
3 147 136 135
3 148 147 135
3 131 152 151
3 147 146 140
3 145 144 142
3 146 145 141
3 139 137 140
3 145 142 141
3 141 140 146
3 143 142 144
3 140 136 147
3 260 259 261
3 199 278 200
3 258 261 259
3 247 264 248
3 13 264 263
3 73 265 77
3 72 71 282
3 174 266 175
3 237 236 266
3 272 230 229
3 204 203 286
3 238 237 268
3 266 268 237
3 22 262 269
3 283 262 268
3 168 167 274
3 66 65 270
3 271 244 243
3 20 263 271
3 230 272 267
3 228 272 229
3 262 273 268
3 243 273 271
3 287 167 166
3 282 120 265
3 62 285 63
3 62 61 285
3 79 276 80
3 116 115 276
3 277 272 228
3 213 212 277
3 267 278 183
3 202 201 278
3 122 121 279
3 279 121 120
3 126 125 280
3 288 125 124
3 118 117 281
3 281 117 116
3 289 69 68
3 120 282 274
3 173 275 283
3 283 275 285
3 270 275 284
3 172 284 275
3 61 269 285
3 262 285 269
3 278 267 286
3 272 286 267
3 120 287 279
3 167 287 274
3 122 288 123
3 288 279 162
3 274 289 270
3 66 270 289
