ply
format ascii 1.0
element vertex 290
property float x
property float y
property float z
property float u
property float v
element face 317
property list uchar int vertex_indices
end_header
6.13512 -350.8 0 147.636 8.36396
-2.68163 -341.08 0 139.979 19.0208
-4.26808 -326.991 0 140 33.201
-2.14703 -313.184 0 143.678 46.6777
9.60699 -308.496 0 155.887 50
16.0769 -320.065 0 161 37.7695
22.063 -319.58 0 167 37.5736
27.7128 -307.347 0 174 49.0883
31.9636 -294.15 0 179.719 61.7193
44.4056 -297.48 0 191.704 57
49.5767 -287.197 0 198 66.6324
53.0868 -273.786 0 203 79.5613
45.4461 -266.394 0 196.239 87.7609
34.2594 -258.593 0 186 96.7624
23.39 -250.617 0 176.097 105.903
13.2441 -241.628 0 167.026 115.974
16.6609 -229.336 0 171.803 127.803
15.8185 -220.105 0 172 137.064
20.4409 -207.573 0 177.995 148.995
26.1192 -194.78 0 185.066 161.066
35.8454 -184.838 0 195.844 169.844
42.195 -172.187 0 203.622 181.622
37.1237 -167.065 0 199.605 187
23.6246 -172.128 0 186.185 183.185
10.1283 -177.687 0 172.919 179
-4.13682 -183.164 0 159.407 175.407
-18.9169 -186.858 0 145.818 174
-31.5974 -196.312 0 134 166.718
-35.7694 -211.382 0 130.265 153.265
-40.3504 -226.137 0 126 140.032
-45.6802 -240.619 0 121 127.103
-50.1101 -255.326 0 116.83 113.83
-55.7426 -269.055 0 111 101.245
-61.6899 -282.648 0 104.809 88.8092
-69.0921 -295.618 0 97.031 77.031
-75.1413 -308.321 0 90 64.9434
-78.6033 -316.754 0 85.8385 56.8385
-87.2834 -319.011 0 77 55.3289
-84.8893 -305.613 0 80.5247 68.4753
-82.9834 -299.074 0 83 74.8438
-96.5034 -295.979 0 69.8678 79.1322
-105.435 -303.898 0 60.2982 72
-114.596 -311.149 0 50.554 65.554
-116.86 -302.891 0 49 73.9741
-111.844 -291.079 0 55 85.3173
-104.517 -279.441 0 63.2955 96.2955
-92.4285 -272.702 0 75.9327 102
-81.3377 -263.095 0 86 109.276
-78.9831 -247.444 0 88 123.448
-76.2803 -232.078 0 90.4379 137.438
-74.4272 -217.274 0 92 150.963
-72.2388 -201.836 0 94 165.134
-69.5952 -187.202 0 97 178.892
-66.2321 -173.127 0 101 192.235
-61.8113 -159.59 0 106.116 205.116
-55.4496 -147.179 0 113.265 217
-48.0193 -150.186 0 120.43 213.43
-34.5626 -142.33 0 133.087 219.087
-21.7743 -134.102 0 145 225.052
-18.2478 -126.594 0 148.809 232
-5.45599 -121.749 0 161.694 235.694
2.62853 -111.956 0 170 244.081
3.0225 -97.4782 0 171 257.839
3.40833 -82.3469 0 172 272.425
6.04776 -67.8172 0 175 286.182
0.591906 -54.8757 0 169.921 299.079
-4.77817 -42.055 0 165 312.04
-16.88 -38.5197 0 153.031 316
-23.333 -26.2652 0 147 328.484
-30.7331 -15.0428 0 140.001 339.999
-39.5628 -4.00802 0 131.516 351.484
-47.7111 7.31486 0 123.737 363.263
-55.1853 18.8144 0 116.666 375.334
-64.2038 29.7127 0 108.181 386.819
-73.1182 40.916 0 99.6956 398.304
-83.3739 51.3547 0 89.7115 409
-77.0295 57.513 0 96.2175 415
-63.8278 61.8286 0 109.561 419
-60.7961 71.8379 0 113 429.49
-65.2967 84.5137 0 109 442.833
-67.7287 98.3531 0 107 457.005
-70.9232 111.392 0 104 470.762
-81.6021 119.112 0 92.9758 480.024
-91.8156 127.253 0 82.0762 489.924
-102.796 133.256 0 70.298 497.702
-112.252 141.746 0 60.1059 507.894
-120.747 151.324 0 50.9132 519.087
-128.736 160.597 0 42.5491 529.451
-134.758 171.927 0 36.1849 541.815
-141.202 182.482 0 29 553.839
-147.646 192.475 0 21.7498 565.25
-155.004 203.39 0 13.9716 577.028
-162.362 214.575 0 6.60748 588.393
-166.005 228.026 0 3 601.898
-163.383 238.129 0 5.65576 612
-150.844 232.166 0 18.1705 606
-138.463 239.197 0 29.8989 613.899
-127.519 248.656 0 41.129 623
-116.363 257.799 0 52.4011 632
-104.192 264.587 0 64.6477 638.648
-94.9061 264.982 0 73.938 638.938
-102.852 253.821 0 65.8669 627.867
-109.585 241.592 0 59 615.711
-114.643 228.732 0 53.8459 602.846
-120.028 216.548 0 49 589.853
-116.731 208.389 0 53.4191 580
-106.64 200.637 0 64.4886 570.511
-96.5948 193.014 0 75.5491 561
-86.5446 185.333 0 86.5804 551.42
-76.4933 177.223 0 97.4802 541.52
-66.2686 169.511 0 108.537 532
-56.0507 161.774 0 119.572 522.428
-44.9601 156.653 0 131.643 515.357
-32.5987 153.019 0 144.593 510.407
-21.0757 145.935 0 156 502.475
-13.6227 134.398 0 163 490.374
-5.89002 123.207 0 170.514 478.486
3.75044 113.018 0 180 467.416
12.5149 102.127 0 188.191 455.809
20.2388 90.7381 0 195.262 443.738
31.0433 83.1546 0 206.057 435
40.9369 94.0473 0 216.526 444.526
51.5015 104.737 0 227.602 454
62.2068 114.803 0 238.911 462.911
73.2418 124.026 0 250.56 471
84.4712 133.575 0 262.174 479.174
96.5791 142.555 0 274.245 486.245
102.017 157.045 0 280 498.862
105.661 172.546 0 284 512.205
109.282 188.025 0 288 525.548
113.705 202.511 0 293 538.477
119.15 216.67 0 298.995 550.995
126.624 230.879 0 306.773 562.773
134.095 245.138 0 314.551 574.551
142.993 258.927 0 323.743 585.743
151.107 272.929 0 332.229 597.229
159.745 286.219 0 341.421 608.421
168.483 297.967 0 351 618.867
178.072 307.055 0 361.382 627
184.002 302.61 0 366.861 622
185.394 291.638 0 367.169 610.831
199.808 291.214 0 380.582 607
213.692 289.159 0 394.339 604
226.251 282.904 0 406.311 596.689
224.746 274.037 0 404.046 588
210.281 271.701 0 389.46 587
195.534 268.452 0 374.874 586
182.304 262.455 0 361.961 583.039
176.537 249.244 0 356 572.431
172.95 233.613 0 352 559.088
169.885 217.835 0 348.527 545.527
165.716 202.412 0 344 532.403
160.993 186.982 0 339 519.474
157.387 171.184 0 335.093 506.093
153.637 155.626 0 331 492.789
152.996 139.743 0 330 479.032
154.804 124.1 0 331 464.446
160.432 112.475 0 336 452.689
151.439 103.736 0 326.538 444.538
142.906 91.6632 0 317.345 433.345
132.946 80.8952 0 306.86 423.86
137.355 75.3101 0 311 418.459
129.908 63.4584 0 303 407.358
122.212 50.5648 0 294.768 395.768
114.942 37.7282 0 286.99 383.99
106.868 25.3414 0 278.505 372.505
98.8317 13.2738 0 270 361.027
90.191 1.20008 0 261 349.755
85.1542 -11.3247 0 255.998 338
88.0294 -22.8173 0 259 326.483
92.3994 -35.8187 0 263 313.141
96.0298 -49.2391 0 266 299.384
99.5516 -62.6103 0 269 285.626
103.647 -75.2081 0 273 272.284
114.837 -81.4058 0 284.578 264.422
127.372 -83.2214 0 297.331 261
141.484 -80.5328 0 311.917 262
151.701 -83.0482 0 322 258.155
161.41 -89.675 0 331.188 250
173.71 -85.2555 0 344.531 252
187.712 -83.3721 0 359.117 251
201.712 -81.3468 0 373.703 250
215.501 -80.3573 0 387.874 248
215.957 -67.2933 0 391 260.459
213.026 -52.5031 0 391 275.459
209.256 -38.3591 0 390 290.047
206.411 -23.6357 0 390 305.044
202.66 -9.49983 0 389 319.633
199.82 5.22818 0 389 334.633
196.071 19.3582 0 388 349.217
193.232 34.0875 0 388 364.217
191.621 47.795 0 389.018 377.982
196.839 47.0585 0 394 376.269
197.135 34.9661 0 392 364.34
201.783 21.4299 0 394 350.169
209.629 10.0039 0 399.537 337.463
220.775 0.756696 0 408.73 326.27
233.708 -5.16794 0 420.304 318
247.005 -9.30155 0 432.579 311.421
260.187 -13.9555 0 444.649 304.351
273.22 -19.3526 0 456.428 296.572
282.787 -28.9769 0 464 285.295
290.135 -40.6965 0 469 272.366
294.732 -54.1591 0 471 258.194
298.423 -68.21 0 472 243.608
301.114 -82.1042 0 472 229.438
304.261 -94.8606 0 472.64 216.36
307.58 -108.656 0 473.238 202.238
308.089 -121.34 0 471.297 189.703
311.608 -135.63 0 471.996 174.996
311.5 -149.743 0 469.168 161.168
307.64 -163.104 0 462.804 148.804
298.332 -173.16 0 451.733 140.733
287.646 -182.121 0 439.522 134
277.123 -191.321 0 427.422 127
268.061 -201.744 0 416.52 118.52
261.95 -214.647 0 408.035 107.035
260.343 -228.461 0 403.792 93.7925
262.231 -242.198 0 403 79.9492
266.491 -253.517 0 405 68.0205
263.65 -260.997 0 400.772 61.2279
257.361 -248.538 0 397 74.6653
253.57 -234.416 0 396 89.2529
250.68 -219.7 0 396 104.253
246.883 -205.584 0 395 118.836
243.991 -190.865 0 395 133.837
241.099 -176.146 0 395 148.837
237.306 -162.025 0 394 163.422
234.415 -147.3 0 394 178.422
230.633 -133.191 0 393 193.009
227.769 -118.53 0 393 208.01
218.375 -112.667 0 384.873 215.873
204.329 -116.755 0 370.234 215
190.305 -120.791 0 355.649 214
176.237 -124.719 0 341.063 213
168.911 -133.129 0 332.72 206
154.41 -136.212 0 318.135 205
143.211 -144.236 0 306.439 198.439
137.312 -157.006 0 299.367 186.367
133.712 -168.823 0 294.581 175
140.283 -176.082 0 300.319 167
127.869 -177.644 0 287.862 166.862
125.317 -190.502 0 284 154.29
119.785 -203.323 0 277.134 142.134
114.012 -216.058 0 270 130.09
109.493 -227.486 0 264.235 119.235
105.431 -239.379 0 258.871 107.871
98.7914 -250.761 0 251 97.303
91.8724 -263.19 0 242.729 85.7291
82.8898 -274.464 0 232.536 75.5365
69.4013 -278.247 0 218.708 73.2917
58.1853 -282.779 0 207.052 70.0515
52.5386 -295.575 0 200 57.9727
59.3459 -304.833 0 205.713 48
65.7396 -314.224 0 211 37.9436
64.225 -318.597 0 209 33.7725
60.351 -328.864 0 203.989 24.0107
54.4812 -338.542 0 197.061 15.061
45.9103 -345.62 0 187.744 9
34.066 -351.719 0 175.283 4.28345
18.2611 -356.826 0 159 1
20.5643 -338.245 0 163.397 19.2
58.8665 -151.939 0 222.418 199.851
41.3964 -222.423 0 197.158 131.895
67.7084 -251.021 0 220.087 100.537
-21.3674 55.4084 0 151.861 410.94
139.491 -110.096 0 306.586 232.878
236.827 -94.3137 0 406.468 230.06
98.4043 -152.114 0 261.32 195.618
22.8589 -137.701 0 188.497 217.457
42.5714 -31.1854 0 212.946 320.627
76.7074 -207.963 0 233.86 142.326
269.067 -116.561 0 433.92 201.91
100.458 -179.18 0 260.625 168.349
51.0623 8.33287 0 222.394 359.242
53.5131 -82.8118 0 221.899 268.749
-38.4884 113.152 0 136.779 470.704
281.611 -148.347 0 440.11 168.305
251.895 -52.6239 0 429.173 267.959
78.3914 66.7252 0 251.883 414.403
113.366 111.05 0 288.938 454.209
-6.75374 80.3512 0 167.384 435.514
-15.6855 21.462 0 156.203 376.245
89.857 -113.037 0 256.529 235.57
65.5789 -50.6605 0 235.437 299.924
32.0032 -104.844 0 199.546 248.849
267.976 -81.3026 0 439.635 236.523
78.5168 35.642 0 250.681 384.232
86.2122 97.1224 0 261.248 443.175
-3.01032 -4.80309 0 168.09 349.187
3 42 41 43
3 38 37 36
3 43 41 44
3 40 46 45
3 40 45 44
3 41 40 44
3 5 3 2
3 1 261 2
3 39 35 34
3 39 38 35
3 39 34 46
3 46 40 39
3 35 38 36
3 33 46 34
3 46 33 47
3 30 49 48
3 50 49 29
3 27 52 51
3 27 53 52
3 28 51 50
3 31 48 47
3 31 30 48
3 28 50 29
3 30 29 49
3 54 56 55
3 54 53 56
3 56 53 27
3 28 27 51
3 56 27 26
3 31 47 32
3 33 32 47
3 0 260 261
3 7 6 256
3 6 5 261
3 264 13 12
3 2 261 5
3 4 3 5
3 9 8 7
3 6 261 258
3 257 256 6
3 256 253 7
3 253 256 255
3 10 9 252
3 10 252 251
3 253 252 9
3 7 253 9
3 257 6 258
3 16 15 14
3 16 14 263
3 263 17 16
3 57 26 25
3 58 25 24
3 14 13 263
3 17 263 18
3 264 11 250
3 11 264 12
3 21 20 271
3 61 60 269
3 263 19 18
3 23 269 24
3 250 11 251
3 19 263 20
3 10 251 11
3 56 26 57
3 22 21 262
3 0 261 1
3 246 245 271
3 23 22 269
3 107 87 86
3 107 86 108
3 86 85 108
3 105 90 89
3 89 88 106
3 107 88 87
3 107 106 88
3 85 84 109
3 76 75 74
3 77 76 74
3 110 109 84
3 85 109 108
3 84 83 110
3 82 111 83
3 82 81 112
3 95 93 92
3 92 91 95
3 91 90 104
3 104 95 91
3 95 94 93
3 103 97 96
3 95 104 96
3 96 104 103
3 102 97 103
3 90 105 104
3 102 98 97
3 99 98 101
3 101 100 99
3 98 102 101
3 89 106 105
3 59 58 60
3 57 25 58
3 289 70 69
3 282 265 72
3 289 282 70
3 60 58 269
3 63 275 64
3 275 63 285
3 67 66 68
3 68 66 289
3 270 65 64
3 173 172 275
3 24 269 58
3 289 274 282
3 73 72 265
3 78 265 281
3 265 78 77
3 81 80 276
3 83 111 110
3 79 78 276
3 82 112 111
3 119 118 281
3 77 74 73
3 276 281 116
3 281 120 119
3 276 78 281
3 276 112 81
3 112 276 113
3 113 276 114
3 114 276 115
3 265 120 281
3 282 71 70
3 275 270 64
3 255 254 253
3 264 250 249
3 248 264 249
3 264 247 246
3 271 245 244
3 271 263 264
3 271 264 246
3 243 242 273
3 273 241 268
3 241 240 239
3 273 242 241
3 268 239 238
3 236 235 266
3 268 266 283
3 241 239 268
3 283 266 174
3 266 176 175
3 177 176 266
3 234 178 266
3 266 178 177
3 283 174 173
3 284 172 171
3 283 285 262
3 266 235 234
3 179 234 233
3 232 231 181
3 180 233 232
3 179 233 180
3 181 180 232
3 182 181 231
3 230 267 231
3 234 179 178
3 284 171 170
3 222 221 218
3 221 219 218
3 219 221 220
3 223 222 217
3 216 224 223
3 226 225 214
3 215 225 224
3 222 218 217
3 216 215 224
3 217 216 223
3 226 214 277
3 277 212 211
3 277 214 213
3 215 214 225
3 277 211 210
3 182 231 267
3 278 286 203
3 227 277 228
3 207 272 208
3 184 278 185
3 184 183 278
3 201 200 278
3 278 199 198
3 226 277 227
3 272 207 206
3 208 272 277
3 206 205 286
3 273 262 21
3 205 204 286
3 267 183 182
3 203 202 278
3 206 286 272
3 273 21 271
3 208 277 209
3 277 210 209
3 169 168 270
3 270 284 169
3 270 168 274
3 163 279 164
3 165 287 166
3 165 164 287
3 287 120 274
3 284 170 169
3 163 162 279
3 160 288 162
3 279 288 122
3 161 160 162
3 158 280 159
3 160 280 288
3 287 164 279
3 158 156 280
3 124 123 288
3 280 160 159
3 288 280 125
3 153 129 128
3 129 152 130
3 128 127 154
3 126 155 127
3 154 127 155
3 130 152 131
3 153 128 154
3 132 131 151
3 150 133 132
3 133 149 134
3 134 148 135
3 153 152 129
3 126 280 155
3 156 155 280
3 158 157 156
3 194 189 188
3 187 195 188
3 194 190 189
3 192 190 193
3 190 192 191
3 193 190 194
3 196 187 186
3 186 185 197
3 197 185 198
3 278 198 185
3 196 195 187
3 194 188 195
3 197 196 186
3 151 150 132
3 149 133 150
3 134 149 148
3 140 137 136
3 137 139 138
3 147 136 135
3 148 147 135
3 131 152 151
3 147 146 140
3 145 144 142
3 146 145 141
3 139 137 140
3 145 142 141
3 141 140 146
3 143 142 144
3 140 136 147
3 260 259 261
3 199 278 200
3 258 261 259
3 247 264 248
3 13 264 263
3 73 265 77
3 72 71 282
3 174 266 175
3 237 236 266
3 272 230 229
3 204 203 286
3 238 237 268
3 266 268 237
3 22 262 269
3 283 262 268
3 168 167 274
3 66 65 270
3 271 244 243
3 20 263 271
3 230 272 267
3 228 272 229
3 262 273 268
3 243 273 271
3 287 167 166
3 282 120 265
3 62 285 63
3 62 61 285
3 79 276 80
3 116 115 276
3 277 272 228
3 213 212 277
3 267 278 183
3 202 201 278
3 122 121 279
3 279 121 120
3 126 125 280
3 288 125 124
3 118 117 281
3 281 117 116
3 289 69 68
3 120 282 274
3 173 275 283
3 283 275 285
3 270 275 284
3 172 284 275
3 61 269 285
3 262 285 269
3 278 267 286
3 272 286 267
3 120 287 279
3 167 287 274
3 122 288 123
3 288 279 162
3 274 289 270
3 66 270 289
