ply
format ascii 1.0
element vertex 290
property float x
property float y
property float z
property float u
property float v
element face 317
property list uchar int vertex_indices
end_header
48.3815 -388.817 0 147.636 8.36396
38.4352 -380.257 0 139.979 19.0208
35.1259 -366.471 0 140 33.201
35.5299 -352.508 0 143.678 46.6777
46.6171 -346.408 0 155.887 50
54.4627 -357.092 0 161 37.7695
60.3437 -355.874 0 167 37.5736
64.4438 -343.038 0 174 49.0883
67.0369 -329.418 0 179.719 61.7193
79.7942 -331.189 0 191.704 57
83.6605 -320.349 0 198 66.6324
85.4937 -306.607 0 203 79.5613
76.9999 -300.208 0 196.239 87.7609
64.9339 -293.835 0 186 96.7624
53.1612 -287.248 0 176.097 105.903
41.9883 -279.572 0 167.026 115.974
43.8699 -266.952 0 171.803 127.803
41.901 -257.892 0 172 137.064
44.9524 -244.884 0 177.995 148.995
49.0195 -231.487 0 185.066 161.066
57.4419 -220.417 0 195.844 169.844
62.0727 -207.019 0 203.622 181.622
55.6344 -202.419 0 199.605 187
41.9191 -208.921 0 186.185 183.185
28.0688 -216.087 0 172.919 179
12.8024 -223.92 0 159.407 175.407
-3.44716 -230.501 0 145.818 174
-17.3243 -242.739 0 134 166.718
-22.3831 -260.073 0 130.265 153.265
-27.7032 -276.918 0 126 140.032
-33.7907 -293.508 0 121 127.103
-38.9249 -310.191 0 116.83 113.83
-44.6873 -325.354 0 111 101.245
-50.7125 -340.368 0 104.809 88.8092
-58.0126 -354.693 0 97.031 77.031
-63.2065 -367.898 0 90 64.9434
-66.0462 -376.569 0 85.8385 56.8385
-74.5383 -379.46 0 77 55.3289
-73.1364 -365.924 0 80.5247 68.4753
-71.7418 -359.286 0 83 74.8438
-85.5476 -357.286 0 69.8678 79.1322
-93.8751 -365.841 0 60.2982 72
-102.478 -373.746 0 50.554 65.554
-105.343 -365.677 0 49 73.9741
-101.21 -353.529 0 55 85.3173
-94.7639 -341.39 0 63.2955 96.2955
-83.2293 -333.806 0 75.9327 102
-70.6688 -321.241 0 86 109.276
-67.451 -303.508 0 88 123.448
-64.024 -286.224 0 90.4379 137.438
-61.4352 -269.592 0 92 150.963
-58.6339 -252.371 0 94 165.134
-56.0935 -236.621 0 97 178.892
-53.2145 -221.72 0 101 192.235
-49.3988 -207.485 0 106.116 205.116
-43.7974 -194.601 0 113.265 217
-36.1321 -197.033 0 120.43 213.43
-21.6094 -186.436 0 133.087 219.087
-7.66866 -175.349 0 145 225.052
-4.41238 -167.221 0 148.809 232
8.25821 -161.168 0 161.694 235.694
16.0448 -149.813 0 170 244.081
15.7269 -134.539 0 171 257.839
15.3752 -118.796 0 172 272.425
17.4981 -103.31 0 175 286.182
11.6021 -90.2252 0 169.921 299.079
5.76451 -77.5064 0 165 312.04
-6.45819 -74.4075 0 153.031 316
-13.3399 -62.3977 0 147 328.484
-21.1373 -51.4852 0 140.001 339.999
-30.279 -40.9405 0 131.516 351.484
-38.7695 -30.1385 0 123.737 363.263
-46.6108 -19.3372 0 116.666 375.334
-56.1725 -9.20792 0 108.181 386.819
-65.5727 1.6353 0 99.6956 398.304
-76.1221 11.7812 0 89.7115 409
-69.9596 18.1063 0 96.2175 415
-56.9297 22.7561 0 109.561 419
-54.364 32.0498 0 113 429.49
-59.5117 43.7716 0 109 442.833
-62.5142 57.0945 0 107 457.005
-66.0382 69.1042 0 104 470.762
-76.4842 74.7958 0 92.9758 480.024
-86.0954 80.7328 0 82.0762 489.924
-96.3228 84.4967 0 70.298 497.702
-105.168 90.8562 0 60.1059 507.894
-113.13 98.4214 0 50.9132 519.087
-120.929 106.281 0 42.5491 529.451
-126.849 116.29 0 36.1849 541.815
-132.763 125.058 0 29 553.839
-138.589 133.355 0 21.7498 565.25
-145.766 143.182 0 13.9716 577.028
-153.346 154.071 0 6.60748 588.393
-157.229 167.413 0 3 601.898
-154.783 177.551 0 5.65576 612
-142.145 171.797 0 18.1705 606
-129.263 178.093 0 29.8989 613.899
-118.843 188.17 0 41.129 623
-108.015 197.702 0 52.4011 632
-96.0797 204.896 0 64.6477 638.648
-86.812 205.603 0 73.938 638.938
-94.3793 194.182 0 65.8669 627.867
-100.7 181.738 0 59 615.711
-105.377 168.784 0 53.8459 602.846
-111.09 157.379 0 49 589.853
-108.849 151.188 0 53.4191 580
-99.6593 145.615 0 64.4886 570.511
-90.5371 140.336 0 75.5491 561
-81.369 134.999 0 86.5804 551.42
-72.0465 129.11 0 97.4802 541.52
-62.5432 123.63 0 108.537 532
-53.03 118.139 0 119.572 522.428
-42.8976 115.374 0 131.643 515.357
-31.1869 113.385 0 144.593 510.407
-19.4189 107.47 0 156 502.475
-11.2316 96.6889 0 163 490.374
-3.05065 86.2894 0 170.514 478.486
6.8627 77.1166 0 180 467.416
16.3815 67.1114 0 188.191 455.809
24.9373 56.5285 0 195.262 443.738
35.8302 50.1825 0 206.057 435
45.1756 62.7329 0 216.526 444.526
55.2568 74.8748 0 227.602 454
65.377 86.2491 0 238.911 462.911
75.8158 96.6677 0 250.56 471
86.7235 107.746 0 262.174 479.174
98.9671 119.004 0 274.245 486.245
104.239 135.883 0 280 498.862
107.669 154.153 0 284 512.205
111.066 172.366 0 288 525.548
115.096 188.741 0 293 538.477
120.175 204.855 0 298.995 550.995
127.496 222.004 0 306.773 562.773
134.822 239.262 0 314.551 574.551
143.587 256.128 0 323.743 585.743
151.521 273.115 0 332.229 597.229
159.834 288.764 0 341.421 608.421
167.968 301.712 0 351 618.867
176.937 311.455 0 361.382 627
183.162 307.452 0 366.861 622
185.339 296.766 0 367.169 610.831
200.531 300.176 0 380.582 607
214.428 298.582 0 394.339 604
227.326 293.052 0 406.311 596.689
226.337 284.094 0 404.046 588
212.011 280.826 0 389.46 587
197.165 275.407 0 374.874 586
183.681 266.075 0 361.961 583.039
177.969 249.71 0 356 572.431
174.594 231.244 0 352 559.088
171.744 212.683 0 348.527 545.527
167.766 194.41 0 344 532.403
163.175 175.869 0 339 519.474
159.729 157.024 0 335.093 506.093
156.191 138.643 0 331 492.789
155.787 120.001 0 330 479.032
158.284 103.063 0 331 464.446
164.379 91.4923 0 336 452.689
155.762 82.3108 0 326.538 444.538
147.835 69.4657 0 317.345 433.345
138.437 57.4347 0 306.86 423.86
143.128 51.5733 0 311 418.459
136.225 38.9738 0 303 407.358
129.153 24.6617 0 294.768 395.768
122.48 10.6909 0 286.99 383.99
114.884 -2.65249 0 278.505 372.505
107.358 -15.2986 0 270 361.027
99.1935 -28.2445 0 261 349.755
94.2556 -41.7522 0 255.998 338
97.011 -53.3679 0 259 326.483
101.726 -66.0233 0 263 313.141
105.99 -79.0403 0 266 299.384
110.029 -91.9808 0 269 285.626
114.111 -103.863 0 273 272.284
124.626 -108.377 0 284.578 264.422
136.685 -108.459 0 297.331 261
149.963 -103.879 0 311.917 262
160.133 -104.811 0 322 258.155
170.338 -109.578 0 331.188 250
181.234 -102.514 0 344.531 252
194.388 -97.242 0 359.117 251
207.464 -91.6252 0 373.703 250
220.434 -87.0407 0 387.874 248
217.541 -74.0626 0 391 260.459
210.985 -60.4397 0 391 275.459
203.788 -47.6908 0 390 290.047
197.336 -34.1561 0 390 305.044
190.155 -21.4157 0 389 319.633
183.705 -7.87366 0 389 334.633
176.528 4.86132 0 388 349.217
170.078 18.4036 0 388 364.217
165.075 31.2666 0 389.018 377.982
170.31 31.8648 0 394 376.269
173.635 20.2348 0 392 364.34
181.536 8.30181 0 394 350.169
192.001 -0.786916 0 399.537 337.463
205.112 -6.93768 0 408.73 326.27
219.118 -9.42357 0 420.304 318
233.032 -10.0902 0 432.579 311.421
246.958 -11.2906 0 444.649 304.351
260.924 -13.2419 0 456.428 296.572
272.597 -20.1487 0 464 285.295
282.648 -29.6274 0 469 272.366
290.467 -41.4414 0 471 258.194
297.542 -54.0562 0 472 243.608
303.614 -66.8376 0 472 229.438
309.817 -78.4864 0 472.64 216.36
316.454 -91.0939 0 473.238 202.238
320.118 -103.27 0 471.297 189.703
327.111 -116.214 0 471.996 174.996
330.559 -129.902 0 469.168 161.168
330.187 -143.806 0 462.804 148.804
323.708 -155.884 0 451.733 140.733
315.619 -167.247 0 439.522 134
307.746 -178.799 0 427.422 127
301.597 -191.166 0 416.52 118.52
298.93 -205.191 0 408.035 107.035
300.85 -218.965 0 403.792 93.7925
306.132 -231.785 0 403 79.9492
313.104 -241.668 0 405 68.0205
312.237 -249.622 0 400.772 61.2279
303.015 -239.147 0 397 74.6653
295.793 -226.433 0 396 89.2529
289.293 -212.916 0 396 104.253
282.067 -200.211 0 395 118.836
275.564 -186.692 0 395 133.837
269.061 -173.172 0 395 148.837
261.835 -160.455 0 394 163.422
255.323 -146.926 0 394 178.422
248.089 -134.241 0 393 193.009
241.554 -120.873 0 393 208.01
230.718 -117.981 0 384.873 215.873
217.58 -126.045 0 370.234 215
204.359 -133.805 0 355.649 214
190.935 -141.312 0 341.063 213
184.779 -151.349 0 332.72 206
170.611 -156.981 0 318.135 205
160.045 -166.777 0 306.439 198.439
155.422 -180.295 0 299.367 186.367
153.143 -192.52 0 294.581 175
160.509 -198.866 0 300.319 167
148.313 -202.022 0 287.862 166.862
147.157 -215.082 0 284 154.29
143.126 -228.497 0 277.134 142.134
138.898 -241.825 0 270 130.09
135.801 -253.721 0 264.235 119.235
133.22 -266.024 0 258.871 107.871
128.024 -278.134 0 251 97.303
122.685 -291.32 0 242.729 85.7291
115.156 -303.615 0 232.536 75.5365
102.234 -309.028 0 218.708 73.2917
91.6598 -314.904 0 207.052 70.0515
87.6308 -328.298 0 200 57.9727
95.5267 -336.647 0 205.713 48
103.028 -345.179 0 211 37.9436
102.064 -349.704 0 209 33.7725
99.4834 -360.37 0 203.989 24.0107
94.8507 -370.698 0 197.061 15.061
87.2166 -378.779 0 187.744 9
76.2131 -386.289 0 175.283 4.28345
61.1573 -393.304 0 159 1
61.1551 -374.581 0 163.397 19.2
76.1455 -184.879 0 222.418 199.851
67.5698 -257.057 0 197.158 131.895
97.2063 -282.218 0 220.087 100.537
-14.3538 18.2816 0 151.861 410.94
152.06 -133.469 0 306.586 232.878
244.388 -95.1624 0 406.468 230.06
116.111 -180.417 0 261.32 195.618
38.0207 -174.607 0 188.497 217.457
52.3456 -64.3028 0 212.946 320.627
100.854 -238.391 0 233.86 142.326
281.155 -108.468 0 433.92 201.91
121.011 -206.978 0 260.625 168.349
59.7542 -23.6106 0 222.394 359.242
65.4424 -115.784 0 221.899 268.749
-34.0411 73.3835 0 136.779 470.704
301.281 -136.078 0 440.11 168.305
248.639 -50.8044 0 429.173 267.959
84.6023 38.5088 0 251.883 414.403
117.427 87.7009 0 288.938 454.209
-0.834629 43.6623 0 167.384 435.514
-7.26959 -14.7193 0 156.203 376.245
103.46 -142.758 0 256.529 235.57
75.8062 -82.567 0 235.437 299.924
45.0777 -140.192 0 199.546 248.849
271.346 -74.3274 0 439.635 236.523
86.1274 6.28788 0 250.681 384.232
90.8718 70.7779 0 261.248 443.175
6.14934 -40.1476 0 168.09 349.187
3 42 41 43
3 38 37 36
3 43 41 44
3 40 46 45
3 40 45 44
3 41 40 44
3 5 3 2
3 1 261 2
3 39 35 34
3 39 38 35
3 39 34 46
3 46 40 39
3 35 38 36
3 33 46 34
3 46 33 47
3 30 49 48
3 50 49 29
3 27 52 51
3 27 53 52
3 28 51 50
3 31 48 47
3 31 30 48
3 28 50 29
3 30 29 49
3 54 56 55
3 54 53 56
3 56 53 27
3 28 27 51
3 56 27 26
3 31 47 32
3 33 32 47
3 0 260 261
3 7 6 256
3 6 5 261
3 264 13 12
3 2 261 5
3 4 3 5
3 9 8 7
3 6 261 258
3 257 256 6
3 256 253 7
3 253 256 255
3 10 9 252
3 10 252 251
3 253 252 9
3 7 253 9
3 257 6 258
3 16 15 14
3 16 14 263
3 263 17 16
3 57 26 25
3 58 25 24
3 14 13 263
3 17 263 18
3 264 11 250
3 11 264 12
3 21 20 271
3 61 60 269
3 263 19 18
3 23 269 24
3 250 11 251
3 19 263 20
3 10 251 11
3 56 26 57
3 22 21 262
3 0 261 1
3 246 245 271
3 23 22 269
3 107 87 86
3 107 86 108
3 86 85 108
3 105 90 89
3 89 88 106
3 107 88 87
3 107 106 88
3 85 84 109
3 76 75 74
3 77 76 74
3 110 109 84
3 85 109 108
3 84 83 110
3 82 111 83
3 82 81 112
3 95 93 92
3 92 91 95
3 91 90 104
3 104 95 91
3 95 94 93
3 103 97 96
3 95 104 96
3 96 104 103
3 102 97 103
3 90 105 104
3 102 98 97
3 99 98 101
3 101 100 99
3 98 102 101
3 89 106 105
3 59 58 60
3 57 25 58
3 289 70 69
3 282 265 72
3 289 282 70
3 60 58 269
3 63 275 64
3 275 63 285
3 67 66 68
3 68 66 289
3 270 65 64
3 173 172 275
3 24 269 58
3 289 274 282
3 73 72 265
3 78 265 281
3 265 78 77
3 81 80 276
3 83 111 110
3 79 78 276
3 82 112 111
3 119 118 281
3 77 74 73
3 276 281 116
3 281 120 119
3 276 78 281
3 276 112 81
3 112 276 113
3 113 276 114
3 114 276 115
3 265 120 281
3 282 71 70
3 275 270 64
3 255 254 253
3 264 250 249
3 248 264 249
3 264 247 246
3 271 245 244
3 271 263 264
3 271 264 246
3 243 242 273
3 273 241 268
3 241 240 239
3 273 242 241
3 268 239 238
3 236 235 266
3 268 266 283
3 241 239 268
3 283 266 174
3 266 176 175
3 177 176 266
3 234 178 266
3 266 178 177
3 283 174 173
3 284 172 171
3 283 285 262
3 266 235 234
3 179 234 233
3 232 231 181
3 180 233 232
3 179 233 180
3 181 180 232
3 182 181 231
3 230 267 231
3 234 179 178
3 284 171 170
3 222 221 218
3 221 219 218
3 219 221 220
3 223 222 217
3 216 224 223
3 226 225 214
3 215 225 224
3 222 218 217
3 216 215 224
3 217 216 223
3 226 214 277
3 277 212 211
3 277 214 213
3 215 214 225
3 277 211 210
3 182 231 267
3 278 286 203
3 227 277 228
3 207 272 208
3 184 278 185
3 184 183 278
3 201 200 278
3 278 199 198
3 226 277 227
3 272 207 206
3 208 272 277
3 206 205 286
3 273 262 21
3 205 204 286
3 267 183 182
3 203 202 278
3 206 286 272
3 273 21 271
3 208 277 209
3 277 210 209
3 169 168 270
3 270 284 169
3 270 168 274
3 163 279 164
3 165 287 166
3 165 164 287
3 287 120 274
3 284 170 169
3 163 162 279
3 160 288 162
3 279 288 122
3 161 160 162
3 158 280 159
3 160 280 288
3 287 164 279
3 158 156 280
3 124 123 288
3 280 160 159
3 288 280 125
3 153 129 128
3 129 152 130
3 128 127 154
3 126 155 127
3 154 127 155
3 130 152 131
3 153 128 154
3 132 131 151
3 150 133 132
3 133 149 134
3 134 148 135
3 153 152 129
3 126 280 155
3 156 155 280
3 158 157 156
3 194 189 188
3 187 195 188
3 194 190 189
3 192 190 193
3 190 192 191
3 193 190 194
3 196 187 186
3 186 185 197
3 197 185 198
3 278 198 185
3 196 195 187
3 194 188 195
3 197 196 186
3 151 150 132
3 149 133 150
3 134 149 148
3 140 137 136
3 137 139 138
3 147 136 135
3 148 147 135
3 131 152 151
3 147 146 140
3 145 144 142
3 146 145 141
3 139 137 140
3 145 142 141
3 141 140 146
3 143 142 144
3 140 136 147
3 260 259 261
3 199 278 200
3 258 261 259
3 247 264 248
3 13 264 263
3 73 265 77
3 72 71 282
3 174 266 175
3 237 236 266
3 272 230 229
3 204 203 286
3 238 237 268
3 266 268 237
3 22 262 269
3 283 262 268
3 168 167 274
3 66 65 270
3 271 244 243
3 20 263 271
3 230 272 267
3 228 272 229
3 262 273 268
3 243 273 271
3 287 167 166
3 282 120 265
3 62 285 63
3 62 61 285
3 79 276 80
3 116 115 276
3 277 272 228
3 213 212 277
3 267 278 183
3 202 201 278
3 122 121 279
3 279 121 120
3 126 125 280
3 288 125 124
3 118 117 281
3 281 117 116
3 289 69 68
3 120 282 274
3 173 275 283
3 283 275 285
3 270 275 284
3 172 284 275
3 61 269 285
3 262 285 269
3 278 267 286
3 272 286 267
3 120 287 279
3 167 287 274
3 122 288 123
3 288 279 162
3 274 289 270
3 66 270 289
