ply
format ascii 1.0
element vertex 290
property float x
property float y
property float z
property float u
property float v
element face 317
property list uchar int vertex_indices
end_header
-5.19446 -339.292 0 147.636 8.36396
-13.7513 -329.342 0 139.979 19.0208
-14.9648 -315.216 0 140 33.201
-12.4793 -301.47 0 143.678 46.6777
-0.605459 -297.094 0 155.887 50
5.55625 -308.83 0 161 37.7695
11.5531 -308.504 0 167 37.5736
17.5242 -296.425 0 174 49.0883
22.1224 -283.345 0 179.719 61.7193
34.4721 -287.002 0 191.704 57
39.9129 -276.86 0 198 66.6324
43.7758 -263.546 0 203 79.5613
36.3327 -255.956 0 196.239 87.7609
25.3555 -247.864 0 186 96.7624
14.7 -239.606 0 176.097 105.903
4.79436 -230.354 0 167.026 115.974
8.53375 -218.155 0 171.803 127.803
7.93442 -208.907 0 172 137.064
12.8846 -196.501 0 177.995 148.995
18.8967 -183.863 0 185.066 161.066
28.88 -174.184 0 195.844 169.844
35.5612 -161.726 0 203.622 181.622
30.6694 -156.555 0 199.605 187
17.1031 -161.334 0 186.185 183.185
3.56671 -166.577 0 172.919 179
-10.6778 -171.647 0 159.407 175.407
-25.3609 -174.853 0 145.818 174
-38.051 -183.857 0 134 166.718
-42.3616 -198.643 0 130.265 153.265
-47.0949 -213.122 0 126 140.032
-52.5759 -227.315 0 121 127.103
-57.1739 -241.761 0 116.83 113.83
-63.0249 -255.256 0 111 101.245
-69.1985 -268.608 0 104.809 88.8092
-76.8381 -281.309 0 97.031 77.031
-83.196 -293.847 0 90 64.9434
-86.8687 -302.19 0 85.8385 56.8385
-95.6026 -304.228 0 77 55.3289
-92.8718 -290.895 0 80.5247 68.4753
-90.7992 -284.402 0 83 74.8438
-104.227 -280.96 0 69.8678 79.1322
-113.356 -288.651 0 60.2982 72
-122.696 -295.669 0 50.554 65.554
-124.752 -287.356 0 49 73.9741
-119.44 -275.675 0 55 85.3173
-111.82 -264.224 0 63.2955 96.2955
-99.5639 -257.789 0 75.9327 102
-88.4634 -248.675 0 86 109.276
-85.9367 -233.28 0 88 123.448
-83.0612 -218.16 0 90.4379 137.438
-81.0511 -203.575 0 92 150.963
-78.6887 -188.358 0 94 165.134
-75.8176 -173.892 0 97 178.892
-72.2027 -159.971 0 101 192.235
-67.5384 -146.58 0 106.116 205.116
-60.9405 -134.307 0 113.265 217
-53.5738 -137.469 0 120.43 213.43
-40.1229 -130.082 0 133.087 219.087
-27.3479 -122.326 0 145 225.052
-23.7117 -114.942 0 148.809 232
-10.8595 -110.386 0 161.694 235.694
-2.66668 -100.913 0 170 244.081
-2.10423 -86.5934 0 171 257.839
-1.57072 -71.5846 0 172 272.425
1.13018 -57.2252 0 175 286.182
-4.26438 -44.2893 0 169.921 299.079
-9.55374 -31.4384 0 165 312.04
-21.6324 -27.8117 0 153.031 316
-27.9989 -15.5072 0 147 328.484
-35.3228 -4.22677 0 140.001 339.999
-44.0937 6.90022 0 131.516 351.484
-52.1803 18.3141 0 123.737 363.263
-59.5874 29.9297 0 116.666 375.334
-68.5108 40.9401 0 108.181 386.819
-77.3531 52.1891 0 99.6956 398.304
-87.5667 62.6681 0 89.7115 409
-81.1969 68.8023 0 96.2175 415
-67.971 73.0695 0 109.561 419
-64.8867 83.1874 0 113 429.49
-69.3262 95.9954 0 109 442.833
-71.7117 109.893 0 107 457.005
-74.9325 123.073 0 104 470.762
-85.7771 131.098 0 92.9758 480.024
-96.26 139.6 0 82.0762 489.924
-107.527 145.96 0 70.298 497.702
-117.276 154.798 0 60.1059 507.894
-126.063 164.705 0 50.9132 519.087
-134.246 174.182 0 42.5491 529.451
-140.473 185.714 0 36.1849 541.815
-147.236 196.57 0 29 553.839
-154.015 206.85 0 21.7498 565.25
-161.605 217.902 0 13.9716 577.028
-169.074 229.061 0 6.60748 588.393
-172.832 242.49 0 3 601.898
-170.294 252.616 0 5.65576 612
-157.707 246.758 0 18.1705 606
-145.598 254.11 0 29.8989 613.899
-134.665 263.585 0 41.129 623
-123.567 272.8 0 52.4011 632
-111.443 279.669 0 64.6477 638.648
-102.159 280.127 0 73.938 638.938
-110.03 268.913 0 65.8669 627.867
-116.678 256.637 0 59 615.711
-121.634 243.728 0 53.8459 602.846
-126.736 231.294 0 49 589.853
-123.024 222.745 0 53.4191 580
-112.563 214.647 0 64.4886 570.511
-102.14 206.636 0 75.5491 561
-91.7229 198.561 0 86.5804 551.42
-81.3409 190.08 0 97.4802 541.52
-70.7947 181.99 0 108.537 532
-60.2609 173.864 0 119.572 522.428
-48.8285 168.325 0 131.643 515.357
-36.2647 164.431 0 144.593 510.407
-24.712 157.195 0 156 502.475
-17.2943 145.546 0 163 490.374
-9.54136 134.199 0 170.514 478.486
0.123135 123.818 0 180 467.416
8.80476 112.773 0 188.191 455.809
16.4249 101.227 0 195.262 443.738
27.2805 93.3721 0 206.057 435
37.3138 103.985 0 216.526 444.526
48.0009 114.427 0 227.602 454
58.8513 124.255 0 238.911 462.911
70.0368 133.237 0 250.56 471
81.3682 142.49 0 262.174 479.174
93.4875 151.059 0 274.245 486.245
99.0165 165.153 0 280 498.862
102.764 180.198 0 284 512.205
106.494 195.225 0 288 525.548
111.07 209.379 0 293 538.477
116.663 223.185 0 298.995 550.995
124.233 236.868 0 306.773 562.773
131.801 250.59 0 314.551 574.551
140.796 263.813 0 323.743 585.743
149.026 277.268 0 332.229 597.229
157.821 290.096 0 341.421 608.421
166.777 301.549 0 351 618.867
176.568 310.411 0 361.382 627
182.393 305.828 0 366.861 622
183.521 294.802 0 367.169 610.831
197.722 293.608 0 380.582 607
211.582 291.304 0 394.339 604
224.003 284.781 0 406.311 596.689
222.307 275.951 0 404.046 588
207.8 273.946 0 389.46 587
193.073 271.221 0 374.874 586
179.893 265.909 0 361.961 583.039
174.054 253.263 0 356 572.431
170.343 238.124 0 352 559.088
167.158 222.82 0 348.527 545.527
162.881 207.892 0 344 532.403
158.069 193 0 339 519.474
154.371 177.721 0 335.093 506.093
150.521 162.647 0 331 492.789
149.78 147.216 0 330 479.032
151.391 131.799 0 331 464.446
156.873 120.139 0 336 452.689
147.766 111.536 0 326.538 444.538
139.079 99.6658 0 317.345 433.345
129 89.1869 0 306.86 423.86
133.35 83.6417 0 311 418.459
125.78 71.9546 0 303 407.358
117.968 59.3479 0 294.768 395.768
110.595 46.7426 0 286.99 383.99
102.441 34.5493 0 278.505 372.505
94.3147 22.6051 0 270 361.027
85.6143 10.6935 0 261 349.755
80.6138 -1.68877 0 255.998 338
83.5429 -13.2125 0 259 326.483
87.8512 -26.3001 0 263 313.141
91.3623 -39.8045 0 266 299.384
94.7897 -53.2841 0 269 285.626
98.8994 -66.0876 0 273 272.284
110.243 -72.6794 0 284.578 264.422
122.877 -74.8569 0 297.331 261
137.122 -72.5311 0 311.917 262
147.348 -75.3364 0 322 258.155
157.037 -82.3042 0 331.188 250
169.763 -78.4033 0 344.531 252
184.136 -77.1438 0 359.117 251
198.513 -75.7738 0 373.703 250
212.596 -75.4376 0 387.874 248
213.746 -62.463 0 391 260.459
211.495 -47.5773 0 391 275.459
208.343 -33.2879 0 390 290.047
206.129 -18.4563 0 390 305.044
202.985 -4.17343 0 389 319.633
200.774 10.6623 0 389 334.633
197.631 24.9394 0 388 349.217
195.424 39.7765 0 388 364.217
194.398 53.5402 0 389.018 377.982
199.58 52.5819 0 394 376.269
199.36 40.4878 0 392 364.34
203.426 26.7657 0 394 350.169
210.779 15.0155 0 399.537 337.463
221.52 5.30162 0 408.73 326.27
234.189 -1.169 0 420.304 318
247.299 -5.86498 0 432.579 311.421
260.275 -11.077 0 444.649 304.351
273.068 -17.0266 0 456.428 296.572
282.218 -27.0534 0 464 285.295
289.068 -39.0824 0 469 272.366
293.118 -52.7469 0 471 258.194
296.237 -66.9633 0 472 243.608
298.33 -80.9658 0 472 229.438
300.901 -93.8385 0 472.64 216.36
303.593 -107.755 0 473.238 202.238
303.543 -120.448 0 471.297 189.703
306.434 -134.879 0 471.996 174.996
305.71 -148.975 0 469.168 161.168
301.271 -162.154 0 462.804 148.804
291.533 -171.795 0 451.733 140.733
280.466 -180.281 0 439.522 134
269.551 -189.013 0 427.422 127
260.042 -199.03 0 416.52 118.52
253.374 -211.654 0 408.035 107.035
251.165 -225.385 0 403.792 93.7925
252.451 -239.191 0 403 79.9492
256.212 -250.685 0 405 68.0205
253.048 -258.034 0 400.772 61.2279
247.309 -245.312 0 397 74.6653
244.138 -231.038 0 396 89.2529
241.894 -216.21 0 396 104.253
238.717 -201.942 0 395 118.836
236.471 -187.11 0 395 133.837
234.223 -172.279 0 395 148.837
231.051 -158.007 0 394 163.422
228.804 -143.172 0 394 178.422
225.629 -128.909 0 393 193.009
223.372 -114.126 0 393 208.01
214.113 -107.797 0 384.873 215.873
199.673 -111.183 0 370.234 215
185.275 -114.556 0 355.649 214
170.837 -117.846 0 341.063 213
163.164 -125.963 0 332.72 206
148.582 -128.585 0 318.135 205
137.212 -136.298 0 306.439 198.439
131.001 -148.937 0 299.367 186.367
127.107 -160.672 0 294.581 175
133.486 -168.114 0 300.319 167
121.041 -169.351 0 287.862 166.862
118.162 -182.165 0 284 154.29
112.301 -194.85 0 277.134 142.134
106.198 -207.439 0 270 130.09
101.38 -218.746 0 264.235 119.235
97.0073 -230.53 0 258.871 107.871
90.071 -241.734 0 251 97.303
82.8268 -253.976 0 242.729 85.7291
73.5502 -265.01 0 232.536 75.5365
59.9668 -268.435 0 218.708 73.2917
48.6351 -272.67 0 207.052 70.0515
42.6526 -285.313 0 200 57.9727
49.2127 -294.749 0 205.713 48
55.3559 -304.305 0 211 37.9436
53.7262 -308.636 0 209 33.7725
49.5822 -318.797 0 203.989 24.0107
43.4586 -328.317 0 197.061 15.061
34.7036 -335.166 0 187.744 9
22.7023 -340.949 0 175.283 4.28345
6.76808 -345.637 0 159 1
9.56143 -327.123 0 163.397 19.2
52.7417 -141.938 0 222.418 199.851
33.4426 -211.896 0 197.158 131.895
58.9923 -241.175 0 220.087 100.537
-25.5246 66.3687 0 151.861 410.94
134.402 -102.033 0 306.586 232.878
233.458 -90.3239 0 406.468 230.06
92.2386 -143.039 0 261.32 195.618
17.1184 -126.916 0 188.497 217.457
37.9504 -21.0626 0 212.946 320.627
69.1215 -198.366 0 233.86 142.326
264.764 -113.973 0 433.92 201.91
93.6154 -170.194 0 260.625 168.349
46.5889 18.3051 0 222.394 359.242
48.5022 -72.7887 0 221.899 268.749
-42.3969 124.557 0 136.779 470.704
275.91 -146.275 0 440.11 168.305
250.341 -49.3558 0 429.173 267.959
74.3362 76.0463 0 251.883 414.403
109.791 119.399 0 288.938 454.209
-10.7717 91.2788 0 167.384 435.514
-20.0721 32.2457 0 156.203 376.245
84.5275 -103.72 0 256.529 235.57
60.8759 -40.8211 0 235.437 299.924
26.7854 -94.3606 0 199.546 248.849
265.27 -78.743 0 439.635 236.523
74.1931 45.1462 0 250.681 384.232
82.4995 106.106 0 261.248 443.175
-7.52155 5.80007 0 168.09 349.187
3 42 41 43
3 38 37 36
3 43 41 44
3 40 46 45
3 40 45 44
3 41 40 44
3 5 3 2
3 1 261 2
3 39 35 34
3 39 38 35
3 39 34 46
3 46 40 39
3 35 38 36
3 33 46 34
3 46 33 47
3 30 49 48
3 50 49 29
3 27 52 51
3 27 53 52
3 28 51 50
3 31 48 47
3 31 30 48
3 28 50 29
3 30 29 49
3 54 56 55
3 54 53 56
3 56 53 27
3 28 27 51
3 56 27 26
3 31 47 32
3 33 32 47
3 0 260 261
3 7 6 256
3 6 5 261
3 264 13 12
3 2 261 5
3 4 3 5
3 9 8 7
3 6 261 258
3 257 256 6
3 256 253 7
3 253 256 255
3 10 9 252
3 10 252 251
3 253 252 9
3 7 253 9
3 257 6 258
3 16 15 14
3 16 14 263
3 263 17 16
3 57 26 25
3 58 25 24
3 14 13 263
3 17 263 18
3 264 11 250
3 11 264 12
3 21 20 271
3 61 60 269
3 263 19 18
3 23 269 24
3 250 11 251
3 19 263 20
3 10 251 11
3 56 26 57
3 22 21 262
3 0 261 1
3 246 245 271
3 23 22 269
3 107 87 86
3 107 86 108
3 86 85 108
3 105 90 89
3 89 88 106
3 107 88 87
3 107 106 88
3 85 84 109
3 76 75 74
3 77 76 74
3 110 109 84
3 85 109 108
3 84 83 110
3 82 111 83
3 82 81 112
3 95 93 92
3 92 91 95
3 91 90 104
3 104 95 91
3 95 94 93
3 103 97 96
3 95 104 96
3 96 104 103
3 102 97 103
3 90 105 104
3 102 98 97
3 99 98 101
3 101 100 99
3 98 102 101
3 89 106 105
3 59 58 60
3 57 25 58
3 289 70 69
3 282 265 72
3 289 282 70
3 60 58 269
3 63 275 64
3 275 63 285
3 67 66 68
3 68 66 289
3 270 65 64
3 173 172 275
3 24 269 58
3 289 274 282
3 73 72 265
3 78 265 281
3 265 78 77
3 81 80 276
3 83 111 110
3 79 78 276
3 82 112 111
3 119 118 281
3 77 74 73
3 276 281 116
3 281 120 119
3 276 78 281
3 276 112 81
3 112 276 113
3 113 276 114
3 114 276 115
3 265 120 281
3 282 71 70
3 275 270 64
3 255 254 253
3 264 250 249
3 248 264 249
3 264 247 246
3 271 245 244
3 271 263 264
3 271 264 246
3 243 242 273
3 273 241 268
3 241 240 239
3 273 242 241
3 268 239 238
3 236 235 266
3 268 266 283
3 241 239 268
3 283 266 174
3 266 176 175
3 177 176 266
3 234 178 266
3 266 178 177
3 283 174 173
3 284 172 171
3 283 285 262
3 266 235 234
3 179 234 233
3 232 231 181
3 180 233 232
3 179 233 180
3 181 180 232
3 182 181 231
3 230 267 231
3 234 179 178
3 284 171 170
3 222 221 218
3 221 219 218
3 219 221 220
3 223 222 217
3 216 224 223
3 226 225 214
3 215 225 224
3 222 218 217
3 216 215 224
3 217 216 223
3 226 214 277
3 277 212 211
3 277 214 213
3 215 214 225
3 277 211 210
3 182 231 267
3 278 286 203
3 227 277 228
3 207 272 208
3 184 278 185
3 184 183 278
3 201 200 278
3 278 199 198
3 226 277 227
3 272 207 206
3 208 272 277
3 206 205 286
3 273 262 21
3 205 204 286
3 267 183 182
3 203 202 278
3 206 286 272
3 273 21 271
3 208 277 209
3 277 210 209
3 169 168 270
3 270 284 169
3 270 168 274
3 163 279 164
3 165 287 166
3 165 164 287
3 287 120 274
3 284 170 169
3 163 162 279
3 160 288 162
3 279 288 122
3 161 160 162
3 158 280 159
3 160 280 288
3 287 164 279
3 158 156 280
3 124 123 288
3 280 160 159
3 288 280 125
3 153 129 128
3 129 152 130
3 128 127 154
3 126 155 127
3 154 127 155
3 130 152 131
3 153 128 154
3 132 131 151
3 150 133 132
3 133 149 134
3 134 148 135
3 153 152 129
3 126 280 155
3 156 155 280
3 158 157 156
3 194 189 188
3 187 195 188
3 194 190 189
3 192 190 193
3 190 192 191
3 193 190 194
3 196 187 186
3 186 185 197
3 197 185 198
3 278 198 185
3 196 195 187
3 194 188 195
3 197 196 186
3 151 150 132
3 149 133 150
3 134 149 148
3 140 137 136
3 137 139 138
3 147 136 135
3 148 147 135
3 131 152 151
3 147 146 140
3 145 144 142
3 146 145 141
3 139 137 140
3 145 142 141
3 141 140 146
3 143 142 144
3 140 136 147
3 260 259 261
3 199 278 200
3 258 261 259
3 247 264 248
3 13 264 263
3 73 265 77
3 72 71 282
3 174 266 175
3 237 236 266
3 272 230 229
3 204 203 286
3 238 237 268
3 266 268 237
3 22 262 269
3 283 262 268
3 168 167 274
3 66 65 270
3 271 244 243
3 20 263 271
3 230 272 267
3 228 272 229
3 262 273 268
3 243 273 271
3 287 167 166
3 282 120 265
3 62 285 63
3 62 61 285
3 79 276 80
3 116 115 276
3 277 272 228
3 213 212 277
3 267 278 183
3 202 201 278
3 122 121 279
3 279 121 120
3 126 125 280
3 288 125 124
3 118 117 281
3 281 117 116
3 289 69 68
3 120 282 274
3 173 275 283
3 283 275 285
3 270 275 284
3 172 284 275
3 61 269 285
3 262 285 269
3 278 267 286
3 272 286 267
3 120 287 279
3 167 287 274
3 122 288 123
3 288 279 162
3 274 289 270
3 66 270 289
