ply
format ascii 1.0
element vertex 290
property float x
property float y
property float z
property float u
property float v
element face 317
property list uchar int vertex_indices
end_header
15.2747 -361.85 0 147.636 8.36396
6.17248 -352.396 0 139.979 19.0208
4.16718 -338.361 0 140 33.201
5.87595 -324.497 0 143.678 46.6777
17.4852 -319.461 0 155.887 50
24.2968 -330.832 0 161 37.7695
30.2659 -330.169 0 167 37.5736
35.5488 -317.773 0 174 49.0883
39.4046 -304.456 0 179.719 61.7193
51.9403 -307.413 0 191.704 57
56.8031 -296.981 0 198 66.6324
59.9126 -283.472 0 203 79.5613
52.055 -276.309 0 196.239 87.7609
40.6403 -268.843 0 186 96.7624
29.5375 -261.191 0 176.097 105.903
19.1292 -252.507 0 167.026 115.974
22.1796 -240.118 0 171.803 127.803
21.0637 -230.916 0 172 137.064
25.3128 -218.252 0 177.995 148.995
30.6095 -205.295 0 185.066 161.066
40.0343 -195.066 0 195.844 169.844
45.9797 -182.214 0 203.622 181.622
40.5798 -177.193 0 199.605 187
27.0192 -182.591 0 186.185 183.185
13.4254 -188.523 0 172.919 179
-1.09572 -194.542 0 159.407 175.407
-16.2471 -198.9 0 145.818 174
-29.2343 -208.994 0 134 166.718
-33.6349 -224.582 0 130.265 153.265
-38.4085 -239.815 0 126 140.032
-43.9358 -254.779 0 121 127.103
-48.5497 -269.937 0 116.83 113.83
-54.2247 -283.996 0 111 101.245
-60.2016 -297.917 0 104.809 88.8092
-67.5892 -311.202 0 97.031 77.031
-73.4386 -324.03 0 90 64.9434
-76.7543 -332.523 0 85.8385 56.8385
-85.3939 -334.932 0 77 55.3289
-83.2346 -321.495 0 80.5247 68.4753
-81.4496 -314.928 0 83 74.8438
-95.0449 -312.091 0 69.8678 79.1322
-103.838 -320.165 0 60.2982 72
-112.87 -327.575 0 50.554 65.554
-115.278 -319.358 0 49 73.9741
-110.47 -307.461 0 55 85.3173
-103.348 -295.697 0 63.2955 96.2955
-91.3861 -288.754 0 75.9327 102
-79.9233 -278.47 0 86 109.276
-77.3457 -262.345 0 88 123.448
-74.4544 -246.543 0 90.4379 137.438
-72.4113 -231.323 0 92 150.963
-70.063 -215.48 0 94 165.134
-67.4358 -200.588 0 97 178.892
-64.1828 -186.318 0 101 192.235
-59.9004 -172.614 0 106.116 205.116
-53.7147 -160.087 0 113.265 217
-46.2259 -162.96 0 120.43 213.43
-32.497 -154.473 0 133.087 219.087
-19.4146 -145.585 0 145 225.052
-15.9468 -137.929 0 148.809 232
-3.17546 -132.798 0 161.694 235.694
4.85028 -122.63 0 170 244.081
5.08419 -107.956 0 171 257.839
5.30274 -92.6728 0 172 272.425
7.83012 -77.9111 0 175 286.182
2.27469 -64.931 0 169.921 299.079
-3.20306 -52.1296 0 165 312.04
-15.334 -48.6938 0 153.031 316
-21.8861 -36.494 0 147 328.484
-29.3784 -25.3413 0 140.001 339.999
-38.2807 -14.4183 0 131.516 351.484
-46.5087 -3.21473 0 123.737 363.263
-54.07 8.12469 0 116.666 375.334
-63.2163 18.8467 0 108.181 386.819
-72.2451 29.967 0 99.6956 398.304
-82.5709 40.3373 0 89.7115 409
-76.2691 46.5355 0 96.2175 415
-63.1068 50.9308 0 109.561 419
-60.1865 60.7791 0 113 429.49
-64.8397 73.238 0 109 442.833
-67.4081 86.9598 0 107 457.005
-70.6866 99.7648 0 104 470.762
-81.3183 107.014 0 92.9758 480.024
-91.4036 114.639 0 82.0762 489.924
-102.22 120.116 0 70.298 497.702
-111.547 128.105 0 60.1059 507.894
-119.931 137.209 0 50.9132 519.087
-127.885 146.148 0 42.5491 529.451
-133.896 157.166 0 36.1849 541.815
-140.231 167.295 0 29 553.839
-146.548 176.879 0 21.7498 565.25
-153.88 187.522 0 13.9716 577.028
-161.31 198.619 0 6.60748 588.393
-165.038 212.036 0 3 601.898
-162.48 222.154 0 5.65576 612
-149.903 216.268 0 18.1705 606
-137.42 223.145 0 29.8989 613.899
-126.612 232.768 0 41.129 623
-115.546 242.022 0 52.4011 632
-103.441 248.925 0 64.6477 638.648
-94.159 249.409 0 73.938 638.938
-101.999 238.173 0 65.8669 627.867
-108.615 225.881 0 59 615.711
-113.563 212.99 0 53.8459 602.846
-118.997 200.979 0 49 589.853
-115.919 193.283 0 53.4191 580
-106.014 186.045 0 64.4886 570.511
-96.1635 178.974 0 75.5491 561
-86.3002 171.844 0 86.5804 551.42
-76.4017 164.254 0 97.4802 541.52
-66.3291 157.065 0 108.537 532
-56.2603 149.853 0 119.572 522.428
-45.3774 145.284 0 131.643 515.357
-33.1503 142.035 0 144.593 510.407
-21.5619 135.219 0 156 502.475
-13.9354 123.85 0 163 490.374
-6.09557 112.841 0 170.514 478.486
3.61528 102.886 0 180 467.416
12.5592 92.1939 0 188.191 455.809
20.4797 80.9848 0 195.262 443.738
31.3115 73.6865 0 206.057 435
41.0976 84.9659 0 216.526 444.526
51.5676 95.9936 0 227.602 454
62.1526 106.365 0 238.911 462.911
73.0634 115.868 0 250.56 471
84.2393 125.77 0 262.174 479.174
96.4127 135.272 0 274.245 486.245
101.852 150.31 0 280 498.862
105.491 166.449 0 284 512.205
109.104 182.558 0 288 525.548
113.469 197.478 0 293 538.477
118.864 212.086 0 298.995 550.995
126.348 226.968 0 306.773 562.773
133.832 241.912 0 314.551 574.551
142.746 256.404 0 323.743 585.743
150.865 271.088 0 332.229 597.229
159.465 284.914 0 341.421 608.421
168.085 296.934 0 351 618.867
177.542 306.17 0 361.382 627
183.539 301.821 0 366.861 622
185.107 290.908 0 367.169 610.831
199.742 291.349 0 380.582 607
213.627 289.385 0 394.339 604
226.261 283.283 0 406.311 596.689
224.866 274.394 0 404.046 588
210.424 271.857 0 389.46 587
195.632 268.124 0 374.874 586
182.303 261.372 0 361.961 583.039
176.501 247.438 0 356 572.431
172.915 231.157 0 352 559.088
169.853 214.739 0 348.527 545.527
165.682 198.662 0 344 532.403
160.941 182.52 0 339 519.474
157.324 166.023 0 335.093 506.093
153.578 149.817 0 331 492.789
152.948 133.299 0 330 479.032
154.891 117.353 0 331 464.446
160.617 105.733 0 336 452.689
151.701 96.8993 0 326.538 444.538
143.297 84.6526 0 317.345 433.345
133.453 73.5983 0 306.86 423.86
137.922 67.9463 0 311 418.459
130.591 55.9233 0 303 407.358
123.024 42.7026 0 294.768 395.768
115.879 29.6051 0 286.99 383.99
107.906 16.9992 0 278.505 372.505
99.9827 4.79934 0 270 361.027
91.445 -7.47454 0 261 349.755
86.4188 -20.2217 0 255.998 338
89.2584 -31.7351 0 259 326.483
93.7096 -44.6519 0 263 313.141
97.4923 -57.9775 0 266 299.384
101.139 -71.2458 0 269 285.626
105.236 -83.6643 0 273 272.284
116.279 -89.443 0 284.578 264.422
128.719 -90.8328 0 297.331 261
142.655 -87.679 0 311.917 262
152.882 -89.8131 0 322 258.155
162.732 -95.999 0 331.188 250
174.73 -90.9244 0 344.531 252
188.576 -88.223 0 359.117 251
202.41 -85.3301 0 373.703 250
216.063 -83.4703 0 387.874 248
215.717 -70.3473 0 391 260.459
211.9 -55.7478 0 391 275.459
207.288 -41.8542 0 390 290.047
203.565 -27.3282 0 390 305.044
198.974 -13.4427 0 389 319.633
195.256 1.08855 0 389 334.633
190.667 14.9683 0 388 349.217
186.949 29.5007 0 388 364.217
184.519 43.0869 0 389.018 377.982
189.772 42.6646 0 394 376.269
190.792 30.6118 0 392 364.34
196.244 17.3788 0 394 350.169
204.761 6.44372 0 399.537 337.463
216.441 -2.11863 0 408.73 326.27
229.706 -7.25729 0 420.304 318
243.227 -10.5878 0 432.579 311.421
256.663 -14.4444 0 444.649 304.351
269.995 -19.05 0 456.428 296.572
280.12 -28.0814 0 464 285.295
288.156 -39.3338 0 469 272.366
293.548 -52.4803 0 471 258.194
298.069 -66.2676 0 472 243.608
301.583 -79.9744 0 472 229.438
305.481 -92.5355 0 472.64 216.36
309.615 -106.124 0 473.238 202.238
310.882 -118.758 0 471.297 189.703
315.255 -132.809 0 471.996 174.996
315.999 -146.903 0 469.168 161.168
312.952 -160.473 0 462.804 148.804
304.267 -171.073 0 451.733 140.733
294.141 -180.663 0 439.522 134
284.191 -190.481 0 427.422 127
275.774 -201.431 0 416.52 118.52
270.454 -214.679 0 408.035 107.035
269.683 -228.565 0 403.792 93.7925
272.396 -242.163 0 403 79.9492
277.331 -253.204 0 405 68.0205
274.947 -260.842 0 400.772 61.2279
267.918 -248.785 0 397 74.6653
263.281 -234.918 0 396 89.2529
259.509 -220.402 0 396 104.253
254.867 -206.542 0 395 118.836
251.092 -192.024 0 395 133.837
247.317 -177.505 0 395 148.837
242.68 -163.637 0 394 163.422
238.904 -149.113 0 394 178.422
234.273 -135.26 0 393 193.009
230.515 -120.817 0 393 208.01
220.725 -115.614 0 384.873 215.873
206.832 -120.648 0 370.234 215
192.945 -125.569 0 355.649 214
178.984 -130.345 0 341.063 213
171.92 -139.15 0 332.72 206
157.463 -142.841 0 318.135 205
146.394 -151.288 0 306.439 198.439
140.795 -164.245 0 299.367 186.367
137.509 -176.172 0 294.581 175
144.282 -183.219 0 300.319 167
131.902 -185.166 0 287.862 166.862
129.687 -198.085 0 284 154.29
124.51 -211.065 0 277.134 142.134
119.104 -223.958 0 270 130.09
114.922 -235.515 0 264.235 119.235
111.213 -247.524 0 258.871 107.871
104.913 -259.097 0 251 97.303
98.3667 -271.726 0 242.729 85.7291
89.7231 -283.263 0 232.536 75.5365
76.3527 -287.445 0 218.708 73.2917
65.2763 -292.309 0 207.052 70.0515
60.013 -305.267 0 200 57.9727
67.093 -314.319 0 205.713 48
73.7636 -323.515 0 211 37.9436
72.3799 -327.931 0 209 33.7725
68.8133 -338.308 0 203.989 24.0107
63.2345 -348.157 0 197.061 15.061
54.8781 -355.488 0 187.744 9
43.2206 -361.936 0 175.283 4.28345
27.5748 -367.512 0 159 1
29.3237 -348.87 0 163.397 19.2
62.0471 -161.479 0 222.418 199.851
46.699 -232.475 0 197.158 131.895
73.8511 -260.282 0 220.087 100.537
-20.6114 44.966 0 151.861 410.94
141.636 -117.3 0 306.586 232.878
238.132 -96.1053 0 406.468 230.06
101.732 -160.553 0 261.32 195.618
25.4997 -148.165 0 188.497 217.457
43.976 -40.7132 0 212.946 320.627
81.5682 -216.978 0 233.86 142.326
271.644 -116.342 0 433.92 201.91
104.481 -187.523 0 260.625 168.349
52.2302 -0.91939 0 222.394 359.242
55.4193 -92.3147 0 221.899 268.749
-38.3458 102.117 0 136.779 470.704
286.079 -147.314 0 440.11 168.305
250.704 -53.5407 0 429.173 267.959
79.028 58.3447 0 251.883 414.403
113.565 103.796 0 288.938 454.209
-6.2504 70.0169 0 167.384 435.514
-14.6009 11.2299 0 156.203 376.245
92.1853 -121.773 0 256.529 235.57
67.0922 -59.9019 0 235.437 299.924
34.1604 -114.922 0 199.546 248.849
268.46 -81.1534 0 439.635 236.523
79.4569 26.9924 0 250.681 384.232
86.5185 89.1818 0 261.248 443.175
-1.75304 -14.8464 0 168.09 349.187
3 42 41 43
3 38 37 36
3 43 41 44
3 40 46 45
3 40 45 44
3 41 40 44
3 5 3 2
3 1 261 2
3 39 35 34
3 39 38 35
3 39 34 46
3 46 40 39
3 35 38 36
3 33 46 34
3 46 33 47
3 30 49 48
3 50 49 29
3 27 52 51
3 27 53 52
3 28 51 50
3 31 48 47
3 31 30 48
3 28 50 29
3 30 29 49
3 54 56 55
3 54 53 56
3 56 53 27
3 28 27 51
3 56 27 26
3 31 47 32
3 33 32 47
3 0 260 261
3 7 6 256
3 6 5 261
3 264 13 12
3 2 261 5
3 4 3 5
3 9 8 7
3 6 261 258
3 257 256 6
3 256 253 7
3 253 256 255
3 10 9 252
3 10 252 251
3 253 252 9
3 7 253 9
3 257 6 258
3 16 15 14
3 16 14 263
3 263 17 16
3 57 26 25
3 58 25 24
3 14 13 263
3 17 263 18
3 264 11 250
3 11 264 12
3 21 20 271
3 61 60 269
3 263 19 18
3 23 269 24
3 250 11 251
3 19 263 20
3 10 251 11
3 56 26 57
3 22 21 262
3 0 261 1
3 246 245 271
3 23 22 269
3 107 87 86
3 107 86 108
3 86 85 108
3 105 90 89
3 89 88 106
3 107 88 87
3 107 106 88
3 85 84 109
3 76 75 74
3 77 76 74
3 110 109 84
3 85 109 108
3 84 83 110
3 82 111 83
3 82 81 112
3 95 93 92
3 92 91 95
3 91 90 104
3 104 95 91
3 95 94 93
3 103 97 96
3 95 104 96
3 96 104 103
3 102 97 103
3 90 105 104
3 102 98 97
3 99 98 101
3 101 100 99
3 98 102 101
3 89 106 105
3 59 58 60
3 57 25 58
3 289 70 69
3 282 265 72
3 289 282 70
3 60 58 269
3 63 275 64
3 275 63 285
3 67 66 68
3 68 66 289
3 270 65 64
3 173 172 275
3 24 269 58
3 289 274 282
3 73 72 265
3 78 265 281
3 265 78 77
3 81 80 276
3 83 111 110
3 79 78 276
3 82 112 111
3 119 118 281
3 77 74 73
3 276 281 116
3 281 120 119
3 276 78 281
3 276 112 81
3 112 276 113
3 113 276 114
3 114 276 115
3 265 120 281
3 282 71 70
3 275 270 64
3 255 254 253
3 264 250 249
3 248 264 249
3 264 247 246
3 271 245 244
3 271 263 264
3 271 264 246
3 243 242 273
3 273 241 268
3 241 240 239
3 273 242 241
3 268 239 238
3 236 235 266
3 268 266 283
3 241 239 268
3 283 266 174
3 266 176 175
3 177 176 266
3 234 178 266
3 266 178 177
3 283 174 173
3 284 172 171
3 283 285 262
3 266 235 234
3 179 234 233
3 232 231 181
3 180 233 232
3 179 233 180
3 181 180 232
3 182 181 231
3 230 267 231
3 234 179 178
3 284 171 170
3 222 221 218
3 221 219 218
3 219 221 220
3 223 222 217
3 216 224 223
3 226 225 214
3 215 225 224
3 222 218 217
3 216 215 224
3 217 216 223
3 226 214 277
3 277 212 211
3 277 214 213
3 215 214 225
3 277 211 210
3 182 231 267
3 278 286 203
3 227 277 228
3 207 272 208
3 184 278 185
3 184 183 278
3 201 200 278
3 278 199 198
3 226 277 227
3 272 207 206
3 208 272 277
3 206 205 286
3 273 262 21
3 205 204 286
3 267 183 182
3 203 202 278
3 206 286 272
3 273 21 271
3 208 277 209
3 277 210 209
3 169 168 270
3 270 284 169
3 270 168 274
3 163 279 164
3 165 287 166
3 165 164 287
3 287 120 274
3 284 170 169
3 163 162 279
3 160 288 162
3 279 288 122
3 161 160 162
3 158 280 159
3 160 280 288
3 287 164 279
3 158 156 280
3 124 123 288
3 280 160 159
3 288 280 125
3 153 129 128
3 129 152 130
3 128 127 154
3 126 155 127
3 154 127 155
3 130 152 131
3 153 128 154
3 132 131 151
3 150 133 132
3 133 149 134
3 134 148 135
3 153 152 129
3 126 280 155
3 156 155 280
3 158 157 156
3 194 189 188
3 187 195 188
3 194 190 189
3 192 190 193
3 190 192 191
3 193 190 194
3 196 187 186
3 186 185 197
3 197 185 198
3 278 198 185
3 196 195 187
3 194 188 195
3 197 196 186
3 151 150 132
3 149 133 150
3 134 149 148
3 140 137 136
3 137 139 138
3 147 136 135
3 148 147 135
3 131 152 151
3 147 146 140
3 145 144 142
3 146 145 141
3 139 137 140
3 145 142 141
3 141 140 146
3 143 142 144
3 140 136 147
3 260 259 261
3 199 278 200
3 258 261 259
3 247 264 248
3 13 264 263
3 73 265 77
3 72 71 282
3 174 266 175
3 237 236 266
3 272 230 229
3 204 203 286
3 238 237 268
3 266 268 237
3 22 262 269
3 283 262 268
3 168 167 274
3 66 65 270
3 271 244 243
3 20 263 271
3 230 272 267
3 228 272 229
3 262 273 268
3 243 273 271
3 287 167 166
3 282 120 265
3 62 285 63
3 62 61 285
3 79 276 80
3 116 115 276
3 277 272 228
3 213 212 277
3 267 278 183
3 202 201 278
3 122 121 279
3 279 121 120
3 126 125 280
3 288 125 124
3 118 117 281
3 281 117 116
3 289 69 68
3 120 282 274
3 173 275 283
3 283 275 285
3 270 275 284
3 172 284 275
3 61 269 285
3 262 285 269
3 278 267 286
3 272 286 267
3 120 287 279
3 167 287 274
3 122 288 123
3 288 279 162
3 274 289 270
3 66 270 289
