ply
format ascii 1.0
element vertex 290
property float x
property float y
property float z
property float u
property float v
element face 317
property list uchar int vertex_indices
end_header
29.0279 -374.233 0 147.636 8.36396
19.5514 -365.155 0 139.979 19.0208
16.9808 -351.212 0 140 33.201
18.1279 -337.29 0 143.678 46.6777
29.5243 -331.789 0 155.887 50
36.7897 -342.876 0 161 37.7695
42.7272 -341.973 0 167 37.5736
47.505 -329.373 0 174 49.0883
50.8197 -315.911 0 179.719 61.7193
63.4646 -318.359 0 191.704 57
67.9023 -307.74 0 198 66.6324
70.4639 -294.116 0 203 79.5613
62.323 -287.275 0 196.239 87.7609
50.6145 -280.273 0 186 96.7624
39.2102 -273.073 0 176.097 105.903
28.4605 -264.815 0 167.026 115.974
31.0094 -252.313 0 171.803 127.803
29.5239 -243.162 0 172 137.064
33.2604 -230.336 0 177.995 148.995
38.0316 -217.175 0 185.066 161.066
47.0325 -206.572 0 195.844 169.844
52.4075 -193.473 0 203.622 181.622
46.5013 -188.638 0 199.605 187
32.7996 -194.516 0 186.185 183.185
19.0144 -200.983 0 172.919 179
4.04166 -207.81 0 159.407 175.407
-11.7336 -213.164 0 145.818 174
-25.2797 -224.229 0 134 166.718
-30.164 -240.65 0 130.265 153.265
-35.362 -256.647 0 126 140.032
-41.3211 -272.375 0 121 127.103
-46.3502 -288.254 0 116.83 113.83
-52.2079 -302.818 0 111 101.245
-58.3482 -317.235 0 104.809 88.8092
-65.8249 -330.978 0 97.031 77.031
-71.4612 -343.951 0 90 64.9434
-74.6134 -352.51 0 85.8385 56.8385
-83.205 -355.088 0 77 55.3289
-81.3085 -341.611 0 80.5247 68.4753
-79.662 -335.02 0 83 74.8438
-93.3481 -332.483 0 69.8678 79.1322
-101.982 -340.728 0 60.2982 72
-110.869 -348.312 0 50.554 65.554
-113.437 -340.144 0 49 73.9741
-108.861 -328.155 0 55 85.3173
-101.973 -316.258 0 63.2955 96.2955
-90.1589 -309.091 0 75.9327 102
-78.0161 -297.781 0 86 109.276
-74.9502 -280.886 0 88 123.448
-71.6325 -264.379 0 90.4379 137.438
-69.1667 -248.483 0 92 150.963
-66.4413 -231.981 0 94 165.134
-63.7302 -216.686 0 97 178.892
-60.5508 -202.129 0 101 192.235
-56.3999 -188.189 0 106.116 205.116
-50.4196 -175.52 0 113.265 217
-42.856 -178.224 0 120.43 213.43
-28.6342 -168.791 0 133.087 219.087
-15.0233 -158.908 0 145 225.052
-11.6094 -151.042 0 148.809 232
1.15231 -145.532 0 161.694 235.694
9.12276 -134.844 0 170 244.081
9.14505 -119.898 0 171 257.839
9.12724 -104.408 0 172 272.425
11.471 -89.3205 0 175 286.182
5.75746 -76.2822 0 169.921 299.079
0.117712 -63.5089 0 165 312.04
-12.0554 -60.2145 0 153.031 316
-18.7492 -48.0934 0 147 328.484
-26.3755 -37.0444 0 140.001 339.999
-35.3844 -26.2856 0 131.516 351.484
-43.7303 -15.2597 0 123.737 363.263
-51.4183 -4.16032 0 116.666 375.334
-60.7514 6.28908 0 108.181 386.819
-69.9551 17.2766 0 99.6956 398.304
-80.3894 27.5389 0 89.7115 409
-74.1544 33.7989 0 96.2175 415
-61.054 38.3177 0 109.561 419
-58.3088 47.9197 0 113 429.49
-63.2088 60.0385 0 109 442.833
-66.003 73.5674 0 107 457.005
-69.4429 86.003 0 104 470.762
-80.0602 92.5293 0 92.9758 480.024
-90.0322 99.3809 0 82.0762 489.924
-100.679 104.064 0 70.298 497.702
-109.902 111.3 0 60.1059 507.894
-118.219 119.692 0 50.9132 519.087
-126.205 128.109 0 42.5491 529.451
-132.294 138.649 0 36.1849 541.815
-138.584 148.142 0 29 553.839
-144.83 157.114 0 21.7498 565.25
-152.232 167.325 0 13.9716 577.028
-159.848 178.247 0 6.60748 588.393
-163.788 191.588 0 3 601.898
-161.389 201.741 0 5.65576 612
-148.723 196.049 0 18.1705 606
-136.193 202.808 0 29.8989 613.899
-125.648 212.742 0 41.129 623
-114.787 222.236 0 52.4011 632
-102.833 229.397 0 64.6477 638.648
-93.5634 230.079 0 73.938 638.938
-101.161 218.678 0 65.8669 627.867
-107.514 206.249 0 59 615.711
-112.199 193.277 0 53.8459 602.846
-117.581 181.458 0 49 589.853
-114.711 174.416 0 53.4191 580
-104.977 167.957 0 64.4886 570.511
-95.3067 161.71 0 75.5491 561
-85.6147 155.401 0 86.5804 551.42
-75.8421 148.589 0 97.4802 541.52
-65.899 142.176 0 108.537 532
-55.9564 135.74 0 119.572 522.428
-45.2973 131.979 0 131.643 515.357
-33.2293 129.31 0 144.593 510.407
-21.5104 122.918 0 156 502.475
-13.58 111.814 0 163 490.374
-5.5306 101.064 0 170.514 478.486
4.3187 91.4481 0 180 467.416
13.5498 81.0524 0 188.191 455.809
21.7785 70.1032 0 195.262 443.738
32.6804 63.1962 0 206.057 435
42.3143 75.0424 0 216.526 444.526
52.6504 86.5653 0 227.602 454
63.0688 97.3781 0 238.911 462.911
73.811 107.274 0 250.56 471
84.9155 117.679 0 262.174 479.174
97.1763 127.935 0 274.245 486.245
102.615 143.781 0 280 498.862
106.243 160.857 0 284 512.205
109.844 177.889 0 288 525.548
114.138 193.442 0 293 538.477
119.472 208.698 0 298.995 550.995
126.969 224.553 0 306.773 562.773
134.471 240.491 0 314.551 574.551
143.408 255.994 0 323.743 585.743
151.537 271.66 0 332.229 597.229
160.101 286.251 0 341.421 608.421
168.584 298.635 0 351 618.867
177.884 308.044 0 361.382 627
183.959 303.81 0 366.861 622
185.733 292.983 0 367.169 610.831
200.629 294.646 0 380.582 607
214.512 292.756 0 394.339 604
227.228 286.823 0 406.311 596.689
225.955 277.909 0 404.046 588
211.542 275.141 0 389.46 587
196.697 270.755 0 374.874 586
183.253 262.942 0 361.961 583.039
177.405 247.964 0 356 572.431
173.817 230.735 0 352 559.088
170.757 213.384 0 348.527 545.527
166.584 196.356 0 344 532.403
161.822 179.175 0 339 519.474
158.195 161.656 0 335.093 506.093
154.46 144.506 0 331 492.789
153.853 127.054 0 330 479.032
155.977 110.669 0 331 464.446
161.825 99.051 0 336 452.689
153.007 90.0985 0 326.538 444.538
144.777 77.6251 0 317.345 433.345
135.102 66.1811 0 306.86 423.86
139.659 60.4321 0 311 418.459
132.491 48.173 0 303 407.358
125.121 34.4944 0 294.768 395.768
118.171 21.0322 0 286.99 383.99
110.355 8.11817 0 278.505 372.505
102.604 -4.26631 0 270 361.027
94.235 -16.8289 0 261 349.755
89.2598 -29.9145 0 255.998 338
92.0702 -41.4835 0 259 326.483
96.6428 -54.2891 0 263 313.141
100.645 -67.4821 0 266 299.384
104.475 -80.6173 0 269 285.626
108.583 -92.8193 0 273 272.284
119.435 -98.0456 0 284.578 264.422
131.741 -98.8512 0 297.331 261
145.407 -95.0456 0 311.917 262
155.64 -96.6346 0 322 258.155
165.725 -102.183 0 331.188 250
177.377 -96.1858 0 344.531 252
191.103 -92.3036 0 359.117 251
204.794 -88.1583 0 373.703 250
218.313 -85.0484 0 387.874 248
216.883 -71.9241 0 391 260.459
211.834 -57.6949 0 391 275.459
206.042 -44.2516 0 390 290.047
201.073 -30.1043 0 390 305.044
195.294 -16.6697 0 389 319.633
190.328 -2.51612 0 389 334.633
184.552 10.9128 0 388 349.217
179.586 25.0672 0 388 364.217
175.986 38.3911 0 389.018 377.982
181.255 38.4265 0 394 376.269
183.318 26.5078 0 392 364.34
189.898 13.7985 0 394 350.169
199.333 3.64395 0 399.537 337.463
211.712 -3.87218 0 408.73 326.27
225.372 -7.84003 0 420.304 318
239.134 -9.98633 0 432.579 311.421
252.854 -12.6645 0 444.649 304.351
266.534 -16.0962 0 456.428 296.572
277.406 -24.213 0 464 285.295
286.391 -34.7191 0 469 272.366
292.917 -47.3259 0 471 258.194
298.624 -60.6488 0 472 243.608
303.305 -74.0033 0 472 229.438
308.242 -86.2132 0 472.64 216.36
313.503 -99.4242 0 473.238 202.238
315.849 -111.912 0 471.297 189.703
321.42 -125.531 0 471.996 174.996
323.382 -139.508 0 469.168 161.168
321.523 -153.292 0 462.804 148.804
313.79 -164.606 0 451.733 140.733
304.532 -175.038 0 439.522 134
295.469 -185.68 0 427.422 127
288.032 -197.319 0 416.52 118.52
283.879 -210.978 0 408.035 107.035
284.314 -224.878 0 403.792 93.7925
288.194 -238.19 0 403 79.9492
294.068 -248.763 0 405 68.0205
292.354 -256.578 0 400.772 61.2279
284.307 -245.176 0 397 74.6653
278.487 -231.762 0 396 89.2529
273.471 -217.628 0 396 104.253
267.646 -204.222 0 395 118.836
262.628 -190.085 0 395 133.837
257.608 -175.947 0 395 148.837
251.786 -162.532 0 394 163.422
246.762 -148.387 0 394 178.422
240.933 -134.995 0 393 193.009
235.885 -120.968 0 393 208.01
225.49 -116.778 0 384.873 215.873
211.718 -123.195 0 370.234 215
197.926 -129.411 0 355.649 214
184 -135.43 0 341.063 213
177.245 -144.811 0 332.72 206
162.857 -149.376 0 318.135 205
151.956 -158.439 0 306.439 198.439
146.748 -171.669 0 299.367 186.367
143.883 -183.747 0 294.581 175
150.918 -190.499 0 300.319 167
138.598 -192.976 0 287.862 166.862
136.824 -205.978 0 284 154.29
132.129 -219.164 0 277.134 142.134
127.221 -232.261 0 270 130.09
123.503 -243.978 0 264.235 119.235
120.276 -256.126 0 258.871 107.871
114.446 -267.944 0 251 97.303
108.414 -280.828 0 242.729 85.7291
100.243 -292.704 0 232.536 75.5365
87.0514 -297.423 0 218.708 73.2917
76.1799 -302.729 0 207.052 70.0515
71.444 -315.889 0 200 57.9727
78.884 -324.647 0 205.713 48
85.9207 -333.566 0 211 37.9436
84.7164 -338.034 0 209 33.7725
81.5719 -348.547 0 203.989 24.0107
76.3957 -358.614 0 197.061 15.061
68.3422 -366.276 0 187.744 9
56.9545 -373.19 0 175.283 4.28345
41.5467 -379.393 0 159 1
42.5413 -360.697 0 163.397 19.2
67.6239 -172.116 0 222.418 199.851
55.201 -243.689 0 197.158 131.895
83.456 -270.383 0 220.087 100.537
-18.5088 33.0569 0 151.861 410.94
145.794 -124.695 0 306.586 232.878
241.387 -95.698 0 406.468 230.06
107.524 -169.643 0 261.32 195.618
30.3087 -160.112 0 188.497 217.457
47.0537 -51.3268 0 212.946 320.627
89.4236 -226.807 0 233.86 142.326
276.55 -112.908 0 433.92 201.91
111.178 -196.472 0 260.625 168.349
54.9219 -11.1084 0 222.394 359.242
59.2361 -102.916 0 221.899 268.749
-37.2407 89.3161 0 136.779 470.704
293.611 -142.513 0 440.11 168.305
250.308 -52.131 0 429.173 267.959
80.8948 49.422 0 251.883 414.403
114.797 96.4599 0 288.938 454.209
-4.54997 58.2882 0 167.384 435.514
-12.0051 -0.371713 0 156.203 376.245
96.5987 -131.317 0 256.529 235.57
70.3317 -70.1266 0 235.437 299.924
38.3464 -126.327 0 199.546 248.849
270.421 -78.0265 0 439.635 236.523
81.7766 17.6775 0 250.681 384.232
87.9116 80.8901 0 261.248 443.175
1.10492 -26.1818 0 168.09 349.187
3 42 41 43
3 38 37 36
3 43 41 44
3 40 46 45
3 40 45 44
3 41 40 44
3 5 3 2
3 1 261 2
3 39 35 34
3 39 38 35
3 39 34 46
3 46 40 39
3 35 38 36
3 33 46 34
3 46 33 47
3 30 49 48
3 50 49 29
3 27 52 51
3 27 53 52
3 28 51 50
3 31 48 47
3 31 30 48
3 28 50 29
3 30 29 49
3 54 56 55
3 54 53 56
3 56 53 27
3 28 27 51
3 56 27 26
3 31 47 32
3 33 32 47
3 0 260 261
3 7 6 256
3 6 5 261
3 264 13 12
3 2 261 5
3 4 3 5
3 9 8 7
3 6 261 258
3 257 256 6
3 256 253 7
3 253 256 255
3 10 9 252
3 10 252 251
3 253 252 9
3 7 253 9
3 257 6 258
3 16 15 14
3 16 14 263
3 263 17 16
3 57 26 25
3 58 25 24
3 14 13 263
3 17 263 18
3 264 11 250
3 11 264 12
3 21 20 271
3 61 60 269
3 263 19 18
3 23 269 24
3 250 11 251
3 19 263 20
3 10 251 11
3 56 26 57
3 22 21 262
3 0 261 1
3 246 245 271
3 23 22 269
3 107 87 86
3 107 86 108
3 86 85 108
3 105 90 89
3 89 88 106
3 107 88 87
3 107 106 88
3 85 84 109
3 76 75 74
3 77 76 74
3 110 109 84
3 85 109 108
3 84 83 110
3 82 111 83
3 82 81 112
3 95 93 92
3 92 91 95
3 91 90 104
3 104 95 91
3 95 94 93
3 103 97 96
3 95 104 96
3 96 104 103
3 102 97 103
3 90 105 104
3 102 98 97
3 99 98 101
3 101 100 99
3 98 102 101
3 89 106 105
3 59 58 60
3 57 25 58
3 289 70 69
3 282 265 72
3 289 282 70
3 60 58 269
3 63 275 64
3 275 63 285
3 67 66 68
3 68 66 289
3 270 65 64
3 173 172 275
3 24 269 58
3 289 274 282
3 73 72 265
3 78 265 281
3 265 78 77
3 81 80 276
3 83 111 110
3 79 78 276
3 82 112 111
3 119 118 281
3 77 74 73
3 276 281 116
3 281 120 119
3 276 78 281
3 276 112 81
3 112 276 113
3 113 276 114
3 114 276 115
3 265 120 281
3 282 71 70
3 275 270 64
3 255 254 253
3 264 250 249
3 248 264 249
3 264 247 246
3 271 245 244
3 271 263 264
3 271 264 246
3 243 242 273
3 273 241 268
3 241 240 239
3 273 242 241
3 268 239 238
3 236 235 266
3 268 266 283
3 241 239 268
3 283 266 174
3 266 176 175
3 177 176 266
3 234 178 266
3 266 178 177
3 283 174 173
3 284 172 171
3 283 285 262
3 266 235 234
3 179 234 233
3 232 231 181
3 180 233 232
3 179 233 180
3 181 180 232
3 182 181 231
3 230 267 231
3 234 179 178
3 284 171 170
3 222 221 218
3 221 219 218
3 219 221 220
3 223 222 217
3 216 224 223
3 226 225 214
3 215 225 224
3 222 218 217
3 216 215 224
3 217 216 223
3 226 214 277
3 277 212 211
3 277 214 213
3 215 214 225
3 277 211 210
3 182 231 267
3 278 286 203
3 227 277 228
3 207 272 208
3 184 278 185
3 184 183 278
3 201 200 278
3 278 199 198
3 226 277 227
3 272 207 206
3 208 272 277
3 206 205 286
3 273 262 21
3 205 204 286
3 267 183 182
3 203 202 278
3 206 286 272
3 273 21 271
3 208 277 209
3 277 210 209
3 169 168 270
3 270 284 169
3 270 168 274
3 163 279 164
3 165 287 166
3 165 164 287
3 287 120 274
3 284 170 169
3 163 162 279
3 160 288 162
3 279 288 122
3 161 160 162
3 158 280 159
3 160 280 288
3 287 164 279
3 158 156 280
3 124 123 288
3 280 160 159
3 288 280 125
3 153 129 128
3 129 152 130
3 128 127 154
3 126 155 127
3 154 127 155
3 130 152 131
3 153 128 154
3 132 131 151
3 150 133 132
3 133 149 134
3 134 148 135
3 153 152 129
3 126 280 155
3 156 155 280
3 158 157 156
3 194 189 188
3 187 195 188
3 194 190 189
3 192 190 193
3 190 192 191
3 193 190 194
3 196 187 186
3 186 185 197
3 197 185 198
3 278 198 185
3 196 195 187
3 194 188 195
3 197 196 186
3 151 150 132
3 149 133 150
3 134 149 148
3 140 137 136
3 137 139 138
3 147 136 135
3 148 147 135
3 131 152 151
3 147 146 140
3 145 144 142
3 146 145 141
3 139 137 140
3 145 142 141
3 141 140 146
3 143 142 144
3 140 136 147
3 260 259 261
3 199 278 200
3 258 261 259
3 247 264 248
3 13 264 263
3 73 265 77
3 72 71 282
3 174 266 175
3 237 236 266
3 272 230 229
3 204 203 286
3 238 237 268
3 266 268 237
3 22 262 269
3 283 262 268
3 168 167 274
3 66 65 270
3 271 244 243
3 20 263 271
3 230 272 267
3 228 272 229
3 262 273 268
3 243 273 271
3 287 167 166
3 282 120 265
3 62 285 63
3 62 61 285
3 79 276 80
3 116 115 276
3 277 272 228
3 213 212 277
3 267 278 183
3 202 201 278
3 122 121 279
3 279 121 120
3 126 125 280
3 288 125 124
3 118 117 281
3 281 117 116
3 289 69 68
3 120 282 274
3 173 275 283
3 283 275 285
3 270 275 284
3 172 284 275
3 61 269 285
3 262 285 269
3 278 267 286
3 272 286 267
3 120 287 279
3 167 287 274
3 122 288 123
3 288 279 162
3 274 289 270
3 66 270 289
