ply
format ascii 1.0
element vertex 290
property float x
property float y
property float z
property float u
property float v
element face 317
property list uchar int vertex_indices
end_header
33.6939 -377.793 0 147.636 8.36396
24.1013 -368.838 0 139.979 19.0208
21.3514 -354.93 0 140 33.201
22.3193 -340.994 0 143.678 46.6777
33.6439 -335.347 0 155.887 50
41.0514 -346.339 0 161 37.7695
46.9768 -345.36 0 167 37.5736
51.592 -332.7 0 174 49.0883
54.7331 -319.196 0 179.719 61.7193
67.4085 -321.481 0 191.704 57
71.7092 -310.805 0 198 66.6324
74.0954 -297.149 0 203 79.5613
65.867 -290.414 0 196.239 87.7609
54.069 -283.562 0 186 96.7624
42.5725 -276.508 0 176.097 105.903
31.7178 -268.389 0 167.026 115.974
34.106 -255.855 0 171.803 127.803
32.5033 -246.724 0 172 137.064
36.0752 -233.851 0 177.995 148.995
40.6774 -220.629 0 185.066 161.066
49.5404 -209.911 0 195.844 169.844
54.7339 -196.737 0 203.622 181.622
48.6809 -191.962 0 199.605 187
34.953 -197.994 0 186.185 183.185
21.1272 -204.632 0 172.919 179
6.04297 -211.714 0 159.407 175.407
-9.89396 -217.38 0 145.818 174
-23.5746 -228.748 0 134 166.718
-28.5634 -245.419 0 130.265 153.265
-33.8494 -261.646 0 126 140.032
-39.8986 -277.607 0 121 127.103
-45.0122 -293.704 0 116.83 113.83
-50.8916 -308.424 0 111 101.245
-57.0481 -322.996 0 104.809 88.8092
-64.5212 -336.885 0 97.031 77.031
-70.0715 -349.91 0 90 64.9434
-73.1607 -358.493 0 85.8385 56.8385
-81.733 -361.134 0 77 55.3289
-79.937 -347.645 0 80.5247 68.4753
-78.3425 -341.044 0 83 74.8438
-92.0578 -338.619 0 69.8678 79.1322
-100.631 -346.928 0 60.2982 72
-109.46 -354.578 0 50.554 65.554
-112.089 -346.429 0 49 73.9741
-107.603 -334.407 0 55 85.3173
-100.804 -322.459 0 63.2955 96.2955
-89.0467 -315.207 0 75.9327 102
-76.7384 -303.575 0 86 109.276
-73.5701 -286.449 0 88 123.448
-70.1653 -269.729 0 90.4379 137.438
-67.6115 -253.63 0 92 150.963
-64.8112 -236.93 0 94 165.134
-62.1037 -221.513 0 97 178.892
-58.9697 -206.867 0 101 192.235
-54.8783 -192.852 0 106.116 205.116
-48.9755 -180.133 0 113.265 217
-41.3875 -182.778 0 120.43 213.43
-27.0457 -173.048 0 133.087 219.087
-13.3053 -162.856 0 145 225.052
-9.91803 -154.924 0 148.809 232
2.83217 -149.288 0 161.694 235.694
10.7732 -138.435 0 170 244.081
10.7216 -123.405 0 171 257.839
10.6265 -107.851 0 172 272.425
12.9149 -92.6619 0 175 286.182
7.15475 -79.6078 0 169.921 299.079
1.46619 -66.8448 0 165 312.04
-10.7193 -63.5961 0 153.031 316
-17.4579 -51.5008 0 147 328.484
-25.1255 -40.4845 0 140.001 339.999
-34.1664 -29.7774 0 131.516 351.484
-42.5475 -18.807 0 123.737 363.263
-50.2729 -7.78225 0 116.666 375.334
-59.6624 2.58397 0 108.181 386.819
-68.9178 13.5323 0 99.6956 398.304
-79.3833 23.7632 0 89.7115 409
-73.1677 30.0409 0 96.2175 415
-60.0858 34.5952 0 109.561 419
-57.3896 44.1191 0 113 429.49
-62.3588 56.1331 0 109 442.833
-65.2149 69.6042 0 107 457.005
-68.6915 81.9261 0 104 470.762
-79.2861 88.231 0 92.9758 480.024
-89.1976 94.8439 0 82.0762 489.924
-99.7674 99.2835 0 70.298 497.702
-108.931 106.289 0 60.1059 507.894
-117.198 114.462 0 50.9132 519.087
-125.17 122.723 0 42.5491 529.451
-131.256 133.118 0 36.1849 541.815
-137.498 142.416 0 29 553.839
-143.688 151.203 0 21.7498 565.25
-151.08 161.292 0 13.9716 577.028
-158.73 172.175 0 6.60748 588.393
-162.707 185.502 0 3 601.898
-160.334 195.66 0 5.65576 612
-147.654 190 0 18.1705 606
-135.081 196.692 0 29.8989 613.899
-124.602 206.701 0 41.129 623
-113.785 216.246 0 52.4011 632
-101.864 223.462 0 64.6477 638.648
-92.5974 224.186 0 73.938 638.938
-100.143 212.751 0 65.8669 627.867
-106.44 200.293 0 59 615.711
-111.071 187.307 0 53.8459 602.846
-116.475 175.565 0 49 589.853
-113.708 168.732 0 53.4191 580
-104.063 162.51 0 64.4886 570.511
-94.4833 156.518 0 75.5491 561
-84.8782 150.462 0 86.5804 551.42
-75.1763 143.89 0 97.4802 541.52
-65.3037 137.718 0 108.537 532
-55.43 131.524 0 119.572 522.428
-44.8684 128.015 0 131.643 515.357
-32.8679 125.523 0 144.593 510.407
-21.1202 119.26 0 156 502.475
-13.1068 108.238 0 163 490.374
-5.00507 97.5721 0 170.514 478.486
4.87582 88.0641 0 180 467.416
14.189 77.7634 0 188.191 455.809
22.5076 66.8998 0 195.262 443.738
33.4206 60.1219 0 206.057 435
42.9977 72.1443 0 216.526 444.526
53.2837 83.8214 0 227.602 454
63.6415 94.7724 0 238.911 462.911
74.3221 104.794 0 250.56 471
85.3938 115.359 0 262.174 479.174
97.6694 125.856 0 274.245 486.245
103.092 141.957 0 280 498.862
106.699 159.329 0 284 512.205
110.277 176.653 0 288 525.548
114.532 192.406 0 293 538.477
119.829 207.87 0 298.995 550.995
127.312 224.038 0 306.773 562.773
134.8 240.294 0 314.551 574.551
143.724 256.123 0 323.743 585.743
151.836 272.106 0 332.229 597.229
160.368 286.946 0 341.421 608.421
168.791 299.455 0 351 618.867
178.029 308.929 0 361.382 627
184.133 304.74 0 366.861 622
185.986 293.943 0 367.169 610.831
200.96 296.01 0 380.582 607
214.844 294.162 0 394.339 604
227.594 288.301 0 406.311 596.689
226.371 279.378 0 404.046 588
211.973 276.517 0 389.46 587
197.117 271.905 0 374.874 586
183.648 263.741 0 361.961 583.039
177.804 248.429 0 356 572.431
174.238 230.897 0 352 559.088
171.199 213.25 0 348.527 545.527
167.044 195.918 0 344 532.403
162.295 178.405 0 339 519.474
158.684 160.562 0 335.093 506.093
154.97 143.111 0 331 492.789
154.386 125.364 0 330 479.032
156.581 108.842 0 331 464.446
162.475 97.2278 0 336 452.689
153.696 88.2307 0 326.538 444.538
145.527 75.6781 0 317.345 433.345
135.911 64.103 0 306.86 423.86
140.498 58.3242 0 311 418.459
133.386 45.9874 0 303 407.358
126.082 32.1602 0 294.768 395.768
119.195 18.5794 0 286.99 383.99
111.43 5.5654 0 278.505 372.505
103.732 -6.87901 0 270 361.027
95.4153 -19.5331 0 261 349.755
90.4526 -32.7237 0 255.998 338
93.2509 -44.3077 0 259 326.483
97.8591 -57.0774 0 263 313.141
101.928 -70.2276 0 266 299.384
105.811 -83.3179 0 269 285.626
109.917 -95.4469 0 273 272.284
120.696 -100.499 0 284.578 264.422
132.95 -101.124 0 297.331 261
146.524 -97.1199 0 311.917 262
156.75 -98.5413 0 322 258.155
166.887 -103.891 0 331.188 250
178.393 -97.6154 0 344.531 252
192.03 -93.3723 0 359.117 251
205.623 -88.8447 0 373.703 250
219.054 -85.3532 0 387.874 248
217.273 -72.2492 0 391 260.459
211.844 -58.1572 0 391 275.459
205.692 -44.8746 0 390 290.047
200.343 -30.8668 0 390 305.044
194.203 -17.5931 0 389 319.633
188.857 -3.5788 0 389 334.633
182.72 9.68926 0 388 349.217
177.374 23.7043 0 388 364.217
173.415 36.9261 0 389.018 377.982
178.682 37.1038 0 394 376.269
181.066 25.2452 0 392 364.34
187.987 12.7183 0 394 350.169
197.692 2.82212 0 399.537 337.463
210.27 -4.35707 0 408.73 326.27
224.033 -7.95469 0 420.304 318
237.848 -9.72936 0 432.579 311.421
251.635 -12.037 0 444.649 304.351
265.403 -15.0983 0 456.428 296.572
276.489 -22.9181 0 464 285.295
285.754 -33.176 0 469 272.366
292.619 -45.5958 0 471 258.194
298.682 -58.754 0 472 243.608
303.72 -71.9785 0 472 229.438
308.976 -84.0609 0 472.64 216.36
314.585 -97.1348 0 473.238 202.238
317.264 -109.558 0 471.297 189.703
323.199 -123.022 0 471.996 174.996
325.538 -136.941 0 469.168 161.168
324.052 -150.77 0 462.804 148.804
316.626 -162.289 0 451.733 140.733
307.652 -172.967 0 439.522 134
298.879 -183.85 0 427.422 127
291.759 -195.684 0 416.52 118.52
287.976 -209.451 0 408.035 107.035
288.785 -223.334 0 403.792 93.7925
293.023 -236.536 0 403 79.9492
299.18 -246.947 0 405 68.0205
297.678 -254.806 0 400.772 61.2279
289.326 -243.624 0 397 74.6653
283.146 -230.372 0 396 89.2529
277.751 -216.379 0 396 104.253
271.567 -203.134 0 395 118.836
266.169 -189.138 0 395 133.837
260.77 -175.14 0 395 148.837
254.588 -161.887 0 394 163.422
249.183 -147.882 0 394 178.422
242.991 -134.653 0 393 193.009
237.556 -120.778 0 393 208.01
227.012 -116.913 0 384.873 215.873
213.336 -123.756 0 370.234 215
199.628 -130.37 0 355.649 214
185.768 -136.773 0 341.063 213
179.135 -146.328 0 332.72 206
164.786 -151.164 0 318.135 205
153.952 -160.415 0 306.439 198.439
148.877 -173.725 0 299.367 186.367
146.15 -185.845 0 294.581 175
153.266 -192.5 0 300.319 167
140.971 -195.145 0 287.862 166.862
139.341 -208.167 0 284 154.29
134.803 -221.414 0 277.134 142.134
130.057 -234.571 0 270 130.09
126.488 -246.334 0 264.235 119.235
123.416 -258.523 0 258.871 107.871
117.738 -270.415 0 251 97.303
111.872 -283.375 0 242.729 85.7291
103.854 -295.356 0 232.536 75.5365
90.7241 -300.243 0 218.708 73.2917
79.9218 -305.689 0 207.052 70.0515
75.3555 -318.909 0 200 57.9727
82.9076 -327.57 0 205.713 48
90.0585 -336.398 0 211 37.9436
88.9118 -340.881 0 209 33.7725
85.9029 -351.434 0 203.989 24.0107
80.8567 -361.566 0 197.061 15.061
72.9025 -369.331 0 187.744 9
61.6047 -376.392 0 175.283 4.28345
46.2781 -382.793 0 159 1
47.0318 -364.085 0 163.397 19.2
69.6758 -175.188 0 222.418 199.851
58.1851 -246.922 0 197.158 131.895
86.7815 -273.252 0 220.087 100.537
-17.5296 29.5434 0 151.861 410.94
147.345 -126.764 0 306.586 232.878
242.392 -95.3716 0 406.468 230.06
109.618 -172.225 0 261.32 195.618
32.1389 -163.604 0 188.497 217.457
48.3198 -54.4191 0 212.946 320.627
92.1898 -229.604 0 233.86 142.326
278.007 -111.614 0 433.92 201.91
113.566 -199 0 260.625 168.349
56.0728 -14.0746 0 222.394 359.242
60.7288 -105.994 0 221.899 268.749
-36.5389 85.5172 0 136.779 470.704
295.858 -140.748 0 440.11 168.305
250.154 -51.558 0 429.173 267.959
81.7818 46.8495 0 251.883 414.403
115.46 94.3975 0 288.938 454.209
-3.68847 54.8225 0 167.384 435.514
-10.8788 -3.78422 0 156.203 376.245
98.2646 -134.054 0 256.529 235.57
71.6443 -73.0933 0 235.437 299.924
39.9609 -129.655 0 199.546 248.849
270.958 -76.8804 0 439.635 236.523
82.8108 14.9841 0 250.681 384.232
88.6369 78.5152 0 261.248 443.175
2.30838 -29.5066 0 168.09 349.187
3 42 41 43
3 38 37 36
3 43 41 44
3 40 46 45
3 40 45 44
3 41 40 44
3 5 3 2
3 1 261 2
3 39 35 34
3 39 38 35
3 39 34 46
3 46 40 39
3 35 38 36
3 33 46 34
3 46 33 47
3 30 49 48
3 50 49 29
3 27 52 51
3 27 53 52
3 28 51 50
3 31 48 47
3 31 30 48
3 28 50 29
3 30 29 49
3 54 56 55
3 54 53 56
3 56 53 27
3 28 27 51
3 56 27 26
3 31 47 32
3 33 32 47
3 0 260 261
3 7 6 256
3 6 5 261
3 264 13 12
3 2 261 5
3 4 3 5
3 9 8 7
3 6 261 258
3 257 256 6
3 256 253 7
3 253 256 255
3 10 9 252
3 10 252 251
3 253 252 9
3 7 253 9
3 257 6 258
3 16 15 14
3 16 14 263
3 263 17 16
3 57 26 25
3 58 25 24
3 14 13 263
3 17 263 18
3 264 11 250
3 11 264 12
3 21 20 271
3 61 60 269
3 263 19 18
3 23 269 24
3 250 11 251
3 19 263 20
3 10 251 11
3 56 26 57
3 22 21 262
3 0 261 1
3 246 245 271
3 23 22 269
3 107 87 86
3 107 86 108
3 86 85 108
3 105 90 89
3 89 88 106
3 107 88 87
3 107 106 88
3 85 84 109
3 76 75 74
3 77 76 74
3 110 109 84
3 85 109 108
3 84 83 110
3 82 111 83
3 82 81 112
3 95 93 92
3 92 91 95
3 91 90 104
3 104 95 91
3 95 94 93
3 103 97 96
3 95 104 96
3 96 104 103
3 102 97 103
3 90 105 104
3 102 98 97
3 99 98 101
3 101 100 99
3 98 102 101
3 89 106 105
3 59 58 60
3 57 25 58
3 289 70 69
3 282 265 72
3 289 282 70
3 60 58 269
3 63 275 64
3 275 63 285
3 67 66 68
3 68 66 289
3 270 65 64
3 173 172 275
3 24 269 58
3 289 274 282
3 73 72 265
3 78 265 281
3 265 78 77
3 81 80 276
3 83 111 110
3 79 78 276
3 82 112 111
3 119 118 281
3 77 74 73
3 276 281 116
3 281 120 119
3 276 78 281
3 276 112 81
3 112 276 113
3 113 276 114
3 114 276 115
3 265 120 281
3 282 71 70
3 275 270 64
3 255 254 253
3 264 250 249
3 248 264 249
3 264 247 246
3 271 245 244
3 271 263 264
3 271 264 246
3 243 242 273
3 273 241 268
3 241 240 239
3 273 242 241
3 268 239 238
3 236 235 266
3 268 266 283
3 241 239 268
3 283 266 174
3 266 176 175
3 177 176 266
3 234 178 266
3 266 178 177
3 283 174 173
3 284 172 171
3 283 285 262
3 266 235 234
3 179 234 233
3 232 231 181
3 180 233 232
3 179 233 180
3 181 180 232
3 182 181 231
3 230 267 231
3 234 179 178
3 284 171 170
3 222 221 218
3 221 219 218
3 219 221 220
3 223 222 217
3 216 224 223
3 226 225 214
3 215 225 224
3 222 218 217
3 216 215 224
3 217 216 223
3 226 214 277
3 277 212 211
3 277 214 213
3 215 214 225
3 277 211 210
3 182 231 267
3 278 286 203
3 227 277 228
3 207 272 208
3 184 278 185
3 184 183 278
3 201 200 278
3 278 199 198
3 226 277 227
3 272 207 206
3 208 272 277
3 206 205 286
3 273 262 21
3 205 204 286
3 267 183 182
3 203 202 278
3 206 286 272
3 273 21 271
3 208 277 209
3 277 210 209
3 169 168 270
3 270 284 169
3 270 168 274
3 163 279 164
3 165 287 166
3 165 164 287
3 287 120 274
3 284 170 169
3 163 162 279
3 160 288 162
3 279 288 122
3 161 160 162
3 158 280 159
3 160 280 288
3 287 164 279
3 158 156 280
3 124 123 288
3 280 160 159
3 288 280 125
3 153 129 128
3 129 152 130
3 128 127 154
3 126 155 127
3 154 127 155
3 130 152 131
3 153 128 154
3 132 131 151
3 150 133 132
3 133 149 134
3 134 148 135
3 153 152 129
3 126 280 155
3 156 155 280
3 158 157 156
3 194 189 188
3 187 195 188
3 194 190 189
3 192 190 193
3 190 192 191
3 193 190 194
3 196 187 186
3 186 185 197
3 197 185 198
3 278 198 185
3 196 195 187
3 194 188 195
3 197 196 186
3 151 150 132
3 149 133 150
3 134 149 148
3 140 137 136
3 137 139 138
3 147 136 135
3 148 147 135
3 131 152 151
3 147 146 140
3 145 144 142
3 146 145 141
3 139 137 140
3 145 142 141
3 141 140 146
3 143 142 144
3 140 136 147
3 260 259 261
3 199 278 200
3 258 261 259
3 247 264 248
3 13 264 263
3 73 265 77
3 72 71 282
3 174 266 175
3 237 236 266
3 272 230 229
3 204 203 286
3 238 237 268
3 266 268 237
3 22 262 269
3 283 262 268
3 168 167 274
3 66 65 270
3 271 244 243
3 20 263 271
3 230 272 267
3 228 272 229
3 262 273 268
3 243 273 271
3 287 167 166
3 282 120 265
3 62 285 63
3 62 61 285
3 79 276 80
3 116 115 276
3 277 272 228
3 213 212 277
3 267 278 183
3 202 201 278
3 122 121 279
3 279 121 120
3 126 125 280
3 288 125 124
3 118 117 281
3 281 117 116
3 289 69 68
3 120 282 274
3 173 275 283
3 283 275 285
3 270 275 284
3 172 284 275
3 61 269 285
3 262 285 269
3 278 267 286
3 272 286 267
3 120 287 279
3 167 287 274
3 122 288 123
3 288 279 162
3 274 289 270
3 66 270 289
