ply
format ascii 1.0
element vertex 290
property float x
property float y
property float z
property float u
property float v
element face 317
property list uchar int vertex_indices
end_header
-0.520479 -341.832 0 147.636 8.36396
-9.13591 -331.933 0 139.979 19.0208
-10.4328 -317.814 0 140 33.201
-8.02865 -304.054 0 143.678 46.6777
3.81908 -299.607 0 155.887 50
10.0501 -311.307 0 161 37.7695
16.0449 -310.945 0 167 37.5736
21.9446 -298.831 0 174 49.0883
26.4654 -285.724 0 179.719 61.7193
38.8365 -289.308 0 191.704 57
44.2174 -279.134 0 198 66.6324
48.0018 -265.798 0 203 79.5613
40.5142 -258.251 0 196.239 87.7609
29.4899 -250.224 0 186 96.7624
18.7863 -242.028 0 176.097 105.903
8.82648 -232.834 0 167.026 115.974
12.4941 -220.614 0 171.803 127.803
11.8405 -211.369 0 172 137.064
16.7178 -198.934 0 177.995 148.995
22.6557 -186.261 0 185.066 161.066
32.5832 -176.522 0 195.844 169.844
39.1978 -164.02 0 203.622 181.622
34.3028 -158.851 0 199.605 187
20.7935 -163.692 0 186.185 183.185
7.31042 -169.003 0 172.919 179
-6.86757 -174.141 0 159.407 175.407
-21.4925 -177.425 0 145.818 174
-34.0834 -186.492 0 134 166.718
-38.2459 -201.283 0 130.265 153.265
-42.8342 -215.775 0 126 140.032
-48.1692 -229.988 0 121 127.103
-52.6158 -244.447 0 116.83 113.83
-58.3297 -257.975 0 111 101.245
-64.3658 -271.366 0 104.809 88.8092
-71.8751 -284.124 0 97.031 77.031
-78.1181 -296.718 0 90 64.9434
-81.7154 -305.093 0 85.8385 56.8385
-90.4307 -307.21 0 77 55.3289
-87.8199 -293.852 0 80.5247 68.4753
-85.8054 -287.342 0 83 74.8438
-99.2623 -284.019 0 69.8678 79.1322
-108.321 -291.792 0 60.2982 72
-117.598 -298.893 0 50.554 65.554
-119.728 -290.6 0 49 73.9741
-114.522 -278.871 0 55 85.3173
-107.006 -267.352 0 63.2955 96.2955
-94.807 -260.807 0 75.9327 102
-83.8249 -251.616 0 86 109.276
-81.4635 -236.218 0 88 123.448
-78.7433 -221.089 0 90.4379 137.438
-76.8799 -206.504 0 92 150.963
-74.6646 -191.284 0 94 165.134
-71.9177 -176.8 0 97 178.892
-68.4123 -162.851 0 101 192.235
-63.8447 -149.428 0 106.116 205.116
-57.3285 -137.112 0 113.265 217
-49.9434 -140.226 0 120.43 213.43
-36.572 -132.763 0 133.087 219.087
-23.8789 -124.938 0 145 225.052
-20.2878 -117.529 0 148.809 232
-7.46463 -112.895 0 161.694 235.694
0.682747 -103.356 0 170 244.081
1.19533 -89.0092 0 171 257.839
1.69206 -73.9804 0 172 272.425
4.3857 -59.5994 0 175 286.182
-1.01865 -46.6759 0 169.921 299.079
-6.32598 -33.8395 0 165 312.04
-18.4101 -30.2368 0 153.031 316
-24.7981 -17.9458 0 147 328.484
-32.1403 -6.67919 0 140.001 339.999
-40.926 4.4271 0 131.516 351.484
-49.0269 15.8238 0 123.737 363.263
-56.4485 27.4208 0 116.666 375.334
-65.3896 38.4202 0 108.181 386.819
-74.2394 49.6674 0 99.6956 398.304
-84.4568 60.1429 0 89.7115 409
-78.0893 66.2794 0 96.2175 415
-64.8659 70.5515 0 109.561 419
-61.7788 80.6574 0 113 429.49
-66.2075 93.4564 0 109 442.833
-68.5785 107.357 0 107 457.005
-71.7581 120.529 0 104 470.762
-82.5211 128.525 0 92.9758 480.024
-92.8867 136.98 0 82.0762 489.924
-104.037 143.299 0 70.298 497.702
-113.656 152.093 0 60.1059 507.894
-122.307 161.96 0 50.9132 519.087
-130.387 171.424 0 42.5491 529.451
-136.497 182.938 0 36.1849 541.815
-143.108 193.755 0 29 553.839
-149.73 204 0 21.7498 565.25
-157.191 215.06 0 13.9716 577.028
-164.572 226.264 0 6.60748 588.393
-168.234 239.718 0 3 601.898
-165.624 249.825 0 5.65576 612
-153.079 243.879 0 18.1705 606
-140.841 251.092 0 29.8989 613.899
-129.859 260.504 0 41.129 623
-118.697 269.641 0 52.4011 632
-106.524 276.424 0 64.6477 638.648
-97.2372 276.816 0 73.938 638.938
-105.187 265.658 0 65.8669 627.867
-111.923 253.43 0 59 615.711
-116.975 240.56 0 53.8459 602.846
-122.229 228.216 0 49 589.853
-118.692 219.748 0 53.4191 580
-108.391 211.687 0 64.4886 570.511
-98.1287 203.727 0 75.5491 561
-87.8682 195.705 0 86.5804 551.42
-77.6322 187.275 0 97.4802 541.52
-67.2268 179.239 0 108.537 532
-56.8315 171.174 0 119.572 522.428
-45.5343 165.703 0 131.643 515.357
-33.0481 161.84 0 144.593 510.407
-21.534 154.61 0 156 502.475
-14.1499 142.974 0 163 490.374
-6.44209 131.662 0 170.514 478.486
3.18624 121.321 0 180 467.416
11.8601 110.306 0 188.191 455.809
19.4794 98.7968 0 195.262 443.738
30.2959 91.012 0 206.057 435
40.2723 101.666 0 216.526 444.526
50.9097 112.147 0 227.602 454
61.7067 122.018 0 238.911 462.911
72.838 131.054 0 250.56 471
84.1185 140.37 0 262.174 479.174
96.1976 149.016 0 274.245 486.245
101.656 163.166 0 280 498.862
105.327 178.272 0 284 512.205
108.977 193.361 0 288 525.548
113.467 207.57 0 293 538.477
118.975 221.441 0 298.995 550.995
126.468 235.217 0 306.773 562.773
133.956 249.036 0 314.551 574.551
142.871 262.367 0 323.743 585.743
151.013 275.926 0 332.229 597.229
159.713 288.856 0 341.421 608.421
168.57 300.399 0 351 618.867
178.279 309.351 0 361.382 627
184.146 304.822 0 366.861 622
185.378 293.809 0 367.169 610.831
199.621 292.795 0 380.582 607
213.497 290.617 0 394.339 604
225.979 284.21 0 406.311 596.689
224.366 275.365 0 404.046 588
209.878 273.221 0 389.46 587
195.161 270.336 0 374.874 586
181.996 264.86 0 361.961 583.039
176.229 252.113 0 356 572.431
172.609 236.896 0 352 559.088
169.513 221.519 0 348.527 545.527
165.319 206.511 0 344 532.403
160.585 191.533 0 339 519.474
156.964 176.174 0 335.093 506.093
153.19 161.025 0 331 492.789
152.522 145.534 0 330 479.032
154.216 130.085 0 331 464.446
159.76 118.447 0 336 452.689
150.699 109.79 0 326.538 444.538
142.068 97.8525 0 317.345 433.345
132.028 87.2918 0 306.86 423.86
136.397 81.7472 0 311 418.459
128.868 70.0159 0 303 407.358
121.091 57.3444 0 294.768 395.768
113.744 44.6853 0 286.99 383.99
105.611 32.4465 0 278.505 372.505
97.5063 20.4696 0 270 361.027
88.8129 8.52447 0 261 349.755
83.7935 -3.87123 0 255.998 338
86.7073 -15.3696 0 259 326.483
91.0297 -28.4327 0 263 313.141
94.5657 -41.9174 0 266 299.384
98.0119 -55.3662 0 269 285.626
102.117 -68.1081 0 273 272.284
113.421 -74.6044 0 284.578 264.422
126.027 -76.706 0 297.331 261
140.249 -74.3161 0 311.917 262
150.465 -77.0723 0 322 258.155
160.124 -83.9786 0 331.188 250
172.703 -79.9822 0 344.531 252
186.917 -78.6141 0 359.117 251
201.132 -77.1331 0 373.703 250
215.088 -76.6895 0 387.874 248
216.094 -63.6914 0 391 260.459
213.733 -48.8134 0 391 275.459
210.491 -34.5416 0 390 290.047
208.189 -19.7233 0 390 305.044
204.961 -5.45917 0 389 319.633
202.663 9.36333 0 389 334.633
199.436 23.6216 0 388 349.217
197.142 38.4455 0 388 364.217
196.035 52.203 0 389.018 377.982
201.223 51.2751 0 394 376.269
201.074 39.18 0 392 364.34
205.221 25.482 0 394 350.169
212.642 13.7752 0 399.537 337.463
223.44 4.12462 0 408.73 326.27
236.146 -2.27142 0 420.304 318
249.283 -6.8902 0 432.579 311.421
262.288 -12.0254 0 444.649 304.351
275.115 -17.899 0 456.428 296.572
284.323 -27.8706 0 464 285.295
291.239 -39.8571 0 469 272.366
295.354 -53.4922 0 471 258.194
298.542 -67.6837 0 472 243.608
300.72 -81.671 0 472 229.438
303.384 -94.5282 0 472.64 216.36
306.179 -108.43 0 473.238 202.238
306.212 -121.122 0 471.297 189.703
309.195 -135.535 0 471.996 174.996
308.56 -149.634 0 469.168 161.168
304.203 -162.841 0 462.804 148.804
294.526 -172.542 0 451.733 140.733
283.513 -181.098 0 439.522 134
272.653 -189.898 0 427.422 127
263.207 -199.975 0 416.52 118.52
256.619 -212.641 0 408.035 107.035
254.496 -226.385 0 403.792 93.7925
255.869 -240.182 0 403 79.9492
259.702 -251.653 0 405 68.0205
256.584 -259.022 0 400.772 61.2279
250.766 -246.336 0 397 74.6653
247.505 -232.083 0 396 89.2529
245.168 -217.268 0 396 104.253
241.901 -203.021 0 395 118.836
239.561 -188.203 0 395 133.837
237.221 -173.387 0 395 148.837
233.959 -159.134 0 394 163.422
231.62 -144.314 0 394 178.422
228.363 -130.072 0 393 193.009
226.037 -115.305 0 393 208.01
216.825 -109.05 0 384.873 215.873
202.561 -112.551 0 370.234 215
188.332 -116.036 0 355.649 214
174.069 -119.436 0 341.063 213
166.511 -127.601 0 332.72 206
151.965 -130.301 0 318.135 205
140.656 -138.064 0 306.439 198.439
134.531 -150.721 0 299.367 186.367
130.708 -162.468 0 294.581 175
137.132 -169.87 0 300.319 167
124.697 -171.174 0 287.862 166.862
121.901 -183.993 0 284 154.29
116.119 -196.706 0 277.134 142.134
110.092 -209.326 0 270 130.09
105.342 -220.661 0 264.235 119.235
101.038 -232.469 0 258.871 107.871
94.1679 -243.714 0 251 97.303
86.9958 -255.998 0 242.729 85.7291
77.7842 -267.086 0 232.536 75.5365
64.2212 -270.591 0 218.708 73.2917
52.9147 -274.893 0 207.052 70.0515
47.0069 -287.571 0 200 57.9727
53.6225 -296.967 0 205.713 48
59.8222 -306.487 0 211 37.9436
58.2181 -310.828 0 209 33.7725
54.1342 -321.013 0 203.989 24.0107
48.0669 -330.569 0 197.061 15.061
39.3526 -337.469 0 187.744 9
27.3856 -343.323 0 175.283 4.28345
11.4793 -348.105 0 159 1
14.1633 -329.576 0 163.397 19.2
56.27 -144.124 0 222.418 199.851
37.3658 -214.209 0 197.158 131.895
63.0864 -243.337 0 220.087 100.537
-22.4226 63.8763 0 151.861 410.94
137.648 -103.828 0 306.586 232.878
235.974 -91.4398 0 406.468 230.06
95.741 -145.03 0 261.32 195.618
20.5947 -129.272 0 188.497 217.457
41.1414 -23.3397 0 212.946 320.627
72.964 -200.47 0 233.86 142.326
267.395 -114.889 0 433.92 201.91
97.2881 -172.161 0 260.625 168.349
49.754 16.0285 0 222.394 359.242
51.7764 -75.0098 0 221.899 268.749
-39.2529 121.989 0 136.779 470.704
278.744 -147.121 0 440.11 168.305
252.58 -50.3623 0 429.173 267.959
77.3995 73.8761 0 251.883 414.403
112.684 117.446 0 288.938 454.209
-7.67619 88.7728 0 167.384 435.514
-16.9326 29.7918 0 156.203 376.245
87.8586 -105.765 0 256.529 235.57
64.086 -43.018 0 235.437 299.924
30.1079 -96.6663 0 199.546 248.849
267.639 -79.6484 0 439.635 236.523
77.3309 42.9572 0 250.681 384.232
85.451 103.992 0 261.248 443.175
-4.35602 3.39554 0 168.09 349.187
3 42 41 43
3 38 37 36
3 43 41 44
3 40 46 45
3 40 45 44
3 41 40 44
3 5 3 2
3 1 261 2
3 39 35 34
3 39 38 35
3 39 34 46
3 46 40 39
3 35 38 36
3 33 46 34
3 46 33 47
3 30 49 48
3 50 49 29
3 27 52 51
3 27 53 52
3 28 51 50
3 31 48 47
3 31 30 48
3 28 50 29
3 30 29 49
3 54 56 55
3 54 53 56
3 56 53 27
3 28 27 51
3 56 27 26
3 31 47 32
3 33 32 47
3 0 260 261
3 7 6 256
3 6 5 261
3 264 13 12
3 2 261 5
3 4 3 5
3 9 8 7
3 6 261 258
3 257 256 6
3 256 253 7
3 253 256 255
3 10 9 252
3 10 252 251
3 253 252 9
3 7 253 9
3 257 6 258
3 16 15 14
3 16 14 263
3 263 17 16
3 57 26 25
3 58 25 24
3 14 13 263
3 17 263 18
3 264 11 250
3 11 264 12
3 21 20 271
3 61 60 269
3 263 19 18
3 23 269 24
3 250 11 251
3 19 263 20
3 10 251 11
3 56 26 57
3 22 21 262
3 0 261 1
3 246 245 271
3 23 22 269
3 107 87 86
3 107 86 108
3 86 85 108
3 105 90 89
3 89 88 106
3 107 88 87
3 107 106 88
3 85 84 109
3 76 75 74
3 77 76 74
3 110 109 84
3 85 109 108
3 84 83 110
3 82 111 83
3 82 81 112
3 95 93 92
3 92 91 95
3 91 90 104
3 104 95 91
3 95 94 93
3 103 97 96
3 95 104 96
3 96 104 103
3 102 97 103
3 90 105 104
3 102 98 97
3 99 98 101
3 101 100 99
3 98 102 101
3 89 106 105
3 59 58 60
3 57 25 58
3 289 70 69
3 282 265 72
3 289 282 70
3 60 58 269
3 63 275 64
3 275 63 285
3 67 66 68
3 68 66 289
3 270 65 64
3 173 172 275
3 24 269 58
3 289 274 282
3 73 72 265
3 78 265 281
3 265 78 77
3 81 80 276
3 83 111 110
3 79 78 276
3 82 112 111
3 119 118 281
3 77 74 73
3 276 281 116
3 281 120 119
3 276 78 281
3 276 112 81
3 112 276 113
3 113 276 114
3 114 276 115
3 265 120 281
3 282 71 70
3 275 270 64
3 255 254 253
3 264 250 249
3 248 264 249
3 264 247 246
3 271 245 244
3 271 263 264
3 271 264 246
3 243 242 273
3 273 241 268
3 241 240 239
3 273 242 241
3 268 239 238
3 236 235 266
3 268 266 283
3 241 239 268
3 283 266 174
3 266 176 175
3 177 176 266
3 234 178 266
3 266 178 177
3 283 174 173
3 284 172 171
3 283 285 262
3 266 235 234
3 179 234 233
3 232 231 181
3 180 233 232
3 179 233 180
3 181 180 232
3 182 181 231
3 230 267 231
3 234 179 178
3 284 171 170
3 222 221 218
3 221 219 218
3 219 221 220
3 223 222 217
3 216 224 223
3 226 225 214
3 215 225 224
3 222 218 217
3 216 215 224
3 217 216 223
3 226 214 277
3 277 212 211
3 277 214 213
3 215 214 225
3 277 211 210
3 182 231 267
3 278 286 203
3 227 277 228
3 207 272 208
3 184 278 185
3 184 183 278
3 201 200 278
3 278 199 198
3 226 277 227
3 272 207 206
3 208 272 277
3 206 205 286
3 273 262 21
3 205 204 286
3 267 183 182
3 203 202 278
3 206 286 272
3 273 21 271
3 208 277 209
3 277 210 209
3 169 168 270
3 270 284 169
3 270 168 274
3 163 279 164
3 165 287 166
3 165 164 287
3 287 120 274
3 284 170 169
3 163 162 279
3 160 288 162
3 279 288 122
3 161 160 162
3 158 280 159
3 160 280 288
3 287 164 279
3 158 156 280
3 124 123 288
3 280 160 159
3 288 280 125
3 153 129 128
3 129 152 130
3 128 127 154
3 126 155 127
3 154 127 155
3 130 152 131
3 153 128 154
3 132 131 151
3 150 133 132
3 133 149 134
3 134 148 135
3 153 152 129
3 126 280 155
3 156 155 280
3 158 157 156
3 194 189 188
3 187 195 188
3 194 190 189
3 192 190 193
3 190 192 191
3 193 190 194
3 196 187 186
3 186 185 197
3 197 185 198
3 278 198 185
3 196 195 187
3 194 188 195
3 197 196 186
3 151 150 132
3 149 133 150
3 134 149 148
3 140 137 136
3 137 139 138
3 147 136 135
3 148 147 135
3 131 152 151
3 147 146 140
3 145 144 142
3 146 145 141
3 139 137 140
3 145 142 141
3 141 140 146
3 143 142 144
3 140 136 147
3 260 259 261
3 199 278 200
3 258 261 259
3 247 264 248
3 13 264 263
3 73 265 77
3 72 71 282
3 174 266 175
3 237 236 266
3 272 230 229
3 204 203 286
3 238 237 268
3 266 268 237
3 22 262 269
3 283 262 268
3 168 167 274
3 66 65 270
3 271 244 243
3 20 263 271
3 230 272 267
3 228 272 229
3 262 273 268
3 243 273 271
3 287 167 166
3 282 120 265
3 62 285 63
3 62 61 285
3 79 276 80
3 116 115 276
3 277 272 228
3 213 212 277
3 267 278 183
3 202 201 278
3 122 121 279
3 279 121 120
3 126 125 280
3 288 125 124
3 118 117 281
3 281 117 116
3 289 69 68
3 120 282 274
3 173 275 283
3 283 275 285
3 270 275 284
3 172 284 275
3 61 269 285
3 262 285 269
3 278 267 286
3 272 286 267
3 120 287 279
3 167 287 274
3 122 288 123
3 288 279 162
3 274 289 270
3 66 270 289
