ply
format ascii 1.0
element vertex 290
property float x
property float y
property float z
property float u
property float v
element face 317
property list uchar int vertex_indices
end_header
46.8313 -387.874 0 147.636 8.36396
36.9193 -379.274 0 139.979 19.0208
33.6651 -365.475 0 140 33.201
34.125 -351.514 0 143.678 46.6777
45.2366 -345.458 0 155.887 50
53.0393 -356.173 0 161 37.7695
58.9251 -354.979 0 167 37.5736
63.0765 -342.159 0 174 49.0883
65.7241 -328.55 0 179.719 61.7193
78.4742 -330.372 0 191.704 57
82.3839 -319.547 0 198 66.6324
84.2719 -305.813 0 203 79.5613
75.8037 -299.38 0 196.239 87.7609
63.7634 -292.96 0 186 96.7624
52.0172 -286.326 0 176.097 105.903
40.8749 -278.606 0 167.026 115.974
42.8068 -265.993 0 171.803 127.803
40.874 -256.925 0 172 137.064
43.9773 -243.93 0 177.995 148.995
48.0976 -230.549 0 185.066 161.066
56.564 -219.513 0 195.844 169.844
61.2491 -206.137 0 203.622 181.622
54.8385 -201.523 0 199.605 187
41.1095 -207.981 0 186.185 183.185
27.2482 -215.097 0 172.919 179
11.9774 -222.865 0 159.407 175.407
-4.26727 -229.367 0 145.818 174
-18.1552 -241.533 0 134 166.718
-23.2418 -258.821 0 130.265 153.265
-28.5912 -275.622 0 126 140.032
-34.7077 -292.166 0 121 127.103
-39.8728 -308.808 0 116.83 113.83
-45.6715 -323.935 0 111 101.245
-51.7341 -338.913 0 104.809 88.8092
-59.073 -353.199 0 97.031 77.031
-64.3137 -366.384 0 90 64.9434
-67.1849 -375.045 0 85.8385 56.8385
-75.6875 -377.904 0 77 55.3289
-74.2361 -364.374 0 80.5247 68.4753
-72.8169 -357.741 0 83 74.8438
-86.6138 -355.689 0 69.8678 79.1322
-94.9725 -364.214 0 60.2982 72
-103.604 -372.087 0 50.554 65.554
-106.44 -364.008 0 49 73.9741
-102.262 -351.875 0 55 85.3173
-95.7718 -339.759 0 63.2955 96.2955
-84.2092 -332.217 0 75.9327 102
-71.6377 -319.73 0 86 109.276
-68.3881 -302.038 0 88 123.448
-64.9296 -284.793 0 90.4379 137.438
-62.3118 -268.196 0 92 150.963
-59.4789 -251.011 0 94 165.134
-56.901 -235.285 0 97 178.892
-53.9817 -220.405 0 101 192.235
-50.1268 -206.19 0 106.116 205.116
-44.4879 -193.323 0 113.265 217
-36.8304 -195.78 0 120.43 213.43
-22.2993 -185.257 0 133.087 219.087
-8.35068 -174.245 0 145 225.052
-5.07516 -166.135 0 148.809 232
7.60893 -160.125 0 161.694 235.694
15.419 -148.817 0 170 244.081
15.1318 -133.565 0 171 257.839
14.8073 -117.838 0 172 272.425
16.9456 -102.379 0 175 286.182
11.062 -89.294 0 169.921 299.079
5.23891 -76.5692 0 165 312.04
-6.98019 -73.4547 0 153.031 316
-13.8473 -61.4358 0 147 328.484
-21.6316 -50.513 0 140.001 339.999
-30.7629 -39.9523 0 131.516 351.484
-39.2423 -29.1346 0 123.737 363.263
-47.0719 -18.3132 0 116.666 375.334
-56.6169 -8.1643 0 108.181 386.819
-66.0051 2.68668 0 99.6956 398.304
-76.548 12.8392 0 89.7115 409
-70.3814 19.1606 0 96.2175 415
-57.3471 23.803 0 109.561 419
-54.7713 33.1163 0 113 429.49
-59.9064 44.8607 0 109 442.833
-62.9009 58.1928 0 107 457.005
-66.429 70.2256 0 104 470.762
-76.8992 75.9643 0 92.9758 480.024
-86.554 81.956 0 82.0762 489.924
-96.8276 85.7726 0 70.298 497.702
-105.721 92.1828 0 60.1059 507.894
-113.733 99.7952 0 50.9132 519.087
-121.567 107.68 0 42.5491 529.451
-127.525 117.717 0 36.1849 541.815
-133.495 126.524 0 29 553.839
-139.383 134.856 0 21.7498 565.25
-146.608 144.69 0 13.9716 577.028
-154.22 155.561 0 6.60748 588.393
-158.141 168.893 0 3 601.898
-155.725 179.038 0 5.65576 612
-143.07 173.321 0 18.1705 606
-130.243 179.682 0 29.8989 613.899
-119.839 189.777 0 41.129 623
-109.034 199.335 0 52.4011 632
-97.1174 206.559 0 64.6477 638.648
-87.8515 207.29 0 73.938 638.938
-95.3898 195.85 0 65.8669 627.867
-101.679 183.39 0 59 615.711
-106.32 170.421 0 53.8459 602.846
-111.969 158.97 0 49 589.853
-109.65 152.718 0 53.4191 580
-100.391 147.097 0 64.4886 570.511
-91.2014 141.761 0 75.5491 561
-81.9686 136.366 0 86.5804 551.42
-72.5879 130.42 0 97.4802 541.52
-63.0288 124.883 0 108.537 532
-53.4611 119.332 0 119.572 522.428
-43.2708 116.501 0 131.643 515.357
-31.522 114.471 0 144.593 510.407
-19.7463 108.53 0 156 502.475
-11.5636 97.7291 0 163 490.374
-3.37817 87.3032 0 170.514 478.486
6.54104 78.0982 0 180 467.416
16.0469 68.065 0 188.191 455.809
24.5857 57.4533 0 195.262 443.738
35.4878 51.0614 0 206.057 435
44.863 63.5638 0 216.526 444.526
54.9705 75.6632 0 227.602 454
65.1202 86.9975 0 238.911 462.911
75.5892 97.3764 0 250.56 471
86.5211 108.403 0 262.174 479.174
98.7779 119.587 0 274.245 486.245
104.078 136.394 0 280 498.862
107.539 154.581 0 284 512.205
110.968 172.712 0 288 525.548
115.034 189.029 0 293 538.477
120.148 205.08 0 298.995 550.995
127.5 222.134 0 306.773 562.773
134.857 239.295 0 314.551 574.551
143.653 256.06 0 323.743 585.743
151.621 272.948 0 332.229 597.229
159.97 288.515 0 341.421 608.421
168.147 301.414 0 351 618.867
177.152 311.122 0 361.382 627
183.362 307.094 0 366.861 622
185.496 296.396 0 367.169 610.831
200.669 299.665 0 380.582 607
214.563 298.03 0 394.339 604
227.441 292.453 0 406.311 596.689
226.419 283.499 0 404.046 588
212.082 280.286 0 389.46 587
197.23 274.959 0 374.874 586
183.74 265.75 0 361.961 583.039
178 249.486 0 356 572.431
174.589 231.109 0 352 559.088
171.704 212.633 0 348.527 545.527
167.694 194.449 0 344 532.403
163.072 176.005 0 339 519.474
159.595 157.254 0 335.093 506.093
156.025 138.961 0 331 492.789
155.59 120.402 0 330 479.032
158.047 103.501 0 331 464.446
164.115 91.9218 0 336 452.689
155.476 82.7645 0 326.538 444.538
147.518 69.954 0 317.345 433.345
138.094 57.9736 0 306.86 423.86
142.774 52.1185 0 311 418.459
135.845 39.5474 0 303 407.358
128.748 25.2852 0 294.768 395.768
122.052 11.3549 0 286.99 383.99
114.438 -1.95417 0 278.505 372.505
106.894 -14.5785 0 270 361.027
98.7166 -27.4951 0 261 349.755
93.7785 -40.974 0 255.998 338
96.5385 -52.5893 0 259 326.483
101.243 -65.2565 0 263 313.141
105.489 -78.2865 0 266 299.384
109.514 -91.2429 0 269 285.626
113.599 -103.152 0 273 272.284
124.144 -107.72 0 284.578 264.422
136.225 -107.852 0 297.331 261
149.532 -103.323 0 311.917 262
159.71 -104.299 0 322 258.155
169.92 -109.117 0 331.188 250
180.894 -102.12 0 344.531 252
194.119 -96.9356 0 359.117 251
207.27 -91.4112 0 373.703 250
220.306 -86.9206 0 387.874 248
217.525 -73.9264 0 391 260.459
211.071 -60.2572 0 391 275.459
203.968 -47.4568 0 390 290.047
197.614 -33.876 0 390 305.044
190.524 -21.0843 0 389 319.633
184.172 -7.49616 0 389 334.633
177.087 5.29011 0 388 349.217
170.734 18.8784 0 388 364.217
165.824 31.7771 0 389.018 377.982
171.064 32.3376 0 394 376.269
174.304 20.684 0 392 364.34
182.119 8.69448 0 394 350.169
192.519 -0.469272 0 399.537 337.463
205.586 -6.71418 0 408.73 326.27
219.573 -9.30075 0 420.304 318
233.482 -10.0672 0 432.579 311.421
247.4 -11.3676 0 444.649 304.351
261.352 -13.4193 0 456.428 296.572
272.975 -20.4102 0 464 285.295
282.958 -29.9616 0 469 272.366
290.697 -41.833 0 471 258.194
297.685 -54.5 0 472 243.608
303.665 -67.3252 0 472 229.438
309.782 -79.017 0 472.64 216.36
316.325 -91.6709 0 473.238 202.238
319.899 -103.873 0 471.297 189.703
326.798 -116.868 0 471.996 174.996
330.146 -130.58 0 469.168 161.168
329.673 -144.482 0 462.804 148.804
323.106 -156.512 0 451.733 140.733
314.935 -167.816 0 439.522 134
306.977 -179.31 0 427.422 127
300.739 -191.631 0 416.52 118.52
297.97 -205.637 0 408.035 107.035
299.789 -219.425 0 403.792 93.7925
304.978 -232.283 0 403 79.9492
311.878 -242.216 0 405 68.0205
310.953 -250.164 0 400.772 61.2279
301.808 -239.622 0 397 74.6653
294.678 -226.855 0 396 89.2529
288.277 -213.292 0 396 104.253
281.144 -200.534 0 395 118.836
274.74 -186.968 0 395 133.837
268.334 -173.401 0 395 148.837
261.201 -160.632 0 394 163.422
254.788 -147.057 0 394 178.422
247.645 -134.319 0 393 193.009
241.205 -120.902 0 393 208.01
230.377 -117.924 0 384.873 215.873
217.159 -125.884 0 370.234 215
203.864 -133.546 0 355.649 214
190.37 -140.959 0 341.063 213
184.156 -150.957 0 332.72 206
169.965 -156.518 0 318.135 205
159.365 -166.267 0 306.439 198.439
154.694 -179.769 0 299.367 186.367
152.368 -191.988 0 294.581 175
159.71 -198.365 0 300.319 167
147.502 -201.471 0 287.862 166.862
146.297 -214.531 0 284 154.29
142.214 -227.932 0 277.134 142.134
137.934 -241.244 0 270 130.09
134.79 -253.128 0 264.235 119.235
132.16 -265.421 0 258.871 107.871
126.915 -277.51 0 251 97.303
121.524 -290.675 0 242.729 85.7291
113.946 -302.939 0 232.536 75.5365
101.002 -308.301 0 218.708 73.2917
90.4049 -314.135 0 207.052 70.0515
86.3224 -327.512 0 200 57.9727
94.1848 -335.893 0 205.713 48
101.652 -344.454 0 211 37.9436
100.669 -348.976 0 209 33.7725
98.0466 -359.632 0 203.989 24.0107
93.3725 -369.941 0 197.061 15.061
85.7061 -377.991 0 187.744 9
74.6727 -385.458 0 175.283 4.28345
59.5891 -392.412 0 159 1
59.6617 -373.689 0 163.397 19.2
75.4078 -184.055 0 222.418 199.851
66.5459 -256.193 0 197.158 131.895
96.0818 -281.471 0 220.087 100.537
-14.7718 19.2827 0 151.861 410.94
151.515 -132.92 0 306.586 232.878
244.222 -95.2133 0 406.468 230.06
115.383 -179.736 0 261.32 195.618
37.3281 -173.656 0 188.497 217.457
51.8479 -63.4445 0 212.946 320.627
99.9038 -237.658 0 233.86 142.326
280.899 -108.787 0 433.92 201.91
120.185 -206.323 0 260.625 168.349
59.2885 -22.7795 0 222.394 359.242
64.8791 -114.942 0 221.899 268.749
-34.418 74.4647 0 136.779 470.704
300.824 -136.543 0 440.11 168.305
248.796 -50.8924 0 429.173 267.959
84.2249 39.2284 0 251.883 414.403
117.153 88.2538 0 288.938 454.209
-1.22744 44.6599 0 167.384 435.514
-7.72715 -13.7509 0 156.203 376.245
102.855 -142.025 0 256.529 235.57
75.2956 -81.7518 0 235.437 299.924
44.4722 -139.281 0 199.546 248.849
271.345 -74.5826 0 439.635 236.523
85.6967 7.03875 0 250.681 384.232
90.5623 71.4409 0 261.248 443.175
5.66944 -39.2106 0 168.09 349.187
3 42 41 43
3 38 37 36
3 43 41 44
3 40 46 45
3 40 45 44
3 41 40 44
3 5 3 2
3 1 261 2
3 39 35 34
3 39 38 35
3 39 34 46
3 46 40 39
3 35 38 36
3 33 46 34
3 46 33 47
3 30 49 48
3 50 49 29
3 27 52 51
3 27 53 52
3 28 51 50
3 31 48 47
3 31 30 48
3 28 50 29
3 30 29 49
3 54 56 55
3 54 53 56
3 56 53 27
3 28 27 51
3 56 27 26
3 31 47 32
3 33 32 47
3 0 260 261
3 7 6 256
3 6 5 261
3 264 13 12
3 2 261 5
3 4 3 5
3 9 8 7
3 6 261 258
3 257 256 6
3 256 253 7
3 253 256 255
3 10 9 252
3 10 252 251
3 253 252 9
3 7 253 9
3 257 6 258
3 16 15 14
3 16 14 263
3 263 17 16
3 57 26 25
3 58 25 24
3 14 13 263
3 17 263 18
3 264 11 250
3 11 264 12
3 21 20 271
3 61 60 269
3 263 19 18
3 23 269 24
3 250 11 251
3 19 263 20
3 10 251 11
3 56 26 57
3 22 21 262
3 0 261 1
3 246 245 271
3 23 22 269
3 107 87 86
3 107 86 108
3 86 85 108
3 105 90 89
3 89 88 106
3 107 88 87
3 107 106 88
3 85 84 109
3 76 75 74
3 77 76 74
3 110 109 84
3 85 109 108
3 84 83 110
3 82 111 83
3 82 81 112
3 95 93 92
3 92 91 95
3 91 90 104
3 104 95 91
3 95 94 93
3 103 97 96
3 95 104 96
3 96 104 103
3 102 97 103
3 90 105 104
3 102 98 97
3 99 98 101
3 101 100 99
3 98 102 101
3 89 106 105
3 59 58 60
3 57 25 58
3 289 70 69
3 282 265 72
3 289 282 70
3 60 58 269
3 63 275 64
3 275 63 285
3 67 66 68
3 68 66 289
3 270 65 64
3 173 172 275
3 24 269 58
3 289 274 282
3 73 72 265
3 78 265 281
3 265 78 77
3 81 80 276
3 83 111 110
3 79 78 276
3 82 112 111
3 119 118 281
3 77 74 73
3 276 281 116
3 281 120 119
3 276 78 281
3 276 112 81
3 112 276 113
3 113 276 114
3 114 276 115
3 265 120 281
3 282 71 70
3 275 270 64
3 255 254 253
3 264 250 249
3 248 264 249
3 264 247 246
3 271 245 244
3 271 263 264
3 271 264 246
3 243 242 273
3 273 241 268
3 241 240 239
3 273 242 241
3 268 239 238
3 236 235 266
3 268 266 283
3 241 239 268
3 283 266 174
3 266 176 175
3 177 176 266
3 234 178 266
3 266 178 177
3 283 174 173
3 284 172 171
3 283 285 262
3 266 235 234
3 179 234 233
3 232 231 181
3 180 233 232
3 179 233 180
3 181 180 232
3 182 181 231
3 230 267 231
3 234 179 178
3 284 171 170
3 222 221 218
3 221 219 218
3 219 221 220
3 223 222 217
3 216 224 223
3 226 225 214
3 215 225 224
3 222 218 217
3 216 215 224
3 217 216 223
3 226 214 277
3 277 212 211
3 277 214 213
3 215 214 225
3 277 211 210
3 182 231 267
3 278 286 203
3 227 277 228
3 207 272 208
3 184 278 185
3 184 183 278
3 201 200 278
3 278 199 198
3 226 277 227
3 272 207 206
3 208 272 277
3 206 205 286
3 273 262 21
3 205 204 286
3 267 183 182
3 203 202 278
3 206 286 272
3 273 21 271
3 208 277 209
3 277 210 209
3 169 168 270
3 270 284 169
3 270 168 274
3 163 279 164
3 165 287 166
3 165 164 287
3 287 120 274
3 284 170 169
3 163 162 279
3 160 288 162
3 279 288 122
3 161 160 162
3 158 280 159
3 160 280 288
3 287 164 279
3 158 156 280
3 124 123 288
3 280 160 159
3 288 280 125
3 153 129 128
3 129 152 130
3 128 127 154
3 126 155 127
3 154 127 155
3 130 152 131
3 153 128 154
3 132 131 151
3 150 133 132
3 133 149 134
3 134 148 135
3 153 152 129
3 126 280 155
3 156 155 280
3 158 157 156
3 194 189 188
3 187 195 188
3 194 190 189
3 192 190 193
3 190 192 191
3 193 190 194
3 196 187 186
3 186 185 197
3 197 185 198
3 278 198 185
3 196 195 187
3 194 188 195
3 197 196 186
3 151 150 132
3 149 133 150
3 134 149 148
3 140 137 136
3 137 139 138
3 147 136 135
3 148 147 135
3 131 152 151
3 147 146 140
3 145 144 142
3 146 145 141
3 139 137 140
3 145 142 141
3 141 140 146
3 143 142 144
3 140 136 147
3 260 259 261
3 199 278 200
3 258 261 259
3 247 264 248
3 13 264 263
3 73 265 77
3 72 71 282
3 174 266 175
3 237 236 266
3 272 230 229
3 204 203 286
3 238 237 268
3 266 268 237
3 22 262 269
3 283 262 268
3 168 167 274
3 66 65 270
3 271 244 243
3 20 263 271
3 230 272 267
3 228 272 229
3 262 273 268
3 243 273 271
3 287 167 166
3 282 120 265
3 62 285 63
3 62 61 285
3 79 276 80
3 116 115 276
3 277 272 228
3 213 212 277
3 267 278 183
3 202 201 278
3 122 121 279
3 279 121 120
3 126 125 280
3 288 125 124
3 118 117 281
3 281 117 116
3 289 69 68
3 120 282 274
3 173 275 283
3 283 275 285
3 270 275 284
3 172 284 275
3 61 269 285
3 262 285 269
3 278 267 286
3 272 286 267
3 120 287 279
3 167 287 274
3 122 288 123
3 288 279 162
3 274 289 270
3 66 270 289
