ply
format ascii 1.0
element vertex 290
property float x
property float y
property float z
property float u
property float v
element face 317
property list uchar int vertex_indices
end_header
50.9113 -390.24 0 147.636 8.36396
40.9137 -381.739 0 139.979 19.0208
37.5215 -367.974 0 140 33.201
37.8414 -354.009 0 143.678 46.6777
48.8918 -347.842 0 155.887 50
56.8015 -358.478 0 161 37.7695
62.6751 -357.225 0 167 37.5736
66.6978 -344.364 0 174 49.0883
69.2089 -330.729 0 179.719 61.7193
81.9767 -332.424 0 191.704 57
85.7778 -321.56 0 198 66.6324
87.5283 -307.808 0 203 79.5613
78.9962 -301.46 0 196.239 87.7609
66.8922 -295.159 0 186 96.7624
55.0801 -288.643 0 176.097 105.903
43.8613 -281.034 0 167.026 115.974
45.6672 -268.403 0 171.803 127.803
43.644 -259.354 0 172 137.064
46.6176 -246.328 0 177.995 148.995
50.6045 -232.907 0 185.066 161.066
58.9605 -221.785 0 195.844 169.844
63.5101 -208.354 0 203.622 181.622
57.0331 -203.774 0 199.605 187
43.3422 -210.341 0 186.185 183.185
29.5128 -217.58 0 172.919 179
14.26 -225.509 0 159.407 175.407
-1.98861 -232.204 0 145.818 174
-15.84 -244.546 0 134 166.718
-20.8464 -261.942 0 130.265 153.265
-26.1124 -278.848 0 126 140.032
-32.1461 -295.502 0 121 127.103
-37.2239 -312.243 0 116.83 113.83
-42.9239 -327.455 0 111 101.245
-48.8855 -342.52 0 104.809 88.8092
-56.1207 -356.901 0 97.031 77.031
-61.2409 -370.138 0 90 64.9434
-64.0312 -378.825 0 85.8385 56.8385
-72.5066 -381.764 0 77 55.3289
-71.1821 -368.221 0 80.5247 68.4753
-69.8259 -361.576 0 83 74.8438
-83.6447 -359.656 0 69.8678 79.1322
-91.9233 -368.259 0 60.2982 72
-100.481 -376.212 0 50.554 65.554
-103.392 -368.16 0 49 73.9741
-99.3281 -355.989 0 55 85.3173
-92.9519 -343.813 0 63.2955 96.2955
-81.4613 -336.163 0 75.9327 102
-68.9287 -323.487 0 86 109.276
-65.7698 -305.698 0 88 123.448
-62.4007 -288.361 0 90.4379 137.438
-59.8655 -271.682 0 92 150.963
-57.1213 -254.414 0 94 165.134
-54.6438 -238.63 0 97 178.892
-51.8302 -223.7 0 101 192.235
-48.0769 -209.436 0 106.116 205.116
-42.5342 -196.524 0 113.265 217
-34.8572 -198.918 0 120.43 213.43
-20.3555 -188.215 0 133.087 219.087
-6.43542 -177.019 0 145 225.052
-3.21004 -168.865 0 148.809 232
9.43843 -162.746 0 161.694 235.694
17.1871 -151.322 0 170 244.081
16.8215 -136.017 0 171 257.839
16.4282 -120.249 0 172 272.425
18.5278 -104.725 0 175 286.182
12.6135 -91.64 0 169.921 299.079
6.75381 -78.9308 0 165 312.04
-5.47432 -75.8557 0 153.031 316
-12.3783 -63.8596 0 147 328.484
-20.1954 -52.9628 0 140.001 339.999
-29.3531 -42.4422 0 131.516 351.484
-37.8606 -31.6635 0 123.737 363.263
-45.7198 -20.892 0 116.666 375.334
-55.3069 -10.7909 0 108.181 386.819
-64.7244 0.0414471 0 99.6956 398.304
-75.283 10.1781 0 89.7115 409
-69.1264 16.5084 0 96.2175 415
-56.1026 21.1688 0 109.561 419
-53.5517 30.434 0 113 429.49
-58.717 42.1238 0 109 442.833
-61.7298 55.4347 0 107 457.005
-65.2451 67.4125 0 104 470.762
-75.6523 73.0379 0 92.9758 480.024
-85.1943 78.8969 0 82.0762 489.924
-95.3489 82.5865 0 70.298 497.702
-104.116 88.8747 0 60.1059 507.894
-111.998 96.3735 0 50.9132 519.087
-119.74 104.198 0 42.5491 529.451
-125.595 114.173 0 36.1849 541.815
-131.415 122.886 0 29 553.839
-137.14 131.135 0 21.7498 565.25
-144.238 140.957 0 13.9716 577.028
-151.759 151.88 0 6.60748 588.393
-155.574 165.24 0 3 601.898
-153.076 175.366 0 5.65576 612
-140.467 169.547 0 18.1705 606
-127.495 175.736 0 29.8989 613.899
-117.043 185.777 0 41.129 623
-106.171 195.259 0 52.4011 632
-94.2029 202.397 0 64.6477 638.648
-84.9321 203.061 0 73.938 638.938
-92.5526 191.675 0 65.8669 627.867
-98.932 179.261 0 59 615.711
-103.673 166.332 0 53.8459 602.846
-109.495 155.003 0 49 589.853
-107.381 148.902 0 53.4191 580
-98.3008 143.398 0 64.4886 570.511
-89.2875 138.199 0 75.5491 561
-80.2232 132.946 0 86.5804 551.42
-70.9947 127.136 0 97.4802 541.52
-61.5812 121.739 0 108.537 532
-52.1555 116.335 0 119.572 522.428
-42.1146 113.666 0 131.643 515.357
-30.4639 111.736 0 144.593 510.407
-18.7104 105.857 0 156 502.475
-10.5206 95.1047 0 163 490.374
-2.35012 84.7448 0 170.514 478.486
7.55161 75.6203 0 180 467.416
17.0875 65.6568 0 188.191 455.809
25.6669 55.1174 0 195.262 443.738
36.5439 48.8417 0 206.057 435
45.8425 61.4631 0 216.526 444.526
55.8819 73.6682 0 227.602 454
65.9556 85.102 0 238.911 462.911
76.347 95.5803 0 250.56 471
87.2158 106.735 0 262.174 479.174
99.4363 118.105 0 274.245 486.245
104.662 135.091 0 280 498.862
108.041 153.484 0 284 512.205
111.384 171.818 0 288 525.548
115.356 188.281 0 293 538.477
120.378 204.49 0 298.995 550.995
127.648 221.78 0 306.773 562.773
134.922 239.184 0 314.551 574.551
143.635 256.203 0 323.743 585.743
151.514 273.338 0 332.229 597.229
159.765 289.11 0 341.421 608.421
167.833 302.133 0 351 618.867
176.743 311.932 0 361.382 627
182.993 307.968 0 366.861 622
185.238 297.303 0 367.169 610.831
200.456 300.925 0 380.582 607
214.356 299.399 0 394.339 604
227.286 293.945 0 406.311 596.689
226.35 284.98 0 404.046 588
212.042 281.624 0 389.46 587
197.208 276.062 0 374.874 586
183.738 266.544 0 361.961 583.039
178.072 250.027 0 356 572.431
174.755 231.43 0 352 559.088
171.962 212.742 0 348.527 545.527
168.039 194.336 0 344 532.403
163.499 175.649 0 339 519.474
160.105 156.664 0 335.093 506.093
156.618 138.153 0 331 492.789
156.266 119.39 0 330 479.032
158.828 102.396 0 331 464.446
164.966 90.8391 0 336 452.689
156.383 81.6195 0 326.538 444.538
148.504 68.7205 0 317.345 433.345
139.146 56.6116 0 306.86 423.86
143.856 50.7413 0 311 418.459
136.992 38.0984 0 303 407.358
129.96 23.7105 0 294.768 395.768
123.322 9.67811 0 286.99 383.99
115.753 -3.71766 0 278.505 372.505
108.254 -16.3971 0 270 361.027
100.11 -29.3873 0 261 349.755
95.172 -42.938 0 255.998 338
97.9205 -54.5534 0 259 326.483
102.651 -67.1912 0 263 313.141
106.941 -80.1888 0 266 299.384
111.002 -93.1051 0 269 285.626
115.078 -104.945 0 273 272.284
125.548 -109.381 0 284.578 264.422
137.574 -109.387 0 297.331 261
150.809 -104.731 0 311.917 262
160.965 -105.601 0 322 258.155
171.16 -110.292 0 331.188 250
181.935 -103.13 0 344.531 252
194.973 -97.7325 0 359.117 251
207.928 -91.982 0 373.703 250
220.794 -87.2615 0 387.874 248
217.735 -74.3092 0 391 260.459
211.024 -60.7559 0 391 275.459
203.69 -48.0842 0 390 290.047
197.095 -34.6188 0 390 305.044
189.779 -21.9553 0 389 319.633
183.187 -8.48238 0 389 334.633
175.875 4.17577 0 388 349.217
169.281 17.6488 0 388 364.217
164.142 30.458 0 389.018 377.982
169.371 31.1117 0 394 376.269
172.818 19.5176 0 392 364.34
180.846 7.66918 0 394 350.169
191.406 -1.30807 0 399.537 337.463
204.583 -7.31945 0 408.73 326.27
218.614 -9.65666 0 420.304 318
232.534 -10.176 0 432.579 311.421
246.471 -11.229 0 444.649 304.351
260.457 -13.032 0 456.428 296.572
272.202 -19.8142 0 464 285.295
282.351 -29.1849 0 469 272.366
290.288 -40.913 0 471 258.194
297.489 -53.4496 0 472 243.608
303.695 -66.1651 0 472 229.438
310.027 -77.7488 0 472.64 216.36
316.803 -90.2865 0 473.238 202.238
320.598 -102.423 0 471.297 189.703
327.73 -115.291 0 471.996 174.996
331.325 -128.94 0 469.168 161.168
331.103 -142.848 0 462.804 148.804
324.754 -154.995 0 451.733 140.733
316.788 -166.445 0 439.522 134
309.039 -178.08 0 427.422 127
303.024 -190.512 0 416.52 118.52
300.508 -204.566 0 408.035 107.035
302.575 -218.318 0 403.792 93.7925
307.996 -231.081 0 403 79.9492
315.073 -240.888 0 405 68.0205
314.292 -248.851 0 400.772 61.2279
304.958 -238.476 0 397 74.6653
297.599 -225.84 0 396 89.2529
290.954 -212.395 0 396 104.253
283.592 -199.767 0 395 118.836
276.944 -186.319 0 395 133.837
270.295 -172.869 0 395 148.837
262.933 -160.231 0 394 163.422
256.276 -146.773 0 394 178.422
248.908 -134.166 0 393 193.009
242.236 -120.871 0 393 208.01
231.394 -118.105 0 384.873 215.873
218.383 -126.321 0 370.234 215
205.28 -134.223 0 355.649 214
191.969 -141.865 0 341.063 213
185.904 -151.959 0 332.72 206
171.774 -157.695 0 318.135 205
161.259 -167.559 0 306.439 198.439
156.711 -181.098 0 299.367 186.367
154.501 -193.333 0 294.581 175
161.904 -199.632 0 300.319 167
149.726 -202.86 0 287.862 166.862
148.645 -215.921 0 284 154.29
144.693 -229.357 0 277.134 142.134
140.544 -242.708 0 270 130.09
137.518 -254.622 0 264.235 119.235
135.01 -266.94 0 258.871 107.871
129.887 -279.08 0 251 97.303
124.627 -292.298 0 242.729 85.7291
117.172 -304.638 0 232.536 75.5365
104.283 -310.128 0 218.708 73.2917
93.7442 -316.068 0 207.052 70.0515
89.7958 -329.485 0 200 57.9727
97.7418 -337.787 0 205.713 48
105.295 -346.273 0 211 37.9436
104.357 -350.805 0 209 33.7725
101.841 -361.486 0 203.989 24.0107
97.2707 -371.842 0 197.061 15.061
89.6853 -379.968 0 187.744 9
78.7271 -387.545 0 175.283 4.28345
63.7139 -394.65 0 159 1
63.599 -375.927 0 163.397 19.2
77.4535 -186.127 0 222.418 199.851
69.3074 -258.366 0 197.158 131.895
99.0943 -283.349 0 220.087 100.537
-13.5264 16.7595 0 151.861 410.94
153.072 -134.31 0 306.586 232.878
244.8 -95.1311 0 406.468 230.06
117.399 -181.452 0 261.32 195.618
39.2653 -176.044 0 188.497 217.457
53.2928 -65.6079 0 212.946 320.627
102.479 -239.502 0 233.86 142.326
281.694 -108.039 0 433.92 201.91
122.45 -207.974 0 260.625 168.349
60.6535 -24.8767 0 222.394 359.242
66.4879 -117.062 0 221.899 268.749
-33.2679 71.7431 0 136.779 470.704
302.115 -135.432 0 440.11 168.305
248.571 -50.7229 0 429.173 267.959
85.367 37.4085 0 251.883 414.403
118.029 86.8529 0 288.938 454.209
-0.0431522 42.1435 0 167.384 435.514
-6.38316 -16.192 0 156.203 376.245
104.565 -143.871 0 256.529 235.57
76.7729 -83.8064 0 235.437 299.924
46.1877 -141.573 0 199.546 248.849
271.506 -73.9973 0 439.635 236.523
86.9738 5.14179 0 250.681 384.232
91.5307 69.7619 0 261.248 443.175
7.06954 -41.5723 0 168.09 349.187
3 42 41 43
3 38 37 36
3 43 41 44
3 40 46 45
3 40 45 44
3 41 40 44
3 5 3 2
3 1 261 2
3 39 35 34
3 39 38 35
3 39 34 46
3 46 40 39
3 35 38 36
3 33 46 34
3 46 33 47
3 30 49 48
3 50 49 29
3 27 52 51
3 27 53 52
3 28 51 50
3 31 48 47
3 31 30 48
3 28 50 29
3 30 29 49
3 54 56 55
3 54 53 56
3 56 53 27
3 28 27 51
3 56 27 26
3 31 47 32
3 33 32 47
3 0 260 261
3 7 6 256
3 6 5 261
3 264 13 12
3 2 261 5
3 4 3 5
3 9 8 7
3 6 261 258
3 257 256 6
3 256 253 7
3 253 256 255
3 10 9 252
3 10 252 251
3 253 252 9
3 7 253 9
3 257 6 258
3 16 15 14
3 16 14 263
3 263 17 16
3 57 26 25
3 58 25 24
3 14 13 263
3 17 263 18
3 264 11 250
3 11 264 12
3 21 20 271
3 61 60 269
3 263 19 18
3 23 269 24
3 250 11 251
3 19 263 20
3 10 251 11
3 56 26 57
3 22 21 262
3 0 261 1
3 246 245 271
3 23 22 269
3 107 87 86
3 107 86 108
3 86 85 108
3 105 90 89
3 89 88 106
3 107 88 87
3 107 106 88
3 85 84 109
3 76 75 74
3 77 76 74
3 110 109 84
3 85 109 108
3 84 83 110
3 82 111 83
3 82 81 112
3 95 93 92
3 92 91 95
3 91 90 104
3 104 95 91
3 95 94 93
3 103 97 96
3 95 104 96
3 96 104 103
3 102 97 103
3 90 105 104
3 102 98 97
3 99 98 101
3 101 100 99
3 98 102 101
3 89 106 105
3 59 58 60
3 57 25 58
3 289 70 69
3 282 265 72
3 289 282 70
3 60 58 269
3 63 275 64
3 275 63 285
3 67 66 68
3 68 66 289
3 270 65 64
3 173 172 275
3 24 269 58
3 289 274 282
3 73 72 265
3 78 265 281
3 265 78 77
3 81 80 276
3 83 111 110
3 79 78 276
3 82 112 111
3 119 118 281
3 77 74 73
3 276 281 116
3 281 120 119
3 276 78 281
3 276 112 81
3 112 276 113
3 113 276 114
3 114 276 115
3 265 120 281
3 282 71 70
3 275 270 64
3 255 254 253
3 264 250 249
3 248 264 249
3 264 247 246
3 271 245 244
3 271 263 264
3 271 264 246
3 243 242 273
3 273 241 268
3 241 240 239
3 273 242 241
3 268 239 238
3 236 235 266
3 268 266 283
3 241 239 268
3 283 266 174
3 266 176 175
3 177 176 266
3 234 178 266
3 266 178 177
3 283 174 173
3 284 172 171
3 283 285 262
3 266 235 234
3 179 234 233
3 232 231 181
3 180 233 232
3 179 233 180
3 181 180 232
3 182 181 231
3 230 267 231
3 234 179 178
3 284 171 170
3 222 221 218
3 221 219 218
3 219 221 220
3 223 222 217
3 216 224 223
3 226 225 214
3 215 225 224
3 222 218 217
3 216 215 224
3 217 216 223
3 226 214 277
3 277 212 211
3 277 214 213
3 215 214 225
3 277 211 210
3 182 231 267
3 278 286 203
3 227 277 228
3 207 272 208
3 184 278 185
3 184 183 278
3 201 200 278
3 278 199 198
3 226 277 227
3 272 207 206
3 208 272 277
3 206 205 286
3 273 262 21
3 205 204 286
3 267 183 182
3 203 202 278
3 206 286 272
3 273 21 271
3 208 277 209
3 277 210 209
3 169 168 270
3 270 284 169
3 270 168 274
3 163 279 164
3 165 287 166
3 165 164 287
3 287 120 274
3 284 170 169
3 163 162 279
3 160 288 162
3 279 288 122
3 161 160 162
3 158 280 159
3 160 280 288
3 287 164 279
3 158 156 280
3 124 123 288
3 280 160 159
3 288 280 125
3 153 129 128
3 129 152 130
3 128 127 154
3 126 155 127
3 154 127 155
3 130 152 131
3 153 128 154
3 132 131 151
3 150 133 132
3 133 149 134
3 134 148 135
3 153 152 129
3 126 280 155
3 156 155 280
3 158 157 156
3 194 189 188
3 187 195 188
3 194 190 189
3 192 190 193
3 190 192 191
3 193 190 194
3 196 187 186
3 186 185 197
3 197 185 198
3 278 198 185
3 196 195 187
3 194 188 195
3 197 196 186
3 151 150 132
3 149 133 150
3 134 149 148
3 140 137 136
3 137 139 138
3 147 136 135
3 148 147 135
3 131 152 151
3 147 146 140
3 145 144 142
3 146 145 141
3 139 137 140
3 145 142 141
3 141 140 146
3 143 142 144
3 140 136 147
3 260 259 261
3 199 278 200
3 258 261 259
3 247 264 248
3 13 264 263
3 73 265 77
3 72 71 282
3 174 266 175
3 237 236 266
3 272 230 229
3 204 203 286
3 238 237 268
3 266 268 237
3 22 262 269
3 283 262 268
3 168 167 274
3 66 65 270
3 271 244 243
3 20 263 271
3 230 272 267
3 228 272 229
3 262 273 268
3 243 273 271
3 287 167 166
3 282 120 265
3 62 285 63
3 62 61 285
3 79 276 80
3 116 115 276
3 277 272 228
3 213 212 277
3 267 278 183
3 202 201 278
3 122 121 279
3 279 121 120
3 126 125 280
3 288 125 124
3 118 117 281
3 281 117 116
3 289 69 68
3 120 282 274
3 173 275 283
3 283 275 285
3 270 275 284
3 172 284 275
3 61 269 285
3 262 285 269
3 278 267 286
3 272 286 267
3 120 287 279
3 167 287 274
3 122 288 123
3 288 279 162
3 274 289 270
3 66 270 289
