ply
format ascii 1.0
element vertex 290
property float x
property float y
property float z
property float u
property float v
element face 317
property list uchar int vertex_indices
end_header
40.8452 -383.521 0 147.636 8.36396
31.0729 -374.763 0 139.979 19.0208
28.0414 -360.913 0 140 33.201
28.7262 -346.961 0 143.678 46.6777
39.934 -341.085 0 155.887 50
47.563 -351.924 0 161 37.7695
53.4673 -350.825 0 167 37.5736
57.8247 -338.074 0 174 49.0883
60.6912 -324.509 0 179.719 61.7193
73.4103 -326.537 0 191.704 57
77.4937 -315.776 0 198 66.6324
79.6025 -302.074 0 203 79.5613
71.239 -295.506 0 196.239 87.7609
59.3039 -288.894 0 186 96.7624
47.6662 -282.073 0 176.097 105.903
36.6493 -274.175 0 167.026 115.974
38.7835 -261.595 0 171.803 127.803
36.9966 -252.498 0 172 137.064
40.3077 -239.555 0 177.995 148.995
44.642 -226.242 0 185.066 161.066
53.285 -215.345 0 195.844 169.844
58.1931 -202.057 0 203.622 181.622
51.9241 -197.377 0 199.605 187
38.1753 -203.651 0 186.185 183.185
24.3074 -210.559 0 172.919 179
9.08177 -218.039 0 159.407 175.407
-7.07032 -224.191 0 145.818 174
-20.9169 -236.026 0 134 166.718
-26.0177 -253.073 0 130.265 153.265
-31.393 -269.649 0 126 140.032
-37.5341 -285.961 0 121 127.103
-42.7307 -302.388 0 116.83 113.83
-48.6059 -317.349 0 111 101.245
-54.7501 -332.161 0 104.809 88.8092
-62.1839 -346.278 0 97.031 77.031
-67.58 -359.389 0 90 64.9434
-70.5587 -368.012 0 85.8385 56.8385
-79.0962 -370.765 0 77 55.3289
-77.4757 -357.253 0 80.5247 68.4753
-75.9711 -350.637 0 83 74.8438
-89.7322 -348.404 0 69.8678 79.1322
-98.1968 -356.824 0 60.2982 72
-106.926 -364.588 0 50.554 65.554
-109.661 -356.474 0 49 73.9741
-105.331 -344.394 0 55 85.3173
-98.6895 -332.36 0 63.2955 96.2955
-87.031 -324.961 0 75.9327 102
-74.5162 -312.828 0 86 109.276
-71.2421 -295.355 0 88 123.448
-67.7515 -278.315 0 90.4379 137.438
-65.1083 -261.91 0 92 150.963
-62.2377 -244.913 0 94 165.134
-59.568 -229.31 0 97 178.892
-56.5288 -214.526 0 101 192.235
-52.55 -200.395 0 106.116 205.116
-46.7819 -187.597 0 113.265 217
-39.1554 -190.142 0 120.43 213.43
-24.6641 -179.951 0 133.087 219.087
-10.7614 -169.279 0 145 225.052
-7.42604 -161.245 0 148.809 232
5.29668 -155.404 0 161.694 235.694
13.1786 -144.292 0 170 244.081
13.0032 -129.133 0 171 257.839
12.7832 -113.479 0 172 272.425
14.9867 -98.1343 0 175 286.182
9.15564 -85.0588 0 169.921 299.079
3.39112 -72.3152 0 165 312.04
-8.81353 -69.1409 0 153.031 316
-15.6239 -57.0877 0 147 328.484
-23.3571 -46.1242 0 140.001 339.999
-32.4489 -35.5 0 131.516 351.484
-40.8856 -24.6171 0 123.737 363.263
-48.6703 -13.7097 0 116.666 375.334
-58.1487 -3.47173 0 108.181 386.819
-67.483 7.41752 0 99.6956 398.304
-77.9954 17.601 0 89.7115 409
-71.8093 23.9052 0 96.2175 415
-58.7558 28.5128 0 109.561 419
-56.1328 37.9145 0 113 429.49
-61.2045 49.7682 0 109 442.833
-64.1494 63.1532 0 107 457.005
-67.6703 75.3018 0 104 470.762
-78.2122 81.2692 0 92.9758 480.024
-88.0038 87.5159 0 82.0762 489.924
-98.4292 91.5852 0 70.298 497.702
-107.47 98.2372 0 60.1059 507.894
-115.626 106.077 0 50.9132 519.087
-123.549 114.107 0 42.5491 529.451
-129.599 124.284 0 36.1849 541.815
-135.729 133.288 0 29 553.839
-141.791 141.799 0 21.7498 565.25
-149.131 151.717 0 13.9716 577.028
-156.798 162.566 0 6.60748 588.393
-160.79 175.881 0 3 601.898
-158.427 186.041 0 5.65576 612
-145.741 180.391 0 18.1705 606
-133.065 186.938 0 29.8989 613.899
-122.661 197.033 0 41.129 623
-111.885 206.624 0 52.4011 632
-99.9927 213.888 0 64.6477 638.648
-90.7293 214.649 0 73.938 638.938
-98.2296 203.184 0 65.8669 627.867
-104.477 190.702 0 59 615.711
-109.066 177.709 0 53.8459 602.846
-114.554 166.109 0 49 589.853
-111.995 159.606 0 53.4191 580
-102.527 153.744 0 64.4886 570.511
-93.1289 148.14 0 75.5491 561
-83.6967 142.473 0 86.5804 551.42
-74.1405 136.27 0 97.4802 541.52
-64.4113 130.47 0 108.537 532
-54.6776 124.65 0 119.572 522.428
-44.2977 121.534 0 131.643 515.357
-32.4222 119.314 0 144.593 510.407
-20.6432 113.245 0 156 502.475
-12.5149 102.353 0 163 490.374
-4.34658 91.8217 0 170.514 478.486
5.5708 82.4853 0 180 467.416
15.0042 72.3366 0 188.191 455.809
23.4572 61.613 0 195.262 443.738
34.3764 55.0469 0 206.057 435
43.85 67.346 0 216.526 444.526
54.0443 79.2661 0 227.602 454
64.2937 90.4361 0 238.911 462.911
74.864 100.659 0 250.56 471
85.8684 111.484 0 262.174 479.174
98.148 122.37 0 274.245 486.245
103.52 138.875 0 280 498.862
107.066 156.716 0 284 512.205
110.581 174.504 0 288 525.548
114.749 190.578 0 293 538.477
119.962 206.376 0 298.995 550.995
127.393 223.046 0 306.773 562.773
134.829 239.816 0 314.551 574.551
143.704 256.174 0 323.743 585.743
151.758 272.669 0 332.229 597.229
160.21 287.916 0 341.421 608.421
168.513 300.637 0 351 618.867
177.634 310.231 0 361.382 627
183.792 306.124 0 366.861 622
185.789 295.38 0 367.169 610.831
200.881 298.114 0 380.582 607
214.769 296.363 0 394.339 604
227.583 290.642 0 406.311 596.689
226.46 281.703 0 404.046 588
212.09 278.665 0 389.46 587
197.228 273.667 0 374.874 586
183.734 264.923 0 361.961 583.039
177.927 249.071 0 356 572.431
174.425 231.056 0 352 559.088
171.449 212.935 0 348.527 545.527
167.353 195.117 0 344 532.403
162.654 177.073 0 339 519.474
159.096 158.711 0 335.093 506.093
155.443 140.779 0 331 492.789
154.923 122.564 0 330 479.032
157.251 105.824 0 331 464.446
163.232 94.2241 0 336 452.689
154.524 85.1448 0 326.538 444.538
146.466 72.4546 0 317.345 433.345
136.952 60.6584 0 306.86 423.86
141.588 54.8342 0 311 418.459
134.574 42.3683 0 303 407.358
127.382 28.2983 0 294.768 395.768
120.6 14.5228 0 286.99 383.99
112.919 1.34452 0 278.505 372.505
105.308 -11.1993 0 270 361.027
97.0715 -24.0018 0 261 349.755
92.1265 -37.3601 0 255.998 338
94.9048 -48.9679 0 259 326.483
99.5684 -61.6819 0 263 313.141
103.738 -74.7654 0 266 299.384
107.704 -87.7839 0 269 285.626
111.801 -99.7965 0 273 272.284
122.457 -104.579 0 284.578 264.422
134.62 -104.924 0 297.331 261
148.046 -100.619 0 311.917 262
158.251 -101.785 0 322 258.155
168.448 -106.83 0 331.188 250
179.688 -100.136 0 344.531 252
193.138 -95.3478 0 359.117 251
206.528 -90.2428 0 373.703 250
219.775 -86.1739 0 387.874 248
217.44 -73.1221 0 391 260.459
211.429 -59.2618 0 391 275.459
204.731 -46.2457 0 390 290.047
198.805 -32.4726 0 390 305.044
192.119 -19.4655 0 389 319.633
186.195 -5.68538 0 389 334.633
179.513 7.31623 0 388 349.217
173.589 21.0967 0 388 364.217
169.084 34.1427 0 389.018 377.982
174.339 34.539 0 394 376.269
177.213 22.7898 0 392 364.34
184.649 10.5615 0 394 350.169
194.757 1.07712 0 399.537 337.463
207.622 -5.57329 0 408.73 326.27
221.523 -8.59597 0 420.304 318
235.4 -9.79613 0 432.579 311.421
249.271 -11.5301 0 444.649 304.351
263.153 -14.0171 0 456.428 296.572
274.554 -21.3688 0 464 285.295
284.236 -31.23 0 469 272.366
291.609 -43.3446 0 471 258.194
298.208 -56.2309 0 472 243.608
303.787 -69.2365 0 472 229.438
309.533 -81.1049 0 472.64 216.36
315.673 -93.9486 0 473.238 202.238
318.863 -106.254 0 471.297 189.703
325.351 -119.46 0 471.996 174.996
328.267 -133.27 0 469.168 161.168
327.357 -147.15 0 462.804 148.804
320.416 -158.967 0 451.733 140.733
311.893 -170.009 0 439.522 134
303.579 -181.247 0 427.422 127
296.957 -193.367 0 416.52 118.52
293.749 -207.279 0 408.035 107.035
295.135 -221.117 0 403.792 93.7925
299.917 -234.132 0 403 79.9492
306.501 -244.277 0 405 68.0205
305.327 -252.192 0 400.772 61.2279
296.518 -241.367 0 397 74.6653
289.793 -228.383 0 396 89.2529
283.821 -214.626 0 396 104.253
277.092 -201.65 0 395 118.836
271.117 -187.89 0 395 133.837
265.141 -174.128 0 395 148.837
258.413 -161.142 0 394 163.422
252.43 -147.373 0 394 178.422
245.69 -134.416 0 393 193.009
239.672 -120.794 0 393 208.01
228.934 -117.434 0 384.873 215.873
215.466 -124.923 0 370.234 215
201.944 -132.142 0 355.649 214
188.24 -139.128 0 341.063 213
181.821 -148.943 0 332.72 206
167.549 -154.194 0 318.135 205
156.835 -163.732 0 306.439 198.439
151.978 -177.158 0 299.367 186.367
149.472 -189.338 0 294.581 175
156.714 -195.839 0 300.319 167
144.465 -198.744 0 287.862 166.862
143.067 -211.792 0 284 154.29
138.78 -225.129 0 277.134 142.134
134.291 -238.375 0 270 130.09
130.958 -250.208 0 264.235 119.235
128.132 -262.457 0 258.871 107.871
122.695 -274.46 0 251 97.303
117.093 -287.537 0 242.729 85.7291
109.319 -299.678 0 232.536 75.5365
96.2907 -304.831 0 218.708 73.2917
85.6008 -310.494 0 207.052 70.0515
81.3035 -323.803 0 200 57.9727
89.0299 -332.31 0 205.713 48
96.3583 -340.991 0 211 37.9436
95.3029 -345.496 0 209 33.7725
92.5087 -356.108 0 203.989 24.0107
87.6692 -366.341 0 197.061 15.061
79.8741 -374.266 0 187.744 9
68.7218 -381.554 0 175.283 4.28345
53.5282 -388.264 0 159 1
53.9024 -369.545 0 163.397 19.2
72.699 -180.21 0 222.418 199.851
62.677 -252.177 0 197.158 131.895
91.8021 -277.925 0 220.087 100.537
-16.1858 23.7789 0 151.861 410.94
149.533 -130.243 0 306.586 232.878
243.474 -95.2107 0 406.468 230.06
112.681 -176.482 0 261.32 195.618
34.8369 -169.291 0 188.497 217.457
50.1097 -59.4996 0 212.946 320.627
96.3268 -234.178 0 233.86 142.326
279.727 -109.941 0 433.92 201.91
117.098 -203.16 0 260.625 168.349
57.6822 -18.9626 0 222.394 359.242
62.8713 -111.044 0 221.899 268.749
-35.5979 79.2998 0 136.779 470.704
298.771 -138.309 0 440.11 168.305
249.432 -51.0789 0 429.173 267.959
82.9593 42.584 0 251.883 414.403
116.242 90.9605 0 288.938 454.209
-2.52354 49.1242 0 167.384 435.514
-9.30592 -9.38456 0 156.203 376.245
100.664 -138.564 0 256.529 235.57
73.505 -77.9729 0 235.437 299.924
42.3001 -135.093 0 199.546 248.849
271.258 -75.4848 0 439.635 236.523
84.2325 10.5296 0 250.681 384.232
89.5369 74.5629 0 261.248 443.175
4.00186 -34.9626 0 168.09 349.187
3 42 41 43
3 38 37 36
3 43 41 44
3 40 46 45
3 40 45 44
3 41 40 44
3 5 3 2
3 1 261 2
3 39 35 34
3 39 38 35
3 39 34 46
3 46 40 39
3 35 38 36
3 33 46 34
3 46 33 47
3 30 49 48
3 50 49 29
3 27 52 51
3 27 53 52
3 28 51 50
3 31 48 47
3 31 30 48
3 28 50 29
3 30 29 49
3 54 56 55
3 54 53 56
3 56 53 27
3 28 27 51
3 56 27 26
3 31 47 32
3 33 32 47
3 0 260 261
3 7 6 256
3 6 5 261
3 264 13 12
3 2 261 5
3 4 3 5
3 9 8 7
3 6 261 258
3 257 256 6
3 256 253 7
3 253 256 255
3 10 9 252
3 10 252 251
3 253 252 9
3 7 253 9
3 257 6 258
3 16 15 14
3 16 14 263
3 263 17 16
3 57 26 25
3 58 25 24
3 14 13 263
3 17 263 18
3 264 11 250
3 11 264 12
3 21 20 271
3 61 60 269
3 263 19 18
3 23 269 24
3 250 11 251
3 19 263 20
3 10 251 11
3 56 26 57
3 22 21 262
3 0 261 1
3 246 245 271
3 23 22 269
3 107 87 86
3 107 86 108
3 86 85 108
3 105 90 89
3 89 88 106
3 107 88 87
3 107 106 88
3 85 84 109
3 76 75 74
3 77 76 74
3 110 109 84
3 85 109 108
3 84 83 110
3 82 111 83
3 82 81 112
3 95 93 92
3 92 91 95
3 91 90 104
3 104 95 91
3 95 94 93
3 103 97 96
3 95 104 96
3 96 104 103
3 102 97 103
3 90 105 104
3 102 98 97
3 99 98 101
3 101 100 99
3 98 102 101
3 89 106 105
3 59 58 60
3 57 25 58
3 289 70 69
3 282 265 72
3 289 282 70
3 60 58 269
3 63 275 64
3 275 63 285
3 67 66 68
3 68 66 289
3 270 65 64
3 173 172 275
3 24 269 58
3 289 274 282
3 73 72 265
3 78 265 281
3 265 78 77
3 81 80 276
3 83 111 110
3 79 78 276
3 82 112 111
3 119 118 281
3 77 74 73
3 276 281 116
3 281 120 119
3 276 78 281
3 276 112 81
3 112 276 113
3 113 276 114
3 114 276 115
3 265 120 281
3 282 71 70
3 275 270 64
3 255 254 253
3 264 250 249
3 248 264 249
3 264 247 246
3 271 245 244
3 271 263 264
3 271 264 246
3 243 242 273
3 273 241 268
3 241 240 239
3 273 242 241
3 268 239 238
3 236 235 266
3 268 266 283
3 241 239 268
3 283 266 174
3 266 176 175
3 177 176 266
3 234 178 266
3 266 178 177
3 283 174 173
3 284 172 171
3 283 285 262
3 266 235 234
3 179 234 233
3 232 231 181
3 180 233 232
3 179 233 180
3 181 180 232
3 182 181 231
3 230 267 231
3 234 179 178
3 284 171 170
3 222 221 218
3 221 219 218
3 219 221 220
3 223 222 217
3 216 224 223
3 226 225 214
3 215 225 224
3 222 218 217
3 216 215 224
3 217 216 223
3 226 214 277
3 277 212 211
3 277 214 213
3 215 214 225
3 277 211 210
3 182 231 267
3 278 286 203
3 227 277 228
3 207 272 208
3 184 278 185
3 184 183 278
3 201 200 278
3 278 199 198
3 226 277 227
3 272 207 206
3 208 272 277
3 206 205 286
3 273 262 21
3 205 204 286
3 267 183 182
3 203 202 278
3 206 286 272
3 273 21 271
3 208 277 209
3 277 210 209
3 169 168 270
3 270 284 169
3 270 168 274
3 163 279 164
3 165 287 166
3 165 164 287
3 287 120 274
3 284 170 169
3 163 162 279
3 160 288 162
3 279 288 122
3 161 160 162
3 158 280 159
3 160 280 288
3 287 164 279
3 158 156 280
3 124 123 288
3 280 160 159
3 288 280 125
3 153 129 128
3 129 152 130
3 128 127 154
3 126 155 127
3 154 127 155
3 130 152 131
3 153 128 154
3 132 131 151
3 150 133 132
3 133 149 134
3 134 148 135
3 153 152 129
3 126 280 155
3 156 155 280
3 158 157 156
3 194 189 188
3 187 195 188
3 194 190 189
3 192 190 193
3 190 192 191
3 193 190 194
3 196 187 186
3 186 185 197
3 197 185 198
3 278 198 185
3 196 195 187
3 194 188 195
3 197 196 186
3 151 150 132
3 149 133 150
3 134 149 148
3 140 137 136
3 137 139 138
3 147 136 135
3 148 147 135
3 131 152 151
3 147 146 140
3 145 144 142
3 146 145 141
3 139 137 140
3 145 142 141
3 141 140 146
3 143 142 144
3 140 136 147
3 260 259 261
3 199 278 200
3 258 261 259
3 247 264 248
3 13 264 263
3 73 265 77
3 72 71 282
3 174 266 175
3 237 236 266
3 272 230 229
3 204 203 286
3 238 237 268
3 266 268 237
3 22 262 269
3 283 262 268
3 168 167 274
3 66 65 270
3 271 244 243
3 20 263 271
3 230 272 267
3 228 272 229
3 262 273 268
3 243 273 271
3 287 167 166
3 282 120 265
3 62 285 63
3 62 61 285
3 79 276 80
3 116 115 276
3 277 272 228
3 213 212 277
3 267 278 183
3 202 201 278
3 122 121 279
3 279 121 120
3 126 125 280
3 288 125 124
3 118 117 281
3 281 117 116
3 289 69 68
3 120 282 274
3 173 275 283
3 283 275 285
3 270 275 284
3 172 284 275
3 61 269 285
3 262 285 269
3 278 267 286
3 272 286 267
3 120 287 279
3 167 287 274
3 122 288 123
3 288 279 162
3 274 289 270
3 66 270 289
