ply
format ascii 1.0
element vertex 290
property float x
property float y
property float z
property float u
property float v
element face 317
property list uchar int vertex_indices
end_header
66.8804 -393.672 0 147.636 8.36396
56.6256 -385.483 0 139.979 19.0208
52.8106 -371.829 0 140 33.201
52.6994 -357.861 0 143.678 46.6777
63.5541 -351.356 0 155.887 50
71.7884 -361.743 0 161 37.7695
77.6206 -360.31 0 167 37.5736
81.2448 -347.331 0 174 49.0883
83.3341 -333.625 0 179.719 61.7193
96.1481 -334.925 0 191.704 57
99.6128 -323.949 0 198 66.6324
100.939 -310.15 0 203 79.5613
92.2163 -304.066 0 196.239 87.7609
79.9255 -298.138 0 186 96.7624
67.9202 -291.985 0 176.097 105.903
56.4731 -284.724 0 167.026 115.974
57.8901 -272.043 0 171.803 127.803
55.5903 -263.061 0 172 137.064
58.1629 -249.949 0 177.995 148.995
61.7377 -236.409 0 185.066 161.066
69.7546 -225.029 0 195.844 169.844
73.9271 -211.414 0 203.622 181.622
67.4888 -206.809 0 199.605 187
54.2048 -213.614 0 186.185 183.185
40.7945 -221.121 0 172.919 179
26.1462 -229.234 0 159.407 175.407
10.5309 -236.122 0 145.818 174
-2.46512 -248.548 0 134 166.718
-6.37682 -265.681 0 130.265 153.265
-10.592 -282.381 0 126 140.032
-15.5712 -298.867 0 121 127.103
-19.581 -315.411 0 116.83 113.83
-24.3791 -330.601 0 111 101.245
-29.4421 -345.671 0 104.809 88.8092
-35.8357 -360.172 0 97.031 77.031
-40.3198 -373.609 0 90 64.9434
-42.704 -382.415 0 85.8385 56.8385
-51.0342 -385.743 0 77 55.3289
-50.3373 -372.152 0 80.5247 68.4753
-49.285 -365.445 0 83 74.8438
-63.1597 -364.145 0 69.8678 79.1322
-71.031 -373.122 0 60.2982 72
-79.2114 -381.462 0 50.554 65.554
-82.4922 -373.554 0 49 73.9741
-78.9955 -361.207 0 55 85.3173
-73.188 -348.748 0 63.2955 96.2955
-62.0587 -340.569 0 75.9327 102
-50.5349 -327.806 0 86 109.276
-48.5468 -310.304 0 88 123.448
-46.2755 -293.206 0 90.4379 137.438
-44.7873 -276.796 0 92 150.963
-43.0866 -259.777 0 94 165.134
-41.4265 -244.084 0 97 178.892
-39.3031 -229.143 0 101 192.235
-36.1422 -214.814 0 106.116 205.116
-31.0692 -201.729 0 113.265 217
-23.3331 -203.867 0 120.43 213.43
-9.57553 -192.999 0 133.087 219.087
3.56986 -181.686 0 145 225.052
6.49205 -173.459 0 148.809 232
18.8959 -166.973 0 161.694 235.694
26.2539 -155.298 0 170 244.081
25.5425 -139.908 0 171 257.839
24.8959 -124.062 0 172 272.425
26.8928 -108.435 0 175 286.182
20.9116 -95.4074 0 169.921 299.079
14.9536 -82.7616 0 165 312.04
2.7027 -79.7955 0 153.031 316
-4.30076 -67.8629 0 147 328.484
-12.204 -57.0191 0 140.001 339.999
-21.433 -46.5795 0 131.516 351.484
-30.009 -35.8591 0 123.737 363.263
-37.9394 -25.1496 0 116.666 375.334
-47.6139 -15.0526 0 108.181 386.819
-57.0341 -4.18729 0 99.6956 398.304
-67.5757 5.96911 0 89.7115 409
-61.409 12.2892 0 96.2175 415
-48.3827 16.9306 0 109.561 419
-45.8164 26.1606 0 113 429.49
-50.9135 37.8891 0 109 442.833
-53.7925 51.297 0 107 457.005
-57.038 63.3534 0 104 470.762
-67.0302 69.0655 0 92.9758 480.024
-75.9263 74.9146 0 82.0762 489.924
-85.4565 78.6599 0 70.298 497.702
-93.4586 84.987 0 60.1059 507.894
-100.496 92.5328 0 50.9132 519.087
-107.529 100.559 0 42.5491 529.451
-112.542 110.665 0 36.1849 541.815
-117.325 119.453 0 29 553.839
-121.955 127.822 0 21.7498 565.25
-128.011 138.038 0 13.9716 577.028
-134.628 149.502 0 6.60748 588.393
-137.418 163.112 0 3 601.898
-134.17 173.025 0 5.65576 612
-122.025 166.283 0 18.1705 606
-108.093 171.33 0 29.8989 613.899
-96.9876 180.573 0 41.129 623
-85.409 189.171 0 52.4011 632
-72.915 195.342 0 64.6477 638.648
-63.6209 195.272 0 73.938 638.938
-72.1168 184.524 0 65.8669 627.867
-79.4587 172.653 0 59 615.711
-85.2345 160.155 0 53.8459 602.846
-92.3354 149.539 0 49 589.853
-91.4071 143.764 0 53.4191 580
-83.3865 138.17 0 64.4886 570.511
-75.4046 132.973 0 75.5491 561
-67.325 127.756 0 86.5804 551.42
-59.0202 121.986 0 97.4802 541.52
-50.4769 116.665 0 108.537 532
-41.8962 111.392 0 119.572 522.428
-32.6252 108.915 0 131.643 515.357
-21.4486 107.014 0 144.593 510.407
-10.0023 101.044 0 156 502.475
-2.1378 90.303 0 163 490.374
5.66652 80.1008 0 170.514 478.486
15.287 71.1448 0 180 467.416
24.7 61.3073 0 188.191 455.809
33.2066 50.9558 0 195.262 443.738
43.838 45.0438 0 206.057 435
52.8276 57.8361 0 216.526 444.526
62.5967 70.2001 0 227.602 454
72.3777 81.8121 0 238.911 462.911
82.4664 92.5241 0 250.56 471
93.0395 103.969 0 262.174 479.174
105 115.722 0 274.245 486.245
109.821 132.979 0 280 498.862
112.755 151.668 0 284 512.205
115.64 170.301 0 288 525.548
119.141 187.016 0 293 538.477
123.692 203.517 0 298.995 550.995
130.502 221.261 0 306.773 562.773
137.303 239.127 0 314.551 574.551
145.54 256.67 0 323.743 585.743
152.912 274.3 0 332.229 597.229
160.634 290.538 0 341.421 608.421
168.176 303.949 0 351 618.867
176.649 314.133 0 361.382 627
183.07 310.451 0 366.861 622
185.797 299.906 0 367.169 610.831
201.088 304.447 0 380.582 607
215.011 303.518 0 394.339 604
228.172 298.65 0 406.311 596.689
227.638 289.65 0 404.046 588
213.487 285.646 0 389.46 587
198.798 279.313 0 374.874 586
185.522 268.989 0 361.961 583.039
180.302 251.991 0 356 572.431
177.506 233.028 0 352 559.088
175.221 214 0 348.527 545.527
171.78 195.213 0 344 532.403
167.705 176.106 0 339 519.474
164.772 156.741 0 335.093 506.093
161.732 137.865 0 331 492.789
161.814 118.819 0 330 479.032
164.826 101.695 0 331 464.446
171.27 90.2721 0 336 452.689
162.937 80.7959 0 326.538 444.538
155.365 67.5806 0 317.345 433.345
146.244 55.0739 0 306.86 423.86
151.053 49.2063 0 311 418.459
144.413 36.3566 0 303 407.358
137.582 21.6492 0 294.768 395.768
131.097 7.35175 0 286.99 383.99
123.637 -6.2686 0 278.505 372.505
116.236 -19.1019 0 270 361.027
108.124 -32.2468 0 261 349.755
103.11 -45.855 0 255.998 338
105.798 -57.3397 0 259 326.483
110.583 -69.8544 0 263 313.141
114.964 -82.7471 0 266 299.384
119.092 -95.4903 0 269 285.626
123.112 -107.003 0 273 272.284
133.279 -111 0 284.578 264.422
145.077 -110.669 0 297.331 261
158.121 -105.736 0 311.917 262
168.155 -106.383 0 322 258.155
178.057 -110.82 0 331.188 250
187.834 -103.371 0 344.531 252
199.769 -97.6186 0 359.117 251
211.597 -91.4889 0 373.703 250
223.514 -86.3496 0 387.874 248
219.523 -73.5499 0 391 260.459
212.134 -60.2892 0 391 275.459
204.256 -47.931 0 390 290.047
197.121 -34.744 0 390 305.044
189.298 -22.3868 0 389 319.633
182.166 -9.19143 0 389 334.633
174.349 3.16061 0 388 349.217
167.215 16.3557 0 388 364.217
161.562 28.9466 0 389.018 377.982
166.76 29.8112 0 394 376.269
170.674 18.366 0 392 364.34
179.174 6.85225 0 394 350.169
190.089 -1.6906 0 399.537 337.463
203.497 -7.16423 0 408.73 326.27
217.612 -8.9321 0 420.304 318
231.536 -8.89048 0 432.579 311.421
245.496 -9.38017 0 444.649 304.351
259.537 -10.6134 0 456.428 296.572
271.538 -16.9104 0 464 285.295
282.03 -25.8573 0 469 272.366
290.337 -37.2506 0 471 258.194
297.945 -49.4734 0 472 243.608
304.665 -61.9097 0 472 229.438
311.554 -73.2013 0 472.64 216.36
318.941 -85.4276 0 473.238 202.238
323.272 -97.3845 0 471.297 189.703
330.95 -109.932 0 471.996 174.996
335.126 -123.413 0 469.168 161.168
335.499 -137.318 0 462.804 148.804
329.677 -149.725 0 451.733 140.733
322.208 -161.505 0 439.522 134
314.965 -173.461 0 427.422 127
309.488 -186.139 0 416.52 118.52
307.577 -200.288 0 408.035 107.035
310.233 -213.939 0 403.792 93.7925
316.195 -226.457 0 403 79.9492
323.686 -235.952 0 405 68.0205
323.247 -243.941 0 400.772 61.2279
313.477 -233.975 0 397 74.6653
305.584 -221.667 0 396 89.2529
298.368 -208.519 0 396 104.253
290.472 -196.218 0 395 118.836
283.253 -183.068 0 395 133.837
276.034 -169.915 0 395 148.837
268.139 -157.602 0 394 163.422
260.916 -144.436 0 394 178.422
253.052 -132.148 0 393 193.009
245.943 -119.128 0 393 208.01
235.462 -116.782 0 384.873 215.873
223.65 -125.438 0 370.234 215
211.68 -133.748 0 355.649 214
199.519 -141.767 0 341.063 213
194.154 -151.97 0 332.72 206
180.314 -158.079 0 318.135 205
170.169 -168.142 0 306.439 198.439
166.09 -181.677 0 299.367 186.367
164.268 -193.904 0 294.581 175
171.869 -199.952 0 300.319 167
159.805 -203.516 0 287.862 166.862
159.169 -216.516 0 284 154.29
155.651 -230.021 0 277.134 142.134
151.926 -243.467 0 270 130.09
149.27 -255.46 0 264.235 119.235
147.143 -267.846 0 258.871 107.871
142.395 -280.134 0 251 97.303
137.544 -293.507 0 242.729 85.7291
130.472 -306.07 0 232.536 75.5365
117.757 -311.954 0 218.708 73.2917
107.406 -318.214 0 207.052 70.0515
103.873 -331.747 0 200 57.9727
112.071 -339.799 0 205.713 48
119.882 -348.048 0 211 37.9436
119.085 -352.607 0 209 33.7725
116.9 -363.36 0 203.989 24.0107
112.651 -373.852 0 197.061 15.061
105.319 -382.209 0 187.744 9
94.6 -390.12 0 175.283 4.28345
79.8129 -397.685 0 159 1
79.121 -378.974 0 163.397 19.2
87.2233 -188.716 0 222.418 199.851
81.2111 -261.285 0 197.158 131.895
111.748 -285.347 0 220.087 100.537
-5.83778 12.4637 0 151.861 410.94
160.973 -135.258 0 306.586 232.878
247.427 -93.2946 0 406.468 230.06
126.826 -183.116 0 261.32 195.618
49.0018 -179.464 0 188.497 217.457
61.301 -68.8889 0 212.946 320.627
113.785 -241.42 0 233.86 142.326
284.647 -104.651 0 433.92 201.91
132.758 -209.342 0 260.625 168.349
68.5527 -28.2034 0 222.394 359.242
74.8959 -120.024 0 221.899 268.749
-25.1051 67.155 0 136.779 470.704
306.221 -131.149 0 440.11 168.305
249.196 -48.7575 0 429.173 267.959
92.7684 34.535 0 251.883 414.403
124.467 84.9893 0 288.938 454.209
7.69632 37.6871 0 167.384 435.514
1.43245 -20.2914 0 156.203 376.245
113.156 -145.941 0 256.529 235.57
84.8517 -86.7071 0 235.437 299.924
54.9734 -144.892 0 199.546 248.849
272.787 -71.0795 0 439.635 236.523
94.7381 2.19202 0 250.681 384.232
98.3488 67.1314 0 261.248 443.175
14.9857 -45.4371 0 168.09 349.187
3 42 41 43
3 38 37 36
3 43 41 44
3 40 46 45
3 40 45 44
3 41 40 44
3 5 3 2
3 1 261 2
3 39 35 34
3 39 38 35
3 39 34 46
3 46 40 39
3 35 38 36
3 33 46 34
3 46 33 47
3 30 49 48
3 50 49 29
3 27 52 51
3 27 53 52
3 28 51 50
3 31 48 47
3 31 30 48
3 28 50 29
3 30 29 49
3 54 56 55
3 54 53 56
3 56 53 27
3 28 27 51
3 56 27 26
3 31 47 32
3 33 32 47
3 0 260 261
3 7 6 256
3 6 5 261
3 264 13 12
3 2 261 5
3 4 3 5
3 9 8 7
3 6 261 258
3 257 256 6
3 256 253 7
3 253 256 255
3 10 9 252
3 10 252 251
3 253 252 9
3 7 253 9
3 257 6 258
3 16 15 14
3 16 14 263
3 263 17 16
3 57 26 25
3 58 25 24
3 14 13 263
3 17 263 18
3 264 11 250
3 11 264 12
3 21 20 271
3 61 60 269
3 263 19 18
3 23 269 24
3 250 11 251
3 19 263 20
3 10 251 11
3 56 26 57
3 22 21 262
3 0 261 1
3 246 245 271
3 23 22 269
3 107 87 86
3 107 86 108
3 86 85 108
3 105 90 89
3 89 88 106
3 107 88 87
3 107 106 88
3 85 84 109
3 76 75 74
3 77 76 74
3 110 109 84
3 85 109 108
3 84 83 110
3 82 111 83
3 82 81 112
3 95 93 92
3 92 91 95
3 91 90 104
3 104 95 91
3 95 94 93
3 103 97 96
3 95 104 96
3 96 104 103
3 102 97 103
3 90 105 104
3 102 98 97
3 99 98 101
3 101 100 99
3 98 102 101
3 89 106 105
3 59 58 60
3 57 25 58
3 289 70 69
3 282 265 72
3 289 282 70
3 60 58 269
3 63 275 64
3 275 63 285
3 67 66 68
3 68 66 289
3 270 65 64
3 173 172 275
3 24 269 58
3 289 274 282
3 73 72 265
3 78 265 281
3 265 78 77
3 81 80 276
3 83 111 110
3 79 78 276
3 82 112 111
3 119 118 281
3 77 74 73
3 276 281 116
3 281 120 119
3 276 78 281
3 276 112 81
3 112 276 113
3 113 276 114
3 114 276 115
3 265 120 281
3 282 71 70
3 275 270 64
3 255 254 253
3 264 250 249
3 248 264 249
3 264 247 246
3 271 245 244
3 271 263 264
3 271 264 246
3 243 242 273
3 273 241 268
3 241 240 239
3 273 242 241
3 268 239 238
3 236 235 266
3 268 266 283
3 241 239 268
3 283 266 174
3 266 176 175
3 177 176 266
3 234 178 266
3 266 178 177
3 283 174 173
3 284 172 171
3 283 285 262
3 266 235 234
3 179 234 233
3 232 231 181
3 180 233 232
3 179 233 180
3 181 180 232
3 182 181 231
3 230 267 231
3 234 179 178
3 284 171 170
3 222 221 218
3 221 219 218
3 219 221 220
3 223 222 217
3 216 224 223
3 226 225 214
3 215 225 224
3 222 218 217
3 216 215 224
3 217 216 223
3 226 214 277
3 277 212 211
3 277 214 213
3 215 214 225
3 277 211 210
3 182 231 267
3 278 286 203
3 227 277 228
3 207 272 208
3 184 278 185
3 184 183 278
3 201 200 278
3 278 199 198
3 226 277 227
3 272 207 206
3 208 272 277
3 206 205 286
3 273 262 21
3 205 204 286
3 267 183 182
3 203 202 278
3 206 286 272
3 273 21 271
3 208 277 209
3 277 210 209
3 169 168 270
3 270 284 169
3 270 168 274
3 163 279 164
3 165 287 166
3 165 164 287
3 287 120 274
3 284 170 169
3 163 162 279
3 160 288 162
3 279 288 122
3 161 160 162
3 158 280 159
3 160 280 288
3 287 164 279
3 158 156 280
3 124 123 288
3 280 160 159
3 288 280 125
3 153 129 128
3 129 152 130
3 128 127 154
3 126 155 127
3 154 127 155
3 130 152 131
3 153 128 154
3 132 131 151
3 150 133 132
3 133 149 134
3 134 148 135
3 153 152 129
3 126 280 155
3 156 155 280
3 158 157 156
3 194 189 188
3 187 195 188
3 194 190 189
3 192 190 193
3 190 192 191
3 193 190 194
3 196 187 186
3 186 185 197
3 197 185 198
3 278 198 185
3 196 195 187
3 194 188 195
3 197 196 186
3 151 150 132
3 149 133 150
3 134 149 148
3 140 137 136
3 137 139 138
3 147 136 135
3 148 147 135
3 131 152 151
3 147 146 140
3 145 144 142
3 146 145 141
3 139 137 140
3 145 142 141
3 141 140 146
3 143 142 144
3 140 136 147
3 260 259 261
3 199 278 200
3 258 261 259
3 247 264 248
3 13 264 263
3 73 265 77
3 72 71 282
3 174 266 175
3 237 236 266
3 272 230 229
3 204 203 286
3 238 237 268
3 266 268 237
3 22 262 269
3 283 262 268
3 168 167 274
3 66 65 270
3 271 244 243
3 20 263 271
3 230 272 267
3 228 272 229
3 262 273 268
3 243 273 271
3 287 167 166
3 282 120 265
3 62 285 63
3 62 61 285
3 79 276 80
3 116 115 276
3 277 272 228
3 213 212 277
3 267 278 183
3 202 201 278
3 122 121 279
3 279 121 120
3 126 125 280
3 288 125 124
3 118 117 281
3 281 117 116
3 289 69 68
3 120 282 274
3 173 275 283
3 283 275 285
3 270 275 284
3 172 284 275
3 61 269 285
3 262 285 269
3 278 267 286
3 272 286 267
3 120 287 279
3 167 287 274
3 122 288 123
3 288 279 162
3 274 289 270
3 66 270 289
