ply
format ascii 1.0
element vertex 290
property float x
property float y
property float z
property float u
property float v
element face 317
property list uchar int vertex_indices
end_header
19.7667 -366.688 0 147.636 8.36396
10.5315 -357.364 0 139.979 19.0208
8.32751 -343.359 0 140 33.201
9.83962 -329.472 0 143.678 46.6777
21.3763 -324.272 0 155.887 50
28.3484 -335.545 0 161 37.7695
34.3075 -334.798 0 167 37.5736
39.4142 -322.328 0 174 49.0883
43.081 -308.958 0 179.719 61.7193
55.6573 -311.737 0 191.704 57
60.3719 -301.237 0 198 66.6324
63.2898 -287.685 0 203 79.5613
55.3314 -280.634 0 196.239 87.7609
43.8115 -273.329 0 186 96.7624
32.6009 -265.834 0 176.097 105.903
22.0709 -257.299 0 167.026 115.974
24.9459 -244.868 0 171.803 127.803
23.7002 -235.682 0 172 137.064
27.7703 -222.959 0 177.995 148.995
32.8837 -209.928 0 185.066 161.066
42.1615 -199.566 0 195.844 169.844
47.9074 -186.624 0 203.622 181.622
42.3257 -181.666 0 199.605 187
28.7094 -187.231 0 186.185 183.185
15.0422 -193.347 0 172.919 179
0.353821 -199.646 0 159.407 175.407
-15.0261 -204.348 0 145.818 174
-28.2212 -214.778 0 134 166.718
-32.8051 -230.657 0 130.265 153.265
-37.7407 -246.156 0 126 140.032
-43.4328 -261.386 0 121 127.103
-48.2058 -276.794 0 116.83 113.83
-53.9558 -291.028 0 111 101.245
-60.0007 -305.121 0 104.809 88.8092
-67.4293 -318.563 0 97.031 77.031
-73.2104 -331.439 0 90 64.9434
-76.4728 -339.955 0 85.8385 56.8385
-85.097 -342.419 0 77 55.3289
-83.0238 -328.968 0 80.5247 68.4753
-81.2844 -322.394 0 83 74.8438
-94.9112 -319.655 0 69.8678 79.1322
-103.652 -327.786 0 60.2982 72
-112.637 -335.253 0 50.554 65.554
-115.098 -327.052 0 49 73.9741
-110.366 -315.124 0 55 85.3173
-103.32 -303.316 0 63.2955 96.2955
-91.4066 -296.299 0 75.9327 102
-79.6915 -285.662 0 86 109.276
-76.9277 -269.269 0 88 123.448
-73.8731 -253.221 0 90.4379 137.438
-71.6687 -237.766 0 92 150.963
-69.1756 -221.694 0 94 165.134
-66.5102 -206.662 0 97 178.892
-63.2764 -192.293 0 101 192.235
-59.0345 -178.507 0 106.116 205.116
-52.9166 -165.932 0 113.265 217
-45.4019 -168.748 0 120.43 213.43
-31.4905 -159.934 0 133.087 219.087
-18.2127 -150.701 0 145 225.052
-14.7609 -142.972 0 148.809 232
-1.99026 -137.711 0 161.694 235.694
6.01922 -127.363 0 170 244.081
6.18088 -112.593 0 171 257.839
6.31711 -97.2372 0 172 272.425
8.7787 -82.3615 0 175 286.182
3.16654 -69.36 0 169.921 299.079
-2.36864 -56.5673 0 165 312.04
-14.5146 -53.1797 0 153.031 316
-21.1156 -41.0065 0 147 328.484
-28.6546 -29.8893 0 140.001 339.999
-37.5942 -19.0226 0 131.516 351.484
-45.8634 -7.88024 0 123.737 363.263
-53.469 3.37623 0 116.666 375.334
-62.6803 14.0034 0 108.181 386.819
-71.7706 25.0773 0 99.6956 398.304
-82.1347 35.4096 0 89.7115 409
-75.8563 41.6297 0 96.2175 415
-62.7155 46.0686 0 109.561 419
-59.8575 55.8319 0 113 429.49
-64.5984 68.1727 0 109 442.833
-67.2478 81.8271 0 107 457.005
-70.5866 94.5039 0 104 470.762
-81.2191 101.501 0 92.9758 480.024
-91.273 108.857 0 82.0762 489.924
-102.038 114.057 0 70.298 497.702
-111.338 121.784 0 60.1059 507.894
-119.708 130.639 0 50.9132 519.087
-127.681 139.395 0 42.5491 529.451
-133.727 150.246 0 36.1849 541.815
-140.057 160.153 0 29 553.839
-146.36 169.523 0 21.7498 565.25
-153.726 180.012 0 13.9716 577.028
-161.228 191.043 0 6.60748 588.393
-165.04 204.431 0 3 601.898
-162.544 214.563 0 5.65576 612
-149.932 208.754 0 18.1705 606
-137.441 215.6 0 29.8989 613.899
-126.729 225.338 0 41.129 623
-115.74 234.683 0 52.4011 632
-103.691 241.684 0 64.6477 638.648
-94.4132 242.243 0 73.938 638.938
-102.162 230.944 0 65.8669 627.867
-108.679 218.6 0 59 615.711
-113.526 205.676 0 53.8459 602.846
-118.931 193.727 0 49 589.853
-115.912 186.256 0 53.4191 580
-106.056 179.29 0 64.4886 570.511
-96.2568 172.506 0 75.5491 561
-86.4423 165.662 0 86.5804 551.42
-76.5775 158.343 0 97.4802 541.52
-66.5403 151.423 0 108.537 532
-56.506 144.481 0 119.572 522.428
-45.6919 140.193 0 131.643 515.357
-33.5138 137.146 0 144.593 510.407
-21.8759 130.478 0 156 502.475
-14.1404 119.2 0 163 490.374
-6.22396 108.279 0 170.514 478.486
3.53866 98.4406 0 180 467.416
12.5846 87.8497 0 188.191 455.809
20.6138 76.7285 0 195.262 443.738
31.4732 69.5633 0 206.057 435
41.2114 81.039 0 216.526 444.526
51.6397 92.2378 0 227.602 454
62.1717 102.761 0 238.911 462.911
73.0291 112.399 0 250.56 471
84.1862 122.472 0 262.174 479.174
96.3971 132.231 0 274.245 486.245
101.845 147.547 0 280 498.862
105.491 164.007 0 284 512.205
109.11 180.433 0 288 525.548
113.461 195.569 0 293 538.477
118.844 210.398 0 298.995 550.995
126.343 225.61 0 306.773 562.773
133.844 240.893 0 314.551 574.551
142.777 255.727 0 323.743 585.743
150.911 270.744 0 332.229 597.229
159.511 284.827 0 341.421 608.421
168.093 296.967 0 351 618.867
177.502 306.256 0 361.382 627
183.524 301.942 0 366.861 622
185.155 291.058 0 367.169 610.831
199.881 291.908 0 380.582 607
213.765 289.958 0 394.339 604
226.423 283.903 0 406.311 596.689
225.062 275.006 0 404.046 588
210.628 272.402 0 389.46 587
195.814 268.456 0 374.874 586
182.439 261.349 0 361.961 583.039
176.611 247.06 0 356 572.431
173.012 230.455 0 352 559.088
169.94 213.719 0 348.527 545.527
165.757 197.318 0 344 532.403
160.998 180.821 0 339 519.474
157.367 163.975 0 335.093 506.093
153.615 147.447 0 331 492.789
152.983 130.609 0 330 479.032
154.981 114.512 0 331 464.446
160.744 102.89 0 336 452.689
151.858 94.0198 0 326.538 444.538
143.509 81.6997 0 317.345 433.345
133.721 70.5163 0 306.86 423.86
138.219 64.8305 0 311 418.459
130.942 52.7284 0 303 407.358
123.44 39.3527 0 294.768 395.768
116.361 26.1321 0 286.99 383.99
108.441 13.4223 0 278.505 372.505
100.577 1.16035 0 270 361.027
92.0976 -11.2116 0 261 349.755
87.0897 -24.0739 0 255.998 338
89.9196 -35.6046 0 259 326.483
94.4138 -48.4815 0 263 313.141
98.2746 -61.7603 0 266 299.384
101.987 -74.9818 0 269 285.626
106.09 -87.3236 0 273 272.284
117.07 -92.906 0 284.578 264.422
129.467 -94.0883 0 297.331 261
143.311 -90.7016 0 311.917 262
153.544 -92.642 0 322 258.155
163.485 -98.6025 0 331.188 250
175.375 -93.1977 0 344.531 252
189.197 -90.0758 0 359.117 251
203 -86.7365 0 373.703 250
216.624 -84.431 0 387.874 248
215.897 -71.2961 0 391 260.459
211.641 -56.8153 0 391 275.459
206.607 -43.0695 0 390 290.047
202.438 -28.6653 0 390 305.044
197.422 -14.9277 0 389 319.633
193.258 -0.51794 0 389 334.633
188.244 13.2139 0 388 349.217
184.08 27.6247 0 388 364.217
181.233 41.1296 0 389.018 377.982
186.496 40.8694 0 394 376.269
187.887 28.8537 0 392 364.34
193.744 15.795 0 394 350.169
202.594 5.12741 0 399.537 337.463
214.532 -3.07118 0 408.73 326.27
227.949 -7.79893 0 420.304 318
241.567 -10.7122 0 432.579 311.421
255.115 -14.1541 0 444.649 304.351
268.582 -18.3472 0 456.428 296.572
278.981 -27.0618 0 464 285.295
287.361 -38.0592 0 469 272.366
293.161 -51.0256 0 471 258.194
298.108 -64.6599 0 472 243.608
302.039 -78.2534 0 472 229.438
306.307 -90.7003 0 472.64 216.36
310.843 -104.166 0 473.238 202.238
312.494 -116.759 0 471.297 189.703
317.295 -130.669 0 471.996 174.996
318.472 -144.734 0 469.168 161.168
315.845 -158.391 0 462.804 148.804
307.49 -169.254 0 451.733 140.733
297.663 -179.15 0 439.522 134
288.019 -189.269 0 427.422 127
279.943 -200.473 0 416.52 118.52
275.032 -213.879 0 408.035 107.035
274.688 -227.782 0 403.792 93.7925
277.817 -241.289 0 403 79.9492
283.09 -252.174 0 405 68.0205
280.941 -259.882 0 400.772 61.2279
273.545 -248.047 0 397 74.6653
268.485 -234.328 0 396 89.2529
264.268 -219.935 0 396 104.253
259.202 -206.224 0 395 118.836
254.983 -191.829 0 395 133.837
250.763 -177.433 0 395 148.837
245.701 -163.714 0 394 163.422
241.48 -149.311 0 394 178.422
236.419 -135.61 0 393 193.009
232.199 -121.301 0 393 208.01
222.179 -116.451 0 384.873 215.873
208.306 -121.976 0 370.234 215
194.433 -127.357 0 355.649 214
180.464 -132.573 0 341.063 213
173.5 -141.584 0 332.72 206
159.059 -145.585 0 318.135 205
148.043 -154.25 0 306.439 198.439
142.578 -167.306 0 299.367 186.367
139.438 -179.289 0 294.581 175
146.305 -186.234 0 300.319 167
133.943 -188.367 0 287.862 166.862
131.88 -201.318 0 284 154.29
126.871 -214.372 0 277.134 142.134
121.638 -227.34 0 270 130.09
117.619 -238.955 0 264.235 119.235
114.078 -251.014 0 258.871 107.871
107.942 -262.676 0 251 97.303
101.574 -275.397 0 242.729 85.7291
93.0947 -287.055 0 232.536 75.5365
79.7847 -291.426 0 218.708 73.2917
68.7781 -296.445 0 207.052 70.0515
63.6988 -309.477 0 200 57.9727
70.9064 -318.427 0 205.713 48
77.7066 -327.528 0 211 37.9436
76.3856 -331.963 0 209 33.7725
72.9664 -342.39 0 203.989 24.0107
67.5277 -352.317 0 197.061 15.061
59.276 -359.765 0 187.744 9
47.711 -366.378 0 175.283 4.28345
32.1458 -372.175 0 159 1
33.6304 -353.511 0 163.397 19.2
63.6786 -165.668 0 222.418 199.851
49.3549 -236.879 0 197.158 131.895
76.8989 -264.301 0 220.087 100.537
-20.201 40.3504 0 151.861 410.94
142.79 -120.341 0 306.586 232.878
239.071 -96.3713 0 406.468 230.06
103.45 -164.2 0 261.32 195.618
26.8542 -152.808 0 188.497 217.457
44.7286 -44.8861 0 212.946 320.627
84.0038 -220.894 0 233.86 142.326
273.201 -115.552 0 433.92 201.91
106.515 -191.124 0 260.625 168.349
52.848 -4.94402 0 222.394 359.242
56.4326 -96.4851 0 221.899 268.749
-38.2912 97.196 0 136.779 470.704
288.58 -146.065 0 440.11 168.305
250.361 -53.4155 0 429.173 267.959
79.3662 54.757 0 251.883 414.403
113.698 100.747 0 288.938 454.209
-5.98082 65.4666 0 167.384 435.514
-14.0185 6.71866 0 156.203 376.245
93.4149 -125.573 0 256.529 235.57
67.9029 -63.9391 0 235.437 299.924
35.3017 -119.374 0 199.546 248.849
268.972 -80.4425 0 439.635 236.523
79.9476 23.2691 0 250.681 384.232
86.7006 85.8114 0 261.248 443.175
-1.07873 -19.2675 0 168.09 349.187
3 42 41 43
3 38 37 36
3 43 41 44
3 40 46 45
3 40 45 44
3 41 40 44
3 5 3 2
3 1 261 2
3 39 35 34
3 39 38 35
3 39 34 46
3 46 40 39
3 35 38 36
3 33 46 34
3 46 33 47
3 30 49 48
3 50 49 29
3 27 52 51
3 27 53 52
3 28 51 50
3 31 48 47
3 31 30 48
3 28 50 29
3 30 29 49
3 54 56 55
3 54 53 56
3 56 53 27
3 28 27 51
3 56 27 26
3 31 47 32
3 33 32 47
3 0 260 261
3 7 6 256
3 6 5 261
3 264 13 12
3 2 261 5
3 4 3 5
3 9 8 7
3 6 261 258
3 257 256 6
3 256 253 7
3 253 256 255
3 10 9 252
3 10 252 251
3 253 252 9
3 7 253 9
3 257 6 258
3 16 15 14
3 16 14 263
3 263 17 16
3 57 26 25
3 58 25 24
3 14 13 263
3 17 263 18
3 264 11 250
3 11 264 12
3 21 20 271
3 61 60 269
3 263 19 18
3 23 269 24
3 250 11 251
3 19 263 20
3 10 251 11
3 56 26 57
3 22 21 262
3 0 261 1
3 246 245 271
3 23 22 269
3 107 87 86
3 107 86 108
3 86 85 108
3 105 90 89
3 89 88 106
3 107 88 87
3 107 106 88
3 85 84 109
3 76 75 74
3 77 76 74
3 110 109 84
3 85 109 108
3 84 83 110
3 82 111 83
3 82 81 112
3 95 93 92
3 92 91 95
3 91 90 104
3 104 95 91
3 95 94 93
3 103 97 96
3 95 104 96
3 96 104 103
3 102 97 103
3 90 105 104
3 102 98 97
3 99 98 101
3 101 100 99
3 98 102 101
3 89 106 105
3 59 58 60
3 57 25 58
3 289 70 69
3 282 265 72
3 289 282 70
3 60 58 269
3 63 275 64
3 275 63 285
3 67 66 68
3 68 66 289
3 270 65 64
3 173 172 275
3 24 269 58
3 289 274 282
3 73 72 265
3 78 265 281
3 265 78 77
3 81 80 276
3 83 111 110
3 79 78 276
3 82 112 111
3 119 118 281
3 77 74 73
3 276 281 116
3 281 120 119
3 276 78 281
3 276 112 81
3 112 276 113
3 113 276 114
3 114 276 115
3 265 120 281
3 282 71 70
3 275 270 64
3 255 254 253
3 264 250 249
3 248 264 249
3 264 247 246
3 271 245 244
3 271 263 264
3 271 264 246
3 243 242 273
3 273 241 268
3 241 240 239
3 273 242 241
3 268 239 238
3 236 235 266
3 268 266 283
3 241 239 268
3 283 266 174
3 266 176 175
3 177 176 266
3 234 178 266
3 266 178 177
3 283 174 173
3 284 172 171
3 283 285 262
3 266 235 234
3 179 234 233
3 232 231 181
3 180 233 232
3 179 233 180
3 181 180 232
3 182 181 231
3 230 267 231
3 234 179 178
3 284 171 170
3 222 221 218
3 221 219 218
3 219 221 220
3 223 222 217
3 216 224 223
3 226 225 214
3 215 225 224
3 222 218 217
3 216 215 224
3 217 216 223
3 226 214 277
3 277 212 211
3 277 214 213
3 215 214 225
3 277 211 210
3 182 231 267
3 278 286 203
3 227 277 228
3 207 272 208
3 184 278 185
3 184 183 278
3 201 200 278
3 278 199 198
3 226 277 227
3 272 207 206
3 208 272 277
3 206 205 286
3 273 262 21
3 205 204 286
3 267 183 182
3 203 202 278
3 206 286 272
3 273 21 271
3 208 277 209
3 277 210 209
3 169 168 270
3 270 284 169
3 270 168 274
3 163 279 164
3 165 287 166
3 165 164 287
3 287 120 274
3 284 170 169
3 163 162 279
3 160 288 162
3 279 288 122
3 161 160 162
3 158 280 159
3 160 280 288
3 287 164 279
3 158 156 280
3 124 123 288
3 280 160 159
3 288 280 125
3 153 129 128
3 129 152 130
3 128 127 154
3 126 155 127
3 154 127 155
3 130 152 131
3 153 128 154
3 132 131 151
3 150 133 132
3 133 149 134
3 134 148 135
3 153 152 129
3 126 280 155
3 156 155 280
3 158 157 156
3 194 189 188
3 187 195 188
3 194 190 189
3 192 190 193
3 190 192 191
3 193 190 194
3 196 187 186
3 186 185 197
3 197 185 198
3 278 198 185
3 196 195 187
3 194 188 195
3 197 196 186
3 151 150 132
3 149 133 150
3 134 149 148
3 140 137 136
3 137 139 138
3 147 136 135
3 148 147 135
3 131 152 151
3 147 146 140
3 145 144 142
3 146 145 141
3 139 137 140
3 145 142 141
3 141 140 146
3 143 142 144
3 140 136 147
3 260 259 261
3 199 278 200
3 258 261 259
3 247 264 248
3 13 264 263
3 73 265 77
3 72 71 282
3 174 266 175
3 237 236 266
3 272 230 229
3 204 203 286
3 238 237 268
3 266 268 237
3 22 262 269
3 283 262 268
3 168 167 274
3 66 65 270
3 271 244 243
3 20 263 271
3 230 272 267
3 228 272 229
3 262 273 268
3 243 273 271
3 287 167 166
3 282 120 265
3 62 285 63
3 62 61 285
3 79 276 80
3 116 115 276
3 277 272 228
3 213 212 277
3 267 278 183
3 202 201 278
3 122 121 279
3 279 121 120
3 126 125 280
3 288 125 124
3 118 117 281
3 281 117 116
3 289 69 68
3 120 282 274
3 173 275 283
3 283 275 285
3 270 275 284
3 172 284 275
3 61 269 285
3 262 285 269
3 278 267 286
3 272 286 267
3 120 287 279
3 167 287 274
3 122 288 123
3 288 279 162
3 274 289 270
3 66 270 289
