ply
format ascii 1.0
element vertex 290
property float x
property float y
property float z
property float u
property float v
element face 317
property list uchar int vertex_indices
end_header
-3.40335 -342.237 0 147.636 8.36396
-12.0526 -332.368 0 139.979 19.0208
-13.3978 -318.253 0 140 33.201
-11.0406 -304.485 0 143.678 46.6777
0.791895 -299.998 0 155.887 50
7.06278 -311.677 0 161 37.7695
13.0563 -311.294 0 167 37.5736
18.9145 -299.16 0 174 49.0883
23.3905 -286.038 0 179.719 61.7193
35.7738 -289.579 0 191.704 57
41.1198 -279.387 0 198 66.6324
44.8583 -266.038 0 203 79.5613
37.3446 -258.517 0 196.239 87.7609
26.2921 -250.527 0 186 96.7624
15.5597 -242.368 0 176.097 105.903
5.56842 -233.208 0 167.026 115.974
9.19418 -220.976 0 171.803 127.803
8.50892 -211.733 0 172 137.064
13.3438 -199.281 0 177.995 148.995
19.2382 -186.588 0 185.066 161.066
29.1301 -176.815 0 195.844 169.844
35.6841 -164.291 0 203.622 181.622
30.6724 -159.15 0 199.605 187
17.0647 -164.032 0 186.185 183.185
3.4744 -169.389 0 172.919 179
-10.8857 -174.632 0 159.407 175.407
-25.7249 -178.051 0 145.818 174
-38.5589 -187.263 0 134 166.718
-42.9968 -202.23 0 130.265 153.265
-47.8436 -216.876 0 126 140.032
-53.4402 -231.233 0 121 127.103
-58.1499 -245.834 0 116.83 113.83
-64.0565 -259.438 0 111 101.245
-70.281 -272.896 0 104.809 88.8092
-77.9534 -285.695 0 97.031 77.031
-84.2715 -298.266 0 90 64.9434
-87.9122 -306.623 0 85.8385 56.8385
-96.6384 -308.695 0 77 55.3289
-93.9595 -295.351 0 80.5247 68.4753
-91.9145 -288.853 0 83 74.8438
-105.365 -285.47 0 69.8678 79.1322
-114.464 -293.197 0 60.2982 72
-123.777 -300.251 0 50.554 65.554
-125.865 -291.947 0 49 73.9741
-120.598 -280.245 0 55 85.3173
-113.024 -268.765 0 63.2955 96.2955
-100.795 -262.284 0 75.9327 102
-89.5216 -252.952 0 86 109.276
-86.8651 -237.391 0 88 123.448
-83.8751 -222.119 0 90.4379 137.438
-81.7527 -207.389 0 92 150.963
-79.2889 -192.03 0 94 165.134
-76.3878 -177.476 0 97 178.892
-72.7813 -163.492 0 101 192.235
-68.1389 -150.048 0 106.116 205.116
-61.5806 -137.743 0 113.265 217
-54.1969 -140.871 0 120.43 213.43
-40.6208 -133.281 0 133.087 219.087
-27.7116 -125.31 0 145 225.052
-24.0827 -117.879 0 148.809 232
-11.2274 -113.242 0 161.694 235.694
-3.04015 -103.65 0 170 244.081
-2.51933 -89.2647 0 171 257.839
-2.03392 -74.205 0 172 272.425
0.631294 -59.767 0 175 286.182
-4.7944 -46.8118 0 169.921 299.079
-10.1149 -33.9608 0 165 312.04
-22.202 -30.3599 0 153.031 316
-28.5953 -18.0691 0 147 328.484
-35.9444 -6.80709 0 140.001 339.999
-44.7338 4.28894 0 131.516 351.484
-52.8411 15.6677 0 123.737 363.263
-60.2713 27.2338 0 116.666 375.334
-69.2311 38.1864 0 108.181 386.819
-78.11 49.4076 0 99.6956 398.304
-88.3463 59.8646 0 89.7115 409
-81.9901 66.0117 0 96.2175 415
-68.7766 70.3043 0 109.561 419
-65.7295 80.3682 0 113 429.49
-70.2227 93.1017 0 109 442.833
-72.6595 106.956 0 107 457.005
-75.9218 120.054 0 104 470.762
-86.7722 127.918 0 92.9758 480.024
-97.2447 136.247 0 82.0762 489.924
-108.489 142.427 0 70.298 497.702
-118.232 151.095 0 60.1059 507.894
-127.022 160.841 0 50.9132 519.087
-135.227 170.197 0 42.5491 529.451
-141.487 181.619 0 36.1849 541.815
-148.261 192.329 0 29 553.839
-155.047 202.466 0 21.7498 565.25
-162.672 213.41 0 13.9716 577.028
-170.202 224.516 0 6.60748 588.393
-174.032 237.922 0 3 601.898
-171.547 248.06 0 5.65576 612
-158.93 242.268 0 18.1705 606
-146.829 249.615 0 29.8989 613.899
-135.968 259.177 0 41.129 623
-124.93 268.463 0 52.4011 632
-112.849 275.41 0 64.6477 638.648
-103.569 275.928 0 73.938 638.938
-111.368 264.663 0 65.8669 627.867
-117.938 252.346 0 59 615.711
-122.814 239.409 0 53.8459 602.846
-127.876 227.007 0 49 589.853
-124.183 218.602 0 53.4191 580
-113.736 210.681 0 64.4886 570.511
-103.329 202.857 0 75.5491 561
-92.9273 194.966 0 86.5804 551.42
-82.5524 186.659 0 97.4802 541.52
-72.0153 178.742 0 108.537 532
-61.4904 170.787 0 119.572 522.428
-50.0892 165.426 0 131.643 515.357
-37.5461 161.661 0 144.593 510.407
-25.9562 154.518 0 156 502.475
-18.4657 142.922 0 163 490.374
-10.6601 131.626 0 170.514 478.486
-0.958553 121.315 0 180 467.416
7.78892 110.328 0 188.191 455.809
15.4779 98.8309 0 195.262 443.738
26.3552 91.0523 0 206.057 435
36.3785 101.786 0 216.526 444.526
47.0577 112.332 0 227.602 454
57.8918 122.25 0 238.911 462.911
69.0597 131.311 0 250.56 471
80.3998 140.662 0 262.174 479.174
92.5701 149.381 0 274.245 486.245
98.1412 163.643 0 280 498.862
101.932 178.884 0 284 512.205
105.706 194.104 0 288 525.548
110.307 208.386 0 293 538.477
115.928 222.322 0 298.995 550.995
123.547 236.199 0 306.773 562.773
131.168 250.119 0 314.551 574.551
140.216 263.54 0 323.743 585.743
148.497 277.187 0 332.229 597.229
157.33 290.159 0 341.421 608.421
166.291 301.669 0 351 618.867
176.072 310.546 0 361.382 627
181.903 305.972 0 366.861 622
183.05 294.96 0 367.169 610.831
197.324 293.988 0 380.582 607
211.177 291.662 0 394.339 604
223.599 285.14 0 406.311 596.689
221.904 276.309 0 404.046 588
207.396 274.293 0 389.46 587
192.642 271.469 0 374.874 586
179.409 265.964 0 361.961 583.039
173.512 253.109 0 356 572.431
169.749 237.776 0 352 559.088
166.514 222.281 0 348.527 545.527
162.189 207.159 0 344 532.403
157.323 192.056 0 339 519.474
153.574 176.566 0 335.093 506.093
149.681 161.299 0 331 492.789
148.899 145.671 0 330 479.032
150.517 130.16 0 331 464.446
156.003 118.49 0 336 452.689
146.902 109.879 0 326.538 444.538
138.234 97.9771 0 317.345 433.345
128.175 87.4336 0 306.86 423.86
132.538 81.8636 0 311 418.459
124.987 70.1355 0 303 407.358
117.202 57.4413 0 294.768 395.768
109.858 44.7678 0 286.99 383.99
101.728 32.5179 0 278.505 372.505
93.6309 20.5424 0 270 361.027
84.9612 8.57711 0 261 349.755
79.9655 -3.87003 0 255.998 338
82.8824 -15.4004 0 259 326.483
87.2137 -28.4609 0 263 313.141
90.7719 -41.9347 0 266 299.384
94.239 -55.3826 0 269 285.626
98.3501 -68.131 0 273 272.284
109.654 -74.5875 0 284.578 264.422
122.264 -76.6249 0 297.331 261
136.456 -74.141 0 311.917 262
146.693 -76.8173 0 322 258.155
156.449 -83.6378 0 331.188 250
169.112 -79.5104 0 344.531 252
183.484 -77.9699 0 359.117 251
197.857 -76.3009 0 373.703 250
211.94 -75.6649 0 387.874 248
212.834 -62.6535 0 391 260.459
210.282 -47.814 0 391 275.459
206.84 -33.592 0 390 290.047
204.322 -18.809 0 390 305.044
200.886 -4.59361 0 389 319.633
198.372 10.1938 0 389 334.633
194.937 24.4034 0 388 349.217
192.426 39.1921 0 388 364.217
191.119 52.9319 0 389.018 377.982
196.319 52.08 0 394 376.269
196.347 39.984 0 392 364.34
200.694 26.348 0 394 350.169
208.285 14.7509 0 399.537 337.463
219.224 5.25915 0 408.73 326.27
232.022 -0.950601 0 420.304 318
245.226 -5.3776 0 432.579 311.421
258.305 -10.3232 0 444.649 304.351
271.217 -16.0095 0 456.428 296.572
280.571 -25.8461 0 464 285.295
287.666 -37.7307 0 469 272.366
291.998 -51.3047 0 471 258.194
295.409 -65.4494 0 472 243.608
297.787 -79.4061 0 472 229.438
300.613 -92.229 0 472.64 216.36
303.583 -106.093 0 473.238 202.238
303.79 -118.785 0 471.297 189.703
306.977 -133.154 0 471.996 174.996
306.542 -147.262 0 469.168 161.168
302.375 -160.53 0 462.804 148.804
292.836 -170.368 0 451.733 140.733
281.946 -179.08 0 439.522 134
271.212 -188.034 0 427.422 127
261.911 -198.245 0 416.52 118.52
255.504 -211.003 0 408.035 107.035
253.578 -224.776 0 403.792 93.7925
255.147 -238.553 0 403 79.9492
259.143 -249.968 0 405 68.0205
256.13 -257.38 0 400.772 61.2279
250.132 -244.779 0 397 74.6653
246.668 -230.573 0 396 89.2529
244.12 -215.793 0 396 104.253
240.65 -201.594 0 395 118.836
238.1 -186.811 0 395 133.837
235.549 -172.029 0 395 148.837
232.084 -157.825 0 394 163.422
229.531 -143.039 0 394 178.422
226.062 -128.845 0 393 193.009
223.49 -114.116 0 393 208.01
214.061 -108.003 0 384.873 215.873
199.613 -111.712 0 370.234 215
185.207 -115.388 0 355.649 214
170.749 -118.967 0 341.063 213
163.135 -127.223 0 332.72 206
148.55 -130.05 0 318.135 205
137.205 -137.906 0 306.439 198.439
131.079 -150.613 0 299.367 186.367
127.279 -162.39 0 294.581 175
133.723 -169.767 0 300.319 167
121.283 -171.127 0 287.862 166.862
118.504 -183.967 0 284 154.29
112.75 -196.707 0 277.134 142.134
106.759 -209.351 0 270 130.09
102.045 -220.703 0 264.235 119.235
97.7809 -232.526 0 258.871 107.871
90.9487 -243.795 0 251 97.303
83.8187 -256.104 0 242.729 85.7291
74.6453 -267.224 0 232.536 75.5365
61.0943 -270.776 0 218.708 73.2917
49.8026 -275.116 0 207.052 70.0515
43.9382 -287.814 0 200 57.9727
50.586 -297.188 0 205.713 48
56.8181 -306.687 0 211 37.9436
55.2289 -311.033 0 209 33.7725
51.1797 -321.232 0 203.989 24.0107
45.1452 -330.809 0 197.061 15.061
36.4545 -337.739 0 187.744 9
24.5076 -343.634 0 175.283 4.28345
8.61784 -348.47 0 159 1
11.2384 -329.931 0 163.397 19.2
52.6789 -144.345 0 222.418 199.851
34.0438 -214.485 0 197.158 131.895
59.8658 -243.525 0 220.087 100.537
-26.3164 63.7524 0 151.861 410.94
134.064 -103.674 0 306.586 232.878
233.097 -90.1161 0 406.468 230.06
92.2504 -145.098 0 261.32 195.618
16.8634 -129.606 0 188.497 217.457
37.3418 -23.4315 0 212.946 320.627
69.5964 -200.625 0 233.86 142.326
264.886 -113.109 0 433.92 201.91
93.8377 -172.233 0 260.625 168.349
45.9146 16.0282 0 222.394 359.242
48.0451 -75.1641 0 221.899 268.749
-43.4117 121.759 0 136.779 470.704
276.693 -145.175 0 440.11 168.305
249.157 -48.7975 0 429.173 267.959
73.5321 74.0314 0 251.883 414.403
108.92 117.69 0 288.938 454.209
-11.6451 88.7043 0 167.384 435.514
-20.7673 29.6892 0 156.203 376.245
84.2151 -105.863 0 256.529 235.57
60.2987 -43.1096 0 235.437 299.924
26.4005 -96.9205 0 199.546 248.849
264.691 -77.8573 0 439.635 236.523
73.4582 43.0451 0 250.681 384.232
81.6333 104.223 0 261.248 443.175
-8.17044 3.29168 0 168.09 349.187
3 42 41 43
3 38 37 36
3 43 41 44
3 40 46 45
3 40 45 44
3 41 40 44
3 5 3 2
3 1 261 2
3 39 35 34
3 39 38 35
3 39 34 46
3 46 40 39
3 35 38 36
3 33 46 34
3 46 33 47
3 30 49 48
3 50 49 29
3 27 52 51
3 27 53 52
3 28 51 50
3 31 48 47
3 31 30 48
3 28 50 29
3 30 29 49
3 54 56 55
3 54 53 56
3 56 53 27
3 28 27 51
3 56 27 26
3 31 47 32
3 33 32 47
3 0 260 261
3 7 6 256
3 6 5 261
3 264 13 12
3 2 261 5
3 4 3 5
3 9 8 7
3 6 261 258
3 257 256 6
3 256 253 7
3 253 256 255
3 10 9 252
3 10 252 251
3 253 252 9
3 7 253 9
3 257 6 258
3 16 15 14
3 16 14 263
3 263 17 16
3 57 26 25
3 58 25 24
3 14 13 263
3 17 263 18
3 264 11 250
3 11 264 12
3 21 20 271
3 61 60 269
3 263 19 18
3 23 269 24
3 250 11 251
3 19 263 20
3 10 251 11
3 56 26 57
3 22 21 262
3 0 261 1
3 246 245 271
3 23 22 269
3 107 87 86
3 107 86 108
3 86 85 108
3 105 90 89
3 89 88 106
3 107 88 87
3 107 106 88
3 85 84 109
3 76 75 74
3 77 76 74
3 110 109 84
3 85 109 108
3 84 83 110
3 82 111 83
3 82 81 112
3 95 93 92
3 92 91 95
3 91 90 104
3 104 95 91
3 95 94 93
3 103 97 96
3 95 104 96
3 96 104 103
3 102 97 103
3 90 105 104
3 102 98 97
3 99 98 101
3 101 100 99
3 98 102 101
3 89 106 105
3 59 58 60
3 57 25 58
3 289 70 69
3 282 265 72
3 289 282 70
3 60 58 269
3 63 275 64
3 275 63 285
3 67 66 68
3 68 66 289
3 270 65 64
3 173 172 275
3 24 269 58
3 289 274 282
3 73 72 265
3 78 265 281
3 265 78 77
3 81 80 276
3 83 111 110
3 79 78 276
3 82 112 111
3 119 118 281
3 77 74 73
3 276 281 116
3 281 120 119
3 276 78 281
3 276 112 81
3 112 276 113
3 113 276 114
3 114 276 115
3 265 120 281
3 282 71 70
3 275 270 64
3 255 254 253
3 264 250 249
3 248 264 249
3 264 247 246
3 271 245 244
3 271 263 264
3 271 264 246
3 243 242 273
3 273 241 268
3 241 240 239
3 273 242 241
3 268 239 238
3 236 235 266
3 268 266 283
3 241 239 268
3 283 266 174
3 266 176 175
3 177 176 266
3 234 178 266
3 266 178 177
3 283 174 173
3 284 172 171
3 283 285 262
3 266 235 234
3 179 234 233
3 232 231 181
3 180 233 232
3 179 233 180
3 181 180 232
3 182 181 231
3 230 267 231
3 234 179 178
3 284 171 170
3 222 221 218
3 221 219 218
3 219 221 220
3 223 222 217
3 216 224 223
3 226 225 214
3 215 225 224
3 222 218 217
3 216 215 224
3 217 216 223
3 226 214 277
3 277 212 211
3 277 214 213
3 215 214 225
3 277 211 210
3 182 231 267
3 278 286 203
3 227 277 228
3 207 272 208
3 184 278 185
3 184 183 278
3 201 200 278
3 278 199 198
3 226 277 227
3 272 207 206
3 208 272 277
3 206 205 286
3 273 262 21
3 205 204 286
3 267 183 182
3 203 202 278
3 206 286 272
3 273 21 271
3 208 277 209
3 277 210 209
3 169 168 270
3 270 284 169
3 270 168 274
3 163 279 164
3 165 287 166
3 165 164 287
3 287 120 274
3 284 170 169
3 163 162 279
3 160 288 162
3 279 288 122
3 161 160 162
3 158 280 159
3 160 280 288
3 287 164 279
3 158 156 280
3 124 123 288
3 280 160 159
3 288 280 125
3 153 129 128
3 129 152 130
3 128 127 154
3 126 155 127
3 154 127 155
3 130 152 131
3 153 128 154
3 132 131 151
3 150 133 132
3 133 149 134
3 134 148 135
3 153 152 129
3 126 280 155
3 156 155 280
3 158 157 156
3 194 189 188
3 187 195 188
3 194 190 189
3 192 190 193
3 190 192 191
3 193 190 194
3 196 187 186
3 186 185 197
3 197 185 198
3 278 198 185
3 196 195 187
3 194 188 195
3 197 196 186
3 151 150 132
3 149 133 150
3 134 149 148
3 140 137 136
3 137 139 138
3 147 136 135
3 148 147 135
3 131 152 151
3 147 146 140
3 145 144 142
3 146 145 141
3 139 137 140
3 145 142 141
3 141 140 146
3 143 142 144
3 140 136 147
3 260 259 261
3 199 278 200
3 258 261 259
3 247 264 248
3 13 264 263
3 73 265 77
3 72 71 282
3 174 266 175
3 237 236 266
3 272 230 229
3 204 203 286
3 238 237 268
3 266 268 237
3 22 262 269
3 283 262 268
3 168 167 274
3 66 65 270
3 271 244 243
3 20 263 271
3 230 272 267
3 228 272 229
3 262 273 268
3 243 273 271
3 287 167 166
3 282 120 265
3 62 285 63
3 62 61 285
3 79 276 80
3 116 115 276
3 277 272 228
3 213 212 277
3 267 278 183
3 202 201 278
3 122 121 279
3 279 121 120
3 126 125 280
3 288 125 124
3 118 117 281
3 281 117 116
3 289 69 68
3 120 282 274
3 173 275 283
3 283 275 285
3 270 275 284
3 172 284 275
3 61 269 285
3 262 285 269
3 278 267 286
3 272 286 267
3 120 287 279
3 167 287 274
3 122 288 123
3 288 279 162
3 274 289 270
3 66 270 289
