ply
format ascii 1.0
element vertex 290
property float x
property float y
property float z
property float u
property float v
element face 317
property list uchar int vertex_indices
end_header
68.2685 -393.745 0 147.636 8.36396
58.026 -385.542 0 139.979 19.0208
54.2315 -371.882 0 140 33.201
54.1412 -357.914 0 143.678 46.6777
65.0056 -351.425 0 155.887 50
73.2244 -361.825 0 161 37.7695
79.0588 -360.4 0 167 37.5736
82.7024 -347.427 0 174 49.0883
84.8123 -333.724 0 179.719 61.7193
97.6243 -335.043 0 191.704 57
101.105 -324.072 0 198 66.6324
102.453 -310.275 0 203 79.5613
93.7394 -304.177 0 196.239 87.7609
81.4584 -298.231 0 186 96.7624
69.4632 -292.059 0 176.097 105.903
58.0271 -284.782 0 167.026 115.974
59.4632 -272.103 0 171.803 127.803
57.1771 -263.117 0 172 137.064
59.7695 -250.009 0 177.995 148.995
63.3652 -236.474 0 185.066 161.066
71.4016 -225.105 0 195.844 169.844
75.6129 -211.488 0 203.622 181.622
69.2825 -206.827 0 199.605 187
56.1064 -213.58 0 186.185 183.185
42.8147 -221.029 0 172.919 179
28.3726 -229.007 0 159.407 175.407
13.0013 -235.721 0 145.818 174
0.282705 -247.956 0 134 166.718
-3.31436 -264.854 0 130.265 153.265
-7.23511 -281.345 0 126 140.032
-11.9174 -297.629 0 121 127.103
-15.6303 -313.975 0 116.83 113.83
-20.2089 -329.051 0 111 101.245
-25.0565 -344.015 0 104.809 88.8092
-31.2601 -358.443 0 97.031 77.031
-35.6537 -371.895 0 90 64.9434
-37.9851 -380.714 0 85.8385 56.8385
-46.2954 -384.09 0 77 55.3289
-45.6784 -370.495 0 80.5247 68.4753
-44.6626 -363.78 0 83 74.8438
-58.5333 -362.549 0 69.8678 79.1322
-66.3514 -371.572 0 60.2982 72
-74.4826 -379.961 0 50.554 65.554
-77.8099 -372.071 0 49 73.9741
-74.3859 -359.704 0 55 85.3173
-68.6511 -347.21 0 63.2955 96.2955
-57.5672 -338.962 0 75.9327 102
-46.3779 -326.403 0 86 109.276
-44.7225 -309.131 0 88 123.448
-42.7568 -292.237 0 90.4379 137.438
-41.5634 -276.032 0 92 150.963
-40.148 -259.209 0 94 165.134
-38.671 -243.622 0 97 178.892
-36.6746 -228.736 0 101 192.235
-33.6085 -214.441 0 106.116 205.116
-28.5905 -201.347 0 113.265 217
-20.8558 -203.468 0 120.43 213.43
-7.34072 -192.766 0 133.087 219.087
5.54967 -181.64 0 145 225.052
8.42265 -173.44 0 148.809 232
20.7821 -166.954 0 161.694 235.694
28.0776 -155.328 0 170 244.081
27.3434 -139.97 0 171 257.839
26.6982 -124.145 0 172 272.425
28.7198 -108.556 0 175 286.182
22.7622 -95.5473 0 169.921 299.079
16.8212 -82.9029 0 165 312.04
4.57459 -79.9258 0 153.031 316
-2.41717 -67.9866 0 147 328.484
-10.3075 -57.1278 0 140.001 339.999
-19.526 -46.6653 0 131.516 351.484
-28.088 -35.9146 0 123.737 363.263
-36.0038 -25.162 0 116.666 375.334
-45.6536 -15.0029 0 108.181 386.819
-55.0355 -4.10046 0 99.6956 398.304
-65.55 6.08413 0 89.7115 409
-59.3662 12.3887 0 96.2175 415
-46.3252 16.9993 0 109.561 419
-43.7161 26.2803 0 113 429.49
-48.7418 38.0951 0 109 442.833
-51.5428 51.5656 0 107 457.005
-54.697 63.7212 0 104 470.762
-64.6021 69.6091 0 92.9758 480.024
-73.3902 75.6218 0 82.0762 489.924
-82.8279 79.5464 0 70.298 497.702
-90.6961 86.0383 0 60.1059 507.894
-97.5766 93.7393 0 50.9132 519.087
-104.46 101.908 0 42.5491 529.451
-109.289 112.132 0 36.1849 541.815
-113.876 121.055 0 29 553.839
-118.308 129.557 0 21.7498 565.25
-124.149 139.914 0 13.9716 577.028
-130.562 151.491 0 6.60748 588.393
-133.133 165.146 0 3 601.898
-129.729 175.007 0 5.65576 612
-117.69 168.078 0 18.1705 606
-103.601 172.937 0 29.8989 613.899
-92.3411 181.969 0 41.129 623
-80.6095 190.355 0 52.4011 632
-68.0059 196.299 0 64.6477 638.648
-58.7147 196.06 0 73.938 638.938
-67.4037 185.468 0 65.8669 627.867
-74.9595 173.732 0 59 615.711
-80.9634 161.338 0 53.8459 602.846
-88.2947 150.822 0 49 589.853
-87.5396 144.978 0 53.4191 580
-79.6836 139.21 0 64.4886 570.511
-71.8624 133.844 0 75.5491 561
-63.9381 128.464 0 86.5804 551.42
-55.7869 122.541 0 97.4802 541.52
-47.3866 117.07 0 108.537 532
-38.9451 111.659 0 119.572 522.428
-29.7769 109.047 0 131.643 515.357
-18.6526 107.026 0 144.593 510.407
-7.29379 100.943 0 156 502.475
0.438954 90.145 0 163 490.374
8.12436 79.9175 0 170.514 478.486
17.6608 70.9202 0 180 467.416
26.9874 61.0389 0 188.191 455.809
35.4127 50.6636 0 195.262 443.738
45.9822 44.7367 0 206.057 435
54.9587 57.4394 0 216.526 444.526
64.7169 69.7265 0 227.602 454
74.4877 81.2778 0 238.911 462.911
84.5632 91.9515 0 250.56 471
95.1088 103.343 0 262.174 479.174
107.024 115.001 0 274.245 486.245
111.794 132.131 0 280 498.862
114.677 150.669 0 284 512.205
117.506 169.156 0 288 525.548
120.953 185.779 0 293 538.477
125.449 202.193 0 298.995 550.995
132.199 219.807 0 306.773 562.773
138.936 237.54 0 314.551 574.551
147.107 254.957 0 323.743 585.743
154.41 272.463 0 332.229 597.229
162.062 288.619 0 341.421 608.421
169.543 302.022 0 351 618.867
177.969 312.243 0 361.382 627
184.407 308.587 0 366.861 622
187.183 298.044 0 367.169 610.831
202.461 302.486 0 380.582 607
216.386 301.651 0 394.339 604
229.572 296.853 0 406.311 596.689
229.086 287.852 0 404.046 588
214.955 283.779 0 389.46 587
200.292 277.447 0 374.874 586
187.05 267.206 0 361.961 583.039
181.893 250.348 0 356 572.431
179.167 231.524 0 352 559.088
176.948 212.637 0 348.527 545.527
173.569 193.988 0 344 532.403
169.554 175.032 0 339 519.474
166.679 155.82 0 335.093 506.093
163.692 137.083 0 331 492.789
163.822 118.189 0 330 479.032
166.865 101.132 0 331 464.446
173.335 89.7301 0 336 452.689
165.023 80.2345 0 326.538 444.538
157.465 67.0096 0 317.345 433.345
148.344 54.5136 0 306.86 423.86
153.149 48.6652 0 311 418.459
146.508 35.8279 0 303 407.358
139.661 21.1585 0 294.768 395.768
133.153 6.88988 0 286.99 383.99
125.671 -6.70521 0 278.505 372.505
118.247 -19.5264 0 270 361.027
110.097 -32.6361 0 261 349.755
105.046 -46.1763 0 255.998 338
107.719 -57.6158 0 259 326.483
112.488 -70.1258 0 263 313.141
116.842 -83.0238 0 266 299.384
120.946 -95.7567 0 269 285.626
124.951 -107.238 0 273 272.284
135.098 -111.244 0 284.578 264.422
146.886 -110.953 0 297.331 261
159.956 -106.085 0 311.917 262
169.975 -106.793 0 322 258.155
179.78 -111.305 0 331.188 250
189.433 -103.967 0 344.531 252
201.185 -98.3707 0 359.117 251
212.835 -92.405 0 373.703 250
224.612 -87.419 0 387.874 248
220.636 -74.6063 0 391 260.459
213.334 -61.2834 0 391 275.459
205.562 -48.8546 0 390 290.047
198.549 -35.6017 0 390 305.044
190.843 -23.172 0 389 319.633
183.834 -9.91062 0 389 334.633
176.132 2.51383 0 388 349.217
169.122 15.775 0 388 364.217
163.587 28.4181 0 389.018 377.982
168.793 29.2342 0 394 376.269
172.6 17.7529 0 392 364.34
180.992 6.16026 0 394 350.169
191.827 -2.48408 0 399.537 337.463
205.183 -8.08265 0 408.73 326.27
219.28 -9.9822 0 420.304 318
233.203 -10.0707 0 432.579 311.421
247.155 -10.6904 0 444.649 304.351
261.182 -12.0536 0 456.428 296.572
273.122 -18.4613 0 464 285.295
283.524 -27.5055 0 469 272.366
291.699 -38.9795 0 471 258.194
299.17 -51.2736 0 472 243.608
305.778 -63.7655 0 472 229.438
312.59 -75.1043 0 472.64 216.36
319.896 -87.3826 0 473.238 202.238
324.13 -99.3719 0 471.297 189.703
331.7 -111.984 0 471.996 174.996
335.76 -125.5 0 469.168 161.168
336.013 -139.407 0 462.804 148.804
330.084 -151.763 0 451.733 140.733
322.515 -163.478 0 439.522 134
315.169 -175.371 0 427.422 127
309.584 -188.002 0 416.52 118.52
307.552 -202.134 0 408.035 107.035
310.09 -215.807 0 403.792 93.7925
315.944 -228.376 0 403 79.9492
323.354 -237.935 0 405 68.0205
322.846 -245.92 0 400.772 61.2279
313.162 -235.871 0 397 74.6653
305.374 -223.495 0 396 89.2529
298.272 -210.285 0 396 104.253
290.481 -197.917 0 395 118.836
283.377 -184.706 0 395 133.837
276.271 -171.491 0 395 148.837
268.482 -159.11 0 394 163.422
261.375 -145.882 0 394 178.422
253.629 -133.523 0 393 193.009
246.671 -120.425 0 393 208.01
236.355 -117.939 0 384.873 215.873
224.735 -126.41 0 370.234 215
212.953 -134.547 0 355.649 214
201.001 -142.392 0 341.063 213
195.711 -152.507 0 332.72 206
181.897 -158.519 0 318.135 205
171.784 -168.501 0 306.439 198.439
167.721 -181.985 0 299.367 186.367
165.896 -194.187 0 294.581 175
173.493 -200.244 0 300.319 167
161.431 -203.775 0 287.862 166.862
160.801 -216.751 0 284 154.29
157.275 -230.239 0 277.134 142.134
153.537 -243.673 0 270 130.09
150.865 -255.661 0 264.235 119.235
148.72 -268.042 0 258.871 107.871
143.954 -280.323 0 251 97.303
139.083 -293.688 0 242.729 85.7291
131.992 -306.24 0 232.536 75.5365
119.268 -312.104 0 218.708 73.2917
108.908 -318.349 0 207.052 70.0515
105.354 -331.876 0 200 57.9727
113.54 -339.941 0 205.713 48
121.339 -348.202 0 211 37.9436
120.535 -352.759 0 209 33.7725
118.333 -363.509 0 203.989 24.0107
114.068 -373.995 0 197.061 15.061
106.725 -382.34 0 187.744 9
95.9935 -390.236 0 175.283 4.28345
81.1949 -397.778 0 159 1
80.5312 -379.067 0 163.397 19.2
88.9532 -188.797 0 222.418 199.851
82.8005 -261.379 0 197.158 131.895
113.299 -285.488 0 220.087 100.537
-3.79458 12.3652 0 151.861 410.94
162.647 -135.619 0 306.586 232.878
248.37 -94.6036 0 406.468 230.06
128.467 -183.317 0 261.32 195.618
50.8586 -179.442 0 188.497 217.457
63.1863 -69.0845 0 212.946 320.627
115.403 -241.564 0 233.86 142.326
285.444 -106.302 0 433.92 201.91
134.41 -209.523 0 260.625 168.349
70.5158 -28.4989 0 222.394 359.242
76.7002 -120.164 0 221.899 268.749
-22.749 67.208 0 136.779 470.704
306.789 -132.985 0 440.11 168.305
250.49 -50.1005 0 429.173 267.959
94.8514 34.0557 0 251.883 414.403
126.545 84.3598 0 288.938 454.209
9.84132 37.5203 0 167.384 435.514
3.38986 -20.4258 0 156.203 376.245
114.889 -146.114 0 256.529 235.57
86.7156 -86.9069 0 235.437 299.924
56.7666 -144.948 0 199.546 248.849
273.807 -72.6561 0 439.635 236.523
96.7756 1.78 0 250.681 384.232
100.443 66.5658 0 261.248 443.175
16.9015 -45.589 0 168.09 349.187
3 42 41 43
3 38 37 36
3 43 41 44
3 40 46 45
3 40 45 44
3 41 40 44
3 5 3 2
3 1 261 2
3 39 35 34
3 39 38 35
3 39 34 46
3 46 40 39
3 35 38 36
3 33 46 34
3 46 33 47
3 30 49 48
3 50 49 29
3 27 52 51
3 27 53 52
3 28 51 50
3 31 48 47
3 31 30 48
3 28 50 29
3 30 29 49
3 54 56 55
3 54 53 56
3 56 53 27
3 28 27 51
3 56 27 26
3 31 47 32
3 33 32 47
3 0 260 261
3 7 6 256
3 6 5 261
3 264 13 12
3 2 261 5
3 4 3 5
3 9 8 7
3 6 261 258
3 257 256 6
3 256 253 7
3 253 256 255
3 10 9 252
3 10 252 251
3 253 252 9
3 7 253 9
3 257 6 258
3 16 15 14
3 16 14 263
3 263 17 16
3 57 26 25
3 58 25 24
3 14 13 263
3 17 263 18
3 264 11 250
3 11 264 12
3 21 20 271
3 61 60 269
3 263 19 18
3 23 269 24
3 250 11 251
3 19 263 20
3 10 251 11
3 56 26 57
3 22 21 262
3 0 261 1
3 246 245 271
3 23 22 269
3 107 87 86
3 107 86 108
3 86 85 108
3 105 90 89
3 89 88 106
3 107 88 87
3 107 106 88
3 85 84 109
3 76 75 74
3 77 76 74
3 110 109 84
3 85 109 108
3 84 83 110
3 82 111 83
3 82 81 112
3 95 93 92
3 92 91 95
3 91 90 104
3 104 95 91
3 95 94 93
3 103 97 96
3 95 104 96
3 96 104 103
3 102 97 103
3 90 105 104
3 102 98 97
3 99 98 101
3 101 100 99
3 98 102 101
3 89 106 105
3 59 58 60
3 57 25 58
3 289 70 69
3 282 265 72
3 289 282 70
3 60 58 269
3 63 275 64
3 275 63 285
3 67 66 68
3 68 66 289
3 270 65 64
3 173 172 275
3 24 269 58
3 289 274 282
3 73 72 265
3 78 265 281
3 265 78 77
3 81 80 276
3 83 111 110
3 79 78 276
3 82 112 111
3 119 118 281
3 77 74 73
3 276 281 116
3 281 120 119
3 276 78 281
3 276 112 81
3 112 276 113
3 113 276 114
3 114 276 115
3 265 120 281
3 282 71 70
3 275 270 64
3 255 254 253
3 264 250 249
3 248 264 249
3 264 247 246
3 271 245 244
3 271 263 264
3 271 264 246
3 243 242 273
3 273 241 268
3 241 240 239
3 273 242 241
3 268 239 238
3 236 235 266
3 268 266 283
3 241 239 268
3 283 266 174
3 266 176 175
3 177 176 266
3 234 178 266
3 266 178 177
3 283 174 173
3 284 172 171
3 283 285 262
3 266 235 234
3 179 234 233
3 232 231 181
3 180 233 232
3 179 233 180
3 181 180 232
3 182 181 231
3 230 267 231
3 234 179 178
3 284 171 170
3 222 221 218
3 221 219 218
3 219 221 220
3 223 222 217
3 216 224 223
3 226 225 214
3 215 225 224
3 222 218 217
3 216 215 224
3 217 216 223
3 226 214 277
3 277 212 211
3 277 214 213
3 215 214 225
3 277 211 210
3 182 231 267
3 278 286 203
3 227 277 228
3 207 272 208
3 184 278 185
3 184 183 278
3 201 200 278
3 278 199 198
3 226 277 227
3 272 207 206
3 208 272 277
3 206 205 286
3 273 262 21
3 205 204 286
3 267 183 182
3 203 202 278
3 206 286 272
3 273 21 271
3 208 277 209
3 277 210 209
3 169 168 270
3 270 284 169
3 270 168 274
3 163 279 164
3 165 287 166
3 165 164 287
3 287 120 274
3 284 170 169
3 163 162 279
3 160 288 162
3 279 288 122
3 161 160 162
3 158 280 159
3 160 280 288
3 287 164 279
3 158 156 280
3 124 123 288
3 280 160 159
3 288 280 125
3 153 129 128
3 129 152 130
3 128 127 154
3 126 155 127
3 154 127 155
3 130 152 131
3 153 128 154
3 132 131 151
3 150 133 132
3 133 149 134
3 134 148 135
3 153 152 129
3 126 280 155
3 156 155 280
3 158 157 156
3 194 189 188
3 187 195 188
3 194 190 189
3 192 190 193
3 190 192 191
3 193 190 194
3 196 187 186
3 186 185 197
3 197 185 198
3 278 198 185
3 196 195 187
3 194 188 195
3 197 196 186
3 151 150 132
3 149 133 150
3 134 149 148
3 140 137 136
3 137 139 138
3 147 136 135
3 148 147 135
3 131 152 151
3 147 146 140
3 145 144 142
3 146 145 141
3 139 137 140
3 145 142 141
3 141 140 146
3 143 142 144
3 140 136 147
3 260 259 261
3 199 278 200
3 258 261 259
3 247 264 248
3 13 264 263
3 73 265 77
3 72 71 282
3 174 266 175
3 237 236 266
3 272 230 229
3 204 203 286
3 238 237 268
3 266 268 237
3 22 262 269
3 283 262 268
3 168 167 274
3 66 65 270
3 271 244 243
3 20 263 271
3 230 272 267
3 228 272 229
3 262 273 268
3 243 273 271
3 287 167 166
3 282 120 265
3 62 285 63
3 62 61 285
3 79 276 80
3 116 115 276
3 277 272 228
3 213 212 277
3 267 278 183
3 202 201 278
3 122 121 279
3 279 121 120
3 126 125 280
3 288 125 124
3 118 117 281
3 281 117 116
3 289 69 68
3 120 282 274
3 173 275 283
3 283 275 285
3 270 275 284
3 172 284 275
3 61 269 285
3 262 285 269
3 278 267 286
3 272 286 267
3 120 287 279
3 167 287 274
3 122 288 123
3 288 279 162
3 274 289 270
3 66 270 289
