ply
format ascii 1.0
element vertex 290
property float x
property float y
property float z
property float u
property float v
element face 317
property list uchar int vertex_indices
end_header
49.8074 -389.647 0 147.636 8.36396
39.8318 -381.121 0 139.979 19.0208
36.4752 -367.347 0 140 33.201
36.8313 -353.382 0 143.678 46.6777
47.8976 -347.244 0 155.887 50
55.7797 -357.901 0 161 37.7695
61.6565 -356.663 0 167 37.5736
65.7126 -343.813 0 174 49.0883
68.259 -330.184 0 179.719 61.7193
81.0223 -331.912 0 191.704 57
84.8515 -321.058 0 198 66.6324
86.6376 -307.311 0 203 79.5613
78.1219 -300.94 0 196.239 87.7609
66.0342 -294.609 0 186 96.7624
54.239 -288.062 0 176.097 105.903
43.0399 -280.424 0 167.026 115.974
44.8784 -267.798 0 171.803 127.803
42.8786 -258.744 0 172 137.064
45.8856 -245.726 0 177.995 148.995
49.907 -232.315 0 185.066 161.066
58.2917 -221.215 0 195.844 169.844
62.8762 -207.798 0 203.622 181.622
56.4156 -203.21 0 199.605 187
42.7138 -209.749 0 186.185 183.185
28.8751 -216.957 0 172.919 179
13.6155 -224.846 0 159.407 175.407
-2.63461 -231.493 0 145.818 174
-16.4983 -243.791 0 134 166.718
-21.5285 -261.162 0 130.265 153.265
-26.819 -278.043 0 126 140.032
-32.877 -294.67 0 121 127.103
-37.9802 -311.388 0 116.83 113.83
-43.7078 -326.579 0 111 101.245
-49.6976 -341.623 0 104.809 88.8092
-56.9613 -355.981 0 97.031 77.031
-62.1135 -369.204 0 90 64.9434
-64.9251 -377.884 0 85.8385 56.8385
-73.4078 -380.802 0 77 55.3289
-72.0499 -367.262 0 80.5247 68.4753
-70.677 -360.62 0 83 74.8438
-84.4904 -358.665 0 69.8678 79.1322
-92.7901 -367.248 0 60.2982 72
-101.367 -375.18 0 50.554 65.554
-104.259 -367.121 0 49 73.9741
-100.165 -354.96 0 55 85.3173
-93.7583 -342.8 0 63.2955 96.2955
-82.2487 -335.178 0 75.9327 102
-69.7027 -322.549 0 86 109.276
-66.5171 -304.782 0 88 123.448
-63.122 -287.467 0 90.4379 137.438
-60.5625 -270.807 0 92 150.963
-57.7926 -253.558 0 94 165.134
-55.2874 -237.788 0 97 178.892
-52.4452 -222.87 0 101 192.235
-48.6647 -208.618 0 106.116 205.116
-43.0965 -195.718 0 113.265 217
-35.4246 -198.129 0 120.43 213.43
-20.9128 -187.47 0 133.087 219.087
-6.98263 -176.319 0 145 225.052
-3.74375 -168.177 0 148.809 232
8.91446 -162.086 0 161.694 235.694
16.6799 -150.692 0 170 244.081
16.335 -135.4 0 171 257.839
15.9597 -119.642 0 172 272.425
18.0696 -104.134 0 175 286.182
12.1631 -91.049 0 169.921 299.079
6.31291 -78.3358 0 165 312.04
-5.91293 -75.2507 0 153.031 316
-12.8075 -63.2488 0 147 328.484
-20.6163 -52.3455 0 140.001 339.999
-29.7674 -41.8148 0 131.516 351.484
-38.2678 -31.0264 0 123.737 363.263
-46.1196 -20.2425 0 116.666 375.334
-55.6961 -10.1297 0 108.181 386.819
-65.1065 0.707075 0 99.6956 398.304
-75.6614 10.8475 0 89.7115 409
-69.5025 17.1757 0 96.2175 415
-56.4761 21.8318 0 109.561 419
-53.9193 31.109 0 113 429.49
-59.0776 42.8121 0 109 442.833
-62.0865 56.1279 0 107 457.005
-65.606 68.1189 0 104 470.762
-76.0302 73.7719 0 92.9758 480.024
-85.6023 79.6635 0 82.0762 489.924
-95.7884 83.384 0 70.298 497.702
-104.589 89.702 0 60.1059 507.894
-112.506 97.2284 0 50.9132 519.087
-120.273 105.067 0 42.5491 529.451
-126.157 115.056 0 36.1849 541.815
-132.018 123.792 0 29 553.839
-137.787 132.061 0 21.7498 565.25
-144.92 141.884 0 13.9716 577.028
-152.467 152.792 0 6.60748 588.393
-156.312 166.144 0 3 601.898
-153.837 176.276 0 5.65576 612
-141.215 170.485 0 18.1705 606
-128.283 176.721 0 29.8989 613.899
-117.844 186.778 0 41.129 623
-106.992 196.282 0 52.4011 632
-95.0388 203.446 0 64.6477 638.648
-85.7694 204.128 0 73.938 638.938
-93.3662 192.727 0 65.8669 627.867
-99.7197 180.3 0 59 615.711
-104.432 167.359 0 53.8459 602.846
-110.206 155.998 0 49 589.853
-108.037 149.859 0 53.4191 580
-98.9095 144.326 0 64.4886 570.511
-89.849 139.093 0 75.5491 561
-80.7396 133.805 0 86.5804 551.42
-71.4703 127.962 0 97.4802 541.52
-62.0178 122.53 0 108.537 532
-52.554 117.09 0 119.572 522.428
-42.4735 114.38 0 131.643 515.357
-30.797 112.426 0 144.593 510.407
-19.0369 106.532 0 156 502.475
-10.8475 95.7678 0 163 490.374
-2.67204 85.3912 0 170.514 478.486
7.23508 76.2464 0 180 467.416
16.7641 66.2654 0 188.191 455.809
25.3339 55.7077 0 195.262 443.738
36.2181 49.4022 0 206.057 435
45.5364 61.9939 0 216.526 444.526
55.5934 74.1727 0 227.602 454
65.6866 85.5817 0 238.911 462.911
76.0979 96.035 0 250.56 471
86.983 107.158 0 262.174 479.174
99.2132 118.481 0 274.245 486.245
104.458 135.422 0 280 498.862
107.859 153.764 0 284 512.205
111.225 172.048 0 288 525.548
115.221 188.475 0 293 538.477
120.267 204.644 0 298.995 550.995
127.559 221.875 0 306.773 562.773
134.854 239.218 0 314.551 574.551
143.589 256.174 0 323.743 585.743
151.491 273.247 0 332.229 597.229
159.768 288.968 0 341.421 608.421
167.864 301.96 0 351 618.867
176.799 311.736 0 361.382 627
183.038 307.755 0 366.861 622
185.255 297.081 0 367.169 610.831
200.462 300.615 0 380.582 607
214.361 299.06 0 394.339 604
227.278 293.575 0 406.311 596.689
226.319 284.612 0 404.046 588
212.004 281.293 0 389.46 587
197.164 275.791 0 374.874 586
183.689 266.35 0 361.961 583.039
178.003 249.897 0 356 572.431
174.662 231.354 0 352 559.088
171.845 212.719 0 348.527 545.527
167.898 194.368 0 344 532.403
163.337 175.742 0 339 519.474
159.921 156.815 0 335.093 506.093
156.413 138.358 0 331 492.789
156.039 119.646 0 330 479.032
158.574 102.675 0 331 464.446
164.694 91.1124 0 336 452.689
156.097 81.9087 0 326.538 444.538
148.197 69.0321 0 317.345 433.345
138.823 56.9557 0 306.86 423.86
143.525 51.0891 0 311 418.459
136.644 38.4643 0 303 407.358
129.596 24.108 0 294.768 395.768
122.943 10.1013 0 286.99 383.99
115.363 -3.2727 0 278.505 372.505
107.852 -15.9383 0 270 361.027
99.6997 -28.9102 0 261 349.755
94.7619 -42.4435 0 255.998 338
97.5135 -54.0597 0 259 326.483
102.238 -66.7053 0 263 313.141
106.517 -79.7115 0 266 299.384
110.568 -92.6385 0 269 285.626
114.647 -104.497 0 273 272.284
125.137 -108.967 0 284.578 264.422
137.177 -109.005 0 297.331 261
150.431 -104.383 0 311.917 262
160.593 -105.279 0 322 258.155
170.792 -110.003 0 331.188 250
181.62 -102.884 0 344.531 252
194.709 -97.5404 0 359.117 251
207.717 -91.8477 0 373.703 250
220.628 -87.1861 0 387.874 248
217.641 -74.2224 0 391 260.459
210.997 -60.6388 0 391 275.459
203.723 -47.9335 0 390 290.047
197.189 -34.4379 0 390 305.044
189.932 -21.741 0 389 319.633
183.401 -8.23791 0 389 334.633
176.147 4.45368 0 388 349.217
169.616 17.9568 0 388 364.217
164.535 30.7895 0 389.018 377.982
169.767 31.4192 0 394 376.269
173.162 19.8094 0 392 364.34
181.134 7.92422 0 394 350.169
191.654 -1.10142 0 399.537 337.463
204.802 -7.17323 0 408.73 326.27
218.823 -9.57487 0 420.304 318
232.74 -10.158 0 432.579 311.421
246.673 -11.2749 0 444.649 304.351
260.65 -13.1421 0 456.428 296.572
272.364 -19.9783 0 464 285.295
282.471 -29.3959 0 469 272.366
290.357 -41.1614 0 471 258.194
297.504 -53.732 0 472 243.608
303.652 -66.4762 0 472 229.438
309.928 -78.0882 0 472.64 216.36
316.644 -90.6562 0 473.238 202.238
320.382 -102.81 0 471.297 189.703
327.454 -115.711 0 471.996 174.996
330.985 -129.377 0 469.168 161.168
330.698 -143.284 0 462.804 148.804
324.293 -155.401 0 451.733 140.733
316.274 -166.813 0 439.522 134
308.471 -178.413 0 427.422 127
302.398 -190.817 0 416.52 118.52
299.816 -204.859 0 408.035 107.035
301.82 -218.62 0 403.792 93.7925
307.181 -231.408 0 403 79.9492
314.212 -241.248 0 405 68.0205
313.394 -249.207 0 400.772 61.2279
304.108 -238.788 0 397 74.6653
296.809 -226.119 0 396 89.2529
290.226 -212.642 0 396 104.253
282.923 -199.981 0 395 118.836
276.338 -186.502 0 395 133.837
269.752 -173.022 0 395 148.837
262.449 -160.349 0 394 163.422
255.854 -146.86 0 394 178.422
248.544 -134.219 0 393 193.009
241.931 -120.892 0 393 208.01
231.092 -118.072 0 384.873 215.873
218.025 -126.222 0 370.234 215
204.87 -134.063 0 355.649 214
191.51 -141.646 0 341.063 213
185.405 -151.715 0 332.72 206
171.259 -157.406 0 318.135 205
160.722 -167.241 0 306.439 198.439
156.142 -180.771 0 299.367 186.367
153.901 -193.002 0 294.581 175
161.289 -199.321 0 300.319 167
149.103 -202.518 0 287.862 166.862
147.99 -215.578 0 284 154.29
144.004 -229.006 0 277.134 142.134
139.82 -242.347 0 270 130.09
136.764 -254.253 0 264.235 119.235
134.225 -266.565 0 258.871 107.871
129.07 -278.692 0 251 97.303
123.776 -291.896 0 242.729 85.7291
116.29 -304.217 0 232.536 75.5365
103.386 -309.674 0 218.708 73.2917
92.8321 -315.587 0 207.052 70.0515
88.849 -328.994 0 200 57.9727
96.7734 -337.315 0 205.713 48
104.304 -345.822 0 211 37.9436
103.355 -350.351 0 209 33.7725
100.811 -361.025 0 203.989 24.0107
96.2142 -371.369 0 197.061 15.061
88.6078 -379.476 0 187.744 9
77.6301 -387.024 0 175.283 4.28345
62.5985 -394.09 0 159 1
62.5321 -375.367 0 163.397 19.2
76.8753 -185.608 0 222.418 199.851
68.5443 -257.822 0 197.158 131.895
98.2667 -282.881 0 220.087 100.537
-13.9 17.3958 0 151.861 410.94
152.622 -133.966 0 306.586 232.878
244.613 -95.165 0 406.468 230.06
116.83 -181.025 0 261.32 195.618
38.7139 -175.445 0 188.497 217.457
52.8698 -65.0635 0 212.946 320.627
101.764 -239.043 0 233.86 142.326
281.452 -108.245 0 433.92 201.91
121.816 -207.564 0 260.625 168.349
60.2504 -24.348 0 222.394 359.242
66.0229 -116.53 0 221.899 268.749
-33.6203 72.4291 0 136.779 470.704
301.745 -135.733 0 440.11 168.305
248.591 -50.7779 0 429.173 267.959
85.0201 37.8683 0 251.883 414.403
117.751 87.2075 0 288.938 454.209
-0.402161 42.7789 0 167.384 435.514
-6.78105 -15.5765 0 156.203 376.245
104.074 -143.41 0 256.529 235.57
76.3417 -83.2902 0 235.437 299.924
45.6946 -140.997 0 199.546 248.849
271.428 -74.1603 0 439.635 236.523
86.5928 5.6205 0 250.681 384.232
91.2281 70.1866 0 261.248 443.175
6.65772 -40.9771 0 168.09 349.187
3 42 41 43
3 38 37 36
3 43 41 44
3 40 46 45
3 40 45 44
3 41 40 44
3 5 3 2
3 1 261 2
3 39 35 34
3 39 38 35
3 39 34 46
3 46 40 39
3 35 38 36
3 33 46 34
3 46 33 47
3 30 49 48
3 50 49 29
3 27 52 51
3 27 53 52
3 28 51 50
3 31 48 47
3 31 30 48
3 28 50 29
3 30 29 49
3 54 56 55
3 54 53 56
3 56 53 27
3 28 27 51
3 56 27 26
3 31 47 32
3 33 32 47
3 0 260 261
3 7 6 256
3 6 5 261
3 264 13 12
3 2 261 5
3 4 3 5
3 9 8 7
3 6 261 258
3 257 256 6
3 256 253 7
3 253 256 255
3 10 9 252
3 10 252 251
3 253 252 9
3 7 253 9
3 257 6 258
3 16 15 14
3 16 14 263
3 263 17 16
3 57 26 25
3 58 25 24
3 14 13 263
3 17 263 18
3 264 11 250
3 11 264 12
3 21 20 271
3 61 60 269
3 263 19 18
3 23 269 24
3 250 11 251
3 19 263 20
3 10 251 11
3 56 26 57
3 22 21 262
3 0 261 1
3 246 245 271
3 23 22 269
3 107 87 86
3 107 86 108
3 86 85 108
3 105 90 89
3 89 88 106
3 107 88 87
3 107 106 88
3 85 84 109
3 76 75 74
3 77 76 74
3 110 109 84
3 85 109 108
3 84 83 110
3 82 111 83
3 82 81 112
3 95 93 92
3 92 91 95
3 91 90 104
3 104 95 91
3 95 94 93
3 103 97 96
3 95 104 96
3 96 104 103
3 102 97 103
3 90 105 104
3 102 98 97
3 99 98 101
3 101 100 99
3 98 102 101
3 89 106 105
3 59 58 60
3 57 25 58
3 289 70 69
3 282 265 72
3 289 282 70
3 60 58 269
3 63 275 64
3 275 63 285
3 67 66 68
3 68 66 289
3 270 65 64
3 173 172 275
3 24 269 58
3 289 274 282
3 73 72 265
3 78 265 281
3 265 78 77
3 81 80 276
3 83 111 110
3 79 78 276
3 82 112 111
3 119 118 281
3 77 74 73
3 276 281 116
3 281 120 119
3 276 78 281
3 276 112 81
3 112 276 113
3 113 276 114
3 114 276 115
3 265 120 281
3 282 71 70
3 275 270 64
3 255 254 253
3 264 250 249
3 248 264 249
3 264 247 246
3 271 245 244
3 271 263 264
3 271 264 246
3 243 242 273
3 273 241 268
3 241 240 239
3 273 242 241
3 268 239 238
3 236 235 266
3 268 266 283
3 241 239 268
3 283 266 174
3 266 176 175
3 177 176 266
3 234 178 266
3 266 178 177
3 283 174 173
3 284 172 171
3 283 285 262
3 266 235 234
3 179 234 233
3 232 231 181
3 180 233 232
3 179 233 180
3 181 180 232
3 182 181 231
3 230 267 231
3 234 179 178
3 284 171 170
3 222 221 218
3 221 219 218
3 219 221 220
3 223 222 217
3 216 224 223
3 226 225 214
3 215 225 224
3 222 218 217
3 216 215 224
3 217 216 223
3 226 214 277
3 277 212 211
3 277 214 213
3 215 214 225
3 277 211 210
3 182 231 267
3 278 286 203
3 227 277 228
3 207 272 208
3 184 278 185
3 184 183 278
3 201 200 278
3 278 199 198
3 226 277 227
3 272 207 206
3 208 272 277
3 206 205 286
3 273 262 21
3 205 204 286
3 267 183 182
3 203 202 278
3 206 286 272
3 273 21 271
3 208 277 209
3 277 210 209
3 169 168 270
3 270 284 169
3 270 168 274
3 163 279 164
3 165 287 166
3 165 164 287
3 287 120 274
3 284 170 169
3 163 162 279
3 160 288 162
3 279 288 122
3 161 160 162
3 158 280 159
3 160 280 288
3 287 164 279
3 158 156 280
3 124 123 288
3 280 160 159
3 288 280 125
3 153 129 128
3 129 152 130
3 128 127 154
3 126 155 127
3 154 127 155
3 130 152 131
3 153 128 154
3 132 131 151
3 150 133 132
3 133 149 134
3 134 148 135
3 153 152 129
3 126 280 155
3 156 155 280
3 158 157 156
3 194 189 188
3 187 195 188
3 194 190 189
3 192 190 193
3 190 192 191
3 193 190 194
3 196 187 186
3 186 185 197
3 197 185 198
3 278 198 185
3 196 195 187
3 194 188 195
3 197 196 186
3 151 150 132
3 149 133 150
3 134 149 148
3 140 137 136
3 137 139 138
3 147 136 135
3 148 147 135
3 131 152 151
3 147 146 140
3 145 144 142
3 146 145 141
3 139 137 140
3 145 142 141
3 141 140 146
3 143 142 144
3 140 136 147
3 260 259 261
3 199 278 200
3 258 261 259
3 247 264 248
3 13 264 263
3 73 265 77
3 72 71 282
3 174 266 175
3 237 236 266
3 272 230 229
3 204 203 286
3 238 237 268
3 266 268 237
3 22 262 269
3 283 262 268
3 168 167 274
3 66 65 270
3 271 244 243
3 20 263 271
3 230 272 267
3 228 272 229
3 262 273 268
3 243 273 271
3 287 167 166
3 282 120 265
3 62 285 63
3 62 61 285
3 79 276 80
3 116 115 276
3 277 272 228
3 213 212 277
3 267 278 183
3 202 201 278
3 122 121 279
3 279 121 120
3 126 125 280
3 288 125 124
3 118 117 281
3 281 117 116
3 289 69 68
3 120 282 274
3 173 275 283
3 283 275 285
3 270 275 284
3 172 284 275
3 61 269 285
3 262 285 269
3 278 267 286
3 272 286 267
3 120 287 279
3 167 287 274
3 122 288 123
3 288 279 162
3 274 289 270
3 66 270 289
