ply
format ascii 1.0
element vertex 290
property float x
property float y
property float z
property float u
property float v
element face 317
property list uchar int vertex_indices
end_header
31.467 -376.174 0 147.636 8.36396
21.9305 -367.159 0 139.979 19.0208
19.2677 -353.234 0 140 33.201
20.3228 -339.305 0 143.678 46.6777
31.6825 -333.728 0 155.887 50
39.0211 -344.766 0 161 37.7695
44.9524 -343.824 0 167 37.5736
49.6468 -331.193 0 174 49.0883
52.8723 -317.709 0 179.719 61.7193
65.5332 -320.074 0 191.704 57
69.9006 -309.425 0 198 66.6324
72.372 -295.784 0 203 79.5613
64.186 -288.998 0 196.239 87.7609
52.4313 -282.073 0 186 96.7624
40.9793 -274.948 0 176.097 105.903
30.1754 -266.761 0 167.026 115.974
32.6418 -254.242 0 171.803 127.803
31.096 -245.101 0 172 137.064
34.748 -232.251 0 177.995 148.995
39.4324 -219.059 0 185.066 161.066
48.3626 -208.396 0 195.844 169.844
53.6442 -195.258 0 203.622 181.622
47.6612 -190.454 0 199.605 187
33.9444 -196.412 0 186.185 183.185
20.1366 -202.966 0 172.919 179
5.10375 -209.925 0 159.407 175.407
-10.7579 -215.44 0 145.818 174
-24.3769 -226.662 0 134 166.718
-29.3193 -243.213 0 130.265 153.265
-34.5666 -259.33 0 126 140.032
-40.5761 -275.179 0 121 127.103
-45.6528 -291.171 0 116.83 113.83
-51.5248 -305.816 0 111 101.245
-57.6766 -320.313 0 104.809 88.8092
-65.1542 -334.131 0 97.031 77.031
-70.7478 -347.131 0 90 64.9434
-73.8686 -355.702 0 85.8385 56.8385
-82.4506 -358.311 0 77 55.3289
-80.6043 -344.828 0 80.5247 68.4753
-78.9839 -338.233 0 83 74.8438
-92.685 -335.751 0 69.8678 79.1322
-101.289 -344.028 0 60.2982 72
-110.147 -351.646 0 50.554 65.554
-112.745 -343.487 0 49 73.9741
-108.214 -331.481 0 55 85.3173
-101.371 -319.558 0 63.2955 96.2955
-89.5849 -312.35 0 75.9327 102
-77.3526 -300.873 0 86 109.276
-74.2294 -283.858 0 88 123.448
-70.8627 -267.24 0 90.4379 137.438
-68.3476 -251.238 0 92 150.963
-65.5797 -234.633 0 94 165.134
-62.8679 -219.274 0 97 178.892
-59.7099 -204.671 0 101 192.235
-55.588 -190.693 0 106.116 205.116
-49.6466 -177.998 0 113.265 217
-42.0705 -180.673 0 120.43 213.43
-27.7838 -171.086 0 133.087 219.087
-14.1029 -161.043 0 145 225.052
-10.7018 -153.144 0 148.809 232
2.05469 -147.569 0 161.694 235.694
10.011 -136.796 0 170 244.081
9.99584 -121.806 0 171 257.839
9.9384 -106.283 0 172 272.425
12.2534 -91.1437 0 175 286.182
6.51551 -78.0971 0 169.921 299.079
0.850431 -65.329 0 165 312.04
-11.3291 -62.058 0 153.031 316
-18.0459 -49.9501 0 147 328.484
-25.6936 -38.918 0 140.001 339.999
-34.719 -28.1857 0 131.516 351.484
-43.0832 -17.1884 0 123.737 363.263
-50.7906 -6.12761 0 116.666 375.334
-60.1528 4.27868 0 108.181 386.819
-69.3834 15.2458 0 99.6956 398.304
-79.834 25.4917 0 89.7115 409
-73.6091 31.7609 0 96.2175 415
-60.5184 36.2983 0 109.561 419
-57.7988 45.86 0 113 429.49
-62.7351 57.9245 0 109 442.833
-65.5619 71.4233 0 107 457.005
-69.0219 83.7999 0 104 470.762
-79.6289 90.2114 0 92.9758 480.024
-89.5718 96.9394 0 82.0762 489.924
-100.181 101.496 0 70.298 497.702
-109.376 108.613 0 60.1059 507.894
-117.669 116.891 0 50.9132 519.087
-125.65 125.227 0 42.5491 529.451
-131.74 135.691 0 36.1849 541.815
-138.009 145.083 0 29 553.839
-144.229 153.959 0 21.7498 565.25
-151.628 164.106 0 13.9716 577.028
-159.265 175.006 0 6.60748 588.393
-163.227 188.339 0 3 601.898
-160.843 198.495 0 5.65576 612
-148.168 192.822 0 18.1705 606
-135.619 199.549 0 29.8989 613.899
-125.11 209.524 0 41.129 623
-114.274 219.047 0 52.4011 632
-102.338 226.239 0 64.6477 638.648
-93.0704 226.945 0 73.938 638.938
-100.639 215.525 0 65.8669 627.867
-106.96 203.08 0 59 615.711
-111.614 190.099 0 53.8459 602.846
-117.004 178.319 0 49 589.853
-114.184 171.383 0 53.4191 580
-104.492 165.048 0 64.4886 570.511
-94.866 158.933 0 75.5491 561
-85.2159 152.755 0 86.5804 551.42
-75.477 146.067 0 97.4802 541.52
-65.5676 139.779 0 108.537 532
-55.658 133.468 0 119.572 522.428
-45.0469 129.837 0 131.643 515.357
-33.0123 127.26 0 144.593 510.407
-21.2774 120.934 0 156 502.475
-13.303 109.873 0 163 490.374
-5.2254 99.166 0 170.514 478.486
4.64122 89.6056 0 180 467.416
13.9153 79.2587 0 188.191 455.809
22.191 68.3533 0 195.262 443.738
33.0995 61.5122 0 206.057 435
42.7049 73.4492 0 216.526 444.526
53.0159 85.0517 0 227.602 454
63.4038 95.9356 0 238.911 462.911
74.1151 105.896 0 250.56 471
85.2036 116.383 0 262.174 479.174
97.4731 126.763 0 274.245 486.245
102.905 142.74 0 280 498.862
106.523 159.968 0 284 512.205
110.114 177.15 0 288 525.548
114.39 192.806 0 293 538.477
119.706 208.169 0 298.995 550.995
127.198 224.184 0 306.773 562.773
134.694 240.285 0 314.551 574.551
143.626 255.955 0 323.743 585.743
151.748 271.784 0 332.229 597.229
160.297 286.501 0 341.421 608.421
168.751 298.949 0 351 618.867
178.02 308.391 0 361.382 627
184.11 304.179 0 366.861 622
185.923 293.367 0 367.169 610.831
200.859 295.236 0 380.582 607
214.743 293.366 0 394.339 604
227.475 287.468 0 406.311 596.689
226.227 278.549 0 404.046 588
211.822 275.735 0 389.46 587
196.97 271.236 0 374.874 586
183.512 263.244 0 361.961 583.039
177.665 248.094 0 356 572.431
174.086 230.71 0 352 559.088
171.035 213.206 0 348.527 545.527
166.87 196.022 0 344 532.403
162.113 178.671 0 339 519.474
158.493 160.986 0 335.093 506.093
154.767 143.681 0 331 492.789
154.171 126.077 0 330 479.032
156.33 109.622 0 331 464.446
162.201 98.0055 0 336 452.689
153.402 89.0308 0 326.538 444.538
145.203 76.5174 0 317.345 433.345
135.558 65.0068 0 306.86 423.86
140.13 59.2424 0 311 418.459
132.991 46.9437 0 303 407.358
125.654 33.1891 0 294.768 395.768
118.736 19.6663 0 286.99 383.99
110.947 6.70119 0 278.505 372.505
103.223 -5.7139 0 270 361.027
94.8809 -18.3234 0 261 349.755
89.9126 -31.4631 0 255.998 338
92.717 -43.0399 0 259 326.483
97.3081 -55.8271 0 263 313.141
101.345 -68.998 0 266 299.384
105.203 -82.1102 0 269 285.626
109.31 -94.275 0 273 272.284
120.125 -99.4118 0 284.578 264.422
132.405 -100.124 0 297.331 261
146.024 -96.2154 0 311.917 262
156.254 -97.7176 0 322 258.155
166.368 -103.163 0 331.188 250
177.948 -97.0214 0 344.531 252
191.632 -92.952 0 359.117 251
205.277 -88.6083 0 373.703 250
218.754 -85.3005 0 387.874 248
217.144 -72.1853 0 391 260.459
211.899 -58.0256 0 391 275.459
205.92 -44.6642 0 390 290.047
200.754 -30.5876 0 390 305.044
194.788 -17.235 0 389 319.633
189.625 -3.1521 0 389 334.633
183.663 10.1949 0 388 349.217
178.5 24.2785 0 388 364.217
174.714 37.5509 0 389.018 377.982
179.983 37.6598 0 394 376.269
182.211 25.7711 0 392 364.34
188.969 13.1549 0 394 350.169
198.544 3.13299 0 399.537 337.463
211.027 -4.2097 0 408.73 326.27
224.741 -7.98658 0 420.304 318
238.532 -9.94102 0 432.579 311.421
252.288 -12.4279 0 444.649 304.351
266.014 -15.6686 0 456.428 296.572
276.998 -23.6326 0 464 285.295
286.128 -34.0114 0 469 272.366
292.831 -46.5227 0 471 258.194
298.723 -59.7616 0 472 243.608
303.588 -73.0502 0 472 229.438
308.69 -85.1954 0 472.64 216.36
314.132 -98.3368 0 473.238 202.238
316.649 -110.792 0 471.297 189.703
322.409 -124.332 0 471.996 174.996
324.566 -138.281 0 469.168 161.168
322.899 -152.09 0 462.804 148.804
315.324 -163.51 0 451.733 140.733
306.212 -174.07 0 439.522 134
297.298 -184.838 0 427.422 127
290.024 -196.579 0 416.52 118.52
286.062 -210.295 0 408.035 107.035
286.69 -224.187 0 403.792 93.7925
290.756 -237.444 0 403 79.9492
296.776 -247.933 0 405 68.0205
295.171 -255.772 0 400.772 61.2279
286.966 -244.483 0 397 74.6653
280.96 -231.151 0 396 89.2529
275.747 -217.089 0 396 104.253
269.736 -203.765 0 395 118.836
264.521 -189.699 0 395 133.837
259.306 -175.633 0 395 148.837
253.297 -162.3 0 394 163.422
248.076 -148.226 0 394 178.422
242.058 -134.917 0 393 193.009
236.81 -120.967 0 393 208.01
226.335 -116.945 0 384.873 215.873
212.607 -123.583 0 370.234 215
198.855 -130.005 0 355.649 214
184.958 -136.223 0 341.063 213
178.263 -145.695 0 332.72 206
163.894 -150.4 0 318.135 205
153.027 -159.56 0 306.439 198.439
147.887 -172.832 0 299.367 186.367
145.092 -184.932 0 294.581 175
152.169 -191.634 0 300.319 167
139.862 -194.198 0 287.862 166.862
138.161 -207.21 0 284 154.29
133.546 -220.428 0 277.134 142.134
128.722 -233.556 0 270 130.09
125.08 -245.297 0 264.235 119.235
121.933 -257.467 0 258.871 107.871
116.181 -269.323 0 251 97.303
110.234 -282.246 0 242.729 85.7291
102.141 -294.177 0 232.536 75.5365
88.9811 -298.982 0 218.708 73.2917
78.1449 -304.36 0 207.052 70.0515
73.4961 -317.551 0 200 57.9727
80.9939 -326.259 0 205.713 48
88.0894 -335.132 0 211 37.9436
86.9147 -339.608 0 209 33.7725
83.8399 -350.142 0 203.989 24.0107
78.7303 -360.242 0 197.061 15.061
70.7277 -367.958 0 187.744 9
59.386 -374.947 0 175.283 4.28345
44.0196 -381.252 0 159 1
44.8904 -362.549 0 163.397 19.2
68.7196 -173.802 0 222.418 199.851
56.776 -245.459 0 197.158 131.895
85.2071 -271.967 0 220.087 100.537
-17.9672 31.1462 0 151.861 410.94
146.636 -125.863 0 306.586 232.878
241.968 -95.6246 0 406.468 230.06
108.643 -171.077 0 261.32 195.618
31.2886 -162.014 0 188.497 217.457
47.7444 -53.0217 0 212.946 320.627
90.8873 -228.353 0 233.86 142.326
277.369 -112.336 0 433.92 201.91
112.448 -197.879 0 260.625 168.349
55.5527 -12.7378 0 222.394 359.242
60.0441 -104.604 0 221.899 268.749
-36.845 87.2586 0 136.779 470.704
294.839 -141.701 0 440.11 168.305
250.291 -51.9262 0 429.173 267.959
81.39 47.9955 0 251.883 414.403
115.179 95.2946 0 288.938 454.209
-4.06971 56.4029 0 167.384 435.514
-11.3872 -2.23068 0 156.203 376.245
97.4971 -132.83 0 256.529 235.57
71.0467 -71.757 0 235.437 299.924
39.2168 -128.144 0 199.546 248.849
270.764 -77.5278 0 439.635 236.523
82.3472 16.1886 0 250.681 384.232
88.3248 79.5652 0 261.248 443.175
1.76294 -27.9959 0 168.09 349.187
3 42 41 43
3 38 37 36
3 43 41 44
3 40 46 45
3 40 45 44
3 41 40 44
3 5 3 2
3 1 261 2
3 39 35 34
3 39 38 35
3 39 34 46
3 46 40 39
3 35 38 36
3 33 46 34
3 46 33 47
3 30 49 48
3 50 49 29
3 27 52 51
3 27 53 52
3 28 51 50
3 31 48 47
3 31 30 48
3 28 50 29
3 30 29 49
3 54 56 55
3 54 53 56
3 56 53 27
3 28 27 51
3 56 27 26
3 31 47 32
3 33 32 47
3 0 260 261
3 7 6 256
3 6 5 261
3 264 13 12
3 2 261 5
3 4 3 5
3 9 8 7
3 6 261 258
3 257 256 6
3 256 253 7
3 253 256 255
3 10 9 252
3 10 252 251
3 253 252 9
3 7 253 9
3 257 6 258
3 16 15 14
3 16 14 263
3 263 17 16
3 57 26 25
3 58 25 24
3 14 13 263
3 17 263 18
3 264 11 250
3 11 264 12
3 21 20 271
3 61 60 269
3 263 19 18
3 23 269 24
3 250 11 251
3 19 263 20
3 10 251 11
3 56 26 57
3 22 21 262
3 0 261 1
3 246 245 271
3 23 22 269
3 107 87 86
3 107 86 108
3 86 85 108
3 105 90 89
3 89 88 106
3 107 88 87
3 107 106 88
3 85 84 109
3 76 75 74
3 77 76 74
3 110 109 84
3 85 109 108
3 84 83 110
3 82 111 83
3 82 81 112
3 95 93 92
3 92 91 95
3 91 90 104
3 104 95 91
3 95 94 93
3 103 97 96
3 95 104 96
3 96 104 103
3 102 97 103
3 90 105 104
3 102 98 97
3 99 98 101
3 101 100 99
3 98 102 101
3 89 106 105
3 59 58 60
3 57 25 58
3 289 70 69
3 282 265 72
3 289 282 70
3 60 58 269
3 63 275 64
3 275 63 285
3 67 66 68
3 68 66 289
3 270 65 64
3 173 172 275
3 24 269 58
3 289 274 282
3 73 72 265
3 78 265 281
3 265 78 77
3 81 80 276
3 83 111 110
3 79 78 276
3 82 112 111
3 119 118 281
3 77 74 73
3 276 281 116
3 281 120 119
3 276 78 281
3 276 112 81
3 112 276 113
3 113 276 114
3 114 276 115
3 265 120 281
3 282 71 70
3 275 270 64
3 255 254 253
3 264 250 249
3 248 264 249
3 264 247 246
3 271 245 244
3 271 263 264
3 271 264 246
3 243 242 273
3 273 241 268
3 241 240 239
3 273 242 241
3 268 239 238
3 236 235 266
3 268 266 283
3 241 239 268
3 283 266 174
3 266 176 175
3 177 176 266
3 234 178 266
3 266 178 177
3 283 174 173
3 284 172 171
3 283 285 262
3 266 235 234
3 179 234 233
3 232 231 181
3 180 233 232
3 179 233 180
3 181 180 232
3 182 181 231
3 230 267 231
3 234 179 178
3 284 171 170
3 222 221 218
3 221 219 218
3 219 221 220
3 223 222 217
3 216 224 223
3 226 225 214
3 215 225 224
3 222 218 217
3 216 215 224
3 217 216 223
3 226 214 277
3 277 212 211
3 277 214 213
3 215 214 225
3 277 211 210
3 182 231 267
3 278 286 203
3 227 277 228
3 207 272 208
3 184 278 185
3 184 183 278
3 201 200 278
3 278 199 198
3 226 277 227
3 272 207 206
3 208 272 277
3 206 205 286
3 273 262 21
3 205 204 286
3 267 183 182
3 203 202 278
3 206 286 272
3 273 21 271
3 208 277 209
3 277 210 209
3 169 168 270
3 270 284 169
3 270 168 274
3 163 279 164
3 165 287 166
3 165 164 287
3 287 120 274
3 284 170 169
3 163 162 279
3 160 288 162
3 279 288 122
3 161 160 162
3 158 280 159
3 160 280 288
3 287 164 279
3 158 156 280
3 124 123 288
3 280 160 159
3 288 280 125
3 153 129 128
3 129 152 130
3 128 127 154
3 126 155 127
3 154 127 155
3 130 152 131
3 153 128 154
3 132 131 151
3 150 133 132
3 133 149 134
3 134 148 135
3 153 152 129
3 126 280 155
3 156 155 280
3 158 157 156
3 194 189 188
3 187 195 188
3 194 190 189
3 192 190 193
3 190 192 191
3 193 190 194
3 196 187 186
3 186 185 197
3 197 185 198
3 278 198 185
3 196 195 187
3 194 188 195
3 197 196 186
3 151 150 132
3 149 133 150
3 134 149 148
3 140 137 136
3 137 139 138
3 147 136 135
3 148 147 135
3 131 152 151
3 147 146 140
3 145 144 142
3 146 145 141
3 139 137 140
3 145 142 141
3 141 140 146
3 143 142 144
3 140 136 147
3 260 259 261
3 199 278 200
3 258 261 259
3 247 264 248
3 13 264 263
3 73 265 77
3 72 71 282
3 174 266 175
3 237 236 266
3 272 230 229
3 204 203 286
3 238 237 268
3 266 268 237
3 22 262 269
3 283 262 268
3 168 167 274
3 66 65 270
3 271 244 243
3 20 263 271
3 230 272 267
3 228 272 229
3 262 273 268
3 243 273 271
3 287 167 166
3 282 120 265
3 62 285 63
3 62 61 285
3 79 276 80
3 116 115 276
3 277 272 228
3 213 212 277
3 267 278 183
3 202 201 278
3 122 121 279
3 279 121 120
3 126 125 280
3 288 125 124
3 118 117 281
3 281 117 116
3 289 69 68
3 120 282 274
3 173 275 283
3 283 275 285
3 270 275 284
3 172 284 275
3 61 269 285
3 262 285 269
3 278 267 286
3 272 286 267
3 120 287 279
3 167 287 274
3 122 288 123
3 288 279 162
3 274 289 270
3 66 270 289
