ply
format ascii 1.0
element vertex 290
property float x
property float y
property float z
property float u
property float v
element face 317
property list uchar int vertex_indices
end_header
67.3962 -393.484 0 147.636 8.36396
57.1459 -385.29 0 139.979 19.0208
53.3385 -371.634 0 140 33.201
53.2349 -357.666 0 143.678 46.6777
64.0932 -351.166 0 155.887 50
72.3218 -361.558 0 161 37.7695
78.1548 -360.128 0 167 37.5736
81.7861 -347.151 0 174 49.0883
83.883 -333.446 0 179.719 61.7193
96.6963 -334.754 0 191.704 57
100.167 -323.78 0 198 66.6324
101.501 -309.981 0 203 79.5613
92.7818 -303.892 0 196.239 87.7609
80.4946 -297.957 0 186 96.7624
68.4931 -291.797 0 176.097 105.903
57.05 -284.53 0 167.026 115.974
58.474 -271.85 0 171.803 127.803
56.1793 -262.866 0 172 137.064
58.7592 -249.756 0 177.995 148.995
62.3416 -236.218 0 185.066 161.066
70.3657 -224.842 0 195.844 169.844
74.553 -211.226 0 203.622 181.622
68.158 -206.597 0 199.605 187
54.9183 -213.38 0 186.185 183.185
41.5575 -220.861 0 172.919 179
26.9964 -228.912 0 159.407 175.407
11.485 -235.721 0 145.818 174
-1.39337 -248.06 0 134 166.718
-5.17191 -265.088 0 130.265 153.265
-9.2627 -281.695 0 126 140.032
-14.1165 -298.09 0 121 127.103
-18.0011 -314.546 0 116.83 113.83
-22.7071 -329.684 0 111 101.245
-27.6798 -344.706 0 104.809 88.8092
-33.994 -359.173 0 97.031 77.031
-38.4411 -372.616 0 90 64.9434
-40.8039 -381.427 0 85.8385 56.8385
-49.1261 -384.774 0 77 55.3289
-48.4616 -371.182 0 80.5247 68.4753
-47.424 -364.471 0 83 74.8438
-61.2968 -363.199 0 69.8678 79.1322
-69.1466 -372.194 0 60.2982 72
-77.3071 -380.554 0 50.554 65.554
-80.6067 -372.653 0 49 73.9741
-77.1395 -360.299 0 55 85.3173
-71.3614 -347.825 0 63.2955 96.2955
-60.2504 -339.618 0 75.9327 102
-48.8683 -326.949 0 86 109.276
-47.0205 -309.549 0 88 123.448
-44.8782 -292.543 0 90.4379 137.438
-43.5145 -276.225 0 92 150.963
-41.9343 -259.294 0 94 165.134
-40.3512 -243.649 0 97 178.892
-38.2811 -228.733 0 101 192.235
-35.1598 -214.42 0 106.116 205.116
-30.1095 -201.331 0 113.265 217
-22.3742 -203.463 0 120.43 213.43
-8.71982 -192.67 0 133.087 219.087
4.31686 -181.443 0 145 225.052
7.21816 -173.228 0 148.809 232
19.6031 -166.744 0 161.694 235.694
26.9332 -155.092 0 170 244.081
26.2109 -139.716 0 171 257.839
25.5636 -123.881 0 172 272.425
27.5684 -108.273 0 175 286.182
21.5963 -95.2532 0 169.921 299.079
15.6458 -82.6064 0 165 312.04
3.39701 -79.6332 0 153.031 316
-3.59952 -67.6963 0 147 328.484
-11.4955 -56.8439 0 140.001 339.999
-20.7179 -46.3916 0 131.516 351.484
-29.2852 -35.6555 0 123.737 363.263
-37.2062 -24.9248 0 116.666 375.334
-46.8664 -14.7985 0 108.181 386.819
-56.2676 -3.91568 0 99.6956 398.304
-66.7959 6.25461 0 89.7115 409
-60.6208 12.567 0 96.2175 415
-47.5872 17.193 0 109.561 419
-44.9991 26.4456 0 113 429.49
-50.0618 38.2125 0 109 442.833
-52.9049 51.6474 0 107 457.005
-56.1097 63.7471 0 104 470.762
-66.0639 69.5371 0 92.9758 480.024
-74.9145 75.4593 0 82.0762 489.924
-84.4063 79.284 0 70.298 497.702
-92.3528 85.6841 0 60.1059 507.894
-99.3251 93.2986 0 50.9132 519.087
-106.296 101.386 0 42.5491 529.451
-111.234 111.544 0 36.1849 541.815
-115.936 120.391 0 29 553.839
-120.486 128.818 0 21.7498 565.25
-126.455 139.092 0 13.9716 577.028
-132.991 150.602 0 6.60748 588.393
-135.693 164.231 0 3 601.898
-132.383 174.123 0 5.65576 612
-120.28 167.307 0 18.1705 606
-106.284 172.281 0 29.8989 613.899
-95.1165 181.439 0 41.129 623
-83.476 189.952 0 52.4011 632
-70.9374 196.032 0 64.6477 638.648
-61.6441 195.894 0 73.938 638.938
-70.2179 185.208 0 65.8669 627.867
-77.6461 173.391 0 59 615.711
-83.5137 160.934 0 53.8459 602.846
-90.7068 150.355 0 49 589.853
-89.8471 144.546 0 53.4191 580
-81.8922 138.876 0 64.4886 570.511
-73.9748 133.603 0 75.5491 561
-65.958 128.313 0 86.5804 551.42
-57.7157 122.474 0 97.4802 541.52
-49.2307 117.085 0 108.537 532
-40.707 111.748 0 119.572 522.428
-31.4776 109.208 0 131.643 515.357
-20.3208 107.253 0 144.593 510.407
-8.91124 101.232 0 156 502.475
-1.1036 90.4637 0 163 490.374
6.64957 80.2472 0 170.514 478.486
16.2337 71.2694 0 180 467.416
25.6077 61.4093 0 188.191 455.809
34.0767 51.0436 0 195.262 443.738
44.6807 45.1196 0 206.057 435
53.671 57.8665 0 216.526 444.526
63.4417 70.1909 0 227.602 454
73.2256 81.7702 0 238.911 462.911
83.3163 92.4588 0 250.56 471
93.8851 103.871 0 262.174 479.174
105.832 115.569 0 274.245 486.245
110.641 132.759 0 280 498.862
113.563 151.368 0 284 512.205
116.434 169.924 0 288 525.548
119.923 186.588 0 293 538.477
124.462 203.04 0 298.995 550.995
131.256 220.71 0 306.773 562.773
138.04 238.5 0 314.551 574.551
146.259 255.968 0 323.743 585.743
153.613 273.525 0 332.229 597.229
161.317 289.711 0 341.421 608.421
168.846 303.107 0 351 618.867
177.31 313.297 0 361.382 627
183.734 309.619 0 366.861 622
186.47 299.071 0 367.169 610.831
201.752 303.538 0 380.582 607
215.676 302.635 0 394.339 604
228.842 297.782 0 406.311 596.689
228.319 288.782 0 404.046 588
214.172 284.765 0 389.46 587
199.491 278.456 0 374.874 586
186.226 268.195 0 361.961 583.039
181.023 251.277 0 356 572.431
178.246 232.39 0 352 559.088
175.977 213.438 0 348.527 545.527
172.552 194.727 0 344 532.403
168.493 175.703 0 339 519.474
165.574 156.422 0 335.093 506.093
162.548 137.621 0 331 492.789
162.64 118.656 0 330 479.032
165.655 101.567 0 331 464.446
172.102 90.1491 0 336 452.689
163.771 80.6717 0 326.538 444.538
156.196 67.4614 0 317.345 433.345
147.07 54.9717 0 306.86 423.86
151.874 49.1129 0 311 418.459
145.228 36.2753 0 303 407.358
138.385 21.595 0 294.768 395.768
131.885 7.31922 0 286.99 383.99
124.412 -6.28214 0 278.505 372.505
116.998 -19.1044 0 270 361.027
108.867 -32.2263 0 261 349.755
103.836 -45.7951 0 255.998 338
106.517 -57.2534 0 259 326.483
111.293 -69.7627 0 263 313.141
115.662 -82.6552 0 266 299.384
119.779 -95.3906 0 269 285.626
123.792 -106.884 0 273 272.284
133.948 -110.88 0 284.578 264.422
145.74 -110.562 0 297.331 261
158.791 -105.651 0 311.917 262
168.818 -106.32 0 322 258.155
178.682 -110.783 0 331.188 250
188.403 -103.371 0 344.531 252
200.26 -97.6729 0 359.117 251
212.011 -91.5991 0 373.703 250
223.868 -86.512 0 387.874 248
219.875 -73.7078 0 391 260.459
212.513 -60.4258 0 391 275.459
204.67 -48.0435 0 390 290.047
197.576 -34.834 0 390 305.044
189.793 -22.452 0 389 319.633
182.703 -9.23411 0 389 334.633
174.925 3.14267 0 388 349.217
167.833 16.3603 0 388 364.217
162.22 28.9691 0 389.018 377.982
167.421 29.8172 0 394 376.269
171.298 18.3597 0 392 364.34
179.762 6.81898 0 394 350.169
190.65 -1.75845 0 399.537 337.463
204.041 -7.27458 0 408.73 326.27
218.149 -9.08722 0 420.304 318
232.073 -9.08984 0 432.579 311.421
246.031 -9.62372 0 444.649 304.351
260.066 -10.9012 0 456.428 296.572
272.046 -17.2358 0 464 285.295
282.508 -26.2158 0 469 272.366
290.768 -37.6367 0 471 258.194
298.328 -49.8838 0 472 243.608
305.011 -62.3391 0 472 229.438
311.875 -73.6469 0 472.64 216.36
319.236 -85.891 0 473.238 202.238
323.535 -97.859 0 471.297 189.703
331.176 -110.428 0 471.996 174.996
335.313 -123.922 0 469.168 161.168
335.645 -137.827 0 462.804 148.804
329.787 -150.217 0 451.733 140.733
322.284 -161.975 0 439.522 134
315.006 -173.91 0 427.422 127
309.492 -186.572 0 416.52 118.52
307.54 -200.715 0 408.035 107.035
310.155 -214.374 0 403.792 93.7925
316.081 -226.91 0 403 79.9492
323.545 -236.426 0 405 68.0205
323.082 -244.414 0 400.772 61.2279
313.341 -234.42 0 397 74.6653
305.484 -222.088 0 396 89.2529
298.307 -208.919 0 396 104.253
290.446 -196.596 0 395 118.836
283.266 -183.424 0 395 133.837
276.085 -170.25 0 395 148.837
268.227 -157.914 0 394 163.422
261.043 -144.727 0 394 178.422
253.22 -132.415 0 393 193.009
246.164 -119.368 0 393 208.01
235.749 -116.975 0 384.873 215.873
224.019 -125.568 0 370.234 215
212.13 -133.819 0 355.649 214
200.056 -141.779 0 341.063 213
194.725 -151.952 0 332.72 206
180.895 -158.026 0 318.135 205
170.764 -168.061 0 306.439 198.439
166.692 -181.577 0 299.367 186.367
164.87 -193.794 0 294.581 175
172.47 -199.846 0 300.319 167
160.407 -203.397 0 287.862 166.862
159.774 -216.388 0 284 154.29
156.253 -229.887 0 277.134 142.134
152.524 -243.328 0 270 130.09
149.862 -255.319 0 264.235 119.235
147.728 -267.703 0 258.871 107.871
142.973 -279.989 0 251 97.303
138.115 -293.359 0 242.729 85.7291
131.036 -305.918 0 232.536 75.5365
118.318 -311.794 0 218.708 73.2917
107.964 -318.049 0 207.052 70.0515
104.423 -331.58 0 200 57.9727
112.617 -339.636 0 205.713 48
120.423 -347.89 0 211 37.9436
119.623 -352.448 0 209 33.7725
117.432 -363.2 0 203.989 24.0107
113.177 -373.69 0 197.061 15.061
105.842 -382.042 0 187.744 9
95.1178 -389.948 0 175.283 4.28345
80.3264 -397.504 0 159 1
79.6449 -378.793 0 163.397 19.2
87.8655 -188.531 0 222.418 199.851
81.801 -261.104 0 197.158 131.895
112.324 -285.184 0 220.087 100.537
-5.04915 12.646 0 151.861 410.94
161.586 -135.178 0 306.586 232.878
247.722 -93.5386 0 406.468 230.06
127.432 -182.976 0 261.32 195.618
49.6963 -179.235 0 188.497 217.457
62.0032 -68.7641 0 212.946 320.627
114.386 -241.258 0 233.86 142.326
284.889 -105.011 0 433.92 201.91
133.371 -209.194 0 260.625 168.349
69.2937 -28.1289 0 222.394 359.242
75.5627 -119.871 0 221.899 268.749
-24.1705 67.4105 0 136.779 470.704
306.385 -131.572 0 440.11 168.305
249.607 -49.0126 0 429.173 267.959
93.5793 34.5094 0 251.883 414.403
125.3 84.8647 0 288.938 454.209
8.53501 37.8385 0 167.384 435.514
2.17482 -20.1282 0 156.203 376.245
113.796 -145.795 0 256.529 235.57
85.5433 -86.5834 0 235.437 299.924
55.6386 -144.699 0 199.546 248.849
273.099 -71.4142 0 439.635 236.523
95.518 2.20154 0 250.681 384.232
99.1799 67.0584 0 261.248 443.175
15.7045 -45.286 0 168.09 349.187
3 42 41 43
3 38 37 36
3 43 41 44
3 40 46 45
3 40 45 44
3 41 40 44
3 5 3 2
3 1 261 2
3 39 35 34
3 39 38 35
3 39 34 46
3 46 40 39
3 35 38 36
3 33 46 34
3 46 33 47
3 30 49 48
3 50 49 29
3 27 52 51
3 27 53 52
3 28 51 50
3 31 48 47
3 31 30 48
3 28 50 29
3 30 29 49
3 54 56 55
3 54 53 56
3 56 53 27
3 28 27 51
3 56 27 26
3 31 47 32
3 33 32 47
3 0 260 261
3 7 6 256
3 6 5 261
3 264 13 12
3 2 261 5
3 4 3 5
3 9 8 7
3 6 261 258
3 257 256 6
3 256 253 7
3 253 256 255
3 10 9 252
3 10 252 251
3 253 252 9
3 7 253 9
3 257 6 258
3 16 15 14
3 16 14 263
3 263 17 16
3 57 26 25
3 58 25 24
3 14 13 263
3 17 263 18
3 264 11 250
3 11 264 12
3 21 20 271
3 61 60 269
3 263 19 18
3 23 269 24
3 250 11 251
3 19 263 20
3 10 251 11
3 56 26 57
3 22 21 262
3 0 261 1
3 246 245 271
3 23 22 269
3 107 87 86
3 107 86 108
3 86 85 108
3 105 90 89
3 89 88 106
3 107 88 87
3 107 106 88
3 85 84 109
3 76 75 74
3 77 76 74
3 110 109 84
3 85 109 108
3 84 83 110
3 82 111 83
3 82 81 112
3 95 93 92
3 92 91 95
3 91 90 104
3 104 95 91
3 95 94 93
3 103 97 96
3 95 104 96
3 96 104 103
3 102 97 103
3 90 105 104
3 102 98 97
3 99 98 101
3 101 100 99
3 98 102 101
3 89 106 105
3 59 58 60
3 57 25 58
3 289 70 69
3 282 265 72
3 289 282 70
3 60 58 269
3 63 275 64
3 275 63 285
3 67 66 68
3 68 66 289
3 270 65 64
3 173 172 275
3 24 269 58
3 289 274 282
3 73 72 265
3 78 265 281
3 265 78 77
3 81 80 276
3 83 111 110
3 79 78 276
3 82 112 111
3 119 118 281
3 77 74 73
3 276 281 116
3 281 120 119
3 276 78 281
3 276 112 81
3 112 276 113
3 113 276 114
3 114 276 115
3 265 120 281
3 282 71 70
3 275 270 64
3 255 254 253
3 264 250 249
3 248 264 249
3 264 247 246
3 271 245 244
3 271 263 264
3 271 264 246
3 243 242 273
3 273 241 268
3 241 240 239
3 273 242 241
3 268 239 238
3 236 235 266
3 268 266 283
3 241 239 268
3 283 266 174
3 266 176 175
3 177 176 266
3 234 178 266
3 266 178 177
3 283 174 173
3 284 172 171
3 283 285 262
3 266 235 234
3 179 234 233
3 232 231 181
3 180 233 232
3 179 233 180
3 181 180 232
3 182 181 231
3 230 267 231
3 234 179 178
3 284 171 170
3 222 221 218
3 221 219 218
3 219 221 220
3 223 222 217
3 216 224 223
3 226 225 214
3 215 225 224
3 222 218 217
3 216 215 224
3 217 216 223
3 226 214 277
3 277 212 211
3 277 214 213
3 215 214 225
3 277 211 210
3 182 231 267
3 278 286 203
3 227 277 228
3 207 272 208
3 184 278 185
3 184 183 278
3 201 200 278
3 278 199 198
3 226 277 227
3 272 207 206
3 208 272 277
3 206 205 286
3 273 262 21
3 205 204 286
3 267 183 182
3 203 202 278
3 206 286 272
3 273 21 271
3 208 277 209
3 277 210 209
3 169 168 270
3 270 284 169
3 270 168 274
3 163 279 164
3 165 287 166
3 165 164 287
3 287 120 274
3 284 170 169
3 163 162 279
3 160 288 162
3 279 288 122
3 161 160 162
3 158 280 159
3 160 280 288
3 287 164 279
3 158 156 280
3 124 123 288
3 280 160 159
3 288 280 125
3 153 129 128
3 129 152 130
3 128 127 154
3 126 155 127
3 154 127 155
3 130 152 131
3 153 128 154
3 132 131 151
3 150 133 132
3 133 149 134
3 134 148 135
3 153 152 129
3 126 280 155
3 156 155 280
3 158 157 156
3 194 189 188
3 187 195 188
3 194 190 189
3 192 190 193
3 190 192 191
3 193 190 194
3 196 187 186
3 186 185 197
3 197 185 198
3 278 198 185
3 196 195 187
3 194 188 195
3 197 196 186
3 151 150 132
3 149 133 150
3 134 149 148
3 140 137 136
3 137 139 138
3 147 136 135
3 148 147 135
3 131 152 151
3 147 146 140
3 145 144 142
3 146 145 141
3 139 137 140
3 145 142 141
3 141 140 146
3 143 142 144
3 140 136 147
3 260 259 261
3 199 278 200
3 258 261 259
3 247 264 248
3 13 264 263
3 73 265 77
3 72 71 282
3 174 266 175
3 237 236 266
3 272 230 229
3 204 203 286
3 238 237 268
3 266 268 237
3 22 262 269
3 283 262 268
3 168 167 274
3 66 65 270
3 271 244 243
3 20 263 271
3 230 272 267
3 228 272 229
3 262 273 268
3 243 273 271
3 287 167 166
3 282 120 265
3 62 285 63
3 62 61 285
3 79 276 80
3 116 115 276
3 277 272 228
3 213 212 277
3 267 278 183
3 202 201 278
3 122 121 279
3 279 121 120
3 126 125 280
3 288 125 124
3 118 117 281
3 281 117 116
3 289 69 68
3 120 282 274
3 173 275 283
3 283 275 285
3 270 275 284
3 172 284 275
3 61 269 285
3 262 285 269
3 278 267 286
3 272 286 267
3 120 287 279
3 167 287 274
3 122 288 123
3 288 279 162
3 274 289 270
3 66 270 289
