ply
format ascii 1.0
element vertex 290
property float x
property float y
property float z
property float u
property float v
element face 317
property list uchar int vertex_indices
end_header
52.9949 -391.091 0 147.636 8.36396
42.9573 -382.638 0 139.979 19.0208
39.5003 -368.889 0 140 33.201
39.7543 -354.922 0 143.678 46.6777
50.7755 -348.703 0 155.887 50
58.7352 -359.302 0 161 37.7695
64.6029 -358.022 0 167 37.5736
68.565 -345.142 0 174 49.0883
71.0117 -331.495 0 179.719 61.7193
83.7874 -333.13 0 191.704 57
87.5373 -322.248 0 198 66.6324
89.223 -308.488 0 203 79.5613
80.6611 -302.18 0 196.239 87.7609
68.5276 -295.936 0 186 96.7624
56.6851 -289.475 0 176.097 105.903
45.4306 -281.919 0 167.026 115.974
47.1772 -269.279 0 171.803 127.803
45.1116 -260.24 0 172 137.064
48.024 -247.2 0 177.995 148.995
51.948 -233.76 0 185.066 161.066
60.252 -222.598 0 195.844 169.844
64.7392 -209.141 0 203.622 181.622
58.2396 -204.572 0 199.605 187
44.5771 -211.188 0 186.185 183.185
30.7744 -218.481 0 172.919 179
15.5499 -226.474 0 159.407 175.407
-0.677052 -233.247 0 145.818 174
-14.4843 -245.655 0 134 166.718
-19.4222 -263.081 0 130.265 153.265
-24.6203 -280.018 0 126 140.032
-30.586 -296.706 0 121 127.103
-35.5938 -313.476 0 116.83 113.83
-41.2259 -328.718 0 111 101.245
-47.1188 -343.815 0 104.809 88.8092
-54.2864 -358.235 0 97.031 77.031
-59.3406 -371.498 0 90 64.9434
-62.0871 -380.199 0 85.8385 56.8385
-70.5478 -383.18 0 77 55.3289
-69.2913 -369.63 0 80.5247 68.4753
-67.9687 -362.979 0 83 74.8438
-81.7975 -361.128 0 69.8678 79.1322
-90.0328 -369.773 0 60.2982 72
-98.5503 -377.769 0 50.554 65.554
-101.502 -369.732 0 49 73.9741
-97.4992 -357.54 0 55 85.3173
-91.1842 -345.333 0 63.2955 96.2955
-79.7324 -337.625 0 75.9327 102
-67.2502 -324.878 0 86 109.276
-64.1662 -307.064 0 88 123.448
-60.869 -289.702 0 90.4379 137.438
-58.4013 -273.001 0 92 150.963
-55.7266 -255.713 0 94 165.134
-53.3147 -239.91 0 97 178.892
-50.564 -224.961 0 101 192.235
-46.8686 -210.678 0 106.116 205.116
-41.3772 -197.743 0 113.265 217
-33.6912 -200.106 0 120.43 213.43
-19.227 -189.331 0 133.087 219.087
-5.34526 -178.064 0 145 225.052
-2.14888 -169.893 0 148.809 232
10.4779 -163.721 0 161.694 235.694
18.1904 -152.246 0 170 244.081
17.7839 -136.92 0 171 257.839
17.3567 -121.133 0 172 272.425
19.4386 -105.583 0 175 286.182
13.5108 -92.5 0 169.921 299.079
7.63445 -79.7987 0 165 312.04
-4.59772 -76.7418 0 153.031 316
-11.5185 -64.7562 0 147 328.484
-19.3505 -53.8708 0 140.001 339.999
-28.5202 -43.3676 0 131.516 351.484
-37.0402 -32.6052 0 123.737 363.263
-44.9125 -21.8541 0 116.666 375.334
-54.5177 -11.7705 0 108.181 386.819
-63.9459 -0.943768 0 99.6956 398.304
-74.5095 9.1879 0 89.7115 409
-68.3562 15.521 0 96.2175 415
-55.3361 20.1871 0 109.561 419
-52.7935 29.4334 0 113 429.49
-57.9673 41.1044 0 109 442.833
-60.9819 54.411 0 107 457.005
-64.4829 66.3712 0 104 470.762
-74.8524 71.9582 0 92.9758 480.024
-84.3305 77.7683 0 82.0762 489.924
-94.4196 81.4135 0 70.298 497.702
-103.114 87.6585 0 60.1059 507.894
-110.919 95.1176 0 50.9132 519.087
-118.602 102.928 0 42.5491 529.451
-124.39 112.884 0 36.1849 541.815
-130.119 121.566 0 29 553.839
-135.747 129.79 0 21.7498 565.25
-142.761 139.622 0 13.9716 577.028
-150.218 150.585 0 6.60748 588.393
-153.957 163.966 0 3 601.898
-151.403 174.077 0 5.65576 612
-138.826 168.188 0 18.1705 606
-125.766 174.274 0 29.8989 613.899
-115.272 184.268 0 41.129 623
-104.35 193.691 0 52.4011 632
-92.3431 200.764 0 64.6477 638.648
-83.0689 201.378 0 73.938 638.938
-90.7512 190.034 0 65.8669 627.867
-97.1984 177.655 0 59 615.711
-102.013 164.754 0 53.8459 602.846
-107.944 153.495 0 49 589.853
-105.947 147.459 0 53.4191 580
-96.9701 141.994 0 64.4886 570.511
-88.0577 136.845 0 75.5491 561
-79.0898 131.645 0 86.5804 551.42
-69.9495 125.885 0 97.4802 541.52
-60.62 120.542 0 108.537 532
-51.2761 115.197 0 119.572 522.428
-41.3172 112.593 0 131.643 515.357
-29.7192 110.701 0 144.593 510.407
-17.9846 104.841 0 156 502.475
-9.80355 94.1063 0 163 490.374
-1.65153 83.7758 0 170.514 478.486
8.23376 74.6864 0 180 467.416
17.7761 64.7528 0 188.191 455.809
26.3676 54.2463 0 195.262 443.738
37.2266 48.0257 0 206.057 435
46.4861 60.6962 0 216.526 444.526
56.4912 72.9453 0 227.602 454
66.5269 84.4214 0 238.911 462.911
76.8795 94.9439 0 250.56 471
87.7148 106.155 0 262.174 479.174
99.9126 117.606 0 274.245 486.245
105.097 134.667 0 280 498.862
108.429 153.144 0 284 512.205
111.725 171.563 0 288 525.548
115.646 188.089 0 293 538.477
120.617 204.364 0 298.995 550.995
127.842 221.757 0 306.773 562.773
135.068 239.264 0 314.551 574.551
143.734 256.395 0 323.743 585.743
151.562 273.636 0 332.229 597.229
159.759 289.499 0 341.421 608.421
167.768 302.581 0 351 618.867
176.629 312.426 0 361.382 627
182.899 308.495 0 366.861 622
185.201 297.846 0 367.169 610.831
200.437 301.629 0 380.582 607
214.341 300.163 0 394.339 604
227.298 294.773 0 406.311 596.689
226.407 285.803 0 404.046 588
212.114 282.372 0 389.46 587
197.292 276.699 0 374.874 586
183.837 267.041 0 361.961 583.039
178.214 250.415 0 356 572.431
174.95 231.726 0 352 559.088
172.209 212.948 0 348.527 545.527
168.335 194.448 0 344 532.403
163.841 175.658 0 339 519.474
160.494 156.575 0 335.093 506.093
157.054 137.972 0 331 492.789
156.747 119.125 0 330 479.032
159.363 102.092 0 331 464.446
165.538 90.5483 0 336 452.689
156.985 81.2972 0 326.538 444.538
149.144 68.355 0 317.345 433.345
139.819 56.1857 0 306.86 423.86
144.544 50.3099 0 311 418.459
137.71 37.6338 0 303 407.358
130.71 23.1892 0 294.768 395.768
124.098 9.11062 0 286.99 383.99
116.55 -4.32439 0 278.505 372.505
109.07 -17.0292 0 270 361.027
100.939 -30.0513 0 261 349.755
95.999 -43.6299 0 255.998 338
98.7413 -55.2405 0 259 326.483
103.484 -67.8632 0 263 313.141
107.793 -80.8454 0 266 299.384
111.868 -93.7408 0 269 285.626
115.939 -105.544 0 273 272.284
126.371 -109.916 0 284.578 264.422
138.368 -109.865 0 297.331 261
151.571 -105.154 0 311.917 262
161.714 -105.977 0 322 258.155
171.892 -110.613 0 331.188 250
182.559 -103.382 0 344.531 252
195.489 -97.8936 0 359.117 251
208.333 -92.0475 0 373.703 250
221.102 -87.2287 0 387.874 248
217.909 -74.2977 0 391 260.459
211.081 -60.7977 0 391 275.459
203.645 -48.1847 0 390 290.047
196.943 -34.7718 0 390 305.044
189.528 -22.1665 0 389 319.633
182.829 -8.74612 0 389 334.633
175.417 3.85387 0 388 349.217
168.717 17.2743 0 388 364.217
163.477 30.0425 0 389.018 377.982
168.701 30.7375 0 394 376.269
172.24 19.171 0 392 364.34
180.36 7.38645 0 394 350.169
190.992 -1.5071 0 399.537 337.463
204.215 -7.41421 0 408.73 326.27
218.264 -9.64052 0 420.304 318
232.188 -10.0502 0 432.579 311.421
246.132 -10.9933 0 444.649 304.351
260.131 -12.6856 0 456.428 296.572
271.929 -19.3744 0 464 285.295
282.149 -28.6638 0 469 272.366
290.171 -40.3274 0 471 258.194
297.463 -52.8047 0 472 243.608
303.77 -65.4699 0 472 229.438
310.199 -77.0034 0 472.64 216.36
317.081 -89.4872 0 473.238 202.238
320.975 -101.593 0 471.297 189.703
328.21 -114.403 0 471.996 174.996
331.915 -128.023 0 469.168 161.168
331.805 -141.932 0 462.804 148.804
325.555 -154.13 0 451.733 140.733
317.681 -165.643 0 439.522 134
310.026 -177.34 0 427.422 127
304.111 -189.821 0 416.52 118.52
301.709 -203.894 0 408.035 107.035
303.887 -217.63 0 403.792 93.7925
309.41 -230.348 0 403 79.9492
316.567 -240.098 0 405 68.0205
315.849 -248.067 0 400.772 61.2279
306.432 -237.767 0 397 74.6653
298.972 -225.191 0 396 89.2529
292.219 -211.8 0 396 104.253
284.755 -199.232 0 395 118.836
277.999 -185.838 0 395 133.837
271.242 -172.442 0 395 148.837
263.778 -159.863 0 394 163.422
257.013 -146.459 0 394 178.422
249.546 -133.912 0 393 193.009
242.775 -120.671 0 393 208.01
231.941 -117.998 0 384.873 215.873
219.049 -126.323 0 370.234 215
206.057 -134.327 0 355.649 214
192.854 -142.066 0 341.063 213
186.869 -152.198 0 332.72 206
172.772 -158.011 0 318.135 205
162.3 -167.923 0 306.439 198.439
157.814 -181.476 0 299.367 186.367
155.659 -193.717 0 294.581 175
163.091 -199.978 0 300.319 167
150.928 -203.262 0 287.862 166.862
149.908 -216.321 0 284 154.29
146.019 -229.773 0 277.134 142.134
141.932 -243.14 0 270 130.09
138.962 -255.068 0 264.235 119.235
136.513 -267.397 0 258.871 107.871
131.446 -279.561 0 251 97.303
126.249 -292.804 0 242.729 85.7291
118.852 -305.178 0 232.536 75.5365
105.988 -310.729 0 218.708 73.2917
95.4777 -316.719 0 207.052 70.0515
91.5925 -330.154 0 200 57.9727
99.5776 -338.418 0 205.713 48
107.17 -346.869 0 211 37.9436
106.254 -351.405 0 209 33.7725
103.789 -362.098 0 203.989 24.0107
99.267 -372.475 0 197.061 15.061
91.72 -380.637 0 187.744 9
80.7977 -388.265 0 175.283 4.28345
65.8181 -395.441 0 159 1
65.615 -376.719 0 163.397 19.2
78.5817 -186.845 0 222.418 199.851
70.77 -259.131 0 197.158 131.895
100.674 -283.975 0 220.087 100.537
-12.7608 15.816 0 151.861 410.94
153.956 -134.723 0 306.586 232.878
245.136 -94.9114 0 406.468 230.06
118.504 -182.009 0 261.32 195.618
40.3535 -176.906 0 188.497 217.457
54.1411 -66.3847 0 212.946 320.627
103.853 -240.112 0 233.86 142.326
282.117 -107.522 0 433.92 201.91
123.676 -208.496 0 260.625 168.349
61.469 -25.6314 0 222.394 359.242
67.4097 -117.812 0 221.899 268.749
-32.5194 70.7167 0 136.779 470.704
302.758 -134.75 0 440.11 168.305
248.544 -50.4695 0 429.173 267.959
86.0839 36.77 0 251.883 414.403
118.615 86.4014 0 288.938 454.209
0.702346 41.1966 0 167.384 435.514
-5.57771 -17.0985 0 156.203 376.245
105.53 -144.49 0 256.529 235.57
77.6353 -84.5301 0 235.437 299.924
47.1617 -142.396 0 199.546 248.849
271.641 -73.5577 0 439.635 236.523
87.7525 4.47275 0 250.681 384.232
92.1638 69.1829 0 261.248 443.175
7.89865 -42.4416 0 168.09 349.187
3 42 41 43
3 38 37 36
3 43 41 44
3 40 46 45
3 40 45 44
3 41 40 44
3 5 3 2
3 1 261 2
3 39 35 34
3 39 38 35
3 39 34 46
3 46 40 39
3 35 38 36
3 33 46 34
3 46 33 47
3 30 49 48
3 50 49 29
3 27 52 51
3 27 53 52
3 28 51 50
3 31 48 47
3 31 30 48
3 28 50 29
3 30 29 49
3 54 56 55
3 54 53 56
3 56 53 27
3 28 27 51
3 56 27 26
3 31 47 32
3 33 32 47
3 0 260 261
3 7 6 256
3 6 5 261
3 264 13 12
3 2 261 5
3 4 3 5
3 9 8 7
3 6 261 258
3 257 256 6
3 256 253 7
3 253 256 255
3 10 9 252
3 10 252 251
3 253 252 9
3 7 253 9
3 257 6 258
3 16 15 14
3 16 14 263
3 263 17 16
3 57 26 25
3 58 25 24
3 14 13 263
3 17 263 18
3 264 11 250
3 11 264 12
3 21 20 271
3 61 60 269
3 263 19 18
3 23 269 24
3 250 11 251
3 19 263 20
3 10 251 11
3 56 26 57
3 22 21 262
3 0 261 1
3 246 245 271
3 23 22 269
3 107 87 86
3 107 86 108
3 86 85 108
3 105 90 89
3 89 88 106
3 107 88 87
3 107 106 88
3 85 84 109
3 76 75 74
3 77 76 74
3 110 109 84
3 85 109 108
3 84 83 110
3 82 111 83
3 82 81 112
3 95 93 92
3 92 91 95
3 91 90 104
3 104 95 91
3 95 94 93
3 103 97 96
3 95 104 96
3 96 104 103
3 102 97 103
3 90 105 104
3 102 98 97
3 99 98 101
3 101 100 99
3 98 102 101
3 89 106 105
3 59 58 60
3 57 25 58
3 289 70 69
3 282 265 72
3 289 282 70
3 60 58 269
3 63 275 64
3 275 63 285
3 67 66 68
3 68 66 289
3 270 65 64
3 173 172 275
3 24 269 58
3 289 274 282
3 73 72 265
3 78 265 281
3 265 78 77
3 81 80 276
3 83 111 110
3 79 78 276
3 82 112 111
3 119 118 281
3 77 74 73
3 276 281 116
3 281 120 119
3 276 78 281
3 276 112 81
3 112 276 113
3 113 276 114
3 114 276 115
3 265 120 281
3 282 71 70
3 275 270 64
3 255 254 253
3 264 250 249
3 248 264 249
3 264 247 246
3 271 245 244
3 271 263 264
3 271 264 246
3 243 242 273
3 273 241 268
3 241 240 239
3 273 242 241
3 268 239 238
3 236 235 266
3 268 266 283
3 241 239 268
3 283 266 174
3 266 176 175
3 177 176 266
3 234 178 266
3 266 178 177
3 283 174 173
3 284 172 171
3 283 285 262
3 266 235 234
3 179 234 233
3 232 231 181
3 180 233 232
3 179 233 180
3 181 180 232
3 182 181 231
3 230 267 231
3 234 179 178
3 284 171 170
3 222 221 218
3 221 219 218
3 219 221 220
3 223 222 217
3 216 224 223
3 226 225 214
3 215 225 224
3 222 218 217
3 216 215 224
3 217 216 223
3 226 214 277
3 277 212 211
3 277 214 213
3 215 214 225
3 277 211 210
3 182 231 267
3 278 286 203
3 227 277 228
3 207 272 208
3 184 278 185
3 184 183 278
3 201 200 278
3 278 199 198
3 226 277 227
3 272 207 206
3 208 272 277
3 206 205 286
3 273 262 21
3 205 204 286
3 267 183 182
3 203 202 278
3 206 286 272
3 273 21 271
3 208 277 209
3 277 210 209
3 169 168 270
3 270 284 169
3 270 168 274
3 163 279 164
3 165 287 166
3 165 164 287
3 287 120 274
3 284 170 169
3 163 162 279
3 160 288 162
3 279 288 122
3 161 160 162
3 158 280 159
3 160 280 288
3 287 164 279
3 158 156 280
3 124 123 288
3 280 160 159
3 288 280 125
3 153 129 128
3 129 152 130
3 128 127 154
3 126 155 127
3 154 127 155
3 130 152 131
3 153 128 154
3 132 131 151
3 150 133 132
3 133 149 134
3 134 148 135
3 153 152 129
3 126 280 155
3 156 155 280
3 158 157 156
3 194 189 188
3 187 195 188
3 194 190 189
3 192 190 193
3 190 192 191
3 193 190 194
3 196 187 186
3 186 185 197
3 197 185 198
3 278 198 185
3 196 195 187
3 194 188 195
3 197 196 186
3 151 150 132
3 149 133 150
3 134 149 148
3 140 137 136
3 137 139 138
3 147 136 135
3 148 147 135
3 131 152 151
3 147 146 140
3 145 144 142
3 146 145 141
3 139 137 140
3 145 142 141
3 141 140 146
3 143 142 144
3 140 136 147
3 260 259 261
3 199 278 200
3 258 261 259
3 247 264 248
3 13 264 263
3 73 265 77
3 72 71 282
3 174 266 175
3 237 236 266
3 272 230 229
3 204 203 286
3 238 237 268
3 266 268 237
3 22 262 269
3 283 262 268
3 168 167 274
3 66 65 270
3 271 244 243
3 20 263 271
3 230 272 267
3 228 272 229
3 262 273 268
3 243 273 271
3 287 167 166
3 282 120 265
3 62 285 63
3 62 61 285
3 79 276 80
3 116 115 276
3 277 272 228
3 213 212 277
3 267 278 183
3 202 201 278
3 122 121 279
3 279 121 120
3 126 125 280
3 288 125 124
3 118 117 281
3 281 117 116
3 289 69 68
3 120 282 274
3 173 275 283
3 283 275 285
3 270 275 284
3 172 284 275
3 61 269 285
3 262 285 269
3 278 267 286
3 272 286 267
3 120 287 279
3 167 287 274
3 122 288 123
3 288 279 162
3 274 289 270
3 66 270 289
