ply
format ascii 1.0
element vertex 290
property float x
property float y
property float z
property float u
property float v
element face 317
property list uchar int vertex_indices
end_header
-4.98305 -339.536 0 147.636 8.36396
-13.5379 -329.584 0 139.979 19.0208
-14.7486 -315.458 0 140 33.201
-12.2604 -301.712 0 143.678 46.6777
-0.385723 -297.338 0 155.887 50
5.7737 -309.076 0 161 37.7695
11.7706 -308.751 0 167 37.5736
17.7441 -296.673 0 174 49.0883
22.3449 -283.594 0 179.719 61.7193
34.6939 -287.253 0 191.704 57
40.1366 -277.112 0 198 66.6324
44.0022 -263.799 0 203 79.5613
36.5606 -256.207 0 196.239 87.7609
25.5852 -248.113 0 186 96.7624
14.9314 -239.853 0 176.097 105.903
5.02761 -230.599 0 167.026 115.974
8.76942 -218.401 0 171.803 127.803
8.17195 -209.152 0 172 137.064
13.1246 -196.748 0 177.995 148.995
19.1392 -184.111 0 185.066 161.066
29.1248 -174.434 0 195.844 169.844
35.8108 -161.977 0 203.622 181.622
30.9331 -156.803 0 199.605 187
17.3806 -161.579 0 186.185 183.185
3.85878 -166.818 0 172.919 179
-10.3616 -171.879 0 159.407 175.407
-25.017 -175.072 0 145.818 174
-37.6747 -184.062 0 134 166.718
-41.9472 -198.828 0 130.265 153.265
-46.6447 -213.291 0 126 140.032
-52.0894 -227.469 0 121 127.103
-56.6507 -241.899 0 116.83 113.83
-62.4739 -255.387 0 111 101.245
-68.6203 -268.734 0 104.809 88.8092
-76.236 -281.432 0 97.031 77.031
-82.5811 -293.975 0 90 64.9434
-86.246 -302.321 0 85.8385 56.8385
-94.9781 -304.367 0 77 55.3289
-92.2594 -291.031 0 80.5247 68.4753
-90.1924 -284.537 0 83 74.8438
-103.622 -281.106 0 69.8678 79.1322
-112.744 -288.805 0 60.2982 72
-122.078 -295.831 0 50.554 65.554
-124.141 -287.521 0 49 73.9741
-118.84 -275.835 0 55 85.3173
-111.231 -264.377 0 63.2955 96.2955
-98.9797 -257.93 0 75.9327 102
-87.9181 -248.829 0 86 109.276
-85.4324 -233.452 0 88 123.448
-82.5945 -218.347 0 90.4379 137.438
-80.6204 -203.779 0 92 150.963
-78.2927 -188.577 0 94 165.134
-75.4442 -174.118 0 97 178.892
-71.8451 -160.2 0 101 192.235
-67.1929 -146.81 0 106.116 205.116
-60.6026 -134.533 0 113.265 217
-53.2352 -137.692 0 120.43 213.43
-39.8115 -130.317 0 133.087 219.087
-27.0652 -122.575 0 145 225.052
-23.435 -115.192 0 148.809 232
-10.5876 -110.634 0 161.694 235.694
-2.40076 -101.164 0 170 244.081
-1.84036 -86.8475 0 171 257.839
-1.30573 -71.8407 0 172 272.425
1.40023 -57.4857 0 175 286.182
-3.99036 -44.5527 0 169.921 299.079
-9.27704 -31.703 0 165 312.04
-21.3551 -28.0761 0 153.031 316
-27.7208 -15.7716 0 147 328.484
-35.0435 -4.49048 0 140.001 339.999
-43.8131 6.63767 0 131.516 351.484
-51.8981 18.0535 0 123.737 363.263
-59.3034 29.6722 0 116.666 375.334
-68.2243 40.6877 0 108.181 386.819
-77.0629 51.9399 0 99.6956 398.304
-87.274 62.4214 0 89.7115 409
-80.9027 68.5542 0 96.2175 415
-67.6755 72.8185 0 109.561 419
-64.5858 82.9399 0 113 429.49
-69.0171 95.7545 0 109 442.833
-71.3942 109.657 0 107 457.005
-74.6039 122.844 0 104 470.762
-85.4356 130.882 0 92.9758 480.024
-95.9022 139.396 0 82.0762 489.924
-107.155 145.769 0 70.298 497.702
-116.885 154.619 0 60.1059 507.894
-125.652 164.537 0 50.9132 519.087
-133.818 174.025 0 42.5491 529.451
-140.024 185.566 0 36.1849 541.815
-146.764 196.432 0 29 553.839
-153.519 206.721 0 21.7498 565.25
-161.087 217.786 0 13.9716 577.028
-168.537 228.956 0 6.60748 588.393
-172.274 242.392 0 3 601.898
-169.72 252.514 0 5.65576 612
-157.142 246.637 0 18.1705 606
-145.014 253.969 0 29.8989 613.899
-134.066 263.426 0 41.129 623
-122.953 272.622 0 52.4011 632
-110.817 279.471 0 64.6477 638.648
-101.533 279.913 0 73.938 638.938
-109.422 268.712 0 65.8669 627.867
-116.091 256.448 0 59 615.711
-121.07 243.547 0 53.8459 602.846
-126.197 231.122 0 49 589.853
-122.508 222.57 0 53.4191 580
-112.069 214.458 0 64.4886 570.511
-101.668 206.435 0 75.5491 561
-91.2713 198.348 0 86.5804 551.42
-80.9098 189.856 0 97.4802 541.52
-70.3831 181.755 0 108.537 532
-59.8684 173.62 0 119.572 522.428
-48.4523 168.071 0 131.643 515.357
-35.8976 164.167 0 144.593 510.407
-24.3546 156.923 0 156 502.475
-16.9499 145.269 0 163 490.374
-9.20936 133.921 0 170.514 478.486
0.445546 123.538 0 180 467.416
9.11848 112.49 0 188.191 455.809
16.7306 100.944 0 195.262 443.738
27.578 93.0898 0 206.057 435
37.6067 103.695 0 216.526 444.526
48.2897 114.131 0 227.602 454
59.136 123.955 0 238.911 462.911
70.3171 132.936 0 250.56 471
81.6422 142.187 0 262.174 479.174
93.7532 150.75 0 274.245 486.245
99.2717 164.835 0 280 498.862
103.008 179.869 0 284 512.205
106.726 194.885 0 288 525.548
111.29 209.033 0 293 538.477
116.872 222.835 0 298.995 550.995
124.43 236.511 0 306.773 562.773
131.986 250.227 0 314.551 574.551
140.968 263.444 0 323.743 585.743
149.184 276.894 0 332.229 597.229
157.965 289.721 0 341.421 608.421
166.909 301.18 0 351 618.867
176.691 310.052 0 361.382 627
182.52 305.475 0 366.861 622
183.66 294.449 0 367.169 610.831
197.861 293.257 0 380.582 607
211.723 290.971 0 394.339 604
224.152 284.463 0 406.311 596.689
222.467 275.631 0 404.046 588
207.962 273.609 0 389.46 587
193.238 270.873 0 374.874 586
180.063 265.558 0 361.961 583.039
174.235 252.92 0 356 572.431
170.538 237.789 0 352 559.088
167.367 222.494 0 348.527 545.527
163.103 207.574 0 344 532.403
158.303 192.692 0 339 519.474
154.617 177.422 0 335.093 506.093
150.778 162.357 0 331 492.789
150.047 146.937 0 330 479.032
151.666 131.524 0 331 464.446
157.154 119.867 0 336 452.689
148.052 111.259 0 326.538 444.538
139.369 99.3837 0 317.345 433.345
129.291 88.901 0 306.86 423.86
133.642 83.3576 0 311 418.459
126.074 71.6694 0 303 407.358
118.262 59.0632 0 294.768 395.768
110.887 46.4579 0 286.99 383.99
102.732 34.2649 0 278.505 372.505
94.6045 22.3203 0 270 361.027
85.9004 10.4104 0 261 349.755
80.8951 -1.9668 0 255.998 338
83.8219 -13.4868 0 259 326.483
88.1281 -26.5744 0 263 313.141
91.636 -40.0797 0 266 299.384
95.0602 -53.5584 0 269 285.626
99.1672 -66.3591 0 273 272.284
110.507 -72.9529 0 284.578 264.422
123.138 -75.1358 0 297.331 261
137.386 -72.8192 0 311.917 262
147.608 -75.6324 0 322 258.155
157.283 -82.6084 0 331.188 250
169.99 -78.7205 0 344.531 252
184.336 -77.4785 0 359.117 251
198.684 -76.1275 0 373.703 250
212.744 -75.8103 0 387.874 248
213.899 -62.8375 0 391 260.459
211.665 -47.9483 0 391 275.459
208.532 -33.6544 0 390 290.047
206.339 -18.8197 0 390 305.044
203.214 -4.53244 0 389 319.633
201.025 10.3064 0 389 334.633
197.902 24.5879 0 388 349.217
195.715 39.428 0 388 364.217
194.709 53.1932 0 389.018 377.982
199.89 52.2277 0 394 376.269
199.653 40.1339 0 392 364.34
203.699 26.406 0 394 350.169
211.035 14.6455 0 399.537 337.463
221.763 4.91651 0 408.73 326.27
234.423 -1.57193 0 420.304 318
247.526 -6.28629 0 432.579 311.421
260.494 -11.5164 0 444.649 304.351
273.279 -17.4839 0 456.428 296.572
282.415 -27.5235 0 464 285.295
289.247 -39.562 0 469 272.366
293.275 -53.2321 0 471 258.194
296.371 -67.4526 0 472 243.608
298.445 -81.4576 0 472 229.438
301.002 -94.333 0 472.64 216.36
303.679 -108.253 0 473.238 202.238
303.612 -120.945 0 471.297 189.703
306.485 -135.38 0 471.996 174.996
305.742 -149.475 0 469.168 161.168
301.285 -162.648 0 462.804 148.804
291.533 -172.275 0 451.733 140.733
280.456 -180.747 0 439.522 134
269.529 -189.464 0 427.422 127
260.006 -199.469 0 416.52 118.52
253.321 -212.083 0 408.035 107.035
251.094 -225.811 0 403.792 93.7925
252.361 -239.619 0 403 79.9492
256.107 -251.119 0 405 68.0205
252.933 -258.463 0 400.772 61.2279
247.211 -245.733 0 397 74.6653
244.059 -231.455 0 396 89.2529
241.835 -216.624 0 396 104.253
238.677 -202.352 0 395 118.836
236.451 -187.517 0 395 133.837
234.224 -172.683 0 395 148.837
231.071 -158.406 0 394 163.422
228.843 -143.568 0 394 178.422
225.69 -129.301 0 393 193.009
223.458 -114.514 0 393 208.01
214.228 -108.172 0 384.873 215.873
199.819 -111.536 0 370.234 215
185.452 -114.89 0 355.649 214
171.046 -118.161 0 341.063 213
163.385 -126.269 0 332.72 206
148.81 -128.879 0 318.135 205
137.447 -136.582 0 306.439 198.439
131.239 -149.216 0 299.367 186.367
127.344 -160.948 0 294.581 175
133.723 -168.391 0 300.319 167
121.279 -169.623 0 287.862 166.862
118.401 -182.435 0 284 154.29
112.54 -195.117 0 277.134 142.134
106.435 -207.704 0 270 130.09
101.616 -219.011 0 264.235 119.235
97.2402 -230.793 0 258.871 107.871
90.3017 -241.996 0 251 97.303
83.055 -254.237 0 242.729 85.7291
73.7763 -265.269 0 232.536 75.5365
60.1922 -268.691 0 218.708 73.2917
48.8597 -272.924 0 207.052 70.0515
42.8747 -285.566 0 200 57.9727
49.4329 -295.002 0 205.713 48
55.5743 -304.56 0 211 37.9436
53.9437 -308.891 0 209 33.7725
49.7976 -319.051 0 203.989 24.0107
43.6722 -328.57 0 197.061 15.061
34.9159 -335.417 0 187.744 9
22.9134 -341.198 0 175.283 4.28345
6.97823 -345.882 0 159 1
9.77525 -327.369 0 163.397 19.2
52.9968 -142.191 0 222.418 199.851
33.6796 -212.147 0 197.158 131.895
59.2231 -241.43 0 220.087 100.537
-25.2315 66.1028 0 151.861 410.94
134.645 -102.318 0 306.586 232.878
233.575 -90.7254 0 406.468 230.06
92.4803 -143.304 0 261.32 195.618
17.389 -127.161 0 188.497 217.457
38.2267 -21.3296 0 212.946 320.627
69.3609 -198.624 0 233.86 142.326
264.842 -114.418 0 433.92 201.91
93.8585 -170.457 0 260.625 168.349
46.8735 18.0281 0 222.394 359.242
48.7684 -73.0486 0 221.899 268.749
-42.07 124.3 0 136.779 470.704
275.946 -146.735 0 440.11 168.305
250.507 -49.7813 0 429.173 267.959
74.6277 75.7549 0 251.883 414.403
110.073 119.104 0 288.938 454.209
-10.4687 91.0055 0 167.384 435.514
-19.7872 31.9786 0 156.203 376.245
84.7824 -103.983 0 256.529 235.57
61.1491 -41.0877 0 235.437 299.924
27.0488 -94.6122 0 199.546 248.849
265.387 -79.1898 0 439.635 236.523
74.4837 44.8606 0 250.681 384.232
82.7864 105.808 0 261.248 443.175
-7.24114 5.53372 0 168.09 349.187
3 42 41 43
3 38 37 36
3 43 41 44
3 40 46 45
3 40 45 44
3 41 40 44
3 5 3 2
3 1 261 2
3 39 35 34
3 39 38 35
3 39 34 46
3 46 40 39
3 35 38 36
3 33 46 34
3 46 33 47
3 30 49 48
3 50 49 29
3 27 52 51
3 27 53 52
3 28 51 50
3 31 48 47
3 31 30 48
3 28 50 29
3 30 29 49
3 54 56 55
3 54 53 56
3 56 53 27
3 28 27 51
3 56 27 26
3 31 47 32
3 33 32 47
3 0 260 261
3 7 6 256
3 6 5 261
3 264 13 12
3 2 261 5
3 4 3 5
3 9 8 7
3 6 261 258
3 257 256 6
3 256 253 7
3 253 256 255
3 10 9 252
3 10 252 251
3 253 252 9
3 7 253 9
3 257 6 258
3 16 15 14
3 16 14 263
3 263 17 16
3 57 26 25
3 58 25 24
3 14 13 263
3 17 263 18
3 264 11 250
3 11 264 12
3 21 20 271
3 61 60 269
3 263 19 18
3 23 269 24
3 250 11 251
3 19 263 20
3 10 251 11
3 56 26 57
3 22 21 262
3 0 261 1
3 246 245 271
3 23 22 269
3 107 87 86
3 107 86 108
3 86 85 108
3 105 90 89
3 89 88 106
3 107 88 87
3 107 106 88
3 85 84 109
3 76 75 74
3 77 76 74
3 110 109 84
3 85 109 108
3 84 83 110
3 82 111 83
3 82 81 112
3 95 93 92
3 92 91 95
3 91 90 104
3 104 95 91
3 95 94 93
3 103 97 96
3 95 104 96
3 96 104 103
3 102 97 103
3 90 105 104
3 102 98 97
3 99 98 101
3 101 100 99
3 98 102 101
3 89 106 105
3 59 58 60
3 57 25 58
3 289 70 69
3 282 265 72
3 289 282 70
3 60 58 269
3 63 275 64
3 275 63 285
3 67 66 68
3 68 66 289
3 270 65 64
3 173 172 275
3 24 269 58
3 289 274 282
3 73 72 265
3 78 265 281
3 265 78 77
3 81 80 276
3 83 111 110
3 79 78 276
3 82 112 111
3 119 118 281
3 77 74 73
3 276 281 116
3 281 120 119
3 276 78 281
3 276 112 81
3 112 276 113
3 113 276 114
3 114 276 115
3 265 120 281
3 282 71 70
3 275 270 64
3 255 254 253
3 264 250 249
3 248 264 249
3 264 247 246
3 271 245 244
3 271 263 264
3 271 264 246
3 243 242 273
3 273 241 268
3 241 240 239
3 273 242 241
3 268 239 238
3 236 235 266
3 268 266 283
3 241 239 268
3 283 266 174
3 266 176 175
3 177 176 266
3 234 178 266
3 266 178 177
3 283 174 173
3 284 172 171
3 283 285 262
3 266 235 234
3 179 234 233
3 232 231 181
3 180 233 232
3 179 233 180
3 181 180 232
3 182 181 231
3 230 267 231
3 234 179 178
3 284 171 170
3 222 221 218
3 221 219 218
3 219 221 220
3 223 222 217
3 216 224 223
3 226 225 214
3 215 225 224
3 222 218 217
3 216 215 224
3 217 216 223
3 226 214 277
3 277 212 211
3 277 214 213
3 215 214 225
3 277 211 210
3 182 231 267
3 278 286 203
3 227 277 228
3 207 272 208
3 184 278 185
3 184 183 278
3 201 200 278
3 278 199 198
3 226 277 227
3 272 207 206
3 208 272 277
3 206 205 286
3 273 262 21
3 205 204 286
3 267 183 182
3 203 202 278
3 206 286 272
3 273 21 271
3 208 277 209
3 277 210 209
3 169 168 270
3 270 284 169
3 270 168 274
3 163 279 164
3 165 287 166
3 165 164 287
3 287 120 274
3 284 170 169
3 163 162 279
3 160 288 162
3 279 288 122
3 161 160 162
3 158 280 159
3 160 280 288
3 287 164 279
3 158 156 280
3 124 123 288
3 280 160 159
3 288 280 125
3 153 129 128
3 129 152 130
3 128 127 154
3 126 155 127
3 154 127 155
3 130 152 131
3 153 128 154
3 132 131 151
3 150 133 132
3 133 149 134
3 134 148 135
3 153 152 129
3 126 280 155
3 156 155 280
3 158 157 156
3 194 189 188
3 187 195 188
3 194 190 189
3 192 190 193
3 190 192 191
3 193 190 194
3 196 187 186
3 186 185 197
3 197 185 198
3 278 198 185
3 196 195 187
3 194 188 195
3 197 196 186
3 151 150 132
3 149 133 150
3 134 149 148
3 140 137 136
3 137 139 138
3 147 136 135
3 148 147 135
3 131 152 151
3 147 146 140
3 145 144 142
3 146 145 141
3 139 137 140
3 145 142 141
3 141 140 146
3 143 142 144
3 140 136 147
3 260 259 261
3 199 278 200
3 258 261 259
3 247 264 248
3 13 264 263
3 73 265 77
3 72 71 282
3 174 266 175
3 237 236 266
3 272 230 229
3 204 203 286
3 238 237 268
3 266 268 237
3 22 262 269
3 283 262 268
3 168 167 274
3 66 65 270
3 271 244 243
3 20 263 271
3 230 272 267
3 228 272 229
3 262 273 268
3 243 273 271
3 287 167 166
3 282 120 265
3 62 285 63
3 62 61 285
3 79 276 80
3 116 115 276
3 277 272 228
3 213 212 277
3 267 278 183
3 202 201 278
3 122 121 279
3 279 121 120
3 126 125 280
3 288 125 124
3 118 117 281
3 281 117 116
3 289 69 68
3 120 282 274
3 173 275 283
3 283 275 285
3 270 275 284
3 172 284 275
3 61 269 285
3 262 285 269
3 278 267 286
3 272 286 267
3 120 287 279
3 167 287 274
3 122 288 123
3 288 279 162
3 274 289 270
3 66 270 289
