ply
format ascii 1.0
element vertex 290
property float x
property float y
property float z
property float u
property float v
element face 317
property list uchar int vertex_indices
end_header
-5.07743 -339.484 0 147.636 8.36396
-13.6416 -329.541 0 139.979 19.0208
-14.8655 -315.415 0 140 33.201
-12.3901 -301.668 0 143.678 46.6777
-0.519515 -297.283 0 155.887 50
5.65084 -309.014 0 161 37.7695
11.6474 -308.684 0 167 37.5736
17.6097 -296.6 0 174 49.0883
22.1982 -283.517 0 179.719 61.7193
34.5506 -287.165 0 191.704 57
39.9839 -277.019 0 198 66.6324
43.837 -263.702 0 203 79.5613
36.3883 -256.117 0 196.239 87.7609
25.4051 -248.034 0 186 96.7624
14.7435 -239.783 0 176.097 105.903
4.83106 -230.538 0 167.026 115.974
8.56148 -218.337 0 171.803 127.803
7.95537 -209.089 0 172 137.064
12.8965 -196.68 0 177.995 148.995
18.8992 -184.037 0 185.066 161.066
28.8754 -174.35 0 195.844 169.844
35.5464 -161.888 0 203.622 181.622
30.6445 -156.719 0 199.605 187
17.0741 -161.506 0 186.185 183.185
3.53272 -166.758 0 172.919 179
-10.7221 -171.842 0 159.407 175.407
-25.4188 -175.064 0 145.818 174
-38.1218 -184.085 0 134 166.718
-42.4443 -198.885 0 130.265 153.265
-47.1885 -213.378 0 126 140.032
-52.6804 -227.585 0 121 127.103
-57.2891 -242.043 0 116.83 113.83
-63.1459 -255.546 0 111 101.245
-69.325 -268.907 0 104.809 88.8092
-76.9686 -281.616 0 97.031 77.031
-83.3242 -294.156 0 90 64.9434
-86.9948 -302.5 0 85.8385 56.8385
-95.7282 -304.54 0 77 55.3289
-93.0007 -291.206 0 80.5247 68.4753
-90.9299 -284.714 0 83 74.8438
-104.36 -281.275 0 69.8678 79.1322
-113.486 -288.968 0 60.2982 72
-122.825 -295.988 0 50.554 65.554
-124.883 -287.676 0 49 73.9741
-119.573 -275.994 0 55 85.3173
-111.957 -264.541 0 63.2955 96.2955
-99.7022 -258.103 0 75.9327 102
-88.5861 -248.971 0 86 109.276
-86.0471 -233.564 0 88 123.448
-83.1607 -218.431 0 90.4379 137.438
-81.1399 -203.834 0 92 150.963
-78.7677 -188.606 0 94 165.134
-75.8931 -174.132 0 97 178.892
-72.278 -160.207 0 101 192.235
-67.6147 -146.812 0 106.116 205.116
-61.0194 -134.536 0 113.265 217
-53.6514 -137.696 0 120.43 213.43
-40.1893 -130.292 0 133.087 219.087
-27.4024 -122.52 0 145 225.052
-23.7664 -115.132 0 148.809 232
-10.9138 -110.57 0 161.694 235.694
-2.72113 -101.088 0 170 244.081
-2.16188 -86.7628 0 171 257.839
-1.63229 -71.7501 0 172 272.425
1.06531 -57.3846 0 175 286.182
-4.33208 -44.4472 0 169.921 299.079
-9.62415 -31.5962 0 165 312.04
-21.7035 -27.9715 0 153.031 316
-28.0721 -15.668 0 147 328.484
-35.3982 -4.38907 0 140.001 339.999
-44.1706 6.73549 0 131.516 351.484
-52.2589 18.1466 0 123.737 363.263
-59.6678 29.7582 0 116.666 375.334
-68.5942 40.764 0 108.181 386.819
-77.4395 52.0107 0 99.6956 398.304
-87.655 62.4879 0 89.7115 409
-81.2863 68.6232 0 96.2175 415
-68.0614 72.8925 0 109.561 419
-64.9802 83.0061 0 113 429.49
-69.4242 95.8081 0 109 442.833
-71.8141 109.702 0 107 457.005
-75.0387 122.876 0 104 470.762
-85.8844 130.888 0 92.9758 480.024
-96.3673 139.376 0 82.0762 489.924
-107.634 145.722 0 70.298 497.702
-117.383 154.546 0 60.1059 507.894
-126.171 164.441 0 50.9132 519.087
-134.357 173.907 0 42.5491 529.451
-140.587 185.43 0 36.1849 541.815
-147.352 196.275 0 29 553.839
-154.133 206.543 0 21.7498 565.25
-161.727 217.587 0 13.9716 577.028
-169.202 228.741 0 6.60748 588.393
-172.966 242.168 0 3 601.898
-170.433 252.295 0 5.65576 612
-157.844 246.444 0 18.1705 606
-145.736 253.796 0 29.8989 613.899
-134.81 263.279 0 41.129 623
-123.717 272.5 0 52.4011 632
-111.597 279.377 0 64.6477 638.648
-102.314 279.84 0 73.938 638.938
-110.177 268.621 0 65.8669 627.867
-116.819 256.341 0 59 615.711
-121.768 243.429 0 53.8459 602.846
-126.864 230.997 0 49 589.853
-123.153 222.46 0 53.4191 580
-112.692 214.375 0 64.4886 570.511
-102.269 206.38 0 75.5491 561
-91.852 198.319 0 86.5804 551.42
-81.4695 189.852 0 97.4802 541.52
-70.9229 181.775 0 108.537 532
-60.3887 173.663 0 119.572 522.428
-48.9579 168.138 0 131.643 515.357
-36.3952 164.254 0 144.593 510.407
-24.8391 157.026 0 156 502.475
-17.4152 145.381 0 163 490.374
-9.6575 134.038 0 170.514 478.486
0.0103461 123.663 0 180 467.416
8.69745 112.622 0 188.191 455.809
16.3232 101.08 0 195.262 443.738
27.1809 93.2306 0 206.057 435
37.2136 103.853 0 216.526 444.526
47.9003 114.303 0 227.602 454
58.7498 124.138 0 238.911 462.911
69.9343 133.126 0 250.56 471
81.2667 142.387 0 262.174 479.174
93.3903 150.967 0 274.245 486.245
98.923 165.074 0 280 498.862
102.674 180.134 0 284 512.205
106.408 195.175 0 288 525.548
110.986 209.339 0 293 538.477
116.582 223.155 0 298.995 550.995
124.157 236.852 0 306.773 562.773
131.73 250.589 0 314.551 574.551
140.729 263.827 0 323.743 585.743
148.963 277.296 0 332.229 597.229
157.762 290.135 0 341.421 608.421
166.72 301.592 0 351 618.867
176.511 310.454 0 361.382 627
182.335 305.871 0 366.861 622
183.465 294.846 0 367.169 610.831
197.671 293.668 0 380.582 607
211.529 291.361 0 394.339 604
223.95 284.837 0 406.311 596.689
222.253 276.007 0 404.046 588
207.747 274.002 0 389.46 587
193.018 271.271 0 374.874 586
179.833 265.945 0 361.961 583.039
173.989 253.284 0 356 572.431
170.273 238.13 0 352 559.088
167.084 222.812 0 348.527 545.527
162.803 207.869 0 344 532.403
157.986 192.962 0 339 519.474
154.284 177.666 0 335.093 506.093
150.43 162.578 0 331 492.789
149.685 147.131 0 330 479.032
151.297 131.707 0 331 464.446
156.778 120.046 0 336 452.689
147.672 111.443 0 326.538 444.538
138.986 99.5712 0 317.345 433.345
128.908 89.0878 0 306.86 423.86
133.259 83.5407 0 311 418.459
125.69 71.8507 0 303 407.358
117.881 59.2377 0 294.768 395.768
110.509 46.6273 0 286.99 383.99
102.358 34.4299 0 278.505 372.505
94.2339 22.4835 0 270 361.027
85.5362 10.5678 0 261 349.755
80.5364 -1.81941 0 255.998 338
83.4648 -13.3435 0 259 326.483
87.7751 -26.4289 0 263 313.141
91.2901 -39.9308 0 266 299.384
94.7209 -53.4078 0 269 285.626
98.831 -66.207 0 273 272.284
110.172 -72.788 0 284.578 264.422
122.804 -74.9542 0 297.331 261
137.046 -72.6154 0 311.917 262
147.272 -75.4102 0 322 258.155
156.968 -82.3659 0 331.188 250
169.69 -78.4464 0 344.531 252
184.065 -77.1636 0 359.117 251
198.444 -75.7689 0 373.703 250
212.528 -75.4079 0 387.874 248
213.658 -62.4301 0 391 260.459
211.383 -47.5479 0 391 275.459
208.208 -33.2638 0 390 290.047
205.968 -18.436 0 390 305.044
202.8 -4.1584 0 389 319.633
200.565 10.6736 0 389 334.633
197.398 24.9454 0 388 349.217
195.165 39.7787 0 388 364.217
194.117 53.5407 0 389.018 377.982
199.3 52.5912 0 394 376.269
199.101 40.4967 0 392 364.34
203.19 26.7814 0 394 350.169
210.562 15.0436 0 399.537 337.463
221.32 5.34773 0 408.73 326.27
233.999 -1.10164 0 420.304 318
247.117 -5.77568 0 432.579 311.421
260.102 -10.966 0 444.649 304.351
272.904 -16.8941 0 456.428 296.572
282.072 -26.9055 0 464 285.295
288.942 -38.9229 0 469 272.366
293.015 -52.5802 0 471 258.194
296.159 -66.7909 0 472 243.608
298.275 -80.79 0 472 229.438
300.866 -93.6589 0 472.64 216.36
303.581 -107.572 0 473.238 202.238
303.552 -120.264 0 471.297 189.703
306.467 -134.691 0 471.996 174.996
305.767 -148.788 0 469.168 161.168
301.35 -161.974 0 462.804 148.804
291.628 -171.631 0 451.733 140.733
280.575 -180.136 0 439.522 134
269.675 -188.886 0 427.422 127
260.183 -198.92 0 416.52 118.52
253.536 -211.555 0 408.035 107.035
251.35 -225.289 0 403.792 93.7925
252.659 -239.093 0 403 79.9492
256.44 -250.581 0 405 68.0205
253.287 -257.935 0 400.772 61.2279
247.528 -245.223 0 397 74.6653
244.332 -230.954 0 396 89.2529
242.063 -216.129 0 396 104.253
238.862 -201.867 0 395 118.836
236.591 -187.039 0 395 133.837
234.319 -172.212 0 395 148.837
231.123 -157.945 0 394 163.422
228.85 -143.114 0 394 178.422
225.652 -128.856 0 393 193.009
223.369 -114.077 0 393 208.01
214.095 -107.767 0 384.873 215.873
199.652 -111.178 0 370.234 215
185.251 -114.577 0 355.649 214
170.809 -117.89 0 341.063 213
163.139 -126.019 0 332.72 206
148.556 -128.658 0 318.135 205
137.189 -136.382 0 306.439 198.439
130.984 -149.028 0 299.367 186.367
127.097 -160.766 0 294.581 175
133.481 -168.203 0 300.319 167
121.037 -169.449 0 287.862 166.862
118.165 -182.266 0 284 154.29
112.313 -194.955 0 277.134 142.134
106.218 -207.548 0 270 130.09
101.409 -218.86 0 264.235 119.235
97.0443 -230.646 0 258.871 107.871
90.1162 -241.855 0 251 97.303
82.8809 -254.103 0 242.729 85.7291
73.6125 -265.144 0 232.536 75.5365
60.0316 -268.579 0 218.708 73.2917
48.703 -272.823 0 207.052 70.0515
42.7299 -285.47 0 200 57.9727
49.2969 -294.9 0 205.713 48
55.4472 -304.452 0 211 37.9436
53.8207 -308.785 0 209 33.7725
49.6841 -318.948 0 203.989 24.0107
43.5675 -328.473 0 197.061 15.061
34.8176 -335.328 0 187.744 9
22.8205 -341.12 0 175.283 4.28345
6.88978 -345.82 0 159 1
9.6695 -327.304 0 163.397 19.2
52.7122 -142.087 0 222.418 199.851
33.4658 -212.06 0 197.158 131.895
59.037 -241.319 0 220.087 100.537
-25.6138 66.2039 0 151.861 410.94
134.352 -102.12 0 306.586 232.878
233.415 -90.2589 0 406.468 230.06
92.2158 -143.16 0 261.32 195.618
17.0729 -127.088 0 188.497 217.457
37.8764 -21.2083 0 212.946 320.627
69.1348 -198.503 0 233.86 142.326
264.762 -113.855 0 433.92 201.91
93.6089 -170.314 0 260.625 168.349
46.5092 18.1668 0 222.394 359.242
48.441 -72.935 0 221.899 268.749
-42.5049 124.378 0 136.779 470.704
275.963 -146.138 0 440.11 168.305
250.232 -49.2613 0 429.173 267.959
74.246 75.9282 0 251.883 414.403
109.696 119.304 0 288.938 454.209
-10.8676 91.1175 0 167.384 435.514
-20.1534 32.0854 0 156.203 376.245
84.4786 -103.848 0 256.529 235.57
60.8048 -40.9604 0 235.437 299.924
26.7302 -94.5215 0 199.546 248.849
265.212 -78.6222 0 439.635 236.523
74.1083 45.0216 0 250.681 384.232
82.4047 105.998 0 261.248 443.175
-7.59901 5.64343 0 168.09 349.187
3 42 41 43
3 38 37 36
3 43 41 44
3 40 46 45
3 40 45 44
3 41 40 44
3 5 3 2
3 1 261 2
3 39 35 34
3 39 38 35
3 39 34 46
3 46 40 39
3 35 38 36
3 33 46 34
3 46 33 47
3 30 49 48
3 50 49 29
3 27 52 51
3 27 53 52
3 28 51 50
3 31 48 47
3 31 30 48
3 28 50 29
3 30 29 49
3 54 56 55
3 54 53 56
3 56 53 27
3 28 27 51
3 56 27 26
3 31 47 32
3 33 32 47
3 0 260 261
3 7 6 256
3 6 5 261
3 264 13 12
3 2 261 5
3 4 3 5
3 9 8 7
3 6 261 258
3 257 256 6
3 256 253 7
3 253 256 255
3 10 9 252
3 10 252 251
3 253 252 9
3 7 253 9
3 257 6 258
3 16 15 14
3 16 14 263
3 263 17 16
3 57 26 25
3 58 25 24
3 14 13 263
3 17 263 18
3 264 11 250
3 11 264 12
3 21 20 271
3 61 60 269
3 263 19 18
3 23 269 24
3 250 11 251
3 19 263 20
3 10 251 11
3 56 26 57
3 22 21 262
3 0 261 1
3 246 245 271
3 23 22 269
3 107 87 86
3 107 86 108
3 86 85 108
3 105 90 89
3 89 88 106
3 107 88 87
3 107 106 88
3 85 84 109
3 76 75 74
3 77 76 74
3 110 109 84
3 85 109 108
3 84 83 110
3 82 111 83
3 82 81 112
3 95 93 92
3 92 91 95
3 91 90 104
3 104 95 91
3 95 94 93
3 103 97 96
3 95 104 96
3 96 104 103
3 102 97 103
3 90 105 104
3 102 98 97
3 99 98 101
3 101 100 99
3 98 102 101
3 89 106 105
3 59 58 60
3 57 25 58
3 289 70 69
3 282 265 72
3 289 282 70
3 60 58 269
3 63 275 64
3 275 63 285
3 67 66 68
3 68 66 289
3 270 65 64
3 173 172 275
3 24 269 58
3 289 274 282
3 73 72 265
3 78 265 281
3 265 78 77
3 81 80 276
3 83 111 110
3 79 78 276
3 82 112 111
3 119 118 281
3 77 74 73
3 276 281 116
3 281 120 119
3 276 78 281
3 276 112 81
3 112 276 113
3 113 276 114
3 114 276 115
3 265 120 281
3 282 71 70
3 275 270 64
3 255 254 253
3 264 250 249
3 248 264 249
3 264 247 246
3 271 245 244
3 271 263 264
3 271 264 246
3 243 242 273
3 273 241 268
3 241 240 239
3 273 242 241
3 268 239 238
3 236 235 266
3 268 266 283
3 241 239 268
3 283 266 174
3 266 176 175
3 177 176 266
3 234 178 266
3 266 178 177
3 283 174 173
3 284 172 171
3 283 285 262
3 266 235 234
3 179 234 233
3 232 231 181
3 180 233 232
3 179 233 180
3 181 180 232
3 182 181 231
3 230 267 231
3 234 179 178
3 284 171 170
3 222 221 218
3 221 219 218
3 219 221 220
3 223 222 217
3 216 224 223
3 226 225 214
3 215 225 224
3 222 218 217
3 216 215 224
3 217 216 223
3 226 214 277
3 277 212 211
3 277 214 213
3 215 214 225
3 277 211 210
3 182 231 267
3 278 286 203
3 227 277 228
3 207 272 208
3 184 278 185
3 184 183 278
3 201 200 278
3 278 199 198
3 226 277 227
3 272 207 206
3 208 272 277
3 206 205 286
3 273 262 21
3 205 204 286
3 267 183 182
3 203 202 278
3 206 286 272
3 273 21 271
3 208 277 209
3 277 210 209
3 169 168 270
3 270 284 169
3 270 168 274
3 163 279 164
3 165 287 166
3 165 164 287
3 287 120 274
3 284 170 169
3 163 162 279
3 160 288 162
3 279 288 122
3 161 160 162
3 158 280 159
3 160 280 288
3 287 164 279
3 158 156 280
3 124 123 288
3 280 160 159
3 288 280 125
3 153 129 128
3 129 152 130
3 128 127 154
3 126 155 127
3 154 127 155
3 130 152 131
3 153 128 154
3 132 131 151
3 150 133 132
3 133 149 134
3 134 148 135
3 153 152 129
3 126 280 155
3 156 155 280
3 158 157 156
3 194 189 188
3 187 195 188
3 194 190 189
3 192 190 193
3 190 192 191
3 193 190 194
3 196 187 186
3 186 185 197
3 197 185 198
3 278 198 185
3 196 195 187
3 194 188 195
3 197 196 186
3 151 150 132
3 149 133 150
3 134 149 148
3 140 137 136
3 137 139 138
3 147 136 135
3 148 147 135
3 131 152 151
3 147 146 140
3 145 144 142
3 146 145 141
3 139 137 140
3 145 142 141
3 141 140 146
3 143 142 144
3 140 136 147
3 260 259 261
3 199 278 200
3 258 261 259
3 247 264 248
3 13 264 263
3 73 265 77
3 72 71 282
3 174 266 175
3 237 236 266
3 272 230 229
3 204 203 286
3 238 237 268
3 266 268 237
3 22 262 269
3 283 262 268
3 168 167 274
3 66 65 270
3 271 244 243
3 20 263 271
3 230 272 267
3 228 272 229
3 262 273 268
3 243 273 271
3 287 167 166
3 282 120 265
3 62 285 63
3 62 61 285
3 79 276 80
3 116 115 276
3 277 272 228
3 213 212 277
3 267 278 183
3 202 201 278
3 122 121 279
3 279 121 120
3 126 125 280
3 288 125 124
3 118 117 281
3 281 117 116
3 289 69 68
3 120 282 274
3 173 275 283
3 283 275 285
3 270 275 284
3 172 284 275
3 61 269 285
3 262 285 269
3 278 267 286
3 272 286 267
3 120 287 279
3 167 287 274
3 122 288 123
3 288 279 162
3 274 289 270
3 66 270 289
