ply
format ascii 1.0
element vertex 290
property float x
property float y
property float z
property float u
property float v
element face 317
property list uchar int vertex_indices
end_header
-5.16849 -339.362 0 147.636 8.36396
-13.7225 -329.409 0 139.979 19.0208
-14.9319 -315.283 0 140 33.201
-12.4425 -301.538 0 143.678 46.6777
-0.567453 -297.165 0 155.887 50
5.59092 -308.903 0 161 37.7695
11.5878 -308.578 0 167 37.5736
17.5624 -296.501 0 174 49.0883
22.1643 -283.422 0 179.719 61.7193
34.513 -287.083 0 191.704 57
39.9567 -276.942 0 198 66.6324
43.8233 -263.63 0 203 79.5613
36.3824 -256.037 0 196.239 87.7609
25.4076 -247.942 0 186 96.7624
14.7545 -239.681 0 176.097 105.903
4.85153 -230.426 0 167.026 115.974
8.59439 -218.229 0 171.803 127.803
7.99771 -208.98 0 172 137.064
12.9515 -196.576 0 177.995 148.995
18.9671 -183.939 0 185.066 161.066
28.9534 -174.263 0 195.844 169.844
35.6395 -161.807 0 203.622 181.622
30.7574 -156.634 0 199.605 187
17.199 -161.409 0 186.185 183.185
3.67126 -166.647 0 172.919 179
-10.5583 -171.709 0 159.407 175.407
-25.2236 -174.904 0 145.818 174
-37.8938 -183.896 0 134 166.718
-42.1819 -198.668 0 130.265 153.265
-46.8942 -213.135 0 126 140.032
-52.3539 -227.316 0 121 127.103
-56.9304 -241.751 0 116.83 113.83
-62.7659 -255.24 0 111 101.245
-68.9243 -268.587 0 104.809 88.8092
-76.5509 -281.284 0 97.031 77.031
-82.9031 -293.824 0 90 64.9434
-86.5724 -302.168 0 85.8385 56.8385
-95.3056 -304.209 0 77 55.3289
-92.5798 -290.875 0 80.5247 68.4753
-90.5095 -284.382 0 83 74.8438
-103.938 -280.944 0 69.8678 79.1322
-113.064 -288.639 0 60.2982 72
-122.401 -295.66 0 50.554 65.554
-124.46 -287.349 0 49 73.9741
-119.153 -275.665 0 55 85.3173
-111.538 -264.211 0 63.2955 96.2955
-99.2833 -257.771 0 75.9327 102
-88.2067 -248.668 0 86 109.276
-85.704 -233.287 0 88 123.448
-82.8505 -218.178 0 90.4379 137.438
-80.8615 -203.605 0 92 150.963
-78.5192 -188.399 0 94 165.134
-75.6606 -173.938 0 97 178.892
-72.0537 -160.02 0 101 192.235
-67.3952 -146.631 0 106.116 205.116
-60.8003 -134.356 0 113.265 217
-53.4336 -137.518 0 120.43 213.43
-39.9996 -130.141 0 133.087 219.087
-27.2425 -122.397 0 145 225.052
-23.6092 -115.015 0 148.809 232
-10.7596 -110.459 0 161.694 235.694
-2.56997 -100.99 0 170 244.081
-2.00778 -86.6735 0 171 257.839
-1.47272 -71.6667 0 172 272.425
1.23155 -57.3111 0 175 286.182
-4.16018 -44.3769 0 169.921 299.079
-9.44727 -31.5264 0 165 312.04
-21.5254 -27.8988 0 153.031 316
-27.8906 -15.5939 0 147 328.484
-35.2131 -4.31246 0 140.001 339.999
-43.9826 6.81606 0 131.516 351.484
-52.0676 18.2319 0 123.737 363.263
-59.4729 29.8503 0 116.666 375.334
-68.3937 40.8647 0 108.181 386.819
-77.2332 52.1161 0 99.6956 398.304
-87.4448 62.597 0 89.7115 409
-81.0738 68.7301 0 96.2175 415
-67.8469 72.9951 0 109.561 419
-64.7587 83.1157 0 113 429.49
-69.1925 95.9287 0 109 442.833
-71.5724 109.83 0 107 457.005
-74.7864 123.015 0 104 470.762
-85.6241 131.05 0 92.9758 480.024
-96.0988 139.562 0 82.0762 489.924
-107.359 145.933 0 70.298 497.702
-117.099 154.779 0 60.1059 507.894
-125.875 164.696 0 50.9132 519.087
-134.049 174.181 0 42.5491 529.451
-140.264 185.719 0 36.1849 541.815
-147.015 196.584 0 29 553.839
-153.783 206.871 0 21.7498 565.25
-161.36 217.932 0 13.9716 577.028
-168.819 229.098 0 6.60748 588.393
-172.565 242.531 0 3 601.898
-170.018 252.655 0 5.65576 612
-157.437 246.786 0 18.1705 606
-145.317 254.128 0 29.8989 613.899
-134.376 263.592 0 41.129 623
-123.269 272.796 0 52.4011 632
-111.138 279.654 0 64.6477 638.648
-101.854 280.103 0 73.938 638.938
-109.735 268.896 0 65.8669 627.867
-116.396 256.627 0 59 615.711
-121.364 243.722 0 53.8459 602.846
-126.479 231.292 0 49 589.853
-122.779 222.739 0 53.4191 580
-112.329 214.63 0 64.4886 570.511
-101.917 206.609 0 75.5491 561
-91.5095 198.524 0 86.5804 551.42
-81.1378 190.033 0 97.4802 541.52
-70.6013 181.934 0 108.537 532
-60.077 173.799 0 119.572 522.428
-48.6523 168.252 0 131.643 515.357
-36.0927 164.35 0 144.593 510.407
-24.5457 157.107 0 156 502.475
-17.1362 145.454 0 163 490.374
-9.39071 134.105 0 170.514 478.486
0.268031 123.722 0 180 467.416
8.94366 112.674 0 188.191 455.809
16.558 101.127 0 195.262 443.738
27.4089 93.27 0 206.057 435
37.4408 103.876 0 216.526 444.526
48.1268 114.312 0 227.602 454
58.9761 124.136 0 238.911 462.911
70.1605 133.115 0 250.56 471
81.4894 142.364 0 262.174 479.174
93.6042 150.926 0 274.245 486.245
99.1282 165.011 0 280 498.862
102.87 180.045 0 284 512.205
106.595 195.062 0 288 525.548
111.166 209.21 0 293 538.477
116.753 223.01 0 298.995 550.995
124.318 236.684 0 306.773 562.773
131.88 250.398 0 314.551 574.551
140.869 263.612 0 323.743 585.743
149.092 277.059 0 332.229 597.229
157.881 289.882 0 341.421 608.421
166.832 301.336 0 351 618.867
176.619 310.202 0 361.382 627
182.446 305.62 0 366.861 622
183.578 294.594 0 367.169 610.831
197.778 293.394 0 380.582 607
211.638 291.098 0 394.339 604
224.062 284.581 0 406.311 596.689
222.371 275.75 0 404.046 588
207.865 273.738 0 389.46 587
193.14 271.013 0 374.874 586
179.963 265.705 0 361.961 583.039
174.129 253.068 0 356 572.431
170.425 237.939 0 352 559.088
167.246 222.645 0 348.527 545.527
162.976 207.726 0 344 532.403
158.17 192.844 0 339 519.474
154.478 177.575 0 335.093 506.093
150.633 162.511 0 331 492.789
149.896 147.09 0 330 479.032
151.51 131.678 0 331 464.446
156.994 120.019 0 336 452.689
147.889 111.415 0 326.538 444.538
139.203 99.5433 0 317.345 433.345
129.123 89.0649 0 306.86 423.86
133.473 83.5211 0 311 418.459
125.903 71.8349 0 303 407.358
118.09 59.2312 0 294.768 395.768
110.715 46.6281 0 286.99 383.99
102.559 34.4368 0 278.505 372.505
94.4313 22.4936 0 270 361.027
85.7281 10.5847 0 261 349.755
80.7249 -1.79295 0 255.998 338
83.6528 -13.3142 0 259 326.483
87.9593 -26.4022 0 263 313.141
91.4675 -39.9075 0 266 299.384
94.8923 -53.387 0 269 285.626
99.0003 -66.1898 0 273 272.284
110.343 -72.7851 0 284.578 264.422
122.975 -74.9679 0 297.331 261
137.223 -72.6498 0 311.917 262
147.446 -75.4615 0 322 258.155
157.126 -82.4361 0 331.188 250
169.843 -78.546 0 344.531 252
184.202 -77.3004 0 359.117 251
198.563 -75.9453 0 373.703 250
212.634 -75.6241 0 387.874 248
213.79 -62.6511 0 391 260.459
211.553 -47.7629 0 391 275.459
208.416 -33.4701 0 390 290.047
206.218 -18.6362 0 390 305.044
203.089 -4.34995 0 389 319.633
200.894 10.4882 0 389 334.633
197.767 24.7685 0 388 349.217
195.575 39.608 0 388 364.217
194.564 53.3728 0 389.018 377.982
199.745 52.409 0 394 376.269
199.512 40.3152 0 392 364.34
203.563 26.5886 0 394 350.169
210.903 14.8306 0 399.537 337.463
221.635 5.10526 0 408.73 326.27
234.296 -1.37891 0 420.304 318
247.401 -6.08887 0 432.579 311.421
260.371 -11.3147 0 444.649 304.351
273.158 -17.2779 0 456.428 296.572
282.298 -27.3144 0 464 285.295
289.134 -39.3507 0 469 272.366
293.168 -53.0196 0 471 258.194
296.27 -67.2393 0 472 243.608
298.348 -81.2438 0 472 229.438
300.908 -94.1188 0 472.64 216.36
303.588 -108.038 0 473.238 202.238
303.524 -120.73 0 471.297 189.703
306.401 -135.165 0 471.996 174.996
305.662 -149.259 0 469.168 161.168
301.209 -162.434 0 462.804 148.804
291.461 -172.064 0 451.733 140.733
280.386 -180.539 0 439.522 134
269.462 -189.26 0 427.422 127
259.942 -199.267 0 416.52 118.52
253.261 -211.884 0 408.035 107.035
251.038 -225.613 0 403.792 93.7925
252.309 -239.42 0 403 79.9492
256.059 -250.918 0 405 68.0205
252.886 -258.264 0 400.772 61.2279
247.161 -245.536 0 397 74.6653
244.005 -231.259 0 396 89.2529
241.776 -216.428 0 396 104.253
238.614 -202.157 0 395 118.836
236.383 -187.323 0 395 133.837
234.151 -172.489 0 395 148.837
230.994 -158.214 0 394 163.422
228.762 -143.377 0 394 178.422
225.603 -129.11 0 393 193.009
223.365 -114.324 0 393 208.01
214.124 -107.985 0 384.873 215.873
199.7 -111.354 0 370.234 215
185.319 -114.712 0 355.649 214
170.899 -117.987 0 341.063 213
163.231 -126.097 0 332.72 206
148.652 -128.71 0 318.135 205
137.285 -136.414 0 306.439 198.439
131.074 -149.05 0 299.367 186.367
127.178 -160.782 0 294.581 175
133.556 -168.226 0 300.319 167
121.111 -169.458 0 287.862 166.862
118.23 -182.271 0 284 154.29
112.367 -194.953 0 277.134 142.134
106.261 -207.54 0 270 130.09
101.441 -218.846 0 264.235 119.235
97.0642 -230.628 0 258.871 107.871
90.1248 -241.83 0 251 97.303
82.877 -254.071 0 242.729 85.7291
73.5973 -265.102 0 232.536 75.5365
60.0129 -268.523 0 218.708 73.2917
48.6801 -272.755 0 207.052 70.0515
42.694 -285.396 0 200 57.9727
49.2513 -294.833 0 205.713 48
55.3919 -304.392 0 211 37.9436
53.7609 -308.722 0 209 33.7725
49.614 -318.882 0 203.989 24.0107
43.4877 -328.4 0 197.061 15.061
34.7308 -335.246 0 187.744 9
22.7278 -341.026 0 175.283 4.28345
6.79224 -345.709 0 159 1
9.59088 -327.197 0 163.397 19.2
52.8265 -142.023 0 222.418 199.851
33.5051 -211.977 0 197.158 131.895
59.0462 -241.262 0 220.087 100.537
-25.4022 66.2827 0 151.861 410.94
134.486 -102.15 0 306.586 232.878
233.474 -90.5326 0 406.468 230.06
92.315 -143.137 0 261.32 195.618
17.2152 -126.991 0 188.497 217.457
38.0577 -21.1559 0 212.946 320.627
69.1876 -198.456 0 233.86 142.326
264.752 -114.215 0 433.92 201.91
93.6884 -170.292 0 260.625 168.349
46.7028 18.2042 0 222.394 359.242
48.6006 -72.8783 0 221.899 268.749
-42.2513 124.48 0 136.779 470.704
275.865 -146.529 0 440.11 168.305
250.396 -49.5828 0 429.173 267.959
74.4584 75.9309 0 251.883 414.403
109.912 119.272 0 288.938 454.209
-10.6418 91.1879 0 167.384 435.514
-19.957 32.1576 0 156.203 376.245
84.617 -103.816 0 256.529 235.57
60.9806 -40.9161 0 235.437 299.924
26.8809 -94.4419 0 199.546 248.849
265.29 -78.9865 0 439.635 236.523
74.3121 45.0359 0 250.681 384.232
82.6223 105.984 0 261.248 443.175
-7.41055 5.71092 0 168.09 349.187
3 42 41 43
3 38 37 36
3 43 41 44
3 40 46 45
3 40 45 44
3 41 40 44
3 5 3 2
3 1 261 2
3 39 35 34
3 39 38 35
3 39 34 46
3 46 40 39
3 35 38 36
3 33 46 34
3 46 33 47
3 30 49 48
3 50 49 29
3 27 52 51
3 27 53 52
3 28 51 50
3 31 48 47
3 31 30 48
3 28 50 29
3 30 29 49
3 54 56 55
3 54 53 56
3 56 53 27
3 28 27 51
3 56 27 26
3 31 47 32
3 33 32 47
3 0 260 261
3 7 6 256
3 6 5 261
3 264 13 12
3 2 261 5
3 4 3 5
3 9 8 7
3 6 261 258
3 257 256 6
3 256 253 7
3 253 256 255
3 10 9 252
3 10 252 251
3 253 252 9
3 7 253 9
3 257 6 258
3 16 15 14
3 16 14 263
3 263 17 16
3 57 26 25
3 58 25 24
3 14 13 263
3 17 263 18
3 264 11 250
3 11 264 12
3 21 20 271
3 61 60 269
3 263 19 18
3 23 269 24
3 250 11 251
3 19 263 20
3 10 251 11
3 56 26 57
3 22 21 262
3 0 261 1
3 246 245 271
3 23 22 269
3 107 87 86
3 107 86 108
3 86 85 108
3 105 90 89
3 89 88 106
3 107 88 87
3 107 106 88
3 85 84 109
3 76 75 74
3 77 76 74
3 110 109 84
3 85 109 108
3 84 83 110
3 82 111 83
3 82 81 112
3 95 93 92
3 92 91 95
3 91 90 104
3 104 95 91
3 95 94 93
3 103 97 96
3 95 104 96
3 96 104 103
3 102 97 103
3 90 105 104
3 102 98 97
3 99 98 101
3 101 100 99
3 98 102 101
3 89 106 105
3 59 58 60
3 57 25 58
3 289 70 69
3 282 265 72
3 289 282 70
3 60 58 269
3 63 275 64
3 275 63 285
3 67 66 68
3 68 66 289
3 270 65 64
3 173 172 275
3 24 269 58
3 289 274 282
3 73 72 265
3 78 265 281
3 265 78 77
3 81 80 276
3 83 111 110
3 79 78 276
3 82 112 111
3 119 118 281
3 77 74 73
3 276 281 116
3 281 120 119
3 276 78 281
3 276 112 81
3 112 276 113
3 113 276 114
3 114 276 115
3 265 120 281
3 282 71 70
3 275 270 64
3 255 254 253
3 264 250 249
3 248 264 249
3 264 247 246
3 271 245 244
3 271 263 264
3 271 264 246
3 243 242 273
3 273 241 268
3 241 240 239
3 273 242 241
3 268 239 238
3 236 235 266
3 268 266 283
3 241 239 268
3 283 266 174
3 266 176 175
3 177 176 266
3 234 178 266
3 266 178 177
3 283 174 173
3 284 172 171
3 283 285 262
3 266 235 234
3 179 234 233
3 232 231 181
3 180 233 232
3 179 233 180
3 181 180 232
3 182 181 231
3 230 267 231
3 234 179 178
3 284 171 170
3 222 221 218
3 221 219 218
3 219 221 220
3 223 222 217
3 216 224 223
3 226 225 214
3 215 225 224
3 222 218 217
3 216 215 224
3 217 216 223
3 226 214 277
3 277 212 211
3 277 214 213
3 215 214 225
3 277 211 210
3 182 231 267
3 278 286 203
3 227 277 228
3 207 272 208
3 184 278 185
3 184 183 278
3 201 200 278
3 278 199 198
3 226 277 227
3 272 207 206
3 208 272 277
3 206 205 286
3 273 262 21
3 205 204 286
3 267 183 182
3 203 202 278
3 206 286 272
3 273 21 271
3 208 277 209
3 277 210 209
3 169 168 270
3 270 284 169
3 270 168 274
3 163 279 164
3 165 287 166
3 165 164 287
3 287 120 274
3 284 170 169
3 163 162 279
3 160 288 162
3 279 288 122
3 161 160 162
3 158 280 159
3 160 280 288
3 287 164 279
3 158 156 280
3 124 123 288
3 280 160 159
3 288 280 125
3 153 129 128
3 129 152 130
3 128 127 154
3 126 155 127
3 154 127 155
3 130 152 131
3 153 128 154
3 132 131 151
3 150 133 132
3 133 149 134
3 134 148 135
3 153 152 129
3 126 280 155
3 156 155 280
3 158 157 156
3 194 189 188
3 187 195 188
3 194 190 189
3 192 190 193
3 190 192 191
3 193 190 194
3 196 187 186
3 186 185 197
3 197 185 198
3 278 198 185
3 196 195 187
3 194 188 195
3 197 196 186
3 151 150 132
3 149 133 150
3 134 149 148
3 140 137 136
3 137 139 138
3 147 136 135
3 148 147 135
3 131 152 151
3 147 146 140
3 145 144 142
3 146 145 141
3 139 137 140
3 145 142 141
3 141 140 146
3 143 142 144
3 140 136 147
3 260 259 261
3 199 278 200
3 258 261 259
3 247 264 248
3 13 264 263
3 73 265 77
3 72 71 282
3 174 266 175
3 237 236 266
3 272 230 229
3 204 203 286
3 238 237 268
3 266 268 237
3 22 262 269
3 283 262 268
3 168 167 274
3 66 65 270
3 271 244 243
3 20 263 271
3 230 272 267
3 228 272 229
3 262 273 268
3 243 273 271
3 287 167 166
3 282 120 265
3 62 285 63
3 62 61 285
3 79 276 80
3 116 115 276
3 277 272 228
3 213 212 277
3 267 278 183
3 202 201 278
3 122 121 279
3 279 121 120
3 126 125 280
3 288 125 124
3 118 117 281
3 281 117 116
3 289 69 68
3 120 282 274
3 173 275 283
3 283 275 285
3 270 275 284
3 172 284 275
3 61 269 285
3 262 285 269
3 278 267 286
3 272 286 267
3 120 287 279
3 167 287 274
3 122 288 123
3 288 279 162
3 274 289 270
3 66 270 289
