ply
format ascii 1.0
element vertex 290
property float x
property float y
property float z
property float u
property float v
element face 317
property list uchar int vertex_indices
end_header
3.80664 -347.74 0 147.636 8.36396
-4.93354 -337.951 0 139.979 19.0208
-6.4093 -323.85 0 140 33.201
-4.17984 -310.06 0 143.678 46.6777
7.6106 -305.464 0 155.887 50
13.9895 -317.084 0 161 37.7695
19.9792 -316.646 0 167 37.5736
25.7248 -304.458 0 174 49.0883
30.0791 -291.294 0 179.719 61.7193
42.4946 -294.722 0 191.704 57
47.7463 -284.48 0 198 66.6324
51.3615 -271.097 0 203 79.5613
43.7791 -263.645 0 196.239 87.7609
32.654 -255.757 0 186 96.7624
21.8476 -247.697 0 176.097 105.903
11.7724 -238.629 0 167.026 115.974
15.2853 -226.364 0 171.803 127.803
14.5151 -217.127 0 172 137.064
19.2353 -204.632 0 177.995 148.995
25.0133 -191.884 0 185.066 161.066
34.8172 -182.019 0 195.844 169.844
41.2702 -169.424 0 203.622 181.622
36.2746 -164.281 0 199.605 187
22.7807 -169.259 0 186.185 183.185
9.29889 -174.722 0 172.919 179
-4.91753 -180.064 0 159.407 175.407
-19.621 -183.594 0 145.818 174
-32.2464 -192.891 0 134 166.718
-36.3894 -207.842 0 130.265 153.265
-40.9491 -222.486 0 126 140.032
-46.2566 -236.855 0 121 127.103
-50.6682 -251.457 0 116.83 113.83
-56.3128 -265.105 0 111 101.245
-62.2752 -278.618 0 104.809 88.8092
-69.7016 -291.506 0 97.031 77.031
-75.8152 -304.172 0 90 64.9434
-79.3229 -312.585 0 85.8385 56.8385
-88.015 -314.795 0 77 55.3289
-85.5477 -301.411 0 80.5247 68.4753
-83.6047 -294.88 0 83 74.8438
-97.1025 -291.707 0 69.8678 79.1322
-106.078 -299.577 0 60.2982 72
-115.278 -306.778 0 50.554 65.554
-117.497 -298.507 0 49 73.9741
-112.416 -286.723 0 55 85.3173
-105.025 -275.125 0 63.2955 96.2955
-92.8986 -268.451 0 75.9327 102
-81.8746 -259.011 0 86 109.276
-79.5449 -243.468 0 88 123.448
-76.8608 -228.203 0 90.4379 137.438
-75.0279 -213.493 0 92 150.963
-72.8527 -198.148 0 94 165.134
-70.1854 -183.576 0 97 178.892
-66.7793 -169.55 0 101 192.235
-62.3113 -156.057 0 106.116 205.116
-55.8965 -143.68 0 113.265 217
-48.4826 -146.725 0 120.43 213.43
-35.076 -139.026 0 133.087 219.087
-22.3425 -130.96 0 145 225.052
-18.7955 -123.49 0 148.809 232
-5.99482 -118.723 0 161.694 235.694
2.10962 -109.028 0 170 244.081
2.54708 -94.6016 0 171 257.839
2.97552 -79.5103 0 172 272.425
5.63872 -65.0399 0 175 286.182
0.204778 -52.1073 0 169.921 299.079
-5.13997 -39.2816 0 165 312.04
-17.2348 -35.7206 0 153.031 316
-23.6627 -23.4522 0 147 328.484
-31.0401 -12.2125 0 140.001 339.999
-39.8524 -1.14984 0 131.516 351.484
-47.9816 10.2024 0 123.737 363.263
-55.4348 21.7411 0 116.666 375.334
-64.4221 32.6814 0 108.181 386.819
-73.3096 43.9035 0 99.6956 398.304
-83.5491 54.3578 0 89.7115 409
-77.1949 60.5069 0 96.2175 415
-63.984 64.8041 0 109.561 419
-60.9276 74.8527 0 113 429.49
-65.3951 87.5798 0 109 442.833
-67.7982 101.446 0 107 457.005
-70.9795 114.54 0 104 470.762
-81.6814 122.374 0 92.9758 480.024
-91.9414 130.642 0 82.0762 489.924
-102.976 136.773 0 70.298 497.702
-112.482 145.386 0 60.1059 507.894
-121.022 155.081 0 50.9132 519.087
-129.033 164.434 0 42.5491 529.451
-135.075 175.839 0 36.1849 541.815
-141.567 186.5 0 29 553.839
-148.062 196.595 0 21.7498 565.25
-155.444 207.572 0 13.9716 577.028
-162.799 218.772 0 6.60748 588.393
-166.436 232.228 0 3 601.898
-163.808 242.33 0 5.65576 612
-151.272 236.361 0 18.1705 606
-138.933 243.448 0 29.8989 613.899
-127.965 252.878 0 41.129 623
-116.797 262.006 0 52.4011 632
-104.618 268.779 0 64.6477 638.648
-95.331 269.162 0 73.938 638.938
-103.291 258.011 0 65.8669 627.867
-110.038 245.79 0 59 615.711
-115.108 232.932 0 53.8459 602.846
-120.461 220.694 0 49 589.853
-117.088 212.415 0 53.4191 580
-106.931 204.537 0 64.4886 570.511
-96.8185 196.778 0 75.5491 561
-86.7027 188.96 0 86.5804 551.42
-76.5952 180.722 0 97.4802 541.52
-66.315 172.879 0 108.537 532
-56.0429 165.011 0 119.572 522.428
-44.885 159.752 0 131.643 515.357
-32.482 156.024 0 144.593 510.407
-20.9689 148.879 0 156 502.475
-13.5508 137.301 0 163 490.374
-5.83608 126.063 0 170.514 478.486
3.79337 115.815 0 180 467.416
12.5175 104.875 0 188.191 455.809
20.1962 93.4397 0 195.262 443.738
30.9997 85.7805 0 206.057 435
40.9221 96.5773 0 216.526 444.526
51.5119 107.183 0 227.602 454
62.2496 117.172 0 238.911 462.911
73.3187 126.323 0 250.56 471
84.5639 135.781 0 262.174 479.174
96.656 144.63 0 274.245 486.245
102.095 158.983 0 280 498.862
105.743 174.325 0 284 512.205
109.369 189.648 0 288 525.548
113.81 204.024 0 293 538.477
119.272 218.069 0 298.995 550.995
126.746 232.107 0 306.773 562.773
134.216 246.193 0 314.551 574.551
143.112 259.803 0 323.743 585.743
151.229 273.631 0 332.229 597.229
159.882 286.782 0 341.421 608.421
168.658 298.455 0 351 618.867
178.287 307.498 0 361.382 627
184.195 303.025 0 366.861 622
185.534 292.037 0 367.169 610.831
199.884 291.388 0 380.582 607
213.767 289.297 0 394.339 604
226.301 282.994 0 406.311 596.689
224.762 274.134 0 404.046 588
210.289 271.861 0 389.46 587
195.555 268.745 0 374.874 586
182.352 262.946 0 361.961 583.039
176.593 249.917 0 356 572.431
173.001 234.451 0 352 559.088
169.932 218.833 0 348.527 545.527
165.762 203.575 0 344 532.403
161.041 188.324 0 339 519.474
157.437 172.702 0 335.093 506.093
153.684 157.306 0 331 492.789
153.039 141.582 0 330 479.032
154.808 126.016 0 331 464.446
160.409 114.388 0 336 452.689
151.392 105.677 0 326.538 444.538
142.825 93.6523 0 317.345 433.345
132.835 82.9611 0 306.86 423.86
137.229 77.3928 0 311 418.459
129.753 65.5864 0 303 407.358
122.025 52.7781 0 294.768 395.768
114.725 40.0095 0 286.99 383.99
106.627 27.6795 0 278.505 372.505
98.564 15.6462 0 270 361.027
89.9006 3.623 0 261 349.755
84.867 -8.8483 0 255.998 338
87.7551 -20.3395 0 259 326.483
92.106 -33.3637 0 263 313.141
95.6989 -46.8087 0 266 299.384
99.1904 -60.2083 0 269 285.626
103.288 -72.8577 0 273 272.284
114.519 -79.168 0 284.578 264.422
127.08 -81.0943 0 297.331 261
141.236 -78.5237 0 311.917 262
151.451 -81.1348 0 322 258.155
161.133 -87.8722 0 331.188 250
173.527 -83.6191 0 344.531 252
187.593 -81.9402 0 359.117 251
201.658 -80.1315 0 373.703 250
215.496 -79.3596 0 387.874 248
216.164 -66.3185 0 391 260.459
213.459 -51.4898 0 391 275.459
209.9 -37.2918 0 390 290.047
207.274 -22.5276 0 390 305.044
203.734 -8.33768 0 389 319.633
201.112 6.43088 0 389 334.633
197.573 20.615 0 388 349.217
194.954 35.3848 0 388 364.217
193.546 49.1148 0 389.018 377.982
198.753 48.3009 0 394 376.269
198.869 36.2054 0 392 364.34
203.315 22.6017 0 394 350.169
210.991 11.0605 0 399.537 337.463
221.999 1.64894 0 408.73 326.27
234.842 -4.46697 0 420.304 318
248.076 -8.79707 0 432.579 311.421
261.189 -13.646 0 444.649 304.351
274.141 -19.2362 0 456.428 296.572
283.564 -29.0021 0 464 285.295
290.738 -40.8311 0 469 272.366
295.139 -54.365 0 471 258.194
298.626 -68.4742 0 472 243.608
301.11 -82.4078 0 472 229.438
304.066 -95.2066 0 472.64 216.36
307.178 -109.047 0 473.238 202.238
307.496 -121.736 0 471.297 189.703
310.8 -136.078 0 471.996 174.996
310.48 -150.188 0 469.168 161.168
306.42 -163.489 0 462.804 148.804
296.962 -173.404 0 451.733 140.733
286.143 -182.203 0 439.522 134
275.482 -191.244 0 427.422 127
266.265 -201.53 0 416.52 118.52
259.961 -214.34 0 408.035 107.035
258.147 -228.128 0 403.792 93.7925
259.827 -241.891 0 403 79.9492
263.917 -253.274 0 405 68.0205
260.964 -260.71 0 400.772 61.2279
254.863 -248.158 0 397 74.6653
251.285 -233.981 0 396 89.2529
248.616 -219.222 0 396 104.253
245.031 -205.051 0 395 118.836
242.361 -190.29 0 395 133.837
239.69 -175.529 0 395 148.837
236.111 -161.353 0 394 163.422
233.441 -146.588 0 394 178.422
229.871 -132.423 0 393 193.009
227.227 -117.717 0 393 208.01
217.919 -111.695 0 384.873 215.873
203.809 -115.549 0 370.234 215
189.727 -119.365 0 355.649 214
175.605 -123.083 0 341.063 213
168.199 -131.395 0 332.72 206
153.684 -134.325 0 318.135 205
142.447 -142.245 0 306.439 198.439
136.465 -154.969 0 299.367 186.367
132.781 -166.759 0 294.581 175
139.297 -174.072 0 300.319 167
126.875 -175.534 0 287.862 166.862
124.232 -188.376 0 284 154.29
118.605 -201.156 0 277.134 142.134
112.735 -213.847 0 270 130.09
108.128 -225.24 0 264.235 119.235
103.973 -237.101 0 258.871 107.871
97.2449 -248.431 0 251 97.303
90.2287 -260.805 0 242.729 85.7291
81.1581 -272.009 0 232.536 75.5365
67.6404 -275.685 0 218.708 73.2917
56.3892 -280.129 0 207.052 70.0515
50.6424 -292.881 0 200 57.9727
57.3767 -302.193 0 205.713 48
63.6965 -311.633 0 211 37.9436
62.1476 -315.994 0 209 33.7725
58.193 -326.23 0 203.989 24.0107
52.2474 -335.862 0 197.061 15.061
43.6213 -342.872 0 187.744 9
31.7294 -348.878 0 175.283 4.28345
15.885 -353.861 0 159 1
18.3339 -335.299 0 163.397 19.2
58.0969 -149.309 0 222.418 199.851
40.0742 -219.645 0 197.158 131.895
66.161 -248.447 0 220.087 100.537
-21.5316 58.2771 0 151.861 410.94
139 -108.068 0 306.586 232.878
236.639 -93.637 0 406.468 230.06
97.6022 -149.767 0 261.32 195.618
22.2236 -134.834 0 188.497 217.457
42.2543 -28.5531 0 212.946 320.627
75.4966 -205.46 0 233.86 142.326
268.55 -116.372 0 433.92 201.91
99.4668 -176.858 0 260.625 168.349
50.7969 10.9008 0 222.394 359.242
53.0741 -80.1906 0 221.899 268.749
-38.5193 116.168 0 136.779 470.704
280.615 -148.342 0 440.11 168.305
252.325 -52.1869 0 429.173 267.959
78.2517 69.0755 0 251.883 414.403
113.339 113.109 0 288.938 454.209
-6.86071 83.1975 0 167.384 435.514
-15.9281 24.2773 0 156.203 376.245
89.3132 -110.617 0 256.529 235.57
65.2364 -48.1041 0 235.437 299.924
31.5021 -102.076 0 199.546 248.849
267.989 -81.1144 0 439.635 236.523
78.3024 38.0591 0 250.681 384.232
86.1577 99.3614 0 261.248 443.175
-3.29316 -2.03715 0 168.09 349.187
3 42 41 43
3 38 37 36
3 43 41 44
3 40 46 45
3 40 45 44
3 41 40 44
3 5 3 2
3 1 261 2
3 39 35 34
3 39 38 35
3 39 34 46
3 46 40 39
3 35 38 36
3 33 46 34
3 46 33 47
3 30 49 48
3 50 49 29
3 27 52 51
3 27 53 52
3 28 51 50
3 31 48 47
3 31 30 48
3 28 50 29
3 30 29 49
3 54 56 55
3 54 53 56
3 56 53 27
3 28 27 51
3 56 27 26
3 31 47 32
3 33 32 47
3 0 260 261
3 7 6 256
3 6 5 261
3 264 13 12
3 2 261 5
3 4 3 5
3 9 8 7
3 6 261 258
3 257 256 6
3 256 253 7
3 253 256 255
3 10 9 252
3 10 252 251
3 253 252 9
3 7 253 9
3 257 6 258
3 16 15 14
3 16 14 263
3 263 17 16
3 57 26 25
3 58 25 24
3 14 13 263
3 17 263 18
3 264 11 250
3 11 264 12
3 21 20 271
3 61 60 269
3 263 19 18
3 23 269 24
3 250 11 251
3 19 263 20
3 10 251 11
3 56 26 57
3 22 21 262
3 0 261 1
3 246 245 271
3 23 22 269
3 107 87 86
3 107 86 108
3 86 85 108
3 105 90 89
3 89 88 106
3 107 88 87
3 107 106 88
3 85 84 109
3 76 75 74
3 77 76 74
3 110 109 84
3 85 109 108
3 84 83 110
3 82 111 83
3 82 81 112
3 95 93 92
3 92 91 95
3 91 90 104
3 104 95 91
3 95 94 93
3 103 97 96
3 95 104 96
3 96 104 103
3 102 97 103
3 90 105 104
3 102 98 97
3 99 98 101
3 101 100 99
3 98 102 101
3 89 106 105
3 59 58 60
3 57 25 58
3 289 70 69
3 282 265 72
3 289 282 70
3 60 58 269
3 63 275 64
3 275 63 285
3 67 66 68
3 68 66 289
3 270 65 64
3 173 172 275
3 24 269 58
3 289 274 282
3 73 72 265
3 78 265 281
3 265 78 77
3 81 80 276
3 83 111 110
3 79 78 276
3 82 112 111
3 119 118 281
3 77 74 73
3 276 281 116
3 281 120 119
3 276 78 281
3 276 112 81
3 112 276 113
3 113 276 114
3 114 276 115
3 265 120 281
3 282 71 70
3 275 270 64
3 255 254 253
3 264 250 249
3 248 264 249
3 264 247 246
3 271 245 244
3 271 263 264
3 271 264 246
3 243 242 273
3 273 241 268
3 241 240 239
3 273 242 241
3 268 239 238
3 236 235 266
3 268 266 283
3 241 239 268
3 283 266 174
3 266 176 175
3 177 176 266
3 234 178 266
3 266 178 177
3 283 174 173
3 284 172 171
3 283 285 262
3 266 235 234
3 179 234 233
3 232 231 181
3 180 233 232
3 179 233 180
3 181 180 232
3 182 181 231
3 230 267 231
3 234 179 178
3 284 171 170
3 222 221 218
3 221 219 218
3 219 221 220
3 223 222 217
3 216 224 223
3 226 225 214
3 215 225 224
3 222 218 217
3 216 215 224
3 217 216 223
3 226 214 277
3 277 212 211
3 277 214 213
3 215 214 225
3 277 211 210
3 182 231 267
3 278 286 203
3 227 277 228
3 207 272 208
3 184 278 185
3 184 183 278
3 201 200 278
3 278 199 198
3 226 277 227
3 272 207 206
3 208 272 277
3 206 205 286
3 273 262 21
3 205 204 286
3 267 183 182
3 203 202 278
3 206 286 272
3 273 21 271
3 208 277 209
3 277 210 209
3 169 168 270
3 270 284 169
3 270 168 274
3 163 279 164
3 165 287 166
3 165 164 287
3 287 120 274
3 284 170 169
3 163 162 279
3 160 288 162
3 279 288 122
3 161 160 162
3 158 280 159
3 160 280 288
3 287 164 279
3 158 156 280
3 124 123 288
3 280 160 159
3 288 280 125
3 153 129 128
3 129 152 130
3 128 127 154
3 126 155 127
3 154 127 155
3 130 152 131
3 153 128 154
3 132 131 151
3 150 133 132
3 133 149 134
3 134 148 135
3 153 152 129
3 126 280 155
3 156 155 280
3 158 157 156
3 194 189 188
3 187 195 188
3 194 190 189
3 192 190 193
3 190 192 191
3 193 190 194
3 196 187 186
3 186 185 197
3 197 185 198
3 278 198 185
3 196 195 187
3 194 188 195
3 197 196 186
3 151 150 132
3 149 133 150
3 134 149 148
3 140 137 136
3 137 139 138
3 147 136 135
3 148 147 135
3 131 152 151
3 147 146 140
3 145 144 142
3 146 145 141
3 139 137 140
3 145 142 141
3 141 140 146
3 143 142 144
3 140 136 147
3 260 259 261
3 199 278 200
3 258 261 259
3 247 264 248
3 13 264 263
3 73 265 77
3 72 71 282
3 174 266 175
3 237 236 266
3 272 230 229
3 204 203 286
3 238 237 268
3 266 268 237
3 22 262 269
3 283 262 268
3 168 167 274
3 66 65 270
3 271 244 243
3 20 263 271
3 230 272 267
3 228 272 229
3 262 273 268
3 243 273 271
3 287 167 166
3 282 120 265
3 62 285 63
3 62 61 285
3 79 276 80
3 116 115 276
3 277 272 228
3 213 212 277
3 267 278 183
3 202 201 278
3 122 121 279
3 279 121 120
3 126 125 280
3 288 125 124
3 118 117 281
3 281 117 116
3 289 69 68
3 120 282 274
3 173 275 283
3 283 275 285
3 270 275 284
3 172 284 275
3 61 269 285
3 262 285 269
3 278 267 286
3 272 286 267
3 120 287 279
3 167 287 274
3 122 288 123
3 288 279 162
3 274 289 270
3 66 270 289
