ply
format ascii 1.0
element vertex 290
property float x
property float y
property float z
property float u
property float v
element face 317
property list uchar int vertex_indices
end_header
54.6628 -391.87 0 147.636 8.36396
44.5941 -383.454 0 139.979 19.0208
41.0864 -369.718 0 140 33.201
41.2888 -355.75 0 143.678 46.6777
52.2869 -349.49 0 155.887 50
60.2858 -360.06 0 161 37.7695
66.1487 -358.758 0 167 37.5736
70.0632 -345.864 0 174 49.0883
72.4596 -332.208 0 179.719 61.7193
85.2411 -333.795 0 191.704 57
88.9509 -322.9 0 198 66.6324
90.5859 -309.133 0 203 79.5613
82.0008 -302.857 0 196.239 87.7609
69.8445 -296.657 0 186 96.7624
57.9784 -290.239 0 176.097 105.903
46.6962 -282.725 0 167.026 115.974
48.3962 -270.079 0 171.803 127.803
46.2974 -261.047 0 172 137.064
49.1619 -247.997 0 177.995 148.995
53.0367 -234.542 0 185.066 161.066
61.3001 -223.349 0 195.844 169.844
65.7406 -209.871 0 203.622 181.622
59.2351 -205.305 0 199.605 187
45.6083 -211.955 0 186.185 183.185
31.8407 -219.288 0 172.919 179
16.6621 -227.322 0 159.407 175.407
0.47928 -234.142 0 145.818 174
-13.2615 -246.587 0 134 166.718
-18.1089 -264.016 0 130.265 153.265
-23.219 -280.958 0 126 140.032
-29.0966 -297.655 0 121 127.103
-34.0144 -314.43 0 116.83 113.83
-39.5666 -329.687 0 111 101.245
-45.3795 -344.801 0 104.809 88.8092
-52.4707 -359.247 0 97.031 77.031
-57.4605 -372.532 0 90 64.9434
-60.1652 -381.247 0 85.8385 56.8385
-68.6115 -384.268 0 77 55.3289
-67.42 -370.712 0 80.5247 68.4753
-66.129 -364.054 0 83 74.8438
-79.9659 -362.27 0 69.8678 79.1322
-88.1595 -370.954 0 60.2982 72
-96.6386 -378.991 0 50.554 65.554
-99.6289 -370.968 0 49 73.9741
-95.6845 -358.757 0 55 85.3173
-89.4282 -346.519 0 63.2955 96.2955
-78.0132 -338.757 0 75.9327 102
-65.6087 -325.968 0 86 109.276
-62.6225 -308.155 0 88 123.448
-59.4176 -290.792 0 90.4379 137.438
-57.0376 -274.094 0 92 150.963
-54.4511 -256.806 0 94 165.134
-52.1131 -240.999 0 97 178.892
-49.4281 -226.04 0 101 192.235
-45.7906 -211.743 0 106.116 205.116
-40.3478 -198.788 0 113.265 217
-32.6543 -201.123 0 120.43 213.43
-18.2472 -190.304 0 133.087 219.087
-4.42453 -178.997 0 145 225.052
-1.25736 -170.813 0 148.809 232
11.3468 -164.597 0 161.694 235.694
19.0231 -153.085 0 170 244.081
18.5809 -137.742 0 171 257.839
18.1264 -121.943 0 172 272.425
20.1977 -106.372 0 175 286.182
14.2619 -93.2934 0 169.921 299.079
8.37366 -80.5996 0 165 312.04
-3.86148 -77.5578 0 153.031 316
-10.7959 -65.581 0 147 328.484
-18.6397 -54.7044 0 140.001 339.999
-27.8192 -44.2148 0 131.516 351.484
-36.3493 -33.4643 0 123.737 363.263
-44.2325 -22.7274 0 116.666 375.334
-53.8522 -12.6535 0 108.181 386.819
-63.2866 -1.82843 0 99.6956 398.304
-73.8525 8.30116 0 89.7115 409
-67.7007 14.6355 0 96.2175 415
-54.6825 19.3043 0 109.561 419
-52.1443 28.5391 0 113 429.49
-57.3202 40.2023 0 109 442.833
-60.33 53.5114 0 107 457.005
-63.8111 65.4665 0 104 470.762
-74.1419 71.0377 0 92.9758 480.024
-83.556 76.8221 0 82.0762 489.924
-93.5817 80.4472 0 70.298 497.702
-102.202 86.6721 0 60.1059 507.894
-109.926 94.1135 0 50.9132 519.087
-117.544 101.927 0 42.5491 529.451
-123.257 111.881 0 36.1849 541.815
-128.889 120.551 0 29 553.839
-134.412 128.77 0 21.7498 565.25
-141.333 138.628 0 13.9716 577.028
-148.712 149.64 0 6.60748 588.393
-152.36 163.045 0 3 601.898
-149.738 173.14 0 5.65576 612
-137.201 167.166 0 18.1705 606
-124.047 173.142 0 29.8989 613.899
-113.497 183.073 0 41.129 623
-102.512 192.422 0 52.4011 632
-90.4572 199.413 0 64.6477 638.648
-81.179 199.963 0 73.938 638.938
-88.9384 188.672 0 65.8669 627.867
-95.47 176.338 0 59 615.711
-100.375 163.472 0 53.8459 602.846
-106.428 152.283 0 49 589.853
-104.55 146.297 0 53.4191 580
-95.6777 140.846 0 64.4886 570.511
-86.8677 135.723 0 75.5491 561
-77.9975 130.551 0 86.5804 551.42
-68.9477 124.819 0 97.4802 541.52
-59.704 119.507 0 108.537 532
-50.4433 114.199 0 119.572 522.428
-40.5641 111.638 0 131.643 515.357
-29.0168 109.767 0 144.593 510.407
-17.3071 103.913 0 156 502.475
-9.14641 93.1886 0 163 490.374
-1.02175 82.8815 0 170.514 478.486
8.8414 73.8193 0 180 467.416
18.3815 63.908 0 188.191 455.809
26.9762 53.4285 0 195.262 443.738
37.8143 47.2552 0 206.057 435
47.037 59.9616 0 216.526 444.526
57.0092 72.2433 0 227.602 454
67.0087 83.7521 0 238.911 462.911
77.3237 94.3111 0 250.56 471
88.1247 105.569 0 262.174 479.174
100.296 117.086 0 274.245 486.245
105.436 134.204 0 280 498.862
108.719 152.746 0 284 512.205
111.965 171.23 0 288 525.548
115.833 187.804 0 293 538.477
120.751 204.134 0 298.995 550.995
127.926 221.61 0 306.773 562.773
135.101 239.202 0 314.551 574.551
143.716 256.424 0 323.743 585.743
151.489 273.754 0 332.229 597.229
159.628 289.694 0 341.421 608.421
167.577 302.83 0 351 618.867
176.386 312.723 0 361.382 627
182.677 308.825 0 366.861 622
185.037 298.191 0 367.169 610.831
200.289 302.115 0 380.582 607
214.195 300.715 0 394.339 604
227.181 295.394 0 406.311 596.689
226.337 286.419 0 404.046 588
212.062 282.911 0 389.46 587
197.253 277.132 0 374.874 586
183.815 267.35 0 361.961 583.039
178.24 250.636 0 356 572.431
175.032 231.874 0 352 559.088
172.346 213.027 0 348.527 545.527
168.524 194.451 0 344 532.403
164.081 175.58 0 339 519.474
160.784 156.42 0 335.093 506.093
157.392 137.744 0 331 492.789
157.133 118.833 0 330 479.032
159.803 101.771 0 331 464.446
166.014 90.242 0 336 452.689
157.491 80.959 0 326.538 444.538
149.688 67.9753 0 317.345 433.345
140.393 55.7501 0 306.86 423.86
145.131 49.8712 0 311 418.459
138.326 37.1651 0 303 407.358
131.353 22.6713 0 294.768 395.768
124.763 8.55205 0 286.99 383.99
117.231 -4.91742 0 278.505 372.505
109.766 -17.645 0 270 361.027
101.644 -30.6944 0 261 349.755
96.6985 -44.295 0 255.998 338
99.4347 -55.9012 0 259 326.483
104.185 -68.513 0 263 313.141
108.508 -81.4843 0 266 299.384
112.593 -94.3633 0 269 285.626
116.658 -106.136 0 273 272.284
127.057 -110.461 0 284.578 264.422
139.029 -110.368 0 297.331 261
152.208 -105.621 0 311.917 262
162.339 -106.414 0 322 258.155
172.492 -111.015 0 331.188 250
183.056 -103.744 0 344.531 252
195.876 -98.2055 0 359.117 251
208.606 -92.3055 0 373.703 250
221.28 -87.4287 0 387.874 248
217.98 -74.5157 0 391 260.459
211.069 -61.0526 0 391 275.459
203.563 -48.4795 0 390 290.047
196.791 -35.1023 0 390 305.044
189.309 -22.5362 0 389 319.633
182.539 -9.15123 0 389 334.633
175.062 3.40954 0 388 349.217
168.291 16.7945 0 388 364.217
162.983 29.5349 0 389.018 377.982
168.204 30.2574 0 394 376.269
171.803 18.7097 0 392 364.34
179.986 6.96811 0 394 350.169
190.664 -1.86934 0 399.537 337.463
203.918 -7.70676 0 408.73 326.27
217.979 -9.85906 0 420.304 318
231.904 -10.1957 0 432.579 311.421
245.853 -11.0655 0 444.649 304.351
259.859 -12.6838 0 456.428 296.572
271.691 -19.3099 0 464 285.295
281.958 -28.5448 0 469 272.366
290.031 -40.1653 0 471 258.194
297.381 -52.6026 0 472 243.608
303.754 -65.2328 0 472 229.438
310.252 -76.7301 0 472.64 216.36
317.21 -89.1752 0 473.238 202.238
321.173 -101.259 0 471.297 189.703
328.478 -114.028 0 471.996 174.996
332.258 -127.628 0 469.168 161.168
332.224 -141.537 0 462.804 148.804
326.041 -153.769 0 451.733 140.733
318.231 -165.326 0 439.522 134
310.64 -177.065 0 427.422 127
304.795 -189.578 0 416.52 118.52
302.47 -203.664 0 408.035 107.035
304.723 -217.387 0 403.792 93.7925
310.316 -230.075 0 403 79.9492
317.526 -239.785 0 405 68.0205
316.853 -247.758 0 400.772 61.2279
307.379 -237.51 0 397 74.6653
299.85 -224.975 0 396 89.2529
293.023 -211.621 0 396 104.253
285.491 -199.095 0 395 118.836
278.661 -185.739 0 395 133.837
271.83 -172.38 0 395 148.837
264.297 -159.842 0 394 163.422
257.459 -146.475 0 394 178.422
249.926 -133.968 0 393 193.009
243.094 -120.763 0 393 208.01
232.288 -118.147 0 384.873 215.873
219.516 -126.533 0 370.234 215
206.636 -134.594 0 355.649 214
193.548 -142.388 0 341.063 213
187.636 -152.538 0 332.72 206
173.569 -158.4 0 318.135 205
163.137 -168.342 0 306.439 198.439
158.703 -181.898 0 299.367 186.367
156.594 -194.141 0 294.581 175
164.049 -200.372 0 300.319 167
151.899 -203.698 0 287.862 166.862
150.93 -216.752 0 284 154.29
147.091 -230.214 0 277.134 142.134
143.054 -243.594 0 270 130.09
140.128 -255.531 0 264.235 119.235
137.724 -267.869 0 258.871 107.871
132.702 -280.051 0 251 97.303
127.554 -293.313 0 242.729 85.7291
120.203 -305.715 0 232.536 75.5365
107.359 -311.313 0 218.708 73.2917
96.8709 -317.341 0 207.052 70.0515
93.0353 -330.791 0 200 57.9727
101.051 -339.025 0 205.713 48
108.675 -347.448 0 211 37.9436
107.775 -351.987 0 209 33.7725
105.349 -362.689 0 203.989 24.0107
100.866 -373.083 0 197.061 15.061
93.3492 -381.273 0 187.744 9
82.455 -388.941 0 175.283 4.28345
67.502 -396.172 0 159 1
67.2299 -377.451 0 163.397 19.2
79.5053 -187.518 0 222.418 199.851
71.9516 -259.844 0 197.158 131.895
101.946 -284.578 0 220.087 100.537
-12.1089 14.9519 0 151.861 410.94
154.673 -135.183 0 306.586 232.878
245.317 -94.99 0 406.468 230.06
119.397 -182.565 0 261.32 195.618
41.2592 -177.688 0 188.497 217.457
54.854 -67.1124 0 212.946 320.627
104.964 -240.705 0 233.86 142.326
282.349 -107.4 0 433.92 201.91
124.67 -209.021 0 260.625 168.349
62.1604 -26.3468 0 222.394 359.242
68.1746 -118.514 0 221.899 268.749
-31.8561 69.7941 0 136.779 470.704
303.139 -134.515 0 440.11 168.305
248.472 -50.5285 0 429.173 267.959
86.6964 36.1442 0 251.883 414.403
119.106 85.9349 0 288.938 454.209
1.34484 40.3233 0 167.384 435.514
-4.8969 -17.9333 0 156.203 376.245
106.32 -145.092 0 256.529 235.57
78.358 -85.2154 0 235.437 299.924
47.9672 -143.153 0 199.546 248.849
271.666 -73.4934 0 439.635 236.523
88.4175 3.82455 0 250.681 384.232
92.7003 68.6039 0 261.248 443.175
8.59738 -43.2449 0 168.09 349.187
3 42 41 43
3 38 37 36
3 43 41 44
3 40 46 45
3 40 45 44
3 41 40 44
3 5 3 2
3 1 261 2
3 39 35 34
3 39 38 35
3 39 34 46
3 46 40 39
3 35 38 36
3 33 46 34
3 46 33 47
3 30 49 48
3 50 49 29
3 27 52 51
3 27 53 52
3 28 51 50
3 31 48 47
3 31 30 48
3 28 50 29
3 30 29 49
3 54 56 55
3 54 53 56
3 56 53 27
3 28 27 51
3 56 27 26
3 31 47 32
3 33 32 47
3 0 260 261
3 7 6 256
3 6 5 261
3 264 13 12
3 2 261 5
3 4 3 5
3 9 8 7
3 6 261 258
3 257 256 6
3 256 253 7
3 253 256 255
3 10 9 252
3 10 252 251
3 253 252 9
3 7 253 9
3 257 6 258
3 16 15 14
3 16 14 263
3 263 17 16
3 57 26 25
3 58 25 24
3 14 13 263
3 17 263 18
3 264 11 250
3 11 264 12
3 21 20 271
3 61 60 269
3 263 19 18
3 23 269 24
3 250 11 251
3 19 263 20
3 10 251 11
3 56 26 57
3 22 21 262
3 0 261 1
3 246 245 271
3 23 22 269
3 107 87 86
3 107 86 108
3 86 85 108
3 105 90 89
3 89 88 106
3 107 88 87
3 107 106 88
3 85 84 109
3 76 75 74
3 77 76 74
3 110 109 84
3 85 109 108
3 84 83 110
3 82 111 83
3 82 81 112
3 95 93 92
3 92 91 95
3 91 90 104
3 104 95 91
3 95 94 93
3 103 97 96
3 95 104 96
3 96 104 103
3 102 97 103
3 90 105 104
3 102 98 97
3 99 98 101
3 101 100 99
3 98 102 101
3 89 106 105
3 59 58 60
3 57 25 58
3 289 70 69
3 282 265 72
3 289 282 70
3 60 58 269
3 63 275 64
3 275 63 285
3 67 66 68
3 68 66 289
3 270 65 64
3 173 172 275
3 24 269 58
3 289 274 282
3 73 72 265
3 78 265 281
3 265 78 77
3 81 80 276
3 83 111 110
3 79 78 276
3 82 112 111
3 119 118 281
3 77 74 73
3 276 281 116
3 281 120 119
3 276 78 281
3 276 112 81
3 112 276 113
3 113 276 114
3 114 276 115
3 265 120 281
3 282 71 70
3 275 270 64
3 255 254 253
3 264 250 249
3 248 264 249
3 264 247 246
3 271 245 244
3 271 263 264
3 271 264 246
3 243 242 273
3 273 241 268
3 241 240 239
3 273 242 241
3 268 239 238
3 236 235 266
3 268 266 283
3 241 239 268
3 283 266 174
3 266 176 175
3 177 176 266
3 234 178 266
3 266 178 177
3 283 174 173
3 284 172 171
3 283 285 262
3 266 235 234
3 179 234 233
3 232 231 181
3 180 233 232
3 179 233 180
3 181 180 232
3 182 181 231
3 230 267 231
3 234 179 178
3 284 171 170
3 222 221 218
3 221 219 218
3 219 221 220
3 223 222 217
3 216 224 223
3 226 225 214
3 215 225 224
3 222 218 217
3 216 215 224
3 217 216 223
3 226 214 277
3 277 212 211
3 277 214 213
3 215 214 225
3 277 211 210
3 182 231 267
3 278 286 203
3 227 277 228
3 207 272 208
3 184 278 185
3 184 183 278
3 201 200 278
3 278 199 198
3 226 277 227
3 272 207 206
3 208 272 277
3 206 205 286
3 273 262 21
3 205 204 286
3 267 183 182
3 203 202 278
3 206 286 272
3 273 21 271
3 208 277 209
3 277 210 209
3 169 168 270
3 270 284 169
3 270 168 274
3 163 279 164
3 165 287 166
3 165 164 287
3 287 120 274
3 284 170 169
3 163 162 279
3 160 288 162
3 279 288 122
3 161 160 162
3 158 280 159
3 160 280 288
3 287 164 279
3 158 156 280
3 124 123 288
3 280 160 159
3 288 280 125
3 153 129 128
3 129 152 130
3 128 127 154
3 126 155 127
3 154 127 155
3 130 152 131
3 153 128 154
3 132 131 151
3 150 133 132
3 133 149 134
3 134 148 135
3 153 152 129
3 126 280 155
3 156 155 280
3 158 157 156
3 194 189 188
3 187 195 188
3 194 190 189
3 192 190 193
3 190 192 191
3 193 190 194
3 196 187 186
3 186 185 197
3 197 185 198
3 278 198 185
3 196 195 187
3 194 188 195
3 197 196 186
3 151 150 132
3 149 133 150
3 134 149 148
3 140 137 136
3 137 139 138
3 147 136 135
3 148 147 135
3 131 152 151
3 147 146 140
3 145 144 142
3 146 145 141
3 139 137 140
3 145 142 141
3 141 140 146
3 143 142 144
3 140 136 147
3 260 259 261
3 199 278 200
3 258 261 259
3 247 264 248
3 13 264 263
3 73 265 77
3 72 71 282
3 174 266 175
3 237 236 266
3 272 230 229
3 204 203 286
3 238 237 268
3 266 268 237
3 22 262 269
3 283 262 268
3 168 167 274
3 66 65 270
3 271 244 243
3 20 263 271
3 230 272 267
3 228 272 229
3 262 273 268
3 243 273 271
3 287 167 166
3 282 120 265
3 62 285 63
3 62 61 285
3 79 276 80
3 116 115 276
3 277 272 228
3 213 212 277
3 267 278 183
3 202 201 278
3 122 121 279
3 279 121 120
3 126 125 280
3 288 125 124
3 118 117 281
3 281 117 116
3 289 69 68
3 120 282 274
3 173 275 283
3 283 275 285
3 270 275 284
3 172 284 275
3 61 269 285
3 262 285 269
3 278 267 286
3 272 286 267
3 120 287 279
3 167 287 274
3 122 288 123
3 288 279 162
3 274 289 270
3 66 270 289
