ply
format ascii 1.0
element vertex 290
property float x
property float y
property float z
property float u
property float v
element face 317
property list uchar int vertex_indices
end_header
-4.04099 -340.181 0 147.636 8.36396
-12.6081 -330.24 0 139.979 19.0208
-13.8361 -316.115 0 140 33.201
-11.3648 -302.367 0 143.678 46.6777
0.504489 -297.979 0 155.887 50
6.67832 -309.708 0 161 37.7695
12.6748 -309.376 0 167 37.5736
18.6335 -297.29 0 174 49.0883
23.2182 -284.206 0 179.719 61.7193
35.5716 -287.85 0 191.704 57
41.002 -277.702 0 198 66.6324
44.8512 -264.385 0 203 79.5613
37.4004 -256.802 0 196.239 87.7609
26.4151 -248.722 0 186 96.7624
15.7513 -240.474 0 176.097 105.903
5.83618 -231.232 0 167.026 115.974
9.56308 -219.03 0 171.803 127.803
8.95431 -209.782 0 172 137.064
13.8918 -197.371 0 177.995 148.995
19.891 -184.727 0 185.066 161.066
29.865 -175.037 0 195.844 169.844
36.5366 -162.571 0 203.622 181.622
31.655 -157.398 0 199.605 187
18.1108 -162.187 0 186.185 183.185
4.59655 -167.441 0 172.919 179
-9.61563 -172.517 0 159.407 175.407
-24.2651 -175.728 0 145.818 174
-36.9097 -184.733 0 134 166.718
-41.1606 -199.504 0 130.265 153.265
-45.8366 -213.972 0 126 140.032
-51.2598 -228.156 0 121 127.103
-55.7985 -242.592 0 116.83 113.83
-61.6003 -256.088 0 111 101.245
-67.7249 -269.443 0 104.809 88.8092
-75.3197 -282.154 0 97.031 77.031
-81.6447 -294.707 0 90 64.9434
-85.2963 -303.058 0 85.8385 56.8385
-94.0251 -305.118 0 77 55.3289
-91.3277 -291.778 0 80.5247 68.4753
-89.271 -285.281 0 83 74.8438
-102.706 -281.871 0 69.8678 79.1322
-111.816 -289.585 0 60.2982 72
-121.138 -296.626 0 50.554 65.554
-123.215 -288.319 0 49 73.9741
-117.932 -276.624 0 55 85.3173
-110.341 -265.154 0 63.2955 96.2955
-98.1007 -258.688 0 75.9327 102
-87.0546 -249.569 0 86 109.276
-84.5933 -234.189 0 88 123.448
-81.7785 -219.079 0 90.4379 137.438
-79.8262 -204.508 0 92 150.963
-77.5207 -189.302 0 94 165.134
-74.6922 -174.838 0 97 178.892
-71.1116 -160.914 0 101 192.235
-66.4761 -147.518 0 106.116 205.116
-59.9005 -135.233 0 113.265 217
-52.5295 -138.384 0 120.43 213.43
-39.1161 -130.991 0 133.087 219.087
-26.3803 -123.232 0 145 225.052
-22.7578 -115.845 0 148.809 232
-9.91515 -111.272 0 161.694 235.694
-1.73631 -101.788 0 170 244.081
-1.18557 -87.4656 0 171 257.839
-0.6587 -72.4545 0 172 272.425
2.04441 -58.0945 0 175 286.182
-3.34914 -45.1634 0 169.921 299.079
-8.64001 -32.3163 0 165 312.04
-20.7193 -28.694 0 153.031 316
-27.0893 -16.3921 0 147 328.484
-34.4157 -5.11372 0 140.001 339.999
-43.1884 6.01029 0 131.516 351.484
-51.2764 17.4225 0 123.737 363.263
-58.6847 29.0371 0 116.666 375.334
-67.6092 40.0495 0 108.181 386.819
-76.4499 51.3009 0 99.6956 398.304
-86.6621 61.7813 0 89.7115 409
-80.2915 67.9147 0 96.2175 415
-67.065 72.1804 0 109.561 419
-63.9755 82.2987 0 113 429.49
-68.406 95.1103 0 109 442.833
-70.7817 109.012 0 107 457.005
-73.9853 122.197 0 104 470.762
-84.8032 130.226 0 92.9758 480.024
-95.2498 138.729 0 82.0762 489.924
-106.482 145.091 0 70.298 497.702
-116.191 153.93 0 60.1059 507.894
-124.935 163.838 0 50.9132 519.087
-133.084 173.321 0 42.5491 529.451
-139.271 184.856 0 36.1849 541.815
-145.985 195.713 0 29 553.839
-152.715 205.993 0 21.7498 565.25
-160.261 217.057 0 13.9716 577.028
-167.698 228.234 0 6.60748 588.393
-171.421 241.673 0 3 601.898
-168.856 251.792 0 5.65576 612
-156.285 245.902 0 18.1705 606
-144.135 253.211 0 29.8989 613.899
-133.181 262.66 0 41.129 623
-122.058 271.844 0 52.4011 632
-109.915 278.681 0 64.6477 638.648
-100.63 279.113 0 73.938 638.938
-108.531 267.921 0 65.8669 627.867
-115.213 255.663 0 59 615.711
-120.206 242.768 0 53.8459 602.846
-125.357 230.359 0 49 589.853
-121.698 221.823 0 53.4191 580
-111.287 213.721 0 64.4886 570.511
-100.913 205.711 0 75.5491 561
-90.5429 197.637 0 86.5804 551.42
-80.2061 189.156 0 97.4802 541.52
-69.7033 181.068 0 108.537 532
-59.2121 172.946 0 119.572 522.428
-47.8196 167.413 0 131.643 515.357
-35.2783 163.517 0 144.593 510.407
-23.7409 156.275 0 156 502.475
-16.3403 144.625 0 163 490.374
-8.60622 133.284 0 170.514 478.486
1.04341 122.909 0 180 467.416
9.71639 111.867 0 188.191 455.809
17.3297 100.328 0 195.262 443.738
28.1709 92.4874 0 206.057 435
38.1896 103.102 0 216.526 444.526
48.8641 113.546 0 227.602 454
59.7011 123.379 0 238.911 462.911
70.873 132.37 0 250.56 471
82.1899 141.633 0 262.174 479.174
94.2949 150.211 0 274.245 486.245
99.8021 164.308 0 280 498.862
103.526 179.354 0 284 512.205
107.231 194.383 0 288 525.548
111.782 208.543 0 293 538.477
117.35 222.357 0 298.995 550.995
124.895 236.051 0 306.773 562.773
132.439 249.785 0 314.551 574.551
141.408 263.023 0 323.743 585.743
149.61 276.493 0 332.229 597.229
158.376 289.338 0 341.421 608.421
167.305 300.813 0 351 618.867
177.073 309.7 0 361.382 627
182.909 305.131 0 366.861 622
184.066 294.108 0 367.169 610.831
198.275 292.947 0 380.582 607
212.14 290.682 0 394.339 604
224.578 284.192 0 406.311 596.689
222.906 275.357 0 404.046 588
208.405 273.313 0 389.46 587
193.682 270.551 0 374.874 586
180.508 265.206 0 361.961 583.039
174.692 252.548 0 356 572.431
171.01 237.402 0 352 559.088
167.852 222.093 0 348.527 545.527
163.602 207.157 0 344 532.403
158.814 192.257 0 339 519.474
155.14 176.972 0 335.093 506.093
151.313 161.892 0 331 492.789
150.594 146.459 0 330 479.032
152.228 131.04 0 331 464.446
157.726 119.386 0 336 452.689
148.631 110.769 0 326.538 444.538
139.958 98.8823 0 317.345 433.345
129.887 88.3854 0 306.86 423.86
134.242 82.842 0 311 418.459
126.681 71.1459 0 303 407.358
118.876 58.5278 0 294.768 395.768
111.506 45.9127 0 286.99 383.99
103.355 33.7114 0 278.505 372.505
95.2319 21.7609 0 270 361.027
86.5298 9.84475 0 261 349.755
81.5218 -2.53512 0 255.998 338
84.4461 -14.0502 0 259 326.483
88.7555 -27.1325 0 263 313.141
92.269 -40.6334 0 266 299.384
95.6978 -54.1058 0 269 285.626
99.8045 -66.8943 0 273 272.284
111.137 -73.468 0 284.578 264.422
123.764 -75.6342 0 297.331 261
138.006 -73.3024 0 311.917 262
148.227 -76.1036 0 322 258.155
157.899 -83.0651 0 331.188 250
170.581 -79.1544 0 344.531 252
184.901 -77.8857 0 359.117 251
199.223 -76.5071 0 373.703 250
213.263 -76.1632 0 387.874 248
214.387 -63.185 0 391 260.459
212.127 -48.2981 0 391 275.459
208.971 -34.0088 0 390 290.047
206.755 -19.1774 0 390 305.044
203.609 -4.89499 0 389 319.633
201.397 9.94048 0 389 334.633
198.252 24.2171 0 388 349.217
196.042 39.0539 0 388 364.217
195.015 52.8175 0 389.018 377.982
200.197 51.8599 0 394 376.269
199.979 39.7658 0 392 364.34
204.046 26.0441 0 394 350.169
211.4 14.2949 0 399.537 337.463
222.143 4.58239 0 408.73 326.27
234.812 -1.88661 0 420.304 318
247.923 -6.58087 0 432.579 311.421
260.899 -11.7911 0 444.649 304.351
273.692 -17.7388 0 456.428 296.572
282.844 -27.7641 0 464 285.295
289.693 -39.7917 0 469 272.366
293.74 -53.4546 0 471 258.194
296.856 -67.669 0 472 243.608
298.951 -81.6704 0 472 229.438
301.531 -94.5422 0 472.64 216.36
304.232 -108.458 0 473.238 202.238
304.187 -121.151 0 471.297 189.703
307.082 -135.581 0 471.996 174.996
306.362 -149.677 0 469.168 161.168
301.926 -162.857 0 462.804 148.804
292.19 -172.5 0 451.733 140.733
281.125 -180.989 0 439.522 134
270.213 -189.724 0 427.422 127
260.706 -199.744 0 416.52 118.52
254.041 -212.369 0 408.035 107.035
251.836 -226.101 0 403.792 93.7925
253.125 -239.906 0 403 79.9492
256.89 -251.4 0 405 68.0205
253.727 -258.749 0 400.772 61.2279
247.985 -246.029 0 397 74.6653
244.81 -231.756 0 396 89.2529
242.563 -216.928 0 396 104.253
239.382 -202.661 0 395 118.836
237.132 -187.83 0 395 133.837
234.881 -172.999 0 395 148.837
231.705 -158.727 0 394 163.422
229.454 -143.893 0 394 178.422
226.279 -129.631 0 393 193.009
224.027 -114.849 0 393 208.01
214.799 -108.525 0 384.873 215.873
200.419 -111.918 0 370.234 215
186.079 -115.299 0 355.649 214
171.701 -118.599 0 341.063 213
164.06 -126.719 0 332.72 206
149.49 -129.347 0 318.135 205
138.138 -137.063 0 306.439 198.439
131.946 -149.701 0 299.367 186.367
128.066 -161.436 0 294.581 175
134.454 -168.871 0 300.319 167
122.012 -170.118 0 287.862 166.862
119.15 -182.932 0 284 154.29
113.304 -195.62 0 277.134 142.134
107.215 -208.214 0 270 130.09
102.41 -219.526 0 264.235 119.235
98.0488 -231.314 0 258.871 107.871
91.1241 -242.525 0 251 97.303
83.8924 -254.775 0 242.729 85.7291
74.6271 -265.818 0 232.536 75.5365
61.0472 -269.257 0 218.708 73.2917
49.7199 -273.504 0 207.052 70.0515
43.7504 -286.153 0 200 57.9727
50.3202 -295.581 0 205.713 48
56.4733 -305.132 0 211 37.9436
54.8481 -309.464 0 209 33.7725
50.7145 -319.629 0 203.989 24.0107
44.6007 -329.156 0 197.061 15.061
35.8528 -336.013 0 187.744 9
23.8575 -341.809 0 175.283 4.28345
7.92807 -346.513 0 159 1
10.7024 -327.997 0 163.397 19.2
53.6996 -142.763 0 222.418 199.851
34.4656 -212.745 0 197.158 131.895
60.0448 -241.997 0 220.087 100.537
-24.6213 65.4723 0 151.861 410.94
135.294 -102.804 0 306.586 232.878
234.106 -91.0437 0 406.468 230.06
93.1811 -143.834 0 261.32 195.618
18.078 -127.769 0 188.497 217.457
38.8567 -21.9182 0 212.946 320.627
70.1303 -199.178 0 233.86 142.326
265.406 -114.685 0 433.92 201.91
94.5931 -170.983 0 260.625 168.349
47.4968 17.4409 0 222.394 359.242
49.4173 -73.6271 0 221.899 268.749
-41.4572 123.653 0 136.779 470.704
276.561 -146.984 0 440.11 168.305
250.97 -50.0712 0 429.173 267.959
75.2305 75.1897 0 251.883 414.403
110.645 118.579 0 288.938 454.209
-9.86124 90.3736 0 167.384 435.514
-19.1686 31.3557 0 156.203 376.245
85.4456 -104.525 0 256.529 235.57
61.7836 -41.6602 0 235.437 299.924
27.7083 -95.2089 0 199.546 248.849
265.888 -79.4541 0 439.635 236.523
75.1007 44.2912 0 250.681 384.232
83.369 105.255 0 261.248 443.175
-6.61685 4.92011 0 168.09 349.187
3 42 41 43
3 38 37 36
3 43 41 44
3 40 46 45
3 40 45 44
3 41 40 44
3 5 3 2
3 1 261 2
3 39 35 34
3 39 38 35
3 39 34 46
3 46 40 39
3 35 38 36
3 33 46 34
3 46 33 47
3 30 49 48
3 50 49 29
3 27 52 51
3 27 53 52
3 28 51 50
3 31 48 47
3 31 30 48
3 28 50 29
3 30 29 49
3 54 56 55
3 54 53 56
3 56 53 27
3 28 27 51
3 56 27 26
3 31 47 32
3 33 32 47
3 0 260 261
3 7 6 256
3 6 5 261
3 264 13 12
3 2 261 5
3 4 3 5
3 9 8 7
3 6 261 258
3 257 256 6
3 256 253 7
3 253 256 255
3 10 9 252
3 10 252 251
3 253 252 9
3 7 253 9
3 257 6 258
3 16 15 14
3 16 14 263
3 263 17 16
3 57 26 25
3 58 25 24
3 14 13 263
3 17 263 18
3 264 11 250
3 11 264 12
3 21 20 271
3 61 60 269
3 263 19 18
3 23 269 24
3 250 11 251
3 19 263 20
3 10 251 11
3 56 26 57
3 22 21 262
3 0 261 1
3 246 245 271
3 23 22 269
3 107 87 86
3 107 86 108
3 86 85 108
3 105 90 89
3 89 88 106
3 107 88 87
3 107 106 88
3 85 84 109
3 76 75 74
3 77 76 74
3 110 109 84
3 85 109 108
3 84 83 110
3 82 111 83
3 82 81 112
3 95 93 92
3 92 91 95
3 91 90 104
3 104 95 91
3 95 94 93
3 103 97 96
3 95 104 96
3 96 104 103
3 102 97 103
3 90 105 104
3 102 98 97
3 99 98 101
3 101 100 99
3 98 102 101
3 89 106 105
3 59 58 60
3 57 25 58
3 289 70 69
3 282 265 72
3 289 282 70
3 60 58 269
3 63 275 64
3 275 63 285
3 67 66 68
3 68 66 289
3 270 65 64
3 173 172 275
3 24 269 58
3 289 274 282
3 73 72 265
3 78 265 281
3 265 78 77
3 81 80 276
3 83 111 110
3 79 78 276
3 82 112 111
3 119 118 281
3 77 74 73
3 276 281 116
3 281 120 119
3 276 78 281
3 276 112 81
3 112 276 113
3 113 276 114
3 114 276 115
3 265 120 281
3 282 71 70
3 275 270 64
3 255 254 253
3 264 250 249
3 248 264 249
3 264 247 246
3 271 245 244
3 271 263 264
3 271 264 246
3 243 242 273
3 273 241 268
3 241 240 239
3 273 242 241
3 268 239 238
3 236 235 266
3 268 266 283
3 241 239 268
3 283 266 174
3 266 176 175
3 177 176 266
3 234 178 266
3 266 178 177
3 283 174 173
3 284 172 171
3 283 285 262
3 266 235 234
3 179 234 233
3 232 231 181
3 180 233 232
3 179 233 180
3 181 180 232
3 182 181 231
3 230 267 231
3 234 179 178
3 284 171 170
3 222 221 218
3 221 219 218
3 219 221 220
3 223 222 217
3 216 224 223
3 226 225 214
3 215 225 224
3 222 218 217
3 216 215 224
3 217 216 223
3 226 214 277
3 277 212 211
3 277 214 213
3 215 214 225
3 277 211 210
3 182 231 267
3 278 286 203
3 227 277 228
3 207 272 208
3 184 278 185
3 184 183 278
3 201 200 278
3 278 199 198
3 226 277 227
3 272 207 206
3 208 272 277
3 206 205 286
3 273 262 21
3 205 204 286
3 267 183 182
3 203 202 278
3 206 286 272
3 273 21 271
3 208 277 209
3 277 210 209
3 169 168 270
3 270 284 169
3 270 168 274
3 163 279 164
3 165 287 166
3 165 164 287
3 287 120 274
3 284 170 169
3 163 162 279
3 160 288 162
3 279 288 122
3 161 160 162
3 158 280 159
3 160 280 288
3 287 164 279
3 158 156 280
3 124 123 288
3 280 160 159
3 288 280 125
3 153 129 128
3 129 152 130
3 128 127 154
3 126 155 127
3 154 127 155
3 130 152 131
3 153 128 154
3 132 131 151
3 150 133 132
3 133 149 134
3 134 148 135
3 153 152 129
3 126 280 155
3 156 155 280
3 158 157 156
3 194 189 188
3 187 195 188
3 194 190 189
3 192 190 193
3 190 192 191
3 193 190 194
3 196 187 186
3 186 185 197
3 197 185 198
3 278 198 185
3 196 195 187
3 194 188 195
3 197 196 186
3 151 150 132
3 149 133 150
3 134 149 148
3 140 137 136
3 137 139 138
3 147 136 135
3 148 147 135
3 131 152 151
3 147 146 140
3 145 144 142
3 146 145 141
3 139 137 140
3 145 142 141
3 141 140 146
3 143 142 144
3 140 136 147
3 260 259 261
3 199 278 200
3 258 261 259
3 247 264 248
3 13 264 263
3 73 265 77
3 72 71 282
3 174 266 175
3 237 236 266
3 272 230 229
3 204 203 286
3 238 237 268
3 266 268 237
3 22 262 269
3 283 262 268
3 168 167 274
3 66 65 270
3 271 244 243
3 20 263 271
3 230 272 267
3 228 272 229
3 262 273 268
3 243 273 271
3 287 167 166
3 282 120 265
3 62 285 63
3 62 61 285
3 79 276 80
3 116 115 276
3 277 272 228
3 213 212 277
3 267 278 183
3 202 201 278
3 122 121 279
3 279 121 120
3 126 125 280
3 288 125 124
3 118 117 281
3 281 117 116
3 289 69 68
3 120 282 274
3 173 275 283
3 283 275 285
3 270 275 284
3 172 284 275
3 61 269 285
3 262 285 269
3 278 267 286
3 272 286 267
3 120 287 279
3 167 287 274
3 122 288 123
3 288 279 162
3 274 289 270
3 66 270 289
