ply
format ascii 1.0
element vertex 290
property float x
property float y
property float z
property float u
property float v
element face 317
property list uchar int vertex_indices
end_header
17.4877 -364.371 0 147.636 8.36396
8.31851 -354.982 0 139.979 19.0208
6.21343 -340.962 0 140 33.201
7.82354 -327.086 0 143.678 46.6777
19.3967 -321.967 0 155.887 50
26.289 -333.289 0 161 37.7695
32.2532 -332.585 0 167 37.5736
37.4478 -320.151 0 174 49.0883
41.2088 -306.807 0 179.719 61.7193
53.7652 -309.675 0 191.704 57
58.5537 -299.209 0 198 66.6324
61.5671 -285.677 0 203 79.5613
53.6587 -278.57 0 196.239 87.7609
42.191 -271.185 0 186 96.7624
31.0338 -263.612 0 176.097 105.903
20.5641 -255.002 0 167.026 115.974
23.5266 -242.592 0 171.803 127.803
22.3455 -233.398 0 172 137.064
26.5048 -220.703 0 177.995 148.995
31.7097 -207.709 0 185.066 161.066
41.061 -197.413 0 195.844 169.844
46.9066 -184.515 0 203.622 181.622
41.4164 -179.525 0 199.605 187
27.8287 -185.006 0 186.185 183.185
14.1989 -191.031 0 172.919 179
-0.404597 -197.189 0 159.407 175.407
-15.6689 -201.718 0 145.818 174
-28.7583 -211.979 0 134 166.718
-33.2484 -227.711 0 130.265 153.265
-38.1009 -243.076 0 126 140.032
-43.7085 -258.171 0 121 127.103
-48.3999 -273.454 0 116.83 113.83
-54.1106 -287.599 0 111 101.245
-60.1199 -301.606 0 104.809 88.8092
-67.5265 -314.969 0 97.031 77.031
-73.3407 -327.822 0 90 64.9434
-76.6292 -336.326 0 85.8385 56.8385
-85.2609 -338.764 0 77 55.3289
-83.1457 -325.32 0 80.5247 68.4753
-81.3839 -318.749 0 83 74.8438
-94.9952 -315.962 0 69.8678 79.1322
-103.762 -324.065 0 60.2982 72
-112.77 -331.504 0 50.554 65.554
-115.205 -323.295 0 49 73.9741
-110.435 -311.382 0 55 85.3173
-103.353 -299.596 0 63.2955 96.2955
-91.4152 -292.615 0 75.9327 102
-79.8283 -282.155 0 86 109.276
-77.16 -265.898 0 88 123.448
-74.1892 -249.974 0 90.4379 137.438
-72.0676 -234.638 0 92 150.963
-69.649 -218.682 0 94 165.134
-67.0042 -203.72 0 97 178.892
-63.7619 -189.4 0 101 192.235
-59.5007 -175.655 0 106.116 205.116
-53.3495 -163.104 0 113.265 217
-45.8476 -165.949 0 120.43 213.43
-32.0289 -157.298 0 133.087 219.087
-18.8504 -148.239 0 145 225.052
-15.391 -140.546 0 148.809 232
-2.62029 -135.35 0 161.694 235.694
5.39697 -125.092 0 170 244.081
5.59461 -110.37 0 171 257.839
5.77207 -95.0501 0 172 272.425
8.26709 -80.2311 0 175 286.182
2.68366 -67.2402 0 169.921 299.079
-2.8226 -54.4431 0 165 312.04
-14.961 -51.0314 0 153.031 316
-21.5376 -38.8449 0 147 328.484
-29.0532 -27.7099 0 140.001 339.999
-37.9741 -16.815 0 131.516 351.484
-46.2227 -5.64196 0 123.737 363.263
-53.8062 5.65611 0 116.666 375.334
-62.985 16.331 0 108.181 386.819
-72.0444 27.4283 0 99.6956 398.304
-82.3893 37.7797 0 89.7115 409
-76.0991 43.9888 0 96.2175 415
-62.9475 48.4058 0 109.561 419
-60.0583 58.2118 0 113 429.49
-64.7551 70.6121 0 109 442.833
-67.3636 84.3006 0 107 457.005
-70.6718 97.042 0 104 470.762
-81.3033 104.166 0 92.9758 480.024
-91.372 111.657 0 82.0762 489.924
-102.162 116.996 0 70.298 497.702
-111.474 124.854 0 60.1059 507.894
-119.85 133.835 0 50.9132 519.087
-127.813 142.683 0 42.5491 529.451
-133.84 153.618 0 36.1849 541.815
-140.171 163.636 0 29 553.839
-146.479 173.113 0 21.7498 565.25
-153.827 183.68 0 13.9716 577.028
-161.291 194.746 0 6.60748 588.393
-165.06 208.149 0 3 601.898
-162.531 218.273 0 5.65576 612
-149.938 212.424 0 18.1705 606
-137.449 219.284 0 29.8989 613.899
-126.688 228.964 0 41.129 623
-115.659 238.261 0 52.4011 632
-103.581 245.212 0 64.6477 638.648
-94.3012 245.732 0 73.938 638.938
-102.097 234.466 0 65.8669 627.867
-108.665 222.149 0 59 615.711
-113.564 209.241 0 53.8459 602.846
-118.985 197.263 0 49 589.853
-115.939 189.679 0 53.4191 580
-106.06 182.577 0 64.4886 570.511
-96.2362 175.649 0 75.5491 561
-86.3986 168.661 0 86.5804 551.42
-76.5181 161.206 0 97.4802 541.52
-66.4644 154.151 0 108.537 532
-56.414 147.074 0 119.572 522.428
-45.5664 142.645 0 131.643 515.357
-33.3642 139.497 0 144.593 510.407
-21.7516 132.754 0 156 502.475
-14.0714 121.43 0 163 490.374
-6.194 110.465 0 170.514 478.486
3.54224 100.569 0 180 467.416
12.5368 89.9269 0 188.191 455.809
20.5113 78.7618 0 195.262 443.738
31.3566 71.5303 0 206.057 435
41.1188 82.908 0 216.526 444.526
51.568 94.0212 0 227.602 454
62.1263 104.469 0 238.911 462.911
73.0102 114.039 0 250.56 471
84.1766 124.027 0 262.174 479.174
96.369 133.658 0 274.245 486.245
101.813 148.836 0 280 498.862
105.455 165.135 0 284 512.205
109.072 181.402 0 288 525.548
113.429 196.431 0 293 538.477
118.818 211.15 0 298.995 550.995
126.31 226.197 0 306.773 562.773
133.803 241.312 0 314.551 574.551
142.726 255.975 0 323.743 585.743
150.853 270.826 0 332.229 597.229
159.453 284.781 0 341.421 608.421
168.053 296.862 0 351 618.867
177.486 306.125 0 361.382 627
183.495 301.794 0 366.861 622
185.096 290.895 0 367.169 610.831
199.777 291.542 0 380.582 607
213.662 289.586 0 394.339 604
226.308 283.509 0 406.311 596.689
224.931 274.615 0 404.046 588
210.493 272.044 0 389.46 587
195.69 268.203 0 374.874 586
182.337 261.272 0 361.961 583.039
176.522 247.161 0 356 572.431
172.93 230.717 0 352 559.088
169.862 214.14 0 348.527 545.527
165.685 197.901 0 344 532.403
160.935 181.58 0 339 519.474
157.311 164.909 0 335.093 506.093
153.561 148.541 0 331 492.789
152.93 131.863 0 330 479.032
154.901 115.841 0 331 464.446
160.646 104.22 0 336 452.689
151.745 95.3681 0 326.538 444.538
143.369 83.0842 0 317.345 433.345
133.553 71.9647 0 306.86 423.86
138.036 66.2958 0 311 418.459
130.732 54.2329 0 303 407.358
123.197 40.9342 0 294.768 395.768
116.085 27.7748 0 286.99 383.99
108.138 15.1166 0 278.505 372.505
100.245 2.8855 0 270 361.027
91.7358 -9.43763 0 261 349.755
86.7182 -22.2424 0 255.998 338
89.5525 -33.7644 0 259 326.483
94.0252 -46.6613 0 263 313.141
97.8468 -59.9636 0 266 299.384
101.526 -73.2084 0 269 285.626
105.626 -85.5882 0 273 272.284
116.638 -91.2683 0 284.578 264.422
129.056 -92.5542 0 297.331 261
142.947 -89.2839 0 311.917 262
153.177 -91.3213 0 322 258.155
163.072 -97.395 0 331.188 250
175.014 -92.1555 0 344.531 252
188.846 -89.2447 0 359.117 251
202.663 -86.1295 0 373.703 250
216.302 -84.0474 0 387.874 248
215.764 -70.9171 0 391 260.459
211.727 -56.3752 0 391 275.459
206.903 -42.5537 0 390 290.047
202.958 -28.0868 0 390 305.044
198.154 -14.2734 0 389 319.633
194.213 0.198898 0 389 334.633
189.411 14.0064 0 388 349.217
185.471 28.4799 0 388 364.217
182.832 42.0271 0 389.018 377.982
188.091 41.6857 0 394 376.269
189.296 29.6499 0 392 364.34
194.95 16.5024 0 394 350.169
203.635 5.69953 0 399.537 337.463
215.445 -2.68228 0 408.73 326.27
228.787 -7.61647 0 420.304 318
242.358 -10.7392 0 432.579 311.421
255.852 -14.3892 0 444.649 304.351
269.253 -18.7895 0 456.428 296.572
279.516 -27.6638 0 464 285.295
287.724 -38.7903 0 469 272.366
293.321 -51.8484 0 471 258.194
298.054 -65.561 0 472 243.608
301.777 -79.2127 0 472 229.438
305.86 -91.718 0 472.64 216.36
310.196 -105.246 0 473.238 202.238
311.655 -117.862 0 471.297 189.703
316.242 -131.844 0 471.996 174.996
317.203 -145.925 0 469.168 161.168
314.365 -159.54 0 462.804 148.804
305.844 -170.272 0 451.733 140.733
295.866 -180.016 0 439.522 134
286.068 -189.986 0 427.422 127
277.82 -201.064 0 416.52 118.52
272.704 -214.393 0 408.035 107.035
272.146 -228.289 0 403.792 93.7925
275.067 -241.843 0 403 79.9492
280.171 -252.808 0 405 68.0205
277.905 -260.481 0 400.772 61.2279
270.691 -248.534 0 397 74.6653
265.842 -234.739 0 396 89.2529
261.848 -220.283 0 396 104.253
256.994 -206.496 0 395 118.836
252.996 -192.037 0 395 133.837
248.999 -177.578 0 395 148.837
244.149 -163.783 0 394 163.422
240.15 -149.317 0 394 178.422
235.304 -135.539 0 393 193.009
231.315 -121.161 0 393 208.01
221.41 -116.132 0 384.873 215.873
207.529 -121.411 0 370.234 215
193.65 -126.561 0 355.649 214
179.687 -131.556 0 341.063 213
172.674 -140.463 0 332.72 206
158.225 -144.308 0 318.135 205
147.182 -152.864 0 306.439 198.439
141.651 -165.871 0 299.367 186.367
138.438 -177.826 0 294.581 175
145.258 -184.821 0 300.319 167
132.887 -186.862 0 287.862 166.862
130.749 -199.796 0 284 154.29
125.656 -212.814 0 277.134 142.134
120.337 -225.745 0 270 130.09
116.236 -237.331 0 264.235 119.235
112.611 -249.365 0 258.871 107.871
106.394 -260.983 0 251 97.303
99.937 -273.659 0 242.729 85.7291
91.3756 -285.257 0 232.536 75.5365
78.0351 -289.534 0 218.708 73.2917
66.9935 -294.476 0 207.052 70.0515
61.8224 -307.471 0 200 57.9727
68.9667 -316.472 0 205.713 48
75.7026 -325.621 0 211 37.9436
74.3502 -330.046 0 209 33.7725
70.8576 -340.449 0 203.989 24.0107
65.3489 -350.338 0 197.061 15.061
57.0449 -357.727 0 187.744 9
45.4335 -364.258 0 175.283 4.28345
29.8278 -369.945 0 159 1
31.444 -351.292 0 163.397 19.2
62.8258 -163.669 0 222.418 199.851
47.9911 -234.775 0 197.158 131.895
75.3406 -262.389 0 220.087 100.537
-20.4425 42.5637 0 151.861 410.94
142.176 -118.915 0 306.586 232.878
238.561 -96.3372 0 406.468 230.06
102.554 -162.471 0 261.32 195.618
26.14 -150.582 0 188.497 217.457
44.3155 -42.8941 0 212.946 320.627
82.7506 -219.033 0 233.86 142.326
272.384 -116.049 0 433.92 201.91
105.462 -189.419 0 260.625 168.349
52.5031 -3.02628 0 222.394 359.242
55.8886 -94.4945 0 221.899 268.749
-38.3534 99.5625 0 136.779 470.704
287.293 -146.796 0 440.11 168.305
250.494 -53.5725 0 429.173 267.959
79.1621 56.4567 0 251.883 414.403
113.596 102.179 0 288.938 454.209
-6.15139 67.6469 0 167.384 435.514
-14.3461 8.87962 0 156.203 376.245
92.7626 -123.768 0 256.529 235.57
67.4606 -62.0149 0 235.437 299.924
34.6933 -117.243 0 199.546 248.849
268.678 -80.8963 0 439.635 236.523
79.6671 25.0364 0 250.681 384.232
86.5746 87.4029 0 261.248 443.175
-1.45249 -17.1515 0 168.09 349.187
3 42 41 43
3 38 37 36
3 43 41 44
3 40 46 45
3 40 45 44
3 41 40 44
3 5 3 2
3 1 261 2
3 39 35 34
3 39 38 35
3 39 34 46
3 46 40 39
3 35 38 36
3 33 46 34
3 46 33 47
3 30 49 48
3 50 49 29
3 27 52 51
3 27 53 52
3 28 51 50
3 31 48 47
3 31 30 48
3 28 50 29
3 30 29 49
3 54 56 55
3 54 53 56
3 56 53 27
3 28 27 51
3 56 27 26
3 31 47 32
3 33 32 47
3 0 260 261
3 7 6 256
3 6 5 261
3 264 13 12
3 2 261 5
3 4 3 5
3 9 8 7
3 6 261 258
3 257 256 6
3 256 253 7
3 253 256 255
3 10 9 252
3 10 252 251
3 253 252 9
3 7 253 9
3 257 6 258
3 16 15 14
3 16 14 263
3 263 17 16
3 57 26 25
3 58 25 24
3 14 13 263
3 17 263 18
3 264 11 250
3 11 264 12
3 21 20 271
3 61 60 269
3 263 19 18
3 23 269 24
3 250 11 251
3 19 263 20
3 10 251 11
3 56 26 57
3 22 21 262
3 0 261 1
3 246 245 271
3 23 22 269
3 107 87 86
3 107 86 108
3 86 85 108
3 105 90 89
3 89 88 106
3 107 88 87
3 107 106 88
3 85 84 109
3 76 75 74
3 77 76 74
3 110 109 84
3 85 109 108
3 84 83 110
3 82 111 83
3 82 81 112
3 95 93 92
3 92 91 95
3 91 90 104
3 104 95 91
3 95 94 93
3 103 97 96
3 95 104 96
3 96 104 103
3 102 97 103
3 90 105 104
3 102 98 97
3 99 98 101
3 101 100 99
3 98 102 101
3 89 106 105
3 59 58 60
3 57 25 58
3 289 70 69
3 282 265 72
3 289 282 70
3 60 58 269
3 63 275 64
3 275 63 285
3 67 66 68
3 68 66 289
3 270 65 64
3 173 172 275
3 24 269 58
3 289 274 282
3 73 72 265
3 78 265 281
3 265 78 77
3 81 80 276
3 83 111 110
3 79 78 276
3 82 112 111
3 119 118 281
3 77 74 73
3 276 281 116
3 281 120 119
3 276 78 281
3 276 112 81
3 112 276 113
3 113 276 114
3 114 276 115
3 265 120 281
3 282 71 70
3 275 270 64
3 255 254 253
3 264 250 249
3 248 264 249
3 264 247 246
3 271 245 244
3 271 263 264
3 271 264 246
3 243 242 273
3 273 241 268
3 241 240 239
3 273 242 241
3 268 239 238
3 236 235 266
3 268 266 283
3 241 239 268
3 283 266 174
3 266 176 175
3 177 176 266
3 234 178 266
3 266 178 177
3 283 174 173
3 284 172 171
3 283 285 262
3 266 235 234
3 179 234 233
3 232 231 181
3 180 233 232
3 179 233 180
3 181 180 232
3 182 181 231
3 230 267 231
3 234 179 178
3 284 171 170
3 222 221 218
3 221 219 218
3 219 221 220
3 223 222 217
3 216 224 223
3 226 225 214
3 215 225 224
3 222 218 217
3 216 215 224
3 217 216 223
3 226 214 277
3 277 212 211
3 277 214 213
3 215 214 225
3 277 211 210
3 182 231 267
3 278 286 203
3 227 277 228
3 207 272 208
3 184 278 185
3 184 183 278
3 201 200 278
3 278 199 198
3 226 277 227
3 272 207 206
3 208 272 277
3 206 205 286
3 273 262 21
3 205 204 286
3 267 183 182
3 203 202 278
3 206 286 272
3 273 21 271
3 208 277 209
3 277 210 209
3 169 168 270
3 270 284 169
3 270 168 274
3 163 279 164
3 165 287 166
3 165 164 287
3 287 120 274
3 284 170 169
3 163 162 279
3 160 288 162
3 279 288 122
3 161 160 162
3 158 280 159
3 160 280 288
3 287 164 279
3 158 156 280
3 124 123 288
3 280 160 159
3 288 280 125
3 153 129 128
3 129 152 130
3 128 127 154
3 126 155 127
3 154 127 155
3 130 152 131
3 153 128 154
3 132 131 151
3 150 133 132
3 133 149 134
3 134 148 135
3 153 152 129
3 126 280 155
3 156 155 280
3 158 157 156
3 194 189 188
3 187 195 188
3 194 190 189
3 192 190 193
3 190 192 191
3 193 190 194
3 196 187 186
3 186 185 197
3 197 185 198
3 278 198 185
3 196 195 187
3 194 188 195
3 197 196 186
3 151 150 132
3 149 133 150
3 134 149 148
3 140 137 136
3 137 139 138
3 147 136 135
3 148 147 135
3 131 152 151
3 147 146 140
3 145 144 142
3 146 145 141
3 139 137 140
3 145 142 141
3 141 140 146
3 143 142 144
3 140 136 147
3 260 259 261
3 199 278 200
3 258 261 259
3 247 264 248
3 13 264 263
3 73 265 77
3 72 71 282
3 174 266 175
3 237 236 266
3 272 230 229
3 204 203 286
3 238 237 268
3 266 268 237
3 22 262 269
3 283 262 268
3 168 167 274
3 66 65 270
3 271 244 243
3 20 263 271
3 230 272 267
3 228 272 229
3 262 273 268
3 243 273 271
3 287 167 166
3 282 120 265
3 62 285 63
3 62 61 285
3 79 276 80
3 116 115 276
3 277 272 228
3 213 212 277
3 267 278 183
3 202 201 278
3 122 121 279
3 279 121 120
3 126 125 280
3 288 125 124
3 118 117 281
3 281 117 116
3 289 69 68
3 120 282 274
3 173 275 283
3 283 275 285
3 270 275 284
3 172 284 275
3 61 269 285
3 262 285 269
3 278 267 286
3 272 286 267
3 120 287 279
3 167 287 274
3 122 288 123
3 288 279 162
3 274 289 270
3 66 270 289
