ply
format ascii 1.0
element vertex 290
property float x
property float y
property float z
property float u
property float v
element face 317
property list uchar int vertex_indices
end_header
24.3596 -370.672 0 147.636 8.36396
15.0004 -361.473 0 139.979 19.0208
12.6092 -347.498 0 140 33.201
13.9352 -333.592 0 143.678 46.6777
25.4013 -328.238 0 155.887 50
32.5236 -339.417 0 161 37.7695
38.4722 -338.59 0 167 37.5736
43.4115 -326.053 0 174 49.0883
46.8989 -312.635 0 179.719 61.7193
59.5113 -315.245 0 191.704 57
64.085 -304.684 0 198 66.6324
66.8213 -291.094 0 203 79.5613
58.7691 -284.149 0 196.239 87.7609
47.152 -276.998 0 186 96.7624
35.8415 -269.653 0 176.097 105.903
25.1985 -261.259 0 167.026 115.974
27.9073 -248.79 0 171.803 127.803
26.5392 -239.622 0 172 137.064
30.4394 -226.845 0 177.995 148.995
35.3786 -213.747 0 185.066 161.066
44.5158 -203.261 0 195.844 169.844
50.072 -190.237 0 203.622 181.622
44.3191 -185.343 0 199.605 187
30.6521 -191.068 0 186.185 183.185
16.9169 -197.364 0 172.919 179
2.07061 -203.935 0 159.407 175.407
-13.5259 -208.974 0 145.818 174
-26.9173 -219.734 0 134 166.718
-31.6743 -235.898 0 130.265 153.265
-36.7625 -251.658 0 126 140.032
-42.6097 -267.149 0 121 127.103
-47.5324 -282.804 0 116.83 113.83
-53.3517 -297.209 0 111 101.245
-59.4594 -311.47 0 104.809 88.8092
-66.9251 -325.067 0 97.031 77.031
-72.639 -337.991 0 90 64.9434
-75.8493 -346.527 0 85.8385 56.8385
-84.4582 -349.045 0 77 55.3289
-82.4689 -335.582 0 80.5247 68.4753
-80.774 -329 0 83 74.8438
-94.4308 -326.358 0 69.8678 79.1322
-103.121 -334.543 0 60.2982 72
-112.06 -342.066 0 50.554 65.554
-114.572 -333.881 0 49 73.9741
-109.914 -321.924 0 55 85.3173
-102.943 -310.073 0 63.2955 96.2955
-91.0764 -302.985 0 75.9327 102
-79.1226 -292 0 86 109.276
-76.1836 -275.342 0 88 123.448
-72.9753 -259.053 0 90.4379 137.438
-70.6189 -243.366 0 92 150.963
-67.9892 -227.068 0 94 165.134
-65.2885 -211.899 0 97 178.892
-62.0739 -197.432 0 101 192.235
-57.8717 -183.567 0 106.116 205.116
-51.8195 -170.945 0 113.265 217
-44.28 -173.706 0 120.43 213.43
-30.1955 -164.571 0 133.087 219.087
-16.7321 -155.002 0 145 225.052
-13.2961 -147.202 0 148.809 232
-0.526846 -141.816 0 161.694 235.694
7.4673 -131.293 0 170 244.081
7.56027 -116.432 0 171 257.839
7.61864 -101.007 0 172 272.425
10.019 -86.0214 0 175 286.182
4.35363 -73.0001 0 169.921 299.079
-1.23611 -60.217 0 165 312.04
-13.3963 -56.8773 0 153.031 316
-20.0453 -44.7307 0 147 328.484
-27.6297 -33.6489 0 140.001 339.999
-36.6058 -22.8382 0 131.516 351.484
-44.9155 -11.7564 0 123.737 363.263
-52.5648 -0.581572 0 116.666 375.334
-61.8402 9.95259 0 108.181 386.819
-70.9905 20.9807 0 99.6956 398.304
-81.392 31.2757 0 89.7115 409
-75.1367 37.5172 0 96.2175 415
-62.0173 41.9988 0 109.561 419
-59.2201 51.6789 0 113 429.49
-64.0468 63.904 0 109 442.833
-66.7747 77.4924 0 107 457.005
-70.1712 90.0435 0 104 470.762
-80.8031 96.7951 0 92.9758 480.024
-90.8244 103.889 0 82.0762 489.924
-101.538 108.819 0 70.298 497.702
-110.809 116.291 0 60.1059 507.894
-119.163 124.905 0 50.9132 519.087
-127.152 133.483 0 42.5491 529.451
-133.23 144.172 0 36.1849 541.815
-139.552 153.863 0 29 553.839
-145.839 163.025 0 21.7498 565.25
-153.234 173.366 0 13.9716 577.028
-160.805 184.335 0 6.60748 588.393
-164.694 197.696 0 3 601.898
-162.255 207.841 0 5.65576 612
-149.611 202.102 0 18.1705 606
-137.11 208.914 0 29.8989 613.899
-126.491 218.761 0 41.129 623
-115.575 228.192 0 52.4011 632
-103.58 235.285 0 64.6477 638.648
-94.3072 235.915 0 73.938 638.938
-101.969 224.557 0 65.8669 627.867
-108.392 212.164 0 59 615.711
-113.145 199.211 0 53.8459 602.846
-118.524 187.323 0 49 589.853
-115.568 180.072 0 53.4191 580
-105.762 173.371 0 64.4886 570.511
-96.0164 166.866 0 75.5491 561
-86.2526 160.3 0 86.5804 551.42
-76.4235 153.244 0 97.4802 541.52
-66.4235 146.588 0 108.537 532
-56.4253 139.907 0 119.572 522.428
-45.6808 135.892 0 131.643 515.357
-33.5533 133.042 0 144.593 510.407
-21.869 126.519 0 156 502.475
-14.0279 115.331 0 163 490.374
-6.03748 104.498 0 170.514 478.486
3.7745 94.7746 0 180 467.416
12.9193 84.2843 0 188.191 455.809
21.0545 73.2509 0 195.262 443.738
31.9401 66.217 0 206.057 435
41.6269 77.8854 0 216.526 444.526
52.0096 89.2528 0 227.602 454
62.485 99.9265 0 238.911 462.911
73.285 109.698 0 250.56 471
84.4175 119.942 0 262.174 479.174
96.6575 129.958 0 274.245 486.245
102.105 145.549 0 280 498.862
105.746 162.329 0 284 512.205
109.361 179.069 0 288 525.548
113.687 194.421 0 293 538.477
119.049 209.471 0 298.995 550.995
126.552 225.015 0 306.773 562.773
134.059 240.636 0 314.551 574.551
142.999 255.816 0 323.743 585.743
151.137 271.168 0 332.229 597.229
159.723 285.512 0 341.421 608.421
168.258 297.776 0 351 618.867
177.615 307.124 0 361.382 627
183.662 302.849 0 366.861 622
185.364 291.994 0 367.169 610.831
200.179 293.261 0 380.582 607
214.062 291.336 0 394.339 604
226.748 285.339 0 406.311 596.689
225.428 276.433 0 404.046 588
211.005 273.75 0 389.46 587
196.172 269.582 0 374.874 586
182.759 262.113 0 361.961 583.039
176.915 247.468 0 356 572.431
173.317 230.54 0 352 559.088
170.245 213.485 0 348.527 545.527
166.062 196.76 0 344 532.403
161.296 179.909 0 339 519.474
157.663 162.714 0 335.093 506.093
153.915 145.864 0 331 492.789
153.291 128.707 0 330 479.032
155.351 112.461 0 331 464.446
161.156 100.84 0 336 452.689
152.304 91.9293 0 326.538 444.538
144.014 79.5319 0 317.345 433.345
134.283 68.2155 0 306.86 423.86
138.811 62.4968 0 311 418.459
131.589 50.3141 0 303 407.358
124.155 36.7825 0 294.768 395.768
117.142 23.4375 0 286.99 383.99
109.276 10.6224 0 278.505 372.505
101.47 -1.70279 0 270 361.027
93.0493 -14.1739 0 261 349.755
88.06 -27.1536 0 255.998 338
90.8813 -38.7065 0 259 326.483
95.4169 -51.5478 0 263 313.141
99.3518 -64.7833 0 266 299.384
103.126 -77.9622 0 269 285.626
107.233 -90.2353 0 273 272.284
118.152 -95.6365 0 284.578 264.422
130.506 -96.6254 0 297.331 261
144.261 -93.0221 0 311.917 262
154.497 -94.7812 0 322 258.155
164.519 -100.53 0 331.188 250
176.301 -94.8186 0 344.531 252
190.092 -91.3042 0 359.117 251
203.856 -87.5488 0 373.703 250
217.442 -84.828 0 387.874 248
216.359 -71.6934 0 391 260.459
211.695 -57.3365 0 391 275.459
206.269 -43.741 0 390 290.047
201.687 -29.4634 0 390 305.044
196.276 -15.8764 0 389 319.633
191.697 -1.59287 0 389 334.633
186.289 11.9884 0 388 349.217
181.711 26.2729 0 388 364.217
178.475 39.6899 0 389.018 377.982
183.743 39.5818 0 394 376.269
185.481 27.6113 0 392 364.34
191.712 14.7274 0 394 350.169
200.867 4.31969 0 399.537 337.463
213.037 -3.53076 0 408.73 326.27
226.584 -7.86914 0 420.304 318
240.282 -10.3887 0 432.579 311.421
253.924 -13.4387 0 444.649 304.351
267.506 -17.2415 0 456.428 296.572
278.152 -25.6518 0 464 285.295
286.847 -36.4006 0 469 272.366
293.025 -49.1869 0 471 258.194
298.366 -62.6663 0 472 243.608
302.685 -76.1421 0 472 229.438
307.298 -88.4718 0 472.64 216.36
312.207 -101.812 0 473.238 202.238
314.216 -114.356 0 471.297 189.703
319.415 -128.121 0 471.996 174.996
320.997 -142.146 0 469.168 161.168
318.763 -155.874 0 462.804 148.804
310.725 -166.973 0 451.733 140.733
301.187 -177.149 0 439.522 134
291.838 -187.542 0 427.422 127
284.088 -198.973 0 416.52 118.52
279.565 -212.515 0 408.035 107.035
279.622 -226.422 0 403.792 93.7925
283.139 -239.834 0 403 79.9492
288.723 -250.562 0 405 68.0205
286.798 -258.328 0 400.772 61.2279
279.063 -246.711 0 397 74.6653
273.61 -233.144 0 396 89.2529
268.98 -218.879 0 396 104.253
263.522 -205.319 0 395 118.836
258.89 -191.052 0 395 133.837
254.257 -176.783 0 395 148.837
248.802 -163.215 0 394 163.422
244.165 -148.939 0 394 178.422
238.706 -135.391 0 393 193.009
234.056 -121.222 0 393 208.01
223.831 -116.709 0 384.873 215.873
209.989 -122.694 0 370.234 215
196.138 -128.505 0 355.649 214
182.172 -134.135 0 341.063 213
175.306 -143.337 0 332.72 206
160.887 -147.629 0 318.135 205
149.925 -156.499 0 306.439 198.439
144.588 -169.646 0 299.367 186.367
141.587 -181.679 0 294.581 175
148.54 -188.526 0 300.319 167
136.198 -190.836 0 287.862 166.862
134.281 -203.814 0 284 154.29
129.431 -216.938 0 277.134 142.134
124.363 -229.973 0 270 130.09
120.497 -241.64 0 264.235 119.235
117.116 -253.747 0 258.871 107.871
111.135 -265.489 0 251 97.303
104.938 -278.294 0 242.729 85.7291
96.6155 -290.065 0 232.536 75.5365
83.3649 -294.613 0 218.708 73.2917
72.4263 -299.779 0 207.052 70.0515
67.5218 -312.878 0 200 57.9727
74.8487 -321.731 0 205.713 48
81.7701 -330.74 0 211 37.9436
80.5086 -335.192 0 209 33.7725
77.2292 -345.664 0 203.989 24.0107
71.924 -355.663 0 197.061 15.061
63.7728 -363.221 0 187.744 9
52.2972 -369.988 0 175.283 4.28345
36.8111 -375.993 0 159 1
38.0457 -357.31 0 163.397 19.2
65.5608 -169.076 0 222.418 199.851
52.2075 -240.477 0 197.158 131.895
80.1167 -267.53 0 220.087 100.537
-19.4853 36.5222 0 151.861 410.94
144.208 -122.67 0 306.586 232.878
240.226 -96.1079 0 406.468 230.06
105.406 -167.093 0 261.32 195.618
28.4778 -156.653 0 188.497 217.457
45.7798 -48.2785 0 212.946 320.627
86.6418 -224.032 0 233.86 142.326
274.904 -114.282 0 433.92 201.91
108.769 -193.972 0 260.625 168.349
53.7666 -8.18991 0 222.394 359.242
57.7319 -99.8768 0 221.899 268.749
-37.9217 93.0656 0 136.779 470.704
291.155 -144.339 0 440.11 168.305
250.304 -52.8211 0 429.173 267.959
80.0024 51.9432 0 251.883 414.403
114.118 98.4741 0 288.938 454.209
-5.40413 61.7013 0 167.384 435.514
-13.1331 2.99407 0 156.203 376.245
94.9137 -128.617 0 256.529 235.57
69.009 -67.203 0 235.437 299.924
36.7228 -123.036 0 199.546 248.849
269.7 -79.2762 0 439.635 236.523
80.7386 20.3211 0 250.681 384.232
87.1756 83.2125 0 261.248 443.175
-0.102981 -22.9023 0 168.09 349.187
3 42 41 43
3 38 37 36
3 43 41 44
3 40 46 45
3 40 45 44
3 41 40 44
3 5 3 2
3 1 261 2
3 39 35 34
3 39 38 35
3 39 34 46
3 46 40 39
3 35 38 36
3 33 46 34
3 46 33 47
3 30 49 48
3 50 49 29
3 27 52 51
3 27 53 52
3 28 51 50
3 31 48 47
3 31 30 48
3 28 50 29
3 30 29 49
3 54 56 55
3 54 53 56
3 56 53 27
3 28 27 51
3 56 27 26
3 31 47 32
3 33 32 47
3 0 260 261
3 7 6 256
3 6 5 261
3 264 13 12
3 2 261 5
3 4 3 5
3 9 8 7
3 6 261 258
3 257 256 6
3 256 253 7
3 253 256 255
3 10 9 252
3 10 252 251
3 253 252 9
3 7 253 9
3 257 6 258
3 16 15 14
3 16 14 263
3 263 17 16
3 57 26 25
3 58 25 24
3 14 13 263
3 17 263 18
3 264 11 250
3 11 264 12
3 21 20 271
3 61 60 269
3 263 19 18
3 23 269 24
3 250 11 251
3 19 263 20
3 10 251 11
3 56 26 57
3 22 21 262
3 0 261 1
3 246 245 271
3 23 22 269
3 107 87 86
3 107 86 108
3 86 85 108
3 105 90 89
3 89 88 106
3 107 88 87
3 107 106 88
3 85 84 109
3 76 75 74
3 77 76 74
3 110 109 84
3 85 109 108
3 84 83 110
3 82 111 83
3 82 81 112
3 95 93 92
3 92 91 95
3 91 90 104
3 104 95 91
3 95 94 93
3 103 97 96
3 95 104 96
3 96 104 103
3 102 97 103
3 90 105 104
3 102 98 97
3 99 98 101
3 101 100 99
3 98 102 101
3 89 106 105
3 59 58 60
3 57 25 58
3 289 70 69
3 282 265 72
3 289 282 70
3 60 58 269
3 63 275 64
3 275 63 285
3 67 66 68
3 68 66 289
3 270 65 64
3 173 172 275
3 24 269 58
3 289 274 282
3 73 72 265
3 78 265 281
3 265 78 77
3 81 80 276
3 83 111 110
3 79 78 276
3 82 112 111
3 119 118 281
3 77 74 73
3 276 281 116
3 281 120 119
3 276 78 281
3 276 112 81
3 112 276 113
3 113 276 114
3 114 276 115
3 265 120 281
3 282 71 70
3 275 270 64
3 255 254 253
3 264 250 249
3 248 264 249
3 264 247 246
3 271 245 244
3 271 263 264
3 271 264 246
3 243 242 273
3 273 241 268
3 241 240 239
3 273 242 241
3 268 239 238
3 236 235 266
3 268 266 283
3 241 239 268
3 283 266 174
3 266 176 175
3 177 176 266
3 234 178 266
3 266 178 177
3 283 174 173
3 284 172 171
3 283 285 262
3 266 235 234
3 179 234 233
3 232 231 181
3 180 233 232
3 179 233 180
3 181 180 232
3 182 181 231
3 230 267 231
3 234 179 178
3 284 171 170
3 222 221 218
3 221 219 218
3 219 221 220
3 223 222 217
3 216 224 223
3 226 225 214
3 215 225 224
3 222 218 217
3 216 215 224
3 217 216 223
3 226 214 277
3 277 212 211
3 277 214 213
3 215 214 225
3 277 211 210
3 182 231 267
3 278 286 203
3 227 277 228
3 207 272 208
3 184 278 185
3 184 183 278
3 201 200 278
3 278 199 198
3 226 277 227
3 272 207 206
3 208 272 277
3 206 205 286
3 273 262 21
3 205 204 286
3 267 183 182
3 203 202 278
3 206 286 272
3 273 21 271
3 208 277 209
3 277 210 209
3 169 168 270
3 270 284 169
3 270 168 274
3 163 279 164
3 165 287 166
3 165 164 287
3 287 120 274
3 284 170 169
3 163 162 279
3 160 288 162
3 279 288 122
3 161 160 162
3 158 280 159
3 160 280 288
3 287 164 279
3 158 156 280
3 124 123 288
3 280 160 159
3 288 280 125
3 153 129 128
3 129 152 130
3 128 127 154
3 126 155 127
3 154 127 155
3 130 152 131
3 153 128 154
3 132 131 151
3 150 133 132
3 133 149 134
3 134 148 135
3 153 152 129
3 126 280 155
3 156 155 280
3 158 157 156
3 194 189 188
3 187 195 188
3 194 190 189
3 192 190 193
3 190 192 191
3 193 190 194
3 196 187 186
3 186 185 197
3 197 185 198
3 278 198 185
3 196 195 187
3 194 188 195
3 197 196 186
3 151 150 132
3 149 133 150
3 134 149 148
3 140 137 136
3 137 139 138
3 147 136 135
3 148 147 135
3 131 152 151
3 147 146 140
3 145 144 142
3 146 145 141
3 139 137 140
3 145 142 141
3 141 140 146
3 143 142 144
3 140 136 147
3 260 259 261
3 199 278 200
3 258 261 259
3 247 264 248
3 13 264 263
3 73 265 77
3 72 71 282
3 174 266 175
3 237 236 266
3 272 230 229
3 204 203 286
3 238 237 268
3 266 268 237
3 22 262 269
3 283 262 268
3 168 167 274
3 66 65 270
3 271 244 243
3 20 263 271
3 230 272 267
3 228 272 229
3 262 273 268
3 243 273 271
3 287 167 166
3 282 120 265
3 62 285 63
3 62 61 285
3 79 276 80
3 116 115 276
3 277 272 228
3 213 212 277
3 267 278 183
3 202 201 278
3 122 121 279
3 279 121 120
3 126 125 280
3 288 125 124
3 118 117 281
3 281 117 116
3 289 69 68
3 120 282 274
3 173 275 283
3 283 275 285
3 270 275 284
3 172 284 275
3 61 269 285
3 262 285 269
3 278 267 286
3 272 286 267
3 120 287 279
3 167 287 274
3 122 288 123
3 288 279 162
3 274 289 270
3 66 270 289
