ply
format ascii 1.0
element vertex 290
property float x
property float y
property float z
property float u
property float v
element face 317
property list uchar int vertex_indices
end_header
61.3551 -394.22 0 147.636 8.36396
51.1711 -385.944 0 139.979 19.0208
47.4737 -372.257 0 140 33.201
47.4829 -358.289 0 143.678 46.6777
58.3933 -351.877 0 155.887 50
66.5378 -362.335 0 161 37.7695
72.382 -360.952 0 167 37.5736
76.1178 -348.005 0 174 49.0883
78.3251 -334.317 0 179.719 61.7193
91.1274 -335.728 0 191.704 57
94.6863 -324.782 0 198 66.6324
96.1312 -310.995 0 203 79.5613
87.4605 -304.836 0 196.239 87.7609
75.2201 -298.804 0 186 96.7624
63.267 -292.549 0 176.097 105.903
51.8825 -285.191 0 167.026 115.974
53.4081 -272.523 0 171.803 127.803
51.1852 -263.521 0 172 137.064
53.8699 -250.432 0 177.995 148.995
57.5597 -236.924 0 185.066 161.066
65.6702 -225.616 0 195.844 169.844
69.9344 -212.059 0 203.622 181.622
63.4068 -207.503 0 199.605 187
49.9159 -214.276 0 186.185 183.185
36.2846 -221.748 0 172.919 179
21.2885 -229.918 0 159.407 175.407
5.28575 -236.892 0 145.818 174
-8.19153 -249.453 0 134 166.718
-12.6858 -266.864 0 130.265 153.265
-17.454 -283.803 0 126 140.032
-22.9888 -300.509 0 121 127.103
-27.558 -317.281 0 116.83 113.83
-32.8034 -332.576 0 111 101.245
-38.3094 -347.736 0 104.809 88.8092
-45.1086 -362.264 0 97.031 77.031
-49.8569 -375.632 0 90 64.9434
-52.4056 -384.393 0 85.8385 56.8385
-60.7965 -387.565 0 77 55.3289
-59.847 -373.989 0 80.5247 68.4753
-58.674 -367.308 0 83 74.8438
-72.5369 -365.766 0 69.8678 79.1322
-80.5743 -374.595 0 60.2982 72
-88.9086 -382.782 0 50.554 65.554
-92.0416 -374.813 0 49 73.9741
-88.3156 -362.534 0 55 85.3173
-82.2783 -350.186 0 63.2955 96.2955
-71.0027 -342.22 0 75.9327 102
-58.9064 -329.309 0 86 109.276
-56.2999 -311.527 0 88 123.448
-53.4532 -294.183 0 90.4379 137.438
-51.4135 -277.517 0 92 150.963
-49.1694 -260.256 0 94 165.134
-47.115 -244.445 0 97 178.892
-44.6799 -229.457 0 101 192.235
-41.2625 -215.118 0 106.116 205.116
-36.0019 -202.091 0 113.265 217
-28.2821 -204.322 0 120.43 213.43
-14.1034 -193.362 0 133.087 219.087
-0.517391 -181.926 0 145 225.052
2.53783 -173.7 0 148.809 232
15.0537 -167.324 0 161.694 235.694
22.5868 -155.681 0 170 244.081
22.006 -140.288 0 171 257.839
21.4444 -124.444 0 172 272.425
23.4668 -108.81 0 175 286.182
17.4966 -95.7469 0 169.921 299.079
11.5618 -83.0795 0 165 312.04
-0.684336 -80.0896 0 153.031 316
-7.66637 -68.1431 0 147 328.484
-15.5519 -57.2958 0 140.001 339.999
-24.7658 -46.851 0 131.516 351.484
-33.3308 -36.1385 0 123.737 363.263
-41.2506 -25.4466 0 116.666 375.334
-50.9185 -15.4003 0 108.181 386.819
-60.3698 -4.57617 0 99.6956 398.304
-70.9394 5.55035 0 89.7115 409
-64.7903 11.8866 0 96.2175 415
-51.7771 16.5599 0 109.561 419
-49.2497 25.758 0 113 429.49
-54.4251 37.4022 0 109 442.833
-57.4083 50.7276 0 107 457.005
-60.8086 62.6754 0 104 470.762
-70.9931 68.211 0 92.9758 480.024
-80.1685 73.9225 0 82.0762 489.924
-89.9584 77.4969 0 70.298 497.702
-98.2982 83.6698 0 60.1059 507.894
-105.717 91.0665 0 50.9132 519.087
-113.088 98.9079 0 42.5491 529.451
-118.508 108.87 0 36.1849 541.815
-123.766 117.516 0 29 553.839
-128.894 125.731 0 21.7498 565.25
-135.448 135.702 0 13.9716 577.028
-142.518 146.904 0 6.60748 588.393
-145.809 160.4 0 3 601.898
-142.924 170.422 0 5.65576 612
-130.545 164.124 0 18.1705 606
-117.037 169.679 0 29.8989 613.899
-106.266 179.348 0 41.129 623
-95.0359 188.399 0 52.4011 632
-82.7972 195.063 0 64.6477 638.648
-73.5076 195.363 0 73.938 638.938
-81.569 184.285 0 65.8669 627.867
-88.4318 172.132 0 59 615.711
-93.6943 159.411 0 53.8459 602.846
-100.21 148.491 0 49 589.853
-98.7794 142.677 0 53.4191 580
-90.3028 137.26 0 64.4886 570.511
-81.8779 132.208 0 75.5491 561
-73.3747 127.12 0 86.5804 551.42
-64.6659 121.471 0 97.4802 541.52
-55.7441 116.254 0 108.537 532
-46.7961 111.061 0 119.572 522.428
-37.212 108.64 0 131.643 515.357
-25.851 106.832 0 144.593 510.407
-14.2399 100.985 0 156 502.475
-6.167 90.2903 0 163 490.374
1.8467 80.0632 0 170.514 478.486
11.6214 71.0921 0 180 467.416
21.1435 61.2545 0 188.191 455.809
29.7402 50.8676 0 195.262 443.738
40.4966 44.8603 0 206.057 435
49.5902 57.6809 0 216.526 444.526
59.4483 70.0661 0 227.602 454
69.3228 81.6801 0 238.911 462.911
79.509 92.3593 0 250.56 471
90.1908 103.77 0 262.174 479.174
102.267 115.5 0 274.245 486.245
107.251 132.796 0 280 498.862
110.362 151.539 0 284 512.205
113.43 170.223 0 288 525.548
117.112 186.951 0 293 538.477
121.846 203.451 0 298.995 550.995
128.845 221.189 0 306.773 562.773
135.839 239.049 0 314.551 574.551
144.273 256.563 0 323.743 585.743
151.853 274.172 0 332.229 597.229
159.787 290.359 0 341.421 608.421
167.527 303.673 0 351 618.867
176.16 313.723 0 361.382 627
182.521 309.94 0 366.861 622
185.077 299.36 0 367.169 610.831
200.372 303.743 0 380.582 607
214.287 302.571 0 394.339 604
227.365 297.482 0 406.311 596.689
226.681 288.492 0 404.046 588
212.468 284.722 0 389.46 587
197.712 278.595 0 374.874 586
184.342 268.413 0 361.961 583.039
178.935 251.419 0 356 572.431
175.927 232.429 0 352 559.088
173.436 213.365 0 348.527 545.527
169.799 194.556 0 344 532.403
165.534 175.429 0 339 519.474
162.414 156.028 0 335.093 506.093
159.195 137.125 0 331 492.789
159.105 118.019 0 330 479.032
161.96 100.868 0 331 464.446
168.297 89.3886 0 336 452.689
159.876 79.9989 0 326.538 444.538
152.203 66.8771 0 317.345 433.345
143.013 54.468 0 306.86 423.86
147.795 48.5809 0 311 418.459
141.089 35.7767 0 303 407.358
134.209 21.1224 0 294.768 395.768
127.695 6.87107 0 286.99 383.99
120.219 -6.71045 0 278.505 372.505
112.806 -19.5123 0 270 361.027
104.713 -32.6471 0 261 349.755
99.7468 -46.3068 0 255.998 338
102.461 -57.8804 0 259 326.483
107.241 -70.4442 0 263 313.141
111.612 -83.3704 0 266 299.384
115.734 -96.1814 0 269 285.626
119.778 -107.829 0 273 272.284
130.051 -111.966 0 284.578 264.422
141.93 -111.716 0 297.331 261
155.018 -106.828 0 311.917 262
165.102 -107.506 0 322 258.155
175.161 -111.973 0 331.188 250
185.337 -104.543 0 344.531 252
197.745 -98.803 0 359.117 251
210.052 -92.6877 0 373.703 250
222.365 -87.5813 0 387.874 248
218.659 -74.7402 0 391 260.459
211.425 -61.4249 0 391 275.459
203.649 -49.0112 0 390 290.047
196.603 -35.7766 0 390 305.044
188.863 -23.3673 0 389 319.633
181.82 -10.1247 0 389 334.633
174.085 2.27937 0 388 349.217
167.04 15.5218 0 388 364.217
161.471 28.1502 0 389.018 377.982
166.675 28.9801 0 394 376.269
170.512 17.5091 0 392 364.34
178.935 5.93867 0 394 350.169
189.793 -2.67695 0 399.537 337.463
203.164 -8.24009 0 408.73 326.27
217.266 -10.1023 0 420.304 318
231.194 -10.1529 0 432.579 311.421
245.154 -10.7358 0 444.649 304.351
259.189 -12.0644 0 456.428 296.572
271.152 -18.4437 0 464 285.295
281.597 -27.4627 0 469 272.366
289.875 -38.9116 0 471 258.194
297.446 -51.1895 0 472 243.608
304.08 -63.68 0 472 229.438
310.844 -75.0347 0 472.64 216.36
318.093 -87.3271 0 473.238 202.238
322.319 -99.322 0 471.297 189.703
329.896 -111.931 0 471.996 174.996
333.966 -125.446 0 469.168 161.168
334.23 -139.353 0 462.804 148.804
328.31 -151.714 0 451.733 140.733
320.749 -163.435 0 439.522 134
313.411 -175.334 0 427.422 127
307.835 -187.969 0 416.52 118.52
305.812 -202.102 0 408.035 107.035
308.359 -215.774 0 403.792 93.7925
314.223 -228.339 0 403 79.9492
321.639 -237.892 0 405 68.0205
321.137 -245.878 0 400.772 61.2279
311.445 -235.835 0 397 74.6653
303.65 -223.465 0 396 89.2529
296.538 -210.26 0 396 104.253
288.739 -197.898 0 395 118.836
281.625 -184.691 0 395 133.837
274.51 -171.481 0 395 148.837
266.711 -159.107 0 394 163.422
259.589 -145.887 0 394 178.422
251.802 -133.542 0 393 193.009
244.73 -120.481 0 393 208.01
234.022 -118.091 0 384.873 215.873
221.701 -126.726 0 370.234 215
209.244 -135.019 0 355.649 214
196.579 -143.029 0 341.063 213
190.942 -153.254 0 332.72 206
176.992 -159.309 0 318.135 205
166.708 -169.364 0 306.439 198.439
162.47 -182.935 0 299.367 186.367
160.529 -195.183 0 294.581 175
168.071 -201.303 0 300.319 167
155.969 -204.785 0 287.862 166.862
155.19 -217.821 0 284 154.29
151.541 -231.318 0 277.134 142.134
147.691 -244.743 0 270 130.09
144.93 -256.717 0 264.235 119.235
142.696 -269.086 0 258.871 107.871
137.843 -281.335 0 251 97.303
132.877 -294.666 0 242.729 85.7291
125.698 -307.168 0 232.536 75.5365
112.933 -312.943 0 218.708 73.2917
102.529 -319.115 0 207.052 70.0515
98.8793 -332.616 0 200 57.9727
107.008 -340.739 0 205.713 48
114.748 -349.055 0 211 37.9436
113.911 -353.606 0 209 33.7725
111.633 -364.341 0 203.989 24.0107
107.294 -374.796 0 197.061 15.061
99.8913 -383.089 0 187.744 9
89.1042 -390.907 0 175.283 4.28345
74.2525 -398.344 0 159 1
73.7216 -379.629 0 163.397 19.2
83.4051 -189.5 0 222.418 199.851
76.8203 -261.965 0 197.158 131.895
107.152 -286.285 0 220.087 100.537
-9.21169 12.2516 0 151.861 410.94
157.789 -136.362 0 306.586 232.878
246.414 -94.6639 0 406.468 230.06
123.181 -184.106 0 261.32 195.618
45.098 -180.067 0 188.497 217.457
57.9504 -69.3333 0 212.946 320.627
109.566 -242.376 0 233.86 142.326
283.636 -106.29 0 433.92 201.91
128.829 -210.442 0 260.625 168.349
65.1824 -28.5422 0 222.394 359.242
71.4679 -120.625 0 221.899 268.749
-28.8803 66.9022 0 136.779 470.704
305.001 -132.954 0 440.11 168.305
248.588 -50.1368 0 429.173 267.959
89.4537 34.2311 0 251.883 414.403
121.443 84.5397 0 288.938 454.209
4.22222 37.5811 0 167.384 435.514
-1.90914 -20.5327 0 156.203 376.245
109.713 -146.815 0 256.529 235.57
81.491 -87.2745 0 235.437 299.924
51.4229 -145.455 0 199.546 248.849
272.157 -72.6124 0 439.635 236.523
91.3519 1.84588 0 250.681 384.232
95.1969 66.8381 0 261.248 443.175
11.6442 -45.7348 0 168.09 349.187
3 42 41 43
3 38 37 36
3 43 41 44
3 40 46 45
3 40 45 44
3 41 40 44
3 5 3 2
3 1 261 2
3 39 35 34
3 39 38 35
3 39 34 46
3 46 40 39
3 35 38 36
3 33 46 34
3 46 33 47
3 30 49 48
3 50 49 29
3 27 52 51
3 27 53 52
3 28 51 50
3 31 48 47
3 31 30 48
3 28 50 29
3 30 29 49
3 54 56 55
3 54 53 56
3 56 53 27
3 28 27 51
3 56 27 26
3 31 47 32
3 33 32 47
3 0 260 261
3 7 6 256
3 6 5 261
3 264 13 12
3 2 261 5
3 4 3 5
3 9 8 7
3 6 261 258
3 257 256 6
3 256 253 7
3 253 256 255
3 10 9 252
3 10 252 251
3 253 252 9
3 7 253 9
3 257 6 258
3 16 15 14
3 16 14 263
3 263 17 16
3 57 26 25
3 58 25 24
3 14 13 263
3 17 263 18
3 264 11 250
3 11 264 12
3 21 20 271
3 61 60 269
3 263 19 18
3 23 269 24
3 250 11 251
3 19 263 20
3 10 251 11
3 56 26 57
3 22 21 262
3 0 261 1
3 246 245 271
3 23 22 269
3 107 87 86
3 107 86 108
3 86 85 108
3 105 90 89
3 89 88 106
3 107 88 87
3 107 106 88
3 85 84 109
3 76 75 74
3 77 76 74
3 110 109 84
3 85 109 108
3 84 83 110
3 82 111 83
3 82 81 112
3 95 93 92
3 92 91 95
3 91 90 104
3 104 95 91
3 95 94 93
3 103 97 96
3 95 104 96
3 96 104 103
3 102 97 103
3 90 105 104
3 102 98 97
3 99 98 101
3 101 100 99
3 98 102 101
3 89 106 105
3 59 58 60
3 57 25 58
3 289 70 69
3 282 265 72
3 289 282 70
3 60 58 269
3 63 275 64
3 275 63 285
3 67 66 68
3 68 66 289
3 270 65 64
3 173 172 275
3 24 269 58
3 289 274 282
3 73 72 265
3 78 265 281
3 265 78 77
3 81 80 276
3 83 111 110
3 79 78 276
3 82 112 111
3 119 118 281
3 77 74 73
3 276 281 116
3 281 120 119
3 276 78 281
3 276 112 81
3 112 276 113
3 113 276 114
3 114 276 115
3 265 120 281
3 282 71 70
3 275 270 64
3 255 254 253
3 264 250 249
3 248 264 249
3 264 247 246
3 271 245 244
3 271 263 264
3 271 264 246
3 243 242 273
3 273 241 268
3 241 240 239
3 273 242 241
3 268 239 238
3 236 235 266
3 268 266 283
3 241 239 268
3 283 266 174
3 266 176 175
3 177 176 266
3 234 178 266
3 266 178 177
3 283 174 173
3 284 172 171
3 283 285 262
3 266 235 234
3 179 234 233
3 232 231 181
3 180 233 232
3 179 233 180
3 181 180 232
3 182 181 231
3 230 267 231
3 234 179 178
3 284 171 170
3 222 221 218
3 221 219 218
3 219 221 220
3 223 222 217
3 216 224 223
3 226 225 214
3 215 225 224
3 222 218 217
3 216 215 224
3 217 216 223
3 226 214 277
3 277 212 211
3 277 214 213
3 215 214 225
3 277 211 210
3 182 231 267
3 278 286 203
3 227 277 228
3 207 272 208
3 184 278 185
3 184 183 278
3 201 200 278
3 278 199 198
3 226 277 227
3 272 207 206
3 208 272 277
3 206 205 286
3 273 262 21
3 205 204 286
3 267 183 182
3 203 202 278
3 206 286 272
3 273 21 271
3 208 277 209
3 277 210 209
3 169 168 270
3 270 284 169
3 270 168 274
3 163 279 164
3 165 287 166
3 165 164 287
3 287 120 274
3 284 170 169
3 163 162 279
3 160 288 162
3 279 288 122
3 161 160 162
3 158 280 159
3 160 280 288
3 287 164 279
3 158 156 280
3 124 123 288
3 280 160 159
3 288 280 125
3 153 129 128
3 129 152 130
3 128 127 154
3 126 155 127
3 154 127 155
3 130 152 131
3 153 128 154
3 132 131 151
3 150 133 132
3 133 149 134
3 134 148 135
3 153 152 129
3 126 280 155
3 156 155 280
3 158 157 156
3 194 189 188
3 187 195 188
3 194 190 189
3 192 190 193
3 190 192 191
3 193 190 194
3 196 187 186
3 186 185 197
3 197 185 198
3 278 198 185
3 196 195 187
3 194 188 195
3 197 196 186
3 151 150 132
3 149 133 150
3 134 149 148
3 140 137 136
3 137 139 138
3 147 136 135
3 148 147 135
3 131 152 151
3 147 146 140
3 145 144 142
3 146 145 141
3 139 137 140
3 145 142 141
3 141 140 146
3 143 142 144
3 140 136 147
3 260 259 261
3 199 278 200
3 258 261 259
3 247 264 248
3 13 264 263
3 73 265 77
3 72 71 282
3 174 266 175
3 237 236 266
3 272 230 229
3 204 203 286
3 238 237 268
3 266 268 237
3 22 262 269
3 283 262 268
3 168 167 274
3 66 65 270
3 271 244 243
3 20 263 271
3 230 272 267
3 228 272 229
3 262 273 268
3 243 273 271
3 287 167 166
3 282 120 265
3 62 285 63
3 62 61 285
3 79 276 80
3 116 115 276
3 277 272 228
3 213 212 277
3 267 278 183
3 202 201 278
3 122 121 279
3 279 121 120
3 126 125 280
3 288 125 124
3 118 117 281
3 281 117 116
3 289 69 68
3 120 282 274
3 173 275 283
3 283 275 285
3 270 275 284
3 172 284 275
3 61 269 285
3 262 285 269
3 278 267 286
3 272 286 267
3 120 287 279
3 167 287 274
3 122 288 123
3 288 279 162
3 274 289 270
3 66 270 289
