ply
format ascii 1.0
element vertex 290
property float x
property float y
property float z
property float u
property float v
element face 317
property list uchar int vertex_indices
end_header
-1.08508 -341.555 0 147.636 8.36396
-9.68676 -331.644 0 139.979 19.0208
-10.9641 -317.524 0 140 33.201
-8.54075 -303.767 0 143.678 46.6777
3.31315 -299.337 0 155.887 50
9.5279 -311.045 0 161 37.7695
15.5232 -310.692 0 167 37.5736
21.4397 -298.586 0 174 49.0883
25.9787 -285.485 0 179.719 61.7193
38.3448 -289.086 0 191.704 57
43.7398 -278.92 0 198 66.6324
47.5427 -265.589 0 203 79.5613
40.0656 -258.032 0 196.239 87.7609
29.0524 -249.989 0 186 96.7624
18.3602 -241.779 0 176.097 105.903
8.41306 -232.571 0 167.026 115.974
12.0976 -220.356 0 171.803 127.803
11.4568 -211.11 0 172 137.064
16.3512 -198.682 0 177.995 148.995
22.3067 -186.017 0 185.066 161.066
32.2475 -176.292 0 195.844 169.844
38.8785 -163.8 0 203.622 181.622
33.988 -158.631 0 199.605 187
20.4695 -163.458 0 186.185 183.185
6.97812 -168.752 0 172.919 179
-7.20906 -173.874 0 159.407 175.407
-21.8406 -177.137 0 145.818 174
-34.446 -186.187 0 134 166.718
-38.6325 -200.972 0 130.265 153.265
-43.2445 -215.457 0 126 140.032
-48.6032 -229.662 0 121 127.103
-53.0747 -244.114 0 116.83 113.83
-58.8123 -257.634 0 111 101.245
-64.8722 -271.015 0 104.809 88.8092
-72.4046 -283.76 0 97.031 77.031
-78.6698 -296.343 0 90 64.9434
-82.2817 -304.711 0 85.8385 56.8385
-91.0007 -306.812 0 77 55.3289
-88.3665 -293.46 0 80.5247 68.4753
-86.3406 -286.953 0 83 74.8438
-99.7919 -283.606 0 69.8678 79.1322
-108.864 -291.363 0 60.2982 72
-118.154 -298.449 0 50.554 65.554
-120.269 -290.151 0 49 73.9741
-115.042 -278.432 0 55 85.3173
-107.506 -266.926 0 63.2955 96.2955
-95.296 -260.402 0 75.9327 102
-84.2966 -251.231 0 86 109.276
-81.9083 -235.839 0 88 123.448
-79.1626 -220.715 0 90.4379 137.438
-77.2752 -206.134 0 92 150.963
-75.0354 -190.918 0 94 165.134
-72.2664 -176.44 0 97 178.892
-68.7405 -162.498 0 101 192.235
-64.1545 -149.082 0 106.116 205.116
-57.6221 -136.775 0 113.265 217
-50.2408 -139.898 0 120.43 213.43
-36.8578 -132.455 0 133.087 219.087
-24.153 -124.648 0 145 225.052
-20.5533 -117.245 0 148.809 232
-7.72478 -112.628 0 161.694 235.694
0.431489 -103.105 0 170 244.081
0.954525 -88.7654 0 171 257.839
1.45932 -73.7421 0 172 272.425
4.15497 -59.368 0 175 286.182
-1.24731 -46.4436 0 169.921 299.079
-6.55126 -33.6053 0 165 312.04
-18.6344 -29.9982 0 153.031 316
-25.0184 -17.7047 0 147 328.484
-32.3573 -6.43571 0 140.001 339.999
-41.1408 4.67451 0 131.516 351.484
-49.2395 16.0748 0 123.737 363.263
-56.6589 27.6762 0 116.666 375.334
-65.5968 38.679 0 108.181 386.819
-74.4448 49.9269 0 99.6956 398.304
-84.6614 60.4032 0 89.7115 409
-78.2934 66.5392 0 96.2175 415
-65.0694 70.8104 0 109.561 419
-61.9825 80.9204 0 113 429.49
-66.4124 93.7235 0 109 442.833
-68.7851 107.625 0 107 457.005
-71.9713 120.801 0 104 470.762
-82.7492 128.807 0 92.9758 480.024
-93.1365 137.277 0 82.0762 489.924
-104.309 143.608 0 70.298 497.702
-113.951 152.416 0 60.1059 507.894
-122.627 162.295 0 50.9132 519.087
-130.725 171.766 0 42.5491 529.451
-136.855 183.286 0 36.1849 541.815
-143.492 194.115 0 29 553.839
-150.142 204.371 0 21.7498 565.25
-157.625 215.434 0 13.9716 577.028
-165.02 226.632 0 6.60748 588.393
-168.696 240.082 0 3 601.898
-166.097 250.192 0 5.65576 612
-153.545 244.26 0 18.1705 606
-141.33 251.497 0 29.8989 613.899
-130.354 260.917 0 41.129 623
-119.201 270.065 0 52.4011 632
-107.035 276.861 0 64.6477 638.648
-97.7488 277.262 0 73.938 638.938
-105.687 266.096 0 65.8669 627.867
-112.41 253.861 0 59 615.711
-117.449 240.985 0 53.8459 602.846
-122.677 228.624 0 49 589.853
-119.108 220.137 0 53.4191 580
-108.778 212.063 0 64.4886 570.511
-98.4866 204.088 0 75.5491 561
-88.1974 196.052 0 86.5804 551.42
-77.935 187.607 0 97.4802 541.52
-67.504 179.556 0 108.537 532
-57.0835 171.474 0 119.572 522.428
-45.761 165.986 0 131.643 515.357
-33.2603 162.113 0 144.593 510.407
-21.7405 154.88 0 156 502.475
-14.3525 143.24 0 163 490.374
-6.63809 131.921 0 170.514 478.486
2.99583 121.572 0 180 467.416
11.6694 110.549 0 188.191 455.809
19.2873 99.0331 0 195.262 443.738
30.1103 91.2343 0 206.057 435
40.095 101.878 0 216.526 444.526
50.7395 112.349 0 227.602 454
61.5447 122.211 0 238.911 462.911
72.6844 131.237 0 250.56 471
83.9715 140.54 0 262.174 479.174
96.0536 149.169 0 274.245 486.245
101.52 163.305 0 280 498.862
105.199 178.395 0 284 512.205
108.858 193.468 0 288 525.548
113.359 207.665 0 293 538.477
118.877 221.521 0 298.995 550.995
126.378 235.277 0 306.773 562.773
133.875 249.074 0 314.551 574.551
142.798 262.383 0 323.743 585.743
150.95 275.92 0 332.229 597.229
159.662 288.83 0 341.421 608.421
168.533 300.358 0 351 618.867
178.255 309.296 0 361.382 627
184.115 304.759 0 366.861 622
185.331 293.744 0 367.169 610.831
199.564 292.695 0 380.582 607
213.439 290.499 0 394.339 604
225.912 284.076 0 406.311 596.689
224.287 275.233 0 404.046 588
209.796 273.109 0 389.46 587
195.079 270.252 0 374.874 586
181.914 264.806 0 361.961 583.039
176.14 252.082 0 356 572.431
172.51 236.883 0 352 559.088
169.404 221.524 0 348.527 545.527
165.201 206.534 0 344 532.403
160.459 191.576 0 339 519.474
156.83 176.237 0 335.093 506.093
153.047 161.105 0 331 492.789
152.372 145.631 0 330 479.032
154.055 130.19 0 331 464.446
159.589 118.55 0 336 452.689
150.522 109.901 0 326.538 444.538
141.882 97.9737 0 317.345 433.345
131.836 87.4271 0 306.86 423.86
136.202 81.8837 0 311 418.459
128.667 70.1601 0 303 407.358
120.884 57.5012 0 294.768 395.768
113.533 44.8522 0 286.99 383.99
105.397 32.6219 0 278.505 372.505
97.2887 20.6504 0 270 361.027
88.5939 8.71149 0 261 349.755
83.5784 -3.68121 0 255.998 338
86.4962 -15.1847 0 259 326.483
90.8162 -28.2534 0 263 313.141
94.347 -41.743 0 266 299.384
97.7892 -55.1989 0 269 285.626
101.896 -67.9546 0 273 272.284
113.21 -74.4733 0 284.578 264.422
125.823 -76.5937 0 297.331 261
140.051 -74.2211 0 311.917 262
150.269 -76.9909 0 322 258.155
159.932 -83.9138 0 331.188 250
172.542 -79.943 0 344.531 252
186.787 -78.605 0 359.117 251
201.034 -77.1553 0 373.703 250
215.014 -76.7427 0 387.874 248
216.058 -63.7501 0 391 260.459
213.729 -48.8687 0 391 275.459
210.516 -34.591 0 390 290.047
208.242 -19.7682 0 390 305.044
205.041 -5.49799 0 389 319.633
202.772 9.32886 0 389 334.633
199.572 23.5933 0 388 349.217
197.306 38.4215 0 388 364.217
196.226 52.1811 0 389.018 377.982
201.411 51.2433 0 394 376.269
201.24 39.1485 0 392 364.34
205.36 25.4426 0 394 350.169
212.759 13.7217 0 399.537 337.463
223.539 4.05059 0 408.73 326.27
236.233 -2.36964 0 420.304 318
249.361 -7.01341 0 432.579 311.421
262.356 -12.1734 0 444.649 304.351
275.172 -18.0716 0 456.428 296.572
284.362 -28.061 0 464 285.295
291.256 -40.061 0 469 272.366
295.347 -53.7051 0 471 258.194
298.512 -67.9038 0 472 243.608
300.662 -81.8958 0 472 229.438
303.299 -94.7579 0 472.64 216.36
306.064 -108.664 0 473.238 202.238
306.071 -121.357 0 471.297 189.703
309.025 -135.775 0 471.996 174.996
308.362 -149.874 0 469.168 161.168
303.979 -163.072 0 462.804 148.804
294.282 -172.754 0 451.733 140.733
283.253 -181.288 0 439.522 134
272.375 -190.067 0 427.422 127
262.91 -200.125 0 416.52 118.52
256.296 -212.777 0 408.035 107.035
254.146 -226.517 0 403.792 93.7925
255.492 -240.317 0 403 79.9492
259.303 -251.796 0 405 68.0205
256.17 -259.158 0 400.772 61.2279
250.376 -246.461 0 397 74.6653
247.144 -232.201 0 396 89.2529
244.836 -217.382 0 396 104.253
241.597 -203.128 0 395 118.836
239.287 -188.306 0 395 133.837
236.976 -173.485 0 395 148.837
233.743 -159.226 0 394 163.422
231.432 -144.401 0 394 178.422
228.203 -130.153 0 393 193.009
225.902 -115.381 0 393 208.01
216.687 -109.104 0 384.873 215.873
202.389 -112.572 0 370.234 215
188.128 -116.025 0 355.649 214
173.832 -119.395 0 341.063 213
166.25 -127.546 0 332.72 206
151.698 -130.224 0 318.135 205
140.377 -137.972 0 306.439 198.439
134.233 -150.624 0 299.367 186.367
130.394 -162.368 0 294.581 175
136.808 -169.779 0 300.319 167
124.371 -171.067 0 287.862 166.862
121.556 -183.884 0 284 154.29
115.756 -196.59 0 277.134 142.134
109.711 -209.203 0 270 130.09
104.945 -220.531 0 264.235 119.235
100.625 -232.334 0 258.871 107.871
93.7394 -243.568 0 251 97.303
86.5502 -255.843 0 242.729 85.7291
77.3233 -266.918 0 232.536 75.5365
63.7555 -270.405 0 218.708 73.2917
52.4431 -274.691 0 207.052 70.0515
46.5176 -287.36 0 200 57.9727
53.1202 -296.766 0 205.713 48
59.3066 -306.295 0 211 37.9436
57.6965 -310.633 0 209 33.7725
53.5984 -320.812 0 203.989 24.0107
47.5179 -330.36 0 197.061 15.061
38.794 -337.248 0 187.744 9
26.8189 -343.086 0 175.283 4.28345
10.906 -347.846 0 159 1
13.6157 -329.319 0 163.397 19.2
55.9767 -143.929 0 222.418 199.851
36.9781 -213.985 0 197.158 131.895
62.6585 -243.149 0 220.087 100.537
-22.6256 64.1281 0 151.861 410.94
137.416 -103.73 0 306.586 232.878
235.885 -91.5351 0 406.468 230.06
95.4502 -144.882 0 261.32 195.618
20.3165 -129.038 0 188.497 217.457
40.9241 -23.13 0 212.946 320.627
72.5954 -200.295 0 233.86 142.326
267.265 -115.048 0 433.92 201.91
96.959 -172.019 0 260.625 168.349
49.5405 16.2361 0 222.394 359.242
51.5418 -74.8098 0 221.899 268.749
-39.4597 122.259 0 136.779 470.704
278.551 -147.302 0 440.11 168.305
252.575 -50.4917 0 429.173 267.959
77.2025 74.0598 0 251.883 414.403
112.513 117.588 0 288.938 454.209
-7.87723 89.0264 0 167.384 435.514
-17.1425 30.0352 0 156.203 376.245
87.6098 -105.604 0 256.529 235.57
63.8657 -42.8245 0 235.437 299.924
29.8623 -96.4454 0 199.546 248.849
267.587 -79.8093 0 439.635 236.523
77.122 43.1465 0 250.681 384.232
85.2714 104.163 0 261.248 443.175
-4.5696 3.62973 0 168.09 349.187
3 42 41 43
3 38 37 36
3 43 41 44
3 40 46 45
3 40 45 44
3 41 40 44
3 5 3 2
3 1 261 2
3 39 35 34
3 39 38 35
3 39 34 46
3 46 40 39
3 35 38 36
3 33 46 34
3 46 33 47
3 30 49 48
3 50 49 29
3 27 52 51
3 27 53 52
3 28 51 50
3 31 48 47
3 31 30 48
3 28 50 29
3 30 29 49
3 54 56 55
3 54 53 56
3 56 53 27
3 28 27 51
3 56 27 26
3 31 47 32
3 33 32 47
3 0 260 261
3 7 6 256
3 6 5 261
3 264 13 12
3 2 261 5
3 4 3 5
3 9 8 7
3 6 261 258
3 257 256 6
3 256 253 7
3 253 256 255
3 10 9 252
3 10 252 251
3 253 252 9
3 7 253 9
3 257 6 258
3 16 15 14
3 16 14 263
3 263 17 16
3 57 26 25
3 58 25 24
3 14 13 263
3 17 263 18
3 264 11 250
3 11 264 12
3 21 20 271
3 61 60 269
3 263 19 18
3 23 269 24
3 250 11 251
3 19 263 20
3 10 251 11
3 56 26 57
3 22 21 262
3 0 261 1
3 246 245 271
3 23 22 269
3 107 87 86
3 107 86 108
3 86 85 108
3 105 90 89
3 89 88 106
3 107 88 87
3 107 106 88
3 85 84 109
3 76 75 74
3 77 76 74
3 110 109 84
3 85 109 108
3 84 83 110
3 82 111 83
3 82 81 112
3 95 93 92
3 92 91 95
3 91 90 104
3 104 95 91
3 95 94 93
3 103 97 96
3 95 104 96
3 96 104 103
3 102 97 103
3 90 105 104
3 102 98 97
3 99 98 101
3 101 100 99
3 98 102 101
3 89 106 105
3 59 58 60
3 57 25 58
3 289 70 69
3 282 265 72
3 289 282 70
3 60 58 269
3 63 275 64
3 275 63 285
3 67 66 68
3 68 66 289
3 270 65 64
3 173 172 275
3 24 269 58
3 289 274 282
3 73 72 265
3 78 265 281
3 265 78 77
3 81 80 276
3 83 111 110
3 79 78 276
3 82 112 111
3 119 118 281
3 77 74 73
3 276 281 116
3 281 120 119
3 276 78 281
3 276 112 81
3 112 276 113
3 113 276 114
3 114 276 115
3 265 120 281
3 282 71 70
3 275 270 64
3 255 254 253
3 264 250 249
3 248 264 249
3 264 247 246
3 271 245 244
3 271 263 264
3 271 264 246
3 243 242 273
3 273 241 268
3 241 240 239
3 273 242 241
3 268 239 238
3 236 235 266
3 268 266 283
3 241 239 268
3 283 266 174
3 266 176 175
3 177 176 266
3 234 178 266
3 266 178 177
3 283 174 173
3 284 172 171
3 283 285 262
3 266 235 234
3 179 234 233
3 232 231 181
3 180 233 232
3 179 233 180
3 181 180 232
3 182 181 231
3 230 267 231
3 234 179 178
3 284 171 170
3 222 221 218
3 221 219 218
3 219 221 220
3 223 222 217
3 216 224 223
3 226 225 214
3 215 225 224
3 222 218 217
3 216 215 224
3 217 216 223
3 226 214 277
3 277 212 211
3 277 214 213
3 215 214 225
3 277 211 210
3 182 231 267
3 278 286 203
3 227 277 228
3 207 272 208
3 184 278 185
3 184 183 278
3 201 200 278
3 278 199 198
3 226 277 227
3 272 207 206
3 208 272 277
3 206 205 286
3 273 262 21
3 205 204 286
3 267 183 182
3 203 202 278
3 206 286 272
3 273 21 271
3 208 277 209
3 277 210 209
3 169 168 270
3 270 284 169
3 270 168 274
3 163 279 164
3 165 287 166
3 165 164 287
3 287 120 274
3 284 170 169
3 163 162 279
3 160 288 162
3 279 288 122
3 161 160 162
3 158 280 159
3 160 280 288
3 287 164 279
3 158 156 280
3 124 123 288
3 280 160 159
3 288 280 125
3 153 129 128
3 129 152 130
3 128 127 154
3 126 155 127
3 154 127 155
3 130 152 131
3 153 128 154
3 132 131 151
3 150 133 132
3 133 149 134
3 134 148 135
3 153 152 129
3 126 280 155
3 156 155 280
3 158 157 156
3 194 189 188
3 187 195 188
3 194 190 189
3 192 190 193
3 190 192 191
3 193 190 194
3 196 187 186
3 186 185 197
3 197 185 198
3 278 198 185
3 196 195 187
3 194 188 195
3 197 196 186
3 151 150 132
3 149 133 150
3 134 149 148
3 140 137 136
3 137 139 138
3 147 136 135
3 148 147 135
3 131 152 151
3 147 146 140
3 145 144 142
3 146 145 141
3 139 137 140
3 145 142 141
3 141 140 146
3 143 142 144
3 140 136 147
3 260 259 261
3 199 278 200
3 258 261 259
3 247 264 248
3 13 264 263
3 73 265 77
3 72 71 282
3 174 266 175
3 237 236 266
3 272 230 229
3 204 203 286
3 238 237 268
3 266 268 237
3 22 262 269
3 283 262 268
3 168 167 274
3 66 65 270
3 271 244 243
3 20 263 271
3 230 272 267
3 228 272 229
3 262 273 268
3 243 273 271
3 287 167 166
3 282 120 265
3 62 285 63
3 62 61 285
3 79 276 80
3 116 115 276
3 277 272 228
3 213 212 277
3 267 278 183
3 202 201 278
3 122 121 279
3 279 121 120
3 126 125 280
3 288 125 124
3 118 117 281
3 281 117 116
3 289 69 68
3 120 282 274
3 173 275 283
3 283 275 285
3 270 275 284
3 172 284 275
3 61 269 285
3 262 285 269
3 278 267 286
3 272 286 267
3 120 287 279
3 167 287 274
3 122 288 123
3 288 279 162
3 274 289 270
3 66 270 289
