ply
format ascii 1.0
element vertex 290
property float x
property float y
property float z
property float u
property float v
element face 317
property list uchar int vertex_indices
end_header
38.658 -381.767 0 147.636 8.36396
28.9396 -372.948 0 139.979 19.0208
25.9933 -359.08 0 140 33.201
26.7638 -345.133 0 143.678 46.6777
38.0074 -339.325 0 155.887 50
45.5697 -350.211 0 161 37.7695
51.4806 -349.149 0 167 37.5736
55.9163 -336.424 0 174 49.0883
58.866 -322.877 0 179.719 61.7193
71.5725 -324.983 0 191.704 57
75.7218 -314.248 0 198 66.6324
77.9147 -300.559 0 203 79.5613
69.5918 -293.94 0 196.239 87.7609
57.6976 -287.255 0 186 96.7624
46.1021 -280.363 0 176.097 105.903
35.1339 -272.398 0 167.026 115.974
37.3451 -259.832 0 171.803 127.803
35.6138 -250.724 0 172 137.064
39.004 -237.801 0 177.995 148.995
43.4195 -224.516 0 185.066 161.066
52.1295 -213.672 0 195.844 169.844
57.1241 -200.418 0 203.622 181.622
50.9191 -195.709 0 199.605 187
37.1747 -201.91 0 186.185 183.185
23.3175 -208.736 0 172.919 179
8.13131 -216.096 0 159.407 175.407
-7.9596 -222.102 0 145.818 174
-21.7605 -233.797 0 134 166.718
-26.8324 -250.732 0 130.265 153.265
-32.1854 -267.204 0 126 140.032
-38.3034 -283.411 0 121 127.103
-43.4796 -299.74 0 116.83 113.83
-49.3596 -314.629 0 111 101.245
-55.511 -329.368 0 104.809 88.8092
-62.9598 -343.417 0 97.031 77.031
-68.4042 -356.501 0 90 64.9434
-71.4173 -365.112 0 85.8385 56.8385
-79.9658 -367.831 0 77 55.3289
-78.2907 -354.325 0 80.5247 68.4753
-76.7583 -347.714 0 83 74.8438
-90.5057 -345.421 0 69.8678 79.1322
-99.004 -353.807 0 60.2982 72
-107.765 -361.536 0 50.554 65.554
-110.467 -353.411 0 49 73.9741
-106.088 -341.349 0 55 85.3173
-99.3977 -329.341 0 63.2955 96.2955
-87.7082 -321.988 0 75.9327 102
-75.2507 -310.005 0 86 109.276
-72.0033 -292.636 0 88 123.448
-68.5339 -275.691 0 90.4379 137.438
-65.9131 -259.377 0 92 150.963
-63.0593 -242.469 0 94 165.134
-60.3751 -226.92 0 97 178.892
-57.3051 -212.178 0 101 192.235
-53.2905 -198.082 0 106.116 205.116
-47.4805 -185.308 0 113.265 217
-39.8656 -187.884 0 120.43 213.43
-25.4156 -177.832 0 133.087 219.087
-11.5579 -167.303 0 145 225.052
-8.20584 -159.3 0 148.809 232
4.52616 -153.522 0 161.694 235.694
12.4274 -142.488 0 170 244.081
12.2903 -127.367 0 171 257.839
12.1086 -111.743 0 172 272.425
14.338 -96.4452 0 175 286.182
8.52833 -83.3758 0 169.921 299.079
2.7868 -70.626 0 165 312.04
-9.41209 -67.429 0 153.031 316
-16.2007 -55.363 0 147 328.484
-23.914 -44.3835 0 140.001 339.999
-32.9903 -33.7341 0 131.516 351.484
-41.4103 -22.8248 0 123.737 363.263
-49.1772 -11.882 0 116.666 375.334
-58.6287 -1.60553 0 108.181 386.819
-67.9395 9.30131 0 99.6956 398.304
-78.438 19.4989 0 89.7115 409
-72.2432 25.7952 0 96.2175 415
-59.1812 30.387 0 109.561 419
-56.5365 39.8256 0 113 429.49
-61.5779 51.7274 0 109 442.833
-64.4969 65.138 0 107 457.005
-68.0057 77.3384 0 104 470.762
-78.5651 83.4067 0 92.9758 480.024
-88.3953 89.7631 0 82.0762 489.924
-98.8665 93.943 0 70.298 497.702
-107.947 100.7 0 60.1059 507.894
-116.14 108.64 0 50.9132 519.087
-124.08 116.738 0 42.5491 529.451
-130.144 126.98 0 36.1849 541.815
-136.311 136.071 0 29 553.839
-142.416 144.664 0 21.7498 565.25
-149.775 154.631 0 13.9716 577.028
-157.441 165.488 0 6.60748 588.393
-161.432 178.805 0 3 601.898
-159.069 188.965 0 5.65576 612
-146.384 183.316 0 18.1705 606
-133.742 189.911 0 29.8989 613.899
-123.318 199.983 0 41.129 623
-112.534 209.564 0 52.4011 632
-100.634 216.817 0 64.6477 638.648
-91.3703 217.57 0 73.938 638.938
-98.8807 206.111 0 65.8669 627.867
-105.139 193.635 0 59 615.711
-109.737 180.642 0 53.8459 602.846
-115.194 168.998 0 49 589.853
-112.568 162.395 0 53.4191 580
-103.043 156.426 0 64.4886 570.511
-93.5859 150.705 0 75.5491 561
-84.098 144.922 0 86.5804 551.42
-74.4945 138.608 0 97.4802 541.52
-64.7189 132.697 0 108.537 532
-54.9399 126.765 0 119.572 522.428
-44.5024 123.531 0 131.643 515.357
-32.5873 121.229 0 144.593 510.407
-20.8164 115.102 0 156 502.475
-12.7213 104.171 0 163 490.374
-4.5716 93.599 0 170.514 478.486
5.33605 84.2106 0 180 467.416
14.734 74.0158 0 188.191 455.809
23.1472 63.2495 0 195.262 443.738
34.0656 56.6187 0 206.057 435
43.5718 68.8345 0 216.526 444.526
53.795 80.6814 0 227.602 454
64.0783 91.7854 0 238.911 462.911
74.683 101.947 0 250.56 471
85.7091 112.694 0 262.174 479.174
97.9895 123.462 0 274.245 486.245
103.38 139.845 0 280 498.862
106.946 157.544 0 284 512.205
110.483 175.192 0 288 525.548
114.679 191.169 0 293 538.477
119.921 206.866 0 298.995 550.995
127.37 223.384 0 306.773 562.773
134.824 239.998 0 314.551 574.551
143.717 256.196 0 323.743 585.743
151.791 272.535 0 332.229 597.229
160.27 287.659 0 341.421 608.421
168.611 300.315 0 351 618.867
177.769 309.872 0 361.382 627
183.911 305.739 0 366.861 622
185.862 294.978 0 367.169 610.831
200.92 297.51 0 380.582 607
214.807 295.727 0 394.339 604
227.601 289.962 0 406.311 596.689
226.446 281.027 0 404.046 588
212.067 278.045 0 389.46 587
197.206 273.166 0 374.874 586
183.718 264.599 0 361.961 583.039
177.897 248.91 0 356 572.431
174.372 231.041 0 352 559.088
171.374 213.063 0 348.527 545.527
167.257 195.392 0 344 532.403
162.54 177.509 0 339 519.474
158.964 159.303 0 335.093 506.093
155.29 141.517 0 331 492.789
154.748 123.443 0 330 479.032
157.034 106.769 0 331 464.446
162.988 95.1639 0 336 452.689
154.257 86.1102 0 326.538 444.538
146.164 73.4624 0 317.345 433.345
136.619 61.7339 0 306.86 423.86
141.239 55.9232 0 311 418.459
134.195 43.4967 0 303 407.358
126.968 29.5004 0 294.768 395.768
120.154 15.7841 0 286.99 383.99
112.448 2.65581 0 278.505 372.505
104.81 -9.85772 0 270 361.027
96.5492 -22.6152 0 261 349.755
91.5988 -35.923 0 255.998 338
94.3832 -47.5239 0 259 326.483
99.0301 -60.2549 0 263 313.141
103.17 -73.3586 0 266 299.384
107.111 -86.3991 0 269 285.626
111.21 -98.4473 0 273 272.284
121.905 -103.311 0 284.578 264.422
134.097 -103.741 0 297.331 261
147.568 -99.5257 0 311.917 262
157.78 -100.768 0 322 258.155
167.961 -105.905 0 331.188 250
179.285 -99.3358 0 344.531 252
192.796 -94.7109 0 359.117 251
206.252 -89.7789 0 373.703 250
219.559 -85.8829 0 387.874 248
217.392 -72.8129 0 391 260.459
211.556 -58.8801 0 391 275.459
205.022 -45.7813 0 390 290.047
199.268 -31.9349 0 390 305.044
192.746 -18.8451 0 389 319.633
186.995 -4.99184 0 389 334.633
180.476 8.09248 0 388 349.217
174.725 21.9462 0 388 364.217
170.384 35.0475 0 389.018 377.982
175.643 35.378 0 394 376.269
178.37 23.5937 0 392 364.34
185.653 11.2732 0 394 350.169
195.641 1.66286 0 399.537 337.463
208.422 -5.1482 0 408.73 326.27
222.283 -8.34479 0 420.304 318
236.144 -9.7184 0 432.579 311.421
249.993 -11.6257 0 444.649 304.351
263.842 -14.2863 0 456.428 296.572
275.15 -21.7805 0 464 285.295
284.709 -31.7631 0 469 272.366
291.93 -43.9718 0 471 258.194
298.37 -56.9424 0 472 243.608
303.786 -70.0163 0 472 229.438
309.385 -81.9513 0 472.64 216.36
315.366 -94.8667 0 473.238 202.238
318.402 -107.21 0 471.297 189.703
324.724 -120.496 0 471.996 174.996
327.467 -134.342 0 469.168 161.168
326.383 -148.208 0 462.804 148.804
319.294 -159.938 0 451.733 140.733
310.634 -170.872 0 439.522 134
302.18 -182.005 0 427.422 127
295.407 -194.041 0 416.52 118.52
292.025 -207.912 0 408.035 107.035
293.237 -221.766 0 403.792 93.7925
297.856 -234.84 0 403 79.9492
304.312 -245.067 0 405 68.0205
303.039 -252.966 0 400.772 61.2279
294.366 -242.032 0 397 74.6653
287.804 -228.965 0 396 89.2529
282.005 -215.134 0 396 104.253
275.439 -202.074 0 395 118.836
269.637 -188.241 0 395 133.837
263.834 -174.405 0 395 148.837
257.27 -161.336 0 394 163.422
251.46 -147.494 0 394 178.422
244.884 -134.452 0 393 193.009
239.04 -120.751 0 393 208.01
228.357 -117.238 0 384.873 215.873
214.82 -124.533 0 370.234 215
201.237 -131.571 0 355.649 214
187.481 -138.382 0 341.063 213
180.995 -148.119 0 332.72 206
166.698 -153.245 0 318.135 205
155.946 -162.697 0 306.439 198.439
151.023 -176.088 0 299.367 186.367
148.449 -188.251 0 294.581 175
155.654 -194.799 0 300.319 167
143.39 -197.625 0 287.862 166.862
141.921 -210.666 0 284 154.29
137.558 -223.977 0 277.134 142.134
132.991 -237.196 0 270 130.09
129.587 -249.008 0 264.235 119.235
126.686 -261.24 0 258.871 107.871
121.176 -273.21 0 251 97.303
115.493 -286.252 0 242.729 85.7291
107.645 -298.345 0 232.536 75.5365
94.5856 -303.418 0 218.708 73.2917
83.8612 -309.015 0 207.052 70.0515
79.4823 -322.298 0 200 57.9727
87.1562 -330.852 0 205.713 48
94.4313 -339.578 0 211 37.9436
93.3482 -344.077 0 209 33.7725
90.4889 -354.671 0 203.989 24.0107
85.5865 -364.874 0 197.061 15.061
77.743 -372.751 0 187.744 9
66.5462 -379.97 0 175.283 4.28345
51.3116 -386.587 0 159 1
51.8007 -367.871 0 163.397 19.2
71.7624 -178.66 0 222.418 199.851
61.2957 -250.56 0 197.158 131.895
90.2621 -276.485 0 220.087 100.537
-16.6148 25.5584 0 151.861 410.94
148.854 -129.157 0 306.586 232.878
243.155 -95.2169 0 406.468 230.06
111.735 -175.164 0 261.32 195.618
33.9963 -167.54 0 188.497 217.457
49.5467 -57.9287 0 212.946 320.627
95.0544 -232.766 0 233.86 142.326
279.222 -110.406 0 433.92 201.91
116.01 -201.872 0 260.625 168.349
57.1739 -17.449 0 222.394 359.242
62.2017 -109.484 0 221.899 268.749
-35.9088 81.2165 0 136.779 470.704
297.91 -139.01 0 440.11 168.305
249.658 -51.1732 0 429.173 267.959
82.583 43.91 0 251.883 414.403
115.989 92.0352 0 288.938 454.209
-2.89933 50.8846 0 167.384 435.514
-9.80372 -7.65521 0 156.203 376.245
99.9181 -137.167 0 256.529 235.57
72.9208 -76.4633 0 235.437 299.924
41.5701 -133.416 0 199.546 248.849
271.181 -75.8598 0 439.635 236.523
83.7814 11.9123 0 250.681 384.232
89.2465 75.7946 0 261.248 443.175
3.46776 -33.2774 0 168.09 349.187
3 42 41 43
3 38 37 36
3 43 41 44
3 40 46 45
3 40 45 44
3 41 40 44
3 5 3 2
3 1 261 2
3 39 35 34
3 39 38 35
3 39 34 46
3 46 40 39
3 35 38 36
3 33 46 34
3 46 33 47
3 30 49 48
3 50 49 29
3 27 52 51
3 27 53 52
3 28 51 50
3 31 48 47
3 31 30 48
3 28 50 29
3 30 29 49
3 54 56 55
3 54 53 56
3 56 53 27
3 28 27 51
3 56 27 26
3 31 47 32
3 33 32 47
3 0 260 261
3 7 6 256
3 6 5 261
3 264 13 12
3 2 261 5
3 4 3 5
3 9 8 7
3 6 261 258
3 257 256 6
3 256 253 7
3 253 256 255
3 10 9 252
3 10 252 251
3 253 252 9
3 7 253 9
3 257 6 258
3 16 15 14
3 16 14 263
3 263 17 16
3 57 26 25
3 58 25 24
3 14 13 263
3 17 263 18
3 264 11 250
3 11 264 12
3 21 20 271
3 61 60 269
3 263 19 18
3 23 269 24
3 250 11 251
3 19 263 20
3 10 251 11
3 56 26 57
3 22 21 262
3 0 261 1
3 246 245 271
3 23 22 269
3 107 87 86
3 107 86 108
3 86 85 108
3 105 90 89
3 89 88 106
3 107 88 87
3 107 106 88
3 85 84 109
3 76 75 74
3 77 76 74
3 110 109 84
3 85 109 108
3 84 83 110
3 82 111 83
3 82 81 112
3 95 93 92
3 92 91 95
3 91 90 104
3 104 95 91
3 95 94 93
3 103 97 96
3 95 104 96
3 96 104 103
3 102 97 103
3 90 105 104
3 102 98 97
3 99 98 101
3 101 100 99
3 98 102 101
3 89 106 105
3 59 58 60
3 57 25 58
3 289 70 69
3 282 265 72
3 289 282 70
3 60 58 269
3 63 275 64
3 275 63 285
3 67 66 68
3 68 66 289
3 270 65 64
3 173 172 275
3 24 269 58
3 289 274 282
3 73 72 265
3 78 265 281
3 265 78 77
3 81 80 276
3 83 111 110
3 79 78 276
3 82 112 111
3 119 118 281
3 77 74 73
3 276 281 116
3 281 120 119
3 276 78 281
3 276 112 81
3 112 276 113
3 113 276 114
3 114 276 115
3 265 120 281
3 282 71 70
3 275 270 64
3 255 254 253
3 264 250 249
3 248 264 249
3 264 247 246
3 271 245 244
3 271 263 264
3 271 264 246
3 243 242 273
3 273 241 268
3 241 240 239
3 273 242 241
3 268 239 238
3 236 235 266
3 268 266 283
3 241 239 268
3 283 266 174
3 266 176 175
3 177 176 266
3 234 178 266
3 266 178 177
3 283 174 173
3 284 172 171
3 283 285 262
3 266 235 234
3 179 234 233
3 232 231 181
3 180 233 232
3 179 233 180
3 181 180 232
3 182 181 231
3 230 267 231
3 234 179 178
3 284 171 170
3 222 221 218
3 221 219 218
3 219 221 220
3 223 222 217
3 216 224 223
3 226 225 214
3 215 225 224
3 222 218 217
3 216 215 224
3 217 216 223
3 226 214 277
3 277 212 211
3 277 214 213
3 215 214 225
3 277 211 210
3 182 231 267
3 278 286 203
3 227 277 228
3 207 272 208
3 184 278 185
3 184 183 278
3 201 200 278
3 278 199 198
3 226 277 227
3 272 207 206
3 208 272 277
3 206 205 286
3 273 262 21
3 205 204 286
3 267 183 182
3 203 202 278
3 206 286 272
3 273 21 271
3 208 277 209
3 277 210 209
3 169 168 270
3 270 284 169
3 270 168 274
3 163 279 164
3 165 287 166
3 165 164 287
3 287 120 274
3 284 170 169
3 163 162 279
3 160 288 162
3 279 288 122
3 161 160 162
3 158 280 159
3 160 280 288
3 287 164 279
3 158 156 280
3 124 123 288
3 280 160 159
3 288 280 125
3 153 129 128
3 129 152 130
3 128 127 154
3 126 155 127
3 154 127 155
3 130 152 131
3 153 128 154
3 132 131 151
3 150 133 132
3 133 149 134
3 134 148 135
3 153 152 129
3 126 280 155
3 156 155 280
3 158 157 156
3 194 189 188
3 187 195 188
3 194 190 189
3 192 190 193
3 190 192 191
3 193 190 194
3 196 187 186
3 186 185 197
3 197 185 198
3 278 198 185
3 196 195 187
3 194 188 195
3 197 196 186
3 151 150 132
3 149 133 150
3 134 149 148
3 140 137 136
3 137 139 138
3 147 136 135
3 148 147 135
3 131 152 151
3 147 146 140
3 145 144 142
3 146 145 141
3 139 137 140
3 145 142 141
3 141 140 146
3 143 142 144
3 140 136 147
3 260 259 261
3 199 278 200
3 258 261 259
3 247 264 248
3 13 264 263
3 73 265 77
3 72 71 282
3 174 266 175
3 237 236 266
3 272 230 229
3 204 203 286
3 238 237 268
3 266 268 237
3 22 262 269
3 283 262 268
3 168 167 274
3 66 65 270
3 271 244 243
3 20 263 271
3 230 272 267
3 228 272 229
3 262 273 268
3 243 273 271
3 287 167 166
3 282 120 265
3 62 285 63
3 62 61 285
3 79 276 80
3 116 115 276
3 277 272 228
3 213 212 277
3 267 278 183
3 202 201 278
3 122 121 279
3 279 121 120
3 126 125 280
3 288 125 124
3 118 117 281
3 281 117 116
3 289 69 68
3 120 282 274
3 173 275 283
3 283 275 285
3 270 275 284
3 172 284 275
3 61 269 285
3 262 285 269
3 278 267 286
3 272 286 267
3 120 287 279
3 167 287 274
3 122 288 123
3 288 279 162
3 274 289 270
3 66 270 289
