ply
format ascii 1.0
element vertex 290
property float x
property float y
property float z
property float u
property float v
element face 317
property list uchar int vertex_indices
end_header
-2.1661 -341.064 0 147.636 8.36396
-10.7512 -331.139 0 139.979 19.0208
-12.0049 -317.016 0 140 33.201
-9.55858 -303.263 0 143.678 46.6777
2.30272 -298.853 0 155.887 50
8.49787 -310.572 0 161 37.7695
14.4937 -310.228 0 167 37.5736
20.4305 -298.132 0 174 49.0883
24.9914 -285.039 0 179.719 61.7193
37.3514 -288.661 0 191.704 57
42.7634 -278.503 0 198 66.6324
46.5885 -265.179 0 203 79.5613
39.124 -257.609 0 196.239 87.7609
28.1242 -249.549 0 186 96.7624
17.4455 -241.32 0 176.097 105.903
7.51376 -232.096 0 167.026 115.974
11.2186 -219.887 0 171.803 127.803
10.5932 -210.641 0 172 137.064
15.5083 -198.221 0 177.995 148.995
21.4848 -185.566 0 185.066 161.066
31.4414 -175.858 0 195.844 169.844
38.0917 -163.378 0 203.622 181.622
33.2046 -158.207 0 199.605 187
19.673 -163.015 0 186.185 183.185
6.17011 -168.289 0 172.919 179
-8.02932 -173.388 0 159.407 175.407
-22.6695 -176.624 0 145.818 174
-35.294 -185.65 0 134 166.718
-39.512 -200.427 0 130.265 153.265
-44.1555 -214.903 0 126 140.032
-49.5459 -229.096 0 121 127.103
-54.0505 -243.539 0 116.83 113.83
-59.8199 -257.046 0 111 101.245
-65.9119 -270.413 0 104.809 88.8092
-73.4753 -283.14 0 97.031 77.031
-79.7703 -295.708 0 90 64.9434
-83.402 -304.068 0 85.8385 56.8385
-92.1259 -306.149 0 77 55.3289
-89.4602 -292.803 0 80.5247 68.4753
-87.4189 -286.3 0 83 74.8438
-100.862 -282.922 0 69.8678 79.1322
-109.953 -290.658 0 60.2982 72
-119.259 -297.721 0 50.554 65.554
-121.355 -289.419 0 49 73.9741
-116.1 -277.711 0 55 85.3173
-108.537 -266.223 0 63.2955 96.2955
-96.3115 -259.728 0 75.9327 102
-85.2893 -250.585 0 86 109.276
-82.865 -235.2 0 88 123.448
-80.0853 -220.085 0 90.4379 137.438
-78.166 -205.51 0 92 150.963
-75.8939 -190.3 0 94 165.134
-73.0957 -175.83 0 97 178.892
-69.5428 -161.897 0 101 192.235
-64.9324 -148.491 0 106.116 205.116
-58.3787 -136.195 0 113.265 217
-51.0025 -139.332 0 120.43 213.43
-37.6049 -131.915 0 133.087 219.087
-24.8852 -124.134 0 145 225.052
-21.2744 -116.739 0 148.809 232
-8.43903 -112.144 0 161.694 235.694
-0.272342 -102.64 0 170 244.081
0.263625 -88.3095 0 171 257.839
0.778411 -73.2928 0 172 272.425
3.47628 -58.9265 0 175 286.182
-1.92255 -45.999 0 169.921 299.079
-7.22042 -33.156 0 165 312.04
-19.3016 -29.5409 0 153.031 316
-25.6784 -17.243 0 147 328.484
-33.0109 -5.96886 0 140.001 339.999
-41.7886 5.14887 0 131.516 351.484
-49.8814 16.5557 0 123.737 363.263
-57.2945 28.1643 0 116.666 375.334
-66.2247 39.1725 0 108.181 386.819
-75.0685 50.4225 0 99.6956 398.304
-85.2825 60.9012 0 89.7115 409
-78.9129 67.0357 0 96.2175 415
-65.6874 71.3036 0 109.561 419
-62.5983 81.4181 0 113 429.49
-67.0272 94.2257 0 109 442.833
-69.4006 108.128 0 107 457.005
-72.5948 121.308 0 104 470.762
-83.3919 129.327 0 92.9758 480.024
-93.8081 137.814 0 82.0762 489.924
-105.01 144.162 0 70.298 497.702
-114.685 152.985 0 60.1059 507.894
-123.394 162.88 0 50.9132 519.087
-131.517 172.357 0 42.5491 529.451
-137.675 183.885 0 36.1849 541.815
-144.351 194.729 0 29 553.839
-151.041 204.998 0 21.7498 565.25
-158.555 216.061 0 13.9716 577.028
-165.971 227.248 0 6.60748 588.393
-169.671 240.692 0 3 601.898
-167.09 250.807 0 5.65576 612
-154.528 244.896 0 18.1705 606
-142.346 252.171 0 29.8989 613.899
-131.381 261.606 0 41.129 623
-120.244 270.772 0 52.4011 632
-108.089 277.589 0 64.6477 638.648
-98.8039 278.006 0 73.938 638.938
-106.723 266.826 0 65.8669 627.867
-113.425 254.58 0 59 615.711
-118.44 241.694 0 53.8459 602.846
-123.63 229.308 0 49 589.853
-120.016 220.796 0 53.4191 580
-109.645 212.707 0 64.4886 570.511
-99.3127 204.714 0 75.5491 561
-88.9836 196.657 0 86.5804 551.42
-78.6844 188.194 0 97.4802 541.52
-68.2178 180.123 0 108.537 532
-57.7625 172.02 0 119.572 522.428
-46.4053 166.508 0 131.643 515.357
-33.8843 162.623 0 144.593 510.407
-22.3559 155.385 0 156 502.475
-14.962 143.739 0 163 490.374
-7.23815 132.408 0 170.514 478.486
2.40323 122.045 0 180 467.416
11.0758 111.012 0 188.191 455.809
18.6905 99.4838 0 195.262 443.738
29.5219 91.6628 0 206.057 435
39.5245 102.29 0 216.526 444.526
50.1851 112.746 0 227.602 454
61.0078 122.591 0 238.911 462.911
72.1654 131.597 0 250.56 471
83.4688 140.877 0 262.174 479.174
95.5631 149.477 0 274.245 486.245
101.051 163.589 0 280 498.862
104.754 178.652 0 284 512.205
108.438 193.698 0 288 525.548
112.966 207.872 0 293 538.477
118.511 221.704 0 298.995 550.995
126.036 235.422 0 306.773 562.773
133.558 249.182 0 314.551 574.551
142.506 262.448 0 323.743 585.743
150.685 275.945 0 332.229 597.229
159.426 288.817 0 341.421 608.421
168.329 300.314 0 351 618.867
178.077 309.223 0 361.382 627
183.924 304.668 0 366.861 622
185.106 293.648 0 367.169 610.831
199.324 292.534 0 380.582 607
213.193 290.299 0 394.339 604
225.647 283.837 0 406.311 596.689
223.995 274.999 0 404.046 588
209.498 272.921 0 389.46 587
194.779 270.118 0 374.874 586
181.611 264.732 0 361.961 583.039
175.815 252.047 0 356 572.431
172.156 236.881 0 352 559.088
169.022 221.552 0 348.527 545.527
164.794 206.595 0 344 532.403
160.028 191.673 0 339 519.474
156.375 176.367 0 335.093 506.093
152.569 161.266 0 331 492.789
151.87 145.818 0 330 479.032
153.526 130.391 0 331 464.446
159.04 118.743 0 336 452.689
149.958 110.112 0 326.538 444.538
141.3 98.2078 0 317.345 433.345
131.24 87.6898 0 306.86 423.86
135.601 82.1469 0 311 418.459
128.051 70.4391 0 303 407.358
120.257 57.8039 0 294.768 395.768
112.896 45.1748 0 286.99 383.99
104.751 32.9614 0 278.505 372.505
96.6354 21.002 0 270 361.027
87.9369 9.07675 0 261 349.755
82.9256 -3.30623 0 255.998 338
85.8467 -14.8129 0 259 326.483
90.1615 -27.8871 0 263 313.141
93.6839 -41.3814 0 266 299.384
97.12 -54.8443 0 269 285.626
101.227 -67.6142 0 273 272.284
112.55 -74.1578 0 284.578 264.422
125.17 -76.299 0 297.331 261
139.404 -73.9445 0 311.917 262
149.624 -76.7281 0 322 258.155
159.293 -83.6679 0 331.188 250
171.938 -79.7229 0 344.531 252
186.221 -78.4141 0 359.117 251
200.507 -76.9942 0 373.703 250
214.517 -76.6106 0 387.874 248
215.598 -63.624 0 391 260.459
213.299 -48.7403 0 391 275.459
210.111 -34.4576 0 390 290.047
207.861 -19.6313 0 390 305.044
204.684 -5.35581 0 389 319.633
202.439 9.47473 0 389 334.633
199.262 23.7444 0 388 349.217
197.02 38.5762 0 388 364.217
195.962 52.3375 0 389.018 377.982
201.146 51.3914 0 394 376.269
200.955 39.2968 0 392 364.34
205.053 25.5842 0 394 350.169
212.433 13.8513 0 399.537 337.463
223.197 4.16261 0 408.73 326.27
235.88 -2.27831 0 420.304 318
249.001 -6.9435 0 432.579 311.421
261.988 -12.1248 0 444.649 304.351
274.795 -18.0441 0 456.428 296.572
283.968 -28.0488 0 464 285.295
290.843 -40.0606 0 469 272.366
294.917 -53.7127 0 471 258.194
298.061 -67.9182 0 472 243.608
300.188 -81.9144 0 472 229.438
302.799 -94.781 0 472.64 216.36
305.536 -108.692 0 473.238 202.238
305.521 -121.384 0 471.297 189.703
308.45 -135.808 0 471.996 174.996
307.762 -149.905 0 469.168 161.168
303.356 -163.096 0 462.804 148.804
293.642 -172.761 0 451.733 140.733
282.598 -181.276 0 439.522 134
271.705 -190.036 0 427.422 127
262.222 -200.077 0 416.52 118.52
255.586 -212.718 0 408.035 107.035
253.413 -226.454 0 403.792 93.7925
254.734 -240.257 0 403 79.9492
258.525 -251.742 0 405 68.0205
255.379 -259.099 0 400.772 61.2279
249.608 -246.392 0 397 74.6653
246.4 -232.126 0 396 89.2529
244.118 -217.303 0 396 104.253
240.904 -203.043 0 395 118.836
238.62 -188.217 0 395 133.837
236.335 -173.392 0 395 148.837
233.126 -159.128 0 394 163.422
230.841 -144.299 0 394 178.422
227.635 -130.045 0 393 193.009
225.354 -115.269 0 393 208.01
216.13 -108.972 0 384.873 215.873
201.79 -112.409 0 370.234 215
187.488 -115.832 0 355.649 214
173.15 -119.172 0 341.063 213
165.539 -127.311 0 332.72 206
150.978 -129.967 0 318.135 205
139.641 -137.701 0 306.439 198.439
133.474 -150.347 0 299.367 186.367
129.615 -162.088 0 294.581 175
136.016 -169.51 0 300.319 167
123.577 -170.778 0 287.862 166.862
120.739 -183.594 0 284 154.29
114.917 -196.292 0 277.134 142.134
108.851 -208.896 0 270 130.09
104.066 -220.217 0 264.235 119.235
99.7263 -232.012 0 258.871 107.871
92.8218 -243.236 0 251 97.303
85.6122 -255.498 0 242.729 85.7291
76.3669 -266.558 0 232.536 75.5365
62.7933 -270.022 0 218.708 73.2917
51.4737 -274.289 0 207.052 70.0515
45.5271 -286.949 0 200 57.9727
52.114 -296.365 0 205.713 48
58.2844 -305.904 0 211 37.9436
56.6671 -310.24 0 209 33.7725
52.552 -320.413 0 203.989 24.0107
46.4555 -329.95 0 197.061 15.061
37.7201 -336.824 0 187.744 9
25.7353 -342.641 0 175.283 4.28345
9.81442 -347.374 0 159 1
12.5551 -328.853 0 163.397 19.2
55.2208 -143.538 0 222.418 199.851
36.1097 -213.558 0 197.158 131.895
61.7416 -242.764 0 220.087 100.537
-23.244 64.6065 0 151.861 410.94
136.735 -103.45 0 306.586 232.878
235.379 -91.4403 0 406.468 230.06
94.6992 -144.546 0 261.32 195.618
19.5787 -128.597 0 188.497 217.457
40.2661 -22.7202 0 212.946 320.627
71.7498 -199.927 0 233.86 142.326
266.726 -115.008 0 433.92 201.91
96.1612 -171.69 0 260.625 168.349
48.8945 16.64 0 222.394 359.242
50.857 -74.4125 0 221.899 268.749
-40.0753 122.764 0 136.779 470.704
277.955 -147.282 0 440.11 168.305
252.144 -50.427 0 429.173 267.959
76.5951 74.4197 0 251.883 414.403
111.962 117.868 0 288.938 454.209
-8.48818 89.5057 0 167.384 435.514
-17.7785 30.501 0 156.203 376.245
86.9077 -105.255 0 256.529 235.57
63.2006 -42.4371 0 235.437 299.924
29.1647 -96.0206 0 199.546 248.849
267.118 -79.7723 0 439.635 236.523
76.4879 43.5162 0 250.681 384.232
84.7017 104.5 0 261.248 443.175
-5.21721 4.07962 0 168.09 349.187
3 42 41 43
3 38 37 36
3 43 41 44
3 40 46 45
3 40 45 44
3 41 40 44
3 5 3 2
3 1 261 2
3 39 35 34
3 39 38 35
3 39 34 46
3 46 40 39
3 35 38 36
3 33 46 34
3 46 33 47
3 30 49 48
3 50 49 29
3 27 52 51
3 27 53 52
3 28 51 50
3 31 48 47
3 31 30 48
3 28 50 29
3 30 29 49
3 54 56 55
3 54 53 56
3 56 53 27
3 28 27 51
3 56 27 26
3 31 47 32
3 33 32 47
3 0 260 261
3 7 6 256
3 6 5 261
3 264 13 12
3 2 261 5
3 4 3 5
3 9 8 7
3 6 261 258
3 257 256 6
3 256 253 7
3 253 256 255
3 10 9 252
3 10 252 251
3 253 252 9
3 7 253 9
3 257 6 258
3 16 15 14
3 16 14 263
3 263 17 16
3 57 26 25
3 58 25 24
3 14 13 263
3 17 263 18
3 264 11 250
3 11 264 12
3 21 20 271
3 61 60 269
3 263 19 18
3 23 269 24
3 250 11 251
3 19 263 20
3 10 251 11
3 56 26 57
3 22 21 262
3 0 261 1
3 246 245 271
3 23 22 269
3 107 87 86
3 107 86 108
3 86 85 108
3 105 90 89
3 89 88 106
3 107 88 87
3 107 106 88
3 85 84 109
3 76 75 74
3 77 76 74
3 110 109 84
3 85 109 108
3 84 83 110
3 82 111 83
3 82 81 112
3 95 93 92
3 92 91 95
3 91 90 104
3 104 95 91
3 95 94 93
3 103 97 96
3 95 104 96
3 96 104 103
3 102 97 103
3 90 105 104
3 102 98 97
3 99 98 101
3 101 100 99
3 98 102 101
3 89 106 105
3 59 58 60
3 57 25 58
3 289 70 69
3 282 265 72
3 289 282 70
3 60 58 269
3 63 275 64
3 275 63 285
3 67 66 68
3 68 66 289
3 270 65 64
3 173 172 275
3 24 269 58
3 289 274 282
3 73 72 265
3 78 265 281
3 265 78 77
3 81 80 276
3 83 111 110
3 79 78 276
3 82 112 111
3 119 118 281
3 77 74 73
3 276 281 116
3 281 120 119
3 276 78 281
3 276 112 81
3 112 276 113
3 113 276 114
3 114 276 115
3 265 120 281
3 282 71 70
3 275 270 64
3 255 254 253
3 264 250 249
3 248 264 249
3 264 247 246
3 271 245 244
3 271 263 264
3 271 264 246
3 243 242 273
3 273 241 268
3 241 240 239
3 273 242 241
3 268 239 238
3 236 235 266
3 268 266 283
3 241 239 268
3 283 266 174
3 266 176 175
3 177 176 266
3 234 178 266
3 266 178 177
3 283 174 173
3 284 172 171
3 283 285 262
3 266 235 234
3 179 234 233
3 232 231 181
3 180 233 232
3 179 233 180
3 181 180 232
3 182 181 231
3 230 267 231
3 234 179 178
3 284 171 170
3 222 221 218
3 221 219 218
3 219 221 220
3 223 222 217
3 216 224 223
3 226 225 214
3 215 225 224
3 222 218 217
3 216 215 224
3 217 216 223
3 226 214 277
3 277 212 211
3 277 214 213
3 215 214 225
3 277 211 210
3 182 231 267
3 278 286 203
3 227 277 228
3 207 272 208
3 184 278 185
3 184 183 278
3 201 200 278
3 278 199 198
3 226 277 227
3 272 207 206
3 208 272 277
3 206 205 286
3 273 262 21
3 205 204 286
3 267 183 182
3 203 202 278
3 206 286 272
3 273 21 271
3 208 277 209
3 277 210 209
3 169 168 270
3 270 284 169
3 270 168 274
3 163 279 164
3 165 287 166
3 165 164 287
3 287 120 274
3 284 170 169
3 163 162 279
3 160 288 162
3 279 288 122
3 161 160 162
3 158 280 159
3 160 280 288
3 287 164 279
3 158 156 280
3 124 123 288
3 280 160 159
3 288 280 125
3 153 129 128
3 129 152 130
3 128 127 154
3 126 155 127
3 154 127 155
3 130 152 131
3 153 128 154
3 132 131 151
3 150 133 132
3 133 149 134
3 134 148 135
3 153 152 129
3 126 280 155
3 156 155 280
3 158 157 156
3 194 189 188
3 187 195 188
3 194 190 189
3 192 190 193
3 190 192 191
3 193 190 194
3 196 187 186
3 186 185 197
3 197 185 198
3 278 198 185
3 196 195 187
3 194 188 195
3 197 196 186
3 151 150 132
3 149 133 150
3 134 149 148
3 140 137 136
3 137 139 138
3 147 136 135
3 148 147 135
3 131 152 151
3 147 146 140
3 145 144 142
3 146 145 141
3 139 137 140
3 145 142 141
3 141 140 146
3 143 142 144
3 140 136 147
3 260 259 261
3 199 278 200
3 258 261 259
3 247 264 248
3 13 264 263
3 73 265 77
3 72 71 282
3 174 266 175
3 237 236 266
3 272 230 229
3 204 203 286
3 238 237 268
3 266 268 237
3 22 262 269
3 283 262 268
3 168 167 274
3 66 65 270
3 271 244 243
3 20 263 271
3 230 272 267
3 228 272 229
3 262 273 268
3 243 273 271
3 287 167 166
3 282 120 265
3 62 285 63
3 62 61 285
3 79 276 80
3 116 115 276
3 277 272 228
3 213 212 277
3 267 278 183
3 202 201 278
3 122 121 279
3 279 121 120
3 126 125 280
3 288 125 124
3 118 117 281
3 281 117 116
3 289 69 68
3 120 282 274
3 173 275 283
3 283 275 285
3 270 275 284
3 172 284 275
3 61 269 285
3 262 285 269
3 278 267 286
3 272 286 267
3 120 287 279
3 167 287 274
3 122 288 123
3 288 279 162
3 274 289 270
3 66 270 289
