ply
format ascii 1.0
element vertex 290
property float x
property float y
property float z
property float u
property float v
element face 317
property list uchar int vertex_indices
end_header
65.1953 -393.897 0 147.636 8.36396
54.9582 -385.687 0 139.979 19.0208
51.1727 -372.025 0 140 33.201
51.0917 -358.056 0 143.678 46.6777
61.9605 -351.575 0 155.887 50
70.1723 -361.98 0 161 37.7695
76.0076 -360.559 0 167 37.5736
79.6598 -347.588 0 174 49.0883
81.7788 -333.886 0 179.719 61.7193
94.5899 -335.214 0 191.704 57
98.0783 -324.246 0 198 66.6324
99.4345 -310.449 0 203 79.5613
90.7246 -304.347 0 196.239 87.7609
78.4462 -298.393 0 186 96.7624
66.4538 -292.214 0 176.097 105.903
55.0223 -284.929 0 167.026 115.974
56.4666 -272.251 0 171.803 127.803
54.1861 -263.263 0 172 137.064
56.7869 -250.157 0 177.995 148.995
60.3905 -236.625 0 185.066 161.066
68.4305 -225.263 0 195.844 169.844
72.6229 -211.665 0 203.622 181.622
66.143 -207.084 0 199.605 187
52.784 -213.892 0 186.185 183.185
39.2916 -221.404 0 172.919 179
24.5083 -229.566 0 159.407 175.407
8.73898 -236.521 0 145.818 174
-4.44257 -249.031 0 134 166.718
-8.57401 -266.297 0 130.265 153.265
-12.9967 -283.112 0 126 140.032
-18.1843 -299.707 0 121 127.103
-22.4035 -316.361 0 116.83 113.83
-27.3647 -331.608 0 111 101.245
-32.5888 -346.73 0 104.809 88.8092
-39.1283 -361.257 0 97.031 77.031
-43.6998 -374.675 0 90 64.9434
-46.1375 -383.466 0 85.8385 56.8385
-54.4877 -386.744 0 77 55.3289
-53.7089 -373.157 0 80.5247 68.4753
-52.6179 -366.459 0 83 74.8438
-66.4908 -365.083 0 69.8678 79.1322
-74.4162 -374.012 0 60.2982 72
-82.6469 -382.303 0 50.554 65.554
-85.8799 -374.374 0 49 73.9741
-82.3087 -362.049 0 55 85.3173
-76.4266 -349.626 0 63.2955 96.2955
-65.2498 -341.516 0 75.9327 102
-53.5047 -328.66 0 86 109.276
-51.2844 -311.027 0 88 123.448
-48.7976 -293.812 0 90.4379 137.438
-47.1025 -277.283 0 92 150.963
-45.1988 -260.151 0 94 165.134
-43.3964 -244.399 0 97 178.892
-41.1641 -229.43 0 101 192.235
-37.9158 -215.089 0 106.116 205.116
-32.782 -202.021 0 113.265 217
-25.0497 -204.187 0 120.43 213.43
-11.1291 -193.251 0 133.087 219.087
2.18729 -181.857 0 145 225.052
5.15541 -173.624 0 148.809 232
17.5988 -167.165 0 161.694 235.694
25.0191 -155.484 0 170 244.081
24.35 -140.084 0 171 257.839
23.7293 -124.231 0 172 272.425
25.7337 -108.589 0 175 286.182
19.7537 -95.5473 0 169.921 299.079
13.7993 -82.8973 0 165 312.04
1.54864 -79.9306 0 153.031 316
-5.4541 -67.9977 0 147 328.484
-13.3573 -57.1593 0 140.001 339.999
-22.587 -46.7274 0 131.516 351.484
-31.1665 -36.0196 0 123.737 363.263
-39.1013 -25.3286 0 116.666 375.334
-48.7846 -15.2627 0 108.181 386.819
-58.2251 -4.41883 0 99.6956 398.304
-68.7826 5.7209 0 89.7115 409
-62.6258 12.0502 0 96.2175 415
-49.6076 16.7099 0 109.561 419
-47.0658 25.9185 0 113 429.49
-52.2051 37.603 0 109 442.833
-55.1326 50.9745 0 107 457.005
-58.4417 62.9781 0 104 470.762
-68.5052 68.5997 0 92.9758 480.024
-77.4979 74.3705 0 82.0762 489.924
-87.1156 78.0258 0 70.298 497.702
-95.2342 84.2711 0 60.1059 507.894
-102.404 91.7392 0 50.9132 519.087
-109.557 99.6839 0 42.5491 529.451
-114.715 109.724 0 36.1849 541.815
-119.662 118.442 0 29 553.839
-124.462 126.74 0 21.7498 565.25
-130.691 136.863 0 13.9716 577.028
-137.466 148.238 0 6.60748 588.393
-140.428 161.811 0 3 601.898
-137.303 171.762 0 5.65576 612
-125.077 165.171 0 18.1705 606
-111.284 170.383 0 29.8989 613.899
-100.295 179.78 0 41.129 623
-88.836 188.537 0 52.4011 632
-76.4286 194.881 0 64.6477 638.648
-67.1344 194.939 0 73.938 638.938
-75.4805 184.074 0 65.8669 627.867
-82.6569 172.104 0 59 615.711
-88.2555 159.526 0 53.8459 602.846
-95.161 148.815 0 49 589.853
-94.07 143.052 0 53.4191 580
-85.8993 137.547 0 64.4886 570.511
-77.7707 132.431 0 75.5491 561
-69.5501 127.29 0 86.5804 551.42
-61.1091 121.592 0 97.4802 541.52
-52.4382 116.337 0 108.537 532
-43.7335 111.123 0 119.572 522.428
-34.3609 108.698 0 131.643 515.357
-23.1279 106.854 0 144.593 510.407
-11.6195 100.946 0 156 502.475
-3.66963 90.2338 0 163 490.374
4.21688 80.0356 0 170.514 478.486
13.8973 71.0908 0 180 467.416
23.3613 61.2686 0 188.191 455.809
31.914 50.9189 0 195.262 443.738
42.5934 44.9936 0 206.057 435
51.6051 57.8247 0 216.526 444.526
61.3913 70.2221 0 227.602 454
71.189 81.8587 0 238.911 462.911
81.2951 92.5815 0 250.56 471
91.8925 104.045 0 262.174 479.174
103.885 115.835 0 274.245 486.245
108.748 133.154 0 280 498.862
111.728 151.916 0 284 512.205
114.659 170.621 0 288 525.548
118.205 187.378 0 293 538.477
122.801 203.92 0 298.995 550.995
129.661 221.723 0 306.773 562.773
136.513 239.649 0 314.551 574.551
144.802 257.247 0 323.743 585.743
152.229 274.933 0 332.229 597.229
160.006 291.204 0 341.421 608.421
167.595 304.61 0 351 618.867
176.104 314.765 0 361.382 627
182.512 311.061 0 366.861 622
185.202 300.513 0 367.169 610.831
200.505 305.086 0 380.582 607
214.425 304.093 0 394.339 604
227.567 299.173 0 406.311 596.689
226.998 290.175 0 404.046 588
212.832 286.222 0 389.46 587
198.124 279.907 0 374.874 586
184.818 269.557 0 361.961 583.039
179.547 252.495 0 356 572.431
176.696 233.466 0 352 559.088
174.357 214.369 0 348.527 545.527
170.865 195.516 0 344 532.403
166.739 176.338 0 339 519.474
163.757 156.899 0 335.093 506.093
160.671 137.956 0 331 492.789
160.709 118.835 0 330 479.032
163.688 101.677 0 331 464.446
170.11 90.2394 0 336 452.689
161.759 80.7794 0 326.538 444.538
154.169 67.577 0 317.345 433.345
145.038 55.0738 0 306.86 423.86
149.845 49.1953 0 311 418.459
143.195 36.3443 0 303 407.358
136.362 21.625 0 294.768 395.768
129.881 7.31828 0 286.99 383.99
122.426 -6.31034 0 278.505 372.505
115.032 -19.1469 0 270 361.027
106.936 -32.3094 0 261 349.755
101.943 -45.9633 0 255.998 338
104.642 -57.4937 0 259 326.483
109.431 -70.0288 0 263 313.141
113.816 -82.9339 0 266 299.384
117.946 -95.7034 0 269 285.626
121.976 -107.268 0 273 272.284
132.177 -111.311 0 284.578 264.422
144.003 -111.001 0 297.331 261
157.057 -106.075 0 311.917 262
167.109 -106.725 0 322 258.155
177.068 -111.165 0 331.188 250
186.978 -103.715 0 344.531 252
199.075 -97.9565 0 359.117 251
211.067 -91.8209 0 373.703 250
223.118 -86.6809 0 387.874 248
219.212 -73.8722 0 391 260.459
211.861 -60.6017 0 391 275.459
204.003 -48.234 0 390 290.047
196.882 -35.0392 0 390 305.044
189.074 -22.6734 0 389 319.633
181.956 -9.47023 0 389 334.633
174.152 2.89036 0 388 349.217
167.033 16.0932 0 388 364.217
161.394 28.6903 0 389.018 377.982
166.593 29.5493 0 394 376.269
170.494 18.0998 0 392 364.34
178.982 6.57672 0 394 350.169
189.887 -1.97809 0 399.537 337.463
203.29 -7.46641 0 408.73 326.27
217.402 -9.24974 0 420.304 318
231.328 -9.22317 0 432.579 311.421
245.288 -9.72816 0 444.649 304.351
259.328 -10.9773 0 456.428 296.572
271.324 -17.2881 0 464 285.295
281.811 -26.2472 0 469 272.366
290.122 -37.6496 0 471 258.194
297.733 -49.8822 0 472 243.608
304.439 -62.3289 0 472 229.438
311.297 -73.6336 0 472.64 216.36
318.651 -85.8734 0 473.238 202.238
322.96 -97.838 0 471.297 189.703
330.619 -110.397 0 471.996 174.996
334.776 -123.885 0 469.168 161.168
335.128 -137.79 0 462.804 148.804
329.288 -150.189 0 451.733 140.733
321.802 -161.958 0 439.522 134
314.541 -173.903 0 427.422 127
309.046 -186.574 0 416.52 118.52
307.114 -200.719 0 408.035 107.035
309.749 -214.374 0 403.792 93.7925
315.693 -226.901 0 403 79.9492
323.17 -236.407 0 405 68.0205
322.719 -244.396 0 400.772 61.2279
312.964 -234.416 0 397 74.6653
305.089 -222.095 0 396 89.2529
297.892 -208.936 0 396 104.253
290.014 -196.625 0 395 118.836
282.815 -183.464 0 395 133.837
275.615 -170.3 0 395 148.837
267.738 -157.975 0 394 163.422
260.533 -144.8 0 394 178.422
252.68 -132.502 0 393 193.009
245.566 -119.475 0 393 208.01
234.999 -117.127 0 384.873 215.873
223.013 -125.788 0 370.234 215
210.876 -134.104 0 355.649 214
198.541 -142.131 0 341.063 213
193.088 -152.345 0 332.72 206
179.213 -158.447 0 318.135 205
169.024 -168.516 0 306.439 198.439
164.898 -182.066 0 299.367 186.367
163.044 -194.302 0 294.581 175
170.629 -200.368 0 300.319 167
158.554 -203.914 0 287.862 166.862
157.877 -216.926 0 284 154.29
154.324 -230.432 0 277.134 142.134
150.566 -243.873 0 270 130.09
147.883 -255.863 0 264.235 119.235
145.729 -268.244 0 258.871 107.871
140.954 -280.523 0 251 97.303
136.075 -293.885 0 242.729 85.7291
128.976 -306.433 0 232.536 75.5365
116.249 -312.289 0 218.708 73.2917
105.884 -318.528 0 207.052 70.0515
102.322 -332.053 0 200 57.9727
110.502 -340.123 0 205.713 48
118.295 -348.389 0 211 37.9436
117.488 -352.946 0 209 33.7725
115.28 -363.694 0 203.989 24.0107
111.008 -374.177 0 197.061 15.061
103.659 -382.518 0 187.744 9
92.9225 -390.406 0 175.283 4.28345
78.119 -397.938 0 159 1
77.4676 -379.227 0 163.397 19.2
85.9615 -189.004 0 222.418 199.851
79.8106 -261.543 0 197.158 131.895
110.297 -285.67 0 220.087 100.537
-7.05309 12.3342 0 151.861 410.94
159.901 -135.599 0 306.586 232.878
247.087 -93.6459 0 406.468 230.06
125.625 -183.443 0 261.32 195.618
47.6944 -179.722 0 188.497 217.457
60.1499 -69.0376 0 212.946 320.627
112.428 -241.747 0 233.86 142.326
284.324 -105.05 0 433.92 201.91
131.477 -209.703 0 260.625 168.349
67.3741 -28.2897 0 222.394 359.242
73.7382 -120.235 0 221.899 268.749
-26.5128 66.968 0 136.779 470.704
305.859 -131.578 0 440.11 168.305
248.944 -49.1095 0 429.173 267.959
91.5537 34.5331 0 251.883 414.403
123.296 85.0374 0 288.938 454.209
6.42305 37.6031 0 167.384 435.514
0.257621 -20.415 0 156.203 376.245
112.002 -146.235 0 256.529 235.57
83.7032 -86.8911 0 235.437 299.924
53.7786 -145.117 0 199.546 248.849
272.556 -71.4561 0 439.635 236.523
93.5303 2.15267 0 250.681 384.232
97.1532 67.1689 0 261.248 443.175
13.8269 -45.5654 0 168.09 349.187
3 42 41 43
3 38 37 36
3 43 41 44
3 40 46 45
3 40 45 44
3 41 40 44
3 5 3 2
3 1 261 2
3 39 35 34
3 39 38 35
3 39 34 46
3 46 40 39
3 35 38 36
3 33 46 34
3 46 33 47
3 30 49 48
3 50 49 29
3 27 52 51
3 27 53 52
3 28 51 50
3 31 48 47
3 31 30 48
3 28 50 29
3 30 29 49
3 54 56 55
3 54 53 56
3 56 53 27
3 28 27 51
3 56 27 26
3 31 47 32
3 33 32 47
3 0 260 261
3 7 6 256
3 6 5 261
3 264 13 12
3 2 261 5
3 4 3 5
3 9 8 7
3 6 261 258
3 257 256 6
3 256 253 7
3 253 256 255
3 10 9 252
3 10 252 251
3 253 252 9
3 7 253 9
3 257 6 258
3 16 15 14
3 16 14 263
3 263 17 16
3 57 26 25
3 58 25 24
3 14 13 263
3 17 263 18
3 264 11 250
3 11 264 12
3 21 20 271
3 61 60 269
3 263 19 18
3 23 269 24
3 250 11 251
3 19 263 20
3 10 251 11
3 56 26 57
3 22 21 262
3 0 261 1
3 246 245 271
3 23 22 269
3 107 87 86
3 107 86 108
3 86 85 108
3 105 90 89
3 89 88 106
3 107 88 87
3 107 106 88
3 85 84 109
3 76 75 74
3 77 76 74
3 110 109 84
3 85 109 108
3 84 83 110
3 82 111 83
3 82 81 112
3 95 93 92
3 92 91 95
3 91 90 104
3 104 95 91
3 95 94 93
3 103 97 96
3 95 104 96
3 96 104 103
3 102 97 103
3 90 105 104
3 102 98 97
3 99 98 101
3 101 100 99
3 98 102 101
3 89 106 105
3 59 58 60
3 57 25 58
3 289 70 69
3 282 265 72
3 289 282 70
3 60 58 269
3 63 275 64
3 275 63 285
3 67 66 68
3 68 66 289
3 270 65 64
3 173 172 275
3 24 269 58
3 289 274 282
3 73 72 265
3 78 265 281
3 265 78 77
3 81 80 276
3 83 111 110
3 79 78 276
3 82 112 111
3 119 118 281
3 77 74 73
3 276 281 116
3 281 120 119
3 276 78 281
3 276 112 81
3 112 276 113
3 113 276 114
3 114 276 115
3 265 120 281
3 282 71 70
3 275 270 64
3 255 254 253
3 264 250 249
3 248 264 249
3 264 247 246
3 271 245 244
3 271 263 264
3 271 264 246
3 243 242 273
3 273 241 268
3 241 240 239
3 273 242 241
3 268 239 238
3 236 235 266
3 268 266 283
3 241 239 268
3 283 266 174
3 266 176 175
3 177 176 266
3 234 178 266
3 266 178 177
3 283 174 173
3 284 172 171
3 283 285 262
3 266 235 234
3 179 234 233
3 232 231 181
3 180 233 232
3 179 233 180
3 181 180 232
3 182 181 231
3 230 267 231
3 234 179 178
3 284 171 170
3 222 221 218
3 221 219 218
3 219 221 220
3 223 222 217
3 216 224 223
3 226 225 214
3 215 225 224
3 222 218 217
3 216 215 224
3 217 216 223
3 226 214 277
3 277 212 211
3 277 214 213
3 215 214 225
3 277 211 210
3 182 231 267
3 278 286 203
3 227 277 228
3 207 272 208
3 184 278 185
3 184 183 278
3 201 200 278
3 278 199 198
3 226 277 227
3 272 207 206
3 208 272 277
3 206 205 286
3 273 262 21
3 205 204 286
3 267 183 182
3 203 202 278
3 206 286 272
3 273 21 271
3 208 277 209
3 277 210 209
3 169 168 270
3 270 284 169
3 270 168 274
3 163 279 164
3 165 287 166
3 165 164 287
3 287 120 274
3 284 170 169
3 163 162 279
3 160 288 162
3 279 288 122
3 161 160 162
3 158 280 159
3 160 280 288
3 287 164 279
3 158 156 280
3 124 123 288
3 280 160 159
3 288 280 125
3 153 129 128
3 129 152 130
3 128 127 154
3 126 155 127
3 154 127 155
3 130 152 131
3 153 128 154
3 132 131 151
3 150 133 132
3 133 149 134
3 134 148 135
3 153 152 129
3 126 280 155
3 156 155 280
3 158 157 156
3 194 189 188
3 187 195 188
3 194 190 189
3 192 190 193
3 190 192 191
3 193 190 194
3 196 187 186
3 186 185 197
3 197 185 198
3 278 198 185
3 196 195 187
3 194 188 195
3 197 196 186
3 151 150 132
3 149 133 150
3 134 149 148
3 140 137 136
3 137 139 138
3 147 136 135
3 148 147 135
3 131 152 151
3 147 146 140
3 145 144 142
3 146 145 141
3 139 137 140
3 145 142 141
3 141 140 146
3 143 142 144
3 140 136 147
3 260 259 261
3 199 278 200
3 258 261 259
3 247 264 248
3 13 264 263
3 73 265 77
3 72 71 282
3 174 266 175
3 237 236 266
3 272 230 229
3 204 203 286
3 238 237 268
3 266 268 237
3 22 262 269
3 283 262 268
3 168 167 274
3 66 65 270
3 271 244 243
3 20 263 271
3 230 272 267
3 228 272 229
3 262 273 268
3 243 273 271
3 287 167 166
3 282 120 265
3 62 285 63
3 62 61 285
3 79 276 80
3 116 115 276
3 277 272 228
3 213 212 277
3 267 278 183
3 202 201 278
3 122 121 279
3 279 121 120
3 126 125 280
3 288 125 124
3 118 117 281
3 281 117 116
3 289 69 68
3 120 282 274
3 173 275 283
3 283 275 285
3 270 275 284
3 172 284 275
3 61 269 285
3 262 285 269
3 278 267 286
3 272 286 267
3 120 287 279
3 167 287 274
3 122 288 123
3 288 279 162
3 274 289 270
3 66 270 289
