ply
format ascii 1.0
element vertex 290
property float x
property float y
property float z
property float u
property float v
element face 317
property list uchar int vertex_indices
end_header
-4.38728 -339.997 0 147.636 8.36396
-12.9498 -330.052 0 139.979 19.0208
-14.1714 -315.926 0 140 33.201
-11.6938 -302.179 0 143.678 46.6777
0.177521 -297.796 0 155.887 50
6.34597 -309.529 0 161 37.7695
12.3426 -309.199 0 167 37.5736
18.3068 -297.116 0 174 49.0883
22.8975 -284.034 0 179.719 61.7193
35.2493 -287.684 0 191.704 57
40.6843 -277.539 0 198 66.6324
44.5396 -264.223 0 203 79.5613
37.0922 -256.636 0 196.239 87.7609
26.1106 -248.551 0 186 96.7624
15.4506 -240.299 0 176.097 105.903
5.53965 -231.052 0 167.026 115.974
9.27211 -218.852 0 171.803 127.803
8.66755 -209.603 0 172 137.064
13.6107 -197.195 0 177.995 148.995
19.6156 -184.553 0 185.066 161.066
29.594 -174.868 0 195.844 169.844
36.2711 -162.406 0 203.622 181.622
31.3913 -157.232 0 199.605 187
17.8444 -162.017 0 186.185 183.185
4.32765 -167.265 0 172.919 179
-9.88741 -172.336 0 159.407 175.407
-24.539 -175.541 0 145.818 174
-37.1882 -184.541 0 134 166.718
-41.4468 -199.312 0 130.265 153.265
-46.1303 -213.778 0 126 140.032
-51.561 -227.961 0 121 127.103
-56.1076 -242.395 0 116.83 113.83
-61.9168 -255.889 0 111 101.245
-68.049 -269.241 0 104.809 88.8092
-75.6511 -281.948 0 97.031 77.031
-81.9829 -294.497 0 90 64.9434
-85.6391 -302.847 0 85.8385 56.8385
-94.369 -304.902 0 77 55.3289
-91.6643 -291.563 0 80.5247 68.4753
-89.6041 -285.067 0 83 74.8438
-103.038 -281.649 0 69.8678 79.1322
-112.151 -289.359 0 60.2982 72
-121.478 -296.395 0 50.554 65.554
-123.55 -288.086 0 49 73.9741
-118.26 -276.394 0 55 85.3173
-110.663 -264.928 0 63.2955 96.2955
-98.4192 -258.47 0 75.9327 102
-87.3676 -249.356 0 86 109.276
-84.8979 -233.977 0 88 123.448
-82.075 -218.868 0 90.4379 137.438
-80.1151 -204.297 0 92 150.963
-77.8017 -189.092 0 94 165.134
-74.9663 -174.63 0 97 178.892
-71.3791 -160.708 0 101 192.235
-66.7378 -147.313 0 106.116 205.116
-60.157 -135.032 0 113.265 217
-52.7873 -138.185 0 120.43 213.43
-39.3701 -130.798 0 133.087 219.087
-26.6305 -123.045 0 145 225.052
-23.0052 -115.659 0 148.809 232
-10.1608 -111.091 0 161.694 235.694
-1.97887 -101.612 0 170 244.081
-1.42444 -87.2915 0 171 257.839
-0.894503 -72.2818 0 172 272.425
1.81012 -57.9234 0 175 286.182
-3.58215 -44.9917 0 169.921 299.079
-8.87152 -32.1439 0 165 312.04
-20.9504 -28.5203 0 153.031 316
-27.3192 -16.2176 0 147 328.484
-34.6445 -4.93857 0 140.001 339.999
-43.4164 6.18653 0 131.516 351.484
-51.5037 17.5997 0 123.737 363.263
-58.9114 29.2154 0 116.666 375.334
-67.8352 40.2287 0 108.181 386.819
-76.6755 51.4801 0 99.6956 398.304
-86.8875 61.9607 0 89.7115 409
-80.5168 68.094 0 96.2175 415
-67.2902 72.3595 0 109.561 419
-64.2011 82.479 0 113 429.49
-68.6324 95.2915 0 109 442.833
-71.0089 109.194 0 107 457.005
-74.2149 122.379 0 104 470.762
-85.0379 130.411 0 92.9758 480.024
-95.4916 138.918 0 82.0762 489.924
-106.731 145.284 0 70.298 497.702
-116.447 154.125 0 60.1059 507.894
-125.199 164.037 0 50.9132 519.087
-133.354 173.522 0 42.5491 529.451
-139.547 185.059 0 36.1849 541.815
-146.27 195.919 0 29 553.839
-153.009 206.202 0 21.7498 565.25
-160.562 217.266 0 13.9716 577.028
-168.004 228.441 0 6.60748 588.393
-171.731 241.879 0 3 601.898
-169.169 252 0 5.65576 612
-156.596 246.113 0 18.1705 606
-144.453 253.429 0 29.8989 613.899
-133.501 262.881 0 41.129 623
-122.382 272.069 0 52.4011 632
-110.24 278.909 0 64.6477 638.648
-100.956 279.345 0 73.938 638.938
-108.853 268.15 0 65.8669 627.867
-115.531 255.89 0 59 615.711
-120.519 242.993 0 53.8459 602.846
-125.663 230.579 0 49 589.853
-121.994 222.038 0 53.4191 580
-111.573 213.933 0 64.4886 570.511
-101.19 205.918 0 75.5491 561
-90.8107 197.84 0 86.5804 551.42
-80.4653 189.356 0 97.4802 541.52
-69.9543 181.263 0 108.537 532
-59.455 173.137 0 119.572 522.428
-48.0543 167.599 0 131.643 515.357
-35.5084 163.701 0 144.593 510.407
-23.9692 156.458 0 156 502.475
-16.567 144.807 0 163 490.374
-8.83069 133.464 0 170.514 478.486
0.820868 123.087 0 180 467.416
9.49409 112.043 0 188.191 455.809
17.1073 100.502 0 195.262 443.738
27.9509 92.6573 0 206.057 435
37.9724 103.269 0 216.526 444.526
48.649 113.712 0 227.602 454
59.4883 123.542 0 238.911 462.911
70.6623 132.531 0 250.56 471
81.9811 141.791 0 262.174 479.174
94.0874 150.366 0 274.245 486.245
99.5973 164.46 0 280 498.862
103.324 179.504 0 284 512.205
107.033 194.531 0 288 525.548
111.586 208.688 0 293 538.477
117.157 222.5 0 298.995 550.995
124.706 236.19 0 306.773 562.773
132.252 249.921 0 314.551 574.551
141.225 263.155 0 323.743 585.743
149.43 276.62 0 332.229 597.229
158.199 289.462 0 341.421 608.421
167.131 300.933 0 351 618.867
176.902 309.817 0 361.382 627
182.737 305.246 0 366.861 622
183.89 294.222 0 367.169 610.831
198.098 293.055 0 380.582 607
211.962 290.785 0 394.339 604
224.398 284.291 0 406.311 596.689
222.723 275.458 0 404.046 588
208.221 273.418 0 389.46 587
193.498 270.661 0 374.874 586
180.324 265.323 0 361.961 583.039
174.505 252.669 0 356 572.431
170.819 237.526 0 352 559.088
167.658 222.219 0 348.527 545.527
163.405 207.286 0 344 532.403
158.614 192.39 0 339 519.474
154.937 177.108 0 335.093 506.093
151.107 162.03 0 331 492.789
150.385 146.6 0 330 479.032
152.015 131.182 0 331 464.446
157.511 119.528 0 336 452.689
148.415 110.913 0 326.538 444.538
139.74 99.0283 0 317.345 433.345
129.667 88.5344 0 306.86 423.86
134.021 82.9909 0 311 418.459
126.458 71.2965 0 303 407.358
118.651 58.681 0 294.768 395.768
111.28 46.068 0 286.99 383.99
103.128 33.8684 0 278.505 372.505
95.0034 21.9191 0 270 361.027
86.3008 10.004 0 261 349.755
81.2936 -2.37635 0 255.998 338
84.2188 -13.8941 0 259 326.483
88.5273 -26.9789 0 263 313.141
92.0388 -40.4817 0 266 299.384
95.4659 -53.9568 0 269 285.626
99.5727 -66.7505 0 273 272.284
110.908 -73.3323 0 284.578 264.422
123.536 -75.5052 0 297.331 261
137.781 -73.1797 0 311.917 262
148.002 -75.986 0 322 258.155
157.675 -82.9536 0 331.188 250
170.366 -79.0526 0 344.531 252
184.695 -77.7956 0 359.117 251
199.026 -76.4292 0 373.703 250
213.072 -76.0971 0 387.874 248
214.21 -63.1211 0 391 260.459
211.96 -48.2332 0 391 275.459
208.815 -33.9418 0 390 290.047
206.609 -19.1089 0 390 305.044
203.472 -4.82434 0 389 319.633
201.27 10.0126 0 389 334.633
198.135 24.2914 0 388 349.217
195.936 39.1297 0 388 364.217
194.918 52.8941 0 389.018 377.982
200.099 51.9329 0 394 376.269
199.873 39.8389 0 392 364.34
203.931 26.1145 0 394 350.169
211.277 14.3602 0 399.537 337.463
222.013 4.64037 0 408.73 326.27
234.678 -1.83729 0 420.304 318
247.785 -6.54051 0 432.579 311.421
260.758 -11.7596 0 444.649 304.351
273.547 -17.7161 0 456.428 296.572
282.692 -27.7477 0 464 285.295
289.534 -39.7801 0 469 272.366
293.571 -53.4462 0 471 258.194
296.679 -67.6632 0 472 243.608
298.765 -81.6662 0 472 229.438
301.334 -94.5395 0 472.64 216.36
304.025 -108.457 0 473.238 202.238
303.971 -121.149 0 471.297 189.703
306.856 -135.582 0 471.996 174.996
306.126 -149.677 0 469.168 161.168
301.68 -162.854 0 462.804 148.804
291.938 -172.49 0 451.733 140.733
280.867 -180.972 0 439.522 134
269.948 -189.699 0 427.422 127
260.435 -199.712 0 416.52 118.52
253.761 -212.333 0 408.035 107.035
251.546 -226.063 0 403.792 93.7925
252.826 -239.869 0 403 79.9492
256.582 -251.365 0 405 68.0205
253.414 -258.713 0 400.772 61.2279
247.682 -245.988 0 397 74.6653
244.517 -231.713 0 396 89.2529
242.279 -216.883 0 396 104.253
239.108 -202.614 0 395 118.836
236.869 -187.781 0 395 133.837
234.628 -172.949 0 395 148.837
231.462 -158.675 0 394 163.422
229.222 -143.84 0 394 178.422
226.056 -129.576 0 393 193.009
223.814 -114.791 0 393 208.01
214.586 -108.459 0 384.873 215.873
200.197 -111.839 0 370.234 215
185.847 -115.208 0 355.649 214
171.46 -118.495 0 341.063 213
163.812 -126.61 0 332.72 206
149.24 -129.231 0 318.135 205
137.884 -136.941 0 306.439 198.439
131.687 -149.577 0 299.367 186.367
127.802 -161.311 0 294.581 175
134.186 -168.749 0 300.319 167
121.743 -169.99 0 287.862 166.862
118.875 -182.803 0 284 154.29
113.024 -195.489 0 277.134 142.134
106.929 -208.08 0 270 130.09
102.119 -219.39 0 264.235 119.235
97.7523 -231.176 0 258.871 107.871
90.8224 -242.384 0 251 97.303
83.5851 -254.63 0 242.729 85.7291
74.3148 -265.669 0 232.536 75.5365
60.7334 -269.102 0 218.708 73.2917
49.4041 -273.344 0 207.052 70.0515
43.4289 -285.99 0 200 57.9727
49.9943 -295.422 0 205.713 48
56.143 -304.975 0 211 37.9436
54.5158 -309.307 0 209 33.7725
50.3776 -319.47 0 203.989 24.0107
44.2594 -328.993 0 197.061 15.061
35.5084 -335.847 0 187.744 9
23.5104 -341.637 0 175.283 4.28345
7.57889 -346.334 0 159 1
10.3616 -327.819 0 163.397 19.2
53.4428 -142.606 0 222.418 199.851
34.1775 -212.578 0 197.158 131.895
59.7434 -241.842 0 220.087 100.537
-24.8462 65.6498 0 151.861 410.94
135.057 -102.68 0 306.586 232.878
233.909 -90.9928 0 406.468 230.06
92.9245 -143.693 0 261.32 195.618
17.8264 -127.599 0 188.497 217.457
38.6274 -21.7536 0 212.946 320.627
69.8484 -199.028 0 233.86 142.326
265.195 -114.657 0 433.92 201.91
94.3241 -170.843 0 260.625 168.349
47.2694 17.606 0 222.394 359.242
49.1812 -73.4667 0 221.899 268.749
-41.6847 123.836 0 136.779 470.704
276.327 -146.964 0 440.11 168.305
250.803 -50.0329 0 429.173 267.959
75.0083 75.35 0 251.883 414.403
110.431 118.73 0 288.938 454.209
-10.086 90.5519 0 167.384 435.514
-19.3951 31.5309 0 156.203 376.245
85.2036 -104.379 0 256.529 235.57
61.5528 -41.5015 0 235.437 299.924
27.4677 -95.0423 0 199.546 248.849
265.703 -79.4271 0 439.635 236.523
74.8749 44.4521 0 250.681 384.232
83.1518 105.412 0 261.248 443.175
-6.8446 5.0926 0 168.09 349.187
3 42 41 43
3 38 37 36
3 43 41 44
3 40 46 45
3 40 45 44
3 41 40 44
3 5 3 2
3 1 261 2
3 39 35 34
3 39 38 35
3 39 34 46
3 46 40 39
3 35 38 36
3 33 46 34
3 46 33 47
3 30 49 48
3 50 49 29
3 27 52 51
3 27 53 52
3 28 51 50
3 31 48 47
3 31 30 48
3 28 50 29
3 30 29 49
3 54 56 55
3 54 53 56
3 56 53 27
3 28 27 51
3 56 27 26
3 31 47 32
3 33 32 47
3 0 260 261
3 7 6 256
3 6 5 261
3 264 13 12
3 2 261 5
3 4 3 5
3 9 8 7
3 6 261 258
3 257 256 6
3 256 253 7
3 253 256 255
3 10 9 252
3 10 252 251
3 253 252 9
3 7 253 9
3 257 6 258
3 16 15 14
3 16 14 263
3 263 17 16
3 57 26 25
3 58 25 24
3 14 13 263
3 17 263 18
3 264 11 250
3 11 264 12
3 21 20 271
3 61 60 269
3 263 19 18
3 23 269 24
3 250 11 251
3 19 263 20
3 10 251 11
3 56 26 57
3 22 21 262
3 0 261 1
3 246 245 271
3 23 22 269
3 107 87 86
3 107 86 108
3 86 85 108
3 105 90 89
3 89 88 106
3 107 88 87
3 107 106 88
3 85 84 109
3 76 75 74
3 77 76 74
3 110 109 84
3 85 109 108
3 84 83 110
3 82 111 83
3 82 81 112
3 95 93 92
3 92 91 95
3 91 90 104
3 104 95 91
3 95 94 93
3 103 97 96
3 95 104 96
3 96 104 103
3 102 97 103
3 90 105 104
3 102 98 97
3 99 98 101
3 101 100 99
3 98 102 101
3 89 106 105
3 59 58 60
3 57 25 58
3 289 70 69
3 282 265 72
3 289 282 70
3 60 58 269
3 63 275 64
3 275 63 285
3 67 66 68
3 68 66 289
3 270 65 64
3 173 172 275
3 24 269 58
3 289 274 282
3 73 72 265
3 78 265 281
3 265 78 77
3 81 80 276
3 83 111 110
3 79 78 276
3 82 112 111
3 119 118 281
3 77 74 73
3 276 281 116
3 281 120 119
3 276 78 281
3 276 112 81
3 112 276 113
3 113 276 114
3 114 276 115
3 265 120 281
3 282 71 70
3 275 270 64
3 255 254 253
3 264 250 249
3 248 264 249
3 264 247 246
3 271 245 244
3 271 263 264
3 271 264 246
3 243 242 273
3 273 241 268
3 241 240 239
3 273 242 241
3 268 239 238
3 236 235 266
3 268 266 283
3 241 239 268
3 283 266 174
3 266 176 175
3 177 176 266
3 234 178 266
3 266 178 177
3 283 174 173
3 284 172 171
3 283 285 262
3 266 235 234
3 179 234 233
3 232 231 181
3 180 233 232
3 179 233 180
3 181 180 232
3 182 181 231
3 230 267 231
3 234 179 178
3 284 171 170
3 222 221 218
3 221 219 218
3 219 221 220
3 223 222 217
3 216 224 223
3 226 225 214
3 215 225 224
3 222 218 217
3 216 215 224
3 217 216 223
3 226 214 277
3 277 212 211
3 277 214 213
3 215 214 225
3 277 211 210
3 182 231 267
3 278 286 203
3 227 277 228
3 207 272 208
3 184 278 185
3 184 183 278
3 201 200 278
3 278 199 198
3 226 277 227
3 272 207 206
3 208 272 277
3 206 205 286
3 273 262 21
3 205 204 286
3 267 183 182
3 203 202 278
3 206 286 272
3 273 21 271
3 208 277 209
3 277 210 209
3 169 168 270
3 270 284 169
3 270 168 274
3 163 279 164
3 165 287 166
3 165 164 287
3 287 120 274
3 284 170 169
3 163 162 279
3 160 288 162
3 279 288 122
3 161 160 162
3 158 280 159
3 160 280 288
3 287 164 279
3 158 156 280
3 124 123 288
3 280 160 159
3 288 280 125
3 153 129 128
3 129 152 130
3 128 127 154
3 126 155 127
3 154 127 155
3 130 152 131
3 153 128 154
3 132 131 151
3 150 133 132
3 133 149 134
3 134 148 135
3 153 152 129
3 126 280 155
3 156 155 280
3 158 157 156
3 194 189 188
3 187 195 188
3 194 190 189
3 192 190 193
3 190 192 191
3 193 190 194
3 196 187 186
3 186 185 197
3 197 185 198
3 278 198 185
3 196 195 187
3 194 188 195
3 197 196 186
3 151 150 132
3 149 133 150
3 134 149 148
3 140 137 136
3 137 139 138
3 147 136 135
3 148 147 135
3 131 152 151
3 147 146 140
3 145 144 142
3 146 145 141
3 139 137 140
3 145 142 141
3 141 140 146
3 143 142 144
3 140 136 147
3 260 259 261
3 199 278 200
3 258 261 259
3 247 264 248
3 13 264 263
3 73 265 77
3 72 71 282
3 174 266 175
3 237 236 266
3 272 230 229
3 204 203 286
3 238 237 268
3 266 268 237
3 22 262 269
3 283 262 268
3 168 167 274
3 66 65 270
3 271 244 243
3 20 263 271
3 230 272 267
3 228 272 229
3 262 273 268
3 243 273 271
3 287 167 166
3 282 120 265
3 62 285 63
3 62 61 285
3 79 276 80
3 116 115 276
3 277 272 228
3 213 212 277
3 267 278 183
3 202 201 278
3 122 121 279
3 279 121 120
3 126 125 280
3 288 125 124
3 118 117 281
3 281 117 116
3 289 69 68
3 120 282 274
3 173 275 283
3 283 275 285
3 270 275 284
3 172 284 275
3 61 269 285
3 262 285 269
3 278 267 286
3 272 286 267
3 120 287 279
3 167 287 274
3 122 288 123
3 288 279 162
3 274 289 270
3 66 270 289
