ply
format ascii 1.0
element vertex 290
property float x
property float y
property float z
property float u
property float v
element face 317
property list uchar int vertex_indices
end_header
-2.77195 -340.699 0 147.636 8.36396
-11.3512 -330.768 0 139.979 19.0208
-12.5965 -316.645 0 140 33.201
-10.142 -302.893 0 143.678 46.6777
1.72187 -298.491 0 155.887 50
7.91007 -310.213 0 161 37.7695
13.9061 -309.873 0 167 37.5736
19.85 -297.78 0 174 49.0883
24.4187 -284.69 0 179.719 61.7193
36.7766 -288.319 0 191.704 57
42.1946 -278.165 0 198 66.6324
46.0276 -264.843 0 203 79.5613
38.5675 -257.269 0 196.239 87.7609
27.5724 -249.202 0 186 96.7624
16.8986 -240.967 0 176.097 105.903
6.97221 -231.737 0 167.026 115.974
10.6843 -219.53 0 171.803 127.803
10.0643 -210.283 0 172 137.064
14.9867 -197.866 0 177.995 148.995
20.9705 -185.215 0 185.066 161.066
30.9328 -175.513 0 195.844 169.844
37.5899 -163.038 0 203.622 181.622
32.7041 -157.865 0 199.605 187
19.1679 -162.666 0 186.185 183.185
5.66136 -167.932 0 172.919 179
-8.54121 -173.021 0 159.407 175.407
-23.1828 -176.245 0 145.818 174
-35.8124 -185.262 0 134 166.718
-40.04 -200.034 0 130.265 153.265
-44.6931 -214.504 0 126 140.032
-50.0933 -228.692 0 121 127.103
-54.6083 -243.13 0 116.83 113.83
-60.3882 -256.631 0 111 101.245
-66.4909 -269.992 0 104.809 88.8092
-74.0647 -282.712 0 97.031 77.031
-80.3705 -295.275 0 90 64.9434
-84.0094 -303.632 0 85.8385 56.8385
-92.735 -305.705 0 77 55.3289
-90.0578 -292.361 0 80.5247 68.4753
-88.0109 -285.86 0 83 74.8438
-101.451 -282.47 0 69.8678 79.1322
-110.549 -290.198 0 60.2982 72
-119.861 -297.253 0 50.554 65.554
-121.95 -288.949 0 49 73.9741
-116.685 -277.246 0 55 85.3173
-109.111 -265.765 0 63.2955 96.2955
-96.8805 -259.28 0 75.9327 102
-85.8521 -250.149 0 86 109.276
-83.4167 -234.769 0 88 123.448
-80.6263 -219.658 0 90.4379 137.438
-78.6971 -205.087 0 92 150.963
-76.4149 -189.881 0 94 165.134
-73.607 -175.415 0 97 178.892
-70.0449 -161.486 0 101 192.235
-65.4261 -148.084 0 106.116 205.116
-58.8646 -135.792 0 113.265 217
-51.4904 -138.934 0 120.43 213.43
-38.0892 -131.528 0 133.087 219.087
-25.366 -123.758 0 145 225.052
-21.7515 -116.366 0 148.809 232
-8.9139 -111.779 0 161.694 235.694
-0.744175 -102.283 0 170 244.081
-0.203826 -87.956 0 171 257.839
0.314464 -72.9418 0 172 272.425
3.01307 -58.5785 0 175 286.182
-2.38415 -45.6494 0 169.921 299.079
-7.67912 -32.8041 0 165 312.04
-19.7594 -29.1851 0 153.031 316
-26.1326 -16.885 0 147 328.484
-33.4619 -5.60826 0 140.001 339.999
-42.2364 5.51324 0 131.516 351.484
-50.3258 16.9234 0 123.737 363.263
-57.7352 28.5355 0 116.666 375.334
-66.6611 39.5465 0 108.181 386.819
-75.5023 50.7978 0 99.6956 398.304
-85.7146 61.2782 0 89.7115 409
-79.3441 67.4116 0 96.2175 415
-66.1177 71.6775 0 109.561 419
-63.0263 81.7935 0 113 429.49
-67.4534 94.6032 0 109 442.833
-69.8259 108.505 0 107 457.005
-73.0221 121.688 0 104 470.762
-83.8253 129.712 0 92.9758 480.024
-94.2516 138.206 0 82.0762 489.924
-105.464 144.561 0 70.298 497.702
-115.15 153.392 0 60.1059 507.894
-123.871 163.293 0 50.9132 519.087
-132.003 172.773 0 42.5491 529.451
-138.172 184.304 0 36.1849 541.815
-144.861 195.153 0 29 553.839
-151.565 205.427 0 21.7498 565.25
-159.092 216.491 0 13.9716 577.028
-166.516 227.674 0 6.60748 588.393
-170.225 241.116 0 3 601.898
-167.651 251.233 0 5.65576 612
-155.085 245.33 0 18.1705 606
-142.915 252.619 0 29.8989 613.899
-131.955 262.059 0 41.129 623
-120.823 271.233 0 52.4011 632
-108.673 278.058 0 64.6477 638.648
-99.3884 278.482 0 73.938 638.938
-107.3 267.296 0 65.8669 627.867
-113.994 255.045 0 59 615.711
-119 242.156 0 53.8459 602.846
-124.175 229.76 0 49 589.853
-120.545 221.238 0 53.4191 580
-110.159 213.143 0 64.4886 570.511
-99.8112 205.141 0 75.5491 561
-89.4676 197.077 0 86.5804 551.42
-79.155 188.605 0 97.4802 541.52
-68.6757 180.526 0 108.537 532
-58.2078 172.415 0 119.572 522.428
-46.8382 166.893 0 131.643 515.357
-34.3095 163.001 0 144.593 510.407
-22.7782 155.76 0 156 502.475
-15.3827 144.112 0 163 490.374
-7.6559 132.776 0 170.514 478.486
1.98768 122.406 0 180 467.416
10.6589 111.368 0 188.191 455.809
18.2713 99.8343 0 195.262 443.738
29.1053 92.0035 0 206.057 435
39.1167 102.622 0 216.526 444.526
49.7855 113.071 0 227.602 454
60.617 122.907 0 238.911 462.911
71.7835 131.904 0 250.56 471
83.0954 141.173 0 262.174 479.174
95.1964 149.758 0 274.245 486.245
100.696 163.857 0 280 498.862
104.411 178.907 0 284 512.205
108.108 193.939 0 288 525.548
112.65 208.102 0 293 538.477
118.21 221.921 0 298.995 550.995
125.747 235.62 0 306.773 562.773
133.282 249.36 0 314.551 574.551
142.243 262.605 0 323.743 585.743
150.436 276.081 0 332.229 597.229
159.192 288.934 0 341.421 608.421
168.112 300.416 0 351 618.867
177.873 309.31 0 361.382 627
183.713 304.746 0 366.861 622
184.878 293.724 0 367.169 610.831
199.089 292.576 0 380.582 607
212.956 290.321 0 394.339 604
225.399 283.841 0 406.311 596.689
223.734 275.006 0 404.046 588
209.234 272.95 0 389.46 587
194.513 270.175 0 374.874 586
181.343 264.819 0 361.961 583.039
175.535 252.155 0 356 572.431
171.862 237.004 0 352 559.088
168.714 221.691 0 348.527 545.527
164.472 206.751 0 344 532.403
159.693 191.846 0 339 519.474
156.028 176.557 0 335.093 506.093
152.209 161.472 0 331 492.789
151.498 146.037 0 330 479.032
153.141 130.617 0 331 464.446
158.644 118.965 0 336 452.689
149.554 110.344 0 326.538 444.538
140.886 98.4512 0 317.345 433.345
130.82 87.9478 0 306.86 423.86
135.177 82.405 0 311 418.459
127.621 70.7052 0 303 407.358
119.82 58.0821 0 294.768 395.768
112.454 45.4631 0 286.99 383.99
104.306 33.2584 0 278.505 372.505
96.1853 21.3054 0 270 361.027
87.4846 9.38758 0 261 349.755
82.4744 -2.98899 0 255.998 338
85.396 -14.4951 0 259 326.483
89.708 -27.5705 0 263 313.141
93.2268 -41.0659 0 266 299.384
96.66 -54.5304 0 269 285.626
100.767 -67.3041 0 273 272.284
112.092 -73.8554 0 284.578 264.422
124.713 -76.0034 0 297.331 261
138.949 -73.6545 0 311.917 262
149.169 -76.4422 0 322 258.155
158.839 -83.387 0 331.188 250
171.496 -79.4496 0 344.531 252
185.791 -78.1489 0 359.117 251
200.088 -76.737 0 373.703 250
214.108 -76.3611 0 387.874 248
215.199 -63.3764 0 391 260.459
212.908 -48.4923 0 391 275.459
209.726 -34.2085 0 390 290.047
207.483 -19.3812 0 390 305.044
204.31 -5.10452 0 389 319.633
202.071 9.7269 0 389 334.633
198.9 23.9978 0 388 349.217
196.664 38.8305 0 388 364.217
195.612 52.5923 0 389.018 377.982
200.795 51.6441 0 394 376.269
200.599 39.5496 0 392 364.34
204.692 25.8354 0 394 350.169
212.067 14.0996 0 399.537 337.463
222.828 4.40662 0 408.73 326.27
235.508 -2.03929 0 420.304 318
248.627 -6.70965 0 432.579 311.421
261.613 -11.8961 0 444.649 304.351
274.417 -17.8205 0 456.428 296.572
283.587 -27.8289 0 464 285.295
290.457 -39.8436 0 469 272.366
294.526 -53.4978 0 471 258.194
297.666 -67.7052 0 472 243.608
299.787 -81.7025 0 472 229.438
302.392 -94.5703 0 472.64 216.36
305.122 -108.482 0 473.238 202.238
305.1 -121.175 0 471.297 189.703
308.023 -135.6 0 471.996 174.996
307.329 -149.697 0 469.168 161.168
302.917 -162.886 0 462.804 148.804
293.199 -172.547 0 451.733 140.733
282.151 -181.056 0 439.522 134
271.254 -189.811 0 427.422 127
261.767 -199.849 0 416.52 118.52
255.126 -212.487 0 408.035 107.035
252.946 -226.222 0 403.792 93.7925
254.261 -240.025 0 403 79.9492
258.047 -251.512 0 405 68.0205
254.898 -258.867 0 400.772 61.2279
249.132 -246.158 0 397 74.6653
245.931 -231.891 0 396 89.2529
243.655 -217.067 0 396 104.253
240.448 -202.806 0 395 118.836
238.17 -187.979 0 395 133.837
235.892 -173.152 0 395 148.837
232.689 -158.887 0 394 163.422
230.411 -144.057 0 394 178.422
227.21 -129.801 0 393 193.009
224.934 -115.024 0 393 208.01
215.705 -108.722 0 384.873 215.873
201.352 -112.151 0 370.234 215
187.037 -115.566 0 355.649 214
172.685 -118.898 0 341.063 213
165.064 -127.034 0 332.72 206
150.499 -129.683 0 318.135 205
139.157 -137.413 0 306.439 198.439
132.982 -150.058 0 299.367 186.367
129.116 -161.797 0 294.581 175
135.513 -169.223 0 300.319 167
123.072 -170.485 0 287.862 166.862
120.227 -183.3 0 284 154.29
114.397 -195.995 0 277.134 142.134
108.323 -208.596 0 270 130.09
103.531 -219.914 0 264.235 119.235
99.1849 -231.707 0 258.871 107.871
92.2738 -242.926 0 251 97.303
85.057 -255.185 0 242.729 85.7291
75.8051 -266.239 0 232.536 75.5365
62.2295 -269.695 0 218.708 73.2917
50.9074 -273.956 0 207.052 70.0515
44.9533 -286.612 0 200 57.9727
51.5346 -296.032 0 205.713 48
57.6994 -305.575 0 211 37.9436
56.0795 -309.91 0 209 33.7725
51.9583 -320.08 0 203.989 24.0107
45.8562 -329.614 0 197.061 15.061
37.1167 -336.482 0 187.744 9
25.1285 -342.292 0 175.283 4.28345
9.20483 -347.016 0 159 1
11.9565 -328.496 0 163.397 19.2
54.7298 -143.208 0 222.418 199.851
35.5791 -213.215 0 197.158 131.895
61.1939 -242.437 0 220.087 100.537
-23.6749 64.9716 0 151.861 410.94
136.27 -103.16 0 306.586 232.878
234.969 -91.2002 0 406.468 230.06
94.2099 -144.237 0 261.32 195.618
19.0948 -128.248 0 188.497 217.457
39.8119 -22.3857 0 212.946 320.627
71.2272 -199.605 0 233.86 142.326
266.308 -114.782 0 433.92 201.91
95.6555 -171.382 0 260.625 168.349
48.4475 16.97 0 222.394 359.242
50.3912 -74.0819 0 221.899 268.749
-40.5 123.141 0 136.779 470.704
277.523 -147.06 0 440.11 168.305
251.754 -50.1944 0 429.173 267.959
76.169 74.7269 0 251.883 414.403
111.565 118.135 0 288.938 454.209
-8.91384 89.8701 0 167.384 435.514
-18.2197 30.8607 0 156.203 376.245
86.4353 -104.94 0 256.529 235.57
62.7427 -42.1114 0 235.437 299.924
28.6946 -95.6789 0 199.546 248.849
266.719 -79.5466 0 439.635 236.523
76.0478 43.8288 0 250.681 384.232
84.2948 104.796 0 261.248 443.175
-5.6654 4.4319 0 168.09 349.187
3 42 41 43
3 38 37 36
3 43 41 44
3 40 46 45
3 40 45 44
3 41 40 44
3 5 3 2
3 1 261 2
3 39 35 34
3 39 38 35
3 39 34 46
3 46 40 39
3 35 38 36
3 33 46 34
3 46 33 47
3 30 49 48
3 50 49 29
3 27 52 51
3 27 53 52
3 28 51 50
3 31 48 47
3 31 30 48
3 28 50 29
3 30 29 49
3 54 56 55
3 54 53 56
3 56 53 27
3 28 27 51
3 56 27 26
3 31 47 32
3 33 32 47
3 0 260 261
3 7 6 256
3 6 5 261
3 264 13 12
3 2 261 5
3 4 3 5
3 9 8 7
3 6 261 258
3 257 256 6
3 256 253 7
3 253 256 255
3 10 9 252
3 10 252 251
3 253 252 9
3 7 253 9
3 257 6 258
3 16 15 14
3 16 14 263
3 263 17 16
3 57 26 25
3 58 25 24
3 14 13 263
3 17 263 18
3 264 11 250
3 11 264 12
3 21 20 271
3 61 60 269
3 263 19 18
3 23 269 24
3 250 11 251
3 19 263 20
3 10 251 11
3 56 26 57
3 22 21 262
3 0 261 1
3 246 245 271
3 23 22 269
3 107 87 86
3 107 86 108
3 86 85 108
3 105 90 89
3 89 88 106
3 107 88 87
3 107 106 88
3 85 84 109
3 76 75 74
3 77 76 74
3 110 109 84
3 85 109 108
3 84 83 110
3 82 111 83
3 82 81 112
3 95 93 92
3 92 91 95
3 91 90 104
3 104 95 91
3 95 94 93
3 103 97 96
3 95 104 96
3 96 104 103
3 102 97 103
3 90 105 104
3 102 98 97
3 99 98 101
3 101 100 99
3 98 102 101
3 89 106 105
3 59 58 60
3 57 25 58
3 289 70 69
3 282 265 72
3 289 282 70
3 60 58 269
3 63 275 64
3 275 63 285
3 67 66 68
3 68 66 289
3 270 65 64
3 173 172 275
3 24 269 58
3 289 274 282
3 73 72 265
3 78 265 281
3 265 78 77
3 81 80 276
3 83 111 110
3 79 78 276
3 82 112 111
3 119 118 281
3 77 74 73
3 276 281 116
3 281 120 119
3 276 78 281
3 276 112 81
3 112 276 113
3 113 276 114
3 114 276 115
3 265 120 281
3 282 71 70
3 275 270 64
3 255 254 253
3 264 250 249
3 248 264 249
3 264 247 246
3 271 245 244
3 271 263 264
3 271 264 246
3 243 242 273
3 273 241 268
3 241 240 239
3 273 242 241
3 268 239 238
3 236 235 266
3 268 266 283
3 241 239 268
3 283 266 174
3 266 176 175
3 177 176 266
3 234 178 266
3 266 178 177
3 283 174 173
3 284 172 171
3 283 285 262
3 266 235 234
3 179 234 233
3 232 231 181
3 180 233 232
3 179 233 180
3 181 180 232
3 182 181 231
3 230 267 231
3 234 179 178
3 284 171 170
3 222 221 218
3 221 219 218
3 219 221 220
3 223 222 217
3 216 224 223
3 226 225 214
3 215 225 224
3 222 218 217
3 216 215 224
3 217 216 223
3 226 214 277
3 277 212 211
3 277 214 213
3 215 214 225
3 277 211 210
3 182 231 267
3 278 286 203
3 227 277 228
3 207 272 208
3 184 278 185
3 184 183 278
3 201 200 278
3 278 199 198
3 226 277 227
3 272 207 206
3 208 272 277
3 206 205 286
3 273 262 21
3 205 204 286
3 267 183 182
3 203 202 278
3 206 286 272
3 273 21 271
3 208 277 209
3 277 210 209
3 169 168 270
3 270 284 169
3 270 168 274
3 163 279 164
3 165 287 166
3 165 164 287
3 287 120 274
3 284 170 169
3 163 162 279
3 160 288 162
3 279 288 122
3 161 160 162
3 158 280 159
3 160 280 288
3 287 164 279
3 158 156 280
3 124 123 288
3 280 160 159
3 288 280 125
3 153 129 128
3 129 152 130
3 128 127 154
3 126 155 127
3 154 127 155
3 130 152 131
3 153 128 154
3 132 131 151
3 150 133 132
3 133 149 134
3 134 148 135
3 153 152 129
3 126 280 155
3 156 155 280
3 158 157 156
3 194 189 188
3 187 195 188
3 194 190 189
3 192 190 193
3 190 192 191
3 193 190 194
3 196 187 186
3 186 185 197
3 197 185 198
3 278 198 185
3 196 195 187
3 194 188 195
3 197 196 186
3 151 150 132
3 149 133 150
3 134 149 148
3 140 137 136
3 137 139 138
3 147 136 135
3 148 147 135
3 131 152 151
3 147 146 140
3 145 144 142
3 146 145 141
3 139 137 140
3 145 142 141
3 141 140 146
3 143 142 144
3 140 136 147
3 260 259 261
3 199 278 200
3 258 261 259
3 247 264 248
3 13 264 263
3 73 265 77
3 72 71 282
3 174 266 175
3 237 236 266
3 272 230 229
3 204 203 286
3 238 237 268
3 266 268 237
3 22 262 269
3 283 262 268
3 168 167 274
3 66 65 270
3 271 244 243
3 20 263 271
3 230 272 267
3 228 272 229
3 262 273 268
3 243 273 271
3 287 167 166
3 282 120 265
3 62 285 63
3 62 61 285
3 79 276 80
3 116 115 276
3 277 272 228
3 213 212 277
3 267 278 183
3 202 201 278
3 122 121 279
3 279 121 120
3 126 125 280
3 288 125 124
3 118 117 281
3 281 117 116
3 289 69 68
3 120 282 274
3 173 275 283
3 283 275 285
3 270 275 284
3 172 284 275
3 61 269 285
3 262 285 269
3 278 267 286
3 272 286 267
3 120 287 279
3 167 287 274
3 122 288 123
3 288 279 162
3 274 289 270
3 66 270 289
