ply
format ascii 1.0
element vertex 290
property float x
property float y
property float z
property float u
property float v
element face 317
property list uchar int vertex_indices
end_header
68.0335 -393.615 0 147.636 8.36396
57.79 -385.412 0 139.979 19.0208
53.9937 -371.753 0 140 33.201
53.9016 -357.785 0 143.678 46.6777
64.7651 -351.295 0 155.887 50
72.9853 -361.693 0 161 37.7695
78.8195 -360.268 0 167 37.5736
82.4614 -347.294 0 174 49.0883
84.5695 -333.591 0 179.719 61.7193
97.3817 -334.909 0 191.704 57
100.861 -323.937 0 198 66.6324
102.207 -310.14 0 203 79.5613
93.4928 -304.043 0 196.239 87.7609
81.2108 -298.098 0 186 96.7624
69.2148 -291.929 0 176.097 105.903
57.7777 -284.652 0 167.026 115.974
59.2122 -271.973 0 171.803 127.803
56.9249 -262.988 0 172 137.064
59.5156 -249.879 0 177.995 148.995
63.1094 -236.344 0 185.066 161.066
71.144 -224.974 0 195.844 169.844
75.3511 -211.358 0 203.622 181.622
69.0072 -206.703 0 199.605 187
55.8171 -213.461 0 186.185 183.185
42.5104 -220.916 0 172.919 179
28.043 -228.907 0 159.407 175.407
12.6423 -235.639 0 145.818 174
-0.11021 -247.893 0 134 166.718
-3.7462 -264.816 0 130.265 153.265
-7.70352 -281.329 0 126 140.032
-12.4227 -297.635 0 121 127.103
-16.1726 -314.002 0 116.83 113.83
-20.779 -329.09 0 111 101.245
-25.654 -344.065 0 104.809 88.8092
-31.8821 -358.5 0 97.031 77.031
-36.2882 -371.949 0 90 64.9434
-38.6271 -380.766 0 85.8385 56.8385
-46.9403 -384.136 0 77 55.3289
-46.3119 -370.541 0 80.5247 68.4753
-45.2909 -363.827 0 83 74.8438
-59.1619 -362.586 0 69.8678 79.1322
-66.9876 -371.602 0 60.2982 72
-75.1257 -379.984 0 50.554 65.554
-78.4464 -372.092 0 49 73.9741
-75.0121 -359.728 0 55 85.3173
-69.2668 -347.239 0 63.2955 96.2955
-58.1764 -339.001 0 75.9327 102
-46.9462 -326.421 0 86 109.276
-45.2494 -309.124 0 88 123.448
-43.2456 -292.208 0 90.4379 137.438
-42.0156 -275.982 0 92 150.963
-40.5647 -259.137 0 94 165.134
-39.0644 -243.539 0 97 178.892
-37.0514 -228.648 0 101 192.235
-33.9727 -214.35 0 106.116 205.116
-28.947 -201.257 0 113.265 217
-21.2123 -203.38 0 120.43 213.43
-7.66767 -192.662 0 133.087 219.087
5.25367 -181.518 0 145 225.052
8.13305 -173.315 0 148.809 232
20.4982 -166.831 0 161.694 235.694
27.8013 -155.201 0 170 244.081
27.0701 -139.839 0 171 257.839
26.4248 -124.013 0 172 272.425
28.4429 -108.421 0 175 286.182
22.4825 -95.41 0 169.921 299.079
16.5399 -82.7645 0 165 312.04
4.29306 -79.7874 0 153.031 316
-2.69892 -67.8481 0 147 328.484
-10.5897 -56.9899 0 140.001 339.999
-19.8083 -46.5286 0 131.516 351.484
-28.3705 -35.78 0 123.737 363.263
-36.2864 -25.0309 0 116.666 375.334
-45.9371 -14.8777 0 108.181 386.819
-55.3222 -3.97886 0 99.6956 398.304
-65.839 6.20327 0 89.7115 409
-59.6568 12.5092 0 96.2175 415
-46.617 17.1224 0 109.561 419
-44.0112 26.3979 0 113 429.49
-49.0435 38.2034 0 109 442.833
-51.8526 51.6666 0 107 457.005
-55.0171 63.8111 0 104 470.762
-64.9327 69.6799 0 92.9758 480.024
-73.7349 75.6753 0 82.0762 489.924
-83.1851 79.5805 0 70.298 497.702
-91.0711 86.0545 0 60.1059 507.894
-97.9724 93.7387 0 50.9132 519.087
-104.876 101.891 0 42.5491 529.451
-109.729 112.102 0 36.1849 541.815
-114.342 121.01 0 29 553.839
-118.801 129.497 0 21.7498 565.25
-124.671 139.836 0 13.9716 577.028
-131.113 151.398 0 6.60748 588.393
-133.714 165.047 0 3 601.898
-130.331 174.915 0 5.65576 612
-118.277 168.012 0 18.1705 606
-104.21 172.898 0 29.8989 613.899
-92.971 181.959 0 41.129 623
-81.26 190.374 0 52.4011 632
-68.6711 196.349 0 64.6477 638.648
-59.3793 196.133 0 73.938 638.938
-68.0422 185.519 0 65.8669 627.867
-75.569 173.765 0 59 615.711
-81.542 161.356 0 53.8459 602.846
-88.8412 150.824 0 49 589.853
-88.0612 144.986 0 53.4191 580
-80.1818 139.237 0 64.4886 570.511
-72.338 133.888 0 75.5491 561
-64.3921 128.526 0 86.5804 551.42
-56.2199 122.618 0 97.4802 541.52
-47.8001 117.163 0 108.537 532
-39.3396 111.765 0 119.572 522.428
-30.1568 109.165 0 131.643 515.357
-19.0244 107.157 0 144.593 510.407
-7.65455 101.086 0 156 502.475
0.0937606 90.2931 0 163 490.374
7.79345 80.0666 0 170.514 478.486
17.3399 71.0718 0 180 467.416
26.6758 61.1935 0 188.191 455.809
35.1093 50.8187 0 195.262 443.738
45.686 44.8901 0 206.057 435
54.6675 57.5996 0 216.526 444.526
64.4303 69.8922 0 227.602 454
74.2061 81.4471 0 238.911 462.911
84.2871 92.1215 0 250.56 471
94.8399 103.514 0 262.174 479.174
106.763 115.176 0 274.245 486.245
111.545 132.314 0 280 498.862
114.438 150.862 0 284 512.205
117.279 169.359 0 288 525.548
120.739 185.987 0 293 538.477
125.247 202.405 0 298.995 550.995
132.009 220.025 0 306.773 562.773
138.759 237.764 0 314.551 574.551
146.943 255.185 0 323.743 585.743
154.26 272.696 0 332.229 597.229
161.927 288.852 0 341.421 608.421
169.421 302.251 0 351 618.867
177.859 312.462 0 361.382 627
184.293 308.8 0 366.861 622
187.056 298.255 0 367.169 610.831
202.335 302.692 0 380.582 607
216.26 301.839 0 394.339 604
229.44 297.025 0 406.311 596.689
228.943 288.024 0 404.046 588
214.808 283.967 0 389.46 587
200.139 277.647 0 374.874 586
186.892 267.41 0 361.961 583.039
181.723 250.546 0 356 572.431
178.982 231.714 0 352 559.088
176.749 212.819 0 348.527 545.527
173.358 194.162 0 344 532.403
169.33 175.198 0 339 519.474
166.443 155.978 0 335.093 506.093
163.445 137.232 0 331 492.789
163.564 118.328 0 330 479.032
166.598 101.266 0 331 464.446
173.061 89.86 0 336 452.689
164.742 80.3703 0 326.538 444.538
157.178 67.1512 0 317.345 433.345
148.054 54.6602 0 306.86 423.86
152.858 48.8098 0 311 418.459
146.214 35.9745 0 303 407.358
139.366 21.3062 0 294.768 395.768
132.859 7.039 0 286.99 383.99
125.377 -6.5549 0 278.505 372.505
117.954 -19.3746 0 270 361.027
109.807 -32.4844 0 261 349.755
104.759 -46.0279 0 255.998 338
107.434 -57.4698 0 259 326.483
112.204 -69.9792 0 263 313.141
116.56 -82.8759 0 266 299.384
120.666 -95.609 0 269 285.626
124.673 -107.092 0 273 272.284
134.822 -111.096 0 284.578 264.422
146.611 -110.8 0 297.331 261
159.677 -105.923 0 311.917 262
169.697 -106.623 0 322 258.155
179.515 -111.124 0 331.188 250
189.184 -103.77 0 344.531 252
200.959 -98.1516 0 359.117 251
212.631 -92.1622 0 373.703 250
224.427 -87.1543 0 387.874 248
220.447 -74.3431 0 391 260.459
213.133 -61.0288 0 391 275.459
205.346 -48.6098 0 390 290.047
198.316 -35.366 0 390 305.044
190.593 -22.9463 0 389 319.633
183.568 -9.69416 0 389 334.633
175.849 2.72022 0 388 349.217
168.822 15.9722 0 388 364.217
163.27 28.6081 0 389.018 377.982
168.475 29.4309 0 394 376.269
172.297 17.9547 0 392 364.34
180.704 6.373 0 394 350.169
191.55 -2.25719 0 399.537 337.463
204.914 -7.83832 0 408.73 326.27
219.014 -9.71947 0 420.304 318
232.937 -9.78979 0 432.579 311.421
246.89 -10.3913 0 444.649 304.351
260.919 -11.7364 0 456.428 296.572
272.867 -18.1286 0 464 285.295
283.282 -27.1593 0 469 272.366
291.475 -38.622 0 471 258.194
298.965 -50.9063 0 472 243.608
305.589 -63.3905 0 472 229.438
312.412 -74.7231 0 472.64 216.36
319.729 -86.9944 0 473.238 202.238
323.977 -98.9793 0 471.297 189.703
331.562 -111.582 0 471.996 174.996
335.638 -125.094 0 469.168 161.168
335.908 -139 0 462.804 148.804
329.993 -151.364 0 451.733 140.733
322.438 -163.088 0 439.522 134
315.106 -174.989 0 427.422 127
309.536 -187.627 0 416.52 118.52
307.521 -201.761 0 408.035 107.035
310.075 -215.431 0 403.792 93.7925
315.944 -227.994 0 403 79.9492
323.365 -237.544 0 405 68.0205
322.867 -245.529 0 400.772 61.2279
313.171 -235.492 0 397 74.6653
305.369 -223.125 0 396 89.2529
298.251 -209.924 0 396 104.253
290.446 -197.565 0 395 118.836
283.325 -184.362 0 395 133.837
276.203 -171.155 0 395 148.837
268.4 -158.784 0 394 163.422
261.277 -145.565 0 394 178.422
253.515 -133.215 0 393 193.009
246.536 -120.128 0 393 208.01
236.198 -117.662 0 384.873 215.873
224.554 -126.16 0 370.234 215
212.748 -134.322 0 355.649 214
200.768 -142.192 0 341.063 213
195.469 -152.32 0 332.72 206
181.652 -158.345 0 318.135 205
171.534 -168.338 0 306.439 198.439
167.468 -181.829 0 299.367 186.367
165.643 -194.035 0 294.581 175
173.24 -200.092 0 300.319 167
161.177 -203.625 0 287.862 166.862
160.546 -216.605 0 284 154.29
157.02 -230.095 0 277.134 142.134
153.283 -243.531 0 270 130.09
150.612 -255.519 0 264.235 119.235
148.468 -267.901 0 258.871 107.871
143.704 -280.182 0 251 97.303
138.835 -293.548 0 242.729 85.7291
131.745 -306.101 0 232.536 75.5365
119.022 -311.967 0 218.708 73.2917
108.663 -318.213 0 207.052 70.0515
105.111 -331.741 0 200 57.9727
113.298 -339.804 0 205.713 48
121.098 -348.064 0 211 37.9436
120.294 -352.622 0 209 33.7725
118.094 -363.372 0 203.989 24.0107
113.831 -373.858 0 197.061 15.061
106.488 -382.205 0 187.744 9
95.758 -390.101 0 175.283 4.28345
80.9604 -397.646 0 159 1
80.2943 -378.934 0 163.397 19.2
88.687 -188.667 0 222.418 199.851
82.548 -261.247 0 197.158 131.895
113.05 -285.352 0 220.087 100.537
-4.08502 12.5036 0 151.861 410.94
162.39 -135.455 0 306.586 232.878
248.206 -94.3052 0 406.468 230.06
128.212 -183.174 0 261.32 195.618
50.5773 -179.322 0 188.497 217.457
62.9046 -68.9445 0 212.946 320.627
115.148 -241.428 0 233.86 142.326
285.299 -105.956 0 433.92 201.91
134.153 -209.383 0 260.625 168.349
70.228 -28.3507 0 222.394 359.242
76.4261 -120.029 0 221.899 268.749
-23.0708 67.3336 0 136.779 470.704
306.676 -132.614 0 440.11 168.305
250.276 -49.797 0 429.173 267.959
94.5595 34.2145 0 251.883 414.403
126.267 84.5183 0 288.938 454.209
9.54206 37.6662 0 167.384 435.514
3.10463 -20.2854 0 156.203 376.245
114.624 -145.975 0 256.529 235.57
86.4354 -86.7672 0 235.437 299.924
56.494 -144.82 0 199.546 248.849
273.63 -72.32 0 439.635 236.523
96.4828 1.93397 0 250.681 384.232
100.158 66.7293 0 261.248 443.175
16.6182 -45.4491 0 168.09 349.187
3 42 41 43
3 38 37 36
3 43 41 44
3 40 46 45
3 40 45 44
3 41 40 44
3 5 3 2
3 1 261 2
3 39 35 34
3 39 38 35
3 39 34 46
3 46 40 39
3 35 38 36
3 33 46 34
3 46 33 47
3 30 49 48
3 50 49 29
3 27 52 51
3 27 53 52
3 28 51 50
3 31 48 47
3 31 30 48
3 28 50 29
3 30 29 49
3 54 56 55
3 54 53 56
3 56 53 27
3 28 27 51
3 56 27 26
3 31 47 32
3 33 32 47
3 0 260 261
3 7 6 256
3 6 5 261
3 264 13 12
3 2 261 5
3 4 3 5
3 9 8 7
3 6 261 258
3 257 256 6
3 256 253 7
3 253 256 255
3 10 9 252
3 10 252 251
3 253 252 9
3 7 253 9
3 257 6 258
3 16 15 14
3 16 14 263
3 263 17 16
3 57 26 25
3 58 25 24
3 14 13 263
3 17 263 18
3 264 11 250
3 11 264 12
3 21 20 271
3 61 60 269
3 263 19 18
3 23 269 24
3 250 11 251
3 19 263 20
3 10 251 11
3 56 26 57
3 22 21 262
3 0 261 1
3 246 245 271
3 23 22 269
3 107 87 86
3 107 86 108
3 86 85 108
3 105 90 89
3 89 88 106
3 107 88 87
3 107 106 88
3 85 84 109
3 76 75 74
3 77 76 74
3 110 109 84
3 85 109 108
3 84 83 110
3 82 111 83
3 82 81 112
3 95 93 92
3 92 91 95
3 91 90 104
3 104 95 91
3 95 94 93
3 103 97 96
3 95 104 96
3 96 104 103
3 102 97 103
3 90 105 104
3 102 98 97
3 99 98 101
3 101 100 99
3 98 102 101
3 89 106 105
3 59 58 60
3 57 25 58
3 289 70 69
3 282 265 72
3 289 282 70
3 60 58 269
3 63 275 64
3 275 63 285
3 67 66 68
3 68 66 289
3 270 65 64
3 173 172 275
3 24 269 58
3 289 274 282
3 73 72 265
3 78 265 281
3 265 78 77
3 81 80 276
3 83 111 110
3 79 78 276
3 82 112 111
3 119 118 281
3 77 74 73
3 276 281 116
3 281 120 119
3 276 78 281
3 276 112 81
3 112 276 113
3 113 276 114
3 114 276 115
3 265 120 281
3 282 71 70
3 275 270 64
3 255 254 253
3 264 250 249
3 248 264 249
3 264 247 246
3 271 245 244
3 271 263 264
3 271 264 246
3 243 242 273
3 273 241 268
3 241 240 239
3 273 242 241
3 268 239 238
3 236 235 266
3 268 266 283
3 241 239 268
3 283 266 174
3 266 176 175
3 177 176 266
3 234 178 266
3 266 178 177
3 283 174 173
3 284 172 171
3 283 285 262
3 266 235 234
3 179 234 233
3 232 231 181
3 180 233 232
3 179 233 180
3 181 180 232
3 182 181 231
3 230 267 231
3 234 179 178
3 284 171 170
3 222 221 218
3 221 219 218
3 219 221 220
3 223 222 217
3 216 224 223
3 226 225 214
3 215 225 224
3 222 218 217
3 216 215 224
3 217 216 223
3 226 214 277
3 277 212 211
3 277 214 213
3 215 214 225
3 277 211 210
3 182 231 267
3 278 286 203
3 227 277 228
3 207 272 208
3 184 278 185
3 184 183 278
3 201 200 278
3 278 199 198
3 226 277 227
3 272 207 206
3 208 272 277
3 206 205 286
3 273 262 21
3 205 204 286
3 267 183 182
3 203 202 278
3 206 286 272
3 273 21 271
3 208 277 209
3 277 210 209
3 169 168 270
3 270 284 169
3 270 168 274
3 163 279 164
3 165 287 166
3 165 164 287
3 287 120 274
3 284 170 169
3 163 162 279
3 160 288 162
3 279 288 122
3 161 160 162
3 158 280 159
3 160 280 288
3 287 164 279
3 158 156 280
3 124 123 288
3 280 160 159
3 288 280 125
3 153 129 128
3 129 152 130
3 128 127 154
3 126 155 127
3 154 127 155
3 130 152 131
3 153 128 154
3 132 131 151
3 150 133 132
3 133 149 134
3 134 148 135
3 153 152 129
3 126 280 155
3 156 155 280
3 158 157 156
3 194 189 188
3 187 195 188
3 194 190 189
3 192 190 193
3 190 192 191
3 193 190 194
3 196 187 186
3 186 185 197
3 197 185 198
3 278 198 185
3 196 195 187
3 194 188 195
3 197 196 186
3 151 150 132
3 149 133 150
3 134 149 148
3 140 137 136
3 137 139 138
3 147 136 135
3 148 147 135
3 131 152 151
3 147 146 140
3 145 144 142
3 146 145 141
3 139 137 140
3 145 142 141
3 141 140 146
3 143 142 144
3 140 136 147
3 260 259 261
3 199 278 200
3 258 261 259
3 247 264 248
3 13 264 263
3 73 265 77
3 72 71 282
3 174 266 175
3 237 236 266
3 272 230 229
3 204 203 286
3 238 237 268
3 266 268 237
3 22 262 269
3 283 262 268
3 168 167 274
3 66 65 270
3 271 244 243
3 20 263 271
3 230 272 267
3 228 272 229
3 262 273 268
3 243 273 271
3 287 167 166
3 282 120 265
3 62 285 63
3 62 61 285
3 79 276 80
3 116 115 276
3 277 272 228
3 213 212 277
3 267 278 183
3 202 201 278
3 122 121 279
3 279 121 120
3 126 125 280
3 288 125 124
3 118 117 281
3 281 117 116
3 289 69 68
3 120 282 274
3 173 275 283
3 283 275 285
3 270 275 284
3 172 284 275
3 61 269 285
3 262 285 269
3 278 267 286
3 272 286 267
3 120 287 279
3 167 287 274
3 122 288 123
3 288 279 162
3 274 289 270
3 66 270 289
