ply
format ascii 1.0
element vertex 290
property float x
property float y
property float z
property float u
property float v
element face 317
property list uchar int vertex_indices
end_header
-5.26498 -339.244 0 147.636 8.36396
-13.8183 -329.291 0 139.979 19.0208
-15.0267 -315.164 0 140 33.201
-12.5363 -301.419 0 143.678 46.6777
-0.66094 -297.047 0 155.887 50
5.49659 -308.785 0 161 37.7695
11.4935 -308.461 0 167 37.5736
17.469 -296.384 0 174 49.0883
22.0718 -283.306 0 179.719 61.7193
34.4202 -286.967 0 191.704 57
39.8646 -276.827 0 198 66.6324
43.7322 -263.515 0 203 79.5613
36.2918 -255.922 0 196.239 87.7609
25.3176 -247.826 0 186 96.7624
14.6651 -239.564 0 176.097 105.903
4.7627 -230.308 0 167.026 115.974
8.50643 -218.111 0 171.803 127.803
7.91039 -208.863 0 172 137.064
12.865 -196.459 0 177.995 148.995
18.8815 -183.823 0 185.066 161.066
28.8684 -174.147 0 195.844 169.844
35.5547 -161.692 0 203.622 181.622
30.6694 -156.52 0 199.605 187
17.1067 -161.294 0 186.185 183.185
3.57464 -166.532 0 172.919 179
-10.6616 -171.594 0 159.407 175.407
-25.3342 -174.79 0 145.818 174
-38.0135 -183.783 0 134 166.718
-42.313 -198.559 0 130.265 153.265
-47.0362 -213.029 0 126 140.032
-52.5069 -227.214 0 121 127.103
-57.0947 -241.651 0 116.83 113.83
-62.9391 -255.14 0 111 101.245
-69.1064 -268.488 0 104.809 88.8092
-76.7409 -281.185 0 97.031 77.031
-83.0983 -293.722 0 90 64.9434
-86.7709 -302.065 0 85.8385 56.8385
-95.5048 -304.103 0 77 55.3289
-92.7739 -290.77 0 80.5247 68.4753
-90.7012 -284.277 0 83 74.8438
-104.129 -280.834 0 69.8678 79.1322
-113.257 -288.525 0 60.2982 72
-122.598 -295.543 0 50.554 65.554
-124.653 -287.231 0 49 73.9741
-119.341 -275.549 0 55 85.3173
-111.722 -264.098 0 63.2955 96.2955
-99.4651 -257.663 0 75.9327 102
-88.3774 -248.559 0 86 109.276
-85.8624 -233.175 0 88 123.448
-82.9973 -218.062 0 90.4379 137.438
-80.9974 -203.486 0 92 150.963
-78.6445 -188.277 0 94 165.134
-75.7783 -173.815 0 97 178.892
-72.1657 -159.897 0 101 192.235
-67.5026 -146.508 0 106.116 205.116
-60.9044 -134.236 0 113.265 217
-53.5382 -137.399 0 120.43 213.43
-40.0966 -130.021 0 133.087 219.087
-27.3315 -122.276 0 145 225.052
-23.6961 -114.894 0 148.809 232
-10.8449 -110.341 0 161.694 235.694
-2.65305 -100.873 0 170 244.081
-2.08956 -86.5558 0 171 257.839
-1.55424 -71.5492 0 172 272.425
1.14865 -57.1934 0 175 286.182
-4.24408 -44.2585 0 169.921 299.079
-9.53164 -31.4075 0 165 312.04
-21.6098 -27.7794 0 153.031 316
-27.9749 -15.4742 0 147 328.484
-35.2974 -4.19272 0 140.001 339.999
-44.0669 6.93598 0 131.516 351.484
-52.1521 18.3518 0 123.737 363.263
-59.5574 29.9699 0 116.666 375.334
-68.4785 40.9836 0 108.181 386.819
-77.3185 52.2343 0 99.6956 398.304
-87.5306 62.7148 0 89.7115 409
-81.16 68.8481 0 96.2175 415
-67.9333 73.1136 0 109.561 419
-64.8462 83.2339 0 113 429.49
-69.2819 96.0457 0 109 442.833
-71.6639 109.945 0 107 457.005
-74.8811 123.13 0 104 470.762
-85.7233 131.163 0 92.9758 480.024
-96.2038 139.673 0 82.0762 489.924
-107.47 146.042 0 70.298 497.702
-117.216 154.888 0 60.1059 507.894
-126 164.803 0 50.9132 519.087
-134.179 174.286 0 42.5491 529.451
-140.401 185.823 0 36.1849 541.815
-147.16 196.686 0 29 553.839
-153.936 206.973 0 21.7498 565.25
-161.521 218.031 0 13.9716 577.028
-168.985 229.193 0 6.60748 588.393
-172.738 242.624 0 3 601.898
-170.196 252.749 0 5.65576 612
-157.612 246.887 0 18.1705 606
-145.499 254.236 0 29.8989 613.899
-134.562 263.706 0 41.129 623
-123.46 272.915 0 52.4011 632
-111.332 279.779 0 64.6477 638.648
-102.048 280.232 0 73.938 638.938
-109.924 269.022 0 65.8669 627.867
-116.578 256.749 0 59 615.711
-121.54 243.842 0 53.8459 602.846
-126.646 231.408 0 49 589.853
-122.937 222.853 0 53.4191 580
-112.48 214.746 0 64.4886 570.511
-102.059 206.726 0 75.5491 561
-91.6444 198.642 0 86.5804 551.42
-81.2652 190.153 0 97.4802 541.52
-70.7217 182.054 0 108.537 532
-60.1905 173.921 0 119.572 522.428
-48.7595 168.373 0 131.643 515.357
-36.1963 164.472 0 144.593 510.407
-24.6464 157.232 0 156 502.475
-17.2335 145.579 0 163 490.374
-9.4845 134.23 0 170.514 478.486
0.177015 123.846 0 180 467.416
8.85459 112.798 0 188.191 455.809
16.4706 101.25 0 195.262 443.738
27.3239 93.3916 0 206.057 435
37.3578 103.998 0 216.526 444.526
48.0456 114.434 0 227.602 454
58.8969 124.258 0 238.911 462.911
70.0834 133.236 0 250.56 471
81.4146 142.484 0 262.174 479.174
93.5317 151.045 0 274.245 486.245
99.0591 165.13 0 280 498.862
102.805 180.165 0 284 512.205
106.533 195.181 0 288 525.548
111.108 209.328 0 293 538.477
116.7 223.128 0 298.995 550.995
124.268 236.8 0 306.773 562.773
131.834 250.512 0 314.551 574.551
140.827 263.725 0 323.743 585.743
149.054 277.169 0 332.229 597.229
157.848 289.99 0 341.421 608.421
166.804 301.44 0 351 618.867
176.595 310.302 0 361.382 627
182.42 305.717 0 366.861 622
183.547 294.691 0 367.169 610.831
197.745 293.485 0 380.582 607
211.605 291.183 0 394.339 604
224.026 284.66 0 406.311 596.689
222.33 275.83 0 404.046 588
207.824 273.825 0 389.46 587
193.098 271.106 0 374.874 586
179.92 265.803 0 361.961 583.039
174.083 253.168 0 356 572.431
170.374 238.039 0 352 559.088
167.191 222.746 0 348.527 545.527
162.917 207.828 0 344 532.403
158.107 192.947 0 339 519.474
154.411 177.679 0 335.093 506.093
150.562 162.615 0 331 492.789
149.822 147.194 0 330 479.032
151.433 131.782 0 331 464.446
156.914 120.122 0 336 452.689
147.807 111.52 0 326.538 444.538
139.119 99.6516 0 317.345 433.345
129.038 89.1762 0 306.86 423.86
133.388 83.6322 0 311 418.459
125.816 71.9473 0 303 407.358
118.003 59.3453 0 294.768 395.768
110.628 46.7436 0 286.99 383.99
102.472 34.5535 0 278.505 372.505
94.3443 22.6112 0 270 361.027
85.6419 10.7027 0 261 349.755
80.6403 -1.67522 0 255.998 338
83.5693 -13.1974 0 259 326.483
87.8761 -26.2857 0 263 313.141
91.3847 -39.791 0 266 299.384
94.81 -53.2712 0 269 285.626
98.9189 -66.0757 0 273 272.284
110.263 -72.6721 0 284.578 264.422
122.897 -74.855 0 297.331 261
137.144 -72.5358 0 311.917 262
147.369 -75.3466 0 322 258.155
157.053 -82.3204 0 331.188 250
169.778 -78.4287 0 344.531 252
184.146 -77.1808 0 359.117 251
198.518 -75.8231 0 373.703 250
212.596 -75.4992 0 387.874 248
213.755 -62.5261 0 391 260.459
211.516 -47.6385 0 391 275.459
208.377 -33.3464 0 390 290.047
206.175 -18.5129 0 390 305.044
203.043 -4.22735 0 389 319.633
200.845 10.6103 0 389 334.633
197.715 24.89 0 388 349.217
195.52 39.729 0 388 364.217
194.506 53.4936 0 389.018 377.982
199.687 52.5309 0 394 376.269
199.457 40.437 0 392 364.34
203.511 26.7113 0 394 350.169
210.853 14.9549 0 399.537 337.463
221.587 5.23177 0 408.73 326.27
234.249 -1.24972 0 420.304 318
247.356 -5.95694 0 432.579 311.421
260.327 -11.1801 0 444.649 304.351
273.115 -17.1407 0 456.428 296.572
282.257 -27.1753 0 464 285.295
289.096 -39.2102 0 469 272.366
293.133 -52.8783 0 471 258.194
296.24 -67.0975 0 472 243.608
298.321 -81.1018 0 472 229.438
300.882 -93.9765 0 472.64 216.36
303.563 -107.895 0 473.238 202.238
303.502 -120.588 0 471.297 189.703
306.381 -135.022 0 471.996 174.996
305.645 -149.117 0 469.168 161.168
301.195 -162.292 0 462.804 148.804
291.448 -171.924 0 451.733 140.733
280.374 -180.401 0 439.522 134
269.452 -189.124 0 427.422 127
259.934 -199.133 0 416.52 118.52
253.256 -211.751 0 408.035 107.035
251.035 -225.48 0 403.792 93.7925
252.309 -239.287 0 403 79.9492
256.06 -250.785 0 405 68.0205
252.889 -258.131 0 400.772 61.2279
247.162 -245.404 0 397 74.6653
244.003 -231.127 0 396 89.2529
241.772 -216.297 0 396 104.253
238.606 -202.026 0 395 118.836
236.373 -187.193 0 395 133.837
234.139 -172.36 0 395 148.837
230.978 -158.085 0 394 163.422
228.744 -143.248 0 394 178.422
225.582 -128.982 0 393 193.009
223.339 -114.197 0 393 208.01
214.09 -107.86 0 384.873 215.873
199.655 -111.232 0 370.234 215
185.263 -114.592 0 355.649 214
170.831 -117.87 0 341.063 213
163.158 -125.982 0 332.72 206
148.577 -128.596 0 318.135 205
137.208 -136.302 0 306.439 198.439
130.994 -148.938 0 299.367 186.367
127.096 -160.671 0 294.581 175
133.474 -168.116 0 300.319 167
121.029 -169.347 0 287.862 166.862
118.146 -182.16 0 284 154.29
112.282 -194.843 0 277.134 142.134
106.174 -207.429 0 270 130.09
101.353 -218.736 0 264.235 119.235
96.9755 -230.517 0 258.871 107.871
90.0352 -241.719 0 251 97.303
82.7866 -253.959 0 242.729 85.7291
73.5061 -264.989 0 232.536 75.5365
59.9215 -268.41 0 218.708 73.2917
48.5883 -272.641 0 207.052 70.0515
42.6013 -285.281 0 200 57.9727
49.158 -294.719 0 205.713 48
55.2979 -304.278 0 211 37.9436
53.6666 -308.608 0 209 33.7725
49.5189 -318.767 0 203.989 24.0107
43.392 -328.285 0 197.061 15.061
34.6346 -335.131 0 187.744 9
22.6312 -340.91 0 175.283 4.28345
6.69529 -345.592 0 159 1
9.49524 -327.079 0 163.397 19.2
52.7425 -141.91 0 222.418 199.851
33.4175 -211.861 0 197.158 131.895
58.9567 -241.149 0 220.087 100.537
-25.488 66.4039 0 151.861 410.94
134.41 -102.036 0 306.586 232.878
233.444 -90.4035 0 406.468 230.06
92.2347 -143.025 0 261.32 195.618
17.1286 -126.877 0 188.497 217.457
37.9743 -21.0388 0 212.946 320.627
69.1011 -198.343 0 233.86 142.326
264.728 -114.08 0 433.92 201.91
93.6043 -170.18 0 260.625 168.349
46.6176 18.3232 0 222.394 359.242
48.5185 -72.7633 0 221.899 268.749
-42.345 124.601 0 136.779 470.704
275.848 -146.391 0 440.11 168.305
250.36 -49.4503 0 429.173 267.959
74.3733 76.0499 0 251.883 414.403
109.832 119.387 0 288.938 454.209
-10.7296 91.3109 0 167.384 435.514
-20.0417 32.2781 0 156.203 376.245
84.5368 -103.703 0 256.529 235.57
60.8978 -40.8003 0 235.437 299.924
26.7988 -94.3269 0 199.546 248.849
265.263 -78.8508 0 439.635 236.523
74.2259 45.1546 0 250.681 384.232
82.5403 106.102 0 261.248 443.175
-7.49467 5.83027 0 168.09 349.187
3 42 41 43
3 38 37 36
3 43 41 44
3 40 46 45
3 40 45 44
3 41 40 44
3 5 3 2
3 1 261 2
3 39 35 34
3 39 38 35
3 39 34 46
3 46 40 39
3 35 38 36
3 33 46 34
3 46 33 47
3 30 49 48
3 50 49 29
3 27 52 51
3 27 53 52
3 28 51 50
3 31 48 47
3 31 30 48
3 28 50 29
3 30 29 49
3 54 56 55
3 54 53 56
3 56 53 27
3 28 27 51
3 56 27 26
3 31 47 32
3 33 32 47
3 0 260 261
3 7 6 256
3 6 5 261
3 264 13 12
3 2 261 5
3 4 3 5
3 9 8 7
3 6 261 258
3 257 256 6
3 256 253 7
3 253 256 255
3 10 9 252
3 10 252 251
3 253 252 9
3 7 253 9
3 257 6 258
3 16 15 14
3 16 14 263
3 263 17 16
3 57 26 25
3 58 25 24
3 14 13 263
3 17 263 18
3 264 11 250
3 11 264 12
3 21 20 271
3 61 60 269
3 263 19 18
3 23 269 24
3 250 11 251
3 19 263 20
3 10 251 11
3 56 26 57
3 22 21 262
3 0 261 1
3 246 245 271
3 23 22 269
3 107 87 86
3 107 86 108
3 86 85 108
3 105 90 89
3 89 88 106
3 107 88 87
3 107 106 88
3 85 84 109
3 76 75 74
3 77 76 74
3 110 109 84
3 85 109 108
3 84 83 110
3 82 111 83
3 82 81 112
3 95 93 92
3 92 91 95
3 91 90 104
3 104 95 91
3 95 94 93
3 103 97 96
3 95 104 96
3 96 104 103
3 102 97 103
3 90 105 104
3 102 98 97
3 99 98 101
3 101 100 99
3 98 102 101
3 89 106 105
3 59 58 60
3 57 25 58
3 289 70 69
3 282 265 72
3 289 282 70
3 60 58 269
3 63 275 64
3 275 63 285
3 67 66 68
3 68 66 289
3 270 65 64
3 173 172 275
3 24 269 58
3 289 274 282
3 73 72 265
3 78 265 281
3 265 78 77
3 81 80 276
3 83 111 110
3 79 78 276
3 82 112 111
3 119 118 281
3 77 74 73
3 276 281 116
3 281 120 119
3 276 78 281
3 276 112 81
3 112 276 113
3 113 276 114
3 114 276 115
3 265 120 281
3 282 71 70
3 275 270 64
3 255 254 253
3 264 250 249
3 248 264 249
3 264 247 246
3 271 245 244
3 271 263 264
3 271 264 246
3 243 242 273
3 273 241 268
3 241 240 239
3 273 242 241
3 268 239 238
3 236 235 266
3 268 266 283
3 241 239 268
3 283 266 174
3 266 176 175
3 177 176 266
3 234 178 266
3 266 178 177
3 283 174 173
3 284 172 171
3 283 285 262
3 266 235 234
3 179 234 233
3 232 231 181
3 180 233 232
3 179 233 180
3 181 180 232
3 182 181 231
3 230 267 231
3 234 179 178
3 284 171 170
3 222 221 218
3 221 219 218
3 219 221 220
3 223 222 217
3 216 224 223
3 226 225 214
3 215 225 224
3 222 218 217
3 216 215 224
3 217 216 223
3 226 214 277
3 277 212 211
3 277 214 213
3 215 214 225
3 277 211 210
3 182 231 267
3 278 286 203
3 227 277 228
3 207 272 208
3 184 278 185
3 184 183 278
3 201 200 278
3 278 199 198
3 226 277 227
3 272 207 206
3 208 272 277
3 206 205 286
3 273 262 21
3 205 204 286
3 267 183 182
3 203 202 278
3 206 286 272
3 273 21 271
3 208 277 209
3 277 210 209
3 169 168 270
3 270 284 169
3 270 168 274
3 163 279 164
3 165 287 166
3 165 164 287
3 287 120 274
3 284 170 169
3 163 162 279
3 160 288 162
3 279 288 122
3 161 160 162
3 158 280 159
3 160 280 288
3 287 164 279
3 158 156 280
3 124 123 288
3 280 160 159
3 288 280 125
3 153 129 128
3 129 152 130
3 128 127 154
3 126 155 127
3 154 127 155
3 130 152 131
3 153 128 154
3 132 131 151
3 150 133 132
3 133 149 134
3 134 148 135
3 153 152 129
3 126 280 155
3 156 155 280
3 158 157 156
3 194 189 188
3 187 195 188
3 194 190 189
3 192 190 193
3 190 192 191
3 193 190 194
3 196 187 186
3 186 185 197
3 197 185 198
3 278 198 185
3 196 195 187
3 194 188 195
3 197 196 186
3 151 150 132
3 149 133 150
3 134 149 148
3 140 137 136
3 137 139 138
3 147 136 135
3 148 147 135
3 131 152 151
3 147 146 140
3 145 144 142
3 146 145 141
3 139 137 140
3 145 142 141
3 141 140 146
3 143 142 144
3 140 136 147
3 260 259 261
3 199 278 200
3 258 261 259
3 247 264 248
3 13 264 263
3 73 265 77
3 72 71 282
3 174 266 175
3 237 236 266
3 272 230 229
3 204 203 286
3 238 237 268
3 266 268 237
3 22 262 269
3 283 262 268
3 168 167 274
3 66 65 270
3 271 244 243
3 20 263 271
3 230 272 267
3 228 272 229
3 262 273 268
3 243 273 271
3 287 167 166
3 282 120 265
3 62 285 63
3 62 61 285
3 79 276 80
3 116 115 276
3 277 272 228
3 213 212 277
3 267 278 183
3 202 201 278
3 122 121 279
3 279 121 120
3 126 125 280
3 288 125 124
3 118 117 281
3 281 117 116
3 289 69 68
3 120 282 274
3 173 275 283
3 283 275 285
3 270 275 284
3 172 284 275
3 61 269 285
3 262 285 269
3 278 267 286
3 272 286 267
3 120 287 279
3 167 287 274
3 122 288 123
3 288 279 162
3 274 289 270
3 66 270 289
