ply
format ascii 1.0
element vertex 290
property float x
property float y
property float z
property float u
property float v
element face 317
property list uchar int vertex_indices
end_header
-5.03848 -339.552 0 147.636 8.36396
-13.6147 -329.619 0 139.979 19.0208
-14.8558 -315.495 0 140 33.201
-12.3971 -301.744 0 143.678 46.6777
-0.531873 -297.345 0 155.887 50
5.65274 -309.069 0 161 37.7695
11.6489 -308.731 0 167 37.5736
17.5964 -296.64 0 174 49.0883
22.1691 -283.551 0 179.719 61.7193
34.5259 -287.184 0 191.704 57
39.9469 -277.032 0 198 66.6324
43.7837 -263.711 0 203 79.5613
36.3258 -256.134 0 196.239 87.7609
25.3327 -248.064 0 186 96.7624
14.661 -239.826 0 176.097 105.903
4.73731 -230.593 0 167.026 115.974
8.45291 -218.388 0 171.803 127.803
7.83558 -209.14 0 172 137.064
12.7617 -196.725 0 177.995 148.995
18.749 -184.075 0 185.066 161.066
28.7132 -174.376 0 195.844 169.844
35.3671 -161.905 0 203.622 181.622
30.447 -156.741 0 199.605 187
16.8683 -161.541 0 186.185 183.185
3.31721 -166.807 0 172.919 179
-10.9565 -171.913 0 159.407 175.407
-25.6775 -175.163 0 145.818 174
-38.4044 -184.211 0 134 166.718
-42.7499 -199.036 0 130.265 153.265
-47.515 -213.551 0 126 140.032
-53.0284 -227.78 0 121 127.103
-57.658 -242.259 0 116.83 113.83
-63.5274 -255.776 0 111 101.245
-69.7184 -269.151 0 104.809 88.8092
-77.3709 -281.871 0 97.031 77.031
-83.7246 -294.414 0 90 64.9434
-87.3931 -302.758 0 85.8385 56.8385
-96.1261 -304.8 0 77 55.3289
-93.402 -291.466 0 80.5247 68.4753
-91.3332 -284.973 0 83 74.8438
-104.765 -281.539 0 69.8678 79.1322
-113.89 -289.235 0 60.2982 72
-123.227 -296.257 0 50.554 65.554
-125.287 -287.946 0 49 73.9741
-119.98 -276.262 0 55 85.3173
-112.367 -264.807 0 63.2955 96.2955
-100.114 -258.367 0 75.9327 102
-88.9695 -249.208 0 86 109.276
-86.4064 -233.777 0 88 123.448
-83.4985 -218.624 0 90.4379 137.438
-81.4568 -204.008 0 92 150.963
-79.0654 -188.76 0 94 165.134
-76.1826 -174.275 0 97 178.892
-72.5653 -160.342 0 101 192.235
-67.9022 -146.94 0 106.116 205.116
-61.3101 -134.661 0 113.265 217
-53.9402 -137.818 0 120.43 213.43
-40.4578 -130.389 0 133.087 219.087
-27.6491 -122.588 0 145 225.052
-24.0129 -115.194 0 148.809 232
-11.159 -110.623 0 161.694 235.694
-2.96644 -101.126 0 170 244.081
-2.41238 -86.793 0 171 257.839
-1.88948 -71.774 0 172 272.425
0.801779 -57.3984 0 175 286.182
-4.60066 -44.458 0 169.921 299.079
-9.89711 -31.6064 0 165 312.04
-21.9776 -27.9842 0 153.031 316
-28.3491 -15.6821 0 147 328.484
-35.678 -4.40494 0 140.001 339.999
-44.4524 6.71637 0 131.516 351.484
-52.5428 18.1235 0 123.737 363.263
-59.954 29.7291 0 116.666 375.334
-68.8842 40.7274 0 108.181 386.819
-77.734 51.9705 0 99.6956 398.304
-87.9523 62.4449 0 89.7115 409
-81.5854 68.5817 0 96.2175 415
-68.362 72.8542 0 109.561 419
-65.2855 82.9606 0 113 429.49
-69.7366 95.7525 0 109 442.833
-72.1338 109.64 0 107 457.005
-75.3652 122.803 0 104 470.762
-86.2138 130.793 0 92.9758 480.024
-96.6986 139.259 0 82.0762 489.924
-107.965 145.581 0 70.298 497.702
-117.718 154.382 0 60.1059 507.894
-126.511 164.256 0 50.9132 519.087
-134.703 173.706 0 42.5491 529.451
-140.941 185.214 0 36.1849 541.815
-147.713 196.04 0 29 553.839
-154.5 206.289 0 21.7498 565.25
-162.103 217.317 0 13.9716 577.028
-169.59 228.461 0 6.60748 588.393
-173.369 241.884 0 3 601.898
-170.846 252.014 0 5.65576 612
-158.251 246.175 0 18.1705 606
-146.148 253.532 0 29.8989 613.899
-135.234 263.03 0 41.129 623
-124.153 272.264 0 52.4011 632
-112.04 279.156 0 64.6477 638.648
-102.758 279.63 0 73.938 638.938
-110.608 268.402 0 65.8669 627.867
-117.235 256.114 0 59 615.711
-122.169 243.197 0 53.8459 602.846
-127.255 230.765 0 49 589.853
-123.54 222.245 0 53.4191 580
-113.076 214.185 0 64.4886 570.511
-102.65 206.213 0 75.5491 561
-92.23 198.177 0 86.5804 551.42
-81.8438 189.732 0 97.4802 541.52
-71.2942 181.678 0 108.537 532
-60.7569 173.587 0 119.572 522.428
-49.3263 168.085 0 131.643 515.357
-36.7638 164.218 0 144.593 510.407
-25.2012 157.002 0 156 502.475
-17.766 145.363 0 163 490.374
-9.99954 134.026 0 170.514 478.486
-0.325443 123.659 0 180 467.416
8.37085 112.625 0 188.191 455.809
16.0058 101.088 0 195.262 443.738
26.8674 93.246 0 206.057 435
36.9013 103.883 0 216.526 444.526
47.5896 114.345 0 227.602 454
58.4398 124.19 0 238.911 462.911
69.6252 133.186 0 250.56 471
80.9618 142.456 0 262.174 479.174
93.0948 151.051 0 274.245 486.245
98.6373 165.177 0 280 498.862
102.398 180.258 0 284 512.205
106.143 195.321 0 288 525.548
110.73 209.498 0 293 538.477
116.334 223.327 0 298.995 550.995
123.92 237.044 0 306.773 562.773
131.505 250.801 0 314.551 574.551
140.516 264.057 0 323.743 585.743
148.762 277.545 0 332.229 597.229
157.572 290.395 0 341.421 608.421
166.537 301.854 0 351 618.867
176.332 310.712 0 361.382 627
182.154 306.127 0 366.861 622
183.279 295.103 0 367.169 610.831
197.491 293.942 0 380.582 607
211.348 291.624 0 394.339 604
223.765 285.092 0 406.311 596.689
222.063 276.263 0 404.046 588
207.555 274.266 0 389.46 587
192.822 271.533 0 374.874 586
179.63 266.192 0 361.961 583.039
173.774 253.51 0 356 572.431
170.046 238.336 0 352 559.088
166.844 222.998 0 348.527 545.527
162.552 208.035 0 344 532.403
157.724 193.105 0 339 519.474
154.011 177.788 0 335.093 506.093
150.147 162.679 0 331 492.789
149.393 147.21 0 330 479.032
151 131.776 0 331 464.446
156.478 120.112 0 336 452.689
147.37 111.512 0 326.538 444.538
138.683 99.6401 0 317.345 433.345
128.606 89.1536 0 306.86 423.86
132.959 83.6034 0 311 418.459
125.39 71.9107 0 303 407.358
117.583 59.2901 0 294.768 395.768
110.214 46.6743 0 286.99 383.99
102.065 34.4723 0 278.505 372.505
93.9442 22.5238 0 270 361.027
85.2506 10.6035 0 261 349.755
80.2526 -1.78977 0 255.998 338
83.1799 -13.3134 0 259 326.483
87.4932 -26.3944 0 263 313.141
91.0146 -39.8917 0 266 299.384
94.451 -53.3641 0 269 285.626
98.5619 -66.1555 0 273 272.284
109.898 -72.7177 0 284.578 264.422
122.528 -74.8642 0 297.331 261
136.762 -72.5026 0 311.917 262
146.991 -75.2785 0 322 258.155
156.698 -82.2129 0 331.188 250
169.416 -78.2599 0 344.531 252
183.798 -76.9353 0 359.117 251
198.182 -75.4959 0 373.703 250
212.272 -75.0902 0 387.874 248
213.366 -62.1066 0 391 260.459
211.047 -47.2309 0 391 275.459
207.829 -32.9565 0 390 290.047
205.545 -18.1355 0 390 305.044
202.334 -3.86762 0 389 319.633
200.054 10.9576 0 389 334.633
196.843 25.2196 0 388 349.217
194.566 40.0462 0 388 364.217
193.476 53.8049 0 389.018 377.982
198.662 52.8711 0 394 376.269
198.499 40.7761 0 392 364.34
202.63 27.0732 0 394 350.169
210.037 15.3578 0 399.537 337.463
220.825 5.69458 0 408.73 326.27
233.523 -0.716339 0 420.304 318
246.656 -5.35069 0 432.579 311.421
259.656 -10.5017 0 444.649 304.351
272.477 -16.3911 0 456.428 296.572
281.675 -26.3746 0 464 285.295
288.581 -38.3709 0 469 272.366
292.697 -52.0151 0 471 258.194
295.884 -66.2157 0 472 243.608
298.042 -80.2084 0 472 229.438
300.67 -93.0705 0 472.64 216.36
303.425 -106.976 0 473.238 202.238
303.434 -119.669 0 471.297 189.703
306.393 -134.087 0 471.996 174.996
305.735 -148.186 0 469.168 161.168
301.357 -161.386 0 462.804 148.804
291.664 -171.072 0 451.733 140.733
280.638 -179.61 0 439.522 134
269.764 -188.393 0 427.422 127
260.302 -198.455 0 416.52 118.52
253.693 -211.11 0 408.035 107.035
251.549 -224.851 0 403.792 93.7925
252.899 -238.65 0 403 79.9492
256.714 -250.127 0 405 68.0205
253.584 -257.491 0 400.772 61.2279
247.786 -244.796 0 397 74.6653
244.548 -230.537 0 396 89.2529
242.234 -215.719 0 396 104.253
238.99 -201.466 0 395 118.836
236.675 -186.645 0 395 133.837
234.358 -171.825 0 395 148.837
231.118 -157.567 0 394 163.422
228.801 -142.743 0 394 178.422
225.559 -128.496 0 393 193.009
223.229 -113.725 0 393 208.01
213.925 -107.446 0 384.873 215.873
199.474 -110.907 0 370.234 215
185.066 -114.35 0 355.649 214
170.613 -117.707 0 341.063 213
162.948 -125.857 0 332.72 206
148.363 -128.526 0 318.135 205
136.997 -136.271 0 306.439 198.439
130.802 -148.926 0 299.367 186.367
126.927 -160.671 0 294.581 175
133.32 -168.1 0 300.319 167
120.875 -169.363 0 287.862 166.862
118.016 -182.183 0 284 154.29
112.177 -194.88 0 277.134 142.134
106.097 -207.481 0 270 130.09
101.301 -218.798 0 264.235 119.235
96.9509 -230.59 0 258.871 107.871
90.0364 -241.807 0 251 97.303
82.816 -254.064 0 242.729 85.7291
73.561 -265.116 0 232.536 75.5365
59.9843 -268.568 0 218.708 73.2917
48.6609 -272.825 0 207.052 70.0515
42.7031 -285.479 0 200 57.9727
49.2816 -294.902 0 205.713 48
55.4435 -304.446 0 211 37.9436
53.8222 -308.781 0 209 33.7725
49.698 -318.949 0 203.989 24.0107
43.593 -328.481 0 197.061 15.061
34.8515 -335.347 0 187.744 9
22.8615 -341.154 0 175.283 4.28345
6.93643 -345.873 0 159 1
9.69361 -327.354 0 163.397 19.2
52.5082 -142.084 0 222.418 199.851
33.3495 -212.08 0 197.158 131.895
58.9565 -241.309 0 220.087 100.537
-25.9126 66.1846 0 151.861 410.94
134.116 -102.012 0 306.586 232.878
233.205 -89.877 0 406.468 230.06
92.0246 -143.11 0 261.32 195.618
16.8417 -127.122 0 188.497 217.457
37.5983 -21.201 0 212.946 320.627
69.0023 -198.481 0 233.86 142.326
264.625 -113.377 0 433.92 201.91
93.4438 -170.262 0 260.625 168.349
46.2224 18.1852 0 222.394 359.242
48.1838 -72.9288 0 221.899 268.749
-42.8343 124.337 0 136.779 470.704
275.923 -145.626 0 440.11 168.305
249.902 -48.8268 0 429.173 267.959
73.946 75.9753 0 251.883 414.403
109.396 119.379 0 288.938 454.209
-11.1766 91.1042 0 167.384 435.514
-20.4414 32.0728 0 156.203 376.245
84.2428 -103.81 0 256.529 235.57
60.5309 -40.9429 0 235.437 299.924
26.4835 -94.5387 0 199.546 248.849
264.973 -78.1398 0 439.635 236.523
73.8142 45.059 0 250.681 384.232
82.1021 106.059 0 261.248 443.175
-7.88196 5.6354 0 168.09 349.187
3 42 41 43
3 38 37 36
3 43 41 44
3 40 46 45
3 40 45 44
3 41 40 44
3 5 3 2
3 1 261 2
3 39 35 34
3 39 38 35
3 39 34 46
3 46 40 39
3 35 38 36
3 33 46 34
3 46 33 47
3 30 49 48
3 50 49 29
3 27 52 51
3 27 53 52
3 28 51 50
3 31 48 47
3 31 30 48
3 28 50 29
3 30 29 49
3 54 56 55
3 54 53 56
3 56 53 27
3 28 27 51
3 56 27 26
3 31 47 32
3 33 32 47
3 0 260 261
3 7 6 256
3 6 5 261
3 264 13 12
3 2 261 5
3 4 3 5
3 9 8 7
3 6 261 258
3 257 256 6
3 256 253 7
3 253 256 255
3 10 9 252
3 10 252 251
3 253 252 9
3 7 253 9
3 257 6 258
3 16 15 14
3 16 14 263
3 263 17 16
3 57 26 25
3 58 25 24
3 14 13 263
3 17 263 18
3 264 11 250
3 11 264 12
3 21 20 271
3 61 60 269
3 263 19 18
3 23 269 24
3 250 11 251
3 19 263 20
3 10 251 11
3 56 26 57
3 22 21 262
3 0 261 1
3 246 245 271
3 23 22 269
3 107 87 86
3 107 86 108
3 86 85 108
3 105 90 89
3 89 88 106
3 107 88 87
3 107 106 88
3 85 84 109
3 76 75 74
3 77 76 74
3 110 109 84
3 85 109 108
3 84 83 110
3 82 111 83
3 82 81 112
3 95 93 92
3 92 91 95
3 91 90 104
3 104 95 91
3 95 94 93
3 103 97 96
3 95 104 96
3 96 104 103
3 102 97 103
3 90 105 104
3 102 98 97
3 99 98 101
3 101 100 99
3 98 102 101
3 89 106 105
3 59 58 60
3 57 25 58
3 289 70 69
3 282 265 72
3 289 282 70
3 60 58 269
3 63 275 64
3 275 63 285
3 67 66 68
3 68 66 289
3 270 65 64
3 173 172 275
3 24 269 58
3 289 274 282
3 73 72 265
3 78 265 281
3 265 78 77
3 81 80 276
3 83 111 110
3 79 78 276
3 82 112 111
3 119 118 281
3 77 74 73
3 276 281 116
3 281 120 119
3 276 78 281
3 276 112 81
3 112 276 113
3 113 276 114
3 114 276 115
3 265 120 281
3 282 71 70
3 275 270 64
3 255 254 253
3 264 250 249
3 248 264 249
3 264 247 246
3 271 245 244
3 271 263 264
3 271 264 246
3 243 242 273
3 273 241 268
3 241 240 239
3 273 242 241
3 268 239 238
3 236 235 266
3 268 266 283
3 241 239 268
3 283 266 174
3 266 176 175
3 177 176 266
3 234 178 266
3 266 178 177
3 283 174 173
3 284 172 171
3 283 285 262
3 266 235 234
3 179 234 233
3 232 231 181
3 180 233 232
3 179 233 180
3 181 180 232
3 182 181 231
3 230 267 231
3 234 179 178
3 284 171 170
3 222 221 218
3 221 219 218
3 219 221 220
3 223 222 217
3 216 224 223
3 226 225 214
3 215 225 224
3 222 218 217
3 216 215 224
3 217 216 223
3 226 214 277
3 277 212 211
3 277 214 213
3 215 214 225
3 277 211 210
3 182 231 267
3 278 286 203
3 227 277 228
3 207 272 208
3 184 278 185
3 184 183 278
3 201 200 278
3 278 199 198
3 226 277 227
3 272 207 206
3 208 272 277
3 206 205 286
3 273 262 21
3 205 204 286
3 267 183 182
3 203 202 278
3 206 286 272
3 273 21 271
3 208 277 209
3 277 210 209
3 169 168 270
3 270 284 169
3 270 168 274
3 163 279 164
3 165 287 166
3 165 164 287
3 287 120 274
3 284 170 169
3 163 162 279
3 160 288 162
3 279 288 122
3 161 160 162
3 158 280 159
3 160 280 288
3 287 164 279
3 158 156 280
3 124 123 288
3 280 160 159
3 288 280 125
3 153 129 128
3 129 152 130
3 128 127 154
3 126 155 127
3 154 127 155
3 130 152 131
3 153 128 154
3 132 131 151
3 150 133 132
3 133 149 134
3 134 148 135
3 153 152 129
3 126 280 155
3 156 155 280
3 158 157 156
3 194 189 188
3 187 195 188
3 194 190 189
3 192 190 193
3 190 192 191
3 193 190 194
3 196 187 186
3 186 185 197
3 197 185 198
3 278 198 185
3 196 195 187
3 194 188 195
3 197 196 186
3 151 150 132
3 149 133 150
3 134 149 148
3 140 137 136
3 137 139 138
3 147 136 135
3 148 147 135
3 131 152 151
3 147 146 140
3 145 144 142
3 146 145 141
3 139 137 140
3 145 142 141
3 141 140 146
3 143 142 144
3 140 136 147
3 260 259 261
3 199 278 200
3 258 261 259
3 247 264 248
3 13 264 263
3 73 265 77
3 72 71 282
3 174 266 175
3 237 236 266
3 272 230 229
3 204 203 286
3 238 237 268
3 266 268 237
3 22 262 269
3 283 262 268
3 168 167 274
3 66 65 270
3 271 244 243
3 20 263 271
3 230 272 267
3 228 272 229
3 262 273 268
3 243 273 271
3 287 167 166
3 282 120 265
3 62 285 63
3 62 61 285
3 79 276 80
3 116 115 276
3 277 272 228
3 213 212 277
3 267 278 183
3 202 201 278
3 122 121 279
3 279 121 120
3 126 125 280
3 288 125 124
3 118 117 281
3 281 117 116
3 289 69 68
3 120 282 274
3 173 275 283
3 283 275 285
3 270 275 284
3 172 284 275
3 61 269 285
3 262 285 269
3 278 267 286
3 272 286 267
3 120 287 279
3 167 287 274
3 122 288 123
3 288 279 162
3 274 289 270
3 66 270 289
