ply
format ascii 1.0
element vertex 290
property float x
property float y
property float z
property float u
property float v
element face 317
property list uchar int vertex_indices
end_header
8.59411 -353.755 0 147.636 8.36396
-0.302302 -344.108 0 139.979 19.0208
-2.00463 -330.032 0 140 33.201
0.00268466 -316.208 0 143.678 46.6777
11.7177 -311.423 0 155.887 50
18.2826 -322.939 0 161 37.7695
24.2646 -322.405 0 167 37.5736
29.8135 -310.126 0 174 49.0883
33.9555 -296.894 0 179.719 61.7193
46.4245 -300.121 0 191.704 57
51.5109 -289.797 0 198 66.6324
54.9106 -276.357 0 203 79.5613
47.2093 -269.028 0 196.239 87.7609
35.9587 -261.318 0 186 96.7624
25.0239 -253.431 0 176.097 105.903
14.8046 -244.526 0 167.026 115.974
18.1205 -232.206 0 171.803 127.803
17.2024 -222.983 0 172 137.064
21.7221 -210.413 0 177.995 148.995
27.2955 -197.573 0 185.066 161.066
36.9395 -187.551 0 195.844 169.844
43.1792 -174.842 0 203.622 181.622
38.0233 -169.745 0 199.605 187
24.5136 -174.899 0 186.185 183.185
10.9971 -180.559 0 172.919 179
-3.32682 -186.179 0 159.407 175.407
-18.1957 -190.047 0 145.818 174
-30.9448 -199.668 0 134 166.718
-35.1605 -214.869 0 130.265 153.265
-39.7765 -229.745 0 126 140.032
-45.1425 -244.349 0 121 127.103
-49.6046 -259.171 0 116.83 113.83
-55.2349 -272.986 0 111 101.245
-61.1766 -286.665 0 104.809 88.8092
-68.5627 -299.719 0 97.031 77.031
-74.5503 -312.459 0 90 64.9434
-77.968 -320.911 0 85.8385 56.8385
-86.636 -323.214 0 77 55.3289
-84.313 -309.804 0 80.5247 68.4753
-82.4433 -303.256 0 83 74.8438
-95.9852 -300.238 0 69.8678 79.1322
-104.875 -308.204 0 60.2982 72
-113.997 -315.503 0 50.554 65.554
-116.305 -307.257 0 49 73.9741
-111.352 -295.419 0 55 85.3173
-104.086 -283.742 0 63.2955 96.2955
-92.0358 -276.941 0 75.9327 102
-80.8619 -267.157 0 86 109.276
-78.4664 -251.387 0 88 123.448
-75.7307 -235.911 0 90.4379 137.438
-73.8434 -221.003 0 92 150.963
-71.6287 -205.463 0 94 165.134
-69.0014 -190.763 0 97 178.892
-65.677 -176.636 0 101 192.235
-61.3007 -163.054 0 106.116 205.116
-54.9914 -150.609 0 113.265 217
-47.5445 -153.578 0 120.43 213.43
-34.0265 -145.556 0 133.087 219.087
-21.1716 -137.154 0 145 225.052
-17.6644 -129.607 0 148.809 232
-4.88044 -124.681 0 161.694 235.694
3.18461 -114.786 0 170 244.081
3.53329 -100.255 0 171 257.839
3.87348 -85.0822 0 172 272.425
6.48475 -70.49 0 175 286.182
1.00378 -57.5385 0 169.921 299.079
-4.39403 -44.7228 0 165 312.04
-16.5035 -41.2138 0 153.031 316
-22.9826 -28.9737 0 147 328.484
-30.4066 -17.7692 0 140.001 339.999
-39.2548 -6.76359 0 131.516 351.484
-47.4231 4.5284 0 123.737 363.263
-54.9193 15.9864 0 116.666 375.334
-63.9704 26.8396 0 108.181 386.819
-72.9137 38.0223 0 99.6956 398.304
-83.1868 48.444 0 89.7115 409
-76.853 54.6122 0 96.2175 415
-63.6611 58.9476 0 109.561 419
-60.6565 68.9146 0 113 429.49
-65.1938 81.5346 0 109 442.833
-67.6584 95.3444 0 107 457.005
-70.8701 108.323 0 104 470.762
-81.5295 115.921 0 92.9758 480.024
-91.7 123.926 0 82.0762 489.924
-102.628 129.791 0 70.298 497.702
-112.04 138.15 0 60.1059 507.894
-120.495 147.603 0 50.9132 519.087
-128.466 156.79 0 42.5491 529.451
-134.476 168.038 0 36.1849 541.815
-140.879 178.481 0 29 553.839
-147.277 188.367 0 21.7498 565.25
-154.617 199.212 0 13.9716 577.028
-161.987 210.378 0 6.60748 588.393
-165.645 223.822 0 3 601.898
-163.034 233.927 0 5.65576 612
-150.488 227.978 0 18.1705 606
-138.07 234.958 0 29.8989 613.899
-127.157 244.454 0 41.129 623
-116.019 253.619 0 52.4011 632
-103.861 260.43 0 64.6477 638.648
-94.5758 260.843 0 73.938 638.938
-102.501 249.667 0 65.8669 627.867
-109.211 237.425 0 59 615.711
-114.248 224.56 0 53.8459 602.846
-119.658 212.428 0 49 589.853
-116.431 204.394 0 53.4191 580
-106.4 196.777 0 64.4886 570.511
-96.4186 189.299 0 75.5491 561
-86.4293 181.763 0 86.5804 551.42
-76.4293 173.79 0 97.4802 541.52
-66.2553 166.216 0 108.537 532
-56.0873 158.618 0 119.572 522.428
-45.0611 153.644 0 131.643 515.357
-32.74 150.11 0 144.593 510.407
-21.2034 143.094 0 156 502.475
-13.7094 131.599 0 163 490.374
-5.95371 120.457 0 170.514 478.486
3.70134 110.33 0 180 467.416
12.5104 99.4911 0 188.191 455.809
20.2835 88.15 0 195.262 443.738
31.0915 80.6439 0 206.057 435
40.9569 91.6377 0 216.526 444.526
51.4968 102.416 0 227.602 454
62.1703 112.562 0 238.911 462.911
73.1722 121.859 0 250.56 471
84.3877 131.501 0 262.174 479.174
96.5142 140.618 0 274.245 486.245
101.953 155.251 0 280 498.862
105.598 170.917 0 284 512.205
109.218 186.561 0 288 525.548
113.626 201.16 0 293 538.477
119.058 215.437 0 298.995 550.995
126.535 229.822 0 306.773 562.773
134.01 244.261 0 314.551 574.551
142.914 258.234 0 323.743 585.743
151.03 272.415 0 332.229 597.229
159.658 285.845 0 341.421 608.421
168.363 297.666 0 351 618.867
177.915 306.796 0 361.382 627
183.864 302.377 0 366.861 622
185.305 291.421 0 367.169 610.831
199.781 291.225 0 380.582 607
213.666 289.197 0 394.339 604
226.246 282.985 0 406.311 596.689
224.772 274.112 0 404.046 588
210.314 271.72 0 389.46 587
195.553 268.342 0 374.874 586
182.295 262.145 0 361.961 583.039
176.517 248.744 0 356 572.431
172.929 232.943 0 352 559.088
169.864 216.998 0 348.527 545.527
165.694 201.404 0 344 532.403
160.965 185.788 0 339 519.474
157.355 169.808 0 335.093 506.093
153.604 154.08 0 331 492.789
152.965 138.032 0 330 479.032
154.808 122.309 0 331 464.446
160.463 110.685 0 336 452.689
151.49 101.921 0 326.538 444.538
142.991 89.8012 0 317.345 433.345
133.061 78.9569 0 306.86 423.86
137.486 73.3541 0 311 418.459
130.069 61.4571 0 303 407.358
122.406 48.4769 0 294.768 395.768
115.167 35.5714 0 286.99 383.99
107.118 23.127 0 278.505 372.505
99.111 11.0248 0 270 361.027
90.4955 -1.1006 0 261 349.755
85.4581 -13.6809 0 255.998 338
88.3212 -25.1751 0 259 326.483
92.7119 -38.1521 0 263 313.141
96.3825 -51.5461 0 266 299.384
99.9371 -64.8873 0 269 285.626
104.031 -77.4317 0 273 272.284
115.178 -83.5113 0 284.578 264.422
127.686 -85.2096 0 297.331 261
141.751 -82.3943 0 311.917 262
151.97 -84.8065 0 322 258.155
161.713 -91.314 0 331.188 250
173.92 -86.7155 0 344.531 252
187.866 -84.6105 0 359.117 251
201.808 -82.3502 0 373.703 250
215.551 -81.1249 0 387.874 248
215.783 -68.0397 0 391 260.459
212.61 -53.2954 0 391 275.459
208.611 -39.2138 0 390 290.047
205.528 -24.5383 0 390 305.044
201.55 -10.4649 0 389 319.633
198.472 4.21527 0 389 334.633
194.495 18.2828 0 388 349.217
191.419 32.9643 0 388 364.217
189.587 46.644 0 389.018 377.982
194.816 45.9919 0 394 376.269
195.307 33.9059 0 392 364.34
200.173 20.4466 0 394 350.169
208.203 9.14876 0 399.537 337.463
219.497 0.0828403 0 408.73 326.27
232.523 -5.63214 0 420.304 318
245.885 -9.55082 0 432.579 311.421
259.14 -13.9915 0 444.649 304.351
272.258 -19.1772 0 456.428 296.572
281.979 -28.645 0 464 285.295
289.514 -40.2427 0 469 272.366
294.326 -53.6247 0 471 258.194
298.24 -67.6091 0 472 243.608
301.154 -81.4574 0 472 229.438
304.507 -94.165 0 472.64 216.36
308.049 -107.909 0 473.238 202.238
308.763 -120.584 0 471.297 189.703
312.514 -134.814 0 471.996 174.996
312.637 -148.927 0 469.168 161.168
308.995 -162.349 0 462.804 148.804
299.852 -172.556 0 451.733 140.733
289.314 -181.69 0 439.522 134
278.942 -191.061 0 427.422 127
270.051 -201.63 0 416.52 118.52
264.152 -214.631 0 408.035 107.035
262.77 -228.469 0 403.792 93.7925
264.881 -242.173 0 403 79.9492
269.325 -253.422 0 405 68.0205
266.607 -260.947 0 400.772 61.2279
260.116 -248.592 0 397 74.6653
256.095 -234.534 0 396 89.2529
252.965 -219.867 0 396 104.253
248.938 -205.815 0 395 118.836
245.807 -191.145 0 395 133.837
242.675 -176.474 0 395 148.837
238.653 -162.416 0 394 163.422
235.522 -147.741 0 394 178.422
231.509 -133.696 0 393 193.009
228.406 -119.088 0 393 208.01
218.912 -113.4 0 384.873 215.873
204.922 -117.743 0 370.234 215
190.949 -122.018 0 355.649 214
176.925 -126.175 0 341.063 213
169.677 -134.691 0 332.72 206
155.189 -137.938 0 318.135 205
144.029 -146.076 0 306.439 198.439
138.214 -158.896 0 299.367 186.367
134.702 -170.744 0 294.581 175
141.329 -177.944 0 300.319 167
128.924 -179.612 0 287.862 166.862
126.467 -192.486 0 284 154.29
121.033 -205.352 0 277.134 142.134
115.362 -218.131 0 270 130.09
110.936 -229.595 0 264.235 119.235
106.971 -241.521 0 258.871 107.871
100.425 -252.957 0 251 97.303
93.608 -265.442 0 242.729 85.7291
84.7183 -276.79 0 232.536 75.5365
71.2612 -280.683 0 218.708 73.2917
60.0828 -285.308 0 207.052 70.0515
54.5416 -298.15 0 200 57.9727
61.4248 -307.352 0 205.713 48
67.8957 -316.69 0 211 37.9436
66.417 -321.075 0 209 33.7725
62.6276 -331.373 0 203.989 24.0107
56.8377 -341.1 0 197.061 15.061
48.3254 -348.248 0 187.744 9
36.5316 -354.444 0 175.283 4.28345
20.7693 -359.681 0 159 1
22.9195 -341.082 0 163.397 19.2
59.6861 -154.458 0 222.418 199.851
42.7984 -225.091 0 197.158 131.895
69.3448 -253.473 0 220.087 100.537
-21.1922 52.6426 0 151.861 410.94
140.021 -111.976 0 306.586 232.878
237.078 -94.7292 0 406.468 230.06
99.2612 -154.333 0 261.32 195.618
23.5344 -140.471 0 188.497 217.457
42.9093 -33.7062 0 212.946 320.627
77.9903 -210.343 0 233.86 142.326
269.669 -116.442 0 433.92 201.91
101.511 -181.372 0 260.625 168.349
51.3427 5.88104 0 222.394 359.242
53.9829 -85.3222 0 221.899 268.749
-38.4616 110.231 0 136.779 470.704
282.728 -148.019 0 440.11 168.305
251.474 -52.789 0 429.173 267.959
78.5384 64.5005 0 251.883 414.403
113.4 109.122 0 288.938 454.209
-6.64072 77.6109 0 167.384 435.514
-15.4273 18.752 0 156.203 376.245
90.44 -115.335 0 256.529 235.57
65.9445 -53.1023 0 235.437 299.924
32.5405 -107.509 0 199.546 248.849
268.007 -81.1901 0 439.635 236.523
78.7414 33.3473 0 250.681 384.232
86.2732 95.0132 0 261.248 443.175
-2.70928 -7.46255 0 168.09 349.187
3 42 41 43
3 38 37 36
3 43 41 44
3 40 46 45
3 40 45 44
3 41 40 44
3 5 3 2
3 1 261 2
3 39 35 34
3 39 38 35
3 39 34 46
3 46 40 39
3 35 38 36
3 33 46 34
3 46 33 47
3 30 49 48
3 50 49 29
3 27 52 51
3 27 53 52
3 28 51 50
3 31 48 47
3 31 30 48
3 28 50 29
3 30 29 49
3 54 56 55
3 54 53 56
3 56 53 27
3 28 27 51
3 56 27 26
3 31 47 32
3 33 32 47
3 0 260 261
3 7 6 256
3 6 5 261
3 264 13 12
3 2 261 5
3 4 3 5
3 9 8 7
3 6 261 258
3 257 256 6
3 256 253 7
3 253 256 255
3 10 9 252
3 10 252 251
3 253 252 9
3 7 253 9
3 257 6 258
3 16 15 14
3 16 14 263
3 263 17 16
3 57 26 25
3 58 25 24
3 14 13 263
3 17 263 18
3 264 11 250
3 11 264 12
3 21 20 271
3 61 60 269
3 263 19 18
3 23 269 24
3 250 11 251
3 19 263 20
3 10 251 11
3 56 26 57
3 22 21 262
3 0 261 1
3 246 245 271
3 23 22 269
3 107 87 86
3 107 86 108
3 86 85 108
3 105 90 89
3 89 88 106
3 107 88 87
3 107 106 88
3 85 84 109
3 76 75 74
3 77 76 74
3 110 109 84
3 85 109 108
3 84 83 110
3 82 111 83
3 82 81 112
3 95 93 92
3 92 91 95
3 91 90 104
3 104 95 91
3 95 94 93
3 103 97 96
3 95 104 96
3 96 104 103
3 102 97 103
3 90 105 104
3 102 98 97
3 99 98 101
3 101 100 99
3 98 102 101
3 89 106 105
3 59 58 60
3 57 25 58
3 289 70 69
3 282 265 72
3 289 282 70
3 60 58 269
3 63 275 64
3 275 63 285
3 67 66 68
3 68 66 289
3 270 65 64
3 173 172 275
3 24 269 58
3 289 274 282
3 73 72 265
3 78 265 281
3 265 78 77
3 81 80 276
3 83 111 110
3 79 78 276
3 82 112 111
3 119 118 281
3 77 74 73
3 276 281 116
3 281 120 119
3 276 78 281
3 276 112 81
3 112 276 113
3 113 276 114
3 114 276 115
3 265 120 281
3 282 71 70
3 275 270 64
3 255 254 253
3 264 250 249
3 248 264 249
3 264 247 246
3 271 245 244
3 271 263 264
3 271 264 246
3 243 242 273
3 273 241 268
3 241 240 239
3 273 242 241
3 268 239 238
3 236 235 266
3 268 266 283
3 241 239 268
3 283 266 174
3 266 176 175
3 177 176 266
3 234 178 266
3 266 178 177
3 283 174 173
3 284 172 171
3 283 285 262
3 266 235 234
3 179 234 233
3 232 231 181
3 180 233 232
3 179 233 180
3 181 180 232
3 182 181 231
3 230 267 231
3 234 179 178
3 284 171 170
3 222 221 218
3 221 219 218
3 219 221 220
3 223 222 217
3 216 224 223
3 226 225 214
3 215 225 224
3 222 218 217
3 216 215 224
3 217 216 223
3 226 214 277
3 277 212 211
3 277 214 213
3 215 214 225
3 277 211 210
3 182 231 267
3 278 286 203
3 227 277 228
3 207 272 208
3 184 278 185
3 184 183 278
3 201 200 278
3 278 199 198
3 226 277 227
3 272 207 206
3 208 272 277
3 206 205 286
3 273 262 21
3 205 204 286
3 267 183 182
3 203 202 278
3 206 286 272
3 273 21 271
3 208 277 209
3 277 210 209
3 169 168 270
3 270 284 169
3 270 168 274
3 163 279 164
3 165 287 166
3 165 164 287
3 287 120 274
3 284 170 169
3 163 162 279
3 160 288 162
3 279 288 122
3 161 160 162
3 158 280 159
3 160 280 288
3 287 164 279
3 158 156 280
3 124 123 288
3 280 160 159
3 288 280 125
3 153 129 128
3 129 152 130
3 128 127 154
3 126 155 127
3 154 127 155
3 130 152 131
3 153 128 154
3 132 131 151
3 150 133 132
3 133 149 134
3 134 148 135
3 153 152 129
3 126 280 155
3 156 155 280
3 158 157 156
3 194 189 188
3 187 195 188
3 194 190 189
3 192 190 193
3 190 192 191
3 193 190 194
3 196 187 186
3 186 185 197
3 197 185 198
3 278 198 185
3 196 195 187
3 194 188 195
3 197 196 186
3 151 150 132
3 149 133 150
3 134 149 148
3 140 137 136
3 137 139 138
3 147 136 135
3 148 147 135
3 131 152 151
3 147 146 140
3 145 144 142
3 146 145 141
3 139 137 140
3 145 142 141
3 141 140 146
3 143 142 144
3 140 136 147
3 260 259 261
3 199 278 200
3 258 261 259
3 247 264 248
3 13 264 263
3 73 265 77
3 72 71 282
3 174 266 175
3 237 236 266
3 272 230 229
3 204 203 286
3 238 237 268
3 266 268 237
3 22 262 269
3 283 262 268
3 168 167 274
3 66 65 270
3 271 244 243
3 20 263 271
3 230 272 267
3 228 272 229
3 262 273 268
3 243 273 271
3 287 167 166
3 282 120 265
3 62 285 63
3 62 61 285
3 79 276 80
3 116 115 276
3 277 272 228
3 213 212 277
3 267 278 183
3 202 201 278
3 122 121 279
3 279 121 120
3 126 125 280
3 288 125 124
3 118 117 281
3 281 117 116
3 289 69 68
3 120 282 274
3 173 275 283
3 283 275 285
3 270 275 284
3 172 284 275
3 61 269 285
3 262 285 269
3 278 267 286
3 272 286 267
3 120 287 279
3 167 287 274
3 122 288 123
3 288 279 162
3 274 289 270
3 66 270 289
