ply
format ascii 1.0
element vertex 290
property float x
property float y
property float z
property float u
property float v
element face 317
property list uchar int vertex_indices
end_header
66.4666 -393.837 0 147.636 8.36396
56.2136 -385.647 0 139.979 19.0208
52.4017 -371.992 0 140 33.201
52.2937 -358.024 0 143.678 46.6777
63.1499 -351.521 0 155.887 50
71.3818 -361.91 0 161 37.7695
77.2144 -360.478 0 167 37.5736
80.8415 -347.5 0 174 49.0883
82.934 -333.795 0 179.719 61.7193
95.7476 -335.098 0 191.704 57
99.2148 -324.122 0 198 66.6324
100.544 -310.323 0 203 79.5613
91.8228 -304.237 0 196.239 87.7609
79.5333 -298.307 0 186 96.7624
67.5293 -292.151 0 176.097 105.903
56.0838 -284.888 0 167.026 115.974
57.5036 -272.207 0 171.803 127.803
55.2059 -263.224 0 172 137.064
57.7814 -250.113 0 177.995 148.995
61.3592 -236.574 0 185.066 161.066
69.3782 -225.196 0 195.844 169.844
73.5505 -211.584 0 203.622 181.622
67.0946 -206.99 0 199.605 187
53.7868 -213.803 0 186.185 183.185
40.3496 -221.319 0 172.919 179
25.6544 -229.461 0 159.407 175.407
9.98413 -236.386 0 145.818 174
-3.07572 -248.854 0 134 166.718
-7.06096 -266.044 0 130.265 153.265
-11.3451 -282.793 0 126 140.032
-16.3936 -299.326 0 121 127.103
-20.4727 -315.917 0 116.83 113.83
-25.3229 -331.134 0 111 101.245
-30.4371 -346.228 0 104.809 88.8092
-36.8762 -360.745 0 97.031 77.031
-41.384 -374.178 0 90 64.9434
-43.7821 -382.98 0 85.8385 56.8385
-52.1176 -386.295 0 77 55.3289
-51.3993 -372.705 0 80.5247 68.4753
-50.3372 -366.001 0 83 74.8438
-64.2122 -364.682 0 69.8678 79.1322
-72.0977 -373.646 0 60.2982 72
-80.2913 -381.974 0 50.554 65.554
-83.5596 -374.06 0 49 73.9741
-80.0434 -361.719 0 55 85.3173
-74.2165 -349.269 0 63.2955 96.2955
-63.075 -341.109 0 75.9327 102
-51.4748 -328.298 0 86 109.276
-49.4094 -310.742 0 88 123.448
-47.0667 -293.595 0 90.4379 137.438
-45.5097 -277.136 0 92 150.963
-43.742 -260.07 0 94 165.134
-42.0372 -244.352 0 97 178.892
-39.8814 -229.396 0 101 192.235
-36.6955 -215.061 0 106.116 205.116
-31.6068 -201.978 0 113.265 217
-23.871 -204.123 0 120.43 213.43
-10.0571 -193.217 0 133.087 219.087
3.1476 -181.863 0 145 225.052
6.08315 -173.631 0 148.809 232
18.4989 -167.148 0 161.694 235.694
25.8757 -155.462 0 170 244.081
25.175 -140.066 0 171 257.839
24.5337 -124.215 0 172 272.425
26.5311 -108.577 0 175 286.182
20.5482 -95.5454 0 169.921 299.079
14.5883 -82.9004 0 165 312.04
2.33665 -79.9379 0 153.031 316
-4.67014 -68.0076 0 147 328.484
-12.5767 -57.1688 0 140.001 339.999
-21.8093 -46.7363 0 131.516 351.484
-30.3904 -36.0245 0 123.737 363.263
-38.3264 -25.3264 0 116.666 375.334
-48.0093 -15.245 0 108.181 386.819
-57.4401 -4.38947 0 99.6956 398.304
-67.9895 5.75884 0 89.7115 409
-61.8277 12.0834 0 96.2175 415
-48.8055 16.7339 0 109.561 419
-46.2521 25.9531 0 113 429.49
-51.369 37.662 0 109 442.833
-54.2683 51.0558 0 107 457.005
-57.5373 63.09 0 104 470.762
-67.5528 68.7624 0 92.9758 480.024
-76.4773 74.5747 0 82.0762 489.924
-86.032 78.2799 0 70.298 497.702
-94.068 84.5702 0 60.1059 507.894
-101.144 92.0815 0 50.9132 519.087
-108.213 100.076 0 42.5491 529.451
-113.27 110.156 0 36.1849 541.815
-118.1 118.914 0 29 553.839
-122.778 127.254 0 21.7498 565.25
-128.884 137.439 0 13.9716 577.028
-135.547 148.878 0 6.60748 588.393
-138.385 162.478 0 3 601.898
-135.172 172.401 0 5.65576 612
-123.004 165.702 0 18.1705 606
-109.109 170.79 0 29.8989 613.899
-98.0382 180.08 0 41.129 623
-86.494 188.724 0 52.4011 632
-74.0248 194.945 0 64.6477 638.648
-64.7305 194.912 0 73.938 638.938
-73.1832 184.13 0 65.8669 627.867
-80.4774 172.23 0 59 615.711
-86.2022 159.709 0 53.8459 602.846
-93.2495 149.071 0 49 589.853
-92.2791 143.312 0 53.4191 580
-84.2186 137.756 0 64.4886 570.511
-76.1972 132.597 0 75.5491 561
-68.0791 127.417 0 86.5804 551.42
-59.7365 121.682 0 97.4802 541.52
-51.1575 116.394 0 108.537 532
-42.542 111.153 0 119.572 522.428
-33.2444 108.706 0 131.643 515.357
-22.0547 106.834 0 144.593 510.407
-10.5881 100.89 0 156 502.475
-2.69257 90.1642 0 163 490.374
5.14029 79.9694 0 170.514 478.486
14.7814 71.0246 0 180 467.416
24.2157 61.199 0 188.191 455.809
32.7429 50.8549 0 195.262 443.738
43.3907 44.9486 0 206.057 435
52.3793 57.7657 0 216.526 444.526
62.146 70.1518 0 227.602 454
71.9238 81.7824 0 238.911 462.911
82.0093 92.5082 0 250.56 471
92.5824 103.973 0 262.174 479.174
104.547 115.758 0 274.245 486.245
109.372 133.055 0 280 498.862
112.311 151.79 0 284 512.205
115.2 170.469 0 288 525.548
118.704 187.213 0 293 538.477
123.258 203.745 0 298.995 550.995
130.074 221.534 0 306.773 562.773
136.88 239.447 0 314.551 574.551
145.124 257.036 0 323.743 585.743
152.502 274.711 0 332.229 597.229
160.23 290.983 0 341.421 608.421
167.774 304.405 0 351 618.867
176.248 314.59 0 361.382 627
182.669 310.907 0 366.861 622
185.396 300.366 0 367.169 610.831
200.694 304.958 0 380.582 607
214.617 304.02 0 394.339 604
227.776 299.149 0 406.311 596.689
227.241 290.149 0 404.046 588
213.089 286.146 0 389.46 587
198.397 279.792 0 374.874 586
185.116 269.425 0 361.961 583.039
179.889 252.379 0 356 572.431
177.087 233.37 0 352 559.088
174.796 214.296 0 348.527 545.527
171.349 195.463 0 344 532.403
167.268 176.307 0 339 519.474
164.33 156.893 0 335.093 506.093
161.286 137.97 0 331 492.789
161.364 118.878 0 330 479.032
164.378 101.733 0 331 464.446
170.823 90.3089 0 336 452.689
162.491 80.8305 0 326.538 444.538
154.923 67.6095 0 317.345 433.345
145.807 55.0893 0 306.86 423.86
150.618 49.217 0 311 418.459
143.983 36.3587 0 303 407.358
137.159 21.6335 0 294.768 395.768
130.682 7.32137 0 286.99 383.99
123.23 -6.3118 0 278.505 372.505
115.837 -19.153 0 270 361.027
107.734 -32.3133 0 261 349.755
102.729 -45.9479 0 255.998 338
105.422 -57.4526 0 259 326.483
110.212 -69.9746 0 263 313.141
114.598 -82.8711 0 266 299.384
118.73 -95.6232 0 269 285.626
122.754 -107.153 0 273 272.284
132.93 -111.162 0 284.578 264.422
144.737 -110.833 0 297.331 261
157.782 -105.898 0 311.917 262
167.821 -106.542 0 322 258.155
177.742 -110.975 0 331.188 250
187.557 -103.521 0 344.531 252
199.541 -97.7617 0 359.117 251
211.418 -91.6242 0 373.703 250
223.375 -86.4782 0 387.874 248
219.403 -73.678 0 391 260.459
212.017 -60.4186 0 391 275.459
204.139 -48.0621 0 390 290.047
197 -34.8769 0 390 305.044
189.175 -22.5216 0 389 319.633
182.039 -9.3281 0 389 334.633
174.218 3.02199 0 388 349.217
167.082 16.2152 0 388 364.217
161.425 28.8047 0 389.018 377.982
166.624 29.6707 0 394 376.269
170.54 18.2265 0 392 364.34
179.043 6.71484 0 394 350.169
189.96 -1.82528 0 399.537 337.463
203.37 -7.29555 0 408.73 326.27
217.485 -9.05987 0 420.304 318
231.409 -9.01472 0 432.579 311.421
245.37 -9.50093 0 444.649 304.351
259.411 -10.7308 0 456.428 296.572
271.414 -17.0249 0 464 285.295
281.91 -25.9693 0 469 272.366
290.225 -37.3604 0 471 258.194
297.841 -49.5816 0 472 243.608
304.565 -62.0169 0 472 229.438
311.451 -73.3084 0 472.64 216.36
318.834 -85.5343 0 473.238 202.238
323.166 -97.4909 0 471.297 189.703
330.845 -110.037 0 471.996 174.996
335.024 -123.518 0 469.168 161.168
335.399 -137.422 0 462.804 148.804
329.578 -149.83 0 451.733 140.733
322.112 -161.611 0 439.522 134
314.87 -173.569 0 427.422 127
309.396 -186.248 0 416.52 118.52
307.487 -200.397 0 408.035 107.035
310.144 -214.048 0 403.792 93.7925
316.109 -226.565 0 403 79.9492
323.602 -236.059 0 405 68.0205
323.164 -244.048 0 400.772 61.2279
313.392 -234.084 0 397 74.6653
305.497 -221.776 0 396 89.2529
298.279 -208.629 0 396 104.253
290.381 -196.33 0 395 118.836
283.16 -183.181 0 395 133.837
275.939 -170.029 0 395 148.837
268.042 -157.717 0 394 163.422
260.817 -144.553 0 394 178.422
252.948 -132.267 0 393 193.009
245.829 -119.248 0 393 208.01
235.318 -116.909 0 384.873 215.873
223.454 -125.573 0 370.234 215
211.434 -133.891 0 355.649 214
199.221 -141.919 0 341.063 213
193.832 -152.128 0 332.72 206
179.983 -158.24 0 318.135 205
169.827 -168.31 0 306.439 198.439
165.738 -181.851 0 299.367 186.367
163.911 -194.081 0 294.581 175
171.509 -200.131 0 300.319 167
159.443 -203.694 0 287.862 166.862
158.8 -216.698 0 284 154.29
155.276 -230.205 0 277.134 142.134
151.546 -243.651 0 270 130.09
148.888 -255.644 0 264.235 119.235
146.757 -268.029 0 258.871 107.871
142.007 -280.317 0 251 97.303
137.153 -293.689 0 242.729 85.7291
130.078 -306.25 0 232.536 75.5365
117.362 -312.131 0 218.708 73.2917
107.01 -318.39 0 207.052 70.0515
103.473 -331.921 0 200 57.9727
111.669 -339.975 0 205.713 48
119.479 -348.226 0 211 37.9436
118.68 -352.785 0 209 33.7725
116.493 -363.538 0 203.989 24.0107
112.241 -374.029 0 197.061 15.061
104.908 -382.383 0 187.744 9
94.187 -390.292 0 175.283 4.28345
79.3981 -397.853 0 159 1
78.7105 -379.143 0 163.397 19.2
86.8501 -188.891 0 222.418 199.851
80.827 -261.454 0 197.158 131.895
111.359 -285.523 0 220.087 100.537
-6.25648 12.3116 0 151.861 410.94
160.641 -135.42 0 306.586 232.878
247.309 -93.4155 0 406.468 230.06
126.471 -183.286 0 261.32 195.618
48.6071 -179.648 0 188.497 217.457
60.9315 -69.0155 0 212.946 320.627
113.406 -241.596 0 233.86 142.326
284.542 -104.764 0 433.92 201.91
132.389 -209.521 0 260.625 168.349
68.1634 -28.2996 0 222.394 359.242
74.5363 -120.172 0 221.899 268.749
-25.6067 66.9656 0 136.779 470.704
306.119 -131.258 0 440.11 168.305
249.08 -48.8773 0 429.173 267.959
92.3394 34.4977 0 251.883 414.403
124.021 85.0144 0 288.938 454.209
7.24887 37.5526 0 167.384 435.514
1.04071 -20.4342 0 156.203 376.245
112.803 -146.106 0 256.529 235.57
84.4868 -86.8395 0 235.437 299.924
54.6065 -145.057 0 199.546 248.849
272.69 -71.1928 0 439.635 236.523
94.3276 2.13354 0 250.681 384.232
97.906 67.1221 0 261.248 443.175
14.6075 -45.5736 0 168.09 349.187
3 42 41 43
3 38 37 36
3 43 41 44
3 40 46 45
3 40 45 44
3 41 40 44
3 5 3 2
3 1 261 2
3 39 35 34
3 39 38 35
3 39 34 46
3 46 40 39
3 35 38 36
3 33 46 34
3 46 33 47
3 30 49 48
3 50 49 29
3 27 52 51
3 27 53 52
3 28 51 50
3 31 48 47
3 31 30 48
3 28 50 29
3 30 29 49
3 54 56 55
3 54 53 56
3 56 53 27
3 28 27 51
3 56 27 26
3 31 47 32
3 33 32 47
3 0 260 261
3 7 6 256
3 6 5 261
3 264 13 12
3 2 261 5
3 4 3 5
3 9 8 7
3 6 261 258
3 257 256 6
3 256 253 7
3 253 256 255
3 10 9 252
3 10 252 251
3 253 252 9
3 7 253 9
3 257 6 258
3 16 15 14
3 16 14 263
3 263 17 16
3 57 26 25
3 58 25 24
3 14 13 263
3 17 263 18
3 264 11 250
3 11 264 12
3 21 20 271
3 61 60 269
3 263 19 18
3 23 269 24
3 250 11 251
3 19 263 20
3 10 251 11
3 56 26 57
3 22 21 262
3 0 261 1
3 246 245 271
3 23 22 269
3 107 87 86
3 107 86 108
3 86 85 108
3 105 90 89
3 89 88 106
3 107 88 87
3 107 106 88
3 85 84 109
3 76 75 74
3 77 76 74
3 110 109 84
3 85 109 108
3 84 83 110
3 82 111 83
3 82 81 112
3 95 93 92
3 92 91 95
3 91 90 104
3 104 95 91
3 95 94 93
3 103 97 96
3 95 104 96
3 96 104 103
3 102 97 103
3 90 105 104
3 102 98 97
3 99 98 101
3 101 100 99
3 98 102 101
3 89 106 105
3 59 58 60
3 57 25 58
3 289 70 69
3 282 265 72
3 289 282 70
3 60 58 269
3 63 275 64
3 275 63 285
3 67 66 68
3 68 66 289
3 270 65 64
3 173 172 275
3 24 269 58
3 289 274 282
3 73 72 265
3 78 265 281
3 265 78 77
3 81 80 276
3 83 111 110
3 79 78 276
3 82 112 111
3 119 118 281
3 77 74 73
3 276 281 116
3 281 120 119
3 276 78 281
3 276 112 81
3 112 276 113
3 113 276 114
3 114 276 115
3 265 120 281
3 282 71 70
3 275 270 64
3 255 254 253
3 264 250 249
3 248 264 249
3 264 247 246
3 271 245 244
3 271 263 264
3 271 264 246
3 243 242 273
3 273 241 268
3 241 240 239
3 273 242 241
3 268 239 238
3 236 235 266
3 268 266 283
3 241 239 268
3 283 266 174
3 266 176 175
3 177 176 266
3 234 178 266
3 266 178 177
3 283 174 173
3 284 172 171
3 283 285 262
3 266 235 234
3 179 234 233
3 232 231 181
3 180 233 232
3 179 233 180
3 181 180 232
3 182 181 231
3 230 267 231
3 234 179 178
3 284 171 170
3 222 221 218
3 221 219 218
3 219 221 220
3 223 222 217
3 216 224 223
3 226 225 214
3 215 225 224
3 222 218 217
3 216 215 224
3 217 216 223
3 226 214 277
3 277 212 211
3 277 214 213
3 215 214 225
3 277 211 210
3 182 231 267
3 278 286 203
3 227 277 228
3 207 272 208
3 184 278 185
3 184 183 278
3 201 200 278
3 278 199 198
3 226 277 227
3 272 207 206
3 208 272 277
3 206 205 286
3 273 262 21
3 205 204 286
3 267 183 182
3 203 202 278
3 206 286 272
3 273 21 271
3 208 277 209
3 277 210 209
3 169 168 270
3 270 284 169
3 270 168 274
3 163 279 164
3 165 287 166
3 165 164 287
3 287 120 274
3 284 170 169
3 163 162 279
3 160 288 162
3 279 288 122
3 161 160 162
3 158 280 159
3 160 280 288
3 287 164 279
3 158 156 280
3 124 123 288
3 280 160 159
3 288 280 125
3 153 129 128
3 129 152 130
3 128 127 154
3 126 155 127
3 154 127 155
3 130 152 131
3 153 128 154
3 132 131 151
3 150 133 132
3 133 149 134
3 134 148 135
3 153 152 129
3 126 280 155
3 156 155 280
3 158 157 156
3 194 189 188
3 187 195 188
3 194 190 189
3 192 190 193
3 190 192 191
3 193 190 194
3 196 187 186
3 186 185 197
3 197 185 198
3 278 198 185
3 196 195 187
3 194 188 195
3 197 196 186
3 151 150 132
3 149 133 150
3 134 149 148
3 140 137 136
3 137 139 138
3 147 136 135
3 148 147 135
3 131 152 151
3 147 146 140
3 145 144 142
3 146 145 141
3 139 137 140
3 145 142 141
3 141 140 146
3 143 142 144
3 140 136 147
3 260 259 261
3 199 278 200
3 258 261 259
3 247 264 248
3 13 264 263
3 73 265 77
3 72 71 282
3 174 266 175
3 237 236 266
3 272 230 229
3 204 203 286
3 238 237 268
3 266 268 237
3 22 262 269
3 283 262 268
3 168 167 274
3 66 65 270
3 271 244 243
3 20 263 271
3 230 272 267
3 228 272 229
3 262 273 268
3 243 273 271
3 287 167 166
3 282 120 265
3 62 285 63
3 62 61 285
3 79 276 80
3 116 115 276
3 277 272 228
3 213 212 277
3 267 278 183
3 202 201 278
3 122 121 279
3 279 121 120
3 126 125 280
3 288 125 124
3 118 117 281
3 281 117 116
3 289 69 68
3 120 282 274
3 173 275 283
3 283 275 285
3 270 275 284
3 172 284 275
3 61 269 285
3 262 285 269
3 278 267 286
3 272 286 267
3 120 287 279
3 167 287 274
3 122 288 123
3 288 279 162
3 274 289 270
3 66 270 289
