ply
format ascii 1.0
element vertex 290
property float x
property float y
property float z
property float u
property float v
element face 317
property list uchar int vertex_indices
end_header
26.5656 -372.356 0 147.636 8.36396
17.1493 -363.215 0 139.979 19.0208
14.671 -349.256 0 140 33.201
15.9103 -335.342 0 143.678 46.6777
27.3428 -329.916 0 155.887 50
34.5347 -341.051 0 161 37.7695
40.478 -340.187 0 167 37.5736
45.339 -327.62 0 174 49.0883
48.7428 -314.179 0 179.719 61.7193
61.3712 -316.711 0 191.704 57
65.879 -306.121 0 198 66.6324
68.5306 -292.514 0 203 79.5613
60.4352 -285.62 0 196.239 87.7609
48.7735 -278.541 0 186 96.7624
37.4173 -271.266 0 176.097 105.903
26.7223 -262.938 0 167.026 115.974
29.3536 -250.453 0 171.803 127.803
27.9285 -241.293 0 172 137.064
31.7494 -228.492 0 177.995 148.995
36.6072 -215.363 0 185.066 161.066
45.6784 -204.82 0 195.844 169.844
51.1466 -191.76 0 203.622 181.622
45.3178 -186.895 0 199.605 187
31.632 -192.694 0 186.185 183.185
17.8703 -199.073 0 172.919 179
2.95873 -205.771 0 159.407 175.407
-12.7291 -210.965 0 145.818 174
-26.2009 -221.876 0 134 166.718
-31.0258 -238.168 0 130.265 153.265
-36.1728 -254.046 0 126 140.032
-42.08 -269.655 0 121 127.103
-47.06 -285.421 0 116.83 113.83
-52.9021 -299.905 0 111 101.245
-59.0298 -314.243 0 104.809 88.8092
-66.5045 -327.911 0 97.031 77.031
-72.1825 -340.859 0 90 64.9434
-75.3656 -349.406 0 85.8385 56.8385
-83.9665 -351.952 0 77 55.3289
-82.0207 -338.483 0 80.5247 68.4753
-80.3485 -331.897 0 83 74.8438
-94.0195 -329.304 0 69.8678 79.1322
-102.684 -337.517 0 60.2982 72
-111.598 -345.069 0 50.554 65.554
-114.136 -336.891 0 49 73.9741
-109.517 -324.919 0 55 85.3173
-102.585 -313.047 0 63.2955 96.2955
-90.7426 -305.922 0 75.9327 102
-78.6908 -294.776 0 86 109.276
-75.6839 -278 0 88 123.448
-72.4166 -261.603 0 90.4379 137.438
-70.0015 -245.811 0 92 150.963
-67.3199 -229.411 0 94 165.134
-64.6107 -214.179 0 97 178.892
-61.4106 -199.668 0 101 192.235
-57.2314 -185.766 0 106.116 205.116
-51.2129 -173.121 0 113.265 217
-43.6617 -175.855 0 120.43 213.43
-29.506 -166.573 0 133.087 219.087
-15.9661 -156.849 0 145 225.052
-12.5398 -149.017 0 148.809 232
0.226802 -143.571 0 161.694 235.694
8.21099 -132.967 0 170 244.081
8.27051 -118.064 0 171 257.839
8.2923 -102.607 0 172 272.425
10.6652 -87.5714 0 175 286.182
4.97625 -74.5414 0 169.921 299.079
-0.63806 -61.7631 0 165 312.04
-12.8046 -58.4457 0 153.031 316
-19.4757 -46.3117 0 147 328.484
-27.0809 -35.2462 0 140.001 339.999
-36.0734 -24.4612 0 131.516 351.484
-44.4013 -13.4072 0 123.737 363.263
-52.0701 -2.26983 0 116.666 375.334
-61.3745 8.22213 0 108.181 386.819
-70.5516 19.2298 0 99.6956 398.304
-80.9698 29.5083 0 89.7115 409
-74.7247 35.7592 0 96.2175 415
-61.6148 40.2596 0 109.561 419
-58.8442 49.9014 0 113 429.49
-63.7083 62.0738 0 109 442.833
-66.47 75.6326 0 107 457.005
-69.8896 88.1264 0 104 470.762
-80.5166 94.7663 0 92.9758 480.024
-90.5166 101.74 0 82.0762 489.924
-101.2 106.548 0 70.298 497.702
-110.451 113.903 0 60.1059 507.894
-118.79 122.408 0 50.9132 519.087
-126.78 130.906 0 42.5491 529.451
-132.867 141.52 0 36.1849 541.815
-139.177 151.113 0 29 553.839
-145.448 160.181 0 21.7498 565.25
-152.849 170.457 0 13.9716 577.028
-160.445 181.401 0 6.60748 588.393
-164.362 194.752 0 3 601.898
-161.945 204.901 0 5.65576 612
-149.289 199.188 0 18.1705 606
-136.777 205.977 0 29.8989 613.899
-126.196 215.869 0 41.129 623
-115.309 225.333 0 52.4011 632
-103.335 232.463 0 64.6477 638.648
-94.064 233.12 0 73.938 638.938
-101.692 221.739 0 65.8669 627.867
-108.078 209.327 0 59 615.711
-112.794 196.363 0 53.8459 602.846
-118.171 184.508 0 49 589.853
-115.253 177.359 0 53.4191 580
-105.479 170.778 0 64.4886 570.511
-95.7664 164.401 0 75.5491 561
-86.0343 157.962 0 86.5804 551.42
-76.2294 151.026 0 97.4802 541.52
-66.2541 144.491 0 108.537 532
-56.2799 137.931 0 119.572 522.428
-45.5743 134.041 0 131.643 515.357
-33.4743 131.281 0 144.593 510.407
-21.7717 124.823 0 156 502.475
-13.8851 113.677 0 163 490.374
-5.86405 102.884 0 170.514 478.486
3.96768 93.2141 0 180 467.416
13.156 82.7705 0 188.191 455.809
21.3383 71.7785 0 195.262 443.738
32.2332 64.8066 0 206.057 435
41.8943 76.5634 0 216.526 444.526
52.2543 88.0081 0 227.602 454
62.7017 98.7509 0 238.911 462.911
73.4733 108.584 0 250.56 471
84.5922 118.908 0 262.174 479.174
96.8429 129.043 0 274.245 486.245
102.287 144.761 0 280 498.862
105.922 161.688 0 284 512.205
109.53 178.574 0 288 525.548
113.842 194.026 0 293 538.477
119.19 209.179 0 298.995 550.995
126.691 224.878 0 306.773 562.773
134.196 240.656 0 314.551 574.551
143.135 255.996 0 323.743 585.743
151.27 271.505 0 332.229 597.229
159.845 285.971 0 341.421 608.421
168.355 298.295 0 351 618.867
177.684 307.673 0 361.382 627
183.745 303.418 0 366.861 622
185.482 292.577 0 367.169 610.831
200.338 294.041 0 380.582 607
214.221 292.132 0 394.339 604
226.922 286.167 0 406.311 596.689
225.625 277.257 0 404.046 588
211.207 274.533 0 389.46 587
196.367 270.256 0 374.874 586
182.938 262.616 0 361.961 583.039
177.092 247.806 0 356 572.431
173.498 230.728 0 352 559.088
170.431 213.526 0 348.527 545.527
166.252 196.65 0 344 532.403
161.488 179.634 0 339 519.474
157.857 162.279 0 335.093 506.093
154.115 145.279 0 331 492.789
153.498 127.975 0 330 479.032
155.59 111.661 0 331 464.446
161.415 100.041 0 336 452.689
152.58 91.1093 0 326.538 444.538
144.32 78.6741 0 317.345 433.345
134.617 67.2944 0 306.86 423.86
139.159 61.5606 0 311 418.459
131.964 49.3399 0 303 407.358
124.561 35.7352 0 294.768 395.768
117.579 22.3318 0 286.99 383.99
109.738 9.46751 0 278.505 372.505
101.959 -2.88731 0 270 361.027
93.5644 -15.4043 0 261 349.755
88.5825 -28.4376 0 255.998 338
91.3989 -40 0 259 326.483
95.953 -52.8246 0 263 313.141
99.9213 -66.0398 0 266 299.384
103.723 -79.1983 0 269 285.626
107.831 -91.4382 0 273 272.284
118.719 -96.7553 0 284.578 264.422
131.05 -97.6552 0 297.331 261
144.763 -93.9534 0 311.917 262
154.998 -95.6296 0 322 258.155
165.052 -101.281 0 331.188 250
176.775 -95.4307 0 344.531 252
190.539 -91.7377 0 359.117 251
204.272 -87.7928 0 373.703 250
217.831 -84.8829 0 387.874 248
216.581 -71.7522 0 391 260.459
211.73 -57.456 0 391 275.459
206.125 -43.9333 0 390 290.047
201.355 -29.7177 0 390 305.044
195.764 -16.2035 0 389 319.633
190.997 -1.98181 0 389 334.633
185.409 11.5267 0 388 349.217
180.643 25.7492 0 388 364.217
177.229 39.1223 0 389.018 377.982
182.499 39.0839 0 394 376.269
184.394 27.1375 0 392 364.34
190.796 14.3372 0 394 350.169
200.087 4.05159 0 399.537 337.463
212.36 -3.63712 0 408.73 326.27
225.964 -7.79584 0 420.304 318
239.694 -10.1342 0 432.579 311.421
253.375 -13.0038 0 444.649 304.351
267.006 -16.6266 0 456.428 296.572
277.763 -24.895 0 464 285.295
286.6 -35.5269 0 469 272.366
292.948 -48.2273 0 471 258.194
298.467 -61.6319 0 472 243.608
302.963 -75.0499 0 472 229.438
307.733 -87.3225 0 472.64 216.36
312.814 -100.601 0 473.238 202.238
314.986 -113.119 0 471.297 189.703
320.366 -126.814 0 471.996 174.996
322.133 -140.818 0 469.168 161.168
320.082 -154.574 0 462.804 148.804
312.19 -165.778 0 451.733 140.733
302.788 -176.079 0 439.522 134
293.577 -186.594 0 427.422 127
285.978 -198.128 0 416.52 118.52
281.635 -211.728 0 408.035 107.035
281.876 -225.633 0 403.792 93.7925
285.569 -238.997 0 403 79.9492
291.295 -249.651 0 405 68.0205
289.472 -257.442 0 400.772 61.2279
281.585 -245.928 0 397 74.6653
275.953 -232.434 0 396 89.2529
271.135 -218.231 0 396 104.253
265.498 -204.745 0 395 118.836
260.678 -190.539 0 395 133.837
255.856 -176.333 0 395 148.837
250.222 -162.838 0 394 163.422
245.397 -148.625 0 394 178.422
239.758 -135.151 0 393 193.009
234.913 -121.049 0 393 208.01
224.602 -116.693 0 384.873 215.873
210.789 -122.888 0 370.234 215
196.961 -128.895 0 355.649 214
183.009 -134.714 0 341.063 213
176.195 -144.003 0 332.72 206
161.79 -148.428 0 318.135 205
150.856 -157.391 0 306.439 198.439
145.581 -170.579 0 299.367 186.367
142.646 -182.635 0 294.581 175
149.639 -189.435 0 300.319 167
137.307 -191.827 0 287.862 166.862
135.458 -204.817 0 284 154.29
130.683 -217.971 0 277.134 142.134
125.693 -231.036 0 270 130.09
121.898 -242.728 0 264.235 119.235
118.592 -254.855 0 258.871 107.871
112.684 -266.634 0 251 97.303
106.568 -279.478 0 242.729 85.7291
98.3179 -291.3 0 232.536 75.5365
85.0958 -295.931 0 218.708 73.2917
74.1896 -301.165 0 207.052 70.0515
69.3668 -314.294 0 200 57.9727
76.7487 -323.101 0 205.713 48
83.7262 -332.066 0 211 37.9436
82.4924 -336.526 0 209 33.7725
79.2784 -347.019 0 203.989 24.0107
74.0356 -357.051 0 197.061 15.061
65.9316 -364.659 0 187.744 9
54.4985 -371.498 0 175.283 4.28345
39.05 -377.599 0 159 1
40.1682 -358.909 0 163.397 19.2
66.5035 -170.503 0 222.418 199.851
53.6016 -241.989 0 197.158 131.895
81.6792 -268.868 0 220.087 100.537
-19.0759 34.8913 0 151.861 410.94
144.923 -123.603 0 306.586 232.878
240.759 -95.8575 0 406.468 230.06
106.378 -168.282 0 261.32 195.618
29.3055 -158.284 0 188.497 217.457
46.3389 -49.7051 0 212.946 320.627
87.934 -225.332 0 233.86 142.326
275.677 -113.565 0 433.92 201.91
109.881 -195.138 0 260.625 168.349
54.2666 -9.55091 0 222.394 359.242
58.4039 -101.301 0 221.899 268.749
-37.6627 91.2946 0 136.779 470.704
292.323 -143.405 0 440.11 168.305
250.277 -52.4307 0 429.173 267.959
80.3718 50.7803 0 251.883 414.403
114.382 97.5633 0 288.938 454.209
-5.05646 60.0972 0 167.384 435.514
-12.6475 1.41192 0 156.203 376.245
95.6746 -129.878 0 256.529 235.57
69.5925 -68.5695 0 235.437 299.924
37.452 -124.584 0 199.546 248.849
270.024 -78.6164 0 439.635 236.523
81.1802 19.0969 0 250.681 384.232
87.4679 82.1487 0 261.248 443.175
0.422992 -24.4421 0 168.09 349.187
3 42 41 43
3 38 37 36
3 43 41 44
3 40 46 45
3 40 45 44
3 41 40 44
3 5 3 2
3 1 261 2
3 39 35 34
3 39 38 35
3 39 34 46
3 46 40 39
3 35 38 36
3 33 46 34
3 46 33 47
3 30 49 48
3 50 49 29
3 27 52 51
3 27 53 52
3 28 51 50
3 31 48 47
3 31 30 48
3 28 50 29
3 30 29 49
3 54 56 55
3 54 53 56
3 56 53 27
3 28 27 51
3 56 27 26
3 31 47 32
3 33 32 47
3 0 260 261
3 7 6 256
3 6 5 261
3 264 13 12
3 2 261 5
3 4 3 5
3 9 8 7
3 6 261 258
3 257 256 6
3 256 253 7
3 253 256 255
3 10 9 252
3 10 252 251
3 253 252 9
3 7 253 9
3 257 6 258
3 16 15 14
3 16 14 263
3 263 17 16
3 57 26 25
3 58 25 24
3 14 13 263
3 17 263 18
3 264 11 250
3 11 264 12
3 21 20 271
3 61 60 269
3 263 19 18
3 23 269 24
3 250 11 251
3 19 263 20
3 10 251 11
3 56 26 57
3 22 21 262
3 0 261 1
3 246 245 271
3 23 22 269
3 107 87 86
3 107 86 108
3 86 85 108
3 105 90 89
3 89 88 106
3 107 88 87
3 107 106 88
3 85 84 109
3 76 75 74
3 77 76 74
3 110 109 84
3 85 109 108
3 84 83 110
3 82 111 83
3 82 81 112
3 95 93 92
3 92 91 95
3 91 90 104
3 104 95 91
3 95 94 93
3 103 97 96
3 95 104 96
3 96 104 103
3 102 97 103
3 90 105 104
3 102 98 97
3 99 98 101
3 101 100 99
3 98 102 101
3 89 106 105
3 59 58 60
3 57 25 58
3 289 70 69
3 282 265 72
3 289 282 70
3 60 58 269
3 63 275 64
3 275 63 285
3 67 66 68
3 68 66 289
3 270 65 64
3 173 172 275
3 24 269 58
3 289 274 282
3 73 72 265
3 78 265 281
3 265 78 77
3 81 80 276
3 83 111 110
3 79 78 276
3 82 112 111
3 119 118 281
3 77 74 73
3 276 281 116
3 281 120 119
3 276 78 281
3 276 112 81
3 112 276 113
3 113 276 114
3 114 276 115
3 265 120 281
3 282 71 70
3 275 270 64
3 255 254 253
3 264 250 249
3 248 264 249
3 264 247 246
3 271 245 244
3 271 263 264
3 271 264 246
3 243 242 273
3 273 241 268
3 241 240 239
3 273 242 241
3 268 239 238
3 236 235 266
3 268 266 283
3 241 239 268
3 283 266 174
3 266 176 175
3 177 176 266
3 234 178 266
3 266 178 177
3 283 174 173
3 284 172 171
3 283 285 262
3 266 235 234
3 179 234 233
3 232 231 181
3 180 233 232
3 179 233 180
3 181 180 232
3 182 181 231
3 230 267 231
3 234 179 178
3 284 171 170
3 222 221 218
3 221 219 218
3 219 221 220
3 223 222 217
3 216 224 223
3 226 225 214
3 215 225 224
3 222 218 217
3 216 215 224
3 217 216 223
3 226 214 277
3 277 212 211
3 277 214 213
3 215 214 225
3 277 211 210
3 182 231 267
3 278 286 203
3 227 277 228
3 207 272 208
3 184 278 185
3 184 183 278
3 201 200 278
3 278 199 198
3 226 277 227
3 272 207 206
3 208 272 277
3 206 205 286
3 273 262 21
3 205 204 286
3 267 183 182
3 203 202 278
3 206 286 272
3 273 21 271
3 208 277 209
3 277 210 209
3 169 168 270
3 270 284 169
3 270 168 274
3 163 279 164
3 165 287 166
3 165 164 287
3 287 120 274
3 284 170 169
3 163 162 279
3 160 288 162
3 279 288 122
3 161 160 162
3 158 280 159
3 160 280 288
3 287 164 279
3 158 156 280
3 124 123 288
3 280 160 159
3 288 280 125
3 153 129 128
3 129 152 130
3 128 127 154
3 126 155 127
3 154 127 155
3 130 152 131
3 153 128 154
3 132 131 151
3 150 133 132
3 133 149 134
3 134 148 135
3 153 152 129
3 126 280 155
3 156 155 280
3 158 157 156
3 194 189 188
3 187 195 188
3 194 190 189
3 192 190 193
3 190 192 191
3 193 190 194
3 196 187 186
3 186 185 197
3 197 185 198
3 278 198 185
3 196 195 187
3 194 188 195
3 197 196 186
3 151 150 132
3 149 133 150
3 134 149 148
3 140 137 136
3 137 139 138
3 147 136 135
3 148 147 135
3 131 152 151
3 147 146 140
3 145 144 142
3 146 145 141
3 139 137 140
3 145 142 141
3 141 140 146
3 143 142 144
3 140 136 147
3 260 259 261
3 199 278 200
3 258 261 259
3 247 264 248
3 13 264 263
3 73 265 77
3 72 71 282
3 174 266 175
3 237 236 266
3 272 230 229
3 204 203 286
3 238 237 268
3 266 268 237
3 22 262 269
3 283 262 268
3 168 167 274
3 66 65 270
3 271 244 243
3 20 263 271
3 230 272 267
3 228 272 229
3 262 273 268
3 243 273 271
3 287 167 166
3 282 120 265
3 62 285 63
3 62 61 285
3 79 276 80
3 116 115 276
3 277 272 228
3 213 212 277
3 267 278 183
3 202 201 278
3 122 121 279
3 279 121 120
3 126 125 280
3 288 125 124
3 118 117 281
3 281 117 116
3 289 69 68
3 120 282 274
3 173 275 283
3 283 275 285
3 270 275 284
3 172 284 275
3 61 269 285
3 262 285 269
3 278 267 286
3 272 286 267
3 120 287 279
3 167 287 274
3 122 288 123
3 288 279 162
3 274 289 270
3 66 270 289
