ply
format ascii 1.0
element vertex 290
property float x
property float y
property float z
property float u
property float v
element face 317
property list uchar int vertex_indices
end_header
67.8851 -393.572 0 147.636 8.36396
57.6378 -385.374 0 139.979 19.0208
53.8354 -371.717 0 140 33.201
53.737 -357.749 0 143.678 46.6777
64.5977 -351.253 0 155.887 50
72.8225 -361.648 0 161 37.7695
78.656 -360.22 0 167 37.5736
82.2921 -347.245 0 174 49.0883
84.3941 -333.541 0 179.719 61.7193
97.2068 -334.853 0 191.704 57
100.682 -323.88 0 198 66.6324
102.021 -310.081 0 203 79.5613
93.3039 -303.989 0 196.239 87.7609
81.0191 -298.05 0 186 96.7624
69.0201 -291.885 0 176.097 105.903
57.5798 -284.614 0 167.026 115.974
59.0085 -271.935 0 171.803 127.803
56.7171 -262.95 0 172 137.064
59.3019 -249.841 0 177.995 148.995
62.8895 -236.304 0 185.066 161.066
70.9186 -224.93 0 195.844 169.844
75.1169 -211.313 0 203.622 181.622
68.7558 -206.667 0 199.605 187
55.551 -213.435 0 186.185 183.185
42.2282 -220.9 0 172.919 179
27.7323 -228.913 0 159.407 175.407
12.2974 -235.671 0 145.818 174
-0.493225 -247.955 0 134 166.718
-4.17173 -264.912 0 130.265 153.265
-8.16873 -281.456 0 126 140.032
-12.928 -297.791 0 121 127.103
-16.7178 -314.187 0 116.83 113.83
-21.3532 -329.292 0 111 101.245
-26.2565 -344.283 0 104.809 88.8092
-32.5093 -358.729 0 97.031 77.031
-36.9258 -372.177 0 90 64.9434
-39.2706 -380.993 0 85.8385 56.8385
-47.586 -384.357 0 77 55.3289
-46.9488 -370.763 0 80.5247 68.4753
-45.9238 -364.05 0 83 74.8438
-59.7956 -362.801 0 69.8678 79.1322
-67.6273 -371.812 0 60.2982 72
-75.7709 -380.189 0 50.554 65.554
-79.0864 -372.295 0 49 73.9741
-75.644 -359.933 0 55 85.3173
-69.8908 -347.448 0 63.2955 96.2955
-58.7954 -339.217 0 75.9327 102
-47.519 -326.607 0 86 109.276
-45.7772 -309.277 0 88 123.448
-43.7323 -292.331 0 90.4379 137.438
-42.4625 -276.075 0 92 150.963
-40.9733 -259.203 0 94 165.134
-39.4494 -243.589 0 97 178.892
-37.4208 -228.69 0 101 192.235
-34.3308 -214.386 0 106.116 205.116
-29.2993 -201.294 0 113.265 217
-21.5641 -203.419 0 120.43 213.43
-7.98629 -192.674 0 133.087 219.087
4.97001 -181.501 0 145 225.052
7.85517 -173.294 0 148.809 232
20.2257 -166.808 0 161.694 235.694
27.5358 -155.169 0 170 244.081
26.8056 -139.802 0 171 257.839
26.1582 -123.973 0 172 272.425
28.171 -108.374 0 175 286.182
22.2062 -95.3608 0 169.921 299.079
16.2603 -82.7153 0 165 312.04
4.0126 -79.7401 0 153.031 316
-2.98152 -67.802 0 147 328.484
-10.8746 -56.9461 0 140.001 339.999
-20.095 -46.4883 0 131.516 351.484
-28.6594 -35.7443 0 123.737 363.263
-36.5775 -25.0018 0 116.666 375.334
-46.232 -14.8578 0 108.181 386.819
-55.6227 -3.96426 0 99.6956 398.304
-66.1433 6.21393 0 89.7115 409
-59.9635 12.522 0 96.2175 415
-46.9258 17.1395 0 109.561 419
-44.3261 26.4071 0 113 429.49
-49.3685 38.1997 0 109 442.833
-52.1885 51.6539 0 107 457.005
-55.3653 63.7837 0 104 470.762
-65.2919 69.6264 0 92.9758 480.024
-74.1072 75.5971 0 82.0762 489.924
-83.5682 79.4754 0 70.298 497.702
-91.4707 85.9247 0 60.1059 507.894
-98.3915 93.5856 0 50.9132 519.087
-105.314 101.717 0 42.5491 529.451
-110.191 111.911 0 36.1849 541.815
-114.829 120.799 0 29 553.839
-119.313 129.266 0 21.7498 565.25
-125.21 139.586 0 13.9716 577.028
-131.678 151.133 0 6.60748 588.393
-134.307 164.776 0 3 601.898
-130.945 174.651 0 5.65576 612
-118.877 167.772 0 18.1705 606
-104.829 172.682 0 29.8989 613.899
-93.6104 181.77 0 41.129 623
-81.9193 190.213 0 52.4011 632
-69.3446 196.218 0 64.6477 638.648
-60.0523 196.024 0 73.938 638.938
-68.69 185.39 0 65.8669 627.867
-76.189 173.618 0 59 615.711
-82.1322 161.195 0 53.8459 602.846
-89.4027 150.652 0 49 589.853
-88.6022 144.825 0 53.4191 580
-80.703 139.102 0 64.4886 570.511
-72.8399 133.779 0 75.5491 561
-64.8753 128.442 0 86.5804 551.42
-56.6844 122.557 0 97.4802 541.52
-48.2471 117.125 0 108.537 532
-39.7697 111.748 0 119.572 522.428
-30.5752 109.17 0 131.643 515.357
-19.4371 107.18 0 144.593 510.407
-8.05549 101.125 0 156 502.475
-0.288863 90.3412 0 163 490.374
7.42697 80.119 0 170.514 478.486
16.9847 71.131 0 180 467.416
26.3329 61.2595 0 188.191 455.809
34.7781 50.8889 0 195.262 443.738
45.3628 44.964 0 206.057 435
54.3455 57.6872 0 216.526 444.526
64.1094 69.9916 0 227.602 454
73.8863 81.5559 0 238.911 462.911
83.9688 92.2365 0 250.56 471
94.5253 103.638 0 262.174 479.174
106.455 115.314 0 274.245 486.245
111.243 132.471 0 280 498.862
114.144 151.042 0 284 512.205
116.993 169.561 0 288 525.548
120.459 186.202 0 293 538.477
124.976 202.634 0 298.995 550.995
131.746 220.273 0 306.773 562.773
138.505 238.032 0 314.551 574.551
146.698 255.473 0 323.743 585.743
154.024 273.002 0 332.229 597.229
161.701 289.171 0 341.421 608.421
169.204 302.571 0 351 618.867
177.648 312.778 0 361.382 627
184.08 309.111 0 366.861 622
186.836 298.566 0 367.169 610.831
202.116 303.019 0 380.582 607
216.041 302.152 0 394.339 604
229.218 297.328 0 406.311 596.689
228.714 288.328 0 404.046 588
214.576 284.281 0 389.46 587
199.904 277.96 0 374.874 586
186.652 267.71 0 361.961 583.039
181.474 250.824 0 356 572.431
178.724 231.972 0 352 559.088
176.482 213.055 0 348.527 545.527
173.082 194.378 0 344 532.403
169.046 175.391 0 339 519.474
166.151 156.148 0 335.093 506.093
163.145 137.381 0 331 492.789
163.258 118.455 0 330 479.032
166.288 101.383 0 331 464.446
172.747 89.9733 0 336 452.689
164.426 80.4863 0 326.538 444.538
156.86 67.2683 0 317.345 433.345
147.737 54.7755 0 306.86 423.86
152.542 48.9223 0 311 418.459
145.898 36.0849 0 303 407.358
139.053 21.4107 0 294.768 395.768
132.549 7.13894 0 286.99 383.99
125.071 -6.45886 0 278.505 372.505
117.652 -19.2803 0 270 361.027
109.511 -32.3952 0 261 349.755
104.468 -45.9478 0 255.998 338
107.145 -57.3947 0 259 326.483
111.917 -69.9034 0 263 313.141
116.278 -82.7981 0 266 299.384
120.389 -95.531 0 269 285.626
124.397 -107.016 0 273 272.284
134.547 -111.015 0 284.578 264.422
146.335 -110.709 0 297.331 261
159.396 -105.819 0 311.917 262
169.418 -106.507 0 322 258.155
179.25 -110.994 0 331.188 250
188.931 -103.619 0 344.531 252
200.728 -97.9719 0 359.117 251
212.421 -91.952 0 373.703 250
224.232 -86.9149 0 387.874 248
220.243 -74.1071 0 391 260.459
212.909 -60.8055 0 391 275.459
205.1 -48.4008 0 390 290.047
198.045 -35.1702 0 390 305.044
190.299 -22.7652 0 389 319.633
183.248 -9.52625 0 389 334.633
175.506 2.87359 0 388 349.217
168.454 16.1123 0 388 364.217
162.879 28.7377 0 389.018 377.982
168.082 29.5703 0 394 376.269
171.925 18.1013 0 392 364.34
180.355 6.53551 0 394 350.169
191.217 -2.07425 0 399.537 337.463
204.591 -7.6302 0 408.73 326.27
218.694 -9.48478 0 420.304 318
232.617 -9.52887 0 432.579 311.421
246.572 -10.1041 0 444.649 304.351
260.604 -11.423 0 456.428 296.572
272.564 -17.7929 0 464 285.295
282.997 -26.8039 0 469 272.366
291.216 -38.2504 0 471 258.194
298.732 -50.5203 0 472 243.608
305.378 -62.9931 0 472 229.438
312.218 -74.3155 0 472.64 216.36
319.554 -86.5757 0 473.238 202.238
323.822 -98.5539 0 471.297 189.703
331.429 -111.143 0 471.996 174.996
335.529 -124.648 0 469.168 161.168
335.824 -138.554 0 462.804 148.804
329.931 -150.928 0 451.733 140.733
322.396 -162.665 0 439.522 134
315.086 -174.58 0 427.422 127
309.539 -187.228 0 416.52 118.52
307.548 -201.365 0 408.035 107.035
310.126 -215.031 0 403.792 93.7925
316.018 -227.583 0 403 79.9492
323.456 -237.119 0 405 68.0205
322.972 -245.106 0 400.772 61.2279
313.258 -235.086 0 397 74.6653
305.434 -222.732 0 396 89.2529
298.292 -209.544 0 396 104.253
290.465 -197.199 0 395 118.836
283.321 -184.009 0 395 133.837
276.176 -170.815 0 395 148.837
268.351 -158.457 0 394 163.422
261.204 -145.251 0 394 178.422
253.418 -132.916 0 393 193.009
246.411 -119.844 0 393 208.01
236.048 -117.405 0 384.873 215.873
224.381 -125.938 0 370.234 215
212.553 -134.132 0 355.649 214
200.548 -142.035 0 341.063 213
195.241 -152.178 0 332.72 206
181.421 -158.222 0 318.135 205
171.3 -168.23 0 306.439 198.439
167.236 -181.73 0 299.367 186.367
165.413 -193.939 0 294.581 175
173.012 -199.993 0 300.319 167
160.95 -203.535 0 287.862 166.862
160.321 -216.518 0 284 154.29
156.8 -230.011 0 277.134 142.134
153.067 -243.449 0 270 130.09
150.402 -255.439 0 264.235 119.235
148.263 -267.822 0 258.871 107.871
143.504 -280.105 0 251 97.303
138.641 -293.473 0 242.729 85.7291
131.557 -306.029 0 232.536 75.5365
118.837 -311.901 0 218.708 73.2917
108.481 -318.152 0 207.052 70.0515
104.935 -331.681 0 200 57.9727
113.125 -339.741 0 205.713 48
120.929 -347.998 0 211 37.9436
120.127 -352.555 0 209 33.7725
117.932 -363.307 0 203.989 24.0107
113.674 -373.795 0 197.061 15.061
106.335 -382.144 0 187.744 9
95.608 -390.046 0 175.283 4.28345
80.8138 -397.597 0 159 1
80.1392 -378.886 0 163.397 19.2
88.4411 -188.618 0 222.418 199.851
82.3395 -261.198 0 197.158 131.895
112.853 -285.289 0 220.087 100.537
-4.39191 12.5449 0 151.861 410.94
162.14 -135.349 0 306.586 232.878
248.036 -94.0184 0 406.468 230.06
127.978 -183.099 0 261.32 195.618
50.311 -179.295 0 188.497 217.457
62.6214 -68.8845 0 212.946 320.627
114.931 -241.364 0 233.86 142.326
285.157 -105.6 0 433.92 201.91
133.923 -209.309 0 260.625 168.349
69.9328 -28.2767 0 222.394 359.242
76.1583 -119.975 0 221.899 268.749
-23.4215 67.351 0 136.779 470.704
306.581 -132.219 0 440.11 168.305
250.032 -49.5035 0 429.173 267.959
94.2455 34.3161 0 251.883 414.403
125.952 84.6434 0 288.938 454.209
9.2207 37.7168 0 167.384 435.514
2.81037 -20.238 0 156.203 376.245
114.369 -145.908 0 256.529 235.57
86.1559 -86.7039 0 235.437 299.924
56.2311 -144.781 0 199.546 248.849
273.437 -71.9797 0 439.635 236.523
96.1763 2.02584 0 250.681 384.232
99.8414 66.844 0 261.248 443.175
16.3302 -45.3983 0 168.09 349.187
3 42 41 43
3 38 37 36
3 43 41 44
3 40 46 45
3 40 45 44
3 41 40 44
3 5 3 2
3 1 261 2
3 39 35 34
3 39 38 35
3 39 34 46
3 46 40 39
3 35 38 36
3 33 46 34
3 46 33 47
3 30 49 48
3 50 49 29
3 27 52 51
3 27 53 52
3 28 51 50
3 31 48 47
3 31 30 48
3 28 50 29
3 30 29 49
3 54 56 55
3 54 53 56
3 56 53 27
3 28 27 51
3 56 27 26
3 31 47 32
3 33 32 47
3 0 260 261
3 7 6 256
3 6 5 261
3 264 13 12
3 2 261 5
3 4 3 5
3 9 8 7
3 6 261 258
3 257 256 6
3 256 253 7
3 253 256 255
3 10 9 252
3 10 252 251
3 253 252 9
3 7 253 9
3 257 6 258
3 16 15 14
3 16 14 263
3 263 17 16
3 57 26 25
3 58 25 24
3 14 13 263
3 17 263 18
3 264 11 250
3 11 264 12
3 21 20 271
3 61 60 269
3 263 19 18
3 23 269 24
3 250 11 251
3 19 263 20
3 10 251 11
3 56 26 57
3 22 21 262
3 0 261 1
3 246 245 271
3 23 22 269
3 107 87 86
3 107 86 108
3 86 85 108
3 105 90 89
3 89 88 106
3 107 88 87
3 107 106 88
3 85 84 109
3 76 75 74
3 77 76 74
3 110 109 84
3 85 109 108
3 84 83 110
3 82 111 83
3 82 81 112
3 95 93 92
3 92 91 95
3 91 90 104
3 104 95 91
3 95 94 93
3 103 97 96
3 95 104 96
3 96 104 103
3 102 97 103
3 90 105 104
3 102 98 97
3 99 98 101
3 101 100 99
3 98 102 101
3 89 106 105
3 59 58 60
3 57 25 58
3 289 70 69
3 282 265 72
3 289 282 70
3 60 58 269
3 63 275 64
3 275 63 285
3 67 66 68
3 68 66 289
3 270 65 64
3 173 172 275
3 24 269 58
3 289 274 282
3 73 72 265
3 78 265 281
3 265 78 77
3 81 80 276
3 83 111 110
3 79 78 276
3 82 112 111
3 119 118 281
3 77 74 73
3 276 281 116
3 281 120 119
3 276 78 281
3 276 112 81
3 112 276 113
3 113 276 114
3 114 276 115
3 265 120 281
3 282 71 70
3 275 270 64
3 255 254 253
3 264 250 249
3 248 264 249
3 264 247 246
3 271 245 244
3 271 263 264
3 271 264 246
3 243 242 273
3 273 241 268
3 241 240 239
3 273 242 241
3 268 239 238
3 236 235 266
3 268 266 283
3 241 239 268
3 283 266 174
3 266 176 175
3 177 176 266
3 234 178 266
3 266 178 177
3 283 174 173
3 284 172 171
3 283 285 262
3 266 235 234
3 179 234 233
3 232 231 181
3 180 233 232
3 179 233 180
3 181 180 232
3 182 181 231
3 230 267 231
3 234 179 178
3 284 171 170
3 222 221 218
3 221 219 218
3 219 221 220
3 223 222 217
3 216 224 223
3 226 225 214
3 215 225 224
3 222 218 217
3 216 215 224
3 217 216 223
3 226 214 277
3 277 212 211
3 277 214 213
3 215 214 225
3 277 211 210
3 182 231 267
3 278 286 203
3 227 277 228
3 207 272 208
3 184 278 185
3 184 183 278
3 201 200 278
3 278 199 198
3 226 277 227
3 272 207 206
3 208 272 277
3 206 205 286
3 273 262 21
3 205 204 286
3 267 183 182
3 203 202 278
3 206 286 272
3 273 21 271
3 208 277 209
3 277 210 209
3 169 168 270
3 270 284 169
3 270 168 274
3 163 279 164
3 165 287 166
3 165 164 287
3 287 120 274
3 284 170 169
3 163 162 279
3 160 288 162
3 279 288 122
3 161 160 162
3 158 280 159
3 160 280 288
3 287 164 279
3 158 156 280
3 124 123 288
3 280 160 159
3 288 280 125
3 153 129 128
3 129 152 130
3 128 127 154
3 126 155 127
3 154 127 155
3 130 152 131
3 153 128 154
3 132 131 151
3 150 133 132
3 133 149 134
3 134 148 135
3 153 152 129
3 126 280 155
3 156 155 280
3 158 157 156
3 194 189 188
3 187 195 188
3 194 190 189
3 192 190 193
3 190 192 191
3 193 190 194
3 196 187 186
3 186 185 197
3 197 185 198
3 278 198 185
3 196 195 187
3 194 188 195
3 197 196 186
3 151 150 132
3 149 133 150
3 134 149 148
3 140 137 136
3 137 139 138
3 147 136 135
3 148 147 135
3 131 152 151
3 147 146 140
3 145 144 142
3 146 145 141
3 139 137 140
3 145 142 141
3 141 140 146
3 143 142 144
3 140 136 147
3 260 259 261
3 199 278 200
3 258 261 259
3 247 264 248
3 13 264 263
3 73 265 77
3 72 71 282
3 174 266 175
3 237 236 266
3 272 230 229
3 204 203 286
3 238 237 268
3 266 268 237
3 22 262 269
3 283 262 268
3 168 167 274
3 66 65 270
3 271 244 243
3 20 263 271
3 230 272 267
3 228 272 229
3 262 273 268
3 243 273 271
3 287 167 166
3 282 120 265
3 62 285 63
3 62 61 285
3 79 276 80
3 116 115 276
3 277 272 228
3 213 212 277
3 267 278 183
3 202 201 278
3 122 121 279
3 279 121 120
3 126 125 280
3 288 125 124
3 118 117 281
3 281 117 116
3 289 69 68
3 120 282 274
3 173 275 283
3 283 275 285
3 270 275 284
3 172 284 275
3 61 269 285
3 262 285 269
3 278 267 286
3 272 286 267
3 120 287 279
3 167 287 274
3 122 288 123
3 288 279 162
3 274 289 270
3 66 270 289
