ply
format ascii 1.0
element vertex 290
property float x
property float y
property float z
property float u
property float v
element face 317
property list uchar int vertex_indices
end_header
-4.69093 -339.776 0 147.636 8.36396
-13.2493 -329.828 0 139.979 19.0208
-14.465 -315.702 0 140 33.201
-11.9817 -301.955 0 143.678 46.6777
-0.108579 -297.577 0 155.887 50
6.055 -309.312 0 161 37.7695
12.0517 -308.985 0 167 37.5736
18.021 -296.905 0 174 49.0883
22.6171 -283.824 0 179.719 61.7193
34.9674 -287.48 0 191.704 57
40.4066 -277.337 0 198 66.6324
44.2674 -264.022 0 203 79.5613
36.8232 -256.433 0 196.239 87.7609
25.8449 -248.343 0 186 96.7624
15.1882 -240.086 0 176.097 105.903
5.28111 -230.836 0 167.026 115.974
9.01861 -218.637 0 171.803 127.803
8.41787 -209.388 0 172 137.064
13.3662 -196.982 0 177.995 148.995
19.3763 -184.343 0 185.066 161.066
29.3585 -174.662 0 195.844 169.844
36.0405 -162.203 0 203.622 181.622
31.1621 -157.028 0 199.605 187
17.6124 -161.808 0 186.185 183.185
4.09324 -167.052 0 172.919 179
-10.1243 -172.118 0 159.407 175.407
-24.7776 -175.316 0 145.818 174
-37.4308 -184.311 0 134 166.718
-41.6962 -199.079 0 130.265 153.265
-46.3866 -213.543 0 126 140.032
-51.8242 -227.723 0 121 127.103
-56.378 -242.155 0 116.83 113.83
-62.1942 -255.646 0 111 101.245
-68.3336 -268.995 0 104.809 88.8092
-75.9425 -281.697 0 97.031 77.031
-82.2812 -294.243 0 90 64.9434
-85.9418 -302.591 0 85.8385 56.8385
-94.6728 -304.641 0 77 55.3289
-91.9609 -291.304 0 80.5247 68.4753
-89.8972 -284.809 0 83 74.8438
-103.329 -281.384 0 69.8678 79.1322
-112.447 -289.089 0 60.2982 72
-121.777 -296.119 0 50.554 65.554
-123.844 -287.81 0 49 73.9741
-118.549 -276.121 0 55 85.3173
-110.946 -264.659 0 63.2955 96.2955
-98.698 -258.207 0 75.9327 102
-87.6416 -249.1 0 86 109.276
-85.164 -233.722 0 88 123.448
-82.3337 -218.615 0 90.4379 137.438
-80.3668 -204.046 0 92 150.963
-78.0464 -188.843 0 94 165.134
-75.2044 -174.382 0 97 178.892
-71.6111 -160.462 0 101 192.235
-66.9641 -147.07 0 106.116 205.116
-60.3785 -134.792 0 113.265 217
-53.0099 -137.948 0 120.43 213.43
-39.5897 -130.567 0 133.087 219.087
-26.8469 -122.82 0 145 225.052
-23.2191 -115.436 0 148.809 232
-10.3731 -110.873 0 161.694 235.694
-2.18867 -101.399 0 170 244.081
-1.63106 -87.0803 0 171 257.839
-1.09857 -72.0721 0 172 272.425
1.60691 -57.7155 0 175 286.182
-3.78437 -44.7831 0 169.921 299.079
-9.07226 -31.9344 0 165 312.04
-21.1507 -28.3091 0 153.031 316
-27.5179 -16.0055 0 147 328.484
-34.8418 -4.72534 0 140.001 339.999
-43.6125 6.40134 0 131.516 351.484
-51.6986 17.8159 0 123.737 363.263
-59.1051 29.4332 0 116.666 375.334
-68.0273 40.4477 0 108.181 386.819
-76.8668 51.6996 0 99.6956 398.304
-87.0783 62.1807 0 89.7115 409
-80.7072 68.3137 0 96.2175 415
-67.4803 72.5785 0 109.561 419
-64.3909 82.6991 0 113 429.49
-68.8221 95.5128 0 109 442.833
-71.1989 109.415 0 107 457.005
-74.4067 122.602 0 104 470.762
-85.2341 130.637 0 92.9758 480.024
-95.6945 139.148 0 82.0762 489.924
-106.941 145.518 0 70.298 497.702
-116.664 154.363 0 60.1059 507.894
-125.424 164.279 0 50.9132 519.087
-133.584 173.765 0 42.5491 529.451
-139.784 185.304 0 36.1849 541.815
-146.515 196.168 0 29 553.839
-153.263 206.454 0 21.7498 565.25
-160.823 217.519 0 13.9716 577.028
-168.269 228.692 0 6.60748 588.393
-172.001 242.129 0 3 601.898
-169.443 252.25 0 5.65576 612
-156.868 246.368 0 18.1705 606
-144.732 253.692 0 29.8989 613.899
-133.782 263.147 0 41.129 623
-122.666 272.338 0 52.4011 632
-110.527 279.183 0 64.6477 638.648
-101.243 279.622 0 73.938 638.938
-109.136 268.424 0 65.8669 627.867
-115.81 256.162 0 59 615.711
-120.793 243.263 0 53.8459 602.846
-125.928 230.843 0 49 589.853
-122.249 222.297 0 53.4191 580
-111.819 214.188 0 64.4886 570.511
-101.426 206.168 0 75.5491 561
-91.0386 198.085 0 86.5804 551.42
-80.685 189.597 0 97.4802 541.52
-70.166 181.5 0 108.537 532
-59.6588 173.369 0 119.572 522.428
-48.2502 167.825 0 131.643 515.357
-35.6998 163.924 0 144.593 510.407
-24.1587 156.68 0 156 502.475
-16.7554 145.027 0 163 490.374
-9.01702 133.681 0 170.514 478.486
0.636182 123.302 0 180 467.416
9.30916 112.256 0 188.191 455.809
16.9217 100.712 0 195.262 443.738
27.7673 92.8622 0 206.057 435
37.7924 103.471 0 216.526 444.526
48.4723 113.91 0 227.602 454
59.315 123.737 0 238.911 462.911
70.4926 132.722 0 250.56 471
81.8146 141.977 0 262.174 479.174
93.9231 150.546 0 274.245 486.245
99.4372 164.635 0 280 498.862
103.169 179.674 0 284 512.205
106.882 194.695 0 288 525.548
111.441 208.848 0 293 538.477
117.017 222.655 0 298.995 550.995
124.57 236.338 0 306.773 562.773
132.122 250.06 0 314.551 574.551
141.099 263.286 0 323.743 585.743
149.309 276.743 0 332.229 597.229
158.084 289.578 0 341.421 608.421
167.022 301.043 0 351 618.867
176.799 309.921 0 361.382 627
182.631 305.347 0 366.861 622
183.777 294.322 0 367.169 610.831
197.982 293.142 0 380.582 607
211.845 290.865 0 394.339 604
224.277 284.363 0 406.311 596.689
222.597 275.531 0 404.046 588
208.094 273.5 0 389.46 587
193.37 270.754 0 374.874 586
180.196 265.427 0 361.961 583.039
174.373 252.781 0 356 572.431
170.681 237.644 0 352 559.088
167.515 222.344 0 348.527 545.527
163.257 207.417 0 344 532.403
158.461 192.528 0 339 519.474
154.78 177.253 0 335.093 506.093
150.945 162.181 0 331 492.789
150.219 146.756 0 330 479.032
151.844 131.341 0 331 464.446
157.335 119.686 0 336 452.689
148.237 111.074 0 326.538 444.538
139.557 99.1939 0 317.345 433.345
129.482 88.7056 0 306.86 423.86
133.834 83.1622 0 311 418.459
126.269 71.471 0 303 407.358
118.459 58.8601 0 294.768 395.768
111.086 46.2511 0 286.99 383.99
102.932 34.0547 0 278.505 372.505
94.8064 22.1078 0 270 361.027
86.1029 10.1954 0 261 349.755
81.0966 -2.1834 0 255.998 338
84.0226 -13.7025 0 259 326.483
88.3299 -26.7888 0 263 313.141
91.8395 -40.293 0 266 299.384
95.2649 -53.77 0 269 285.626
99.3718 -66.5676 0 273 272.284
110.71 -73.1559 0 284.578 264.422
123.339 -75.3342 0 297.331 261
137.586 -73.0137 0 311.917 262
147.807 -75.8239 0 322 258.155
157.481 -82.7962 0 331.188 250
170.18 -78.9026 0 344.531 252
184.518 -77.6541 0 359.117 251
198.857 -76.2965 0 373.703 250
212.911 -75.9729 0 387.874 248
214.058 -62.9987 0 391 260.459
211.817 -48.11 0 391 275.459
208.679 -33.8172 0 390 290.047
206.48 -18.9832 0 390 305.044
203.35 -4.69709 0 389 319.633
201.156 10.141 0 389 334.633
198.028 24.4213 0 388 349.217
195.835 39.2607 0 388 364.217
194.824 53.0255 0 389.018 377.982
200.005 52.0618 0 394 376.269
199.773 39.9679 0 392 364.34
203.824 26.2415 0 394 350.169
211.164 14.4837 0 399.537 337.463
221.896 4.75852 0 408.73 326.27
234.557 -1.72536 0 420.304 318
247.663 -6.43501 0 432.579 311.421
260.633 -11.6605 0 444.649 304.351
273.419 -17.6233 0 456.428 296.572
282.559 -27.6595 0 464 285.295
289.395 -39.6954 0 469 272.366
293.427 -53.3638 0 471 258.194
296.528 -67.5828 0 472 243.608
298.607 -81.5869 0 472 229.438
301.169 -94.4614 0 472.64 216.36
303.852 -108.38 0 473.238 202.238
303.791 -121.072 0 471.297 189.703
306.669 -135.507 0 471.996 174.996
305.931 -149.601 0 469.168 161.168
301.479 -162.776 0 462.804 148.804
291.732 -172.407 0 451.733 140.733
280.657 -180.883 0 439.522 134
269.734 -189.605 0 427.422 127
260.215 -199.613 0 416.52 118.52
253.535 -212.23 0 408.035 107.035
251.313 -225.959 0 403.792 93.7925
252.585 -239.766 0 403 79.9492
256.336 -251.264 0 405 68.0205
253.164 -258.61 0 400.772 61.2279
247.438 -245.882 0 397 74.6653
244.28 -231.606 0 396 89.2529
242.05 -216.775 0 396 104.253
238.887 -202.504 0 395 118.836
236.655 -187.67 0 395 133.837
234.422 -172.837 0 395 148.837
231.264 -158.561 0 394 163.422
229.031 -143.724 0 394 178.422
225.872 -129.459 0 393 193.009
223.636 -114.673 0 393 208.01
214.407 -108.334 0 384.873 215.873
200.008 -111.705 0 370.234 215
185.65 -115.066 0 355.649 214
171.254 -118.344 0 341.063 213
163.599 -126.455 0 332.72 206
149.025 -129.07 0 318.135 205
137.666 -136.776 0 306.439 198.439
131.463 -149.41 0 299.367 186.367
127.572 -161.143 0 294.581 175
133.954 -168.584 0 300.319 167
121.51 -169.82 0 287.862 166.862
118.637 -182.632 0 284 154.29
112.78 -195.317 0 277.134 142.134
106.68 -207.906 0 270 130.09
101.865 -219.214 0 264.235 119.235
97.4937 -230.998 0 258.871 107.871
90.5592 -242.203 0 251 97.303
83.3169 -254.446 0 242.729 85.7291
74.042 -265.481 0 232.536 75.5365
60.4591 -268.909 0 218.708 73.2917
49.1282 -273.146 0 207.052 70.0515
43.1477 -285.789 0 200 57.9727
49.7092 -295.224 0 205.713 48
55.854 -304.779 0 211 37.9436
54.2249 -309.111 0 209 33.7725
50.0825 -319.272 0 203.989 24.0107
43.9604 -328.793 0 197.061 15.061
35.2065 -335.643 0 187.744 9
23.2061 -341.428 0 175.283 4.28345
7.27262 -346.119 0 159 1
10.0631 -327.604 0 163.397 19.2
53.22 -142.41 0 222.418 199.851
33.9265 -212.374 0 197.158 131.895
59.4804 -241.648 0 220.087 100.537
-25.0364 65.8656 0 151.861 410.94
134.852 -102.514 0 306.586 232.878
233.743 -90.8798 0 406.468 230.06
92.7024 -143.511 0 261.32 195.618
17.6084 -127.391 0 188.497 217.457
38.4292 -21.553 0 212.946 320.627
69.6031 -198.838 0 233.86 142.326
265.018 -114.56 0 433.92 201.91
94.0906 -170.663 0 260.625 168.349
47.0738 17.8056 0 222.394 359.242
48.9763 -73.2692 0 221.899 268.749
-41.8746 124.058 0 136.779 470.704
276.134 -146.873 0 440.11 168.305
250.659 -49.9289 0 429.173 267.959
74.8207 75.5406 0 251.883 414.403
110.254 118.905 0 288.938 454.209
-10.2748 90.7679 0 167.384 435.514
-19.5888 31.7439 0 156.203 376.245
84.994 -104.193 0 256.529 235.57
61.353 -41.3063 0 235.437 299.924
27.2595 -94.8383 0 199.546 248.849
265.547 -79.3313 0 439.635 236.523
74.6818 44.6446 0 250.681 384.232
82.9719 105.598 0 261.248 443.175
-7.04061 5.30219 0 168.09 349.187
3 42 41 43
3 38 37 36
3 43 41 44
3 40 46 45
3 40 45 44
3 41 40 44
3 5 3 2
3 1 261 2
3 39 35 34
3 39 38 35
3 39 34 46
3 46 40 39
3 35 38 36
3 33 46 34
3 46 33 47
3 30 49 48
3 50 49 29
3 27 52 51
3 27 53 52
3 28 51 50
3 31 48 47
3 31 30 48
3 28 50 29
3 30 29 49
3 54 56 55
3 54 53 56
3 56 53 27
3 28 27 51
3 56 27 26
3 31 47 32
3 33 32 47
3 0 260 261
3 7 6 256
3 6 5 261
3 264 13 12
3 2 261 5
3 4 3 5
3 9 8 7
3 6 261 258
3 257 256 6
3 256 253 7
3 253 256 255
3 10 9 252
3 10 252 251
3 253 252 9
3 7 253 9
3 257 6 258
3 16 15 14
3 16 14 263
3 263 17 16
3 57 26 25
3 58 25 24
3 14 13 263
3 17 263 18
3 264 11 250
3 11 264 12
3 21 20 271
3 61 60 269
3 263 19 18
3 23 269 24
3 250 11 251
3 19 263 20
3 10 251 11
3 56 26 57
3 22 21 262
3 0 261 1
3 246 245 271
3 23 22 269
3 107 87 86
3 107 86 108
3 86 85 108
3 105 90 89
3 89 88 106
3 107 88 87
3 107 106 88
3 85 84 109
3 76 75 74
3 77 76 74
3 110 109 84
3 85 109 108
3 84 83 110
3 82 111 83
3 82 81 112
3 95 93 92
3 92 91 95
3 91 90 104
3 104 95 91
3 95 94 93
3 103 97 96
3 95 104 96
3 96 104 103
3 102 97 103
3 90 105 104
3 102 98 97
3 99 98 101
3 101 100 99
3 98 102 101
3 89 106 105
3 59 58 60
3 57 25 58
3 289 70 69
3 282 265 72
3 289 282 70
3 60 58 269
3 63 275 64
3 275 63 285
3 67 66 68
3 68 66 289
3 270 65 64
3 173 172 275
3 24 269 58
3 289 274 282
3 73 72 265
3 78 265 281
3 265 78 77
3 81 80 276
3 83 111 110
3 79 78 276
3 82 112 111
3 119 118 281
3 77 74 73
3 276 281 116
3 281 120 119
3 276 78 281
3 276 112 81
3 112 276 113
3 113 276 114
3 114 276 115
3 265 120 281
3 282 71 70
3 275 270 64
3 255 254 253
3 264 250 249
3 248 264 249
3 264 247 246
3 271 245 244
3 271 263 264
3 271 264 246
3 243 242 273
3 273 241 268
3 241 240 239
3 273 242 241
3 268 239 238
3 236 235 266
3 268 266 283
3 241 239 268
3 283 266 174
3 266 176 175
3 177 176 266
3 234 178 266
3 266 178 177
3 283 174 173
3 284 172 171
3 283 285 262
3 266 235 234
3 179 234 233
3 232 231 181
3 180 233 232
3 179 233 180
3 181 180 232
3 182 181 231
3 230 267 231
3 234 179 178
3 284 171 170
3 222 221 218
3 221 219 218
3 219 221 220
3 223 222 217
3 216 224 223
3 226 225 214
3 215 225 224
3 222 218 217
3 216 215 224
3 217 216 223
3 226 214 277
3 277 212 211
3 277 214 213
3 215 214 225
3 277 211 210
3 182 231 267
3 278 286 203
3 227 277 228
3 207 272 208
3 184 278 185
3 184 183 278
3 201 200 278
3 278 199 198
3 226 277 227
3 272 207 206
3 208 272 277
3 206 205 286
3 273 262 21
3 205 204 286
3 267 183 182
3 203 202 278
3 206 286 272
3 273 21 271
3 208 277 209
3 277 210 209
3 169 168 270
3 270 284 169
3 270 168 274
3 163 279 164
3 165 287 166
3 165 164 287
3 287 120 274
3 284 170 169
3 163 162 279
3 160 288 162
3 279 288 122
3 161 160 162
3 158 280 159
3 160 280 288
3 287 164 279
3 158 156 280
3 124 123 288
3 280 160 159
3 288 280 125
3 153 129 128
3 129 152 130
3 128 127 154
3 126 155 127
3 154 127 155
3 130 152 131
3 153 128 154
3 132 131 151
3 150 133 132
3 133 149 134
3 134 148 135
3 153 152 129
3 126 280 155
3 156 155 280
3 158 157 156
3 194 189 188
3 187 195 188
3 194 190 189
3 192 190 193
3 190 192 191
3 193 190 194
3 196 187 186
3 186 185 197
3 197 185 198
3 278 198 185
3 196 195 187
3 194 188 195
3 197 196 186
3 151 150 132
3 149 133 150
3 134 149 148
3 140 137 136
3 137 139 138
3 147 136 135
3 148 147 135
3 131 152 151
3 147 146 140
3 145 144 142
3 146 145 141
3 139 137 140
3 145 142 141
3 141 140 146
3 143 142 144
3 140 136 147
3 260 259 261
3 199 278 200
3 258 261 259
3 247 264 248
3 13 264 263
3 73 265 77
3 72 71 282
3 174 266 175
3 237 236 266
3 272 230 229
3 204 203 286
3 238 237 268
3 266 268 237
3 22 262 269
3 283 262 268
3 168 167 274
3 66 65 270
3 271 244 243
3 20 263 271
3 230 272 267
3 228 272 229
3 262 273 268
3 243 273 271
3 287 167 166
3 282 120 265
3 62 285 63
3 62 61 285
3 79 276 80
3 116 115 276
3 277 272 228
3 213 212 277
3 267 278 183
3 202 201 278
3 122 121 279
3 279 121 120
3 126 125 280
3 288 125 124
3 118 117 281
3 281 117 116
3 289 69 68
3 120 282 274
3 173 275 283
3 283 275 285
3 270 275 284
3 172 284 275
3 61 269 285
3 262 285 269
3 278 267 286
3 272 286 267
3 120 287 279
3 167 287 274
3 122 288 123
3 288 279 162
3 274 289 270
3 66 270 289
