ply
format ascii 1.0
element vertex 290
property float x
property float y
property float z
property float u
property float v
element face 317
property list uchar int vertex_indices
end_header
1.87304 -345.064 0 147.636 8.36396
-6.80656 -335.221 0 139.979 19.0208
-8.19524 -321.111 0 140 33.201
-5.88065 -307.335 0 143.678 46.6777
5.93793 -302.812 0 155.887 50
12.2449 -314.471 0 161 37.7695
18.2372 -314.071 0 167 37.5736
24.058 -301.918 0 174 49.0883
28.4935 -288.782 0 179.719 61.7193
40.8876 -292.286 0 191.704 57
46.2023 -282.077 0 198 66.6324
49.9 -268.716 0 203 79.5613
42.3637 -261.218 0 196.239 87.7609
31.2875 -253.262 0 186 96.7624
20.5311 -245.135 0 176.097 105.903
10.5118 -236.006 0 167.026 115.974
14.1002 -223.763 0 171.803 127.803
13.3868 -214.522 0 172 137.064
18.1836 -202.056 0 177.995 148.995
24.0396 -189.344 0 185.066 161.066
33.9041 -179.54 0 195.844 169.844
40.4374 -166.989 0 203.622 181.622
35.4985 -161.832 0 199.605 187
22.0057 -166.742 0 186.185 183.185
8.53232 -172.13 0 172.919 179
-5.65068 -177.369 0 159.407 175.407
-20.2993 -180.772 0 145.818 174
-32.8879 -189.949 0 134 166.718
-37.0163 -204.811 0 130.265 153.265
-41.5671 -219.371 0 126 140.032
-46.8649 -233.654 0 121 127.103
-51.2701 -248.177 0 116.83 113.83
-56.9304 -261.763 0 111 101.245
-62.9109 -275.213 0 104.809 88.8092
-70.3619 -288.037 0 97.031 77.031
-76.5293 -300.672 0 90 64.9434
-80.075 -309.069 0 85.8385 56.8385
-88.777 -311.239 0 77 55.3289
-86.2488 -297.866 0 80.5247 68.4753
-84.2751 -291.344 0 83 74.8438
-97.7546 -288.106 0 69.8678 79.1322
-106.765 -295.935 0 60.2982 72
-115.998 -303.094 0 50.554 65.554
-118.18 -294.813 0 49 73.9741
-113.046 -283.053 0 55 85.3173
-105.601 -271.487 0 63.2955 96.2955
-93.4436 -264.868 0 75.9327 102
-82.4641 -255.556 0 86 109.276
-80.145 -240.095 0 88 123.448
-77.4673 -224.906 0 90.4379 137.438
-75.6425 -210.267 0 92 150.963
-73.4701 -194.992 0 94 165.134
-70.779 -180.467 0 97 178.892
-67.3353 -166.48 0 101 192.235
-62.8274 -153.021 0 106.116 205.116
-56.3689 -140.671 0 113.265 217
-48.9683 -143.747 0 120.43 213.43
-35.5956 -136.169 0 133.087 219.087
-22.8994 -128.228 0 145 225.052
-19.3351 -120.788 0 148.809 232
-6.52657 -116.084 0 161.694 235.694
1.59454 -106.465 0 170 244.081
2.06643 -92.0792 0 171 257.839
2.52787 -77.0194 0 172 272.425
5.20812 -62.5952 0 175 286.182
-0.209736 -49.6692 0 169.921 299.079
-5.53534 -36.8391 0 165 312.04
-17.6247 -33.2581 0 153.031 316
-24.0331 -20.9788 0 147 328.484
-31.393 -9.72577 0 140.001 339.999
-40.1919 1.35865 0 131.516 351.484
-48.3066 12.7336 0 123.737 363.263
-55.7436 24.3025 0 116.666 375.334
-64.707 35.2745 0 108.181 386.819
-73.574 46.5108 0 99.6956 398.304
-83.8012 56.9769 0 89.7115 409
-77.4397 63.119 0 96.2175 415
-64.2219 67.4023 0 109.561 419
-61.1472 77.481 0 113 429.49
-65.5905 90.2472 0 109 442.833
-67.9726 104.133 0 107 457.005
-71.1458 117.27 0 104 470.762
-81.8686 125.19 0 92.9758 480.024
-92.1688 133.556 0 82.0762 489.924
-103.25 139.786 0 70.298 497.702
-112.798 148.494 0 60.1059 507.894
-121.378 158.278 0 50.9132 519.087
-129.411 167.693 0 42.5491 529.451
-135.473 179.155 0 36.1849 541.815
-142.006 189.897 0 29 553.839
-148.548 200.071 0 21.7498 565.25
-155.954 211.096 0 13.9716 577.028
-163.309 222.305 0 6.60748 588.393
-166.944 235.763 0 3 601.898
-164.315 245.866 0 5.65576 612
-151.781 239.896 0 18.1705 606
-139.478 247.031 0 29.8989 613.899
-128.494 256.441 0 41.129 623
-117.319 265.561 0 52.4011 632
-105.136 272.326 0 64.6477 638.648
-95.8487 272.704 0 73.938 638.938
-103.816 261.558 0 65.8669 627.867
-110.57 249.34 0 59 615.711
-115.646 236.482 0 53.8459 602.846
-120.967 224.199 0 49 589.853
-117.53 215.827 0 53.4191 580
-107.318 207.852 0 64.4886 570.511
-97.1472 199.988 0 75.5491 561
-86.9753 192.065 0 86.5804 551.42
-76.8193 183.727 0 97.4802 541.52
-66.4915 175.784 0 108.537 532
-56.1725 167.815 0 119.572 522.428
-44.9582 162.447 0 131.643 515.357
-32.5209 158.648 0 144.593 510.407
-21.0135 151.456 0 156 502.475
-13.6202 139.847 0 163 490.374
-5.91693 128.573 0 170.514 478.486
3.70581 118.278 0 180 467.416
12.4 107.3 0 188.191 455.809
20.0448 95.829 0 195.262 443.738
30.8492 88.1099 0 206.057 435
40.7945 98.8326 0 216.526 444.526
51.4046 109.374 0 227.602 454
62.1684 119.303 0 238.911 462.911
73.2649 128.398 0 250.56 471
84.5233 137.785 0 262.174 479.174
96.6037 146.531 0 274.245 486.245
102.045 160.779 0 280 498.862
105.697 175.998 0 284 512.205
109.327 191.199 0 288 525.548
113.784 205.49 0 293 538.477
119.261 219.447 0 298.995 550.995
126.736 233.352 0 306.773 562.773
134.207 247.302 0 314.551 574.551
143.104 260.772 0 323.743 585.743
151.224 274.465 0 332.229 597.229
159.891 287.507 0 341.421 608.421
168.699 299.12 0 351 618.867
178.361 308.125 0 361.382 627
184.252 303.628 0 366.861 622
185.545 292.629 0 367.169 610.831
199.844 291.801 0 380.582 607
213.725 289.679 0 394.339 604
226.238 283.335 0 406.311 596.689
224.67 274.481 0 404.046 588
210.191 272.26 0 389.46 587
195.467 269.251 0 374.874 586
182.286 263.608 0 361.961 583.039
176.531 250.723 0 356 572.431
172.935 235.384 0 352 559.088
169.861 219.89 0 348.527 545.527
165.688 204.76 0 344 532.403
160.968 189.649 0 339 519.474
157.364 174.163 0 335.093 506.093
153.608 158.893 0 331 492.789
152.959 143.291 0 330 479.032
154.697 127.785 0 331 464.446
160.274 116.154 0 336 452.689
151.239 107.466 0 326.538 444.538
142.643 95.4806 0 317.345 433.345
132.63 84.8508 0 306.86 423.86
137.013 79.2955 0 311 418.459
129.512 67.5249 0 303 407.358
121.761 54.7838 0 294.768 395.768
114.438 42.0688 0 286.99 383.99
106.322 29.7834 0 278.505 372.505
98.2382 17.7773 0 270 361.027
89.5582 5.79343 0 261 349.755
84.5286 -6.637 0 255.998 338
87.4278 -18.1281 0 259 326.483
91.764 -31.1703 0 263 313.141
95.3281 -44.6345 0 266 299.384
98.7964 -58.0567 0 269 285.626
102.897 -70.7477 0 273 272.284
114.161 -77.1471 0 284.578 264.422
126.743 -79.1599 0 297.331 261
140.931 -76.6808 0 311.917 262
151.146 -79.3656 0 322 258.155
160.809 -86.1884 0 331.188 250
173.281 -82.0646 0 344.531 252
187.401 -80.5435 0 359.117 251
201.522 -78.9017 0 373.703 250
215.404 -78.2974 0 387.874 248
216.237 -65.2763 0 391 260.459
213.707 -50.4206 0 391 275.459
210.312 -36.1834 0 390 290.047
207.853 -21.3902 0 390 305.044
204.475 -7.16102 0 389 319.633
202.021 7.63637 0 389 334.633
198.643 21.8597 0 388 349.217
196.192 36.6585 0 388 364.217
194.94 50.4035 0 389.018 377.982
200.137 49.5305 0 394 376.269
200.116 37.4345 0 392 364.34
204.407 23.7811 0 394 350.169
211.952 12.1535 0 399.537 337.463
222.852 2.61751 0 408.73 326.27
235.625 -3.64388 0 420.304 318
248.809 -8.12376 0 432.579 311.421
261.866 -13.1212 0 444.649 304.351
274.754 -18.8584 0 456.428 296.572
284.067 -28.7314 0 464 285.295
291.107 -40.6424 0 469 272.366
295.357 -54.2291 0 471 258.194
298.688 -68.3811 0 472 243.608
301.014 -82.343 0 472 229.438
303.822 -95.1726 0 472.64 216.36
306.773 -109.045 0 473.238 202.238
306.945 -121.737 0 471.297 189.703
310.083 -136.116 0 471.996 174.996
309.601 -150.221 0 469.168 161.168
305.387 -163.474 0 462.804 148.804
295.816 -173.28 0 451.733 140.733
284.896 -181.954 0 439.522 134
274.132 -190.872 0 427.422 127
264.796 -201.05 0 416.52 118.52
258.345 -213.786 0 408.035 107.035
256.372 -227.553 0 403.792 93.7925
257.894 -241.335 0 403 79.9492
261.852 -252.763 0 405 68.0205
258.813 -260.165 0 400.772 61.2279
252.858 -247.544 0 397 74.6653
249.443 -233.326 0 396 89.2529
246.945 -218.538 0 396 104.253
243.524 -204.327 0 395 118.836
241.024 -189.536 0 395 133.837
238.523 -174.745 0 395 148.837
235.108 -160.529 0 394 163.422
232.608 -145.734 0 394 178.422
229.2 -131.528 0 393 193.009
226.724 -116.79 0 393 208.01
217.478 -110.648 0 384.873 215.873
203.313 -114.322 0 370.234 215
189.178 -117.969 0 355.649 214
175.007 -121.525 0 341.063 213
167.535 -129.762 0 332.72 206
153.009 -132.575 0 318.135 205
141.742 -140.414 0 306.439 198.439
135.693 -153.103 0 299.367 186.367
131.943 -164.871 0 294.581 175
138.414 -172.228 0 300.319 167
125.986 -173.612 0 287.862 166.862
123.271 -186.441 0 284 154.29
117.569 -199.188 0 277.134 142.134
111.624 -211.845 0 270 130.09
106.947 -223.209 0 264.235 119.235
102.719 -235.045 0 258.871 107.871
95.922 -246.333 0 251 97.303
88.8298 -258.664 0 242.729 85.7291
79.6903 -269.811 0 232.536 75.5365
66.1503 -273.404 0 218.708 73.2917
54.8719 -277.779 0 207.052 70.0515
49.0465 -290.495 0 200 57.9727
55.7232 -299.848 0 205.713 48
61.9846 -309.328 0 211 37.9436
60.4088 -313.679 0 209 33.7725
56.3912 -323.89 0 203.989 24.0107
50.3862 -333.486 0 197.061 15.061
41.7169 -340.442 0 187.744 9
29.7882 -346.374 0 175.283 4.28345
13.9134 -351.259 0 159 1
16.4768 -332.713 0 163.397 19.2
57.385 -146.98 0 222.418 199.851
38.9299 -217.196 0 197.158 131.895
64.8387 -246.158 0 220.087 100.537
-21.7754 60.7945 0 151.861 410.94
138.509 -106.209 0 306.586 232.878
236.407 -92.8191 0 406.468 230.06
96.8664 -147.659 0 261.32 195.618
21.6153 -132.32 0 188.497 217.457
41.8941 -26.2215 0 212.946 320.627
74.4385 -203.228 0 233.86 142.326
268.062 -115.924 0 433.92 201.91
98.5804 -174.769 0 260.625 168.349
50.4748 13.1839 0 222.394 359.242
52.6205 -77.869 0 221.899 268.749
-38.6652 118.798 0 136.779 470.704
279.759 -148.031 0 440.11 168.305
252.565 -51.5588 0 429.173 267.959
78.0255 71.1902 0 251.883 414.403
113.202 114.995 0 288.938 454.209
-7.06172 85.6986 0 167.384 435.514
-16.2318 26.7529 0 156.203 376.245
88.779 -108.453 0 256.529 235.57
64.8569 -45.8323 0 235.437 299.924
31.0011 -99.639 0 199.546 248.849
267.91 -80.6728 0 439.635 236.523
78.0183 40.2254 0 250.681 384.232
85.9987 101.389 0 261.248 443.175
-3.62738 0.399563 0 168.09 349.187
3 42 41 43
3 38 37 36
3 43 41 44
3 40 46 45
3 40 45 44
3 41 40 44
3 5 3 2
3 1 261 2
3 39 35 34
3 39 38 35
3 39 34 46
3 46 40 39
3 35 38 36
3 33 46 34
3 46 33 47
3 30 49 48
3 50 49 29
3 27 52 51
3 27 53 52
3 28 51 50
3 31 48 47
3 31 30 48
3 28 50 29
3 30 29 49
3 54 56 55
3 54 53 56
3 56 53 27
3 28 27 51
3 56 27 26
3 31 47 32
3 33 32 47
3 0 260 261
3 7 6 256
3 6 5 261
3 264 13 12
3 2 261 5
3 4 3 5
3 9 8 7
3 6 261 258
3 257 256 6
3 256 253 7
3 253 256 255
3 10 9 252
3 10 252 251
3 253 252 9
3 7 253 9
3 257 6 258
3 16 15 14
3 16 14 263
3 263 17 16
3 57 26 25
3 58 25 24
3 14 13 263
3 17 263 18
3 264 11 250
3 11 264 12
3 21 20 271
3 61 60 269
3 263 19 18
3 23 269 24
3 250 11 251
3 19 263 20
3 10 251 11
3 56 26 57
3 22 21 262
3 0 261 1
3 246 245 271
3 23 22 269
3 107 87 86
3 107 86 108
3 86 85 108
3 105 90 89
3 89 88 106
3 107 88 87
3 107 106 88
3 85 84 109
3 76 75 74
3 77 76 74
3 110 109 84
3 85 109 108
3 84 83 110
3 82 111 83
3 82 81 112
3 95 93 92
3 92 91 95
3 91 90 104
3 104 95 91
3 95 94 93
3 103 97 96
3 95 104 96
3 96 104 103
3 102 97 103
3 90 105 104
3 102 98 97
3 99 98 101
3 101 100 99
3 98 102 101
3 89 106 105
3 59 58 60
3 57 25 58
3 289 70 69
3 282 265 72
3 289 282 70
3 60 58 269
3 63 275 64
3 275 63 285
3 67 66 68
3 68 66 289
3 270 65 64
3 173 172 275
3 24 269 58
3 289 274 282
3 73 72 265
3 78 265 281
3 265 78 77
3 81 80 276
3 83 111 110
3 79 78 276
3 82 112 111
3 119 118 281
3 77 74 73
3 276 281 116
3 281 120 119
3 276 78 281
3 276 112 81
3 112 276 113
3 113 276 114
3 114 276 115
3 265 120 281
3 282 71 70
3 275 270 64
3 255 254 253
3 264 250 249
3 248 264 249
3 264 247 246
3 271 245 244
3 271 263 264
3 271 264 246
3 243 242 273
3 273 241 268
3 241 240 239
3 273 242 241
3 268 239 238
3 236 235 266
3 268 266 283
3 241 239 268
3 283 266 174
3 266 176 175
3 177 176 266
3 234 178 266
3 266 178 177
3 283 174 173
3 284 172 171
3 283 285 262
3 266 235 234
3 179 234 233
3 232 231 181
3 180 233 232
3 179 233 180
3 181 180 232
3 182 181 231
3 230 267 231
3 234 179 178
3 284 171 170
3 222 221 218
3 221 219 218
3 219 221 220
3 223 222 217
3 216 224 223
3 226 225 214
3 215 225 224
3 222 218 217
3 216 215 224
3 217 216 223
3 226 214 277
3 277 212 211
3 277 214 213
3 215 214 225
3 277 211 210
3 182 231 267
3 278 286 203
3 227 277 228
3 207 272 208
3 184 278 185
3 184 183 278
3 201 200 278
3 278 199 198
3 226 277 227
3 272 207 206
3 208 272 277
3 206 205 286
3 273 262 21
3 205 204 286
3 267 183 182
3 203 202 278
3 206 286 272
3 273 21 271
3 208 277 209
3 277 210 209
3 169 168 270
3 270 284 169
3 270 168 274
3 163 279 164
3 165 287 166
3 165 164 287
3 287 120 274
3 284 170 169
3 163 162 279
3 160 288 162
3 279 288 122
3 161 160 162
3 158 280 159
3 160 280 288
3 287 164 279
3 158 156 280
3 124 123 288
3 280 160 159
3 288 280 125
3 153 129 128
3 129 152 130
3 128 127 154
3 126 155 127
3 154 127 155
3 130 152 131
3 153 128 154
3 132 131 151
3 150 133 132
3 133 149 134
3 134 148 135
3 153 152 129
3 126 280 155
3 156 155 280
3 158 157 156
3 194 189 188
3 187 195 188
3 194 190 189
3 192 190 193
3 190 192 191
3 193 190 194
3 196 187 186
3 186 185 197
3 197 185 198
3 278 198 185
3 196 195 187
3 194 188 195
3 197 196 186
3 151 150 132
3 149 133 150
3 134 149 148
3 140 137 136
3 137 139 138
3 147 136 135
3 148 147 135
3 131 152 151
3 147 146 140
3 145 144 142
3 146 145 141
3 139 137 140
3 145 142 141
3 141 140 146
3 143 142 144
3 140 136 147
3 260 259 261
3 199 278 200
3 258 261 259
3 247 264 248
3 13 264 263
3 73 265 77
3 72 71 282
3 174 266 175
3 237 236 266
3 272 230 229
3 204 203 286
3 238 237 268
3 266 268 237
3 22 262 269
3 283 262 268
3 168 167 274
3 66 65 270
3 271 244 243
3 20 263 271
3 230 272 267
3 228 272 229
3 262 273 268
3 243 273 271
3 287 167 166
3 282 120 265
3 62 285 63
3 62 61 285
3 79 276 80
3 116 115 276
3 277 272 228
3 213 212 277
3 267 278 183
3 202 201 278
3 122 121 279
3 279 121 120
3 126 125 280
3 288 125 124
3 118 117 281
3 281 117 116
3 289 69 68
3 120 282 274
3 173 275 283
3 283 275 285
3 270 275 284
3 172 284 275
3 61 269 285
3 262 285 269
3 278 267 286
3 272 286 267
3 120 287 279
3 167 287 274
3 122 288 123
3 288 279 162
3 274 289 270
3 66 270 289
