ply
format ascii 1.0
element vertex 290
property float x
property float y
property float z
property float u
property float v
element face 317
property list uchar int vertex_indices
end_header
58.115 -393.315 0 147.636 8.36396
47.9837 -384.975 0 139.979 19.0208
44.3732 -371.265 0 140 33.201
44.471 -357.297 0 143.678 46.6777
55.4219 -350.955 0 155.887 50
63.4998 -361.464 0 161 37.7695
69.3527 -360.118 0 167 37.5736
73.1706 -347.195 0 174 49.0883
75.4647 -333.521 0 179.719 61.7193
88.2577 -335.013 0 191.704 57
91.8859 -324.09 0 198 66.6324
93.418 -310.312 0 203 79.5613
84.7864 -304.099 0 196.239 87.7609
72.5842 -297.99 0 186 96.7624
60.6706 -291.661 0 176.097 105.903
49.3328 -284.23 0 167.026 115.974
50.9384 -271.572 0 171.803 127.803
48.7724 -262.556 0 172 137.064
51.5396 -249.485 0 177.995 148.995
55.3142 -236.001 0 185.066 161.066
63.4949 -224.745 0 195.844 169.844
67.8385 -211.225 0 203.622 181.622
61.3126 -206.669 0 199.605 187
47.7492 -213.39 0 186.185 183.185
34.0442 -220.802 0 172.919 179
18.9449 -228.921 0 159.407 175.407
2.83669 -235.839 0 145.818 174
-10.7877 -248.364 0 134 166.718
-15.4738 -265.805 0 130.265 153.265
-20.4268 -282.764 0 126 140.032
-26.147 -299.485 0 121 127.103
-30.9042 -316.277 0 116.83 113.83
-36.3113 -331.565 0 111 101.245
-41.9787 -346.713 0 104.809 88.8092
-48.9302 -361.21 0 97.031 77.031
-53.7985 -374.539 0 90 64.9434
-56.4242 -383.278 0 85.8385 56.8385
-64.8427 -386.376 0 77 55.3289
-63.774 -372.809 0 80.5247 68.4753
-62.5432 -366.14 0 83 74.8438
-76.3946 -364.479 0 69.8678 79.1322
-84.5093 -373.237 0 60.2982 72
-92.9152 -381.35 0 50.554 65.554
-95.9781 -373.355 0 49 73.9741
-92.1444 -361.109 0 55 85.3173
-85.9991 -348.815 0 63.2955 96.2955
-74.6547 -340.949 0 75.9327 102
-62.3856 -328.075 0 86 109.276
-59.5735 -310.258 0 88 123.448
-56.5336 -292.886 0 90.4379 137.438
-54.3099 -276.186 0 92 150.963
-51.8816 -258.894 0 94 165.134
-49.6793 -243.075 0 97 178.892
-47.1167 -228.095 0 101 192.235
-43.5886 -213.772 0 106.116 205.116
-38.2384 -200.779 0 113.265 217
-30.5306 -203.06 0 120.43 213.43
-16.2239 -192.15 0 133.087 219.087
-2.505 -180.757 0 145 225.052
0.606805 -172.548 0 148.809 232
13.168 -166.246 0 161.694 235.694
20.774 -154.659 0 170 244.081
20.2606 -139.286 0 171 257.839
19.7496 -123.461 0 172 272.425
21.7941 -107.853 0 175 286.182
15.8389 -94.7802 0 169.921 299.079
9.92497 -82.1002 0 165 312.04
-2.31631 -79.0871 0 153.031 316
-9.27706 -67.127 0 147 328.484
-17.1441 -56.2674 0 140.001 339.999
-26.3426 -45.8038 0 131.516 351.484
-34.8923 -35.0762 0 123.737 363.263
-42.796 -24.367 0 116.666 375.334
-52.4434 -14.3134 0 108.181 386.819
-61.8902 -3.49213 0 99.6956 398.304
-72.4605 6.63326 0 89.7115 409
-66.3117 12.97 0 96.2175 415
-53.2975 17.644 0 109.561 419
-50.7684 26.8548 0 113 429.49
-55.9498 38.5001 0 109 442.833
-58.952 51.8121 0 107 457.005
-62.3975 63.7541 0 104 470.762
-72.6565 69.29 0 92.9758 480.024
-81.9516 75.0202 0 82.0762 489.924
-91.8583 78.6013 0 70.298 497.702
-100.34 84.7827 0 60.1059 507.894
-107.914 92.1852 0 50.9132 519.087
-115.413 99.9995 0 42.5491 529.451
-120.986 109.946 0 36.1849 541.815
-126.436 118.59 0 29 553.839
-131.766 126.793 0 21.7498 565.25
-138.512 136.697 0 13.9716 577.028
-145.746 147.798 0 6.60748 588.393
-149.226 161.247 0 3 601.898
-146.48 171.308 0 5.65576 612
-134.016 165.18 0 18.1705 606
-120.689 170.95 0 29.8989 613.899
-110.037 180.763 0 41.129 623
-98.9373 189.974 0 52.4011 632
-86.796 196.814 0 64.6477 638.648
-77.5116 197.247 0 73.938 638.938
-85.4122 186.055 0 65.8669 627.867
-92.0984 173.803 0 59 615.711
-97.1709 161.005 0 53.8459 602.846
-103.448 149.949 0 49 589.853
-101.793 144.061 0 53.4191 580
-93.117 138.645 0 64.4886 570.511
-84.4986 133.576 0 75.5491 561
-75.8109 128.464 0 86.5804 551.42
-66.93 122.791 0 97.4802 541.52
-57.8459 117.544 0 108.537 532
-48.7405 112.31 0 119.572 522.428
-39.0106 109.836 0 131.643 515.357
-27.5584 108.009 0 144.593 510.407
-15.8935 102.169 0 156 502.475
-7.7679 91.4663 0 163 490.374
0.308115 81.2043 0 170.514 478.486
10.1314 72.1945 0 180 467.416
19.6695 62.3265 0 188.191 455.809
28.2725 51.8986 0 195.262 443.738
39.0722 45.8154 0 206.057 435
48.2272 58.5909 0 216.526 444.526
58.1394 70.9349 0 227.602 454
68.0728 82.5057 0 238.911 462.911
78.32 93.1327 0 250.56 471
89.0596 104.478 0 262.174 479.174
101.184 116.117 0 274.245 486.245
106.245 133.343 0 280 498.862
109.442 152.006 0 284 512.205
112.597 170.611 0 288 525.548
116.37 187.276 0 293 538.477
121.195 203.705 0 298.995 550.995
128.281 221.334 0 306.773 562.773
135.366 239.082 0 314.551 574.551
143.889 256.473 0 323.743 585.743
151.565 273.964 0 332.229 597.229
159.601 290.045 0 341.421 608.421
167.443 303.278 0 351 618.867
176.161 313.253 0 361.382 627
182.489 309.415 0 366.861 622
184.951 298.81 0 367.169 610.831
200.228 302.99 0 380.582 607
214.139 301.705 0 394.339 604
227.173 296.503 0 406.311 596.689
226.411 287.52 0 404.046 588
212.167 283.876 0 389.46 587
197.384 277.909 0 374.874 586
183.978 267.904 0 361.961 583.039
178.487 251.027 0 356 572.431
175.38 232.129 0 352 559.088
172.793 213.152 0 348.527 545.527
169.064 194.439 0 344 532.403
164.71 175.416 0 339 519.474
161.502 156.113 0 335.093 506.093
158.198 137.301 0 331 492.789
158.025 118.272 0 330 479.032
160.791 101.156 0 331 464.446
167.067 89.6516 0 336 452.689
158.597 80.3127 0 326.538 444.538
150.863 67.2552 0 317.345 433.345
141.623 54.9299 0 306.86 423.86
146.385 49.0447 0 311 418.459
139.633 36.2847 0 303 407.358
132.711 21.701 0 294.768 395.768
126.164 7.50801 0 286.99 383.99
118.663 -6.02403 0 278.505 372.505
111.228 -18.7927 0 270 361.027
103.124 -31.8912 0 261 349.755
98.1698 -45.5301 0 255.998 338
100.895 -57.1236 0 259 326.483
105.662 -69.7107 0 263 313.141
110.013 -82.6578 0 266 299.384
114.119 -95.5019 0 269 285.626
118.174 -107.211 0 273 272.284
128.507 -111.435 0 284.578 264.422
140.431 -111.256 0 297.331 261
153.56 -106.429 0 311.917 262
163.667 -107.155 0 322 258.155
173.778 -111.68 0 331.188 250
184.145 -104.315 0 344.531 252
196.76 -98.6569 0 359.117 251
209.279 -92.6295 0 373.703 250
221.772 -87.6185 0 387.874 248
218.255 -74.7434 0 391 260.459
211.166 -61.3624 0 391 275.459
203.509 -48.8784 0 390 290.047
196.581 -35.5809 0 390 305.044
188.954 -23.1026 0 389 319.633
182.029 -9.79726 0 389 334.633
174.406 2.67572 0 388 349.217
167.48 15.981 0 388 364.217
162.025 28.6589 0 389.018 377.982
167.236 29.442 0 394 376.269
170.97 17.9369 0 392 364.34
179.289 6.29131 0 394 350.169
190.069 -2.42142 0 399.537 337.463
203.39 -8.10438 0 408.73 326.27
217.475 -10.0931 0 420.304 318
231.402 -10.2683 0 432.579 311.421
245.358 -10.9762 0 444.649 304.351
259.382 -12.4312 0 456.428 296.572
271.288 -18.9185 0 464 285.295
281.657 -28.0322 0 469 272.366
289.849 -39.5563 0 471 258.194
297.327 -51.9043 0 472 243.608
303.847 -64.457 0 472 229.438
310.493 -75.8757 0 472.64 216.36
317.612 -88.2368 0 473.238 202.238
321.721 -100.272 0 471.297 189.703
329.18 -112.952 0 471.996 174.996
333.123 -126.505 0 469.168 161.168
333.256 -140.414 0 462.804 148.804
327.22 -152.719 0 451.733 140.733
319.549 -164.368 0 439.522 134
312.1 -176.198 0 427.422 127
306.405 -188.78 0 416.52 118.52
304.249 -202.893 0 408.035 107.035
306.667 -216.588 0 403.792 93.7925
312.412 -229.208 0 403 79.9492
319.738 -238.831 0 405 68.0205
319.161 -246.811 0 400.772 61.2279
309.565 -236.678 0 397 74.6653
301.885 -224.234 0 396 89.2529
294.898 -210.963 0 396 104.253
287.216 -198.528 0 395 118.836
280.227 -185.255 0 395 133.837
273.236 -171.979 0 395 148.837
265.553 -159.532 0 394 163.422
258.556 -146.247 0 394 178.422
250.879 -133.831 0 393 193.009
243.907 -120.707 0 393 208.01
233.141 -118.221 0 384.873 215.873
220.593 -126.754 0 370.234 215
207.924 -134.952 0 355.649 214
195.045 -142.874 0 341.063 213
189.274 -153.071 0 332.72 206
175.267 -159.044 0 318.135 205
164.91 -169.052 0 306.439 198.439
160.58 -182.62 0 299.367 186.367
158.561 -194.868 0 294.581 175
166.063 -201.039 0 300.319 167
153.938 -204.451 0 287.862 166.862
153.069 -217.497 0 284 154.29
149.332 -230.98 0 277.134 142.134
145.396 -244.385 0 270 130.09
142.559 -256.343 0 264.235 119.235
140.247 -268.698 0 258.871 107.871
135.316 -280.916 0 251 97.303
130.267 -294.216 0 242.729 85.7291
123.008 -306.672 0 232.536 75.5365
110.207 -312.366 0 218.708 73.2917
99.7642 -318.472 0 207.052 70.0515
96.0292 -331.951 0 200 57.9727
104.106 -340.124 0 205.713 48
111.793 -348.49 0 211 37.9436
110.928 -353.036 0 209 33.7725
108.582 -363.755 0 203.989 24.0107
104.176 -374.183 0 197.061 15.061
96.721 -382.428 0 187.744 9
85.8846 -390.178 0 175.283 4.28345
70.9861 -397.521 0 159 1
70.5738 -378.803 0 163.397 19.2
81.4436 -188.762 0 222.418 199.851
74.4168 -261.162 0 197.158 131.895
104.595 -285.673 0 220.087 100.537
-10.7272 13.3302 0 151.861 410.94
156.199 -135.975 0 306.586 232.878
245.828 -94.9079 0 406.468 230.06
121.281 -183.563 0 261.32 195.618
43.1538 -179.151 0 188.497 217.457
56.3545 -68.4702 0 212.946 320.627
107.285 -241.779 0 233.86 142.326
282.975 -106.877 0 433.92 201.91
126.754 -209.958 0 260.625 168.349
63.6156 -27.6816 0 222.394 359.242
69.7854 -119.819 0 221.899 268.749
-30.4593 68.0567 0 136.779 470.704
304.088 -133.741 0 440.11 168.305
248.437 -50.4063 0 429.173 267.959
88.0007 34.9776 0 251.883 414.403
120.187 85.0605 0 288.938 454.209
2.70713 38.6854 0 167.384 435.514
-3.45955 -19.4981 0 156.203 376.245
107.989 -146.189 0 256.529 235.57
79.8793 -86.4871 0 235.437 299.924
49.6639 -144.568 0 199.546 248.849
271.852 -73.0954 0 439.635 236.523
89.8202 2.61637 0 250.681 384.232
93.8643 67.5244 0 261.248 443.175
10.0694 -44.7498 0 168.09 349.187
3 42 41 43
3 38 37 36
3 43 41 44
3 40 46 45
3 40 45 44
3 41 40 44
3 5 3 2
3 1 261 2
3 39 35 34
3 39 38 35
3 39 34 46
3 46 40 39
3 35 38 36
3 33 46 34
3 46 33 47
3 30 49 48
3 50 49 29
3 27 52 51
3 27 53 52
3 28 51 50
3 31 48 47
3 31 30 48
3 28 50 29
3 30 29 49
3 54 56 55
3 54 53 56
3 56 53 27
3 28 27 51
3 56 27 26
3 31 47 32
3 33 32 47
3 0 260 261
3 7 6 256
3 6 5 261
3 264 13 12
3 2 261 5
3 4 3 5
3 9 8 7
3 6 261 258
3 257 256 6
3 256 253 7
3 253 256 255
3 10 9 252
3 10 252 251
3 253 252 9
3 7 253 9
3 257 6 258
3 16 15 14
3 16 14 263
3 263 17 16
3 57 26 25
3 58 25 24
3 14 13 263
3 17 263 18
3 264 11 250
3 11 264 12
3 21 20 271
3 61 60 269
3 263 19 18
3 23 269 24
3 250 11 251
3 19 263 20
3 10 251 11
3 56 26 57
3 22 21 262
3 0 261 1
3 246 245 271
3 23 22 269
3 107 87 86
3 107 86 108
3 86 85 108
3 105 90 89
3 89 88 106
3 107 88 87
3 107 106 88
3 85 84 109
3 76 75 74
3 77 76 74
3 110 109 84
3 85 109 108
3 84 83 110
3 82 111 83
3 82 81 112
3 95 93 92
3 92 91 95
3 91 90 104
3 104 95 91
3 95 94 93
3 103 97 96
3 95 104 96
3 96 104 103
3 102 97 103
3 90 105 104
3 102 98 97
3 99 98 101
3 101 100 99
3 98 102 101
3 89 106 105
3 59 58 60
3 57 25 58
3 289 70 69
3 282 265 72
3 289 282 70
3 60 58 269
3 63 275 64
3 275 63 285
3 67 66 68
3 68 66 289
3 270 65 64
3 173 172 275
3 24 269 58
3 289 274 282
3 73 72 265
3 78 265 281
3 265 78 77
3 81 80 276
3 83 111 110
3 79 78 276
3 82 112 111
3 119 118 281
3 77 74 73
3 276 281 116
3 281 120 119
3 276 78 281
3 276 112 81
3 112 276 113
3 113 276 114
3 114 276 115
3 265 120 281
3 282 71 70
3 275 270 64
3 255 254 253
3 264 250 249
3 248 264 249
3 264 247 246
3 271 245 244
3 271 263 264
3 271 264 246
3 243 242 273
3 273 241 268
3 241 240 239
3 273 242 241
3 268 239 238
3 236 235 266
3 268 266 283
3 241 239 268
3 283 266 174
3 266 176 175
3 177 176 266
3 234 178 266
3 266 178 177
3 283 174 173
3 284 172 171
3 283 285 262
3 266 235 234
3 179 234 233
3 232 231 181
3 180 233 232
3 179 233 180
3 181 180 232
3 182 181 231
3 230 267 231
3 234 179 178
3 284 171 170
3 222 221 218
3 221 219 218
3 219 221 220
3 223 222 217
3 216 224 223
3 226 225 214
3 215 225 224
3 222 218 217
3 216 215 224
3 217 216 223
3 226 214 277
3 277 212 211
3 277 214 213
3 215 214 225
3 277 211 210
3 182 231 267
3 278 286 203
3 227 277 228
3 207 272 208
3 184 278 185
3 184 183 278
3 201 200 278
3 278 199 198
3 226 277 227
3 272 207 206
3 208 272 277
3 206 205 286
3 273 262 21
3 205 204 286
3 267 183 182
3 203 202 278
3 206 286 272
3 273 21 271
3 208 277 209
3 277 210 209
3 169 168 270
3 270 284 169
3 270 168 274
3 163 279 164
3 165 287 166
3 165 164 287
3 287 120 274
3 284 170 169
3 163 162 279
3 160 288 162
3 279 288 122
3 161 160 162
3 158 280 159
3 160 280 288
3 287 164 279
3 158 156 280
3 124 123 288
3 280 160 159
3 288 280 125
3 153 129 128
3 129 152 130
3 128 127 154
3 126 155 127
3 154 127 155
3 130 152 131
3 153 128 154
3 132 131 151
3 150 133 132
3 133 149 134
3 134 148 135
3 153 152 129
3 126 280 155
3 156 155 280
3 158 157 156
3 194 189 188
3 187 195 188
3 194 190 189
3 192 190 193
3 190 192 191
3 193 190 194
3 196 187 186
3 186 185 197
3 197 185 198
3 278 198 185
3 196 195 187
3 194 188 195
3 197 196 186
3 151 150 132
3 149 133 150
3 134 149 148
3 140 137 136
3 137 139 138
3 147 136 135
3 148 147 135
3 131 152 151
3 147 146 140
3 145 144 142
3 146 145 141
3 139 137 140
3 145 142 141
3 141 140 146
3 143 142 144
3 140 136 147
3 260 259 261
3 199 278 200
3 258 261 259
3 247 264 248
3 13 264 263
3 73 265 77
3 72 71 282
3 174 266 175
3 237 236 266
3 272 230 229
3 204 203 286
3 238 237 268
3 266 268 237
3 22 262 269
3 283 262 268
3 168 167 274
3 66 65 270
3 271 244 243
3 20 263 271
3 230 272 267
3 228 272 229
3 262 273 268
3 243 273 271
3 287 167 166
3 282 120 265
3 62 285 63
3 62 61 285
3 79 276 80
3 116 115 276
3 277 272 228
3 213 212 277
3 267 278 183
3 202 201 278
3 122 121 279
3 279 121 120
3 126 125 280
3 288 125 124
3 118 117 281
3 281 117 116
3 289 69 68
3 120 282 274
3 173 275 283
3 283 275 285
3 270 275 284
3 172 284 275
3 61 269 285
3 262 285 269
3 278 267 286
3 272 286 267
3 120 287 279
3 167 287 274
3 122 288 123
3 288 279 162
3 274 289 270
3 66 270 289
