ply
format ascii 1.0
element vertex 290
property float x
property float y
property float z
property float u
property float v
element face 317
property list uchar int vertex_indices
end_header
67.1844 -393.525 0 147.636 8.36396
56.9306 -385.336 0 139.979 19.0208
53.1174 -371.681 0 140 33.201
53.008 -357.713 0 143.678 46.6777
63.8635 -351.209 0 155.887 50
72.0965 -361.598 0 161 37.7695
77.9289 -360.165 0 167 37.5736
81.5547 -347.187 0 174 49.0883
83.6458 -333.481 0 179.719 61.7193
96.4596 -334.783 0 191.704 57
99.9257 -323.807 0 198 66.6324
101.254 -310.008 0 203 79.5613
92.532 -303.923 0 196.239 87.7609
80.2421 -297.993 0 186 96.7624
68.2378 -291.838 0 176.097 105.903
56.7916 -284.577 0 167.026 115.974
58.2103 -271.896 0 171.803 127.803
55.9117 -262.913 0 172 137.064
58.486 -249.801 0 177.995 148.995
62.0627 -236.262 0 185.066 161.066
70.0815 -224.882 0 195.844 169.844
74.2595 -211.266 0 203.622 181.622
67.8427 -206.649 0 199.605 187
54.5825 -213.444 0 186.185 183.185
41.1988 -220.939 0 172.919 179
26.5972 -229.021 0 159.407 175.407
11.0371 -235.868 0 145.818 174
-1.89581 -248.249 0 134 166.718
-5.73564 -265.327 0 130.265 153.265
-9.88361 -281.978 0 126 140.032
-14.7951 -298.416 0 121 127.103
-18.7372 -314.914 0 116.83 113.83
-23.4851 -330.077 0 111 101.245
-28.4989 -345.121 0 104.809 88.8092
-34.849 -359.605 0 97.031 77.031
-39.312 -373.046 0 90 64.9434
-41.6838 -381.854 0 85.8385 56.8385
-50.0094 -385.193 0 77 55.3289
-49.3312 -371.601 0 80.5247 68.4753
-48.2875 -364.893 0 83 74.8438
-62.1614 -363.609 0 69.8678 79.1322
-70.0202 -372.596 0 60.2982 72
-78.1891 -380.948 0 50.554 65.554
-81.4808 -373.044 0 49 73.9741
-78.0012 -360.693 0 55 85.3173
-72.2107 -348.225 0 63.2955 96.2955
-61.0921 -340.03 0 75.9327 102
-49.6441 -327.316 0 86 109.276
-47.7318 -309.868 0 88 123.448
-45.5301 -292.819 0 90.4379 137.438
-44.1092 -276.458 0 92 150.963
-42.4737 -259.485 0 94 165.134
-40.8559 -243.818 0 97 178.892
-38.7623 -228.889 0 101 192.235
-35.6238 -214.569 0 106.116 205.116
-30.5642 -201.481 0 113.265 217
-22.8283 -203.615 0 120.43 213.43
-9.12616 -192.786 0 133.087 219.087
3.96087 -181.517 0 145 225.052
6.87117 -173.296 0 148.809 232
19.2644 -166.81 0 161.694 235.694
26.6062 -155.145 0 170 244.081
25.8875 -139.763 0 171 257.839
25.2389 -123.923 0 172 272.425
27.2385 -108.305 0 175 286.182
21.2611 -95.2825 0 169.921 299.079
15.3061 -82.6364 0 165 312.04
3.05623 -79.6667 0 153.031 316
-3.9439 -67.732 0 147 328.484
-11.8437 -56.8838 0 140.001 339.999
-21.0695 -46.4376 0 131.516 351.484
-29.641 -35.7091 0 123.737 363.263
-37.5665 -24.9885 0 116.666 375.334
-47.2336 -14.8762 0 108.181 386.819
-56.6437 -4.00152 0 99.6956 398.304
-67.1782 6.16231 0 89.7115 409
-61.007 12.4783 0 96.2175 415
-47.9768 17.1114 0 109.561 419
-45.3989 26.3531 0 113 429.49
-50.4776 38.1017 0 109 442.833
-53.3373 51.5239 0 107 457.005
-56.5607 63.6031 0 104 470.762
-66.5317 69.356 0 92.9758 480.024
-75.4022 75.2431 0 82.0762 489.924
-84.9104 79.0299 0 70.298 497.702
-92.8813 85.3951 0 60.1059 507.894
-99.8822 92.9768 0 50.9132 519.087
-106.881 101.036 0 42.5491 529.451
-111.852 111.169 0 36.1849 541.815
-116.591 119.987 0 29 553.839
-121.176 128.387 0 21.7498 565.25
-127.184 138.634 0 13.9716 577.028
-133.756 150.124 0 6.60748 588.393
-136.498 163.744 0 3 601.898
-133.216 173.645 0 5.65576 612
-121.094 166.863 0 18.1705 606
-107.126 171.869 0 29.8989 613.899
-95.9867 181.065 0 41.129 623
-84.3742 189.617 0 52.4011 632
-71.8558 195.738 0 64.6477 638.648
-62.562 195.631 0 73.938 638.938
-71.1006 184.917 0 65.8669 627.867
-78.4898 173.076 0 59 615.711
-84.3159 160.6 0 53.8459 602.846
-91.4681 150.005 0 49 589.853
-90.5788 144.213 0 53.4191 580
-82.5953 138.579 0 64.4886 570.511
-74.6499 133.343 0 75.5491 561
-66.6058 128.088 0 86.5804 551.42
-58.3361 122.282 0 97.4802 541.52
-49.8257 116.925 0 108.537 532
-41.2771 111.62 0 119.572 522.428
-32.03 109.11 0 131.643 515.357
-20.865 107.181 0 144.593 510.407
-9.43866 101.184 0 156 502.475
-1.60468 90.429 0 163 490.374
6.17193 80.2196 0 170.514 478.486
15.7726 71.2524 0 180 467.416
25.1649 61.4032 0 188.191 455.809
33.6515 51.0446 0 195.262 443.738
44.2678 45.1271 0 206.057 435
53.2572 57.8954 0 216.526 444.526
63.0268 70.2386 0 227.602 454
72.8092 81.8334 0 238.911 462.911
82.8988 92.5331 0 250.56 471
93.4696 103.961 0 262.174 479.174
105.423 115.684 0 274.245 486.245
110.237 132.905 0 280 498.862
113.165 151.552 0 284 512.205
116.041 170.143 0 288 525.548
119.536 186.831 0 293 538.477
124.08 203.306 0 298.995 550.995
130.882 221.01 0 306.773 562.773
137.673 238.835 0 314.551 574.551
145.9 256.337 0 323.743 585.743
153.262 273.928 0 332.229 597.229
160.975 290.138 0 341.421 608.421
168.51 303.54 0 351 618.867
176.978 313.728 0 361.382 627
183.401 310.047 0 366.861 622
186.132 299.501 0 367.169 610.831
201.418 304.002 0 380.582 607
215.341 303.086 0 394.339 604
228.505 298.225 0 406.311 596.689
227.976 289.226 0 404.046 588
213.827 285.215 0 389.46 587
199.143 278.895 0 374.874 586
185.873 268.606 0 361.961 583.039
180.663 251.651 0 356 572.431
177.877 232.729 0 352 559.088
175.601 213.741 0 348.527 545.527
172.169 194.995 0 344 532.403
168.103 175.934 0 339 519.474
165.178 156.614 0 335.093 506.093
162.146 137.778 0 331 492.789
162.234 118.776 0 330 479.032
165.247 101.67 0 331 464.446
171.693 90.2501 0 336 452.689
163.361 80.7734 0 326.538 444.538
155.787 67.561 0 317.345 433.345
146.664 55.0636 0 306.86 423.86
151.471 49.2008 0 311 418.459
144.827 36.3576 0 303 407.358
137.99 21.6649 0 294.768 395.768
131.498 7.37917 0 286.99 383.99
124.031 -6.2309 0 278.505 372.505
116.624 -19.0582 0 270 361.027
108.502 -32.1905 0 261 349.755
103.479 -45.7768 0 255.998 338
106.163 -57.2459 0 259 326.483
110.944 -69.7566 0 263 313.141
115.319 -82.6482 0 266 299.384
119.442 -95.3859 0 269 285.626
123.458 -106.886 0 273 272.284
133.618 -110.88 0 284.578 264.422
145.412 -110.553 0 297.331 261
158.459 -105.629 0 311.917 262
168.489 -106.285 0 322 258.155
178.371 -110.732 0 331.188 250
188.116 -103.299 0 344.531 252
200.007 -97.5698 0 359.117 251
211.792 -91.4638 0 373.703 250
223.675 -86.3464 0 387.874 248
219.677 -73.5451 0 391 260.459
212.297 -60.2757 0 391 275.459
204.434 -47.9077 0 390 290.047
197.315 -34.7115 0 390 305.044
189.509 -22.3442 0 389 319.633
182.394 -9.13961 0 389 334.633
174.592 3.22252 0 388 349.217
167.476 16.4268 0 388 364.217
161.839 29.025 0 389.018 377.982
167.038 29.8829 0 394 376.269
170.937 18.4327 0 392 364.34
179.422 6.90793 0 394 350.169
190.326 -1.64904 0 399.537 337.463
203.728 -7.14001 0 408.73 326.27
217.839 -8.92613 0 420.304 318
231.764 -8.90256 0 432.579 311.421
245.723 -9.41027 0 444.649 304.351
259.761 -10.6615 0 456.428 296.572
271.753 -16.9738 0 464 285.295
282.233 -25.9342 0 469 272.366
290.52 -37.3387 0 471 258.194
298.107 -49.5714 0 472 243.608
304.812 -62.0152 0 472 229.438
311.692 -73.3132 0 472.64 216.36
319.07 -85.5464 0 473.238 202.238
323.388 -97.5076 0 471.297 189.703
331.052 -110.064 0 471.996 174.996
335.212 -123.55 0 469.168 161.168
335.569 -137.455 0 462.804 148.804
329.732 -149.855 0 451.733 140.733
322.249 -161.626 0 439.522 134
314.992 -173.573 0 427.422 127
309.501 -186.246 0 416.52 118.52
307.574 -200.392 0 408.035 107.035
310.213 -214.046 0 403.792 93.7925
316.16 -226.572 0 403 79.9492
323.641 -236.075 0 405 68.0205
323.192 -244.064 0 400.772 61.2279
313.434 -234.087 0 397 74.6653
305.555 -221.769 0 396 89.2529
298.354 -208.612 0 396 104.253
290.473 -196.303 0 395 118.836
283.27 -183.144 0 395 133.837
276.066 -169.982 0 395 148.837
268.185 -157.66 0 394 163.422
260.978 -144.486 0 394 178.422
253.131 -132.188 0 393 193.009
246.045 -119.156 0 393 208.01
235.598 -116.791 0 384.873 215.873
223.832 -125.421 0 370.234 215
211.907 -133.706 0 355.649 214
199.794 -141.699 0 341.063 213
194.449 -151.889 0 332.72 206
180.615 -157.984 0 318.135 205
170.479 -168.035 0 306.439 198.439
166.406 -181.561 0 299.367 186.367
164.586 -193.783 0 294.581 175
172.187 -199.832 0 300.319 167
160.124 -203.391 0 287.862 166.862
159.492 -216.386 0 284 154.29
155.974 -229.889 0 277.134 142.134
152.249 -243.332 0 270 130.09
149.592 -255.326 0 264.235 119.235
147.463 -267.71 0 258.871 107.871
142.713 -279.998 0 251 97.303
137.861 -293.37 0 242.729 85.7291
130.787 -305.932 0 232.536 75.5365
118.072 -311.814 0 218.708 73.2917
107.72 -318.074 0 207.052 70.0515
104.185 -331.606 0 200 57.9727
112.382 -339.659 0 205.713 48
120.192 -347.909 0 211 37.9436
119.394 -352.467 0 209 33.7725
117.207 -363.221 0 203.989 24.0107
112.957 -373.712 0 197.061 15.061
105.625 -382.067 0 187.744 9
94.9045 -389.978 0 175.283 4.28345
80.1163 -397.54 0 159 1
79.4269 -378.83 0 163.397 19.2
87.5606 -188.568 0 222.418 199.851
81.5327 -261.14 0 197.158 131.895
112.066 -285.206 0 220.087 100.537
-5.43567 12.6021 0 151.861 410.94
161.287 -135.153 0 306.586 232.878
247.558 -93.3249 0 406.468 230.06
127.144 -182.986 0 261.32 195.618
49.365 -179.298 0 188.497 217.457
61.6584 -68.7776 0 212.946 320.627
114.109 -241.28 0 233.86 142.326
284.755 -104.728 0 433.92 201.91
133.083 -209.206 0 260.625 168.349
68.9296 -28.1196 0 222.394 359.242
75.2378 -119.896 0 221.899 268.749
-24.6248 67.3311 0 136.779 470.704
306.297 -131.251 0 440.11 168.305
249.372 -48.7924 0 429.173 267.959
93.1812 34.5655 0 251.883 414.403
124.891 84.9669 0 288.938 454.209
8.1251 37.8088 0 167.384 435.514
1.81018 -20.1626 0 156.203 376.245
113.486 -145.811 0 256.529 235.57
85.2041 -86.5942 0 235.437 299.924
55.317 -144.744 0 199.546 248.849
272.92 -71.1469 0 439.635 236.523
95.135 2.24162 0 250.681 384.232
98.7716 67.1366 0 261.248 443.175
15.3513 -45.3141 0 168.09 349.187
3 42 41 43
3 38 37 36
3 43 41 44
3 40 46 45
3 40 45 44
3 41 40 44
3 5 3 2
3 1 261 2
3 39 35 34
3 39 38 35
3 39 34 46
3 46 40 39
3 35 38 36
3 33 46 34
3 46 33 47
3 30 49 48
3 50 49 29
3 27 52 51
3 27 53 52
3 28 51 50
3 31 48 47
3 31 30 48
3 28 50 29
3 30 29 49
3 54 56 55
3 54 53 56
3 56 53 27
3 28 27 51
3 56 27 26
3 31 47 32
3 33 32 47
3 0 260 261
3 7 6 256
3 6 5 261
3 264 13 12
3 2 261 5
3 4 3 5
3 9 8 7
3 6 261 258
3 257 256 6
3 256 253 7
3 253 256 255
3 10 9 252
3 10 252 251
3 253 252 9
3 7 253 9
3 257 6 258
3 16 15 14
3 16 14 263
3 263 17 16
3 57 26 25
3 58 25 24
3 14 13 263
3 17 263 18
3 264 11 250
3 11 264 12
3 21 20 271
3 61 60 269
3 263 19 18
3 23 269 24
3 250 11 251
3 19 263 20
3 10 251 11
3 56 26 57
3 22 21 262
3 0 261 1
3 246 245 271
3 23 22 269
3 107 87 86
3 107 86 108
3 86 85 108
3 105 90 89
3 89 88 106
3 107 88 87
3 107 106 88
3 85 84 109
3 76 75 74
3 77 76 74
3 110 109 84
3 85 109 108
3 84 83 110
3 82 111 83
3 82 81 112
3 95 93 92
3 92 91 95
3 91 90 104
3 104 95 91
3 95 94 93
3 103 97 96
3 95 104 96
3 96 104 103
3 102 97 103
3 90 105 104
3 102 98 97
3 99 98 101
3 101 100 99
3 98 102 101
3 89 106 105
3 59 58 60
3 57 25 58
3 289 70 69
3 282 265 72
3 289 282 70
3 60 58 269
3 63 275 64
3 275 63 285
3 67 66 68
3 68 66 289
3 270 65 64
3 173 172 275
3 24 269 58
3 289 274 282
3 73 72 265
3 78 265 281
3 265 78 77
3 81 80 276
3 83 111 110
3 79 78 276
3 82 112 111
3 119 118 281
3 77 74 73
3 276 281 116
3 281 120 119
3 276 78 281
3 276 112 81
3 112 276 113
3 113 276 114
3 114 276 115
3 265 120 281
3 282 71 70
3 275 270 64
3 255 254 253
3 264 250 249
3 248 264 249
3 264 247 246
3 271 245 244
3 271 263 264
3 271 264 246
3 243 242 273
3 273 241 268
3 241 240 239
3 273 242 241
3 268 239 238
3 236 235 266
3 268 266 283
3 241 239 268
3 283 266 174
3 266 176 175
3 177 176 266
3 234 178 266
3 266 178 177
3 283 174 173
3 284 172 171
3 283 285 262
3 266 235 234
3 179 234 233
3 232 231 181
3 180 233 232
3 179 233 180
3 181 180 232
3 182 181 231
3 230 267 231
3 234 179 178
3 284 171 170
3 222 221 218
3 221 219 218
3 219 221 220
3 223 222 217
3 216 224 223
3 226 225 214
3 215 225 224
3 222 218 217
3 216 215 224
3 217 216 223
3 226 214 277
3 277 212 211
3 277 214 213
3 215 214 225
3 277 211 210
3 182 231 267
3 278 286 203
3 227 277 228
3 207 272 208
3 184 278 185
3 184 183 278
3 201 200 278
3 278 199 198
3 226 277 227
3 272 207 206
3 208 272 277
3 206 205 286
3 273 262 21
3 205 204 286
3 267 183 182
3 203 202 278
3 206 286 272
3 273 21 271
3 208 277 209
3 277 210 209
3 169 168 270
3 270 284 169
3 270 168 274
3 163 279 164
3 165 287 166
3 165 164 287
3 287 120 274
3 284 170 169
3 163 162 279
3 160 288 162
3 279 288 122
3 161 160 162
3 158 280 159
3 160 280 288
3 287 164 279
3 158 156 280
3 124 123 288
3 280 160 159
3 288 280 125
3 153 129 128
3 129 152 130
3 128 127 154
3 126 155 127
3 154 127 155
3 130 152 131
3 153 128 154
3 132 131 151
3 150 133 132
3 133 149 134
3 134 148 135
3 153 152 129
3 126 280 155
3 156 155 280
3 158 157 156
3 194 189 188
3 187 195 188
3 194 190 189
3 192 190 193
3 190 192 191
3 193 190 194
3 196 187 186
3 186 185 197
3 197 185 198
3 278 198 185
3 196 195 187
3 194 188 195
3 197 196 186
3 151 150 132
3 149 133 150
3 134 149 148
3 140 137 136
3 137 139 138
3 147 136 135
3 148 147 135
3 131 152 151
3 147 146 140
3 145 144 142
3 146 145 141
3 139 137 140
3 145 142 141
3 141 140 146
3 143 142 144
3 140 136 147
3 260 259 261
3 199 278 200
3 258 261 259
3 247 264 248
3 13 264 263
3 73 265 77
3 72 71 282
3 174 266 175
3 237 236 266
3 272 230 229
3 204 203 286
3 238 237 268
3 266 268 237
3 22 262 269
3 283 262 268
3 168 167 274
3 66 65 270
3 271 244 243
3 20 263 271
3 230 272 267
3 228 272 229
3 262 273 268
3 243 273 271
3 287 167 166
3 282 120 265
3 62 285 63
3 62 61 285
3 79 276 80
3 116 115 276
3 277 272 228
3 213 212 277
3 267 278 183
3 202 201 278
3 122 121 279
3 279 121 120
3 126 125 280
3 288 125 124
3 118 117 281
3 281 117 116
3 289 69 68
3 120 282 274
3 173 275 283
3 283 275 285
3 270 275 284
3 172 284 275
3 61 269 285
3 262 285 269
3 278 267 286
3 272 286 267
3 120 287 279
3 167 287 274
3 122 288 123
3 288 279 162
3 274 289 270
3 66 270 289
