ply
format ascii 1.0
element vertex 290
property float x
property float y
property float z
property float u
property float v
element face 317
property list uchar int vertex_indices
end_header
-3.23383 -340.432 0 147.636 8.36396
-11.8068 -330.496 0 139.979 19.0208
-13.0432 -316.371 0 140 33.201
-10.5801 -302.622 0 143.678 46.6777
1.28659 -298.226 0 155.887 50
7.46741 -309.952 0 161 37.7695
13.4637 -309.616 0 167 37.5736
19.4152 -297.527 0 174 49.0883
23.9921 -284.44 0 179.719 61.7193
36.3477 -288.077 0 191.704 57
41.7721 -277.926 0 198 66.6324
45.6134 -264.606 0 203 79.5613
38.1581 -257.028 0 196.239 87.7609
27.1681 -248.954 0 186 96.7624
16.4994 -240.712 0 176.097 105.903
6.57886 -231.476 0 167.026 115.974
10.2986 -219.272 0 171.803 127.803
9.68435 -210.024 0 172 137.064
14.6146 -197.611 0 177.995 148.995
20.6063 -184.963 0 185.066 161.066
30.5746 -175.267 0 195.844 169.844
37.2392 -162.797 0 203.622 181.622
32.3559 -157.624 0 199.605 187
18.816 -162.419 0 186.185 183.185
5.30606 -167.678 0 172.919 179
-8.9005 -172.76 0 159.407 175.407
-23.545 -175.976 0 145.818 174
-36.181 -184.985 0 134 166.718
-40.419 -199.756 0 130.265 153.265
-45.0825 -214.224 0 126 140.032
-50.493 -228.409 0 121 127.103
-55.0188 -242.844 0 116.83 113.83
-60.8089 -256.342 0 111 101.245
-66.9218 -269.7 0 104.809 88.8092
-74.5055 -282.414 0 97.031 77.031
-80.8207 -294.972 0 90 64.9434
-84.4659 -303.327 0 85.8385 56.8385
-93.1931 -305.393 0 77 55.3289
-90.5059 -292.051 0 80.5247 68.4753
-88.4542 -285.552 0 83 74.8438
-101.892 -282.152 0 69.8678 79.1322
-110.995 -289.873 0 60.2982 72
-120.313 -296.921 0 50.554 65.554
-122.396 -288.616 0 49 73.9741
-117.122 -276.917 0 55 85.3173
-109.54 -265.441 0 63.2955 96.2955
-97.304 -258.966 0 75.9327 102
-86.268 -249.842 0 86 109.276
-83.8209 -234.463 0 88 123.448
-81.0195 -219.354 0 90.4379 137.438
-79.0799 -204.784 0 92 150.963
-76.7871 -189.58 0 94 165.134
-73.9695 -175.115 0 97 178.892
-70.3986 -161.189 0 101 192.235
-65.7717 -147.79 0 106.116 205.116
-59.2032 -135.502 0 113.265 217
-51.8306 -138.648 0 120.43 213.43
-38.4243 -131.25 0 133.087 219.087
-25.6958 -123.487 0 145 225.052
-22.0775 -116.097 0 148.809 232
-9.23754 -111.517 0 161.694 235.694
-1.06357 -102.028 0 170 244.081
-0.518264 -87.7039 0 171 257.839
0.00405219 -72.6918 0 172 272.425
2.70441 -58.3309 0 175 286.182
-2.69137 -45.4013 0 169.921 299.079
-7.9846 -32.5553 0 165 312.04
-20.0644 -28.9347 0 153.031 316
-26.4361 -16.6337 0 147 328.484
-33.764 -5.35608 0 140.001 339.999
-42.5378 5.76677 0 131.516 351.484
-50.6265 17.1781 0 123.737 363.263
-58.0354 28.7917 0 116.666 375.334
-66.9605 39.8039 0 108.181 386.819
-75.8012 51.0554 0 99.6956 398.304
-86.0134 61.5358 0 89.7115 409
-79.6427 67.6692 0 96.2175 415
-66.4163 71.9349 0 109.561 419
-63.3255 82.0525 0 113 429.49
-67.7537 94.8638 0 109 442.833
-70.1274 108.766 0 107 457.005
-73.3268 121.95 0 104 470.762
-84.1369 129.978 0 92.9758 480.024
-94.5728 138.478 0 82.0762 489.924
-105.795 144.838 0 70.298 497.702
-115.491 153.674 0 60.1059 507.894
-124.223 163.58 0 50.9132 519.087
-132.363 173.062 0 42.5491 529.451
-138.54 184.596 0 36.1849 541.815
-145.241 195.45 0 29 553.839
-151.957 205.728 0 21.7498 565.25
-159.493 216.793 0 13.9716 577.028
-166.922 227.973 0 6.60748 588.393
-170.637 241.414 0 3 601.898
-168.067 251.532 0 5.65576 612
-155.499 245.635 0 18.1705 606
-143.338 252.933 0 29.8989 613.899
-132.38 262.377 0 41.129 623
-121.253 271.555 0 52.4011 632
-109.106 278.385 0 64.6477 638.648
-99.8208 278.813 0 73.938 638.938
-107.728 267.624 0 65.8669 627.867
-114.417 255.37 0 59 615.711
-119.417 242.478 0 53.8459 602.846
-124.581 230.076 0 49 589.853
-120.937 221.546 0 53.4191 580
-110.539 213.446 0 64.4886 570.511
-100.179 205.439 0 75.5491 561
-89.8233 197.368 0 86.5804 551.42
-79.4993 188.891 0 97.4802 541.52
-69.0089 180.807 0 108.537 532
-58.53 172.689 0 119.572 522.428
-47.1494 167.16 0 131.643 515.357
-34.6146 163.265 0 144.593 510.407
-23.0807 156.023 0 156 502.475
-15.6834 144.373 0 163 490.374
-7.9536 133.034 0 170.514 478.486
1.69256 122.662 0 180 467.416
10.3641 111.622 0 188.191 455.809
17.9764 100.085 0 195.262 443.738
28.8135 92.2489 0 206.057 435
38.828 102.864 0 216.526 444.526
49.4992 113.31 0 227.602 454
60.3333 123.144 0 238.911 462.911
71.5024 132.137 0 250.56 471
82.8164 141.402 0 262.174 479.174
94.9184 149.982 0 274.245 486.245
100.421 164.079 0 280 498.862
104.139 179.124 0 284 512.205
107.839 194.153 0 288 525.548
112.384 208.312 0 293 538.477
117.947 222.127 0 298.995 550.995
125.487 235.822 0 306.773 562.773
133.025 249.556 0 314.551 574.551
141.988 262.796 0 323.743 585.743
150.185 276.266 0 332.229 597.229
158.945 289.114 0 341.421 608.421
167.868 300.591 0 351 618.867
177.633 309.482 0 361.382 627
183.471 304.915 0 366.861 622
184.632 293.892 0 367.169 610.831
198.841 292.736 0 380.582 607
212.707 290.476 0 394.339 604
225.148 283.991 0 406.311 596.689
223.479 275.156 0 404.046 588
208.979 273.106 0 389.46 587
194.257 270.338 0 374.874 586
181.087 264.99 0 361.961 583.039
175.276 252.332 0 356 572.431
171.6 237.186 0 352 559.088
168.448 221.877 0 348.527 545.527
164.203 206.941 0 344 532.403
159.422 192.042 0 339 519.474
155.753 176.757 0 335.093 506.093
151.932 161.677 0 331 492.789
151.218 146.246 0 330 479.032
152.857 130.827 0 331 464.446
158.358 119.175 0 336 452.689
149.266 110.555 0 326.538 444.538
140.596 98.6659 0 317.345 433.345
130.527 88.1664 0 306.86 423.86
134.883 82.6238 0 311 418.459
127.325 70.9261 0 303 407.358
119.522 58.3064 0 294.768 395.768
112.154 45.6901 0 286.99 383.99
104.005 33.4876 0 278.505 372.505
95.8832 21.5361 0 270 361.027
87.182 9.61964 0 261 349.755
82.1731 -2.75754 0 255.998 338
85.0963 -14.2673 0 259 326.483
89.4073 -27.3459 0 263 313.141
92.9236 -40.8439 0 266 299.384
96.3548 -54.3122 0 269 285.626
100.462 -67.0929 0 273 272.284
111.791 -73.6552 0 284.578 264.422
124.415 -75.8123 0 297.331 261
138.654 -73.4721 0 311.917 262
148.875 -76.2668 0 322 258.155
158.547 -83.22 0 331.188 250
171.216 -79.2959 0 344.531 252
185.524 -78.011 0 359.117 251
199.834 -76.6158 0 373.703 250
213.864 -76.2561 0 387.874 248
214.973 -63.2744 0 391 260.459
212.698 -48.3887 0 391 275.459
209.53 -34.1019 0 390 290.047
207.301 -19.2724 0 390 305.044
204.143 -4.99268 0 389 319.633
201.918 9.84089 0 389 334.633
198.761 24.1148 0 388 349.217
196.539 38.9498 0 388 364.217
195.5 52.7125 0 389.018 377.982
200.683 51.7593 0 394 376.269
200.475 39.665 0 392 364.34
204.554 25.9468 0 394 350.169
211.918 14.2039 0 399.537 337.463
222.669 4.50051 0 408.73 326.27
235.344 -1.9577 0 420.304 318
248.458 -6.64076 0 432.579 311.421
261.439 -11.8399 0 444.649 304.351
274.237 -17.7767 0 456.428 296.572
283.397 -27.794 0 464 285.295
290.257 -39.8156 0 469 272.366
294.313 -53.4743 0 471 258.194
297.441 -67.6854 0 472 243.608
299.548 -81.6849 0 472 229.438
302.139 -94.5549 0 472.64 216.36
304.854 -108.469 0 473.238 202.238
304.82 -121.162 0 471.297 189.703
307.728 -135.59 0 471.996 174.996
307.02 -149.686 0 469.168 161.168
302.595 -162.87 0 462.804 148.804
292.868 -172.521 0 451.733 140.733
281.811 -181.02 0 439.522 134
270.906 -189.765 0 427.422 127
261.408 -199.793 0 416.52 118.52
254.754 -212.424 0 408.035 107.035
252.561 -226.157 0 403.792 93.7925
253.862 -239.961 0 403 79.9492
257.637 -251.452 0 405 68.0205
254.48 -258.804 0 400.772 61.2279
248.728 -246.089 0 397 74.6653
245.54 -231.819 0 396 89.2529
243.279 -216.992 0 396 104.253
240.086 -202.728 0 395 118.836
237.823 -187.899 0 395 133.837
235.559 -173.07 0 395 148.837
232.371 -158.802 0 394 163.422
230.107 -143.969 0 394 178.422
226.92 -129.711 0 393 193.009
224.657 -114.931 0 393 208.01
215.429 -108.618 0 384.873 215.873
201.062 -112.029 0 370.234 215
186.734 -115.427 0 355.649 214
172.369 -118.743 0 341.063 213
164.738 -126.87 0 332.72 206
150.171 -129.509 0 318.135 205
138.823 -137.232 0 306.439 198.439
132.64 -149.873 0 299.367 186.367
128.767 -161.611 0 294.581 175
135.159 -169.041 0 300.319 167
122.718 -170.295 0 287.862 166.862
119.864 -183.11 0 284 154.29
114.026 -195.802 0 277.134 142.134
107.944 -208.399 0 270 130.09
103.146 -219.714 0 264.235 119.235
98.7915 -231.504 0 258.871 107.871
91.8734 -242.719 0 251 97.303
84.6489 -254.973 0 242.729 85.7291
75.3901 -266.022 0 232.536 75.5365
61.8123 -269.469 0 218.708 73.2917
50.4875 -273.722 0 207.052 70.0515
44.5255 -286.375 0 200 57.9727
51.1009 -295.799 0 205.713 48
57.2597 -305.346 0 211 37.9436
55.637 -309.68 0 209 33.7725
51.5095 -319.847 0 203.989 24.0107
45.4013 -329.377 0 197.061 15.061
36.6575 -336.24 0 187.744 9
24.6656 -342.043 0 175.283 4.28345
8.739 -346.757 0 159 1
11.5023 -328.238 0 163.397 19.2
54.3911 -142.978 0 222.418 199.851
35.1973 -212.973 0 197.158 131.895
60.7938 -242.21 0 220.087 100.537
-23.9731 65.227 0 151.861 410.94
135.959 -102.976 0 306.586 232.878
234.716 -91.1168 0 406.468 230.06
93.8716 -144.029 0 261.32 195.618
18.7632 -128.001 0 188.497 217.457
39.5095 -22.147 0 212.946 320.627
70.854 -199.385 0 233.86 142.326
266.034 -114.73 0 433.92 201.91
95.3001 -171.176 0 260.625 168.349
48.1468 17.2093 0 222.394 359.242
50.0803 -73.8484 0 221.899 268.749
-40.8018 123.404 0 136.779 470.704
277.217 -147.02 0 440.11 168.305
251.542 -50.1285 0 429.173 267.959
75.8739 74.9597 0 251.883 414.403
111.278 118.355 0 288.938 454.209
-9.21205 90.1267 0 167.384 435.514
-18.5195 31.113 0 156.203 376.245
86.1169 -104.726 0 256.529 235.57
62.4388 -41.8803 0 235.437 299.924
28.3779 -95.4369 0 199.546 248.849
266.483 -79.4967 0 439.635 236.523
75.7487 44.0626 0 250.681 384.232
84.0056 105.025 0 261.248 443.175
-5.96629 4.68075 0 168.09 349.187
3 42 41 43
3 38 37 36
3 43 41 44
3 40 46 45
3 40 45 44
3 41 40 44
3 5 3 2
3 1 261 2
3 39 35 34
3 39 38 35
3 39 34 46
3 46 40 39
3 35 38 36
3 33 46 34
3 46 33 47
3 30 49 48
3 50 49 29
3 27 52 51
3 27 53 52
3 28 51 50
3 31 48 47
3 31 30 48
3 28 50 29
3 30 29 49
3 54 56 55
3 54 53 56
3 56 53 27
3 28 27 51
3 56 27 26
3 31 47 32
3 33 32 47
3 0 260 261
3 7 6 256
3 6 5 261
3 264 13 12
3 2 261 5
3 4 3 5
3 9 8 7
3 6 261 258
3 257 256 6
3 256 253 7
3 253 256 255
3 10 9 252
3 10 252 251
3 253 252 9
3 7 253 9
3 257 6 258
3 16 15 14
3 16 14 263
3 263 17 16
3 57 26 25
3 58 25 24
3 14 13 263
3 17 263 18
3 264 11 250
3 11 264 12
3 21 20 271
3 61 60 269
3 263 19 18
3 23 269 24
3 250 11 251
3 19 263 20
3 10 251 11
3 56 26 57
3 22 21 262
3 0 261 1
3 246 245 271
3 23 22 269
3 107 87 86
3 107 86 108
3 86 85 108
3 105 90 89
3 89 88 106
3 107 88 87
3 107 106 88
3 85 84 109
3 76 75 74
3 77 76 74
3 110 109 84
3 85 109 108
3 84 83 110
3 82 111 83
3 82 81 112
3 95 93 92
3 92 91 95
3 91 90 104
3 104 95 91
3 95 94 93
3 103 97 96
3 95 104 96
3 96 104 103
3 102 97 103
3 90 105 104
3 102 98 97
3 99 98 101
3 101 100 99
3 98 102 101
3 89 106 105
3 59 58 60
3 57 25 58
3 289 70 69
3 282 265 72
3 289 282 70
3 60 58 269
3 63 275 64
3 275 63 285
3 67 66 68
3 68 66 289
3 270 65 64
3 173 172 275
3 24 269 58
3 289 274 282
3 73 72 265
3 78 265 281
3 265 78 77
3 81 80 276
3 83 111 110
3 79 78 276
3 82 112 111
3 119 118 281
3 77 74 73
3 276 281 116
3 281 120 119
3 276 78 281
3 276 112 81
3 112 276 113
3 113 276 114
3 114 276 115
3 265 120 281
3 282 71 70
3 275 270 64
3 255 254 253
3 264 250 249
3 248 264 249
3 264 247 246
3 271 245 244
3 271 263 264
3 271 264 246
3 243 242 273
3 273 241 268
3 241 240 239
3 273 242 241
3 268 239 238
3 236 235 266
3 268 266 283
3 241 239 268
3 283 266 174
3 266 176 175
3 177 176 266
3 234 178 266
3 266 178 177
3 283 174 173
3 284 172 171
3 283 285 262
3 266 235 234
3 179 234 233
3 232 231 181
3 180 233 232
3 179 233 180
3 181 180 232
3 182 181 231
3 230 267 231
3 234 179 178
3 284 171 170
3 222 221 218
3 221 219 218
3 219 221 220
3 223 222 217
3 216 224 223
3 226 225 214
3 215 225 224
3 222 218 217
3 216 215 224
3 217 216 223
3 226 214 277
3 277 212 211
3 277 214 213
3 215 214 225
3 277 211 210
3 182 231 267
3 278 286 203
3 227 277 228
3 207 272 208
3 184 278 185
3 184 183 278
3 201 200 278
3 278 199 198
3 226 277 227
3 272 207 206
3 208 272 277
3 206 205 286
3 273 262 21
3 205 204 286
3 267 183 182
3 203 202 278
3 206 286 272
3 273 21 271
3 208 277 209
3 277 210 209
3 169 168 270
3 270 284 169
3 270 168 274
3 163 279 164
3 165 287 166
3 165 164 287
3 287 120 274
3 284 170 169
3 163 162 279
3 160 288 162
3 279 288 122
3 161 160 162
3 158 280 159
3 160 280 288
3 287 164 279
3 158 156 280
3 124 123 288
3 280 160 159
3 288 280 125
3 153 129 128
3 129 152 130
3 128 127 154
3 126 155 127
3 154 127 155
3 130 152 131
3 153 128 154
3 132 131 151
3 150 133 132
3 133 149 134
3 134 148 135
3 153 152 129
3 126 280 155
3 156 155 280
3 158 157 156
3 194 189 188
3 187 195 188
3 194 190 189
3 192 190 193
3 190 192 191
3 193 190 194
3 196 187 186
3 186 185 197
3 197 185 198
3 278 198 185
3 196 195 187
3 194 188 195
3 197 196 186
3 151 150 132
3 149 133 150
3 134 149 148
3 140 137 136
3 137 139 138
3 147 136 135
3 148 147 135
3 131 152 151
3 147 146 140
3 145 144 142
3 146 145 141
3 139 137 140
3 145 142 141
3 141 140 146
3 143 142 144
3 140 136 147
3 260 259 261
3 199 278 200
3 258 261 259
3 247 264 248
3 13 264 263
3 73 265 77
3 72 71 282
3 174 266 175
3 237 236 266
3 272 230 229
3 204 203 286
3 238 237 268
3 266 268 237
3 22 262 269
3 283 262 268
3 168 167 274
3 66 65 270
3 271 244 243
3 20 263 271
3 230 272 267
3 228 272 229
3 262 273 268
3 243 273 271
3 287 167 166
3 282 120 265
3 62 285 63
3 62 61 285
3 79 276 80
3 116 115 276
3 277 272 228
3 213 212 277
3 267 278 183
3 202 201 278
3 122 121 279
3 279 121 120
3 126 125 280
3 288 125 124
3 118 117 281
3 281 117 116
3 289 69 68
3 120 282 274
3 173 275 283
3 283 275 285
3 270 275 284
3 172 284 275
3 61 269 285
3 262 285 269
3 278 267 286
3 272 286 267
3 120 287 279
3 167 287 274
3 122 288 123
3 288 279 162
3 274 289 270
3 66 270 289
