ply
format ascii 1.0
element vertex 290
property float x
property float y
property float z
property float u
property float v
element face 317
property list uchar int vertex_indices
end_header
43.0522 -385.274 0 147.636 8.36396
33.2265 -376.575 0 139.979 19.0208
30.1103 -362.745 0 140 33.201
30.7097 -348.789 0 143.678 46.6777
41.8812 -342.844 0 155.887 50
49.5765 -353.637 0 161 37.7695
55.474 -352.501 0 167 37.5736
59.7532 -339.724 0 174 49.0883
62.5366 -326.141 0 179.719 61.7193
75.2679 -328.091 0 191.704 57
79.2854 -317.306 0 198 66.6324
81.3104 -303.591 0 203 79.5613
72.9069 -297.074 0 196.239 87.7609
60.9314 -290.535 0 186 96.7624
49.252 -283.785 0 176.097 105.903
38.1872 -275.954 0 167.026 115.974
40.2446 -263.362 0 171.803 127.803
38.4022 -254.275 0 172 137.064
41.6345 -241.312 0 177.995 148.995
45.8875 -227.973 0 185.066 161.066
54.4636 -217.022 0 195.844 169.844
59.2862 -203.701 0 203.622 181.622
52.9582 -199.048 0 199.605 187
39.2106 -205.393 0 186.185 183.185
25.3386 -212.381 0 172.919 179
10.0849 -219.974 0 159.407 175.407
-6.11486 -226.264 0 145.818 174
-19.9918 -238.231 0 134 166.718
-25.1042 -255.379 0 130.265 153.265
-30.4855 -272.048 0 126 140.032
-36.6333 -288.456 0 121 127.103
-41.8341 -304.972 0 116.83 113.83
-47.6925 -320 0 111 101.245
-53.8177 -334.878 0 104.809 88.8092
-61.2261 -349.061 0 97.031 77.031
-66.5691 -362.199 0 90 64.9434
-69.5104 -370.835 0 85.8385 56.8385
-78.0359 -373.625 0 77 55.3289
-76.4743 -360.107 0 80.5247 68.4753
-74.9996 -353.485 0 83 74.8438
-88.7743 -351.315 0 69.8678 79.1322
-97.2022 -359.772 0 60.2982 72
-105.898 -367.574 0 50.554 65.554
-108.668 -359.472 0 49 73.9741
-104.391 -347.374 0 55 85.3173
-97.8017 -335.311 0 63.2955 96.2955
-86.1766 -327.862 0 75.9327 102
-73.6228 -315.589 0 86 109.276
-70.3401 -298.024 0 88 123.448
-66.8452 -280.898 0 90.4379 137.438
-64.1957 -264.413 0 92 150.963
-61.324 -247.337 0 94 165.134
-58.6788 -231.682 0 97 178.892
-55.6777 -216.861 0 101 192.235
-51.74 -202.697 0 106.116 205.116
-46.0172 -189.874 0 113.265 217
-38.3791 -192.387 0 120.43 213.43
-23.8599 -182.065 0 133.087 219.087
-9.92644 -171.257 0 145 225.052
-6.61072 -163.194 0 148.809 232
6.10004 -157.29 0 161.694 235.694
13.9584 -146.103 0 170 244.081
13.7426 -130.907 0 171 257.839
13.4837 -115.225 0 172 272.425
15.6617 -99.8351 0 175 286.182
9.81001 -86.7547 0 169.921 299.079
4.02325 -74.0172 0 165 312.04
-8.18687 -70.8649 0 153.031 316
-15.0183 -58.8243 0 147 328.484
-22.7706 -47.8759 0 140.001 339.999
-31.8768 -37.2756 0 131.516 351.484
-40.3293 -26.4176 0 123.737 363.263
-48.1305 -15.5434 0 116.666 375.334
-57.6338 -5.34086 0 108.181 386.819
-66.9894 5.53277 0 99.6956 398.304
-77.5141 15.7038 0 89.7115 409
-71.3358 22.0149 0 96.2175 415
-58.2899 26.6364 0 109.561 419
-55.6858 36.0031 0 113 429.49
-60.7836 47.8124 0 109 442.833
-63.7502 61.1746 0 107 457.005
-67.2779 73.2756 0 104 470.762
-77.7971 79.1499 0 92.9758 480.024
-87.5436 85.2942 0 82.0762 489.924
-97.9176 89.2611 0 70.298 497.702
-106.911 95.8152 0 60.1059 507.894
-115.022 103.563 0 50.9132 519.087
-122.92 111.531 0 42.5491 529.451
-128.945 121.649 0 36.1849 541.815
-135.027 130.573 0 29 553.839
-141.036 139.009 0 21.7498 565.25
-148.345 148.886 0 13.9716 577.028
-156.004 159.735 0 6.60748 588.393
-159.984 173.052 0 3 601.898
-157.612 183.208 0 5.65576 612
-144.932 177.547 0 18.1705 606
-132.211 184.037 0 29.8989 613.899
-121.817 194.144 0 41.129 623
-111.042 203.735 0 52.4011 632
-99.1487 210.998 0 64.6477 638.648
-89.8853 211.758 0 73.938 638.938
-97.3865 200.294 0 65.8669 627.867
-103.635 187.813 0 59 615.711
-108.228 174.824 0 53.8459 602.846
-113.76 163.273 0 49 589.853
-111.279 156.866 0 53.4191 580
-101.879 151.103 0 64.4886 570.511
-92.5482 145.607 0 75.5491 561
-83.1809 140.049 0 86.5804 551.42
-73.6809 133.949 0 97.4802 541.52
-64.0065 128.254 0 108.537 532
-54.3264 122.54 0 119.572 522.428
-44.0107 119.536 0 131.643 515.357
-32.1785 117.391 0 144.593 510.407
-20.396 111.375 0 156 502.475
-12.2409 100.519 0 163 490.374
-4.06015 90.0275 0 170.514 478.486
5.86229 80.741 0 180 467.416
15.3266 70.6363 0 188.191 455.809
23.815 59.9543 0 195.262 443.738
34.7311 53.4521 0 206.057 435
44.1714 65.8296 0 216.526 444.526
54.3365 77.8186 0 227.602 454
64.5519 89.0511 0 238.911 462.911
75.0876 99.332 0 250.56 471
86.0692 110.233 0 262.174 479.174
98.3458 121.23 0 274.245 486.245
103.698 137.851 0 280 498.862
107.22 155.825 0 284 512.205
110.71 173.744 0 288 525.548
114.847 189.91 0 293 538.477
120.031 205.804 0 298.995 550.995
127.44 222.619 0 306.773 562.773
134.855 239.536 0 314.551 574.551
143.708 256.046 0 323.743 585.743
151.739 272.688 0 332.229 597.229
160.161 288.054 0 341.421 608.421
168.424 300.838 0 351 618.867
177.507 310.47 0 361.382 627
183.683 306.389 0 366.861 622
185.725 295.661 0 367.169 610.831
200.848 298.591 0 380.582 607
214.738 296.874 0 394.339 604
227.573 291.199 0 406.311 596.689
226.482 282.255 0 404.046 588
212.122 279.16 0 389.46 587
197.261 274.046 0 374.874 586
183.764 265.132 0 361.961 583.039
177.975 249.124 0 356 572.431
174.497 230.972 0 352 559.088
171.547 212.716 0 348.527 545.527
167.475 194.758 0 344 532.403
162.796 176.563 0 339 519.474
159.261 158.053 0 335.093 506.093
155.631 139.984 0 331 492.789
155.136 121.637 0 330 479.032
157.506 104.834 0 331 464.446
163.516 93.2401 0 336 452.689
154.83 84.135 0 326.538 444.538
146.806 71.4031 0 317.345 433.345
137.324 59.5412 0 306.86 423.86
141.975 53.7044 0 311 418.459
134.991 41.2005 0 303 407.358
127.833 27.0597 0 294.768 395.768
121.082 13.2275 0 286.99 383.99
113.426 0.00141767 0 278.505 372.505
105.84 -12.5714 0 270 361.027
97.6259 -25.4161 0 261 349.755
92.6845 -38.8202 0 255.998 338
95.4559 -50.4315 0 259 326.483
100.135 -63.1276 0 263 313.141
104.334 -76.1904 0 266 299.384
108.323 -89.1855 0 269 285.626
112.416 -101.16 0 273 272.284
123.031 -105.86 0 284.578 264.422
135.164 -106.123 0 297.331 261
148.544 -101.729 0 311.917 262
158.74 -102.82 0 322 258.155
168.948 -107.775 0 331.188 250
180.095 -100.96 0 344.531 252
193.471 -96.013 0 359.117 251
206.782 -90.7399 0 373.703 250
219.958 -86.5025 0 387.874 248
217.454 -73.4711 0 391 260.459
211.27 -59.6842 0 391 275.459
204.412 -46.7514 0 390 290.047
198.317 -33.0524 0 390 305.044
191.471 -20.1286 0 389 319.633
185.378 -6.42253 0 389 334.633
178.536 6.49579 0 388 349.217
172.442 20.2022 0 388 364.217
167.777 33.1917 0 389.018 377.982
173.027 33.6527 0 394 376.269
176.046 21.9398 0 392 364.34
183.632 9.80412 0 394 350.169
193.856 0.444874 0 399.537 337.463
206.802 -6.04662 0 408.73 326.27
220.738 -8.8979 0 420.304 318
234.63 -9.92739 0 432.579 311.421
248.521 -11.4908 0 444.649 304.351
262.432 -13.8067 0 456.428 296.572
273.922 -21.0173 0 464 285.295
283.725 -30.7577 0 469 272.366
291.243 -42.7778 0 471 258.194
297.998 -55.5793 0 472 243.608
303.736 -68.5156 0 472 229.438
309.627 -80.3165 0 472.64 216.36
315.924 -93.0876 0 473.238 202.238
319.265 -105.354 0 471.297 189.703
325.915 -118.479 0 471.996 174.996
329.001 -132.252 0 469.168 161.168
328.262 -146.142 0 462.804 148.804
321.467 -158.044 0 451.733 140.733
313.082 -169.19 0 439.522 134
304.907 -180.53 0 427.422 127
298.434 -192.731 0 416.52 118.52
295.399 -206.681 0 408.035 107.035
296.954 -220.501 0 403.792 93.7925
301.897 -233.456 0 403 79.9492
308.606 -243.519 0 405 68.0205
307.529 -251.448 0 400.772 61.2279
298.587 -240.733 0 397 74.6653
291.702 -227.833 0 396 89.2529
285.561 -214.15 0 396 104.253
278.673 -201.258 0 395 118.836
272.529 -187.573 0 395 133.837
266.383 -173.886 0 395 148.837
259.496 -160.983 0 394 163.422
253.343 -147.289 0 394 178.422
246.443 -134.416 0 393 193.009
240.257 -120.874 0 393 208.01
229.474 -117.665 0 384.873 215.873
216.088 -125.342 0 370.234 215
202.64 -132.739 0 355.649 214
189.003 -139.896 0 341.063 213
182.656 -149.785 0 332.72 206
168.412 -155.159 0 318.135 205
157.739 -164.781 0 306.439 198.439
152.95 -178.238 0 299.367 186.367
150.512 -190.434 0 294.581 175
157.792 -196.889 0 300.319 167
145.557 -199.871 0 287.862 166.862
144.231 -212.925 0 284 154.29
140.021 -226.287 0 277.134 142.134
135.611 -239.56 0 270 130.09
132.349 -251.412 0 264.235 119.235
129.598 -263.678 0 258.871 107.871
124.234 -275.715 0 251 97.303
118.711 -288.825 0 242.729 85.7291
111.012 -301.014 0 232.536 75.5365
98.0152 -306.246 0 218.708 73.2917
87.36 -311.974 0 207.052 70.0515
83.1442 -325.31 0 200 57.9727
90.9225 -333.768 0 205.713 48
98.304 -342.404 0 211 37.9436
97.2762 -346.916 0 209 33.7725
94.547 -357.545 0 203.989 24.0107
89.7702 -367.807 0 197.061 15.061
82.0237 -375.78 0 187.744 9
70.9163 -383.136 0 175.283 4.28345
55.764 -389.939 0 159 1
56.0236 -371.218 0 163.397 19.2
73.66 -181.765 0 222.418 199.851
64.0801 -253.798 0 197.158 131.895
93.3623 -279.368 0 220.087 100.537
-15.7173 21.9881 0 151.861 410.94
150.227 -131.344 0 306.586 232.878
243.751 -95.2464 0 406.468 230.06
113.646 -177.81 0 261.32 195.618
35.7089 -171.045 0 188.497 217.457
50.7009 -61.0861 0 212.946 320.627
97.6201 -235.595 0 233.86 142.326
280.177 -109.523 0 433.92 201.91
118.206 -204.455 0 260.625 168.349
58.223 -20.4979 0 222.394 359.242
63.5658 -112.616 0 221.899 268.749
-35.2295 77.3782 0 136.779 470.704
299.57 -137.654 0 440.11 168.305
249.168 -51.0347 0 429.173 267.959
83.3744 41.2245 0 251.883 414.403
116.535 89.8412 0 288.938 454.209
-2.10233 47.3484 0 167.384 435.514
-8.77448 -11.1266 0 156.203 376.245
101.432 -139.97 0 256.529 235.57
74.1161 -79.4978 0 235.437 299.924
43.0563 -136.777 0 199.546 248.849
271.286 -75.1612 0 439.635 236.523
84.7196 9.1176 0 250.681 384.232
89.8675 73.2924 0 261.248 443.175
4.56655 -36.6614 0 168.09 349.187
3 42 41 43
3 38 37 36
3 43 41 44
3 40 46 45
3 40 45 44
3 41 40 44
3 5 3 2
3 1 261 2
3 39 35 34
3 39 38 35
3 39 34 46
3 46 40 39
3 35 38 36
3 33 46 34
3 46 33 47
3 30 49 48
3 50 49 29
3 27 52 51
3 27 53 52
3 28 51 50
3 31 48 47
3 31 30 48
3 28 50 29
3 30 29 49
3 54 56 55
3 54 53 56
3 56 53 27
3 28 27 51
3 56 27 26
3 31 47 32
3 33 32 47
3 0 260 261
3 7 6 256
3 6 5 261
3 264 13 12
3 2 261 5
3 4 3 5
3 9 8 7
3 6 261 258
3 257 256 6
3 256 253 7
3 253 256 255
3 10 9 252
3 10 252 251
3 253 252 9
3 7 253 9
3 257 6 258
3 16 15 14
3 16 14 263
3 263 17 16
3 57 26 25
3 58 25 24
3 14 13 263
3 17 263 18
3 264 11 250
3 11 264 12
3 21 20 271
3 61 60 269
3 263 19 18
3 23 269 24
3 250 11 251
3 19 263 20
3 10 251 11
3 56 26 57
3 22 21 262
3 0 261 1
3 246 245 271
3 23 22 269
3 107 87 86
3 107 86 108
3 86 85 108
3 105 90 89
3 89 88 106
3 107 88 87
3 107 106 88
3 85 84 109
3 76 75 74
3 77 76 74
3 110 109 84
3 85 109 108
3 84 83 110
3 82 111 83
3 82 81 112
3 95 93 92
3 92 91 95
3 91 90 104
3 104 95 91
3 95 94 93
3 103 97 96
3 95 104 96
3 96 104 103
3 102 97 103
3 90 105 104
3 102 98 97
3 99 98 101
3 101 100 99
3 98 102 101
3 89 106 105
3 59 58 60
3 57 25 58
3 289 70 69
3 282 265 72
3 289 282 70
3 60 58 269
3 63 275 64
3 275 63 285
3 67 66 68
3 68 66 289
3 270 65 64
3 173 172 275
3 24 269 58
3 289 274 282
3 73 72 265
3 78 265 281
3 265 78 77
3 81 80 276
3 83 111 110
3 79 78 276
3 82 112 111
3 119 118 281
3 77 74 73
3 276 281 116
3 281 120 119
3 276 78 281
3 276 112 81
3 112 276 113
3 113 276 114
3 114 276 115
3 265 120 281
3 282 71 70
3 275 270 64
3 255 254 253
3 264 250 249
3 248 264 249
3 264 247 246
3 271 245 244
3 271 263 264
3 271 264 246
3 243 242 273
3 273 241 268
3 241 240 239
3 273 242 241
3 268 239 238
3 236 235 266
3 268 266 283
3 241 239 268
3 283 266 174
3 266 176 175
3 177 176 266
3 234 178 266
3 266 178 177
3 283 174 173
3 284 172 171
3 283 285 262
3 266 235 234
3 179 234 233
3 232 231 181
3 180 233 232
3 179 233 180
3 181 180 232
3 182 181 231
3 230 267 231
3 234 179 178
3 284 171 170
3 222 221 218
3 221 219 218
3 219 221 220
3 223 222 217
3 216 224 223
3 226 225 214
3 215 225 224
3 222 218 217
3 216 215 224
3 217 216 223
3 226 214 277
3 277 212 211
3 277 214 213
3 215 214 225
3 277 211 210
3 182 231 267
3 278 286 203
3 227 277 228
3 207 272 208
3 184 278 185
3 184 183 278
3 201 200 278
3 278 199 198
3 226 277 227
3 272 207 206
3 208 272 277
3 206 205 286
3 273 262 21
3 205 204 286
3 267 183 182
3 203 202 278
3 206 286 272
3 273 21 271
3 208 277 209
3 277 210 209
3 169 168 270
3 270 284 169
3 270 168 274
3 163 279 164
3 165 287 166
3 165 164 287
3 287 120 274
3 284 170 169
3 163 162 279
3 160 288 162
3 279 288 122
3 161 160 162
3 158 280 159
3 160 280 288
3 287 164 279
3 158 156 280
3 124 123 288
3 280 160 159
3 288 280 125
3 153 129 128
3 129 152 130
3 128 127 154
3 126 155 127
3 154 127 155
3 130 152 131
3 153 128 154
3 132 131 151
3 150 133 132
3 133 149 134
3 134 148 135
3 153 152 129
3 126 280 155
3 156 155 280
3 158 157 156
3 194 189 188
3 187 195 188
3 194 190 189
3 192 190 193
3 190 192 191
3 193 190 194
3 196 187 186
3 186 185 197
3 197 185 198
3 278 198 185
3 196 195 187
3 194 188 195
3 197 196 186
3 151 150 132
3 149 133 150
3 134 149 148
3 140 137 136
3 137 139 138
3 147 136 135
3 148 147 135
3 131 152 151
3 147 146 140
3 145 144 142
3 146 145 141
3 139 137 140
3 145 142 141
3 141 140 146
3 143 142 144
3 140 136 147
3 260 259 261
3 199 278 200
3 258 261 259
3 247 264 248
3 13 264 263
3 73 265 77
3 72 71 282
3 174 266 175
3 237 236 266
3 272 230 229
3 204 203 286
3 238 237 268
3 266 268 237
3 22 262 269
3 283 262 268
3 168 167 274
3 66 65 270
3 271 244 243
3 20 263 271
3 230 272 267
3 228 272 229
3 262 273 268
3 243 273 271
3 287 167 166
3 282 120 265
3 62 285 63
3 62 61 285
3 79 276 80
3 116 115 276
3 277 272 228
3 213 212 277
3 267 278 183
3 202 201 278
3 122 121 279
3 279 121 120
3 126 125 280
3 288 125 124
3 118 117 281
3 281 117 116
3 289 69 68
3 120 282 274
3 173 275 283
3 283 275 285
3 270 275 284
3 172 284 275
3 61 269 285
3 262 285 269
3 278 267 286
3 272 286 267
3 120 287 279
3 167 287 274
3 122 288 123
3 288 279 162
3 274 289 270
3 66 270 289
