ply
format ascii 1.0
element vertex 290
property float x
property float y
property float z
property float u
property float v
element face 317
property list uchar int vertex_indices
end_header
64.5332 -393.99 0 147.636 8.36396
54.3047 -385.768 0 139.979 19.0208
50.5336 -372.102 0 140 33.201
50.4674 -358.134 0 143.678 46.6777
61.3431 -351.663 0 155.887 50
69.5438 -362.077 0 161 37.7695
75.3806 -360.663 0 167 37.5736
79.0465 -347.696 0 174 49.0883
81.18 -333.996 0 179.719 61.7193
93.9897 -335.338 0 191.704 57
97.4896 -324.373 0 198 66.6324
98.8603 -310.578 0 203 79.5613
90.1567 -304.466 0 196.239 87.7609
77.8846 -298.499 0 186 96.7624
65.8985 -292.308 0 176.097 105.903
54.4746 -285.011 0 167.026 115.974
55.9322 -272.335 0 171.803 127.803
53.6611 -263.345 0 172 137.064
56.2756 -250.241 0 177.995 148.995
59.8933 -236.713 0 185.066 161.066
67.9447 -225.36 0 195.844 169.844
72.148 -211.769 0 203.622 181.622
65.6552 -207.195 0 199.605 187
52.2687 -213.999 0 186.185 183.185
38.747 -221.506 0 172.919 179
23.9179 -229.676 0 159.407 175.407
8.09763 -236.641 0 145.818 174
-5.14712 -249.168 0 134 166.718
-9.35496 -266.469 0 130.265 153.265
-13.8502 -283.315 0 126 140.032
-19.1108 -299.937 0 121 127.103
-23.4033 -316.621 0 116.83 113.83
-28.4233 -331.881 0 111 101.245
-33.7055 -347.014 0 104.809 88.8092
-40.2983 -361.545 0 97.031 77.031
-44.9044 -374.953 0 90 64.9434
-47.3636 -383.739 0 85.8385 56.8385
-55.7219 -386.996 0 77 55.3289
-54.91 -373.411 0 80.5247 68.4753
-53.8031 -366.717 0 83 74.8438
-67.6745 -365.308 0 69.8678 79.1322
-75.6218 -374.218 0 60.2982 72
-83.8726 -382.489 0 50.554 65.554
-87.0863 -374.553 0 49 73.9741
-83.4851 -362.236 0 55 85.3173
-77.5728 -349.827 0 63.2955 96.2955
-66.3769 -341.746 0 75.9327 102
-54.5565 -328.871 0 86 109.276
-52.2549 -311.202 0 88 123.448
-49.6927 -293.957 0 90.4379 137.438
-47.9252 -277.395 0 92 150.963
-45.9502 -260.232 0 94 165.134
-44.0962 -244.466 0 97 178.892
-41.8233 -229.491 0 101 192.235
-38.5415 -215.149 0 106.116 205.116
-33.3833 -202.088 0 113.265 217
-25.6531 -204.266 0 120.43 213.43
-11.6773 -193.318 0 133.087 219.087
1.69685 -181.91 0 145 225.052
4.68221 -173.676 0 148.809 232
17.1401 -167.232 0 161.694 235.694
24.5827 -155.555 0 170 244.081
23.93 -140.155 0 171 257.839
23.3196 -124.304 0 172 272.425
25.3262 -108.661 0 175 286.182
19.347 -95.6147 0 169.921 299.079
13.3955 -82.9615 0 165 312.04
1.14554 -79.991 0 153.031 316
-5.85394 -68.0559 0 147 328.484
-13.7544 -57.2165 0 140.001 339.999
-22.9816 -46.7832 0 131.516 351.484
-31.5589 -36.0757 0 123.737 363.263
-39.4914 -25.3862 0 116.666 375.334
-49.1728 -15.3262 0 108.181 386.819
-58.6165 -4.48727 0 99.6956 398.304
-69.1772 5.64907 0 89.7115 409
-63.0224 11.9801 0 96.2175 415
-50.0056 16.6434 0 109.561 419
-47.4678 25.8479 0 113 429.49
-52.616 37.5217 0 109 442.833
-55.5563 50.8824 0 107 457.005
-58.8849 62.8719 0 104 470.762
-68.9729 68.4707 0 92.9758 480.024
-78.0017 74.2241 0 82.0762 489.924
-87.6531 77.8574 0 70.298 497.702
-95.8158 84.0828 0 60.1059 507.894
-103.036 91.5316 0 50.9132 519.087
-110.233 99.452 0 42.5491 529.451
-115.444 109.474 0 36.1849 541.815
-120.454 118.173 0 29 553.839
-125.32 126.45 0 21.7498 565.25
-131.616 136.541 0 13.9716 577.028
-138.452 147.881 0 6.60748 588.393
-141.481 161.439 0 3 601.898
-138.405 171.405 0 5.65576 612
-126.148 164.873 0 18.1705 606
-112.411 170.153 0 29.8989 613.899
-101.467 179.608 0 41.129 623
-90.0548 188.426 0 52.4011 632
-77.6817 194.837 0 64.6477 638.648
-68.3879 194.945 0 73.938 638.938
-76.6756 184.035 0 65.8669 627.867
-83.7876 172.026 0 59 615.711
-89.3171 159.419 0 53.8459 602.846
-96.1443 148.666 0 49 589.853
-94.9867 142.897 0 53.4191 580
-86.7554 137.415 0 64.4886 570.511
-78.5683 132.317 0 75.5491 561
-70.2918 127.192 0 86.5804 551.42
-61.7976 121.509 0 97.4802 541.52
-53.077 116.268 0 108.537 532
-44.3241 111.063 0 119.572 522.428
-34.9105 108.645 0 131.643 515.357
-23.653 106.812 0 144.593 510.407
-12.1229 100.919 0 156 502.475
-4.14587 90.2126 0 163 490.374
3.76786 80.0102 0 170.514 478.486
13.4682 71.0624 0 180 467.416
22.9459 61.2392 0 188.191 455.809
31.5095 50.8838 0 195.262 443.738
42.2048 44.9445 0 206.057 435
51.2317 57.7772 0 216.526 444.526
61.0313 70.1755 0 227.602 454
70.8432 81.8104 0 238.911 462.911
80.9643 92.5269 0 250.56 471
91.5781 103.983 0 262.174 479.174
103.588 115.766 0 274.245 486.245
108.474 133.086 0 280 498.862
111.48 151.85 0 284 512.205
114.438 170.557 0 288 525.548
118.01 187.313 0 293 538.477
122.634 203.85 0 298.995 550.995
129.521 221.647 0 306.773 562.773
136.401 239.566 0 314.551 574.551
144.719 257.154 0 323.743 585.743
152.176 274.831 0 332.229 597.229
159.984 291.09 0 341.421 608.421
167.603 304.479 0 351 618.867
176.136 314.615 0 361.382 627
182.535 310.895 0 366.861 622
185.199 300.341 0 367.169 610.831
200.501 304.884 0 380.582 607
214.42 303.855 0 394.339 604
227.55 298.902 0 406.311 596.689
226.959 289.905 0 404.046 588
212.783 285.988 0 389.46 587
198.065 279.707 0 374.874 586
184.747 269.384 0 361.961 583.039
179.448 252.329 0 356 572.431
176.566 233.301 0 352 559.088
174.197 214.204 0 348.527 545.527
170.677 195.354 0 344 532.403
166.523 176.179 0 339 519.474
163.514 156.741 0 335.093 506.093
160.402 137.799 0 331 492.789
160.415 118.675 0 330 479.032
163.37 101.516 0 331 464.446
169.776 90.07 0 336 452.689
161.411 80.6234 0 326.538 444.538
153.806 67.4359 0 317.345 433.345
144.664 54.9493 0 306.86 423.86
149.466 49.0684 0 311 418.459
142.807 36.2254 0 303 407.358
135.966 21.5163 0 294.768 395.768
129.48 7.21851 0 286.99 383.99
122.022 -6.40253 0 278.505 372.505
114.625 -19.2332 0 270 361.027
106.53 -32.392 0 261 349.755
101.544 -46.0492 0 255.998 338
104.246 -57.5887 0 259 326.483
109.034 -70.1288 0 263 313.141
113.417 -83.0372 0 266 299.384
117.547 -95.8142 0 269 285.626
121.58 -107.394 0 273 272.284
131.794 -111.453 0 284.578 264.422
143.629 -111.151 0 297.331 261
156.688 -106.229 0 311.917 262
166.746 -106.881 0 322 258.155
176.726 -111.322 0 331.188 250
186.687 -103.87 0 344.531 252
198.846 -98.108 0 359.117 251
210.9 -91.9682 0 373.703 250
223.002 -86.8269 0 387.874 248
219.129 -74.013 0 391 260.459
211.794 -60.7375 0 391 275.459
203.946 -48.365 0 390 290.047
196.833 -35.1662 0 390 305.044
189.031 -22.7962 0 389 319.633
181.92 -9.58919 0 389 334.633
174.123 2.77567 0 388 349.217
167.011 15.9824 0 388 364.217
161.379 28.5825 0 389.018 377.982
166.579 29.4387 0 394 376.269
170.473 17.9871 0 392 364.34
178.955 6.45939 0 394 350.169
189.856 -2.10136 0 399.537 337.463
203.255 -7.59697 0 408.73 326.27
217.366 -9.38799 0 420.304 318
231.292 -9.36888 0 432.579 311.421
245.253 -9.88146 0 444.649 304.351
259.293 -11.1384 0 456.428 296.572
271.286 -17.4561 0 464 285.295
281.77 -26.4212 0 469 272.366
290.081 -37.828 0 471 258.194
297.691 -50.0652 0 472 243.608
304.389 -62.517 0 472 229.438
311.235 -73.8283 0 472.64 216.36
318.575 -86.0749 0 473.238 202.238
322.874 -98.0433 0 471.297 189.703
330.524 -110.608 0 471.996 174.996
334.67 -124.099 0 469.168 161.168
335.013 -138.004 0 462.804 148.804
329.163 -150.399 0 451.733 140.733
321.669 -162.163 0 439.522 134
314.399 -174.103 0 427.422 127
308.895 -186.769 0 416.52 118.52
306.953 -200.914 0 408.035 107.035
309.578 -214.571 0 403.792 93.7925
315.513 -227.102 0 403 79.9492
322.984 -236.613 0 405 68.0205
322.527 -244.601 0 400.772 61.2279
312.778 -234.614 0 397 74.6653
304.912 -222.288 0 396 89.2529
297.725 -209.124 0 396 104.253
289.856 -196.807 0 395 118.836
282.667 -183.64 0 395 133.837
275.476 -170.471 0 395 148.837
267.608 -158.141 0 394 163.422
260.412 -144.961 0 394 178.422
252.565 -132.658 0 393 193.009
245.452 -119.629 0 393 208.01
234.853 -117.28 0 384.873 215.873
222.801 -125.945 0 370.234 215
210.602 -134.265 0 355.649 214
198.201 -142.297 0 341.063 213
192.713 -152.518 0 332.72 206
178.823 -158.616 0 318.135 205
168.617 -168.687 0 306.439 198.439
164.471 -182.243 0 299.367 186.367
162.602 -194.481 0 294.581 175
170.179 -200.557 0 300.319 167
158.1 -204.093 0 287.862 166.862
157.405 -217.11 0 284 154.29
153.835 -230.616 0 277.134 142.134
150.062 -244.055 0 270 130.09
147.367 -256.041 0 264.235 119.235
145.199 -268.421 0 258.871 107.871
140.412 -280.695 0 251 97.303
135.518 -294.052 0 242.729 85.7291
128.406 -306.592 0 232.536 75.5365
115.672 -312.436 0 218.708 73.2917
105.302 -318.663 0 207.052 70.0515
101.725 -332.184 0 200 57.9727
109.897 -340.263 0 205.713 48
117.681 -348.537 0 211 37.9436
116.87 -353.093 0 209 33.7725
114.649 -363.84 0 203.989 24.0107
110.367 -374.318 0 197.061 15.061
103.009 -382.65 0 187.744 9
92.264 -390.527 0 175.283 4.28345
77.4526 -398.044 0 159 1
76.8209 -379.332 0 163.397 19.2
85.5077 -189.125 0 222.418 199.851
79.2875 -261.651 0 197.158 131.895
109.748 -285.81 0 220.087 100.537
-7.4487 12.2861 0 151.861 410.94
159.526 -135.755 0 306.586 232.878
246.992 -93.8012 0 406.468 230.06
125.195 -183.588 0 261.32 195.618
47.2282 -179.822 0 188.497 217.457
59.752 -69.1198 0 212.946 320.627
111.926 -241.889 0 233.86 142.326
284.232 -105.228 0 433.92 201.91
131.011 -209.863 0 260.625 168.349
66.975 -28.3604 0 222.394 359.242
73.331 -120.336 0 221.899 268.749
-26.9571 66.9166 0 136.779 470.704
305.748 -131.772 0 440.11 168.305
248.887 -49.2648 0 429.173 267.959
91.1669 34.4604 0 251.883 414.403
122.954 84.9352 0 288.938 454.209
6.01626 37.5683 0 167.384 435.514
-0.136557 -20.4679 0 156.203 376.245
111.594 -146.367 0 256.529 235.57
83.3037 -86.9884 0 235.437 299.924
53.3569 -145.212 0 199.546 248.849
272.504 -71.623 0 439.635 236.523
93.1309 2.07652 0 250.681 384.232
96.7919 67.0943 0 261.248 443.175
13.4312 -45.6268 0 168.09 349.187
3 42 41 43
3 38 37 36
3 43 41 44
3 40 46 45
3 40 45 44
3 41 40 44
3 5 3 2
3 1 261 2
3 39 35 34
3 39 38 35
3 39 34 46
3 46 40 39
3 35 38 36
3 33 46 34
3 46 33 47
3 30 49 48
3 50 49 29
3 27 52 51
3 27 53 52
3 28 51 50
3 31 48 47
3 31 30 48
3 28 50 29
3 30 29 49
3 54 56 55
3 54 53 56
3 56 53 27
3 28 27 51
3 56 27 26
3 31 47 32
3 33 32 47
3 0 260 261
3 7 6 256
3 6 5 261
3 264 13 12
3 2 261 5
3 4 3 5
3 9 8 7
3 6 261 258
3 257 256 6
3 256 253 7
3 253 256 255
3 10 9 252
3 10 252 251
3 253 252 9
3 7 253 9
3 257 6 258
3 16 15 14
3 16 14 263
3 263 17 16
3 57 26 25
3 58 25 24
3 14 13 263
3 17 263 18
3 264 11 250
3 11 264 12
3 21 20 271
3 61 60 269
3 263 19 18
3 23 269 24
3 250 11 251
3 19 263 20
3 10 251 11
3 56 26 57
3 22 21 262
3 0 261 1
3 246 245 271
3 23 22 269
3 107 87 86
3 107 86 108
3 86 85 108
3 105 90 89
3 89 88 106
3 107 88 87
3 107 106 88
3 85 84 109
3 76 75 74
3 77 76 74
3 110 109 84
3 85 109 108
3 84 83 110
3 82 111 83
3 82 81 112
3 95 93 92
3 92 91 95
3 91 90 104
3 104 95 91
3 95 94 93
3 103 97 96
3 95 104 96
3 96 104 103
3 102 97 103
3 90 105 104
3 102 98 97
3 99 98 101
3 101 100 99
3 98 102 101
3 89 106 105
3 59 58 60
3 57 25 58
3 289 70 69
3 282 265 72
3 289 282 70
3 60 58 269
3 63 275 64
3 275 63 285
3 67 66 68
3 68 66 289
3 270 65 64
3 173 172 275
3 24 269 58
3 289 274 282
3 73 72 265
3 78 265 281
3 265 78 77
3 81 80 276
3 83 111 110
3 79 78 276
3 82 112 111
3 119 118 281
3 77 74 73
3 276 281 116
3 281 120 119
3 276 78 281
3 276 112 81
3 112 276 113
3 113 276 114
3 114 276 115
3 265 120 281
3 282 71 70
3 275 270 64
3 255 254 253
3 264 250 249
3 248 264 249
3 264 247 246
3 271 245 244
3 271 263 264
3 271 264 246
3 243 242 273
3 273 241 268
3 241 240 239
3 273 242 241
3 268 239 238
3 236 235 266
3 268 266 283
3 241 239 268
3 283 266 174
3 266 176 175
3 177 176 266
3 234 178 266
3 266 178 177
3 283 174 173
3 284 172 171
3 283 285 262
3 266 235 234
3 179 234 233
3 232 231 181
3 180 233 232
3 179 233 180
3 181 180 232
3 182 181 231
3 230 267 231
3 234 179 178
3 284 171 170
3 222 221 218
3 221 219 218
3 219 221 220
3 223 222 217
3 216 224 223
3 226 225 214
3 215 225 224
3 222 218 217
3 216 215 224
3 217 216 223
3 226 214 277
3 277 212 211
3 277 214 213
3 215 214 225
3 277 211 210
3 182 231 267
3 278 286 203
3 227 277 228
3 207 272 208
3 184 278 185
3 184 183 278
3 201 200 278
3 278 199 198
3 226 277 227
3 272 207 206
3 208 272 277
3 206 205 286
3 273 262 21
3 205 204 286
3 267 183 182
3 203 202 278
3 206 286 272
3 273 21 271
3 208 277 209
3 277 210 209
3 169 168 270
3 270 284 169
3 270 168 274
3 163 279 164
3 165 287 166
3 165 164 287
3 287 120 274
3 284 170 169
3 163 162 279
3 160 288 162
3 279 288 122
3 161 160 162
3 158 280 159
3 160 280 288
3 287 164 279
3 158 156 280
3 124 123 288
3 280 160 159
3 288 280 125
3 153 129 128
3 129 152 130
3 128 127 154
3 126 155 127
3 154 127 155
3 130 152 131
3 153 128 154
3 132 131 151
3 150 133 132
3 133 149 134
3 134 148 135
3 153 152 129
3 126 280 155
3 156 155 280
3 158 157 156
3 194 189 188
3 187 195 188
3 194 190 189
3 192 190 193
3 190 192 191
3 193 190 194
3 196 187 186
3 186 185 197
3 197 185 198
3 278 198 185
3 196 195 187
3 194 188 195
3 197 196 186
3 151 150 132
3 149 133 150
3 134 149 148
3 140 137 136
3 137 139 138
3 147 136 135
3 148 147 135
3 131 152 151
3 147 146 140
3 145 144 142
3 146 145 141
3 139 137 140
3 145 142 141
3 141 140 146
3 143 142 144
3 140 136 147
3 260 259 261
3 199 278 200
3 258 261 259
3 247 264 248
3 13 264 263
3 73 265 77
3 72 71 282
3 174 266 175
3 237 236 266
3 272 230 229
3 204 203 286
3 238 237 268
3 266 268 237
3 22 262 269
3 283 262 268
3 168 167 274
3 66 65 270
3 271 244 243
3 20 263 271
3 230 272 267
3 228 272 229
3 262 273 268
3 243 273 271
3 287 167 166
3 282 120 265
3 62 285 63
3 62 61 285
3 79 276 80
3 116 115 276
3 277 272 228
3 213 212 277
3 267 278 183
3 202 201 278
3 122 121 279
3 279 121 120
3 126 125 280
3 288 125 124
3 118 117 281
3 281 117 116
3 289 69 68
3 120 282 274
3 173 275 283
3 283 275 285
3 270 275 284
3 172 284 275
3 61 269 285
3 262 285 269
3 278 267 286
3 272 286 267
3 120 287 279
3 167 287 274
3 122 288 123
3 288 279 162
3 274 289 270
3 66 270 289
