ply
format ascii 1.0
element vertex 290
property float x
property float y
property float z
property float u
property float v
element face 317
property list uchar int vertex_indices
end_header
-5.03786 -339.497 0 147.636 8.36396
-13.6073 -329.558 0 139.979 19.0208
-14.8387 -315.433 0 140 33.201
-12.3706 -301.684 0 143.678 46.6777
-0.502312 -297.293 0 155.887 50
5.67425 -309.022 0 161 37.7695
11.6706 -308.688 0 167 37.5736
17.6265 -296.601 0 174 49.0883
22.2081 -283.515 0 179.719 61.7193
34.5624 -287.157 0 191.704 57
39.9903 -277.008 0 198 66.6324
43.8364 -263.689 0 203 79.5613
36.3836 -256.108 0 196.239 87.7609
25.3961 -248.03 0 186 96.7624
14.7301 -239.785 0 176.097 105.903
4.81274 -230.546 0 167.026 115.974
8.53671 -218.343 0 171.803 127.803
7.9257 -209.095 0 172 137.064
12.8603 -196.683 0 177.995 148.995
18.8563 -184.037 0 185.066 161.066
28.8272 -174.345 0 195.844 169.844
35.4907 -161.879 0 203.622 181.622
30.5805 -156.712 0 199.605 187
17.0061 -161.505 0 186.185 183.185
3.46005 -166.763 0 172.919 179
-10.8036 -171.856 0 159.407 175.407
-25.5116 -175.091 0 145.818 174
-38.2258 -184.123 0 134 166.718
-42.5594 -198.935 0 130.265 153.265
-47.3136 -213.438 0 126 140.032
-52.8158 -227.654 0 121 127.103
-57.4346 -242.122 0 116.83 113.83
-63.2976 -255.631 0 111 101.245
-69.4827 -268.998 0 104.809 88.8092
-77.1309 -281.711 0 97.031 77.031
-83.486 -294.253 0 90 64.9434
-87.156 -302.597 0 85.8385 56.8385
-95.8893 -304.637 0 77 55.3289
-93.1628 -291.303 0 80.5247 68.4753
-91.0927 -284.811 0 83 74.8438
-104.523 -281.374 0 69.8678 79.1322
-113.65 -289.068 0 60.2982 72
-122.988 -296.089 0 50.554 65.554
-125.046 -287.777 0 49 73.9741
-119.738 -276.094 0 55 85.3173
-112.122 -264.64 0 63.2955 96.2955
-99.8681 -258.202 0 75.9327 102
-88.7385 -249.058 0 86 109.276
-86.1879 -233.64 0 88 123.448
-83.2911 -218.498 0 90.4379 137.438
-81.2603 -203.893 0 92 150.963
-78.8788 -188.656 0 94 165.134
-76 -174.178 0 97 178.892
-72.3834 -160.249 0 101 192.235
-67.7199 -146.851 0 106.116 205.116
-61.1257 -134.574 0 113.265 217
-53.757 -137.732 0 120.43 213.43
-40.2853 -130.318 0 133.087 219.087
-27.4882 -122.533 0 145 225.052
-23.852 -115.142 0 148.809 232
-10.9987 -110.577 0 161.694 235.694
-2.80593 -101.088 0 170 244.081
-2.24893 -86.7594 0 171 257.839
-1.72236 -71.744 0 172 272.425
0.972165 -57.3742 0 175 286.182
-4.42766 -44.4356 0 169.921 299.079
-9.72181 -31.5843 0 165 312.04
-21.8017 -27.9606 0 153.031 316
-28.1716 -15.6578 0 147 328.484
-35.499 -4.37964 0 140.001 339.999
-44.2723 6.7435 0 131.516 351.484
-52.3616 18.1529 0 123.737 363.263
-59.7716 29.7618 0 116.666 375.334
-68.6996 40.7643 0 108.181 386.819
-77.547 52.0094 0 99.6956 398.304
-87.7637 62.4853 0 89.7115 409
-81.3959 68.6213 0 96.2175 415
-68.1717 72.892 0 109.561 419
-65.0926 83.0025 0 113 429.49
-69.5398 95.8001 0 109 442.833
-71.9331 109.691 0 107 457.005
-75.1609 122.86 0 104 470.762
-86.0081 130.862 0 92.9758 480.024
-96.4923 139.341 0 82.0762 489.924
-107.759 145.676 0 70.298 497.702
-117.51 154.49 0 60.1059 507.894
-126.301 164.376 0 50.9132 519.087
-134.49 173.835 0 42.5491 529.451
-140.725 185.352 0 36.1849 541.815
-147.493 196.188 0 29 553.839
-154.277 206.448 0 21.7498 565.25
-161.875 217.484 0 13.9716 577.028
-169.356 228.634 0 6.60748 588.393
-173.127 242.059 0 3 601.898
-170.599 252.188 0 5.65576 612
-158.007 246.342 0 18.1705 606
-145.902 253.697 0 29.8989 613.899
-134.981 263.187 0 41.129 623
-123.894 272.414 0 52.4011 632
-111.777 279.298 0 64.6477 638.648
-102.494 279.766 0 73.938 638.938
-110.352 268.543 0 65.8669 627.867
-116.986 256.26 0 59 615.711
-121.928 243.345 0 53.8459 602.846
-127.02 230.913 0 49 589.853
-123.306 222.383 0 53.4191 580
-112.843 214.309 0 64.4886 570.511
-102.419 206.324 0 75.5491 561
-91.9996 198.274 0 86.5804 551.42
-81.6149 189.816 0 97.4802 541.52
-71.0665 181.749 0 108.537 532
-60.5304 173.647 0 119.572 522.428
-49.0992 168.131 0 131.643 515.357
-36.5364 164.255 0 144.593 510.407
-24.9772 157.033 0 156 502.475
-17.5481 145.39 0 163 490.374
-9.78636 134.049 0 170.514 478.486
-0.115588 123.678 0 180 467.416
8.57566 112.64 0 188.191 455.809
16.2056 101.1 0 195.262 443.738
27.0651 93.2539 0 206.057 435
37.0983 103.882 0 216.526 444.526
47.7858 114.338 0 227.602 454
58.6357 124.177 0 238.911 462.911
69.8207 133.168 0 250.56 471
81.1551 142.433 0 262.174 479.174
93.2828 151.02 0 274.245 486.245
98.8199 165.134 0 280 498.862
102.575 180.203 0 284 512.205
106.314 195.254 0 288 525.548
110.896 209.423 0 293 538.477
116.496 223.244 0 298.995 550.995
124.075 236.95 0 306.773 562.773
131.654 250.695 0 314.551 574.551
140.659 263.94 0 323.743 585.743
148.898 277.417 0 332.229 597.229
157.702 290.26 0 341.421 608.421
166.663 301.717 0 351 618.867
176.456 310.578 0 361.382 627
182.28 305.993 0 366.861 622
183.406 294.969 0 367.169 610.831
197.615 293.797 0 380.582 607
211.473 291.485 0 394.339 604
223.891 284.957 0 406.311 596.689
222.192 276.128 0 404.046 588
207.684 274.127 0 389.46 587
192.954 271.396 0 374.874 586
179.767 266.064 0 361.961 583.039
173.917 253.394 0 356 572.431
170.196 238.232 0 352 559.088
167.001 222.905 0 348.527 545.527
162.715 207.954 0 344 532.403
157.893 193.038 0 339 519.474
154.186 177.733 0 335.093 506.093
150.328 162.636 0 331 492.789
149.579 147.18 0 330 479.032
151.188 131.752 0 331 464.446
156.668 120.09 0 336 452.689
147.561 111.488 0 326.538 444.538
138.874 99.6163 0 317.345 433.345
128.797 89.1319 0 306.86 423.86
133.149 83.5835 0 311 418.459
125.58 71.8925 0 303 407.358
117.771 59.2764 0 294.768 395.768
110.401 46.6639 0 286.99 383.99
102.251 34.4647 0 278.505 372.505
94.1285 22.5174 0 270 361.027
85.4327 10.5998 0 261 349.755
80.4339 -1.78987 0 255.998 338
83.362 -13.3137 0 259 326.483
87.6737 -26.3971 0 263 313.141
91.1916 -39.8969 0 266 299.384
94.625 -53.3719 0 269 285.626
98.7357 -66.1677 0 273 272.284
110.075 -72.7404 0 284.578 264.422
122.706 -74.8978 0 297.331 261
136.944 -72.5488 0 311.917 262
147.172 -75.3351 0 322 258.155
156.873 -82.2813 0 331.188 250
169.594 -78.3467 0 344.531 252
183.974 -77.0451 0 359.117 251
198.356 -75.6303 0 373.703 250
212.443 -75.2493 0 387.874 248
213.558 -62.2688 0 391 260.459
211.263 -47.3895 0 391 275.459
208.069 -33.1096 0 390 290.047
205.81 -18.2848 0 390 305.044
202.622 -4.01158 0 389 319.633
200.367 10.8174 0 389 334.633
197.181 25.0849 0 388 349.217
194.928 39.9152 0 388 364.217
193.861 53.6758 0 389.018 377.982
199.046 52.7332 0 394 376.269
198.862 40.6385 0 392 364.34
202.97 26.9287 0 394 350.169
210.358 15.2009 0 399.537 337.463
221.129 5.51959 0 408.73 326.27
233.817 -0.912616 0 420.304 318
246.942 -5.56894 0 432.579 311.421
259.933 -10.7417 0 444.649 304.351
272.744 -16.6525 0 456.428 296.572
281.925 -26.6515 0 464 285.295
288.811 -38.6595 0 469 272.366
292.903 -52.311 0 471 258.194
296.066 -66.5172 0 472 243.608
298.201 -80.5135 0 472 229.438
300.809 -93.3794 0 472.64 216.36
303.542 -107.289 0 473.238 202.238
303.529 -119.982 0 471.297 189.703
306.464 -134.405 0 471.996 174.996
305.783 -148.502 0 469.168 161.168
301.383 -161.695 0 462.804 148.804
291.674 -171.365 0 451.733 140.733
280.633 -179.884 0 439.522 134
269.744 -188.649 0 427.422 127
260.266 -198.696 0 416.52 118.52
253.636 -211.339 0 408.035 107.035
251.469 -225.077 0 403.792 93.7925
252.796 -238.878 0 403 79.9492
256.592 -250.362 0 405 68.0205
253.45 -257.72 0 400.772 61.2279
247.673 -245.016 0 397 74.6653
244.459 -230.751 0 396 89.2529
242.17 -215.929 0 396 104.253
238.949 -201.671 0 395 118.836
236.659 -186.846 0 395 133.837
234.367 -172.022 0 395 148.837
231.151 -157.759 0 394 163.422
228.859 -142.931 0 394 178.422
225.64 -128.679 0 393 193.009
223.337 -113.903 0 393 208.01
214.048 -107.607 0 384.873 215.873
199.601 -111.04 0 370.234 215
185.195 -114.459 0 355.649 214
170.748 -117.792 0 341.063 213
163.08 -125.931 0 332.72 206
148.496 -128.583 0 318.135 205
137.128 -136.317 0 306.439 198.439
130.928 -148.967 0 299.367 186.367
127.045 -160.708 0 294.581 175
133.434 -168.141 0 300.319 167
120.989 -169.395 0 287.862 166.862
118.123 -182.213 0 284 154.29
112.276 -194.906 0 277.134 142.134
106.188 -207.502 0 270 130.09
101.385 -218.816 0 264.235 119.235
97.0262 -230.605 0 258.871 107.871
90.104 -241.818 0 251 97.303
82.8752 -254.069 0 242.729 85.7291
73.6126 -265.115 0 232.536 75.5365
60.0335 -268.557 0 218.708 73.2917
48.7072 -272.807 0 207.052 70.0515
42.7408 -285.457 0 200 57.9727
49.3128 -294.884 0 205.713 48
55.4682 -304.433 0 211 37.9436
53.8439 -308.766 0 209 33.7725
49.7128 -318.932 0 203.989 24.0107
43.6012 -328.46 0 197.061 15.061
34.855 -335.32 0 187.744 9
22.861 -341.118 0 175.283 4.28345
6.9327 -345.826 0 159 1
9.7026 -327.309 0 163.397 19.2
52.6456 -142.069 0 222.418 199.851
33.4377 -212.052 0 197.158 131.895
59.0245 -241.298 0 220.087 100.537
-25.7232 66.212 0 151.861 410.94
134.272 -102.055 0 306.586 232.878
233.352 -90.0715 0 406.468 230.06
92.1553 -143.121 0 261.32 195.618
16.9941 -127.086 0 188.497 217.457
37.7766 -21.1887 0 212.946 320.627
69.0996 -198.477 0 233.86 142.326
264.731 -113.625 0 433.92 201.91
93.5595 -170.275 0 260.625 168.349
46.4052 18.1912 0 222.394 359.242
48.3509 -72.9159 0 221.899 268.749
-42.6283 124.377 0 136.779 470.704
275.975 -145.893 0 440.11 168.305
250.115 -49.0504 0 429.173 267.959
74.1359 75.965 0 251.883 414.403
109.586 119.352 0 288.938 454.209
-10.9816 91.1284 0 167.384 435.514
-20.2579 32.0964 0 156.203 376.245
84.3983 -103.815 0 256.529 235.57
60.707 -40.9363 0 235.437 299.924
26.6448 -94.5126 0 199.546 248.849
265.136 -78.3898 0 439.635 236.523
74.0009 45.0542 0 250.681 384.232
82.2936 106.041 0 261.248 443.175
-7.70116 5.6563 0 168.09 349.187
3 42 41 43
3 38 37 36
3 43 41 44
3 40 46 45
3 40 45 44
3 41 40 44
3 5 3 2
3 1 261 2
3 39 35 34
3 39 38 35
3 39 34 46
3 46 40 39
3 35 38 36
3 33 46 34
3 46 33 47
3 30 49 48
3 50 49 29
3 27 52 51
3 27 53 52
3 28 51 50
3 31 48 47
3 31 30 48
3 28 50 29
3 30 29 49
3 54 56 55
3 54 53 56
3 56 53 27
3 28 27 51
3 56 27 26
3 31 47 32
3 33 32 47
3 0 260 261
3 7 6 256
3 6 5 261
3 264 13 12
3 2 261 5
3 4 3 5
3 9 8 7
3 6 261 258
3 257 256 6
3 256 253 7
3 253 256 255
3 10 9 252
3 10 252 251
3 253 252 9
3 7 253 9
3 257 6 258
3 16 15 14
3 16 14 263
3 263 17 16
3 57 26 25
3 58 25 24
3 14 13 263
3 17 263 18
3 264 11 250
3 11 264 12
3 21 20 271
3 61 60 269
3 263 19 18
3 23 269 24
3 250 11 251
3 19 263 20
3 10 251 11
3 56 26 57
3 22 21 262
3 0 261 1
3 246 245 271
3 23 22 269
3 107 87 86
3 107 86 108
3 86 85 108
3 105 90 89
3 89 88 106
3 107 88 87
3 107 106 88
3 85 84 109
3 76 75 74
3 77 76 74
3 110 109 84
3 85 109 108
3 84 83 110
3 82 111 83
3 82 81 112
3 95 93 92
3 92 91 95
3 91 90 104
3 104 95 91
3 95 94 93
3 103 97 96
3 95 104 96
3 96 104 103
3 102 97 103
3 90 105 104
3 102 98 97
3 99 98 101
3 101 100 99
3 98 102 101
3 89 106 105
3 59 58 60
3 57 25 58
3 289 70 69
3 282 265 72
3 289 282 70
3 60 58 269
3 63 275 64
3 275 63 285
3 67 66 68
3 68 66 289
3 270 65 64
3 173 172 275
3 24 269 58
3 289 274 282
3 73 72 265
3 78 265 281
3 265 78 77
3 81 80 276
3 83 111 110
3 79 78 276
3 82 112 111
3 119 118 281
3 77 74 73
3 276 281 116
3 281 120 119
3 276 78 281
3 276 112 81
3 112 276 113
3 113 276 114
3 114 276 115
3 265 120 281
3 282 71 70
3 275 270 64
3 255 254 253
3 264 250 249
3 248 264 249
3 264 247 246
3 271 245 244
3 271 263 264
3 271 264 246
3 243 242 273
3 273 241 268
3 241 240 239
3 273 242 241
3 268 239 238
3 236 235 266
3 268 266 283
3 241 239 268
3 283 266 174
3 266 176 175
3 177 176 266
3 234 178 266
3 266 178 177
3 283 174 173
3 284 172 171
3 283 285 262
3 266 235 234
3 179 234 233
3 232 231 181
3 180 233 232
3 179 233 180
3 181 180 232
3 182 181 231
3 230 267 231
3 234 179 178
3 284 171 170
3 222 221 218
3 221 219 218
3 219 221 220
3 223 222 217
3 216 224 223
3 226 225 214
3 215 225 224
3 222 218 217
3 216 215 224
3 217 216 223
3 226 214 277
3 277 212 211
3 277 214 213
3 215 214 225
3 277 211 210
3 182 231 267
3 278 286 203
3 227 277 228
3 207 272 208
3 184 278 185
3 184 183 278
3 201 200 278
3 278 199 198
3 226 277 227
3 272 207 206
3 208 272 277
3 206 205 286
3 273 262 21
3 205 204 286
3 267 183 182
3 203 202 278
3 206 286 272
3 273 21 271
3 208 277 209
3 277 210 209
3 169 168 270
3 270 284 169
3 270 168 274
3 163 279 164
3 165 287 166
3 165 164 287
3 287 120 274
3 284 170 169
3 163 162 279
3 160 288 162
3 279 288 122
3 161 160 162
3 158 280 159
3 160 280 288
3 287 164 279
3 158 156 280
3 124 123 288
3 280 160 159
3 288 280 125
3 153 129 128
3 129 152 130
3 128 127 154
3 126 155 127
3 154 127 155
3 130 152 131
3 153 128 154
3 132 131 151
3 150 133 132
3 133 149 134
3 134 148 135
3 153 152 129
3 126 280 155
3 156 155 280
3 158 157 156
3 194 189 188
3 187 195 188
3 194 190 189
3 192 190 193
3 190 192 191
3 193 190 194
3 196 187 186
3 186 185 197
3 197 185 198
3 278 198 185
3 196 195 187
3 194 188 195
3 197 196 186
3 151 150 132
3 149 133 150
3 134 149 148
3 140 137 136
3 137 139 138
3 147 136 135
3 148 147 135
3 131 152 151
3 147 146 140
3 145 144 142
3 146 145 141
3 139 137 140
3 145 142 141
3 141 140 146
3 143 142 144
3 140 136 147
3 260 259 261
3 199 278 200
3 258 261 259
3 247 264 248
3 13 264 263
3 73 265 77
3 72 71 282
3 174 266 175
3 237 236 266
3 272 230 229
3 204 203 286
3 238 237 268
3 266 268 237
3 22 262 269
3 283 262 268
3 168 167 274
3 66 65 270
3 271 244 243
3 20 263 271
3 230 272 267
3 228 272 229
3 262 273 268
3 243 273 271
3 287 167 166
3 282 120 265
3 62 285 63
3 62 61 285
3 79 276 80
3 116 115 276
3 277 272 228
3 213 212 277
3 267 278 183
3 202 201 278
3 122 121 279
3 279 121 120
3 126 125 280
3 288 125 124
3 118 117 281
3 281 117 116
3 289 69 68
3 120 282 274
3 173 275 283
3 283 275 285
3 270 275 284
3 172 284 275
3 61 269 285
3 262 285 269
3 278 267 286
3 272 286 267
3 120 287 279
3 167 287 274
3 122 288 123
3 288 279 162
3 274 289 270
3 66 270 289
