ply
format ascii 1.0
element vertex 290
property float x
property float y
property float z
property float u
property float v
element face 317
property list uchar int vertex_indices
end_header
-2.99884 -340.562 0 147.636 8.36396
-11.5744 -330.628 0 139.979 19.0208
-12.8145 -316.504 0 140 33.201
-10.3549 -302.753 0 143.678 46.6777
1.51063 -298.355 0 155.887 50
7.69447 -310.08 0 161 37.7695
13.6906 -309.742 0 167 37.5736
19.639 -297.651 0 174 49.0883
24.2126 -284.563 0 179.719 61.7193
36.5691 -288.197 0 191.704 57
41.9908 -278.044 0 198 66.6324
45.8288 -264.724 0 203 79.5613
38.3715 -257.147 0 196.239 87.7609
27.3793 -249.076 0 186 96.7624
16.7086 -240.837 0 176.097 105.903
6.7856 -231.603 0 167.026 115.974
10.5022 -219.398 0 171.803 127.803
9.88555 -210.151 0 172 137.064
14.8126 -197.736 0 177.995 148.995
20.8011 -185.087 0 185.066 161.066
30.7669 -175.388 0 195.844 169.844
37.4282 -162.916 0 203.622 181.622
32.5436 -157.743 0 199.605 187
19.0049 -162.54 0 186.185 183.185
5.49614 -167.802 0 172.919 179
-8.70867 -172.885 0 159.407 175.407
-23.3516 -176.104 0 145.818 174
-35.9848 -185.115 0 134 166.718
-40.2186 -199.885 0 130.265 153.265
-44.8778 -214.353 0 126 140.032
-50.2843 -228.538 0 121 127.103
-54.8057 -242.974 0 116.83 113.83
-60.5919 -256.472 0 111 101.245
-66.701 -269.831 0 104.809 88.8092
-74.2809 -282.547 0 97.031 77.031
-80.5929 -295.106 0 90 64.9434
-84.2358 -303.461 0 85.8385 56.8385
-92.9625 -305.53 0 77 55.3289
-90.2788 -292.187 0 80.5247 68.4753
-88.2288 -285.688 0 83 74.8438
-101.667 -282.291 0 69.8678 79.1322
-110.769 -290.015 0 60.2982 72
-120.084 -297.065 0 50.554 65.554
-122.169 -288.76 0 49 73.9741
-116.898 -277.06 0 55 85.3173
-109.32 -265.582 0 63.2955 96.2955
-97.0854 -259.104 0 75.9327 102
-86.0527 -249.978 0 86 109.276
-83.6103 -234.6 0 88 123.448
-80.8133 -219.491 0 90.4379 137.438
-78.8778 -204.921 0 92 150.963
-76.5893 -189.718 0 94 165.134
-73.7755 -175.253 0 97 178.892
-70.2079 -161.326 0 101 192.235
-65.5841 -147.926 0 106.116 205.116
-59.0182 -135.637 0 113.265 217
-51.645 -138.782 0 120.43 213.43
-38.2411 -131.381 0 133.087 219.087
-25.5151 -123.617 0 145 225.052
-21.8983 -116.226 0 148.809 232
-9.05938 -111.644 0 161.694 235.694
-0.887455 -102.153 0 170 244.081
-0.344357 -87.8274 0 171 257.839
0.17607 -72.8148 0 172 272.425
2.87517 -58.4533 0 175 286.182
-2.52138 -45.5238 0 169.921 299.079
-7.81519 -32.6777 0 165 312.04
-19.8951 -29.0572 0 153.031 316
-26.2669 -16.7563 0 147 328.484
-33.595 -5.47859 0 140.001 339.999
-42.3685 5.64434 0 131.516 351.484
-50.4569 17.0557 0 123.737 363.263
-57.8653 28.6693 0 116.666 375.334
-66.7898 39.6815 0 108.181 386.819
-75.6302 50.9332 0 99.6956 398.304
-85.842 61.414 0 89.7115 409
-79.4712 67.5472 0 96.2175 415
-66.2446 71.8125 0 109.561 419
-63.1528 81.9296 0 113 429.49
-67.5797 94.7404 0 109 442.833
-69.9524 108.643 0 107 457.005
-73.1501 121.826 0 104 470.762
-83.9573 129.854 0 92.9758 480.024
-94.3895 138.352 0 82.0762 489.924
-105.608 144.711 0 70.298 497.702
-115.3 153.545 0 60.1059 507.894
-124.028 163.45 0 50.9132 519.087
-132.165 172.931 0 42.5491 529.451
-138.339 184.465 0 36.1849 541.815
-145.036 195.317 0 29 553.839
-151.748 205.594 0 21.7498 565.25
-159.281 216.658 0 13.9716 577.028
-166.709 227.839 0 6.60748 588.393
-170.422 241.28 0 3 601.898
-167.851 251.398 0 5.65576 612
-155.284 245.5 0 18.1705 606
-143.119 252.795 0 29.8989 613.899
-132.161 262.238 0 41.129 623
-121.033 271.415 0 52.4011 632
-108.885 278.244 0 64.6477 638.648
-99.6002 278.671 0 73.938 638.938
-107.508 267.483 0 65.8669 627.867
-114.198 255.23 0 59 615.711
-119.2 242.338 0 53.8459 602.846
-124.368 229.938 0 49 589.853
-120.729 221.41 0 53.4191 580
-110.335 213.312 0 64.4886 570.511
-99.9791 205.306 0 75.5491 561
-89.6275 197.237 0 86.5804 551.42
-79.3076 188.761 0 97.4802 541.52
-68.8212 180.678 0 108.537 532
-58.3463 172.561 0 119.572 522.428
-46.9696 167.034 0 131.643 515.357
-34.4369 163.14 0 144.593 510.407
-22.9039 155.898 0 156 502.475
-15.5075 144.248 0 163 490.374
-7.77899 132.909 0 170.514 478.486
1.86601 122.537 0 180 467.416
10.537 111.497 0 188.191 455.809
18.1486 99.9608 0 195.262 443.738
28.9843 92.1256 0 206.057 435
38.9988 102.741 0 216.526 444.526
49.6704 113.186 0 227.602 454
60.5049 123.02 0 238.911 462.911
71.6746 132.013 0 250.56 471
82.9893 141.277 0 262.174 479.174
95.092 149.856 0 274.245 486.245
100.595 163.951 0 280 498.862
104.314 178.995 0 284 512.205
108.015 194.021 0 288 525.548
112.562 208.18 0 293 538.477
118.125 221.993 0 298.995 550.995
125.666 235.686 0 306.773 562.773
133.205 249.418 0 314.551 574.551
142.17 262.655 0 323.743 585.743
150.367 276.123 0 332.229 597.229
159.129 288.968 0 341.421 608.421
168.053 300.444 0 351 618.867
177.819 309.334 0 361.382 627
183.657 304.766 0 366.861 622
184.816 293.743 0 367.169 610.831
199.024 292.583 0 380.582 607
212.89 290.322 0 394.339 604
225.33 283.835 0 406.311 596.689
223.66 275 0 404.046 588
209.159 272.952 0 389.46 587
194.438 270.187 0 374.874 586
181.267 264.842 0 361.961 583.039
175.456 252.186 0 356 572.431
171.778 237.042 0 352 559.088
168.626 221.735 0 348.527 545.527
164.38 206.802 0 344 532.403
159.597 191.904 0 339 519.474
155.928 176.622 0 335.093 506.093
152.106 161.544 0 331 492.789
151.392 146.114 0 330 479.032
153.029 130.696 0 331 464.446
158.529 119.044 0 336 452.689
149.437 110.425 0 326.538 444.538
140.766 98.5366 0 317.345 433.345
130.697 88.0386 0 306.86 423.86
135.053 82.496 0 311 418.459
127.494 70.7991 0 303 407.358
119.691 58.1805 0 294.768 395.768
112.324 45.5653 0 286.99 383.99
104.174 33.3637 0 278.505 372.505
96.0522 21.4129 0 270 361.027
87.3509 9.4976 0 261 349.755
82.3416 -2.87723 0 255.998 338
85.2641 -14.3842 0 259 326.483
89.5751 -27.4609 0 263 313.141
93.0922 -40.9574 0 266 299.384
96.5242 -54.4236 0 269 285.626
100.631 -67.2005 0 273 272.284
111.959 -73.7574 0 284.578 264.422
124.581 -75.9102 0 297.331 261
138.818 -73.5656 0 311.917 262
149.039 -76.3567 0 322 258.155
158.711 -83.3056 0 331.188 250
171.375 -79.3745 0 344.531 252
185.678 -78.0809 0 359.117 251
199.984 -76.6766 0 373.703 250
214.01 -76.3079 0 387.874 248
215.11 -63.3246 0 391 260.459
212.826 -48.4398 0 391 275.459
209.651 -34.1547 0 390 290.047
207.414 -19.3264 0 390 305.044
204.248 -5.04835 0 389 319.633
202.015 9.78403 0 389 334.633
198.85 24.0563 0 388 349.217
196.62 38.89 0 388 364.217
195.574 52.6522 0 389.018 377.982
200.757 51.7017 0 394 376.269
200.556 39.6074 0 392 364.34
204.642 25.8914 0 394 350.169
212.013 14.1523 0 399.537 337.463
222.769 4.45472 0 408.73 326.27
235.447 -1.9967 0 420.304 318
248.564 -6.67277 0 432.579 311.421
261.547 -11.8649 0 444.649 304.351
274.349 -17.7949 0 456.428 296.572
283.514 -27.8073 0 464 285.295
290.38 -39.8251 0 469 272.366
294.444 -53.4814 0 471 258.194
297.578 -67.6905 0 472 243.608
299.693 -81.6889 0 472 229.438
302.291 -94.5579 0 472.64 216.36
305.014 -108.471 0 473.238 202.238
304.987 -121.164 0 471.297 189.703
307.902 -135.59 0 471.996 174.996
307.202 -149.687 0 469.168 161.168
302.784 -162.873 0 462.804 148.804
293.062 -172.53 0 451.733 140.733
282.01 -181.034 0 439.522 134
271.109 -189.785 0 427.422 127
261.617 -199.818 0 416.52 118.52
254.97 -212.453 0 408.035 107.035
252.784 -226.187 0 403.792 93.7925
254.093 -239.991 0 403 79.9492
257.873 -251.479 0 405 68.0205
254.721 -258.833 0 400.772 61.2279
248.961 -246.121 0 397 74.6653
245.766 -231.852 0 396 89.2529
243.498 -217.027 0 396 104.253
240.297 -202.765 0 395 118.836
238.026 -187.937 0 395 133.837
235.754 -173.109 0 395 148.837
232.558 -158.842 0 394 163.422
230.286 -144.011 0 394 178.422
227.092 -129.754 0 393 193.009
224.821 -114.976 0 393 208.01
215.592 -108.669 0 384.873 215.873
201.229 -112.09 0 370.234 215
186.906 -115.498 0 355.649 214
172.545 -118.822 0 341.063 213
164.918 -126.955 0 332.72 206
150.352 -129.599 0 318.135 205
139.006 -137.325 0 306.439 198.439
132.826 -149.969 0 299.367 186.367
128.956 -161.707 0 294.581 175
135.35 -169.136 0 300.319 167
122.909 -170.393 0 287.862 166.862
120.058 -183.208 0 284 154.29
114.224 -195.901 0 277.134 142.134
108.145 -208.5 0 270 130.09
103.349 -219.816 0 264.235 119.235
98.9983 -231.607 0 258.871 107.871
92.083 -242.824 0 251 97.303
84.8617 -255.08 0 242.729 85.7291
75.6058 -266.131 0 232.536 75.5365
62.0289 -269.582 0 218.708 73.2917
50.7052 -273.838 0 207.052 70.0515
44.7464 -286.492 0 200 57.9727
51.3242 -295.915 0 205.713 48
57.4855 -305.46 0 211 37.9436
55.864 -309.794 0 209 33.7725
51.7391 -319.963 0 203.989 24.0107
45.6334 -329.494 0 197.061 15.061
36.8914 -336.36 0 187.744 9
24.901 -342.166 0 175.283 4.28345
8.97561 -346.883 0 159 1
11.7341 -328.365 0 163.397 19.2
54.5751 -143.093 0 222.418 199.851
35.3993 -213.092 0 197.158 131.895
61.0033 -242.323 0 220.087 100.537
-23.8018 65.1036 0 151.861 410.94
136.131 -103.07 0 306.586 232.878
234.867 -91.1568 0 406.468 230.06
94.0559 -144.134 0 261.32 195.618
18.9442 -128.122 0 188.497 217.457
39.6781 -22.2671 0 212.946 320.627
71.0525 -199.496 0 233.86 142.326
266.197 -114.753 0 433.92 201.91
95.4912 -171.281 0 260.625 168.349
48.3158 17.0873 0 222.394 359.242
50.2521 -73.9658 0 221.899 268.749
-40.6264 123.279 0 136.779 470.704
277.398 -147.036 0 440.11 168.305
251.671 -50.1588 0 429.173 267.959
76.0441 74.8356 0 251.883 414.403
111.45 118.228 0 288.938 454.209
-9.03939 90.0024 0 167.384 435.514
-18.3497 30.9902 0 156.203 376.245
86.2923 -104.835 0 256.529 235.57
62.6077 -41.9974 0 235.437 299.924
28.5526 -95.5568 0 199.546 248.849
266.626 -79.5183 0 439.635 236.523
75.9181 43.9395 0 250.681 384.232
84.1766 104.9 0 261.248 443.175
-5.79739 4.55831 0 168.09 349.187
3 42 41 43
3 38 37 36
3 43 41 44
3 40 46 45
3 40 45 44
3 41 40 44
3 5 3 2
3 1 261 2
3 39 35 34
3 39 38 35
3 39 34 46
3 46 40 39
3 35 38 36
3 33 46 34
3 46 33 47
3 30 49 48
3 50 49 29
3 27 52 51
3 27 53 52
3 28 51 50
3 31 48 47
3 31 30 48
3 28 50 29
3 30 29 49
3 54 56 55
3 54 53 56
3 56 53 27
3 28 27 51
3 56 27 26
3 31 47 32
3 33 32 47
3 0 260 261
3 7 6 256
3 6 5 261
3 264 13 12
3 2 261 5
3 4 3 5
3 9 8 7
3 6 261 258
3 257 256 6
3 256 253 7
3 253 256 255
3 10 9 252
3 10 252 251
3 253 252 9
3 7 253 9
3 257 6 258
3 16 15 14
3 16 14 263
3 263 17 16
3 57 26 25
3 58 25 24
3 14 13 263
3 17 263 18
3 264 11 250
3 11 264 12
3 21 20 271
3 61 60 269
3 263 19 18
3 23 269 24
3 250 11 251
3 19 263 20
3 10 251 11
3 56 26 57
3 22 21 262
3 0 261 1
3 246 245 271
3 23 22 269
3 107 87 86
3 107 86 108
3 86 85 108
3 105 90 89
3 89 88 106
3 107 88 87
3 107 106 88
3 85 84 109
3 76 75 74
3 77 76 74
3 110 109 84
3 85 109 108
3 84 83 110
3 82 111 83
3 82 81 112
3 95 93 92
3 92 91 95
3 91 90 104
3 104 95 91
3 95 94 93
3 103 97 96
3 95 104 96
3 96 104 103
3 102 97 103
3 90 105 104
3 102 98 97
3 99 98 101
3 101 100 99
3 98 102 101
3 89 106 105
3 59 58 60
3 57 25 58
3 289 70 69
3 282 265 72
3 289 282 70
3 60 58 269
3 63 275 64
3 275 63 285
3 67 66 68
3 68 66 289
3 270 65 64
3 173 172 275
3 24 269 58
3 289 274 282
3 73 72 265
3 78 265 281
3 265 78 77
3 81 80 276
3 83 111 110
3 79 78 276
3 82 112 111
3 119 118 281
3 77 74 73
3 276 281 116
3 281 120 119
3 276 78 281
3 276 112 81
3 112 276 113
3 113 276 114
3 114 276 115
3 265 120 281
3 282 71 70
3 275 270 64
3 255 254 253
3 264 250 249
3 248 264 249
3 264 247 246
3 271 245 244
3 271 263 264
3 271 264 246
3 243 242 273
3 273 241 268
3 241 240 239
3 273 242 241
3 268 239 238
3 236 235 266
3 268 266 283
3 241 239 268
3 283 266 174
3 266 176 175
3 177 176 266
3 234 178 266
3 266 178 177
3 283 174 173
3 284 172 171
3 283 285 262
3 266 235 234
3 179 234 233
3 232 231 181
3 180 233 232
3 179 233 180
3 181 180 232
3 182 181 231
3 230 267 231
3 234 179 178
3 284 171 170
3 222 221 218
3 221 219 218
3 219 221 220
3 223 222 217
3 216 224 223
3 226 225 214
3 215 225 224
3 222 218 217
3 216 215 224
3 217 216 223
3 226 214 277
3 277 212 211
3 277 214 213
3 215 214 225
3 277 211 210
3 182 231 267
3 278 286 203
3 227 277 228
3 207 272 208
3 184 278 185
3 184 183 278
3 201 200 278
3 278 199 198
3 226 277 227
3 272 207 206
3 208 272 277
3 206 205 286
3 273 262 21
3 205 204 286
3 267 183 182
3 203 202 278
3 206 286 272
3 273 21 271
3 208 277 209
3 277 210 209
3 169 168 270
3 270 284 169
3 270 168 274
3 163 279 164
3 165 287 166
3 165 164 287
3 287 120 274
3 284 170 169
3 163 162 279
3 160 288 162
3 279 288 122
3 161 160 162
3 158 280 159
3 160 280 288
3 287 164 279
3 158 156 280
3 124 123 288
3 280 160 159
3 288 280 125
3 153 129 128
3 129 152 130
3 128 127 154
3 126 155 127
3 154 127 155
3 130 152 131
3 153 128 154
3 132 131 151
3 150 133 132
3 133 149 134
3 134 148 135
3 153 152 129
3 126 280 155
3 156 155 280
3 158 157 156
3 194 189 188
3 187 195 188
3 194 190 189
3 192 190 193
3 190 192 191
3 193 190 194
3 196 187 186
3 186 185 197
3 197 185 198
3 278 198 185
3 196 195 187
3 194 188 195
3 197 196 186
3 151 150 132
3 149 133 150
3 134 149 148
3 140 137 136
3 137 139 138
3 147 136 135
3 148 147 135
3 131 152 151
3 147 146 140
3 145 144 142
3 146 145 141
3 139 137 140
3 145 142 141
3 141 140 146
3 143 142 144
3 140 136 147
3 260 259 261
3 199 278 200
3 258 261 259
3 247 264 248
3 13 264 263
3 73 265 77
3 72 71 282
3 174 266 175
3 237 236 266
3 272 230 229
3 204 203 286
3 238 237 268
3 266 268 237
3 22 262 269
3 283 262 268
3 168 167 274
3 66 65 270
3 271 244 243
3 20 263 271
3 230 272 267
3 228 272 229
3 262 273 268
3 243 273 271
3 287 167 166
3 282 120 265
3 62 285 63
3 62 61 285
3 79 276 80
3 116 115 276
3 277 272 228
3 213 212 277
3 267 278 183
3 202 201 278
3 122 121 279
3 279 121 120
3 126 125 280
3 288 125 124
3 118 117 281
3 281 117 116
3 289 69 68
3 120 282 274
3 173 275 283
3 283 275 285
3 270 275 284
3 172 284 275
3 61 269 285
3 262 285 269
3 278 267 286
3 272 286 267
3 120 287 279
3 167 287 274
3 122 288 123
3 288 279 162
3 274 289 270
3 66 270 289
