ply
format ascii 1.0
element vertex 290
property float x
property float y
property float z
property float u
property float v
element face 317
property list uchar int vertex_indices
end_header
-1.60906 -341.346 0 147.636 8.36396
-10.2009 -331.426 0 139.979 19.0208
-11.4643 -317.304 0 140 33.201
-9.02739 -303.55 0 143.678 46.6777
2.83088 -299.132 0 155.887 50
9.03406 -310.846 0 161 37.7695
15.0297 -310.499 0 167 37.5736
20.9581 -298.398 0 174 49.0883
25.5101 -285.302 0 179.719 61.7193
37.8727 -288.916 0 191.704 57
43.2777 -278.755 0 198 66.6324
47.0937 -265.428 0 203 79.5613
39.6241 -257.863 0 196.239 87.7609
28.6188 -249.81 0 186 96.7624
17.9346 -241.589 0 176.097 105.903
7.99656 -232.371 0 167.026 115.974
11.6931 -220.16 0 171.803 127.803
11.0614 -210.913 0 172 137.064
15.9681 -198.491 0 177.995 148.995
21.9359 -185.831 0 185.066 161.066
31.8861 -176.116 0 195.844 169.844
38.5286 -163.632 0 203.622 181.622
33.6406 -158.461 0 199.605 187
20.1147 -163.277 0 186.185 183.185
6.61684 -168.561 0 172.919 179
-7.5774 -173.669 0 159.407 175.407
-22.214 -176.916 0 145.818 174
-34.8304 -185.953 0 134 166.718
-39.0351 -200.734 0 130.265 153.265
-43.6651 -215.214 0 126 140.032
-49.0421 -229.411 0 121 127.103
-53.5325 -243.859 0 116.83 113.83
-59.2883 -257.371 0 111 101.245
-65.3666 -270.745 0 104.809 88.8092
-72.9167 -283.48 0 97.031 77.031
-79.1989 -296.054 0 90 64.9434
-82.8221 -304.418 0 85.8385 56.8385
-91.5438 -306.507 0 77 55.3289
-88.8917 -293.158 0 80.5247 68.4753
-86.8571 -286.654 0 83 74.8438
-100.304 -283.289 0 69.8678 79.1322
-109.387 -291.034 0 60.2982 72
-118.685 -298.107 0 50.554 65.554
-120.79 -289.807 0 49 73.9741
-115.547 -278.094 0 55 85.3173
-107.995 -266.598 0 63.2955 96.2955
-95.7767 -260.091 0 75.9327 102
-84.7642 -250.936 0 86 109.276
-82.3552 -235.547 0 88 123.448
-79.59 -220.428 0 90.4379 137.438
-77.6843 -205.851 0 92 150.963
-75.4259 -190.638 0 94 165.134
-72.6401 -176.164 0 97 178.892
-69.0987 -162.227 0 101 192.235
-64.4987 -148.817 0 106.116 205.116
-57.9541 -136.516 0 113.265 217
-50.5757 -139.648 0 120.43 213.43
-37.1842 -132.219 0 133.087 219.087
-24.4706 -124.427 0 145 225.052
-20.8645 -117.028 0 148.809 232
-8.032 -112.424 0 161.694 235.694
0.13051 -102.912 0 170 244.081
0.661142 -88.5776 0 171 257.839
1.1718 -73.5583 0 172 272.425
3.86883 -59.1888 0 175 286.182
-1.53158 -46.263 0 169.921 299.079
-6.83234 -33.4224 0 165 312.04
-18.9145 -29.8111 0 153.031 316
-25.2947 -17.5153 0 147 328.484
-32.6303 -6.24376 0 140.001 339.999
-41.411 4.87032 0 131.516 351.484
-49.507 16.274 0 123.737 363.263
-56.9234 27.8792 0 116.666 375.334
-65.8576 38.8849 0 108.181 386.819
-74.7035 50.1339 0 99.6956 398.304
-84.9188 60.6113 0 89.7115 409
-78.5501 66.7466 0 96.2175 415
-65.3254 71.0163 0 109.561 419
-62.2378 81.129 0 113 429.49
-66.6676 93.9348 0 109 442.833
-69.041 107.837 0 107 457.005
-72.232 121.016 0 104 470.762
-83.021 129.029 0 92.9758 480.024
-93.4249 137.508 0 82.0762 489.924
-104.614 143.85 0 70.298 497.702
-114.275 152.667 0 60.1059 507.894
-122.97 162.555 0 50.9132 519.087
-131.082 172.03 0 42.5491 529.451
-137.227 183.555 0 36.1849 541.815
-143.886 194.392 0 29 553.839
-150.559 204.656 0 21.7498 565.25
-158.059 215.719 0 13.9716 577.028
-165.465 226.911 0 6.60748 588.393
-169.154 240.358 0 3 601.898
-166.565 250.471 0 5.65576 612
-154.008 244.55 0 18.1705 606
-141.811 251.808 0 29.8989 613.899
-130.841 261.236 0 41.129 623
-119.696 270.393 0 52.4011 632
-107.536 277.201 0 64.6477 638.648
-98.2505 277.611 0 73.938 638.938
-106.179 266.437 0 65.8669 627.867
-112.891 254.196 0 59 615.711
-117.916 241.315 0 53.8459 602.846
-123.123 228.94 0 49 589.853
-119.529 220.438 0 53.4191 580
-109.176 212.356 0 64.4886 570.511
-98.8616 204.37 0 75.5491 561
-88.5499 196.322 0 86.5804 551.42
-78.2667 187.867 0 97.4802 541.52
-67.8156 179.804 0 108.537 532
-57.3753 171.711 0 119.572 522.428
-46.0332 166.209 0 131.643 515.357
-33.5211 162.329 0 144.593 510.407
-21.9964 155.093 0 156 502.475
-14.6052 143.45 0 163 490.374
-6.88549 132.125 0 170.514 478.486
2.75271 121.768 0 180 467.416
11.4258 110.74 0 188.191 455.809
19.0422 99.2172 0 195.262 443.738
29.8702 91.4063 0 206.057 435
39.8638 102.041 0 216.526 444.526
50.5163 112.504 0 227.602 454
61.3302 122.358 0 238.911 462.911
72.4789 131.373 0 250.56 471
83.7739 140.664 0 262.174 479.174
95.8615 149.278 0 274.245 486.245
101.338 163.401 0 280 498.862
105.028 178.477 0 284 512.205
108.699 193.536 0 288 525.548
113.213 207.721 0 293 538.477
118.745 221.564 0 298.995 550.995
126.257 235.301 0 306.773 562.773
133.766 249.078 0 314.551 574.551
142.701 262.365 0 323.743 585.743
150.865 275.881 0 332.229 597.229
159.591 288.772 0 341.421 608.421
168.479 300.284 0 351 618.867
178.213 309.208 0 361.382 627
184.067 304.661 0 366.861 622
185.266 293.644 0 367.169 610.831
199.491 292.562 0 380.582 607
213.363 290.347 0 394.339 604
225.826 283.904 0 406.311 596.689
224.188 275.064 0 404.046 588
209.694 272.963 0 389.46 587
194.976 270.133 0 374.874 586
181.81 264.718 0 361.961 583.039
176.026 252.014 0 356 572.431
172.382 236.832 0 352 559.088
169.263 221.489 0 348.527 545.527
165.048 206.517 0 344 532.403
160.294 191.577 0 339 519.474
156.654 176.255 0 335.093 506.093
152.86 161.14 0 331 492.789
152.174 145.679 0 330 479.032
153.844 130.246 0 331 464.446
159.368 118.602 0 336 452.689
150.293 109.961 0 326.538 444.538
141.644 98.0461 0 317.345 433.345
131.591 87.514 0 306.86 423.86
135.955 81.971 0 311 418.459
128.413 70.2553 0 303 407.358
120.624 57.6086 0 294.768 395.768
113.268 44.9698 0 286.99 383.99
105.128 32.748 0 278.505 372.505
97.0157 20.7826 0 270 361.027
88.319 8.8504 0 261 349.755
83.3061 -3.53787 0 255.998 338
86.2262 -15.0439 0 259 326.483
90.5436 -28.1162 0 263 313.141
94.0698 -41.6088 0 266 299.384
97.5087 -55.0692 0 269 285.626
101.616 -67.8338 0 273 272.284
112.936 -74.3677 0 284.578 264.422
125.553 -76.5008 0 297.331 261
139.785 -74.1395 0 311.917 262
150.004 -76.918 0 322 258.155
159.67 -83.8515 0 331.188 250
172.302 -79.897 0 344.531 252
186.569 -78.5777 0 359.117 251
200.839 -77.1474 0 373.703 250
214.837 -76.7537 0 387.874 248
215.904 -63.7647 0 391 260.459
213.595 -48.8816 0 391 275.459
210.398 -34.6005 0 390 290.047
208.141 -19.7753 0 390 305.044
204.956 -5.50156 0 389 319.633
202.703 9.32778 0 389 334.633
199.519 23.5957 0 388 349.217
197.269 38.4264 0 388 364.217
196.204 52.1871 0 389.018 377.982
201.388 51.2437 0 394 376.269
201.203 39.1491 0 392 364.34
205.309 25.4387 0 394 350.169
212.695 13.7097 0 399.537 337.463
223.464 4.02668 0 408.73 326.27
236.151 -2.40751 0 420.304 318
249.274 -7.06571 0 432.579 311.421
262.264 -12.2401 0 444.649 304.351
275.073 -18.1524 0 456.428 296.572
284.252 -28.1521 0 464 285.295
291.133 -40.16 0 469 272.366
295.212 -53.8094 0 471 258.194
298.363 -68.0126 0 472 243.608
300.498 -82.0073 0 472 229.438
303.118 -94.8724 0 472.64 216.36
305.864 -108.782 0 473.238 202.238
305.857 -121.474 0 471.297 189.703
308.794 -135.896 0 471.996 174.996
308.114 -149.994 0 469.168 161.168
303.716 -163.187 0 462.804 148.804
294.008 -172.858 0 451.733 140.733
282.968 -181.378 0 439.522 134
272.081 -190.145 0 427.422 127
262.603 -200.192 0 416.52 118.52
255.975 -212.837 0 408.035 107.035
253.81 -226.574 0 403.792 93.7925
255.139 -240.376 0 403 79.9492
258.936 -251.859 0 405 68.0205
255.795 -259.218 0 400.772 61.2279
250.016 -246.514 0 397 74.6653
246.8 -232.25 0 396 89.2529
244.51 -217.428 0 396 104.253
241.287 -203.171 0 395 118.836
238.995 -188.346 0 395 133.837
236.701 -173.522 0 395 148.837
233.484 -159.26 0 394 163.422
231.191 -144.432 0 394 178.422
227.977 -130.18 0 393 193.009
225.69 -115.405 0 393 208.01
216.47 -109.115 0 384.873 215.873
202.148 -112.563 0 370.234 215
187.863 -115.997 0 355.649 214
173.543 -119.347 0 341.063 213
165.944 -127.49 0 332.72 206
151.386 -130.154 0 318.135 205
140.056 -137.894 0 306.439 198.439
133.899 -150.542 0 299.367 186.367
130.048 -162.284 0 294.581 175
136.455 -169.702 0 300.319 167
124.016 -170.977 0 287.862 166.862
121.188 -183.794 0 284 154.29
115.375 -196.495 0 277.134 142.134
109.318 -209.103 0 270 130.09
104.541 -220.426 0 264.235 119.235
100.209 -232.225 0 258.871 107.871
93.3121 -243.453 0 251 97.303
86.1109 -255.72 0 242.729 85.7291
76.8731 -266.786 0 232.536 75.5365
63.3018 -270.259 0 218.708 73.2917
51.9851 -274.534 0 207.052 70.0515
46.0472 -287.198 0 200 57.9727
52.6405 -296.61 0 205.713 48
58.8174 -306.145 0 211 37.9436
57.2031 -310.482 0 209 33.7725
53.0949 -320.657 0 203.989 24.0107
47.005 -330.199 0 197.061 15.061
38.2742 -337.078 0 187.744 9
26.2934 -342.904 0 175.283 4.28345
10.3758 -347.648 0 159 1
13.1038 -329.125 0 163.397 19.2
55.6452 -143.779 0 222.418 199.851
36.5799 -213.813 0 197.158 131.895
62.2316 -243.002 0 220.087 100.537
-22.8817 64.3265 0 151.861 410.94
137.129 -103.646 0 306.586 232.878
235.7 -91.5708 0 406.468 230.06
95.1212 -144.765 0 261.32 195.618
19.9957 -128.859 0 188.497 217.457
40.6493 -22.9684 0 212.946 320.627
72.2107 -200.159 0 233.86 142.326
267.058 -115.12 0 433.92 201.91
96.6025 -171.905 0 260.625 168.349
49.2713 16.395 0 222.394 359.242
51.2523 -74.6555 0 221.899 268.749
-39.7157 122.472 0 136.779 470.704
278.306 -147.387 0 440.11 168.305
252.441 -50.5475 0 429.173 267.959
76.9522 74.196 0 251.883 414.403
112.291 117.683 0 288.938 454.209
-8.12995 89.2257 0 167.384 435.514
-17.407 30.2267 0 156.203 376.245
87.3101 -105.478 0 256.529 235.57
63.5874 -42.6756 0 235.437 299.924
29.5651 -96.2754 0 199.546 248.849
267.426 -79.8835 0 439.635 236.523
76.8585 43.2878 0 250.681 384.232
85.04 104.287 0 261.248 443.175
-4.83948 3.81286 0 168.09 349.187
3 42 41 43
3 38 37 36
3 43 41 44
3 40 46 45
3 40 45 44
3 41 40 44
3 5 3 2
3 1 261 2
3 39 35 34
3 39 38 35
3 39 34 46
3 46 40 39
3 35 38 36
3 33 46 34
3 46 33 47
3 30 49 48
3 50 49 29
3 27 52 51
3 27 53 52
3 28 51 50
3 31 48 47
3 31 30 48
3 28 50 29
3 30 29 49
3 54 56 55
3 54 53 56
3 56 53 27
3 28 27 51
3 56 27 26
3 31 47 32
3 33 32 47
3 0 260 261
3 7 6 256
3 6 5 261
3 264 13 12
3 2 261 5
3 4 3 5
3 9 8 7
3 6 261 258
3 257 256 6
3 256 253 7
3 253 256 255
3 10 9 252
3 10 252 251
3 253 252 9
3 7 253 9
3 257 6 258
3 16 15 14
3 16 14 263
3 263 17 16
3 57 26 25
3 58 25 24
3 14 13 263
3 17 263 18
3 264 11 250
3 11 264 12
3 21 20 271
3 61 60 269
3 263 19 18
3 23 269 24
3 250 11 251
3 19 263 20
3 10 251 11
3 56 26 57
3 22 21 262
3 0 261 1
3 246 245 271
3 23 22 269
3 107 87 86
3 107 86 108
3 86 85 108
3 105 90 89
3 89 88 106
3 107 88 87
3 107 106 88
3 85 84 109
3 76 75 74
3 77 76 74
3 110 109 84
3 85 109 108
3 84 83 110
3 82 111 83
3 82 81 112
3 95 93 92
3 92 91 95
3 91 90 104
3 104 95 91
3 95 94 93
3 103 97 96
3 95 104 96
3 96 104 103
3 102 97 103
3 90 105 104
3 102 98 97
3 99 98 101
3 101 100 99
3 98 102 101
3 89 106 105
3 59 58 60
3 57 25 58
3 289 70 69
3 282 265 72
3 289 282 70
3 60 58 269
3 63 275 64
3 275 63 285
3 67 66 68
3 68 66 289
3 270 65 64
3 173 172 275
3 24 269 58
3 289 274 282
3 73 72 265
3 78 265 281
3 265 78 77
3 81 80 276
3 83 111 110
3 79 78 276
3 82 112 111
3 119 118 281
3 77 74 73
3 276 281 116
3 281 120 119
3 276 78 281
3 276 112 81
3 112 276 113
3 113 276 114
3 114 276 115
3 265 120 281
3 282 71 70
3 275 270 64
3 255 254 253
3 264 250 249
3 248 264 249
3 264 247 246
3 271 245 244
3 271 263 264
3 271 264 246
3 243 242 273
3 273 241 268
3 241 240 239
3 273 242 241
3 268 239 238
3 236 235 266
3 268 266 283
3 241 239 268
3 283 266 174
3 266 176 175
3 177 176 266
3 234 178 266
3 266 178 177
3 283 174 173
3 284 172 171
3 283 285 262
3 266 235 234
3 179 234 233
3 232 231 181
3 180 233 232
3 179 233 180
3 181 180 232
3 182 181 231
3 230 267 231
3 234 179 178
3 284 171 170
3 222 221 218
3 221 219 218
3 219 221 220
3 223 222 217
3 216 224 223
3 226 225 214
3 215 225 224
3 222 218 217
3 216 215 224
3 217 216 223
3 226 214 277
3 277 212 211
3 277 214 213
3 215 214 225
3 277 211 210
3 182 231 267
3 278 286 203
3 227 277 228
3 207 272 208
3 184 278 185
3 184 183 278
3 201 200 278
3 278 199 198
3 226 277 227
3 272 207 206
3 208 272 277
3 206 205 286
3 273 262 21
3 205 204 286
3 267 183 182
3 203 202 278
3 206 286 272
3 273 21 271
3 208 277 209
3 277 210 209
3 169 168 270
3 270 284 169
3 270 168 274
3 163 279 164
3 165 287 166
3 165 164 287
3 287 120 274
3 284 170 169
3 163 162 279
3 160 288 162
3 279 288 122
3 161 160 162
3 158 280 159
3 160 280 288
3 287 164 279
3 158 156 280
3 124 123 288
3 280 160 159
3 288 280 125
3 153 129 128
3 129 152 130
3 128 127 154
3 126 155 127
3 154 127 155
3 130 152 131
3 153 128 154
3 132 131 151
3 150 133 132
3 133 149 134
3 134 148 135
3 153 152 129
3 126 280 155
3 156 155 280
3 158 157 156
3 194 189 188
3 187 195 188
3 194 190 189
3 192 190 193
3 190 192 191
3 193 190 194
3 196 187 186
3 186 185 197
3 197 185 198
3 278 198 185
3 196 195 187
3 194 188 195
3 197 196 186
3 151 150 132
3 149 133 150
3 134 149 148
3 140 137 136
3 137 139 138
3 147 136 135
3 148 147 135
3 131 152 151
3 147 146 140
3 145 144 142
3 146 145 141
3 139 137 140
3 145 142 141
3 141 140 146
3 143 142 144
3 140 136 147
3 260 259 261
3 199 278 200
3 258 261 259
3 247 264 248
3 13 264 263
3 73 265 77
3 72 71 282
3 174 266 175
3 237 236 266
3 272 230 229
3 204 203 286
3 238 237 268
3 266 268 237
3 22 262 269
3 283 262 268
3 168 167 274
3 66 65 270
3 271 244 243
3 20 263 271
3 230 272 267
3 228 272 229
3 262 273 268
3 243 273 271
3 287 167 166
3 282 120 265
3 62 285 63
3 62 61 285
3 79 276 80
3 116 115 276
3 277 272 228
3 213 212 277
3 267 278 183
3 202 201 278
3 122 121 279
3 279 121 120
3 126 125 280
3 288 125 124
3 118 117 281
3 281 117 116
3 289 69 68
3 120 282 274
3 173 275 283
3 283 275 285
3 270 275 284
3 172 284 275
3 61 269 285
3 262 285 269
3 278 267 286
3 272 286 267
3 120 287 279
3 167 287 274
3 122 288 123
3 288 279 162
3 274 289 270
3 66 270 289
