ply
format ascii 1.0
element vertex 290
property float x
property float y
property float z
property float u
property float v
element face 317
property list uchar int vertex_indices
end_header
63.031 -394.154 0 147.636 8.36396
52.8226 -385.908 0 139.979 19.0208
49.0848 -372.233 0 140 33.201
49.0526 -358.264 0 143.678 46.6777
59.944 -351.82 0 155.887 50
68.1194 -362.254 0 161 37.7695
73.9595 -360.854 0 167 37.5736
77.657 -347.896 0 174 49.0883
79.8239 -334.202 0 179.719 61.7193
92.6303 -335.574 0 191.704 57
96.1568 -324.618 0 198 66.6324
97.561 -310.826 0 203 79.5613
88.8722 -304.693 0 196.239 87.7609
76.6143 -298.697 0 186 96.7624
64.6431 -292.477 0 176.097 105.903
53.2369 -285.152 0 167.026 115.974
54.7252 -272.48 0 171.803 127.803
52.4759 -263.484 0 172 137.064
55.1221 -250.387 0 177.995 148.995
58.7723 -236.868 0 185.066 161.066
66.8503 -225.536 0 195.844 169.844
71.0802 -211.96 0 203.622 181.622
64.5665 -207.397 0 199.605 187
51.1267 -214.19 0 186.185 183.185
37.5488 -221.683 0 172.919 179
22.6327 -229.859 0 159.407 175.407
6.71655 -236.837 0 145.818 174
-6.64882 -249.389 0 134 166.718
-11.0039 -266.753 0 130.265 153.265
-15.6392 -283.652 0 126 140.032
-21.0405 -300.324 0 121 127.103
-25.4749 -317.058 0 116.83 113.83
-30.6094 -332.34 0 111 101.245
-36.0052 -347.49 0 104.809 88.8092
-42.7023 -362.024 0 97.031 77.031
-47.3784 -375.413 0 90 64.9434
-49.8814 -384.187 0 85.8385 56.8385
-58.2558 -387.402 0 77 55.3289
-57.3765 -373.822 0 80.5247 68.4753
-56.2375 -367.134 0 83 74.8438
-70.1052 -365.66 0 69.8678 79.1322
-78.0967 -374.531 0 60.2982 72
-86.3885 -382.761 0 50.554 65.554
-89.5627 -374.809 0 49 73.9741
-85.9004 -362.51 0 55 85.3173
-79.9269 -350.131 0 63.2955 96.2955
-68.692 -342.106 0 75.9327 102
-56.7282 -329.204 0 86 109.276
-54.2701 -311.472 0 88 123.448
-51.562 -294.17 0 90.4379 137.438
-49.6548 -277.55 0 92 150.963
-47.5419 -260.332 0 94 165.134
-45.5866 -244.54 0 97 178.892
-43.2327 -229.556 0 101 192.235
-39.8837 -215.213 0 106.116 205.116
-34.6755 -202.168 0 113.265 217
-26.95 -204.372 0 120.43 213.43
-12.8689 -193.41 0 133.087 219.087
0.615328 -181.98 0 145 225.052
3.63539 -173.748 0 148.809 232
16.1223 -167.336 0 161.694 235.694
23.6099 -155.672 0 170 244.081
22.9919 -140.273 0 171 257.839
22.4044 -124.424 0 172 272.425
24.418 -108.783 0 175 286.182
18.4424 -95.7277 0 169.921 299.079
12.4983 -83.0677 0 165 312.04
0.250051 -80.0887 0 153.031 316
-6.74177 -68.1486 0 147 328.484
-14.6357 -57.3061 0 140.001 339.999
-23.857 -46.8685 0 131.516 351.484
-32.429 -36.1601 0 123.737 363.263
-40.356 -25.4715 0 116.666 375.334
-50.0322 -15.4209 0 108.181 386.819
-59.4812 -4.5906 0 99.6956 398.304
-70.0472 5.53988 0 89.7115 409
-63.8959 11.8741 0 96.2175 415
-50.8814 16.5434 0 109.561 419
-48.3503 25.7423 0 113 429.49
-53.5143 37.398 0 109 442.833
-56.4782 50.7392 0 107 457.005
-59.8442 62.7042 0 104 470.762
-69.9807 68.2648 0 92.9758 480.024
-79.0823 73.9903 0 82.0762 489.924
-88.8018 77.5871 0 70.298 497.702
-97.0528 83.7796 0 60.1059 507.894
-104.372 91.1963 0 50.9132 519.087
-111.657 99.0728 0 42.5491 529.451
-116.974 109.061 0 36.1849 541.815
-122.109 117.728 0 29 553.839
-127.105 125.97 0 21.7498 565.25
-133.532 135.998 0 13.9716 577.028
-140.486 147.268 0 6.60748 588.393
-143.649 160.795 0 3 601.898
-140.669 170.79 0 5.65576 612
-128.35 164.376 0 18.1705 606
-114.726 169.793 0 29.8989 613.899
-103.87 179.358 0 41.129 623
-92.55 188.295 0 52.4011 632
-80.2446 194.835 0 64.6477 638.648
-70.9525 195.04 0 73.938 638.938
-79.1255 184.045 0 65.8669 627.867
-86.1112 171.962 0 59 615.711
-91.5054 159.296 0 53.8459 602.846
-98.1769 148.461 0 49 589.853
-96.8846 142.674 0 53.4191 580
-88.5318 137.232 0 64.4886 570.511
-80.2269 132.164 0 75.5491 561
-71.8381 127.064 0 86.5804 551.42
-63.2373 121.405 0 97.4802 541.52
-54.4168 116.182 0 108.537 532
-45.5671 110.99 0 119.572 522.428
-36.0699 108.578 0 131.643 515.357
-24.7621 106.762 0 144.593 510.407
-13.1902 100.896 0 156 502.475
-5.16233 90.1979 0 163 490.374
2.80348 79.9853 0 170.514 478.486
12.5423 71.0287 0 180 467.416
22.0447 61.2011 0 188.191 455.809
30.6276 50.8322 0 195.262 443.738
41.3541 44.8622 0 206.057 435
50.4128 57.694 0 216.526 444.526
60.2403 70.0901 0 227.602 454
70.0818 81.7185 0 238.911 462.911
80.2338 92.4198 0 250.56 471
90.8806 103.858 0 262.174 479.174
102.924 115.621 0 274.245 486.245
107.858 132.937 0 280 498.862
110.916 151.7 0 284 512.205
113.928 170.404 0 288 525.548
117.554 187.152 0 293 538.477
122.232 203.678 0 298.995 550.995
129.174 221.455 0 306.773 562.773
136.111 239.354 0 314.551 574.551
144.486 256.915 0 323.743 585.743
152.004 274.567 0 332.229 597.229
159.874 290.798 0 341.421 608.421
167.552 304.154 0 351 618.867
176.134 314.248 0 361.382 627
182.514 310.498 0 366.861 622
185.126 299.932 0 367.169 610.831
200.426 304.407 0 380.582 607
214.344 303.307 0 394.339 604
227.448 298.288 0 406.311 596.689
226.812 289.294 0 404.046 588
212.618 285.448 0 389.46 587
197.881 279.237 0 374.874 586
184.536 268.975 0 361.961 583.039
179.184 251.94 0 356 572.431
176.239 232.921 0 352 559.088
173.81 213.832 0 348.527 545.527
170.232 194.993 0 344 532.403
166.023 175.831 0 339 519.474
162.959 156.402 0 335.093 506.093
159.795 137.47 0 331 492.789
159.757 118.346 0 330 479.032
162.664 101.186 0 331 464.446
169.037 89.724 0 336 452.689
160.645 80.3046 0 326.538 444.538
153.008 67.1478 0 317.345 433.345
143.843 54.6962 0 306.86 423.86
148.636 48.8112 0 311 418.459
141.954 35.9854 0 303 407.358
135.096 21.2994 0 294.768 395.768
128.598 7.02139 0 286.99 383.99
121.132 -6.5828 0 278.505 372.505
113.729 -19.4008 0 270 361.027
105.636 -32.5503 0 261 349.755
100.661 -46.2124 0 255.998 338
103.369 -57.7704 0 259 326.483
108.154 -70.322 0 263 313.141
112.532 -83.2386 0 266 299.384
116.659 -96.0321 0 269 285.626
120.697 -107.645 0 273 272.284
130.939 -111.74 0 284.578 264.422
142.795 -111.461 0 297.331 261
155.866 -106.552 0 311.917 262
165.936 -107.213 0 322 258.155
175.957 -111.663 0 331.188 250
186.023 -104.217 0 344.531 252
198.304 -98.4587 0 359.117 251
210.483 -92.3235 0 373.703 250
222.688 -87.1919 0 387.874 248
218.892 -74.3661 0 391 260.459
211.6 -61.075 0 391 275.459
203.781 -48.6865 0 390 290.047
196.693 -35.474 0 390 305.044
188.914 -23.089 0 389 319.633
181.83 -9.86834 0 389 334.633
174.056 2.51149 0 388 349.217
166.97 15.7319 0 388 364.217
161.361 28.3429 0 389.018 377.982
166.563 29.189 0 394 376.269
170.435 17.7299 0 392 364.34
178.895 6.18591 0 394 350.169
189.779 -2.39578 0 399.537 337.463
203.168 -7.91716 0 408.73 326.27
217.276 -9.73531 0 420.304 318
231.203 -9.74276 0 432.579 311.421
245.164 -10.2822 0 444.649 304.351
259.202 -11.5665 0 456.428 296.572
271.183 -17.9079 0 464 285.295
281.654 -26.8937 0 469 272.366
289.955 -38.3164 0 471 258.194
297.553 -50.5694 0 472 243.608
304.227 -63.0367 0 472 229.438
311.038 -74.3659 0 472.64 216.36
318.339 -86.6315 0 473.238 202.238
322.609 -98.6107 0 471.297 189.703
330.23 -111.193 0 471.996 174.996
334.346 -124.694 0 469.168 161.168
334.658 -138.6 0 462.804 148.804
328.78 -150.981 0 451.733 140.733
321.259 -162.728 0 439.522 134
313.963 -174.652 0 427.422 127
308.43 -187.306 0 416.52 118.52
306.456 -201.446 0 408.035 107.035
309.05 -215.109 0 403.792 93.7925
314.957 -227.654 0 403 79.9492
322.406 -237.182 0 405 68.0205
321.931 -245.169 0 400.772 61.2279
312.205 -235.16 0 397 74.6653
304.367 -222.816 0 396 89.2529
297.21 -209.636 0 396 104.253
289.369 -197.3 0 395 118.836
282.209 -184.118 0 395 133.837
275.048 -170.933 0 395 148.837
267.207 -158.585 0 394 163.422
260.041 -145.389 0 394 178.422
252.216 -133.07 0 393 193.009
245.115 -120.029 0 393 208.01
234.459 -117.668 0 384.873 215.873
222.274 -126.326 0 370.234 215
209.948 -134.641 0 355.649 214
197.416 -142.67 0 341.063 213
191.856 -152.896 0 332.72 206
177.937 -158.979 0 318.135 205
167.693 -169.045 0 306.439 198.439
163.504 -182.611 0 299.367 186.367
161.602 -194.855 0 294.581 175
169.164 -200.95 0 300.319 167
157.073 -204.463 0 287.862 166.862
156.339 -217.49 0 284 154.29
152.733 -230.992 0 277.134 142.134
148.925 -244.425 0 270 130.09
146.2 -256.406 0 264.235 119.235
144.002 -268.781 0 258.871 107.871
139.185 -281.044 0 251 97.303
134.259 -294.39 0 242.729 85.7291
127.116 -306.912 0 232.536 75.5365
114.369 -312.725 0 218.708 73.2917
103.983 -318.927 0 207.052 70.0515
100.373 -332.44 0 200 57.9727
108.525 -340.538 0 205.713 48
116.29 -348.831 0 211 37.9436
115.467 -353.385 0 209 33.7725
113.221 -364.126 0 203.989 24.0107
108.912 -374.594 0 197.061 15.061
101.534 -382.909 0 187.744 9
90.7702 -390.759 0 175.283 4.28345
75.9406 -398.24 0 159 1
75.3544 -379.526 0 163.397 19.2
84.4896 -189.356 0 222.418 199.851
78.1062 -261.853 0 197.158 131.895
108.509 -286.084 0 220.087 100.537
-8.31998 12.2167 0 151.861 410.94
158.68 -136.081 0 306.586 232.878
246.712 -94.2059 0 406.468 230.06
124.222 -183.879 0 261.32 195.618
46.1915 -179.996 0 188.497 217.457
58.8687 -69.2682 0 212.946 320.627
110.793 -242.169 0 233.86 142.326
283.951 -105.71 0 433.92 201.91
129.96 -210.183 0 260.625 168.349
66.0932 -28.4889 0 222.394 359.242
72.4217 -120.523 0 221.899 268.749
-27.9172 66.849 0 136.779 470.704
305.407 -132.301 0 440.11 168.305
248.721 -49.6723 0 429.173 267.959
90.3172 34.3195 0 251.883 414.403
122.199 84.7258 0 288.938 454.209
5.12593 37.5241 0 167.384 435.514
-1.00861 -20.5496 0 156.203 376.245
110.679 -146.627 0 256.529 235.57
82.4157 -87.1708 0 235.437 299.924
52.4145 -145.382 0 199.546 248.849
272.328 -72.0748 0 439.635 236.523
92.2524 1.93122 0 250.681 384.232
95.9969 66.9457 0 261.248 443.175
12.5539 -45.7278 0 168.09 349.187
3 42 41 43
3 38 37 36
3 43 41 44
3 40 46 45
3 40 45 44
3 41 40 44
3 5 3 2
3 1 261 2
3 39 35 34
3 39 38 35
3 39 34 46
3 46 40 39
3 35 38 36
3 33 46 34
3 46 33 47
3 30 49 48
3 50 49 29
3 27 52 51
3 27 53 52
3 28 51 50
3 31 48 47
3 31 30 48
3 28 50 29
3 30 29 49
3 54 56 55
3 54 53 56
3 56 53 27
3 28 27 51
3 56 27 26
3 31 47 32
3 33 32 47
3 0 260 261
3 7 6 256
3 6 5 261
3 264 13 12
3 2 261 5
3 4 3 5
3 9 8 7
3 6 261 258
3 257 256 6
3 256 253 7
3 253 256 255
3 10 9 252
3 10 252 251
3 253 252 9
3 7 253 9
3 257 6 258
3 16 15 14
3 16 14 263
3 263 17 16
3 57 26 25
3 58 25 24
3 14 13 263
3 17 263 18
3 264 11 250
3 11 264 12
3 21 20 271
3 61 60 269
3 263 19 18
3 23 269 24
3 250 11 251
3 19 263 20
3 10 251 11
3 56 26 57
3 22 21 262
3 0 261 1
3 246 245 271
3 23 22 269
3 107 87 86
3 107 86 108
3 86 85 108
3 105 90 89
3 89 88 106
3 107 88 87
3 107 106 88
3 85 84 109
3 76 75 74
3 77 76 74
3 110 109 84
3 85 109 108
3 84 83 110
3 82 111 83
3 82 81 112
3 95 93 92
3 92 91 95
3 91 90 104
3 104 95 91
3 95 94 93
3 103 97 96
3 95 104 96
3 96 104 103
3 102 97 103
3 90 105 104
3 102 98 97
3 99 98 101
3 101 100 99
3 98 102 101
3 89 106 105
3 59 58 60
3 57 25 58
3 289 70 69
3 282 265 72
3 289 282 70
3 60 58 269
3 63 275 64
3 275 63 285
3 67 66 68
3 68 66 289
3 270 65 64
3 173 172 275
3 24 269 58
3 289 274 282
3 73 72 265
3 78 265 281
3 265 78 77
3 81 80 276
3 83 111 110
3 79 78 276
3 82 112 111
3 119 118 281
3 77 74 73
3 276 281 116
3 281 120 119
3 276 78 281
3 276 112 81
3 112 276 113
3 113 276 114
3 114 276 115
3 265 120 281
3 282 71 70
3 275 270 64
3 255 254 253
3 264 250 249
3 248 264 249
3 264 247 246
3 271 245 244
3 271 263 264
3 271 264 246
3 243 242 273
3 273 241 268
3 241 240 239
3 273 242 241
3 268 239 238
3 236 235 266
3 268 266 283
3 241 239 268
3 283 266 174
3 266 176 175
3 177 176 266
3 234 178 266
3 266 178 177
3 283 174 173
3 284 172 171
3 283 285 262
3 266 235 234
3 179 234 233
3 232 231 181
3 180 233 232
3 179 233 180
3 181 180 232
3 182 181 231
3 230 267 231
3 234 179 178
3 284 171 170
3 222 221 218
3 221 219 218
3 219 221 220
3 223 222 217
3 216 224 223
3 226 225 214
3 215 225 224
3 222 218 217
3 216 215 224
3 217 216 223
3 226 214 277
3 277 212 211
3 277 214 213
3 215 214 225
3 277 211 210
3 182 231 267
3 278 286 203
3 227 277 228
3 207 272 208
3 184 278 185
3 184 183 278
3 201 200 278
3 278 199 198
3 226 277 227
3 272 207 206
3 208 272 277
3 206 205 286
3 273 262 21
3 205 204 286
3 267 183 182
3 203 202 278
3 206 286 272
3 273 21 271
3 208 277 209
3 277 210 209
3 169 168 270
3 270 284 169
3 270 168 274
3 163 279 164
3 165 287 166
3 165 164 287
3 287 120 274
3 284 170 169
3 163 162 279
3 160 288 162
3 279 288 122
3 161 160 162
3 158 280 159
3 160 280 288
3 287 164 279
3 158 156 280
3 124 123 288
3 280 160 159
3 288 280 125
3 153 129 128
3 129 152 130
3 128 127 154
3 126 155 127
3 154 127 155
3 130 152 131
3 153 128 154
3 132 131 151
3 150 133 132
3 133 149 134
3 134 148 135
3 153 152 129
3 126 280 155
3 156 155 280
3 158 157 156
3 194 189 188
3 187 195 188
3 194 190 189
3 192 190 193
3 190 192 191
3 193 190 194
3 196 187 186
3 186 185 197
3 197 185 198
3 278 198 185
3 196 195 187
3 194 188 195
3 197 196 186
3 151 150 132
3 149 133 150
3 134 149 148
3 140 137 136
3 137 139 138
3 147 136 135
3 148 147 135
3 131 152 151
3 147 146 140
3 145 144 142
3 146 145 141
3 139 137 140
3 145 142 141
3 141 140 146
3 143 142 144
3 140 136 147
3 260 259 261
3 199 278 200
3 258 261 259
3 247 264 248
3 13 264 263
3 73 265 77
3 72 71 282
3 174 266 175
3 237 236 266
3 272 230 229
3 204 203 286
3 238 237 268
3 266 268 237
3 22 262 269
3 283 262 268
3 168 167 274
3 66 65 270
3 271 244 243
3 20 263 271
3 230 272 267
3 228 272 229
3 262 273 268
3 243 273 271
3 287 167 166
3 282 120 265
3 62 285 63
3 62 61 285
3 79 276 80
3 116 115 276
3 277 272 228
3 213 212 277
3 267 278 183
3 202 201 278
3 122 121 279
3 279 121 120
3 126 125 280
3 288 125 124
3 118 117 281
3 281 117 116
3 289 69 68
3 120 282 274
3 173 275 283
3 283 275 285
3 270 275 284
3 172 284 275
3 61 269 285
3 262 285 269
3 278 267 286
3 272 286 267
3 120 287 279
3 167 287 274
3 122 288 123
3 288 279 162
3 274 289 270
3 66 270 289
