ply
format ascii 1.0
element vertex 290
property float x
property float y
property float z
property float u
property float v
element face 317
property list uchar int vertex_indices
end_header
0.51193 -342.965 0 147.636 8.36396
-8.12842 -333.088 0 139.979 19.0208
-9.46094 -318.972 0 140 33.201
-7.09151 -305.206 0 143.678 46.6777
4.74498 -300.73 0 155.887 50
11.0055 -312.414 0 161 37.7695
16.9994 -312.037 0 167 37.5736
22.8684 -299.908 0 174 49.0883
27.3562 -286.79 0 179.719 61.7193
39.7363 -290.342 0 191.704 57
45.0915 -280.155 0 198 66.6324
48.8423 -266.809 0 203 79.5613
41.3358 -259.281 0 196.239 87.7609
30.2914 -251.282 0 186 96.7624
19.5672 -243.112 0 176.097 105.903
9.58431 -233.944 0 167.026 115.974
13.2212 -221.714 0 171.803 127.803
12.5444 -212.471 0 172 137.064
17.3905 -200.024 0 177.995 148.995
23.2968 -187.336 0 185.066 161.066
33.1999 -177.572 0 195.844 169.844
39.7835 -165.05 0 203.622 181.622
34.8745 -159.885 0 199.605 187
21.3752 -164.751 0 186.185 183.185
7.90003 -170.091 0 172.919 179
-6.27247 -175.264 0 159.407 175.407
-20.8978 -178.588 0 145.818 174
-33.4776 -187.692 0 134 166.718
-37.6151 -202.504 0 130.265 153.265
-42.1778 -217.015 0 126 140.032
-47.4873 -231.249 0 121 127.103
-51.9067 -245.727 0 116.83 113.83
-57.5916 -259.274 0 111 101.245
-63.5981 -272.685 0 104.809 88.8092
-71.0778 -285.467 0 97.031 77.031
-77.2881 -298.078 0 90 64.9434
-80.8634 -306.462 0 85.8385 56.8385
-89.573 -308.601 0 77 55.3289
-86.9974 -295.237 0 80.5247 68.4753
-85.0001 -288.722 0 83 74.8438
-98.4663 -285.434 0 69.8678 79.1322
-107.505 -293.232 0 60.2982 72
-116.763 -300.357 0 50.554 65.554
-118.915 -292.069 0 49 73.9741
-113.739 -280.327 0 55 85.3173
-106.253 -268.788 0 63.2955 96.2955
-94.0722 -262.211 0 75.9327 102
-83.1032 -252.98 0 86 109.276
-80.7707 -237.565 0 88 123.448
-78.0785 -222.419 0 90.4379 137.438
-76.2411 -207.819 0 92 150.963
-74.0531 -192.584 0 94 165.134
-71.3347 -178.087 0 97 178.892
-67.858 -164.125 0 101 192.235
-63.3172 -150.689 0 106.116 205.116
-56.8255 -138.359 0 113.265 217
-49.4342 -141.458 0 120.43 213.43
-36.0711 -133.955 0 133.087 219.087
-23.3862 -126.091 0 145 225.052
-19.8074 -118.671 0 148.809 232
-6.9915 -114.009 0 161.694 235.694
1.14304 -104.441 0 170 244.081
1.63851 -90.0798 0 171 257.839
2.1211 -75.04 0 172 272.425
4.80981 -60.6441 0 175 286.182
-0.599091 -47.7203 0 169.921 299.079
-5.91258 -34.886 0 165 312.04
-17.9984 -31.2906 0 153.031 316
-24.3933 -19.0036 0 147 328.484
-31.7411 -7.74115 0 140.001 339.999
-40.5306 3.35822 0 131.516 351.484
-48.635 14.7481 0 123.737 363.263
-56.0606 26.3362 0 116.666 375.334
-65.0078 37.3275 0 108.181 386.819
-73.8621 48.572 0 99.6956 398.304
-84.0818 59.0453 0 89.7115 409
-77.7158 65.1831 0 96.2175 415
-64.4938 69.4577 0 109.561 419
-61.4083 79.5543 0 113 429.49
-65.8384 92.3429 0 109 442.833
-68.2101 106.239 0 107 457.005
-71.3831 119.4 0 104 470.762
-82.1259 127.371 0 92.9758 480.024
-92.4612 135.797 0 82.0762 489.924
-103.58 142.086 0 70.298 497.702
-113.166 150.851 0 60.1059 507.894
-121.784 160.69 0 50.9132 519.087
-129.841 170.139 0 42.5491 529.451
-135.927 181.636 0 36.1849 541.815
-142.501 192.427 0 29 553.839
-149.086 202.648 0 21.7498 565.25
-156.52 213.698 0 13.9716 577.028
-163.887 224.907 0 6.60748 588.393
-167.534 238.363 0 3 601.898
-164.913 248.468 0 5.65576 612
-152.374 242.509 0 18.1705 606
-140.106 249.688 0 29.8989 613.899
-129.12 259.095 0 41.129 623
-117.95 268.221 0 52.4011 632
-105.77 274.992 0 64.6477 638.648
-96.4834 275.375 0 73.938 638.938
-104.444 264.225 0 65.8669 627.867
-111.192 252.004 0 59 615.711
-116.258 239.14 0 53.8459 602.846
-121.544 226.821 0 49 589.853
-118.052 218.387 0 53.4191 580
-107.79 210.355 0 64.4886 570.511
-97.5692 202.427 0 75.5491 561
-87.3486 194.439 0 86.5804 551.42
-77.1492 186.04 0 97.4802 541.52
-66.7791 178.036 0 108.537 532
-56.4187 170.003 0 119.572 522.428
-45.1582 164.568 0 131.643 515.357
-32.693 160.725 0 144.593 510.407
-21.1842 153.506 0 156 502.475
-13.8008 141.878 0 163 490.374
-6.09863 130.58 0 170.514 478.486
3.52437 120.254 0 180 467.416
12.2026 109.251 0 188.191 455.809
19.8281 97.7551 0 195.262 443.738
30.6369 89.9938 0 206.057 435
40.6025 100.669 0 216.526 444.526
51.2308 111.169 0 227.602 454
62.0168 121.058 0 238.911 462.911
73.1366 130.113 0 250.56 471
84.4099 139.452 0 262.174 479.174
96.4895 148.129 0 274.245 486.245
101.943 162.308 0 280 498.862
105.607 177.448 0 284 512.205
109.25 192.571 0 288 525.548
113.729 206.806 0 293 538.477
119.227 220.702 0 298.995 550.995
126.714 234.518 0 306.773 562.773
134.196 248.377 0 314.551 574.551
143.105 261.751 0 323.743 585.743
151.239 275.352 0 332.229 597.229
159.928 288.316 0 341.421 608.421
168.768 299.882 0 351 618.867
178.462 308.852 0 361.382 627
184.337 304.333 0 366.861 622
185.589 293.325 0 367.169 610.831
199.851 292.369 0 380.582 607
213.729 290.21 0 394.339 604
226.221 283.824 0 406.311 596.689
224.623 274.976 0 404.046 588
210.138 272.807 0 389.46 587
195.419 269.882 0 374.874 586
182.248 264.353 0 361.961 583.039
176.486 251.564 0 356 572.431
172.874 236.309 0 352 559.088
169.785 220.897 0 348.527 545.527
165.599 205.852 0 344 532.403
160.869 190.833 0 339 519.474
157.254 175.436 0 335.093 506.093
153.486 160.25 0 331 492.789
152.824 144.726 0 330 479.032
154.533 129.259 0 331 464.446
160.087 117.624 0 336 452.689
151.035 108.957 0 326.538 444.538
142.415 97.0034 0 317.345 433.345
132.384 86.4209 0 306.86 423.86
136.758 80.873 0 311 418.459
129.238 69.1293 0 303 407.358
121.469 56.4359 0 294.768 395.768
114.129 43.7595 0 286.99 383.99
106.001 31.5064 0 278.505 372.505
97.9027 19.5207 0 270 361.027
89.2127 7.56457 0 261 349.755
84.1881 -4.83865 0 255.998 338
87.0952 -16.3301 0 259 326.483
91.4218 -29.3836 0 263 313.141
94.9675 -42.8595 0 266 299.384
98.4214 -56.2962 0 269 285.626
102.524 -69.015 0 273 272.284
113.81 -75.4715 0 284.578 264.422
126.406 -77.5382 0 297.331 261
140.614 -75.1139 0 311.917 262
150.829 -77.8425 0 322 258.155
160.486 -84.7162 0 331.188 250
173.018 -80.6697 0 344.531 252
187.187 -79.2413 0 359.117 251
201.358 -77.697 0 373.703 250
215.279 -77.1905 0 387.874 248
216.215 -64.1827 0 391 260.459
213.788 -49.3128 0 391 275.459
210.486 -35.0541 0 390 290.047
208.124 -20.2452 0 390 305.044
204.838 -5.99429 0 389 319.633
202.481 8.81877 0 389 334.633
199.196 23.0639 0 388 349.217
196.841 37.8783 0 388 364.217
195.679 51.6311 0 389.018 377.982
200.87 50.7244 0 394 376.269
200.77 38.6287 0 392 364.34
204.973 24.9476 0 394 350.169
212.441 13.2711 0 399.537 337.463
223.279 3.66436 0 408.73 326.27
236.011 -2.68009 0 420.304 318
249.166 -7.24563 0 432.579 311.421
262.191 -12.328 0 444.649 304.351
275.041 -18.1493 0 456.428 296.572
284.29 -28.0832 0 464 285.295
291.253 -40.0408 0 469 272.366
295.419 -53.6574 0 471 258.194
298.662 -67.8337 0 472 243.608
300.896 -81.8114 0 472 229.438
303.617 -94.6583 0 472.64 216.36
306.472 -108.549 0 473.238 202.238
306.559 -121.241 0 471.297 189.703
309.602 -135.641 0 471.996 174.996
309.025 -149.743 0 469.168 161.168
304.724 -162.968 0 462.804 148.804
295.087 -172.709 0 451.733 140.733
284.109 -181.311 0 439.522 134
273.286 -190.156 0 427.422 127
263.883 -200.272 0 416.52 118.52
257.347 -212.965 0 408.035 107.035
255.282 -226.718 0 403.792 93.7925
256.712 -240.51 0 403 79.9492
260.593 -251.965 0 405 68.0205
257.505 -259.346 0 400.772 61.2279
251.634 -246.685 0 397 74.6653
248.314 -232.445 0 396 89.2529
245.915 -217.64 0 396 104.253
242.589 -203.407 0 395 118.836
240.188 -188.599 0 395 133.837
237.786 -173.792 0 395 148.837
234.465 -159.554 0 394 163.422
232.064 -144.743 0 394 178.422
228.75 -130.515 0 393 193.009
226.367 -115.759 0 393 208.01
217.147 -109.548 0 384.873 215.873
202.93 -113.117 0 370.234 215
188.746 -116.666 0 355.649 214
174.527 -120.127 0 341.063 213
167.006 -128.321 0 332.72 206
152.47 -131.064 0 318.135 205
141.178 -138.856 0 306.439 198.439
135.084 -151.525 0 299.367 186.367
131.29 -163.28 0 294.581 175
137.733 -170.664 0 300.319 167
125.3 -171.999 0 287.862 166.862
122.536 -184.822 0 284 154.29
116.786 -197.548 0 277.134 142.134
110.791 -210.182 0 270 130.09
106.069 -221.529 0 264.235 119.235
101.795 -233.348 0 258.871 107.871
94.9528 -244.609 0 251 97.303
87.8116 -256.911 0 242.729 85.7291
78.628 -268.023 0 232.536 75.5365
65.0738 -271.562 0 218.708 73.2917
53.7782 -275.892 0 207.052 70.0515
47.9023 -288.584 0 200 57.9727
54.5416 -297.964 0 205.713 48
60.7653 -307.469 0 211 37.9436
59.1721 -311.813 0 209 33.7725
55.1139 -322.009 0 203.989 24.0107
49.0708 -331.58 0 197.061 15.061
40.3739 -338.502 0 187.744 9
28.4217 -344.387 0 175.283 4.28345
12.5275 -349.209 0 159 1
15.1648 -330.672 0 163.397 19.2
56.8078 -145.11 0 222.418 199.851
38.0768 -215.246 0 197.158 131.895
63.8704 -244.31 0 220.087 100.537
-22.0505 62.8008 0 151.861 410.94
138.081 -104.632 0 306.586 232.878
236.207 -91.8526 0 406.468 230.06
96.2799 -145.929 0 261.32 195.618
21.0994 -130.331 0 188.497 217.457
41.5407 -24.3442 0 212.946 320.627
73.6403 -201.419 0 233.86 142.326
267.716 -115.17 0 433.92 201.91
97.8935 -173.052 0 260.625 168.349
50.1454 15.0322 0 222.394 359.242
52.2082 -76.0018 0 221.899 268.749
-38.8883 120.877 0 136.779 470.704
279.199 -147.354 0 440.11 168.305
252.639 -50.7041 0 429.173 267.959
77.7633 72.9275 0 251.883 414.403
113.013 116.571 0 288.938 454.209
-7.31102 87.6972 0 167.384 435.514
-16.5465 28.7313 0 156.203 376.245
88.3186 -106.688 0 256.529 235.57
64.491 -43.9958 0 235.437 299.924
30.5596 -97.6987 0 199.546 248.849
267.806 -79.9241 0 439.635 236.523
77.7135 41.9954 0 250.681 384.232
85.7896 103.069 0 261.248 443.175
-3.96305 2.35001 0 168.09 349.187
3 42 41 43
3 38 37 36
3 43 41 44
3 40 46 45
3 40 45 44
3 41 40 44
3 5 3 2
3 1 261 2
3 39 35 34
3 39 38 35
3 39 34 46
3 46 40 39
3 35 38 36
3 33 46 34
3 46 33 47
3 30 49 48
3 50 49 29
3 27 52 51
3 27 53 52
3 28 51 50
3 31 48 47
3 31 30 48
3 28 50 29
3 30 29 49
3 54 56 55
3 54 53 56
3 56 53 27
3 28 27 51
3 56 27 26
3 31 47 32
3 33 32 47
3 0 260 261
3 7 6 256
3 6 5 261
3 264 13 12
3 2 261 5
3 4 3 5
3 9 8 7
3 6 261 258
3 257 256 6
3 256 253 7
3 253 256 255
3 10 9 252
3 10 252 251
3 253 252 9
3 7 253 9
3 257 6 258
3 16 15 14
3 16 14 263
3 263 17 16
3 57 26 25
3 58 25 24
3 14 13 263
3 17 263 18
3 264 11 250
3 11 264 12
3 21 20 271
3 61 60 269
3 263 19 18
3 23 269 24
3 250 11 251
3 19 263 20
3 10 251 11
3 56 26 57
3 22 21 262
3 0 261 1
3 246 245 271
3 23 22 269
3 107 87 86
3 107 86 108
3 86 85 108
3 105 90 89
3 89 88 106
3 107 88 87
3 107 106 88
3 85 84 109
3 76 75 74
3 77 76 74
3 110 109 84
3 85 109 108
3 84 83 110
3 82 111 83
3 82 81 112
3 95 93 92
3 92 91 95
3 91 90 104
3 104 95 91
3 95 94 93
3 103 97 96
3 95 104 96
3 96 104 103
3 102 97 103
3 90 105 104
3 102 98 97
3 99 98 101
3 101 100 99
3 98 102 101
3 89 106 105
3 59 58 60
3 57 25 58
3 289 70 69
3 282 265 72
3 289 282 70
3 60 58 269
3 63 275 64
3 275 63 285
3 67 66 68
3 68 66 289
3 270 65 64
3 173 172 275
3 24 269 58
3 289 274 282
3 73 72 265
3 78 265 281
3 265 78 77
3 81 80 276
3 83 111 110
3 79 78 276
3 82 112 111
3 119 118 281
3 77 74 73
3 276 281 116
3 281 120 119
3 276 78 281
3 276 112 81
3 112 276 113
3 113 276 114
3 114 276 115
3 265 120 281
3 282 71 70
3 275 270 64
3 255 254 253
3 264 250 249
3 248 264 249
3 264 247 246
3 271 245 244
3 271 263 264
3 271 264 246
3 243 242 273
3 273 241 268
3 241 240 239
3 273 242 241
3 268 239 238
3 236 235 266
3 268 266 283
3 241 239 268
3 283 266 174
3 266 176 175
3 177 176 266
3 234 178 266
3 266 178 177
3 283 174 173
3 284 172 171
3 283 285 262
3 266 235 234
3 179 234 233
3 232 231 181
3 180 233 232
3 179 233 180
3 181 180 232
3 182 181 231
3 230 267 231
3 234 179 178
3 284 171 170
3 222 221 218
3 221 219 218
3 219 221 220
3 223 222 217
3 216 224 223
3 226 225 214
3 215 225 224
3 222 218 217
3 216 215 224
3 217 216 223
3 226 214 277
3 277 212 211
3 277 214 213
3 215 214 225
3 277 211 210
3 182 231 267
3 278 286 203
3 227 277 228
3 207 272 208
3 184 278 185
3 184 183 278
3 201 200 278
3 278 199 198
3 226 277 227
3 272 207 206
3 208 272 277
3 206 205 286
3 273 262 21
3 205 204 286
3 267 183 182
3 203 202 278
3 206 286 272
3 273 21 271
3 208 277 209
3 277 210 209
3 169 168 270
3 270 284 169
3 270 168 274
3 163 279 164
3 165 287 166
3 165 164 287
3 287 120 274
3 284 170 169
3 163 162 279
3 160 288 162
3 279 288 122
3 161 160 162
3 158 280 159
3 160 280 288
3 287 164 279
3 158 156 280
3 124 123 288
3 280 160 159
3 288 280 125
3 153 129 128
3 129 152 130
3 128 127 154
3 126 155 127
3 154 127 155
3 130 152 131
3 153 128 154
3 132 131 151
3 150 133 132
3 133 149 134
3 134 148 135
3 153 152 129
3 126 280 155
3 156 155 280
3 158 157 156
3 194 189 188
3 187 195 188
3 194 190 189
3 192 190 193
3 190 192 191
3 193 190 194
3 196 187 186
3 186 185 197
3 197 185 198
3 278 198 185
3 196 195 187
3 194 188 195
3 197 196 186
3 151 150 132
3 149 133 150
3 134 149 148
3 140 137 136
3 137 139 138
3 147 136 135
3 148 147 135
3 131 152 151
3 147 146 140
3 145 144 142
3 146 145 141
3 139 137 140
3 145 142 141
3 141 140 146
3 143 142 144
3 140 136 147
3 260 259 261
3 199 278 200
3 258 261 259
3 247 264 248
3 13 264 263
3 73 265 77
3 72 71 282
3 174 266 175
3 237 236 266
3 272 230 229
3 204 203 286
3 238 237 268
3 266 268 237
3 22 262 269
3 283 262 268
3 168 167 274
3 66 65 270
3 271 244 243
3 20 263 271
3 230 272 267
3 228 272 229
3 262 273 268
3 243 273 271
3 287 167 166
3 282 120 265
3 62 285 63
3 62 61 285
3 79 276 80
3 116 115 276
3 277 272 228
3 213 212 277
3 267 278 183
3 202 201 278
3 122 121 279
3 279 121 120
3 126 125 280
3 288 125 124
3 118 117 281
3 281 117 116
3 289 69 68
3 120 282 274
3 173 275 283
3 283 275 285
3 270 275 284
3 172 284 275
3 61 269 285
3 262 285 269
3 278 267 286
3 272 286 267
3 120 287 279
3 167 287 274
3 122 288 123
3 288 279 162
3 274 289 270
3 66 270 289
