ply
format ascii 1.0
element vertex 363
property float x
property float y
property float z
property float u
property float v
element face 493
property list uchar int vertex_indices
end_header
56 14.7574 0 56 14.7574
51.5147 15.5147 0 51.5147 15.5147
45 8.20101 0 45 8.20101
47.2635 22.2635 0 47.2635 22.2635
38.8371 33.1629 0 38.8371 33.1629
35 46.5736 0 35 46.5736
29.6447 59.3553 0 29.6447 59.3553
23 71.603 0 23 71.603
14.8823 80 0 14.8823 80
12.967 92.033 0 12.967 92.033
4.60306 102.397 0 4.60306 102.397
1 115.076 0 1 115.076
10.8334 122 0 10.8334 122
23 118.823 0 23 118.823
30 107.309 0 30 107.309
34 114.62 0 34 114.62
28.0954 125.095 0 28.0954 125.095
36.2354 130 0 36.2354 130
46.9446 121.055 0 46.9446 121.055
47 107.735 0 47 107.735
50 106.365 0 50 106.365
60.88 110 0 60.88 110
73.2791 116.279 0 73.2791 116.279
85.9095 122 0 85.9095 122
98.8857 126.886 0 98.8857 126.886
108 134.596 0 108 134.596
109 149.182 0 109 149.182
108 163.767 0 108 163.767
108 178.767 0 108 178.767
106.043 192.957 0 106.043 192.957
103 206.11 0 103 206.11
102 220.696 0 102 220.696
103 235.282 0 103 235.282
106 249.039 0 106 249.039
110 262.383 0 110 262.383
116 274.897 0 116 274.897
124.584 286 0 124.584 286
134.484 289.484 0 134.484 289.484
144.384 300.384 0 144.384 300.384
155.814 309 0 155.814 309
167.915 316 0 167.915 316
180 321.844 0 180 321.844
175 334.773 0 175 334.773
168.089 346.911 0 168.089 346.911
162.432 359.568 0 162.432 359.568
156.068 371.932 0 156.068 371.932
149.704 384.296 0 149.704 384.296
143 396.519 0 143 396.519
146.317 409.317 0 146.317 409.317
154.802 420.802 0 154.802 420.802
161.873 432.873 0 161.873 432.873
168.237 445.237 0 168.237 445.237
174 457.85 0 174 457.85
179.551 470.551 0 179.551 470.551
190.708 477 0 190.708 477
203.223 483 0 203.223 483
203.892 494.108 0 203.892 494.108
193 504.01 0 193 504.01
189.957 516.957 0 189.957 516.957
204.939 517 0 204.939 517
217.2 511.8 0 217.2 511.8
217 498.374 0 217 498.374
223.555 487 0 223.555 487
226.951 475.951 0 226.951 475.951
221 463.416 0 221 463.416
222 448.83 0 222 448.83
222.827 434.173 0 222.827 434.173
225 420.073 0 225 420.073
228.484 406.516 0 228.484 406.516
229.898 392.102 0 229.898 392.102
231 377.558 0 231 377.558
233 363.386 0 233 363.386
234 348.8 0 234 348.8
236.371 337 0 236.371 337
249.715 339 0 249.715 339
263.058 343 0 263.058 343
276.869 345.869 0 276.869 345.869
291.815 346 0 291.815 346
306.402 347 0 306.402 347
320.991 347.991 0 320.991 347.991
333.744 346 0 333.744 346
348.33 345 0 348.33 345
362.502 343 0 362.502 343
376.183 339.817 0 376.183 339.817
388.254 339.254 0 388.254 339.254
399.154 349.154 0 399.154 349.154
410.053 359.053 0 410.053 359.053
420.246 369.246 0 420.246 369.246
431.439 378.439 0 431.439 378.439
440.924 388.924 0 440.924 388.924
439.419 401.581 0 439.419 401.581
429.519 412.481 0 429.519 412.481
418.913 423.087 0 418.913 423.087
407.605 432 0 407.605 432
396.529 441.471 0 396.529 441.471
387 450.767 0 387 450.767
384 464.525 0 384 464.525
381 478.282 0 381 478.282
379 492.454 0 379 492.454
388.383 501 0 388.383 501
399.049 491.951 0 399.049 491.951
405 479.416 0 405 479.416
397 468.315 0 397 468.315
404.727 458.273 0 404.727 458.273
412.505 446.495 0 412.505 446.495
422.405 435.595 0 422.405 435.595
432.305 424.695 0 432.305 424.695
443.497 415.503 0 443.497 415.503
455.389 408 0 455.389 408
467.346 400.654 0 467.346 400.654
471 389.41 0 471 389.41
461.39 378.39 0 461.39 378.39
454 366.452 0 454 366.452
453.802 352.198 0 453.802 352.198
465.873 358.873 0 465.873 358.873
478.336 365 0 478.336 365
490.851 371 0 490.851 371
502.537 379 0 502.537 379
512 389.809 0 512 389.809
518 402.324 0 518 402.324
521 416.082 0 521 416.082
522 430.667 0 522 430.667
521 445.253 0 521 445.253
520 459.839 0 520 459.839
516 473.182 0 516 473.182
512.336 486.664 0 512.336 486.664
502.85 497.15 0 502.85 497.15
498 510.141 0 498 510.141
507.514 515.486 0 507.514 515.486
520.464 510.536 0 520.464 510.536
528 499.244 0 528 499.244
527.363 485.637 0 527.363 485.637
534 473.386 0 534 473.386
533 458.799 0 533 458.799
533 443.801 0 533 443.801
533 428.798 0 533 428.798
533 413.8 0 533 413.8
533 398.802 0 533 398.802
535 384.628 0 535 384.628
529.495 372.495 0 529.495 372.495
518.01 364.01 0 518.01 364.01
507.11 354.11 0 507.11 354.11
500.039 342.039 0 500.039 342.039
497 328.298 0 497 328.298
499.617 314.383 0 499.617 314.383
503.86 301.14 0 503.86 301.14
507 287.441 0 507 287.441
509 273.27 0 509 273.27
512 259.513 0 512 259.513
513 244.927 0 513 244.927
511 230.756 0 511 230.756
508 216.999 0 508 216.999
503.757 203.757 0 503.757 203.757
498.1 191.1 0 498.1 191.1
490.385 179.615 0 490.385 179.615
503.334 183.334 0 503.334 183.334
516.284 188.284 0 516.284 188.284
528.355 195.355 0 528.355 195.355
538.254 206.254 0 538.254 206.254
543 219.288 0 543 219.288
546 233.045 0 546 233.045
551 245.974 0 551 245.974
557 258.488 0 557 258.488
562 271.417 0 562 271.417
564 285.589 0 564 285.589
567.244 299.244 0 567.244 299.244
574.446 311 0 574.446 311
584.507 319.507 0 584.507 319.507
596.285 325.285 0 596.285 325.285
604.253 325 0 604.253 325
601.108 315.108 0 601.108 315.108
590 307.053 0 590 307.053
581 296.366 0 581 296.366
573 284.68 0 573 284.68
571 271.337 0 571 271.337
572.875 258.875 0 572.875 258.875
570.075 245.925 0 570.075 245.925
572 231.724 0 572 231.724
571 217.137 0 571 217.137
567 203.794 0 567 203.794
560 191.694 0 560 191.694
550.006 182.006 0 550.006 182.006
537.079 177 0 537.079 177
523.736 173 0 523.736 173
510.394 169 0 510.394 169
497.036 165.036 0 497.036 165.036
484.123 160 0 484.123 160
471.723 153.723 0 471.723 153.723
459.094 148 0 459.094 148
445.751 144 0 445.751 144
431.58 142 0 431.58 142
416.993 141 0 416.993 141
402.408 140 0 402.408 140
387.822 141 0 387.822 141
373.236 142 0 373.236 142
358.651 143 0 358.651 143
344.894 144 0 344.894 144
332.551 145 0 332.551 145
317.965 144 0 317.965 144
316.612 137.388 0 316.612 137.388
304.108 142 0 304.108 142
289.937 140 0 289.937 140
275.765 138 0 275.765 138
262.591 135.591 0 262.591 135.591
261.187 125.813 0 261.187 125.813
253.985 126.015 0 253.985 126.015
254 114.636 0 254 114.636
248 122.878 0 248 122.878
244 114.365 0 244 114.365
241 114.221 0 241 114.221
235.436 126 0 235.436 126
225 117.335 0 225 117.335
215.045 107.045 0 215.045 107.045
206.267 96.2667 0 206.267 96.2667
196.074 86.0737 0 196.074 86.0737
186.296 76.2959 0 186.296 76.2959
175.396 66.3965 0 175.396 66.3965
164.289 57 0 164.289 57
153.012 48.0117 0 153.012 48.0117
140.917 41 0 140.917 41
128.402 35 0 128.402 35
115.921 28.9207 0 115.921 28.9207
103.264 23.2642 0 103.264 23.2642
98.4452 22 0 98.4452 22
85.1021 18 0 85.1021 18
71.3452 15 0 71.3452 15
55 1 0 55 1
45.8903 101.335 0 45.8903 101.335
242.226 120.009 0 242.226 120.009
52.5679 8.09181 0 52.5679 8.09181
54.9865 22.4151 0 54.9865 22.4151
98.4463 31.8128 0 98.4463 31.8128
43.9965 114.383 0 43.9965 114.383
38.5405 105.906 0 38.5405 105.906
57.5287 96.0206 0 57.5287 96.0206
242.353 126.996 0 242.353 126.996
62.1026 7.39874 0 62.1026 7.39874
63.597 19.6588 0 63.597 19.6588
50.9003 33.7821 0 50.9003 33.7821
39.141 120.516 0 39.141 120.516
236.997 139.676 0 236.997 139.676
31.5971 90.3364 0 31.5971 90.3364
75.2291 30.2319 0 75.2291 30.2319
62.6716 31.5956 0 62.6716 31.5956
136.171 268.881 0 136.171 268.881
118.132 113.377 0 118.132 113.377
161.299 398.605 0 161.299 398.605
195.359 456.079 0 195.359 456.079
323.575 322.698 0 323.575 322.698
214.719 478.238 0 214.719 478.238
212.705 338.382 0 212.705 338.382
457.704 391.305 0 457.704 391.305
264.589 161.892 0 264.589 161.892
46.0665 86.3193 0 46.0665 86.3193
185.091 295.898 0 185.091 295.898
340.627 168.015 0 340.627 168.015
203.832 468.213 0 203.832 468.213
60.9515 55.1145 0 60.9515 55.1145
381.148 316.539 0 381.148 316.539
70.3694 43.981 0 70.3694 43.981
200.417 131.156 0 200.417 131.156
197.051 422.983 0 197.051 422.983
422.381 169.289 0 422.381 169.289
468.307 175.857 0 468.307 175.857
471.798 316.354 0 471.798 316.354
477.693 339.775 0 477.693 339.775
485.002 241.652 0 485.002 241.652
552.907 208.3 0 552.907 208.3
430.81 348.49 0 430.81 348.49
490.803 355.047 0 490.803 355.047
111.179 54.5085 0 111.179 54.5085
74.0062 99.4618 0 74.0062 99.4618
219.345 134.764 0 219.345 134.764
126.96 250.027 0 126.96 250.027
155.002 280.794 0 155.002 280.794
99.0791 106.697 0 99.0791 106.697
151.941 82.8597 0 151.941 82.8597
136.288 139.984 0 136.288 139.984
164.551 384.118 0 164.551 384.118
183.751 445.772 0 183.751 445.772
205.438 440.543 0 205.438 440.543
300.604 324.684 0 300.604 324.684
351.606 317.001 0 351.606 317.001
217.764 355.014 0 217.764 355.014
192.312 352.666 0 192.312 352.666
280.617 154.829 0 280.617 154.829
38.8117 72.255 0 38.8117 72.255
169.243 299.746 0 169.243 299.746
246.853 312.579 0 246.853 312.579
324.135 160.878 0 324.135 160.878
352.811 157.793 0 352.811 157.793
64.6218 76.0179 0 64.6218 76.0179
86.1032 41.8088 0 86.1032 41.8088
182.177 110.163 0 182.177 110.163
176.212 416.367 0 176.212 416.367
203.35 396.773 0 203.35 396.773
436.431 158.83 0 436.431 158.83
396.814 165.27 0 396.814 165.27
475.957 197.641 0 475.957 197.641
459.81 163.215 0 459.81 163.215
479.332 288.308 0 479.332 288.308
498.072 251.231 0 498.072 251.231
494.231 227.207 0 494.231 227.207
414.856 342.816 0 414.856 342.816
127.962 51.9686 0 127.962 51.9686
124.953 226.45 0 124.953 226.45
148.443 65.3118 0 148.443 65.3118
169.857 83.445 0 169.857 83.445
136.577 171.267 0 136.577 171.267
284.477 330.505 0 284.477 330.505
365.832 326.322 0 365.832 326.322
339.963 329.83 0 339.963 329.83
193.278 334.41 0 193.278 334.41
178.025 358.944 0 178.025 358.944
44.8885 58.2295 0 44.8885 58.2295
261.371 324.372 0 261.371 324.372
309.04 156.829 0 309.04 156.829
80.8478 62.3949 0 80.8478 62.3949
198.863 111.26 0 198.863 111.26
212.791 409.709 0 212.791 409.709
182.238 395.698 0 182.238 395.698
214.724 383.639 0 214.724 383.639
381.599 157.106 0 381.599 157.106
408.73 154.654 0 408.73 154.654
443.995 183.02 0 443.995 183.02
487.21 303.107 0 487.21 303.107
492.863 278.22 0 492.863 278.22
125.084 204.291 0 125.084 204.291
124.892 157.598 0 124.892 157.598
308.874 187.611 0 308.874 187.611
193.713 375.248 0 193.713 375.248
366.193 186.116 0 366.193 186.116
121.936 187.919 0 121.936 187.919
218.812 170.85 0 218.812 170.85
173.295 281.874 0 173.295 281.874
469.885 221.824 0 469.885 221.824
433.642 315.259 0 433.642 315.259
123.633 80.0814 0 123.633 80.0814
160.215 104.091 0 160.215 104.091
201.368 312.564 0 201.368 312.564
276.579 290.818 0 276.579 290.818
471.499 263.683 0 471.499 263.683
282.805 181.512 0 282.805 181.512
381.458 175.627 0 381.458 175.627
143.635 192.235 0 143.635 192.235
166.208 246.484 0 166.208 246.484
286.034 309.566 0 286.034 309.566
405.326 194.451 0 405.326 194.451
205.91 266.414 0 205.91 266.414
384.466 196.356 0 384.466 196.356
206.135 152.616 0 206.135 152.616
316.609 282.388 0 316.609 282.388
398.526 235.144 0 398.526 235.144
181.679 183.143 0 181.679 183.143
307.754 303.214 0 307.754 303.214
355.821 226.048 0 355.821 226.048
171.896 150.246 0 171.896 150.246
446.669 285.139 0 446.669 285.139
284.222 234.226 0 284.222 234.226
247.503 196.023 0 247.503 196.023
365.677 272.079 0 365.677 272.079
406.659 285.711 0 406.659 285.711
435.783 247.445 0 435.783 247.445
3 238 4 3
3 9 8 241
3 241 233 14
3 238 257 314
3 238 243 259
3 236 0 229
3 0 236 237
3 0 230 1
3 3 2 1
3 231 224 223
3 4 238 5
3 1 230 3
3 226 236 229
3 21 20 234
3 243 230 237
3 13 10 14
3 10 9 14
3 14 233 15
3 11 10 12
3 10 13 12
3 239 16 15
3 8 7 241
3 227 234 20
3 15 232 239
3 234 271 21
3 271 22 21
3 20 19 227
3 231 222 221
3 223 222 231
3 221 270 231
3 23 22 271
3 217 216 306
3 304 270 220
3 306 218 217
3 307 214 293
3 318 213 212
3 318 293 214
3 208 207 228
3 214 213 318
3 25 245 277
3 228 209 208
3 338 276 307
3 207 206 205
3 24 23 275
3 272 210 240
3 235 207 205
3 212 211 260
3 228 235 210
3 204 203 205
3 210 235 240
3 198 197 289
3 198 200 199
3 316 201 200
3 240 203 252
3 285 252 202
3 220 270 221
3 328 27 26
3 30 327 31
3 244 34 273
3 32 273 33
3 32 31 305
3 28 27 328
3 244 35 34
3 273 34 33
3 287 40 39
3 36 35 244
3 37 244 274
3 274 38 37
3 328 308 28
3 44 278 45
3 48 246 49
3 46 246 47
3 246 48 47
3 294 261 279
3 279 247 52
3 244 37 36
3 42 41 312
3 46 278 246
3 250 283 284
3 294 279 50
3 247 53 52
3 41 339 312
3 25 277 26
3 250 312 339
3 248 78 281
3 68 67 319
3 283 250 72
3 69 68 319
3 283 71 70
3 76 75 309
3 288 315 74
3 81 80 311
3 311 282 310
3 76 309 77
3 79 78 248
3 79 248 80
3 287 41 40
3 247 256 54
3 56 249 61
3 58 57 59
3 60 56 61
3 59 57 56
3 59 56 60
3 55 249 56
3 64 249 256
3 65 280 66
3 65 247 280
3 63 62 249
3 62 61 249
3 247 54 53
3 261 67 66
3 250 73 72
3 354 281 346
3 196 290 255
3 193 323 297
3 191 190 296
3 84 83 258
3 191 323 192
3 189 296 190
3 323 296 262
3 187 186 263
3 263 186 154
3 154 185 155
3 185 154 186
3 184 155 185
3 301 302 150
3 187 263 299
3 268 303 336
3 264 144 143
3 81 311 310
3 265 143 142
3 83 82 310
3 142 269 265
3 154 298 263
3 150 302 151
3 325 326 146
3 146 145 325
3 325 300 326
3 149 301 150
3 144 325 145
3 149 148 301
3 301 266 302
3 155 184 156
3 193 192 323
3 157 156 183
3 183 156 184
3 157 183 182
3 178 267 179
3 158 157 181
3 181 157 182
3 179 267 180
3 178 159 267
3 177 161 160
3 178 177 160
3 159 178 160
3 180 158 181
3 176 161 177
3 176 162 161
3 162 176 175
3 162 175 163
3 164 163 174
3 174 173 164
3 164 173 165
3 163 175 174
3 172 165 173
3 165 172 166
3 172 171 166
3 166 171 167
3 168 167 170
3 170 169 168
3 167 171 170
3 235 228 207
3 0 237 230
3 87 86 268
3 87 268 88
3 106 92 91
3 91 90 107
3 303 86 85
3 265 113 264
3 112 89 88
3 90 89 251
3 90 108 107
3 110 251 111
3 108 90 251
3 89 112 111
3 268 112 88
3 303 268 86
3 106 91 107
3 102 96 95
3 103 102 95
3 99 98 100
3 101 97 102
3 98 97 100
3 97 96 102
3 95 94 103
3 92 105 93
3 105 92 106
3 93 105 104
3 97 101 100
3 94 104 103
3 94 93 104
3 141 269 142
3 114 265 115
3 116 141 117
3 251 110 109
3 140 118 117
3 117 141 140
3 139 138 118
3 138 137 118
3 120 119 136
3 137 136 119
3 118 137 119
3 120 136 135
3 139 118 140
3 125 130 126
3 124 131 125
3 127 126 128
3 253 234 227
3 129 128 126
3 129 126 130
3 124 123 132
3 122 121 134
3 135 134 121
3 121 120 135
3 122 134 133
3 130 125 131
3 131 124 132
3 133 132 123
3 122 133 123
3 141 116 269
3 3 230 238
3 233 227 19
3 239 232 18
3 233 232 15
3 233 19 232
3 14 9 241
3 253 227 241
3 271 291 317
3 203 240 205
3 235 205 240
3 237 236 225
3 224 242 225
3 242 224 231
3 242 237 225
3 286 253 241
3 18 17 239
3 16 239 17
3 202 252 203
3 287 38 274
3 6 286 7
3 227 233 241
3 317 259 292
3 230 243 238
3 237 242 243
3 253 286 291
3 305 327 344
3 305 345 273
3 270 304 337
3 25 24 245
3 278 46 45
3 295 321 319
3 279 52 51
3 256 65 64
3 281 78 77
3 289 197 255
3 256 249 55
3 64 63 249
3 283 72 71
3 312 284 42
3 108 251 109
3 89 111 251
3 202 201 285
3 250 339 73
3 286 241 7
3 6 314 286
3 344 345 305
3 252 342 359
3 290 196 195
3 197 196 255
3 256 247 65
3 54 256 55
3 242 259 243
3 259 257 238
3 81 310 82
3 193 322 194
3 231 292 242
3 242 292 259
3 210 272 211
3 254 287 334
3 294 50 49
3 246 320 294
3 152 151 302
3 255 290 331
3 298 154 153
3 296 299 324
3 112 268 113
3 343 347 349
3 113 265 114
3 264 143 265
3 335 266 341
3 324 263 298
3 159 158 267
3 180 267 158
3 85 84 303
3 113 268 336
3 116 115 269
3 265 269 115
3 304 220 219
3 23 271 275
3 291 234 253
3 275 245 24
3 333 240 252
3 260 211 272
3 327 30 29
3 305 273 32
3 345 244 273
3 254 41 287
3 317 275 271
3 275 317 337
3 307 306 216
3 307 216 215
3 338 245 276
3 31 327 305
3 42 284 43
3 283 321 330
3 50 279 51
3 280 279 261
3 279 280 247
3 261 66 280
3 288 74 73
3 342 285 316
3 248 281 354
3 352 355 349
3 319 321 69
3 313 44 43
3 70 69 321
3 43 284 313
3 316 198 289
3 329 342 316
3 314 6 5
3 286 314 291
3 38 287 39
3 334 287 274
3 348 334 345
3 281 77 309
3 255 331 329
3 198 316 200
3 195 194 290
3 193 297 322
3 257 259 317
3 271 234 291
3 231 270 292
3 317 291 257
3 293 260 356
3 276 306 307
3 49 246 294
3 320 246 278
3 320 261 294
3 284 330 313
3 188 299 189
3 299 188 187
3 297 347 343
3 343 290 322
3 152 298 153
3 324 262 296
3 324 299 263
3 189 299 296
3 113 336 264
3 301 326 341
3 148 147 301
3 326 147 146
3 335 302 266
3 152 302 298
3 84 258 303
3 303 258 336
3 306 219 218
3 304 306 337
3 333 350 240
3 332 327 29
3 337 306 276
3 219 306 304
3 214 307 215
3 338 307 293
3 353 356 350
3 272 240 350
3 74 315 75
3 315 340 346
3 282 258 310
3 258 83 310
3 80 248 311
3 248 282 311
3 339 41 254
3 250 284 312
3 283 330 284
3 278 44 313
3 238 314 5
3 291 314 257
3 315 288 340
3 309 75 315
3 316 289 329
3 201 316 285
3 292 270 317
3 270 337 317
3 212 260 318
3 260 293 318
3 67 261 319
3 261 295 319
3 330 278 313
3 320 295 261
3 320 330 295
3 283 70 321
3 322 297 343
3 290 194 322
3 296 323 191
3 262 297 323
3 335 298 302
3 324 298 335
3 144 264 325
3 264 300 325
3 326 300 341
3 301 147 326
3 332 29 28
3 260 272 350
3 26 277 328
3 277 308 328
3 255 329 289
3 281 309 346
3 295 330 321
3 278 330 320
3 324 347 262
3 349 355 331
3 28 308 332
3 344 332 308
3 285 342 252
3 332 344 327
3 244 345 274
3 254 334 348
3 301 341 266
3 300 357 341
3 343 349 331
3 264 336 357
3 276 245 337
3 275 337 245
3 356 338 293
3 245 338 277
3 348 339 254
3 73 339 288
3 348 288 339
3 351 282 248
3 357 300 264
3 360 258 282
3 329 358 342
3 359 348 353
3 347 297 262
3 290 343 331
3 277 356 308
3 274 345 334
3 359 333 252
3 353 344 308
3 315 346 309
3 340 351 354
3 335 362 324
3 362 341 357
3 348 345 353
3 288 348 340
3 352 349 347
3 351 355 360
3 350 333 353
3 356 260 350
3 358 351 340
3 355 329 331
3 324 362 347
3 357 336 361
3 353 333 359
3 345 344 353
3 340 354 346
3 248 354 351
3 352 362 361
3 355 351 358
3 308 356 353
3 356 277 338
3 361 336 258
3 357 361 362
3 358 329 355
3 348 358 340
3 342 358 359
3 348 359 358
3 351 360 282
3 352 360 355
3 258 360 361
3 352 361 360
3 347 362 352
3 335 341 362
