ply
format ascii 1.0
element vertex 271
property float x
property float y
property float z
property float u
property float v
element face 361
property list uchar int vertex_indices
end_header
43.1716 14.8284 0 43.1716 14.8284
35.7279 4 0 35.7279 4
36 17.0294 0 36 17.0294
28 28.1299 0 28 28.1299
24.3726 41.6274 0 24.3726 41.6274
18 53.9878 0 18 53.9878
10.0589 61.9411 0 10.0589 61.9411
7.10915 74.8909 0 7.10915 74.8909
1.03809 85.9619 0 1.03809 85.9619
9.08323 93.9168 0 9.08323 93.9168
19.033 87.967 0 19.033 87.967
27 85.9756 0 27 85.9756
21.9045 97 0 21.9045 97
32.1751 97.8249 0 32.1751 97.8249
37.461 85.461 0 37.461 85.461
39 83.4486 0 39 83.4486
49.9741 86.9741 0 49.9741 86.9741
62.6309 92.6309 0 62.6309 92.6309
75.8212 97 0 75.8212 97
83 106.579 0 83 106.579
83 120.75 0 83 120.75
83 135.75 0 83 135.75
80.9068 149 0 80.9068 149
79 162.679 0 79 162.679
79 177.679 0 79 177.679
81.6015 191.601 0 81.6015 191.601
85.8441 204.844 0 85.8441 204.844
92.9152 216.915 0 92.9152 216.915
102.279 222.279 0 102.279 222.279
112.253 233 0 112.253 233
123.957 240.957 0 123.957 240.957
136.614 246.614 0 136.614 246.614
134.022 257.978 0 134.022 257.978
127.658 270.341 0 127.658 270.341
122 282.998 0 122 282.998
115.637 295.363 0 115.637 295.363
109.273 307.727 0 109.273 307.727
115.798 319.798 0 115.798 319.798
123 331.814 0 123 331.814
129.94 343.94 0 129.94 343.94
135 356.844 0 135 356.844
143.359 367 0 143.359 367
156.288 372 0 156.288 372
154.432 383.568 0 154.432 383.568
145 394.075 0 145 394.075
156.661 398 0 156.661 398
168 391.996 0 168 391.996
168.831 378.169 0 168.831 378.169
175.219 368.219 0 175.219 368.219
170 355.38 0 170 355.38
171 340.795 0 171 340.795
173 326.623 0 173 326.623
176 312.866 0 176 312.866
177 298.28 0 177 298.28
178.923 284.077 0 178.923 284.077
180 269.522 0 180 269.522
183.235 260 0 183.235 260
196.164 263 0 196.164 263
209.922 266 0 209.922 266
224.507 267 0 224.507 267
239.507 267 0 239.507 267
252.894 267.106 0 252.894 267.106
267.436 266 0 267.436 266
281.608 264 0 281.608 264
294.673 259.327 0 294.673 259.327
305.865 267.865 0 305.865 267.865
316.765 277.765 0 316.765 277.765
327.25 287.25 0 327.25 287.25
338 297.211 0 338 297.211
337.487 309.513 0 337.487 309.513
328.002 320 0 328.002 320
317.395 330.605 0 317.395 330.605
305.909 339.091 0 305.909 339.091
296.424 349.576 0 296.424 349.576
294 363.572 0 294 363.572
291 377.329 0 291 377.329
300.183 385.817 0 300.183 385.817
309.254 375.746 0 309.254 375.746
307.089 363.089 0 307.089 363.089
310.389 354 0 310.389 354
318.346 342.654 0 318.346 342.654
328.246 331.754 0 328.246 331.754
339.145 321.855 0 339.145 321.855
350.923 314.077 0 350.923 314.077
362.701 306.299 0 362.701 306.299
357.521 294.521 0 357.521 294.521
349.742 282.742 0 349.742 282.742
351.294 272 0 351.294 272
363.394 279 0 363.394 279
375.909 285 0 375.909 285
387.714 292.714 0 387.714 292.714
396 304.282 0 396 304.282
401 317.212 0 401 317.212
401 332.211 0 401 332.211
401 347.211 0 401 347.211
398 360.969 0 398 360.969
394.487 374.513 0 394.487 374.513
385.294 385.706 0 385.294 385.706
385.927 398 0 385.927 398
399.271 394 0 399.271 394
405.859 382.859 0 405.859 382.859
409 370.457 0 409 370.457
410 356.699 0 410 356.699
410 341.699 0 410 341.699
410.212 326.788 0 410.212 326.788
410 312.528 0 410 312.528
412 298.357 0 412 298.357
406.428 286 0 406.428 286
395.11 277.11 0 395.11 277.11
386.332 266.332 0 386.332 266.332
382 253.126 0 382 253.126
385.447 239.553 0 385.447 239.553
389 226.025 0 389 226.025
392 212.268 0 392 212.268
394 198.096 0 394 198.096
394 183.924 0 394 183.924
392 169.753 0 392 169.753
387.582 156.582 0 387.582 156.582
381.218 144.218 0 381.218 144.218
385.146 140.146 0 385.146 140.146
398.095 145.095 0 398.095 145.095
409.581 153.581 0 409.581 153.581
417 165.508 0 417 165.508
420 179.265 0 420 179.265
425 192.194 0 425 192.194
429.38 205.38 0 429.38 205.38
433.209 218.209 0 433.209 218.209
437 231.638 0 437 231.638
445.815 241.815 0 445.815 241.815
457.008 249.008 0 457.008 249.008
464.335 249.335 0 464.335 249.335
457.264 239.264 0 457.264 239.264
448 229.273 0 448 229.273
440.292 217.708 0 440.292 217.708
440 204.243 0 440 204.243
438.778 191.222 0 438.778 191.222
440.394 177.394 0 440.394 177.394
438.98 162.98 0 438.98 162.98
433 150.457 0 433 150.457
423.545 140.545 0 423.545 140.545
410.842 135 0 410.842 135
397.353 131.353 0 397.353 131.353
383.818 127.818 0 383.818 127.818
370.868 122.868 0 370.868 122.868
358.713 116 0 358.713 116
345.555 111.555 0 345.555 111.555
331.613 109 0 331.613 109
317.028 108 0 317.028 108
302.028 108 0 302.028 108
287.442 109 0 287.442 109
272.856 110 0 272.856 110
258.685 110 0 258.685 110
245.514 111 0 245.514 111
240.999 107 0 240.999 107
227.171 108.171 0 227.171 108.171
212.757 106.757 0 212.757 106.757
201.807 101.807 0 201.807 101.807
198.029 93.9712 0 198.029 93.9712
195 87.6979 0 195 87.6979
193 87.0591 0 193 87.0591
188 92.0123 0 188 92.0123
185.594 87.4055 0 185.594 87.4055
178.498 96 0 178.498 96
168.453 85.453 0 168.453 85.453
159.26 74.2603 0 159.26 74.2603
149.068 64.0684 0 149.068 64.0684
139 54.4097 0 139 54.4097
128.097 45.0972 0 128.097 45.0972
116.905 35.9045 0 116.905 35.9045
104.765 29 0 104.765 29
92.2505 23 0 92.2505 23
80 17.3221 0 80 17.3221
69.3994 15.3994 0 69.3994 15.3994
56.1571 11.1571 0 56.1571 11.1571
42 1 0 42 1
192.783 91.1888 0 192.783 91.1888
34.3967 81.5227 0 34.3967 81.5227
42.0642 87.3868 0 42.0642 87.3868
182.408 92.0011 0 182.408 92.0011
191.748 99.4769 0 191.748 99.4769
40.3674 73.7159 0 40.3674 73.7159
45.7166 81.3838 0 45.7166 81.3838
37.1602 92.6443 0 37.1602 92.6443
175.313 88.9761 0 175.313 88.9761
184.95 98.3972 0 184.95 98.3972
235.636 117.601 0 235.636 117.601
375.663 134.932 0 375.663 134.932
43.779 29.5916 0 43.779 29.5916
436.263 211.06 0 436.263 211.06
58.4955 76.068 0 58.4955 76.068
166.829 97.0569 0 166.829 97.0569
186.292 111.887 0 186.292 111.887
178.51 105.85 0 178.51 105.85
20.0421 75.0722 0 20.0421 75.0722
107.816 201.758 0 107.816 201.758
163.477 258.598 0 163.477 258.598
336.564 275.356 0 336.564 275.356
360.748 150.159 0 360.748 150.159
71.0367 36.5562 0 71.0367 36.5562
170.898 123.694 0 170.898 123.694
97.6589 88.1127 0 97.6589 88.1127
152.292 351.13 0 152.292 351.13
253.151 133.119 0 253.151 133.119
218.276 124.669 0 218.276 124.669
152.55 89.1427 0 152.55 89.1427
201.169 117.805 0 201.169 117.805
148.811 255.372 0 148.811 255.372
359.756 134.269 0 359.756 134.269
107.196 146.363 0 107.196 146.363
246.402 241.548 0 246.402 241.548
195.415 236.869 0 195.415 236.869
124.075 307.525 0 124.075 307.525
147.641 325.76 0 147.641 325.76
148.941 287.45 0 148.941 287.45
357.866 239.774 0 357.866 239.774
370.241 264.297 0 370.241 264.297
36.4114 55.6572 0 36.4114 55.6572
58.6396 26.197 0 58.6396 26.197
73.7864 81.0479 0 73.7864 81.0479
100.862 180.798 0 100.862 180.798
141.062 219.672 0 141.062 219.672
119.784 215.994 0 119.784 215.994
164.069 275.661 0 164.069 275.661
324.449 258.354 0 324.449 258.354
322.415 136.288 0 322.415 136.288
370.251 169.722 0 370.251 169.722
90.2439 43.2366 0 90.2439 43.2366
116.79 69.3734 0 116.79 69.3734
109.998 113.664 0 109.998 113.664
265.77 123.918 0 265.77 123.918
143.922 270.893 0 143.922 270.893
95.0813 157.948 0 95.0813 157.948
279.238 236.774 0 279.238 236.774
259.054 251.938 0 259.054 251.938
232.007 251.309 0 232.007 251.309
206.285 249.633 0 206.285 249.633
160.643 316.723 0 160.643 316.723
364.894 213.563 0 364.894 213.563
54.7598 43.4376 0 54.7598 43.4376
161.201 233.992 0 161.201 233.992
309.328 251.72 0 309.328 251.72
340.717 259.579 0 340.717 259.579
309.528 124.086 0 309.528 124.086
335.777 125.597 0 335.777 125.597
373.641 191.01 0 373.641 191.01
133.504 70.216 0 133.504 70.216
112.544 52.6243 0 112.544 52.6243
99.3974 128.25 0 99.3974 128.25
276.99 152.561 0 276.99 152.561
143.864 306.455 0 143.864 306.455
372.261 228.859 0 372.261 228.859
342.935 143.295 0 342.935 143.295
233.625 137.515 0 233.625 137.515
148.38 113.505 0 148.38 113.505
196.644 153.828 0 196.644 153.828
187.79 129.78 0 187.79 129.78
72.5783 58.7917 0 72.5783 58.7917
135.06 191.004 0 135.06 191.004
113.78 165.374 0 113.78 165.374
222.506 221.801 0 222.506 221.801
329.057 227.3 0 329.057 227.3
123.97 93.1407 0 123.97 93.1407
94.7826 66.0406 0 94.7826 66.0406
300.468 146.561 0 300.468 146.561
171.118 149.572 0 171.118 149.572
342.433 171.145 0 342.433 171.145
249.405 162.048 0 249.405 162.048
139.26 145.905 0 139.26 145.905
171.374 198.364 0 171.374 198.364
299.646 192.283 0 299.646 192.283
257.65 203.606 0 257.65 203.606
3 2 187 3
3 176 193 180
3 193 5 216
3 174 173 0
3 187 4 3
3 2 1 0
3 173 172 217
3 187 2 0
3 184 160 179
3 170 169 226
3 8 7 10
3 10 9 8
3 193 10 7
3 176 14 11
3 7 6 193
3 181 177 15
3 14 182 11
3 181 189 16
3 176 180 15
3 11 13 12
3 15 14 176
3 187 0 217
3 156 155 205
3 189 218 17
3 170 226 198
3 218 256 262
3 168 167 246
3 165 164 204
3 164 163 204
3 245 167 166
3 204 163 190
3 159 175 160
3 160 178 161
3 18 17 218
3 253 267 228
3 190 163 183
3 160 175 179
3 158 175 159
3 178 160 184
3 156 179 157
3 185 153 152
3 154 185 203
3 155 154 203
3 17 16 189
3 20 19 228
3 25 24 219
3 22 231 23
3 194 27 26
3 25 194 26
3 247 20 228
3 221 28 194
3 28 221 29
3 184 192 162
3 199 190 192
3 37 36 211
3 211 36 35
3 37 211 38
3 212 39 38
3 32 206 230
3 230 33 32
3 201 41 40
3 39 212 201
3 31 206 32
3 213 249 34
3 20 247 21
3 191 205 255
3 53 213 222
3 52 51 236
3 220 31 30
3 60 234 209
3 254 203 252
3 151 150 229
3 229 248 202
3 235 57 210
3 235 58 57
3 220 221 257
3 46 43 47
3 43 45 44
3 45 43 46
3 43 42 47
3 201 49 42
3 50 201 212
3 42 48 47
3 48 42 49
3 42 41 201
3 50 212 51
3 195 55 222
3 153 185 154
3 61 60 233
3 242 147 243
3 147 242 148
3 146 243 147
3 224 242 243
3 207 143 186
3 186 143 142
3 186 119 118
3 186 142 119
3 144 143 207
3 145 243 146
3 241 196 223
3 61 233 62
3 215 214 110
3 215 109 89
3 214 111 110
3 115 114 244
3 112 250 113
3 112 111 250
3 225 197 117
3 116 115 225
3 225 117 116
3 119 142 141
3 202 185 152
3 141 140 120
3 121 120 140
3 138 122 121
3 121 140 139
3 141 120 119
3 138 137 122
3 122 137 123
3 124 123 136
3 136 123 137
3 124 136 135
3 138 121 139
3 135 125 124
3 125 135 134
3 188 134 133
3 133 127 126
3 188 133 126
3 132 131 128
3 132 128 127
3 131 129 128
3 129 131 130
3 132 127 133
3 11 182 13
3 196 87 86
3 70 69 82
3 196 66 223
3 68 67 196
3 86 85 68
3 83 82 69
3 83 68 85
3 83 69 68
3 85 84 83
3 196 86 68
3 223 65 240
3 70 82 81
3 74 73 78
3 76 75 77
3 74 77 75
3 79 73 72
3 71 81 80
3 81 71 70
3 80 79 72
3 78 73 79
3 78 77 74
3 72 71 80
3 89 88 215
3 215 110 109
3 90 89 108
3 108 107 90
3 91 107 106
3 107 91 90
3 91 106 105
3 92 105 104
3 105 92 91
3 93 92 104
3 99 96 100
3 97 99 98
3 99 97 96
3 179 175 157
3 96 95 101
3 93 103 94
3 103 93 104
3 94 103 102
3 101 100 96
3 95 102 101
3 95 94 102
3 11 10 193
3 108 89 109
3 5 4 216
3 158 157 175
3 162 178 184
3 216 180 193
3 177 181 16
3 15 180 181
3 189 180 216
3 190 183 162
3 191 179 156
3 27 194 28
3 202 152 151
3 210 57 56
3 118 197 186
3 186 197 207
3 217 0 173
3 172 171 198
3 126 125 188
3 125 134 188
3 180 189 181
3 167 227 246
3 184 191 192
3 228 19 200
3 30 29 221
3 184 179 191
3 22 21 208
3 190 162 192
3 5 193 6
3 176 11 193
3 231 22 208
3 206 31 239
3 56 55 195
3 55 54 222
3 67 66 196
3 223 66 65
3 117 197 118
3 64 63 232
3 170 198 171
3 238 189 216
3 192 191 199
3 205 191 156
3 245 227 167
3 19 18 200
3 39 201 40
3 50 49 201
3 202 151 229
3 233 63 62
3 202 252 185
3 234 259 209
3 253 190 199
3 245 261 227
3 155 203 205
3 203 254 255
3 31 220 239
3 222 230 195
3 251 243 207
3 144 207 243
3 219 231 258
3 194 25 219
3 60 209 233
3 234 60 59
3 56 195 239
3 252 203 185
3 211 35 34
3 51 212 236
3 38 211 212
3 213 236 249
3 52 236 53
3 33 230 34
3 260 214 241
3 237 113 250
3 88 87 215
3 215 87 241
3 4 187 216
3 187 217 238
3 238 217 198
3 172 198 217
3 189 238 256
3 200 18 218
3 231 24 23
3 255 264 199
3 194 219 257
3 239 195 206
3 257 221 194
3 30 221 220
3 53 222 54
3 222 213 230
3 240 65 64
3 196 241 87
3 265 244 237
3 263 229 149
3 244 113 237
3 248 229 263
3 169 168 246
3 189 256 218
3 245 166 165
3 262 246 227
3 261 200 227
3 253 204 190
3 150 149 229
3 242 263 149
3 230 206 195
3 34 230 213
3 258 231 208
3 24 231 219
3 209 270 232
3 265 251 197
3 209 232 233
3 63 233 232
3 235 59 58
3 234 235 259
3 259 235 210
3 59 235 234
3 249 236 212
3 53 236 213
3 223 240 260
3 244 225 115
3 238 198 256
3 216 187 238
3 220 257 268
3 56 239 210
3 64 232 240
3 214 260 237
3 260 241 223
3 215 241 214
3 224 263 242
3 149 148 242
3 144 243 145
3 251 207 197
3 113 244 114
3 265 237 260
3 165 204 245
3 261 228 200
3 262 227 200
3 169 246 226
3 228 208 247
3 208 21 247
3 270 209 259
3 263 224 265
3 212 211 249
3 34 249 211
3 111 214 250
3 214 237 250
3 265 197 225
3 224 243 251
3 199 191 255
3 202 248 266
3 264 267 199
3 261 253 228
3 202 266 252
3 210 239 268
3 203 255 205
3 264 255 254
3 198 226 256
3 226 246 262
3 258 208 267
3 220 268 239
3 264 257 267
3 257 219 258
3 268 259 210
3 266 254 252
3 240 232 260
3 263 269 248
3 245 204 261
3 253 261 204
3 218 262 200
3 226 262 256
3 265 224 251
3 263 265 269
3 268 264 254
3 267 257 258
3 265 260 269
3 244 265 225
3 248 269 270
3 254 266 259
3 199 267 253
3 228 267 208
3 264 268 257
3 268 254 259
3 260 232 269
3 269 232 270
3 259 266 270
3 270 266 248
