ply
format ascii 1.0
element vertex 310
property float x
property float y
property float z
property float u
property float v
element face 428
property list uchar int vertex_indices
end_header
503.485 166.515 0 503.485 166.515
495.799 169 0 495.799 169
486 167.456 0 486 167.456
481.698 169 0 481.698 169
477 167.645 0 477 167.645
468.766 161.234 0 468.766 161.234
462.402 168.402 0 462.402 168.402
456.038 167.962 0 456.038 167.962
448.674 162.674 0 448.674 162.674
445.397 162.397 0 445.397 162.397
442.761 163.761 0 442.761 163.761
439.461 168.461 0 439.461 168.461
433.39 169.39 0 433.39 169.39
430.974 170.974 0 430.974 170.974
425 171.936 0 425 171.936
417.25 170 0 417.25 170
417 175.149 0 417 175.149
413.913 175.913 0 413.913 175.913
412 177.605 0 412 177.605
410.943 180.943 0 410.943 180.943
407.835 179.835 0 407.835 179.835
401.132 178 0 401.132 178
396 184.554 0 396 184.554
394.83 189.17 0 394.83 189.17
388.345 189.345 0 388.345 189.345
389.859 192.14 0 389.859 192.14
381 193.471 0 381 193.471
382 198.157 0 382 198.157
376.889 196.889 0 376.889 196.889
375.626 198.626 0 375.626 198.626
376.847 203.847 0 376.847 203.847
369.638 201.638 0 369.638 201.638
368.584 210.584 0 368.584 210.584
369.806 216.194 0 369.806 216.194
364.613 214.613 0 364.613 214.613
364.835 218.835 0 364.835 218.835
358.35 218.65 0 358.35 218.65
356.279 222.279 0 356.279 222.279
356.622 232.378 0 356.622 232.378
352.965 232.965 0 352.965 232.965
346.601 234.601 0 346.601 234.601
339.92 233 0 339.92 233
325.749 231 0 325.749 231
311.163 230 0 311.163 230
297.405 229 0 297.405 229
282.405 229 0 282.405 229
268.648 228 0 268.648 228
254.062 227 0 254.062 227
239.89 227 0 239.89 227
224.89 227 0 224.89 227
210.719 227 0 210.719 227
196.387 228.613 0 196.387 228.613
182.559 229.441 0 182.559 229.441
168.618 232 0 168.618 232
155.275 236 0 155.275 236
141.659 239.341 0 141.659 239.341
130.002 245.998 0 130.002 245.998
119.931 251.069 0 119.931 251.069
108.216 259 0 108.216 259
98.6672 269.333 0 98.6672 269.333
90.3032 279.697 0 90.3032 279.697
79.1108 288.889 0 79.1108 288.889
69.2112 299.789 0 69.2112 299.789
60.726 311.274 0 60.726 311.274
53.9261 320 0 53.9261 320
48.7051 332.295 0 48.7051 332.295
42.4824 341 0 42.4824 341
37.5628 351.437 0 37.5628 351.437
33 359.719 0 33 359.719
27 372.234 0 27 372.234
22 385.163 0 22 385.163
18 397.678 0 18 397.678
14 410.193 0 14 410.193
9.1217 419 0 9.1217 419
9 429.879 0 9 429.879
14 442.222 0 14 442.222
21 442.849 0 21 442.849
24 441.091 0 24 441.091
28 429.748 0 28 429.748
33 424.819 0 33 424.819
35 411.476 0 35 411.476
40 401.132 0 40 401.132
43 392.789 0 43 392.789
44.608 381.608 0 44.608 381.608
46.244 371.244 0 46.244 371.244
48.5845 357.415 0 48.5845 357.415
51 343.416 0 51 343.416
58.7771 332.223 0 58.7771 332.223
69.2626 322.737 0 69.2626 322.737
80.4549 313.545 0 80.4549 313.545
90.647 303.353 0 90.647 303.353
91.8172 314.183 0 91.8172 314.183
91 328.016 0 91 328.016
91 343.016 0 91 343.016
93 357.188 0 93 357.188
95 370.531 0 95 370.531
93 383.874 0 93 383.874
87 396.389 0 87 396.389
86 410.146 0 86 410.146
88 423.49 0 88 423.49
89.0534 438.053 0 89.0534 438.053
88.7039 451.296 0 88.7039 451.296
88.1763 465 0 88.1763 465
94 473.934 0 94 473.934
101.196 484.196 0 101.196 484.196
113.853 488.147 0 113.853 488.147
114 474.865 0 114 474.865
108.955 461.955 0 108.955 461.955
107 447.764 0 107 447.764
107 432.764 0 107 432.764
109.995 420.995 0 109.995 420.995
113 434.751 0 113 434.751
114 449.336 0 114 449.336
119.188 457.812 0 119.188 457.812
122 470.023 0 122 470.023
131.78 477 0 131.78 477
140 471.291 0 140 471.291
135 458.361 0 135 458.361
131.72 444.72 0 131.72 444.72
129 430.847 0 129 430.847
127 416.675 0 127 416.675
133.84 405 0 133.84 405
144.372 395.628 0 144.372 395.628
154.565 385.435 0 154.565 385.435
163.757 374.243 0 163.757 374.243
171 362.243 0 171 362.243
177.899 350.101 0 177.899 350.101
189.786 350 0 189.786 350
203.385 353.385 0 203.385 353.385
217.213 356.213 0 217.213 356.213
231.473 358 0 231.473 358
246.059 359 0 246.059 359
259.816 360 0 259.816 360
274.816 360 0 274.816 360
288.988 358 0 288.988 358
303.574 357 0 303.574 357
318.16 356 0 318.16 356
333.16 356 0 333.16 356
347.331 354 0 347.331 354
354.77 363.77 0 354.77 363.77
358 377.431 0 358 377.431
362 390.774 0 362 390.774
366.497 402.497 0 366.497 402.497
370 416.045 0 370 416.045
371 429.802 0 371 429.802
373 443.974 0 373 443.974
375.224 457.224 0 375.224 457.224
377 471.488 0 377 471.488
379.587 484.587 0 379.587 484.587
385 495.345 0 385 495.345
395.102 500 0 395.102 500
405 494.898 0 405 494.898
415.9 489.1 0 415.9 489.1
414.736 477.736 0 414.736 477.736
404.836 466.836 0 404.836 466.836
402 453.011 0 402 453.011
401 438.426 0 401 438.426
400.941 425.059 0 400.941 425.059
401 410.082 0 401 410.082
400.352 395.352 0 400.352 395.352
398.23 381.23 0 398.23 381.23
398 366.325 0 398 366.325
398 352.155 0 398 352.155
401.426 338.574 0 401.426 338.574
411.619 328.381 0 411.619 328.381
420 316.853 0 420 316.853
425.053 303.947 0 425.053 303.947
429 290.582 0 429 290.582
433 277.239 0 433 277.239
436.366 263.634 0 436.366 263.634
441.316 250.684 0 441.316 250.684
447 238.039 0 447 238.039
454.75 226.25 0 454.75 226.25
460.407 234.407 0 460.407 234.407
467.771 245.771 0 467.771 245.771
475 257.776 0 475 257.776
482.62 269.62 0 482.62 269.62
495.391 275 0 495.391 275
508.812 271.188 0 508.812 271.188
520.298 262.702 0 520.298 262.702
522.753 249.753 0 522.753 249.753
519 236.308 0 519 236.308
518 222.55 0 518 222.55
518 207.551 0 518 207.551
515.561 193.561 0 515.561 193.561
510.612 180.612 0 510.612 180.612
511 160 0 511 160
378.908 199.686 0 378.908 199.686
416.18 180.404 0 416.18 180.404
385.42 192.738 0 385.42 192.738
407.28 186.309 0 407.28 186.309
446.581 167.914 0 446.581 167.914
435.2 174.784 0 435.2 174.784
19.1519 436.254 0 19.1519 436.254
353.95 227.413 0 353.95 227.413
355.91 239.639 0 355.91 239.639
383.153 204.379 0 383.153 204.379
361.476 222.84 0 361.476 222.84
486.791 176.423 0 486.791 176.423
388.446 198.436 0 388.446 198.436
423.109 178.794 0 423.109 178.794
401.19 188.326 0 401.19 188.326
414.224 187.116 0 414.224 187.116
370.785 227.238 0 370.785 227.238
476.767 177.274 0 476.767 177.274
111.984 427.767 0 111.984 427.767
107.845 440.264 0 107.845 440.264
376.459 211.807 0 376.459 211.807
396.037 196.834 0 396.037 196.834
429.264 177.119 0 429.264 177.119
458.382 180.306 0 458.382 180.306
407.825 198.158 0 407.825 198.158
429.377 189.682 0 429.377 189.682
435.141 183.348 0 435.141 183.348
22.3428 419.009 0 22.3428 419.009
443.61 175.854 0 443.61 175.854
340.211 246.527 0 340.211 246.527
366.311 236.993 0 366.311 236.993
119.287 421.944 0 119.287 421.944
98.0031 442.952 0 98.0031 442.952
377.782 221.052 0 377.782 221.052
394.715 209.348 0 394.715 209.348
119.883 430.183 0 119.883 430.183
30.9747 393.176 0 30.9747 393.176
502.296 175.966 0 502.296 175.966
444.326 197.496 0 444.326 197.496
115.939 408.763 0 115.939 408.763
386.068 237.475 0 386.068 237.475
386.2 215.13 0 386.2 215.13
121.872 440.651 0 121.872 440.651
111.864 306.539 0 111.864 306.539
473.119 219.552 0 473.119 219.552
394.825 487.311 0 394.825 487.311
366.151 258.13 0 366.151 258.13
498.403 192.699 0 498.403 192.699
400.063 226.385 0 400.063 226.385
387.775 226.312 0 387.775 226.312
134.628 267.72 0 134.628 267.72
483.014 191.398 0 483.014 191.398
369.662 344.713 0 369.662 344.713
381.203 390.132 0 381.203 390.132
387.546 448.344 0 387.546 448.344
386.664 431.805 0 386.664 431.805
504.212 252.945 0 504.212 252.945
109.329 286.494 0 109.329 286.494
142.674 254.653 0 142.674 254.653
183.651 327.404 0 183.651 327.404
118.999 346.291 0 118.999 346.291
246.976 254 0 246.976 254
121.251 380.249 0 121.251 380.249
376.335 365.883 0 376.335 365.883
325.66 327.423 0 325.66 327.423
316.86 253.779 0 316.86 253.779
430.524 218.766 0 430.524 218.766
100.95 409.04 0 100.95 409.04
408.763 264.023 0 408.763 264.023
106.27 321.977 0 106.27 321.977
393.846 306.65 0 393.846 306.65
496.89 215.05 0 496.89 215.05
385.574 341.797 0 385.574 341.797
381.798 405.767 0 381.798 405.767
487.416 242.121 0 487.416 242.121
169.498 259.191 0 169.498 259.191
227.747 329.939 0 227.747 329.939
200.768 334.887 0 200.768 334.887
144.879 354.662 0 144.879 354.662
110.07 361.451 0 110.07 361.451
217.805 253.998 0 217.805 253.998
260.288 243.064 0 260.288 243.064
106.747 379.113 0 106.747 379.113
138.429 379.493 0 138.429 379.493
338.05 339.444 0 338.05 339.444
309.632 338.489 0 309.632 338.489
289.905 254.915 0 289.905 254.915
303.195 244.481 0 303.195 244.481
428.387 237.272 0 428.387 237.272
416.08 279.437 0 416.08 279.437
409.448 305.279 0 409.448 305.279
396.036 322.992 0 396.036 322.992
503.276 230.536 0 503.276 230.536
178.264 245.298 0 178.264 245.298
153.788 270.508 0 153.788 270.508
267.316 331.422 0 267.316 331.422
239.855 342.609 0 239.855 342.609
160.845 348.442 0 160.845 348.442
232.39 243.397 0 232.39 243.397
205.248 242.865 0 205.248 242.865
112.921 393.449 0 112.921 393.449
426.193 252.325 0 426.193 252.325
400.168 289.126 0 400.168 289.126
279.707 343.443 0 279.707 343.443
410.197 242.307 0 410.197 242.307
133.613 323.152 0 133.613 323.152
206.466 298.534 0 206.466 298.534
354.756 309.829 0 354.756 309.829
268.189 266.251 0 268.189 266.251
373.905 322.992 0 373.905 322.992
247.824 322.873 0 247.824 322.873
194.802 267.294 0 194.802 267.294
291.086 319.318 0 291.086 319.318
146.873 336.18 0 146.873 336.18
372.747 289.136 0 372.747 289.136
159.965 309.594 0 159.965 309.594
134.169 293.535 0 134.169 293.535
230.345 305.265 0 230.345 305.265
175.483 284.063 0 175.483 284.063
267.998 303.371 0 267.998 303.371
337.921 280.375 0 337.921 280.375
245.109 281.724 0 245.109 281.724
291.758 284.933 0 291.758 284.933
3 90 62 61
3 63 62 89
3 90 89 62
3 63 89 88
3 61 60 90
3 57 237 58
3 200 188 16
3 284 125 124
3 244 58 237
3 60 59 244
3 90 230 91
3 256 91 230
3 66 65 86
3 86 65 87
3 66 86 67
3 68 67 85
3 85 67 86
3 84 68 85
3 87 64 88
3 88 64 63
3 266 93 247
3 92 91 256
3 64 87 65
3 78 77 193
3 244 230 90
3 214 193 74
3 285 49 48
3 245 262 281
3 285 286 49
3 286 285 267
3 130 129 283
3 48 268 248
3 252 274 43
3 44 43 274
3 264 293 263
3 43 42 252
3 303 281 302
3 125 284 126
3 126 246 127
3 264 127 246
3 265 284 124
3 264 128 127
3 56 245 237
3 283 131 130
3 282 290 132
3 129 128 264
3 129 263 283
3 132 131 283
3 272 251 271
3 268 45 273
3 192 215 213
3 215 11 191
3 223 82 81
3 217 197 203
3 80 72 71
3 69 223 70
3 80 71 223
3 69 83 223
3 84 83 69
3 254 226 110
3 254 99 98
3 82 223 83
3 68 84 69
3 73 214 74
3 27 189 199
3 72 214 73
3 77 76 193
3 193 76 75
3 75 74 193
3 196 187 27
3 78 214 79
3 100 109 219
3 107 102 101
3 100 99 109
3 80 79 214
3 287 96 269
3 271 137 136
3 120 218 226
3 226 121 120
3 205 222 111
3 110 109 99
3 229 222 119
3 111 229 206
3 109 206 219
3 94 93 266
3 249 270 121
3 226 287 121
3 270 122 121
3 111 222 229
3 107 106 103
3 107 103 102
3 103 106 104
3 105 104 106
3 101 108 107
3 113 117 114
3 112 229 113
3 114 117 116
3 115 114 116
3 118 117 113
3 269 96 95
3 122 270 123
3 30 29 187
3 25 24 23
3 26 189 27
3 27 187 28
3 30 187 196
3 20 190 21
3 201 21 190
3 20 19 190
3 25 23 208
3 17 188 18
3 27 199 196
3 197 36 35
3 37 36 197
3 39 38 195
3 197 194 37
3 29 28 187
3 31 30 32
3 34 33 35
3 32 30 207
3 35 203 197
3 30 196 207
3 217 38 197
3 19 188 202
3 9 8 191
3 191 10 9
3 215 7 210
3 11 10 191
3 210 6 204
3 188 200 202
3 0 186 185
3 198 2 1
3 198 204 3
3 5 4 6
3 199 208 221
3 204 4 3
3 11 192 12
3 16 15 14
3 13 192 209
3 16 14 200
3 188 19 18
3 185 234 224
3 224 0 185
3 2 198 3
3 172 231 173
3 234 183 258
3 201 22 21
3 12 192 13
3 1 0 224
3 188 17 16
3 279 243 261
3 195 216 40
3 42 41 216
3 252 216 307
3 250 162 161
3 41 40 216
3 239 259 250
3 139 138 239
3 139 250 140
3 140 250 240
3 250 160 240
3 141 240 142
3 296 257 278
3 240 260 142
3 242 241 145
3 241 146 145
3 147 146 241
3 260 242 143
3 242 260 157
3 147 154 232
3 232 150 149
3 149 148 232
3 143 242 144
3 260 143 142
3 158 260 159
3 220 203 33
3 231 174 173
3 291 227 235
3 261 243 176
3 195 38 217
3 180 179 243
3 208 199 25
3 243 179 178
3 243 177 176
3 261 176 175
3 243 181 180
3 258 182 279
3 39 195 40
3 150 232 151
3 151 232 153
3 147 241 154
3 241 155 154
3 164 278 277
3 162 259 163
3 153 152 151
3 255 169 276
3 233 217 227
3 209 14 13
3 203 227 217
3 189 25 199
3 252 42 216
3 8 7 191
3 211 221 208
3 203 35 33
3 194 197 38
3 4 204 6
3 182 258 183
3 22 201 23
3 201 190 211
3 200 14 209
3 202 190 19
3 190 202 211
3 23 201 208
3 212 200 209
3 253 212 225
3 32 207 33
3 165 277 166
3 224 234 198
3 6 210 7
3 218 205 110
3 205 218 222
3 206 108 219
3 221 196 199
3 33 207 220
3 208 201 211
3 275 288 291
3 209 213 212
3 200 212 202
3 210 204 238
3 212 213 225
3 211 202 212
3 170 288 275
3 209 192 213
3 225 172 253
3 192 11 215
3 213 215 225
3 80 214 72
3 78 193 214
3 7 215 191
3 225 215 210
3 217 233 195
3 272 135 134
3 220 236 203
3 165 164 277
3 226 218 110
3 119 218 120
3 108 101 219
3 101 100 219
3 228 196 221
3 207 228 220
3 253 211 212
3 203 236 227
3 218 119 222
3 229 119 118
3 80 223 81
3 71 70 223
3 234 185 184
3 198 1 224
3 225 210 238
3 253 172 171
3 99 254 110
3 254 97 287
3 228 236 220
3 169 168 276
3 196 228 207
3 228 221 235
3 113 229 118
3 206 229 112
3 60 244 90
3 237 57 56
3 231 172 225
3 238 198 234
3 147 232 148
3 153 232 154
3 257 277 278
3 216 195 233
3 183 234 184
3 198 238 204
3 211 235 221
3 253 171 275
3 228 235 236
3 235 227 236
3 245 56 55
3 280 53 52
3 258 238 234
3 238 231 225
3 271 138 137
3 289 301 255
3 140 240 141
3 159 240 160
3 242 145 144
3 156 155 241
3 157 156 242
3 241 242 156
3 243 178 177
3 261 175 174
3 58 244 59
3 303 244 237
3 55 54 245
3 54 53 280
3 262 245 54
3 286 50 49
3 256 93 92
3 284 265 300
3 47 268 48
3 268 47 46
3 94 266 95
3 265 249 266
3 250 161 160
3 239 250 139
3 272 271 136
3 272 136 135
3 233 301 307
3 272 290 299
3 275 171 170
3 211 253 235
3 98 97 254
3 287 97 96
3 276 168 167
3 233 227 255
3 292 256 230
3 93 256 247
3 278 164 163
3 271 294 296
3 182 181 279
3 238 258 231
3 250 259 162
3 296 278 259
3 159 260 240
3 260 158 157
3 174 231 261
3 258 261 231
3 245 281 237
3 54 280 262
3 280 298 262
3 295 268 273
3 293 264 246
3 129 264 263
3 124 123 270
3 292 247 256
3 265 266 247
3 269 266 249
3 308 306 304
3 280 286 298
3 46 45 268
3 44 274 45
3 266 269 95
3 287 269 249
3 249 265 270
3 124 270 265
3 271 251 294
3 239 138 271
3 133 132 290
3 248 268 295
3 299 306 309
3 134 133 290
3 252 273 274
3 45 274 273
3 170 169 288
3 235 253 275
3 277 167 166
3 289 276 277
3 289 277 257
3 167 277 276
3 163 259 278
3 296 259 239
3 243 279 181
3 261 258 279
3 52 51 280
3 286 51 50
3 262 298 305
3 246 300 302
3 297 263 304
3 299 251 272
3 297 283 263
3 132 283 282
3 247 292 300
3 246 126 284
3 48 248 285
3 248 267 285
3 286 267 298
3 280 51 286
3 121 287 249
3 254 287 226
3 169 255 288
3 275 291 235
3 296 301 257
3 255 276 289
3 299 290 282
3 272 134 290
3 227 291 255
3 288 255 291
3 244 303 230
3 284 300 246
3 302 305 246
3 267 248 308
3 299 309 251
3 257 301 289
3 307 309 252
3 297 282 283
3 271 296 239
3 296 294 301
3 304 263 293
3 282 306 299
3 267 293 298
3 246 305 293
3 295 309 306
3 306 282 297
3 247 300 265
3 300 292 302
3 307 301 294
3 255 301 233
3 292 230 303
3 281 262 305
3 281 303 237
3 292 303 302
3 295 308 248
3 308 293 267
3 293 305 298
3 302 281 305
3 304 306 297
3 309 295 273
3 233 307 216
3 251 307 294
3 306 308 295
3 308 304 293
3 252 309 273
3 251 309 307
