ply
format ascii 1.0
element vertex 226
property float x
property float y
property float z
property float u
property float v
element face 316
property list uchar int vertex_indices
end_header
256.05 45.9497 0 256.05 45.9497
244.556 53 0 244.556 53
232.87 61 0 232.87 61
222.716 71.2843 0 222.716 71.2843
216 83.5025 0 216 83.5025
211 96.4315 0 211 96.4315
211 110.603 0 211 110.603
215 123.946 0 215 123.946
218.368 135 0 218.368 135
205.439 140 0 205.439 140
192.36 144.64 0 192.36 144.64
179.581 150 0 179.581 150
167.34 156.66 0 167.34 156.66
154.966 163 0 154.966 163
142.865 170 0 142.865 170
131.126 177.874 0 131.126 177.874
121.348 176.348 0 121.348 176.348
118.52 162.52 0 118.52 162.52
120 148.564 0 120 148.564
128 141.22 0 128 141.22
123.206 128.206 0 123.206 128.206
120.256 115.256 0 120.256 115.256
110.185 106.185 0 110.185 106.185
99 110.081 0 99 110.081
91.4072 115.593 0 91.4072 115.593
79.3361 122.664 0 79.3361 122.664
75.6136 135.614 0 75.6136 135.614
75 146.968 0 75 146.968
68 159.069 0 68 159.069
62 171.583 0 62 171.583
56 184.098 0 56 184.098
54 198.27 0 54 198.27
57.7263 211.726 0 57.7263 211.726
63.3832 224.383 0 63.3832 224.383
71.8684 235.868 0 71.8684 235.868
82.0609 246.061 0 82.0609 246.061
94.4249 252.425 0 94.4249 252.425
107.944 254 0 107.944 254
120.91 249.09 0 120.91 249.09
132.274 241.726 0 132.274 241.726
136 228.269 0 136 228.269
142.074 217 0 142.074 217
155.003 212 0 155.003 212
168.347 208 0 168.347 208
181.488 203.512 0 181.488 203.512
180.148 212.852 0 180.148 212.852
174 225.306 0 174 225.306
168 237.82 0 168 237.82
162.47 250.53 0 162.47 250.53
157.52 263.48 0 157.52 263.48
152.57 276.43 0 152.57 276.43
147 289.123 0 147 289.123
141.964 302.036 0 141.964 302.036
136.307 314.693 0 136.307 314.693
132 327.91 0 132 327.91
136.179 341.179 0 136.179 341.179
147.768 348 0 147.768 348
162.25 348.75 0 162.25 348.75
174.868 343 0 174.868 343
183.392 331.608 0 183.392 331.608
190.463 319.537 0 190.463 319.537
196 306.83 0 196 306.83
200 293.487 0 200 293.487
205 280.557 0 205 280.557
218.2 279 0 218.2 279
232.786 280 0 232.786 280
246.957 282 0 246.957 282
255 288.715 0 255 288.715
252 302.472 0 252 302.472
250 316.644 0 250 316.644
250 331.644 0 250 331.644
252.577 345.577 0 252.577 345.577
259 357.916 0 259 357.916
271.431 364 0 271.431 364
285.189 363 0 285.189 363
295.912 354.088 0 295.912 354.088
301 341.196 0 301 341.196
305.811 328.189 0 305.811 328.189
309 314.509 0 309 314.509
311 300.338 0 311 300.338
313 286.166 0 313 286.166
314 271.58 0 314 271.58
314 256.58 0 314 256.58
313 241.994 0 313 241.994
313.004 226.996 0 313.004 226.996
323.903 234.903 0 323.903 234.903
334.511 245.511 0 334.511 245.511
341 257.236 0 341 257.236
350.652 267.652 0 350.652 267.652
363.016 269.984 0 363.016 269.984
375.366 269 0 375.366 269
385 260.705 0 385 260.705
387 246.533 0 387 246.533
398.401 238.599 0 398.401 238.599
410.765 232.235 0 410.765 232.235
420.544 233.544 0 420.544 233.544
432.615 240.615 0 432.615 240.615
446.213 244 0 446.213 244
459.97 243 0 459.97 243
471.929 239.071 0 471.929 239.071
479 227.586 0 479 227.586
477.879 213.879 0 477.879 213.879
475 201.728 0 475 201.728
475 187.556 0 475 187.556
468.736 175.736 0 468.736 175.736
458 168.698 0 458 168.698
451.422 156.422 0 451.422 156.422
439.083 150 0 439.083 150
425.325 149 0 425.325 149
412.28 153.72 0 412.28 153.72
399.467 151 0 399.467 151
390.552 161.448 0 390.552 161.448
388.276 175.276 0 388.276 175.276
394 187.32 0 394 187.32
388.824 200.176 0 388.824 200.176
378.632 210.368 0 378.632 210.368
367.854 210.854 0 367.854 210.854
358.661 199.661 0 358.661 199.661
348.762 188.762 0 348.762 188.762
337.862 178.862 0 337.862 178.862
327.255 168.255 0 327.255 168.255
317.356 157.356 0 317.356 157.356
310.543 146.457 0 310.543 146.457
321.736 137.264 0 321.736 137.264
330 125.687 0 330 125.687
334 112.344 0 334 112.344
336 98.1721 0 336 98.1721
335 83.5864 0 335 83.5864
331.172 70.172 0 331.172 70.172
323.394 58.3938 0 323.394 58.3938
311.615 50.6155 0 311.615 50.6155
298.666 45.6657 0 298.666 45.6657
284.77 43 0 284.77 43
269 41 0 269 41
105.355 126.821 0 105.355 126.821
198.611 210.735 0 198.611 210.735
123.331 195.74 0 123.331 195.74
374.136 230.459 0 374.136 230.459
263.771 270.035 0 263.771 270.035
418.148 214.26 0 418.148 214.26
237.743 123.057 0 237.743 123.057
151.025 329.211 0 151.025 329.211
408.118 173.228 0 408.118 173.228
449.959 192.672 0 449.959 192.672
460.363 224.031 0 460.363 224.031
360.622 248.734 0 360.622 248.734
93.7573 142.288 0 93.7573 142.288
208.633 254.631 0 208.633 254.631
293.184 164.886 0 293.184 164.886
123.657 214.344 0 123.657 214.344
464.321 210.674 0 464.321 210.674
372.319 255.72 0 372.319 255.72
81.4992 197.899 0 81.4992 197.899
160.163 185.944 0 160.163 185.944
186.098 176.558 0 186.098 176.558
168.343 304.885 0 168.343 304.885
183.437 265.965 0 183.437 265.965
271.955 68.1457 0 271.955 68.1457
306.579 111.395 0 306.579 111.395
312.352 193.765 0 312.352 193.765
434.847 173.204 0 434.847 173.204
335.063 211.149 0 335.063 211.149
396.747 218.291 0 396.747 218.291
283.002 303.613 0 283.002 303.613
274.487 342.013 0 274.487 342.013
191.004 225.956 0 191.004 225.956
142.168 198.026 0 142.168 198.026
285.712 251.192 0 285.712 251.192
288.69 277.172 0 288.69 277.172
243.023 258.674 0 243.023 258.674
406.951 200.004 0 406.951 200.004
435.472 221.898 0 435.472 221.898
225.976 113.385 0 225.976 113.385
151.581 313.927 0 151.581 313.927
167.351 328.49 0 167.351 328.49
104.826 154.011 0 104.826 154.011
309.436 174.495 0 309.436 174.495
119.085 230.83 0 119.085 230.83
72.3951 184.263 0 72.3951 184.263
83.2837 218.558 0 83.2837 218.558
167.501 172.221 0 167.501 172.221
191.748 161.093 0 191.748 161.093
163.677 288.873 0 163.677 288.873
182.89 295.629 0 182.89 295.629
178.927 250.133 0 178.927 250.133
247.386 85.4874 0 247.386 85.4874
257.713 61.5547 0 257.713 61.5547
288.564 60.7719 0 288.564 60.7719
305.775 129.241 0 305.775 129.241
307.708 84.1212 0 307.708 84.1212
320.589 103.224 0 320.589 103.224
423.294 163.774 0 423.294 163.774
351.494 214.919 0 351.494 214.919
333.388 194.739 0 333.388 194.739
292.324 317.834 0 292.324 317.834
267.177 311.841 0 267.177 311.841
295.277 234.49 0 295.277 234.49
297.326 291.181 0 297.326 291.181
299.07 264.08 0 299.07 264.08
226.563 263.893 0 226.563 263.893
448.743 213.322 0 448.743 213.322
228.733 95.858 0 228.733 95.858
102.52 172.996 0 102.52 172.996
103.03 237.374 0 103.03 237.374
221.429 162.131 0 221.429 162.131
189.891 282.146 0 189.891 282.146
309.056 67.2977 0 309.056 67.2977
340.557 228.857 0 340.557 228.857
433.137 203.729 0 433.137 203.729
241.243 106.806 0 241.243 106.806
86.9131 161.935 0 86.9131 161.935
102.858 205.403 0 102.858 205.403
217.263 229.569 0 217.263 229.569
290.992 187.141 0 290.992 187.141
288.673 143.246 0 288.673 143.246
287.63 81.0603 0 287.63 81.0603
206.116 175.106 0 206.116 175.106
229.524 244.669 0 229.524 244.669
267.996 121.071 0 267.996 121.071
288.108 119.504 0 288.108 119.504
295.673 210.714 0 295.673 210.714
256.959 172.553 0 256.959 172.553
260.222 225.505 0 260.222 225.505
276.504 100.423 0 276.504 100.423
232.379 190.577 0 232.379 190.577
238.49 224.861 0 238.49 224.861
3 146 25 24
3 24 134 146
3 134 23 22
3 105 104 143
3 20 134 21
3 23 134 24
3 22 21 134
3 18 20 19
3 136 211 202
3 31 30 178
3 17 202 175
3 146 134 175
3 25 146 26
3 152 178 202
3 146 175 210
3 178 152 31
3 3 185 201
3 140 7 172
3 2 185 3
3 140 8 7
3 214 221 218
3 186 2 1
3 218 221 140
3 42 153 43
3 166 14 153
3 153 13 180
3 181 9 204
3 44 43 153
3 11 181 12
3 154 44 153
3 204 216 181
3 14 166 15
3 199 169 65
3 166 42 41
3 146 27 26
3 32 152 179
3 33 32 179
3 152 32 31
3 179 34 33
3 177 39 38
3 136 16 15
3 41 40 149
3 35 34 179
3 35 179 203
3 54 141 55
3 60 59 174
3 56 55 141
3 173 141 53
3 141 54 53
3 182 155 52
3 217 169 199
3 154 135 44
3 48 156 49
3 156 48 184
3 135 165 45
3 147 64 63
3 135 45 44
3 184 46 165
3 46 45 165
3 57 174 58
3 56 141 57
3 174 59 58
3 60 155 183
3 60 183 61
3 62 61 183
3 65 64 199
3 49 156 182
3 149 166 41
3 133 186 0
3 20 18 134
3 132 157 133
3 124 190 125
3 209 172 201
3 189 128 127
3 82 198 83
3 126 190 127
3 128 189 206
3 126 125 190
3 158 124 188
3 119 159 120
3 159 84 220
3 123 188 124
3 218 219 214
3 124 158 190
3 161 193 118
3 181 216 154
3 109 142 110
3 110 142 111
3 142 112 111
3 143 160 105
3 105 160 106
3 107 160 191
3 106 160 107
3 116 192 117
3 137 115 162
3 118 193 119
3 139 95 94
3 170 114 113
3 103 102 143
3 115 114 162
3 143 104 103
3 171 96 95
3 66 65 169
3 161 117 192
3 67 168 163
3 81 198 82
3 77 194 78
3 138 168 67
3 138 67 66
3 168 81 80
3 197 168 80
3 198 81 168
3 164 73 72
3 72 71 164
3 164 76 75
3 197 194 163
3 164 74 73
3 74 164 75
3 69 68 195
3 76 164 194
3 68 67 195
3 94 162 139
3 115 137 116
3 118 117 161
3 137 93 92
3 100 99 144
3 92 91 151
3 98 144 99
3 200 150 144
3 211 177 203
3 139 171 95
3 137 162 93
3 145 89 88
3 88 87 145
3 207 86 85
3 192 207 161
3 151 91 90
3 89 145 151
3 171 97 96
3 144 101 100
3 136 166 149
3 207 145 86
3 133 157 186
3 142 113 112
3 7 6 172
3 1 0 186
3 53 52 173
3 57 141 174
3 170 139 162
3 107 191 108
3 101 144 150
3 160 143 208
3 97 144 98
3 101 150 102
3 86 145 87
3 151 137 92
3 18 175 134
3 175 18 17
3 156 147 63
3 204 140 221
3 122 121 148
3 121 120 176
3 177 40 39
3 177 149 40
3 143 102 150
3 200 144 171
3 89 151 90
3 151 145 137
3 211 136 149
3 178 30 29
3 14 13 153
3 13 12 180
3 10 181 11
3 154 180 181
3 51 50 182
3 51 182 52
3 48 47 184
3 205 62 183
3 131 187 132
3 187 157 132
3 188 123 122
3 206 215 187
3 84 83 196
3 121 176 148
3 143 200 208
3 191 109 108
3 85 84 161
3 159 161 84
3 162 114 170
3 93 162 94
3 163 195 67
3 78 194 79
3 71 70 164
3 70 69 195
3 212 165 135
3 147 156 184
3 15 166 136
3 153 42 166
3 66 169 138
3 83 167 196
3 80 79 197
3 167 168 138
3 147 165 212
3 138 169 222
3 113 142 170
3 160 170 142
3 208 200 171
3 97 171 144
3 6 5 172
3 201 5 4
3 52 155 173
3 174 173 155
3 173 174 141
3 60 174 155
3 17 16 202
3 202 210 175
3 120 159 176
3 213 176 159
3 37 203 38
3 203 37 36
3 28 210 29
3 28 27 210
3 179 152 211
3 38 203 177
3 181 180 12
3 154 153 180
3 10 9 181
3 204 9 8
3 49 182 50
3 63 62 205
3 155 182 183
3 205 182 156
3 46 184 47
3 147 184 165
3 215 223 157
3 201 172 5
3 157 185 186
3 2 186 185
3 130 206 131
3 129 128 206
3 148 214 122
3 188 122 214
3 187 215 157
3 206 130 129
3 158 189 190
3 127 190 189
3 160 142 191
3 142 109 191
3 116 137 192
3 207 137 145
3 161 159 193
3 159 119 193
3 76 194 77
3 195 194 164
3 194 195 163
3 70 195 164
3 217 225 169
3 84 196 220
3 194 197 79
3 163 168 197
3 168 167 198
3 83 198 167
3 64 147 199
3 217 147 212
3 208 171 139
3 143 150 200
3 172 209 140
3 3 201 4
3 202 16 136
3 178 29 210
3 35 203 36
3 203 179 211
3 140 204 8
3 176 213 148
3 182 205 183
3 156 63 205
3 215 206 189
3 131 206 187
3 161 207 85
3 207 192 137
3 139 170 208
3 160 208 170
3 201 185 209
3 158 223 215
3 210 27 146
3 178 210 202
3 149 177 211
3 202 211 152
3 135 216 224
3 138 222 167
3 169 225 222
3 216 204 224
3 214 148 221
3 218 140 209
3 189 158 215
3 223 158 219
3 204 221 224
3 135 154 216
3 147 217 199
3 196 222 220
3 209 185 223
3 188 219 158
3 214 219 188
3 219 218 223
3 213 159 220
3 196 167 222
3 148 213 221
3 213 220 222
3 225 217 212
3 213 222 221
3 209 223 218
3 157 223 185
3 222 224 221
3 135 224 212
3 212 224 225
3 224 222 225
