ply
format ascii 1.0
element vertex 290
property float x
property float y
property float z
property float u
property float v
element face 317
property list uchar int vertex_indices
end_header
-90.364 -312.636 0 147.636 8.36396
-98.0208 -301.979 0 139.979 19.0208
-98 -287.799 0 140 33.201
-94.3223 -274.322 0 143.678 46.6777
-82.1127 -271 0 155.887 50
-77 -283.23 0 161 37.7695
-71 -283.426 0 167 37.5736
-64 -271.912 0 174 49.0883
-58.2807 -259.281 0 179.719 61.7193
-46.2965 -264 0 191.704 57
-40 -254.368 0 198 66.6324
-35 -241.439 0 203 79.5613
-41.7609 -233.239 0 196.239 87.7609
-52 -224.238 0 186 96.7624
-61.903 -215.097 0 176.097 105.903
-70.9741 -205.026 0 167.026 115.974
-66.1975 -193.197 0 171.803 127.803
-66 -183.936 0 172 137.064
-60.0051 -172.005 0 177.995 148.995
-52.9341 -159.934 0 185.066 161.066
-42.1559 -151.156 0 195.844 169.844
-34.3777 -139.378 0 203.622 181.622
-38.3947 -134 0 199.605 187
-51.8147 -137.815 0 186.185 183.185
-65.081 -142 0 172.919 179
-78.5928 -145.593 0 159.407 175.407
-92.1815 -147 0 145.818 174
-104 -154.282 0 134 166.718
-107.735 -167.735 0 130.265 153.265
-112 -180.968 0 126 140.032
-117 -193.897 0 121 127.103
-121.17 -207.17 0 116.83 113.83
-127 -219.755 0 111 101.245
-133.191 -232.191 0 104.809 88.8092
-140.969 -243.969 0 97.031 77.031
-148 -256.057 0 90 64.9434
-152.161 -264.161 0 85.8385 56.8385
-161 -265.671 0 77 55.3289
-157.475 -252.525 0 80.5247 68.4753
-155 -246.156 0 83 74.8438
-168.132 -241.868 0 69.8678 79.1322
-177.702 -249 0 60.2982 72
-187.446 -255.446 0 50.554 65.554
-189 -247.026 0 49 73.9741
-183 -235.683 0 55 85.3173
-174.704 -224.704 0 63.2955 96.2955
-162.067 -219 0 75.9327 102
-152 -211.724 0 86 109.276
-150 -197.552 0 88 123.448
-147.562 -183.562 0 90.4379 137.438
-146 -170.037 0 92 150.963
-144 -155.866 0 94 165.134
-141 -142.108 0 97 178.892
-137 -128.765 0 101 192.235
-131.884 -115.884 0 106.116 205.116
-124.735 -104 0 113.265 217
-117.57 -107.57 0 120.43 213.43
-104.913 -101.913 0 133.087 219.087
-93 -95.9482 0 145 225.052
-89.1909 -89 0 148.809 232
-76.3064 -85.3064 0 161.694 235.694
-68 -76.9186 0 170 244.081
-67 -63.1609 0 171 257.839
-66 -48.5752 0 172 272.425
-63 -34.8179 0 175 286.182
-68.0786 -21.9214 0 169.921 299.079
-73 -8.95978 0 165 312.04
-84.9692 -5 0 153.031 316
-91 7.48395 0 147 328.484
-97.999 18.999 0 140.001 339.999
-106.484 30.4844 0 131.516 351.484
-114.263 42.2627 0 123.737 363.263
-121.334 54.3339 0 116.666 375.334
-129.819 65.8193 0 108.181 386.819
-138.304 77.3044 0 99.6956 398.304
-148.288 88 0 89.7115 409
-141.783 94 0 96.2175 415
-128.439 98 0 109.561 419
-125 108.49 0 113 429.49
-129 121.833 0 109 442.833
-131 136.005 0 107 457.005
-134 149.762 0 104 470.762
-145.024 159.024 0 92.9758 480.024
-155.924 168.924 0 82.0762 489.924
-167.702 176.702 0 70.298 497.702
-177.894 186.894 0 60.1059 507.894
-187.087 198.087 0 50.9132 519.087
-195.451 208.451 0 42.5491 529.451
-201.815 220.815 0 36.1849 541.815
-209 232.839 0 29 553.839
-216.25 244.25 0 21.7498 565.25
-224.028 256.028 0 13.9716 577.028
-231.393 267.393 0 6.60748 588.393
-235 280.898 0 3 601.898
-232.344 291 0 5.65576 612
-219.829 285 0 18.1705 606
-208.101 292.899 0 29.8989 613.899
-196.871 302 0 41.129 623
-185.599 311 0 52.4011 632
-173.352 317.648 0 64.6477 638.648
-164.062 317.938 0 73.938 638.938
-172.133 306.867 0 65.8669 627.867
-179 294.711 0 59 615.711
-184.154 281.846 0 53.8459 602.846
-189 268.853 0 49 589.853
-184.581 259 0 53.4191 580
-173.511 249.511 0 64.4886 570.511
-162.451 240 0 75.5491 561
-151.42 230.42 0 86.5804 551.42
-140.52 220.52 0 97.4802 541.52
-129.463 211 0 108.537 532
-118.428 201.428 0 119.572 522.428
-106.357 194.357 0 131.643 515.357
-93.407 189.407 0 144.593 510.407
-82 181.475 0 156 502.475
-75 169.374 0 163 490.374
-67.4863 157.486 0 170.514 478.486
-58 146.416 0 180 467.416
-49.8088 134.809 0 188.191 455.809
-42.7375 122.738 0 195.262 443.738
-31.9426 114 0 206.057 435
-21.4741 123.526 0 216.526 444.526
-10.3984 133 0 227.602 454
0.910645 141.911 0 238.911 462.911
12.5601 150 0 250.56 471
24.1742 158.174 0 262.174 479.174
36.2453 165.245 0 274.245 486.245
42 177.862 0 280 498.862
46 191.205 0 284 512.205
50 204.548 0 288 525.548
55 217.477 0 293 538.477
60.9945 229.995 0 298.995 550.995
68.7728 241.773 0 306.773 562.773
76.551 253.551 0 314.551 574.551
85.7431 264.743 0 323.743 585.743
94.2285 276.229 0 332.229 597.229
103.421 287.421 0 341.421 608.421
113 297.867 0 351 618.867
123.382 306 0 361.382 627
128.861 301 0 366.861 622
129.169 289.831 0 367.169 610.831
142.582 286 0 380.582 607
156.339 283 0 394.339 604
168.311 275.689 0 406.311 596.689
166.046 267 0 404.046 588
151.46 266 0 389.46 587
136.874 265 0 374.874 586
123.961 262.039 0 361.961 583.039
118 251.431 0 356 572.431
114 238.088 0 352 559.088
110.527 224.527 0 348.527 545.527
106 211.403 0 344 532.403
101 198.474 0 339 519.474
97.093 185.093 0 335.093 506.093
93 171.789 0 331 492.789
92 158.032 0 330 479.032
93 143.446 0 331 464.446
98 131.689 0 336 452.689
88.5376 123.538 0 326.538 444.538
79.3447 112.345 0 317.345 433.345
68.8597 102.86 0 306.86 423.86
73 97.4586 0 311 418.459
65 86.3582 0 303 407.358
56.7678 74.7678 0 294.768 395.768
48.9897 62.9897 0 286.99 383.99
40.5049 51.5049 0 278.505 372.505
32 40.0271 0 270 361.027
23 28.7549 0 261 349.755
17.9976 17 0 255.998 338
21 5.4834 0 259 326.483
25 -7.85938 0 263 313.141
28 -21.6162 0 266 299.384
31 -35.3737 0 269 285.626
35 -48.7163 0 273 272.284
46.5775 -56.5775 0 284.578 264.422
59.3311 -60 0 297.331 261
73.917 -59 0 311.917 262
84 -62.845 0 322 258.155
93.1885 -71 0 331.188 250
106.531 -69 0 344.531 252
121.117 -70 0 359.117 251
135.703 -71 0 373.703 250
149.874 -73 0 387.874 248
153 -60.5408 0 391 260.459
153 -45.5413 0 391 275.459
152 -30.9529 0 390 290.047
152 -15.9562 0 390 305.044
151 -1.36719 0 389 319.633
151 13.6328 0 389 334.633
150 28.2168 0 388 349.217
150 43.2168 0 388 364.217
151.018 56.9816 0 389.018 377.982
156 55.2688 0 394 376.269
154 43.34 0 392 364.34
156 29.1689 0 394 350.169
161.537 16.4626 0 399.537 337.463
170.73 5.26978 0 408.73 326.27
182.304 -3 0 420.304 318
194.579 -9.57861 0 432.579 311.421
206.649 -16.6494 0 444.649 304.351
218.428 -24.4276 0 456.428 296.572
226 -35.7051 0 464 285.295
231 -48.6338 0 469 272.366
233 -62.8055 0 471 258.194
234 -77.3916 0 472 243.608
234 -91.5623 0 472 229.438
234.64 -104.64 0 472.64 216.36
235.238 -118.762 0 473.238 202.238
233.297 -131.297 0 471.297 189.703
233.996 -146.004 0 471.996 174.996
231.168 -159.832 0 469.168 161.168
224.804 -172.196 0 462.804 148.804
213.733 -180.267 0 451.733 140.733
201.522 -187 0 439.522 134
189.422 -194 0 427.422 127
178.52 -202.48 0 416.52 118.52
170.035 -213.965 0 408.035 107.035
165.792 -227.208 0 403.792 93.7925
165 -241.051 0 403 79.9492
167 -252.979 0 405 68.0205
162.772 -259.772 0 400.772 61.2279
159 -246.335 0 397 74.6653
158 -231.747 0 396 89.2529
158 -216.747 0 396 104.253
157 -202.164 0 395 118.836
157 -187.163 0 395 133.837
157 -172.163 0 395 148.837
156 -157.578 0 394 163.422
156 -142.578 0 394 178.422
155 -127.991 0 393 193.009
155 -112.99 0 393 208.01
146.873 -105.127 0 384.873 215.873
132.234 -106 0 370.234 215
117.649 -107 0 355.649 214
103.063 -108 0 341.063 213
94.7203 -115 0 332.72 206
80.1348 -116 0 318.135 205
68.4386 -122.561 0 306.439 198.439
61.3674 -134.633 0 299.367 186.367
56.5808 -146 0 294.581 175
62.3188 -154 0 300.319 167
49.8618 -154.138 0 287.862 166.862
46 -166.71 0 284 154.29
39.1343 -178.866 0 277.134 142.134
32 -190.91 0 270 130.09
26.235 -201.765 0 264.235 119.235
20.8711 -213.129 0 258.871 107.871
13 -223.697 0 251 97.303
4.72913 -235.271 0 242.729 85.7291
-5.4635 -245.464 0 232.536 75.5365
-19.2917 -247.708 0 218.708 73.2917
-30.9485 -250.948 0 207.052 70.0515
-38 -263.027 0 200 57.9727
-32.2866 -273 0 205.713 48
-27 -283.056 0 211 37.9436
-29 -287.228 0 209 33.7725
-34.0107 -296.989 0 203.989 24.0107
-40.939 -305.939 0 197.061 15.061
-50.2563 -312 0 187.744 9
-62.7166 -316.717 0 175.283 4.28345
-79 -320 0 159 1
-74.6033 -301.8 0 163.397 19.2
-15.5822 -121.149 0 222.418 199.851
-40.8421 -189.105 0 197.158 131.895
-17.9131 -220.463 0 220.087 100.537
-86.1389 89.9401 0 151.861 410.94
68.5863 -88.1223 0 306.586 232.878
168.468 -90.9404 0 406.468 230.06
23.3204 -125.382 0 261.32 195.618
-49.5028 -103.543 0 188.497 217.457
-25.0539 -0.373444 0 212.946 320.627
-4.14024 -178.674 0 233.86 142.326
195.92 -119.09 0 433.92 201.91
22.6254 -152.651 0 260.625 168.349
-15.6061 38.2423 0 222.394 359.242
-16.1014 -52.2506 0 221.899 268.749
-101.221 149.704 0 136.779 470.704
202.11 -152.695 0 440.11 168.305
191.173 -53.041 0 429.173 267.959
13.8827 93.4032 0 251.883 414.403
50.9381 133.209 0 288.938 454.209
-70.6156 114.514 0 167.384 435.514
-81.7969 55.2454 0 156.203 376.245
18.529 -85.4298 0 256.529 235.57
-2.56335 -21.0757 0 235.437 299.924
-38.4543 -72.151 0 199.546 248.849
201.635 -84.4769 0 439.635 236.523
12.6806 63.2324 0 250.681 384.232
23.2483 122.175 0 261.248 443.175
-69.9098 28.1875 0 168.09 349.187
3 42 41 43
3 38 37 36
3 43 41 44
3 40 46 45
3 40 45 44
3 41 40 44
3 5 3 2
3 1 261 2
3 39 35 34
3 39 38 35
3 39 34 46
3 46 40 39
3 35 38 36
3 33 46 34
3 46 33 47
3 30 49 48
3 50 49 29
3 27 52 51
3 27 53 52
3 28 51 50
3 31 48 47
3 31 30 48
3 28 50 29
3 30 29 49
3 54 56 55
3 54 53 56
3 56 53 27
3 28 27 51
3 56 27 26
3 31 47 32
3 33 32 47
3 0 260 261
3 7 6 256
3 6 5 261
3 264 13 12
3 2 261 5
3 4 3 5
3 9 8 7
3 6 261 258
3 257 256 6
3 256 253 7
3 253 256 255
3 10 9 252
3 10 252 251
3 253 252 9
3 7 253 9
3 257 6 258
3 16 15 14
3 16 14 263
3 263 17 16
3 57 26 25
3 58 25 24
3 14 13 263
3 17 263 18
3 264 11 250
3 11 264 12
3 21 20 271
3 61 60 269
3 263 19 18
3 23 269 24
3 250 11 251
3 19 263 20
3 10 251 11
3 56 26 57
3 22 21 262
3 0 261 1
3 246 245 271
3 23 22 269
3 107 87 86
3 107 86 108
3 86 85 108
3 105 90 89
3 89 88 106
3 107 88 87
3 107 106 88
3 85 84 109
3 76 75 74
3 77 76 74
3 110 109 84
3 85 109 108
3 84 83 110
3 82 111 83
3 82 81 112
3 95 93 92
3 92 91 95
3 91 90 104
3 104 95 91
3 95 94 93
3 103 97 96
3 95 104 96
3 96 104 103
3 102 97 103
3 90 105 104
3 102 98 97
3 99 98 101
3 101 100 99
3 98 102 101
3 89 106 105
3 59 58 60
3 57 25 58
3 289 70 69
3 282 265 72
3 289 282 70
3 60 58 269
3 63 275 64
3 275 63 285
3 67 66 68
3 68 66 289
3 270 65 64
3 173 172 275
3 24 269 58
3 289 274 282
3 73 72 265
3 78 265 281
3 265 78 77
3 81 80 276
3 83 111 110
3 79 78 276
3 82 112 111
3 119 118 281
3 77 74 73
3 276 281 116
3 281 120 119
3 276 78 281
3 276 112 81
3 112 276 113
3 113 276 114
3 114 276 115
3 265 120 281
3 282 71 70
3 275 270 64
3 255 254 253
3 264 250 249
3 248 264 249
3 264 247 246
3 271 245 244
3 271 263 264
3 271 264 246
3 243 242 273
3 273 241 268
3 241 240 239
3 273 242 241
3 268 239 238
3 236 235 266
3 268 266 283
3 241 239 268
3 283 266 174
3 266 176 175
3 177 176 266
3 234 178 266
3 266 178 177
3 283 174 173
3 284 172 171
3 283 285 262
3 266 235 234
3 179 234 233
3 232 231 181
3 180 233 232
3 179 233 180
3 181 180 232
3 182 181 231
3 230 267 231
3 234 179 178
3 284 171 170
3 222 221 218
3 221 219 218
3 219 221 220
3 223 222 217
3 216 224 223
3 226 225 214
3 215 225 224
3 222 218 217
3 216 215 224
3 217 216 223
3 226 214 277
3 277 212 211
3 277 214 213
3 215 214 225
3 277 211 210
3 182 231 267
3 278 286 203
3 227 277 228
3 207 272 208
3 184 278 185
3 184 183 278
3 201 200 278
3 278 199 198
3 226 277 227
3 272 207 206
3 208 272 277
3 206 205 286
3 273 262 21
3 205 204 286
3 267 183 182
3 203 202 278
3 206 286 272
3 273 21 271
3 208 277 209
3 277 210 209
3 169 168 270
3 270 284 169
3 270 168 274
3 163 279 164
3 165 287 166
3 165 164 287
3 287 120 274
3 284 170 169
3 163 162 279
3 160 288 162
3 279 288 122
3 161 160 162
3 158 280 159
3 160 280 288
3 287 164 279
3 158 156 280
3 124 123 288
3 280 160 159
3 288 280 125
3 153 129 128
3 129 152 130
3 128 127 154
3 126 155 127
3 154 127 155
3 130 152 131
3 153 128 154
3 132 131 151
3 150 133 132
3 133 149 134
3 134 148 135
3 153 152 129
3 126 280 155
3 156 155 280
3 158 157 156
3 194 189 188
3 187 195 188
3 194 190 189
3 192 190 193
3 190 192 191
3 193 190 194
3 196 187 186
3 186 185 197
3 197 185 198
3 278 198 185
3 196 195 187
3 194 188 195
3 197 196 186
3 151 150 132
3 149 133 150
3 134 149 148
3 140 137 136
3 137 139 138
3 147 136 135
3 148 147 135
3 131 152 151
3 147 146 140
3 145 144 142
3 146 145 141
3 139 137 140
3 145 142 141
3 141 140 146
3 143 142 144
3 140 136 147
3 260 259 261
3 199 278 200
3 258 261 259
3 247 264 248
3 13 264 263
3 73 265 77
3 72 71 282
3 174 266 175
3 237 236 266
3 272 230 229
3 204 203 286
3 238 237 268
3 266 268 237
3 22 262 269
3 283 262 268
3 168 167 274
3 66 65 270
3 271 244 243
3 20 263 271
3 230 272 267
3 228 272 229
3 262 273 268
3 243 273 271
3 287 167 166
3 282 120 265
3 62 285 63
3 62 61 285
3 79 276 80
3 116 115 276
3 277 272 228
3 213 212 277
3 267 278 183
3 202 201 278
3 122 121 279
3 279 121 120
3 126 125 280
3 288 125 124
3 118 117 281
3 281 117 116
3 289 69 68
3 120 282 274
3 173 275 283
3 283 275 285
3 270 275 284
3 172 284 275
3 61 269 285
3 262 285 269
3 278 267 286
3 272 286 267
3 120 287 279
3 167 287 274
3 122 288 123
3 288 279 162
3 274 289 270
3 66 270 289
