ply
format ascii 1.0
element vertex 327
property float x
property float y
property float z
property float u
property float v
element face 429
property list uchar int vertex_indices
end_header
121.636 8.36396 0 121.636 8.36396
117 21.4437 0 117 21.4437
118.021 36.0208 0 118.021 36.0208
129.13 42 0 129.13 42
136 32.1127 0 136 32.1127
140.577 33.5772 0 140.577 33.5772
147.941 44.9411 0 147.941 44.9411
155.891 51.1091 0 155.891 51.1091
166.548 52.5477 0 166.548 52.5477
171 64.8751 0 171 64.8751
164.439 74 0 164.439 74
154.532 83.468 0 154.532 83.468
144.168 91.8319 0 144.168 91.8319
141 104.691 0 141 104.691
145 116.034 0 145 116.034
151.388 128.388 0 151.388 128.388
159.459 139.459 0 159.459 139.459
169 149.336 0 169 149.336
168.149 157 0 168.149 157
154.806 153 0 154.806 153
141.049 150 0 141.049 150
127.706 148 0 127.706 148
115.135 142.135 0 115.135 142.135
110 129.262 0 110 129.262
105.236 116.236 0 105.236 116.236
100.993 102.993 0 100.993 102.993
96 90.0612 0 96 90.0612
90 77.5464 0 90 77.5464
82 65.8602 0 82 65.8602
76 53.3454 0 76 53.3454
68.8803 43.8803 0 68.8803 43.8803
66 53.9266 0 66 53.9266
68.2698 61 0 68.2698 61
59.2156 67 0 59.2156 67
49 59.2866 0 49 59.2866
39 55.8141 0 39 55.8141
43.1113 69.1113 0 43.1113 69.1113
51.258 80 0 51.258 80
63.7728 86 0 63.7728 86
72 93.1161 0 72 93.1161
74 107.288 0 74 107.288
76 121.459 0 76 121.459
78 135.631 0 78 135.631
81 149.388 0 81 149.388
85 162.732 0 85 162.732
90.4673 175.467 0 90.4673 175.467
100 183.239 0 100 183.239
109.69 183 0 109.69 183
122 189.205 0 122 189.205
127.549 195 0 127.549 195
140.923 198.923 0 140.923 198.923
144 212.649 0 144 212.649
144 226.821 0 144 226.821
147 240.578 0 147 240.578
141.641 253.359 0 141.641 253.359
134.564 264 0 134.564 264
124 271.951 0 124 271.951
118.085 283.915 0 118.085 283.915
110 295.566 0 110 295.566
102.528 307.472 0 102.528 307.472
95 319.353 0 95 319.353
86.2649 330.735 0 86.2649 330.735
77.0724 341.928 0 77.0724 341.928
80.8264 348 0 80.8264 348
94.12 352.12 0 94.12 352.12
93 365.099 0 93 365.099
90 378.856 0 90 378.856
88.6875 393.312 0 88.6875 393.312
77.9092 402.091 0 77.9092 402.091
67.5994 412 0 67.5994 412
56.6455 420.354 0 56.6455 420.354
46.4531 430.547 0 46.4531 430.547
37.968 442.032 0 37.968 442.032
30.8967 454.103 0 30.8967 454.103
23.8255 466.174 0 23.8255 466.174
15.7545 477.245 0 15.7545 477.245
8.68335 489.317 0 8.68335 489.317
4 501.791 0 4 501.791
3.54852 513 0 3.54852 513
15.6306 508.631 0 15.6306 508.631
27.4088 516.409 0 27.4088 516.409
38.6013 525.601 0 38.6013 525.601
50.1223 534 0 50.1223 534
63.8799 537 0 63.8799 537
55.0138 527.014 0 55.0138 527.014
49 514.505 0 49 514.505
43.6999 501.7 0 43.6999 501.7
41.3712 489.629 0 41.3712 489.629
52.3829 480 0 52.3829 480
63.4631 470.537 0 63.4631 470.537
74.6554 461.345 0 74.6554 461.345
85.555 451.445 0 85.555 451.445
96.6427 442 0 96.6427 442
107.94 433.06 0 107.94 433.06
121.182 428.818 0 121.182 428.818
131.961 420.039 0 131.961 420.039
139.032 407.968 0 139.032 407.968
148.224 396.776 0 148.224 396.776
156.71 385.29 0 156.71 385.29
163.781 373.219 0 163.781 373.219
174.376 366 0 174.376 366
185.166 376.166 0 185.166 376.166
196.358 385.358 0 196.358 385.358
207.843 393.843 0 207.843 393.843
219.465 402 0 219.465 402
231.4 409.4 0 231.4 409.4
237 422.08 0 237 422.08
240.592 435.592 0 240.592 435.592
244.835 448.835 0 244.835 448.835
250.492 461.492 0 250.492 461.492
258.27 473.27 0 258.27 473.27
266.049 485.049 0 266.049 485.049
275.341 496 0 275.341 496
283.312 507.312 0 283.312 507.312
294.212 517.212 0 294.212 517.212
303.576 526.576 0 303.576 526.576
306.182 520.182 0 306.182 520.182
313.258 511 0 313.258 511
327.304 508.696 0 327.304 508.696
339.375 501.625 0 339.375 501.625
340.261 493.261 0 340.261 493.261
325.783 492 0 325.783 492
311.198 491 0 311.198 491
301 483.854 0 301 483.854
296 470.925 0 296 470.925
293 457.168 0 293 457.168
288 444.239 0 288 444.239
283.926 430.926 0 283.926 430.926
279 417.966 0 279 417.966
277 403.795 0 277 403.795
278.559 389.441 0 278.559 389.441
281.866 378 0 281.866 378
271.541 369.541 0 271.541 369.541
261.349 359.349 0 261.349 359.349
262 351.393 0 262 351.393
253.085 340.085 0 253.085 340.085
246 329.191 0 246 329.191
238.357 317.357 0 238.357 317.357
229.165 306.165 0 229.165 306.165
220 294.961 0 220 294.961
214.618 283 0 214.618 283
218 271.104 0 218 271.104
222 257.761 0 222 257.761
225 244.004 0 225 244.004
229 230.661 0 229 230.661
239.311 221.689 0 239.311 221.689
253.197 219 0 253.197 219
267.783 220 0 267.783 220
275.711 210 0 275.711 210
288.468 212 0 288.468 212
303.054 211 0 303.054 211
317.64 210 0 317.64 210
328.305 211.695 0 328.305 211.695
328 226.57 0 328 226.57
328 241.57 0 328 241.57
327 256.152 0 327 256.152
327 271.152 0 327 271.152
326 285.742 0 326 285.742
326 300.738 0 326 300.738
327 315.326 0 327 315.326
331 315.089 0 331 315.089
330 303.575 0 330 303.575
332 289.403 0 332 289.403
339.493 277.507 0 339.493 277.507
350.271 268.729 0 350.271 268.729
362.484 262 0 362.484 262
374.413 254.587 0 374.413 254.587
386.191 246.809 0 386.191 246.809
393 234.629 0 393 234.629
396 220.872 0 396 220.872
397 206.285 0 397 206.285
396.919 192.081 0 396.919 192.081
398 178.357 0 398 178.357
396.868 165.132 0 396.868 165.132
397 151.015 0 397 151.015
395 136.843 0 395 136.843
388.525 124.525 0 388.525 124.525
376.747 116.747 0 376.747 116.747
364.677 109.677 0 364.677 109.677
352.605 102.605 0 352.605 102.605
343.828 91.8275 0 343.828 91.8275
339 78.8275 0 339 78.8275
339 64.6562 0 339 64.6562
341.193 52.8074 0 341.193 52.8074
334 56.7869 0 334 56.7869
333 71.3737 0 333 71.3737
332 85.957 0 332 85.957
332 100.957 0 332 100.957
331 115.543 0 331 115.543
331 130.543 0 331 130.543
330.615 145.385 0 330.615 145.385
330 160.131 0 330 160.131
330 175.129 0 330 175.129
319.699 181 0 319.699 181
305.114 180 0 305.114 180
290.527 179 0 290.527 179
281.185 173 0 281.185 173
266.599 172 0 266.599 172
256.06 164.06 0 256.06 164.06
249 151.984 0 249 151.984
253.497 142.503 0 253.497 142.503
242.968 140.968 0 242.968 140.968
238 128.026 0 238 128.026
231.655 115.655 0 231.655 115.655
225.291 103.291 0 225.291 103.291
219.048 92.0479 0 219.048 92.0479
210.684 81.6841 0 210.684 81.6841
202.199 70.199 0 202.199 70.199
191.181 62 0 191.181 62
178.178 61.1782 0 178.178 61.1782
169.107 51.1074 0 169.107 51.1074
173.257 40.7433 0 173.257 40.7433
176.294 30 0 176.294 30
171.741 20.2585 0 171.741 20.2585
164.851 11 0 164.851 11
155.094 6 0 155.094 6
133 1 0 133 1
165.084 46.951 0 165.084 46.951
170.571 56.7041 0 170.571 56.7041
328.662 309.491 0 328.662 309.491
141.079 24.1249 0 141.079 24.1249
331.926 296.62 0 331.926 296.62
183.176 154.788 0 183.176 154.788
86.4977 340.297 0 86.4977 340.297
246.864 354.158 0 246.864 354.158
332.688 281.528 0 332.688 281.528
135.814 181.532 0 135.814 181.532
181.632 76.702 0 181.632 76.702
157.36 29.728 0 157.36 29.728
129.113 22.1255 0 129.113 22.1255
70.5817 74.3203 0 70.5817 74.3203
104.473 168.019 0 104.473 168.019
276.122 191.156 0 276.122 191.156
325.336 195.973 0 325.336 195.973
103.727 335.094 0 103.727 335.094
155.12 17.9697 0 155.12 17.9697
161.718 102.976 0 161.718 102.976
28.0112 498.466 0 28.0112 498.466
144.43 288.1 0 144.43 288.1
118.286 360.743 0 118.286 360.743
246.202 188.109 0 246.202 188.109
261.363 206.767 0 261.363 206.767
372.238 173.9 0 372.238 173.9
193.645 270.609 0 193.645 270.609
297.539 499.643 0 297.539 499.643
224.997 157.968 0 224.997 157.968
238.29 341.956 0 238.29 341.956
195.122 102.8 0 195.122 102.8
154.8 269.785 0 154.8 269.785
155.325 349.424 0 155.325 349.424
194.522 299.234 0 194.522 299.234
210.185 104.323 0 210.185 104.323
88.6589 112.446 0 88.6589 112.446
95.3164 139.061 0 95.3164 139.061
56.7187 450.915 0 56.7187 450.915
40.6143 467.902 0 40.6143 467.902
74.6484 432.6 0 74.6484 432.6
30.4686 479.495 0 30.4686 479.495
171.71 227.984 0 171.71 227.984
107.455 408.759 0 107.455 408.759
296.757 195.013 0 296.757 195.013
349.656 123.043 0 349.656 123.043
355.135 234.07 0 355.135 234.07
247.027 383.863 0 247.027 383.863
254.236 406.891 0 254.236 406.891
262.54 435.862 0 262.54 435.862
270.904 456.47 0 270.904 456.47
282.295 480.682 0 282.295 480.682
218.267 367.719 0 218.267 367.719
122.253 173.39 0 122.253 173.39
144.594 166.789 0 144.594 166.789
195.305 84.1693 0 195.305 84.1693
115.631 157.477 0 115.631 157.477
110.669 320.955 0 110.669 320.955
169.372 89.0787 0 169.372 89.0787
171.893 121.917 0 171.893 121.917
129.014 300.129 0 129.014 300.129
134.478 377.743 0 134.478 377.743
107.816 375.535 0 107.816 375.535
243.283 205.007 0 243.283 205.007
383.734 184.138 0 383.734 184.138
355.162 198.482 0 355.162 198.482
350.919 167.63 0 350.919 167.63
370.784 147.488 0 370.784 147.488
199.415 245.63 0 199.415 245.63
211.259 133.929 0 211.259 133.929
239.637 165.559 0 239.637 165.559
212.438 329.274 0 212.438 329.274
158.847 253.059 0 158.847 253.059
83.3841 418.105 0 83.3841 418.105
158.177 219.735 0 158.177 219.735
123.204 406.803 0 123.204 406.803
344.966 138.331 0 344.966 138.331
348.347 250.788 0 348.347 250.788
344.567 219.469 0 344.567 219.469
374.23 223.33 0 374.23 223.33
233.299 393.012 0 233.299 393.012
264.231 395.146 0 264.231 395.146
251.693 425.408 0 251.693 425.408
200.836 368.495 0 200.836 368.495
230.485 356.553 0 230.485 356.553
128.033 338.254 0 128.033 338.254
181.943 136.84 0 181.943 136.84
132.772 393.456 0 132.772 393.456
148.665 372.471 0 148.665 372.471
218.21 207.85 0 218.21 207.85
382.723 157.941 0 382.723 157.941
374.908 132.339 0 374.908 132.339
206.104 260.267 0 206.104 260.267
211.435 232.666 0 211.435 232.666
226.584 139.832 0 226.584 139.832
201.044 119.477 0 201.044 119.477
211.68 311.117 0 211.68 311.117
158.034 202.296 0 158.034 202.296
113.396 392.21 0 113.396 392.21
372.557 238.969 0 372.557 238.969
135.991 360.091 0 135.991 360.091
179.705 183.358 0 179.705 183.358
172.846 210.895 0 172.846 210.895
174.319 265.656 0 174.319 265.656
208.723 349.502 0 208.723 349.502
221.37 182.877 0 221.37 182.877
192 226.7 0 192 226.7
192.121 321.028 0 192.121 321.028
155.18 183.079 0 155.18 183.079
155.214 317.814 0 155.214 317.814
169.292 290.085 0 169.292 290.085
3 35 34 36
3 36 33 37
3 33 36 34
3 38 37 33
3 1 229 2
3 32 29 28
3 32 31 29
3 230 38 33
3 230 33 32
3 29 31 30
3 230 27 39
3 230 39 38
3 40 26 252
3 42 41 253
3 253 231 44
3 41 252 253
3 40 39 26
3 252 41 40
3 252 24 253
3 231 46 45
3 46 231 47
3 43 253 44
3 253 22 272
3 48 269 226
3 252 26 25
3 27 26 39
3 220 229 216
3 4 220 5
3 4 3 2
3 228 5 220
3 213 235 214
3 214 235 215
3 217 228 211
3 217 210 8
3 210 217 211
3 217 6 228
3 212 211 228
3 213 228 235
3 12 11 236
3 236 13 12
3 21 270 269
3 274 11 10
3 14 13 236
3 236 275 15
3 8 210 218
3 236 11 274
3 324 313 50
3 302 16 275
3 324 18 317
3 9 209 227
3 231 269 47
3 16 15 275
3 220 4 229
3 226 270 324
3 89 88 255
3 90 89 254
3 87 255 88
3 73 72 254
3 89 255 254
3 254 71 256
3 61 223 62
3 256 91 90
3 90 254 256
3 92 91 256
3 289 256 69
3 63 62 223
3 79 77 76
3 86 237 87
3 79 78 77
3 85 81 80
3 79 237 80
3 237 75 257
3 237 257 87
3 80 237 86
3 81 85 84
3 81 84 82
3 84 83 82
3 6 217 7
3 85 80 86
3 87 257 255
3 8 7 217
3 273 234 60
3 276 57 238
3 55 238 56
3 49 48 226
3 258 290 318
3 54 248 55
3 52 290 53
3 248 238 55
3 284 309 143
3 226 50 49
3 238 57 56
3 65 64 239
3 65 239 278
3 289 93 92
3 289 92 256
3 278 66 65
3 67 259 289
3 273 60 59
3 61 234 223
3 95 291 96
3 234 64 223
3 93 259 94
3 94 291 95
3 314 67 278
3 97 277 98
3 98 277 304
3 326 243 250
3 207 227 208
3 10 9 227
3 16 302 17
3 236 274 247
3 311 251 203
3 310 285 203
3 310 202 201
3 200 199 201
3 232 240 197
3 145 305 279
3 17 222 18
3 197 240 198
3 232 148 241
3 145 279 146
3 260 232 195
3 241 147 146
3 143 142 284
3 321 286 240
3 195 232 196
3 194 233 260
3 194 193 233
3 260 195 194
3 151 260 233
3 150 260 151
3 149 148 232
3 141 308 142
3 185 184 182
3 182 184 183
3 186 185 181
3 180 187 186
3 179 188 187
3 182 181 185
3 181 180 186
3 188 179 261
3 261 189 188
3 261 179 178
3 180 179 187
3 175 283 307
3 306 175 174
3 189 292 190
3 153 262 154
3 242 280 281
3 168 167 315
3 192 281 233
3 233 152 151
3 165 293 315
3 292 189 261
3 175 306 283
3 2 229 4
3 280 173 172
3 168 295 169
3 281 152 233
3 280 242 173
3 174 173 306
3 283 242 282
3 216 215 220
3 250 312 323
3 54 288 248
3 246 287 137
3 287 138 137
3 312 139 138
3 308 284 142
3 135 224 246
3 137 136 246
3 133 224 134
3 132 130 297
3 135 134 224
3 136 135 246
3 130 132 131
3 296 103 268
3 296 268 263
3 106 105 264
3 107 265 108
3 265 107 298
3 299 268 103
3 265 298 128
3 266 108 265
3 110 109 266
3 110 266 267
3 123 267 124
3 127 265 128
3 129 297 130
3 264 297 129
3 221 157 162
3 159 219 160
3 219 158 161
3 157 221 158
3 156 155 164
3 293 262 315
3 293 154 262
3 161 158 221
3 164 163 156
3 157 225 162
3 164 293 165
3 125 267 266
3 244 267 123
3 113 112 244
3 114 116 115
3 122 244 123
3 244 112 267
3 124 267 125
3 117 122 121
3 119 121 120
3 116 114 117
3 118 117 121
3 121 119 118
3 114 244 117
3 209 9 218
3 126 266 265
3 168 315 295
3 208 227 209
3 199 245 201
3 286 245 199
3 234 61 60
3 64 63 223
3 133 263 224
3 103 102 299
3 157 156 225
3 156 163 225
3 48 47 269
3 19 270 20
3 206 271 207
3 206 205 251
3 213 212 228
3 6 5 228
3 1 0 229
3 216 229 0
3 32 28 230
3 27 230 28
3 44 231 45
3 21 272 22
3 148 147 241
3 197 196 232
3 193 192 233
3 282 281 192
3 57 276 58
3 301 239 234
3 228 220 235
3 220 215 235
3 271 227 207
3 15 14 236
3 79 76 237
3 75 237 76
3 140 250 243
3 99 249 100
3 234 239 64
3 99 98 304
3 144 143 309
3 311 203 285
3 279 241 146
3 232 241 240
3 280 172 171
3 191 282 192
3 141 140 243
3 140 139 250
3 117 244 122
3 114 113 244
3 286 199 198
3 279 305 321
3 263 268 300
3 100 323 320
3 204 251 205
3 247 271 251
3 288 54 53
3 326 238 248
3 301 234 273
3 319 326 248
3 138 287 312
3 323 325 326
3 204 203 251
3 310 203 202
3 25 24 252
3 24 23 253
3 22 253 23
3 43 42 253
3 72 71 254
3 71 70 256
3 74 73 255
3 254 255 73
3 70 69 256
3 69 68 289
3 75 74 257
3 255 257 74
3 51 290 52
3 290 258 53
3 66 278 67
3 94 259 291
3 150 149 260
3 232 260 149
3 177 307 178
3 307 177 176
3 153 152 294
3 167 166 315
3 296 105 104
3 133 132 263
3 264 105 296
3 128 264 129
3 106 298 107
3 126 265 127
3 266 109 108
3 125 266 126
3 112 111 267
3 267 111 110
3 246 224 300
3 299 102 101
3 272 269 231
3 270 21 20
3 18 270 19
3 269 270 226
3 251 271 206
3 274 271 247
3 269 272 21
3 253 272 231
3 58 273 59
3 325 301 276
3 10 227 274
3 274 227 271
3 236 247 275
3 311 247 251
3 276 238 325
3 273 58 276
3 303 97 96
3 277 316 304
3 239 277 278
3 303 314 277
3 305 145 144
3 241 279 240
3 171 170 280
3 169 295 170
3 295 280 170
3 153 294 262
3 292 191 190
3 281 282 242
3 282 191 292
3 178 307 261
3 284 243 319
3 309 284 322
3 245 222 285
3 222 17 302
3 198 240 286
3 240 279 321
3 320 246 300
3 320 287 246
3 53 258 288
3 258 284 319
3 67 289 68
3 93 289 259
3 50 313 51
3 290 51 313
3 314 291 259
3 97 303 277
3 307 292 261
3 282 292 283
3 164 155 293
3 154 293 155
3 152 281 294
3 295 294 281
3 294 295 262
3 295 281 280
3 296 104 103
3 264 296 263
3 264 263 297
3 132 297 263
3 106 264 298
3 128 298 264
3 101 100 299
3 249 323 100
3 263 300 224
3 300 268 320
3 276 301 273
3 316 301 249
3 311 275 247
3 285 222 302
3 96 291 303
3 303 291 314
3 316 277 239
3 249 99 304
3 318 290 313
3 321 245 286
3 173 242 306
3 242 283 306
3 175 307 176
3 307 283 292
3 141 243 308
3 243 284 308
3 322 284 258
3 305 144 309
3 201 245 310
3 245 285 310
3 285 302 311
3 275 311 302
3 323 312 287
3 250 139 312
3 50 226 324
3 317 18 222
3 67 314 259
3 314 278 277
3 315 166 165
3 262 295 315
3 301 316 239
3 249 304 316
3 321 222 245
3 309 322 305
3 313 317 318
3 305 318 317
3 248 288 319
3 319 288 258
3 268 299 320
3 100 320 299
3 305 317 321
3 222 321 317
3 258 318 322
3 305 322 318
3 320 323 287
3 249 301 325
3 317 313 324
3 18 324 270
3 323 249 325
3 325 238 326
3 243 326 319
3 326 250 323
